<svg width="27" height="24" viewBox="0 0 27 24" fill="none" xmlns="http://www.w3.org/2000/svg">
<path d="M4.73097 6.35456C5.52643 6.5056 6.29169 6.67678 7.07708 6.84795C11.1776 7.88936 14.5972 10.8854 18.4599 12.5863C18.4599 12.5863 24.1543 14.3949 26.4702 15.6435H26.4601C26.9837 16.1117 26.5558 16.6655 26.007 16.8266C23.2092 17.9135 20.5434 19.3466 17.7453 20.4364C16.8779 20.7897 10.5812 23.3765 10.5812 23.3765L8.39086 13.4254C8.39086 13.4254 5.99766 11.8281 5.1841 11.2079C3.43254 10.0576 0.923106 8.85433 0.0135985 6.7976C-0.263362 5.22816 3.7713 6.2579 4.73097 6.35456Z" fill="#E293B3"/>
<path d="M23.3796 0.278399C19.7344 1.53887 16.0273 3.19672 12.4747 4.70882C11.7371 5.02461 7.53629 6.64733 7.4704 7.37208C7.20357 8.14237 7.23882 8.963 7.39993 9.74839C7.79199 11.7206 8.36596 22.8602 10.3703 23.8754C12.4472 24.8314 23.8937 4.5958 24.6131 2.72016C25.3229 1.06883 26.0227 -0.688226 23.3796 0.273374V0.278399Z" fill="#FCB1CE"/>
</svg>
