<svg width="185" height="166" viewBox="0 0 185 166" fill="none" xmlns="http://www.w3.org/2000/svg">
<path d="M77.4499 60.4509L56.4799 53.0509C56.9999 51.8209 56.7999 50.2609 55.5699 49.3809C53.5899 48.1309 51.0699 48.3209 48.8499 47.7409C43.4199 46.5609 38.1499 45.3809 32.6599 44.3409C27.8299 43.8509 22.9899 43.5509 18.2199 42.5509C12.9899 42.1009 -1.53007 37.9309 0.129932 47.3709C3.19993 54.2709 10.3599 58.0609 15.0199 63.7609C20.1799 70.6409 28.8199 73.2109 35.7799 77.8009C39.2799 80.4709 42.8199 83.0709 46.8399 84.9009C49.2199 85.9509 51.2899 87.3809 53.4099 89.0209C56.5899 90.6309 58.9699 88.0209 58.7199 85.4709H67.4999L77.4499 60.4509Z" fill="#FC5EB5"/>
<path d="M182.67 108.421C166.68 99.8008 148.04 97.7108 131.77 89.7408C129.77 88.8108 128.02 87.2808 125.87 86.7408C124.77 86.5408 123.89 87.3108 123.55 88.2708L106.9 78.3008L82.6198 102.331L68.9897 132.311L74.3897 156.821C72.8797 158.031 71.8698 159.481 73.0498 161.751C75.9998 166.061 80.4697 161.311 83.2797 159.211C85.7597 157.101 88.2997 155.041 91.2097 153.561C101.3 148.471 112.01 145.751 122.52 141.491C129.13 138.901 135.32 135.381 141.98 132.941C149.93 130.261 157.54 126.811 164.92 122.831C169.41 120.491 174.71 118.471 179.53 116.581C183.33 115.461 186.26 111.641 182.66 108.431L182.67 108.421Z" fill="#FC5EB5"/>
<path d="M161.37 2.38045C153.95 4.96045 147.3 9.29045 140.01 12.2305C129.07 16.9005 118.07 21.4404 107.01 25.8404C100.09 28.3004 92.9197 30.0804 86.1497 32.9604C75.5197 37.5204 65.5897 43.5004 55.4997 49.1204C55.2397 49.2904 54.9497 49.4704 54.6697 49.6604C54.4297 49.4904 54.1597 49.3504 53.8297 49.3104C52.5797 49.1304 51.7297 50.1904 51.6097 51.3304C49.7597 56.6304 50.0197 62.3004 51.1097 67.7404C53.3897 79.2604 55.5197 90.8104 57.5197 102.38C59.8697 113.58 62.4297 124.72 64.1497 136.05C65.7397 144 68.3197 151.71 70.0797 159.62C69.1597 161.73 68.8997 163.87 71.5897 165.2C73.7897 166.2 75.9997 164.59 76.7097 162.5C77.4097 161.1 78.5297 159.03 79.6697 157.41C83.7397 151.56 88.6797 145.98 92.8197 140.05C96.3497 134.78 99.4597 129.22 103.07 123.99C107.56 117.12 113.01 110.78 117.63 103.99C122.16 97.1904 126.05 89.2004 130.19 82.0504C133.05 76.9304 136.8 72.4404 140.45 67.8704C145.7 61.1104 149.99 53.6904 154.76 46.6104C160.86 38.2704 166.17 28.9804 169.91 19.2605C174.8 7.87045 179.65 -4.23955 161.39 2.38045H161.37Z" fill="#FF76B4"/>
</svg>
