<svg width="390" height="844" viewBox="0 0 390 844" fill="none" xmlns="http://www.w3.org/2000/svg">
<rect width="390" height="844" fill="#2F2E2E"/>
<path d="M145.564 519.178C145.664 518.963 145.914 518.599 146.314 518.085L147.085 517.013C147.328 516.613 147.621 516.163 147.964 515.663C148.35 515.049 148.593 514.528 148.693 514.099C148.793 513.67 148.864 512.842 148.907 511.613C148.935 510.756 148.978 510.235 149.035 510.049C149.078 509.835 149.207 509.678 149.421 509.578C149.535 509.52 149.657 509.492 149.785 509.492C149.943 509.492 150.085 509.556 150.214 509.685L150.45 509.92V511.099C150.45 511.97 150.421 512.67 150.364 513.199C150.35 513.813 150.35 514.142 150.364 514.185C150.393 514.242 150.678 514.563 151.221 515.149L152.25 516.285C152.593 516.713 153.057 517.242 153.643 517.871C154 518.242 154.25 518.599 154.393 518.942C154.493 519.185 154.543 519.363 154.543 519.478C154.543 519.578 154.521 519.663 154.478 519.735C154.421 519.849 154.293 519.963 154.093 520.078C153.964 520.135 153.857 520.163 153.771 520.163C153.728 520.163 153.636 520.128 153.493 520.056C153.307 519.942 153.007 519.642 152.593 519.156L151.457 517.828L150.364 516.628C149.978 516.171 149.75 515.956 149.678 515.985C149.593 516.013 149.371 516.342 149.014 516.971C148.685 517.542 148.4 518.006 148.157 518.363C148.014 518.578 147.8 518.921 147.514 519.392C147.3 519.763 147.071 520.071 146.828 520.313C146.7 520.442 146.593 520.535 146.507 520.592C146.45 520.635 146.335 520.656 146.164 520.656C145.95 520.656 145.764 520.599 145.607 520.485C145.507 520.428 145.443 520.356 145.414 520.271C145.385 520.185 145.371 520.056 145.371 519.885C145.371 519.642 145.435 519.406 145.564 519.178ZM157.693 508.978C157.864 508.992 158.007 509.056 158.121 509.17C158.236 509.285 158.314 509.385 158.357 509.47C158.4 509.542 158.436 510.492 158.464 512.32L158.507 515.063L159.664 515.106C160.421 515.135 160.864 515.178 160.993 515.235C161.221 515.363 161.336 515.542 161.336 515.77C161.336 516.17 161.136 516.449 160.736 516.606C160.607 516.663 160.286 516.692 159.771 516.692C159.3 516.692 158.957 516.728 158.743 516.799L158.464 516.906V518.449C158.464 519.263 158.428 520.256 158.357 521.428C158.3 522.299 158.221 522.842 158.121 523.056C158.036 523.213 157.843 523.292 157.543 523.292C157.343 523.292 157.157 523.264 156.986 523.206C156.9 523.149 156.821 523.056 156.75 522.928C156.664 522.785 156.621 522.549 156.621 522.221L156.686 520.356C156.686 520.142 156.7 519.706 156.728 519.049C156.771 517.349 156.793 515.413 156.793 513.242C156.793 511.37 156.814 510.256 156.857 509.899C156.871 509.556 156.993 509.299 157.221 509.128C157.336 509.028 157.493 508.978 157.693 508.978Z" fill="white"/>
<path d="M161.957 514.678C161.957 513.592 161.986 512.935 162.043 512.707C162.114 512.435 162.264 512.25 162.493 512.15C162.664 512.064 163.514 512.021 165.043 512.021C166.571 512.021 167.35 511.985 167.464 511.914C167.564 511.857 167.636 511.6 167.679 511.142C167.693 511.042 167.7 510.914 167.7 510.757C167.7 510.542 167.671 510.414 167.614 510.371C167.557 510.3 166.7 510.257 165.043 510.242C163.771 510.228 162.971 510.192 162.643 510.135C162.371 510.092 162.193 509.964 162.107 509.75C162.078 509.664 162.064 509.6 162.064 509.557C162.064 509.5 162.078 509.428 162.107 509.342C162.178 509.171 162.271 509.057 162.386 509C162.486 508.942 162.871 508.914 163.543 508.914C163.943 508.914 164.236 508.907 164.421 508.892L166.929 508.871C168.029 508.871 168.636 508.9 168.75 508.957C169.05 509.114 169.243 509.342 169.329 509.642C169.371 509.828 169.393 510.092 169.393 510.435C169.393 510.592 169.379 510.885 169.35 511.314C169.307 511.914 169.236 512.342 169.136 512.6C169.036 512.871 168.886 513.064 168.686 513.178C168.371 513.35 167.414 513.435 165.814 513.435C164.729 513.435 164.107 513.45 163.95 513.478C163.75 513.521 163.628 513.628 163.586 513.8C163.571 513.828 163.564 513.935 163.564 514.121C163.564 514.378 163.571 514.6 163.586 514.785L163.671 515.557H166.329C168.129 515.557 169.05 515.564 169.093 515.578C169.207 515.593 169.314 515.678 169.414 515.835C169.529 515.993 169.586 516.143 169.586 516.285C169.557 516.6 169.436 516.814 169.221 516.928C169.093 517 167.95 517.043 165.793 517.057L162.514 517.121L161.957 516.521V514.678ZM163.928 520.528C163.986 520.457 164.071 520.278 164.186 519.993C164.329 519.707 164.486 519.478 164.657 519.307C164.786 519.178 165.021 519 165.364 518.771C165.693 518.571 165.936 518.45 166.093 518.407C166.207 518.393 166.321 518.35 166.436 518.278C166.764 518.15 167.307 518.043 168.064 517.957C168.436 517.928 168.729 517.914 168.943 517.914C169.371 517.914 169.886 517.95 170.486 518.021C171.343 518.15 171.986 518.328 172.414 518.557C172.629 518.671 172.886 518.871 173.186 519.157C173.472 519.457 173.672 519.714 173.786 519.928C173.914 520.157 173.979 520.493 173.979 520.935C173.95 521.421 173.872 521.8 173.743 522.071C173.6 522.357 173.343 522.643 172.972 522.928C172.157 523.543 170.929 523.85 169.286 523.85C168.143 523.85 166.971 523.671 165.771 523.314C165.071 523.085 164.571 522.821 164.271 522.521C164 522.25 163.864 521.821 163.864 521.235C163.864 520.85 163.886 520.614 163.928 520.528ZM167.957 522.264C168.471 522.307 168.929 522.328 169.329 522.328C170.114 522.328 170.729 522.25 171.171 522.093C171.443 521.993 171.686 521.843 171.9 521.643C172.114 521.428 172.221 521.214 172.221 521C172.221 520.643 172.129 520.35 171.943 520.121C171.771 519.907 171.421 519.721 170.893 519.564C170.664 519.478 169.95 519.435 168.75 519.435C168.307 519.435 167.986 519.45 167.786 519.478L167.486 519.543L167.164 519.585C166.507 519.714 166.021 520.021 165.707 520.507C165.536 520.764 165.45 520.985 165.45 521.171C165.45 521.371 165.529 521.55 165.686 521.707C165.971 521.964 166.729 522.15 167.957 522.264ZM172.822 508.442C172.907 508.442 173.022 508.485 173.164 508.571C173.322 508.657 173.407 508.792 173.422 508.978C173.464 509.335 173.493 509.907 173.507 510.692C173.536 511.692 173.579 512.228 173.636 512.3C173.707 512.371 174.107 512.407 174.836 512.407C175.564 512.407 176.064 512.457 176.25 512.557C176.45 512.671 176.55 512.9 176.55 513.242C176.55 513.414 176.5 513.571 176.4 513.714L176.229 513.928L175.007 513.907H174.729C174.1 513.878 173.736 513.928 173.636 514.057C173.522 514.2 173.464 514.664 173.464 515.45V515.793C173.464 516.564 173.457 517.007 173.443 517.121C173.414 517.293 173.364 517.428 173.293 517.528C173.193 517.657 173 517.721 172.714 517.721C172.414 517.721 172.207 517.657 172.093 517.528C171.964 517.414 171.879 517.178 171.836 516.821C171.807 516.493 171.807 516.207 171.836 515.964C171.893 515.692 171.929 514.521 171.943 512.45C171.986 510.735 172.029 509.692 172.071 509.321C172.114 508.964 172.243 508.721 172.457 508.592C172.586 508.521 172.707 508.471 172.822 508.442Z" fill="white"/>
<path d="M177.664 519.5C177.85 519.442 179.342 519.392 182.142 519.35C184.957 519.278 186.371 519.235 186.385 519.221C186.414 519.192 186.521 519.178 186.707 519.178C186.921 519.207 187.078 519.235 187.178 519.264C187.578 519.378 187.807 519.578 187.864 519.864V519.971C187.864 520.1 187.835 520.221 187.778 520.335C187.707 520.507 187.6 520.628 187.457 520.7C187.3 520.757 185.785 520.792 182.914 520.807C180.085 520.821 178.507 520.85 178.178 520.892H178.05C177.835 520.892 177.65 520.85 177.492 520.764C177.292 520.621 177.192 520.435 177.192 520.207C177.192 519.835 177.35 519.6 177.664 519.5ZM178.821 511.399C178.95 511.171 179.214 510.885 179.614 510.542C180.028 510.171 180.285 509.985 180.385 509.985L180.707 509.856C180.864 509.785 181.064 509.721 181.307 509.664C181.55 509.606 181.828 509.578 182.142 509.578C182.457 509.578 182.771 509.606 183.042 509.664C183.614 509.764 184.114 509.949 184.543 510.221C185.143 510.621 185.593 511.242 185.893 512.085C186.064 512.599 186.15 513.099 186.15 513.585C186.15 513.871 186.114 514.178 186.043 514.507C185.743 515.721 185.178 516.571 184.35 517.057C183.978 517.271 183.65 517.414 183.364 517.485C183.05 517.557 182.65 517.592 182.164 517.592C181.464 517.592 180.9 517.499 180.471 517.314C180.028 517.142 179.578 516.828 179.121 516.371C178.464 515.714 178.135 514.899 178.135 513.928C178.135 513.642 178.171 513.307 178.242 512.921C178.342 512.407 178.535 511.899 178.821 511.399ZM180.021 515.042C180.392 515.714 181.085 516.078 182.1 516.135C182.385 516.149 182.578 516.149 182.678 516.135C182.835 516.107 182.992 516.057 183.15 515.985C183.75 515.714 184.15 515.199 184.35 514.442C184.421 514.157 184.457 513.899 184.457 513.671C184.457 513.442 184.421 513.171 184.35 512.857C184.25 512.442 184.121 512.114 183.964 511.871C183.778 511.642 183.514 511.457 183.171 511.314C182.814 511.171 182.457 511.099 182.1 511.099C181.785 511.099 181.507 511.164 181.264 511.292C180.692 511.578 180.292 511.985 180.064 512.514C179.978 512.671 179.921 512.842 179.892 513.028C179.864 513.228 179.85 513.492 179.85 513.821C179.85 514.378 179.907 514.785 180.021 515.042ZM189.857 508.742C190.185 508.742 190.385 508.778 190.457 508.849C190.528 508.921 190.564 511.321 190.564 516.049V523.164L190.328 523.357C190.157 523.5 190 523.571 189.857 523.571C189.685 523.571 189.5 523.485 189.3 523.314L189.064 523.1L189 521.642C188.971 520.985 188.957 520.021 188.957 518.75L188.978 514.999C189.007 511.385 189.035 509.506 189.064 509.364C189.15 509.006 189.3 508.806 189.514 508.764C189.571 508.749 189.685 508.742 189.857 508.742Z" fill="white"/>
<path d="M198.601 516.156C198.629 515.813 198.772 515.606 199.029 515.535C199.286 515.463 200.186 515.421 201.729 515.406H201.815C203.601 515.378 204.529 515.342 204.601 515.299C204.672 515.228 204.715 514.899 204.729 514.313C204.729 513.928 204.744 513.663 204.772 513.521C204.801 513.392 204.858 513.285 204.944 513.199C205.072 513.071 205.251 513.006 205.479 513.006C205.722 513.006 205.894 513.035 205.994 513.092C206.251 513.221 206.379 513.628 206.379 514.313C206.379 514.742 206.408 515.021 206.465 515.149L206.572 515.342L209.401 515.385L210.644 515.406C211.344 515.406 211.758 515.413 211.887 515.428C212.129 515.442 212.322 515.499 212.465 515.599C212.679 515.742 212.808 515.935 212.851 516.178V516.263C212.851 516.463 212.779 516.642 212.637 516.799L212.465 516.971L205.758 516.949L202.865 516.928C201.208 516.928 200.236 516.921 199.951 516.906C199.308 516.892 198.929 516.849 198.815 516.778C198.715 516.706 198.651 516.642 198.622 516.585C198.608 516.542 198.601 516.406 198.601 516.178V516.156ZM202.651 508.249L205.629 508.27L207.708 508.292C208.851 508.292 209.544 508.299 209.787 508.313C210.372 508.328 210.737 508.37 210.879 508.442C211.179 508.556 211.365 508.72 211.437 508.935C211.451 508.963 211.458 509.013 211.458 509.085C211.458 509.228 211.379 509.399 211.222 509.599L210.965 509.856L208.801 509.792L207.365 509.77C206.865 509.77 206.586 509.785 206.529 509.813C206.358 509.913 206.501 510.128 206.958 510.456L207.108 510.563L208.136 511.078L208.544 511.27C209.272 511.628 209.679 511.806 209.765 511.806L210.022 511.913C210.251 512.028 210.487 512.128 210.729 512.213C211.358 512.428 211.737 512.678 211.865 512.963C211.879 512.992 211.887 513.035 211.887 513.092C211.887 513.163 211.851 513.285 211.779 513.456C211.651 513.728 211.465 513.863 211.222 513.863C211.179 513.863 211.101 513.849 210.987 513.821C210.844 513.792 210.394 513.621 209.636 513.306L207.901 512.599C207.486 512.399 207.015 512.192 206.486 511.978L205.694 511.656L205.072 512.021C204.944 512.106 204.636 512.285 204.151 512.556C203.979 512.642 203.636 512.856 203.122 513.199C202.022 513.913 201.365 514.271 201.151 514.271C201.008 514.271 200.858 514.206 200.701 514.078C200.558 513.978 200.472 513.842 200.443 513.671C200.372 513.371 200.472 513.099 200.743 512.856C200.872 512.728 201.193 512.499 201.708 512.171C202.251 511.828 202.551 511.656 202.608 511.656C202.651 511.656 202.894 511.521 203.336 511.249L204.151 510.735C204.308 510.62 204.458 510.478 204.601 510.306C204.729 510.149 204.794 510.049 204.794 510.006C204.794 509.835 204.515 509.749 203.958 509.749C203.544 509.749 202.929 509.72 202.115 509.663C201.172 509.592 200.636 509.549 200.508 509.535C200.379 509.506 200.279 509.406 200.208 509.235C200.179 509.092 200.165 508.999 200.165 508.956C200.165 508.885 200.179 508.792 200.208 508.678C200.322 508.463 200.422 508.342 200.508 508.313C200.593 508.27 201.308 508.249 202.651 508.249ZM200.915 519.842C201.001 519.614 201.222 519.299 201.579 518.899C201.965 518.471 202.336 518.156 202.694 517.956C203.122 517.742 203.615 517.585 204.172 517.485C204.629 517.399 205.065 517.356 205.479 517.356C206.279 517.356 207.086 517.499 207.901 517.785C209.115 518.213 209.915 518.835 210.301 519.649C210.458 519.992 210.537 520.371 210.537 520.785C210.537 521.199 210.508 521.492 210.451 521.664C210.379 521.864 210.229 522.114 210.001 522.414C209.472 523.142 208.501 523.635 207.086 523.892C206.786 523.964 206.394 523.999 205.908 523.999C205.422 523.999 205.001 523.964 204.601 523.892C203.615 523.735 202.836 523.521 202.265 523.249C201.908 523.078 201.636 522.914 201.451 522.756C201.279 522.628 201.122 522.406 200.979 522.092C200.822 521.735 200.743 521.335 200.743 520.892C200.743 520.492 200.801 520.142 200.915 519.842ZM202.286 520.956C202.286 521.385 202.551 521.706 203.079 521.921C203.608 522.135 204.372 522.271 205.372 522.328C205.858 522.356 206.179 522.371 206.336 522.371C206.865 522.371 207.258 522.328 207.515 522.242C207.972 522.085 208.315 521.821 208.544 521.449C208.658 521.264 208.715 521.049 208.715 520.806C208.715 520.606 208.679 520.435 208.608 520.292C208.322 519.649 207.672 519.213 206.658 518.985C206.301 518.913 205.958 518.878 205.629 518.878C204.715 518.878 203.979 519.021 203.422 519.306C202.879 519.606 202.522 520.021 202.351 520.549C202.308 520.692 202.286 520.828 202.286 520.956Z" fill="white"/>
<path d="M214.008 513.863C214.079 513.692 214.115 513.584 214.115 513.542C214.115 513.456 214.308 513.042 214.694 512.299C214.908 511.884 215.258 511.499 215.744 511.142C216.215 510.77 216.672 510.556 217.115 510.499C217.172 510.484 217.272 510.477 217.415 510.477C218.444 510.477 219.301 510.67 219.987 511.056C220.544 511.37 220.994 511.856 221.337 512.513C221.637 513.099 221.822 513.549 221.894 513.863C221.965 514.263 222.001 514.827 222.001 515.556C222.001 516.285 221.994 516.67 221.98 516.799C221.965 516.942 221.894 517.206 221.765 517.592C221.465 518.492 221.051 519.206 220.522 519.735C220.222 520.063 219.851 520.306 219.408 520.463C219.022 520.606 218.48 520.678 217.78 520.678C217.48 520.678 217.122 520.62 216.708 520.506C216.379 520.42 216.044 520.285 215.701 520.099C214.758 519.485 214.122 518.392 213.794 516.82C213.737 516.577 213.708 516.249 213.708 515.835C213.708 514.877 213.808 514.22 214.008 513.863ZM216.194 518.449C216.579 518.906 217.165 519.135 217.951 519.135C218.337 519.135 218.715 519.042 219.087 518.856C219.372 518.727 219.63 518.463 219.858 518.063C220.087 517.663 220.244 517.22 220.33 516.735C220.401 516.406 220.437 516.035 220.437 515.62C220.437 514.935 220.308 514.27 220.051 513.627C219.951 513.356 219.744 513.056 219.43 512.727C219.115 512.413 218.83 512.206 218.572 512.106C218.315 512.006 218.08 511.956 217.865 511.956C217.594 511.956 217.272 512.077 216.901 512.32C216.515 512.577 216.215 512.877 216.001 513.22C215.772 513.592 215.587 514.07 215.444 514.656C215.344 515.099 215.301 515.535 215.315 515.963C215.401 517.035 215.694 517.863 216.194 518.449ZM226.265 508.87H226.308C226.365 508.87 226.465 508.906 226.608 508.977C226.765 509.077 226.851 509.163 226.865 509.234C226.908 509.277 226.944 511.606 226.973 516.22L226.994 523.056L226.823 523.228C226.694 523.356 226.487 523.42 226.201 523.42C225.915 523.42 225.715 523.356 225.601 523.228C225.458 523.042 225.387 520.742 225.387 516.327V514.335L225.408 512.299C225.408 511.142 225.415 510.456 225.43 510.242C225.458 509.756 225.501 509.463 225.558 509.363C225.673 509.192 225.808 509.063 225.965 508.977C226.137 508.906 226.237 508.87 226.265 508.87Z" fill="white"/>
<path d="M229.93 510.714C230.102 510.642 230.43 510.599 230.916 510.585C231.373 510.557 232.681 510.535 234.838 510.521C235.338 510.507 235.931 510.499 236.616 510.499C237.131 510.499 237.438 510.507 237.538 510.521C237.866 510.549 238.109 510.599 238.266 510.671C238.524 510.785 238.688 510.949 238.759 511.164L238.781 511.292C238.781 511.464 238.702 511.628 238.545 511.785L238.309 511.999L236.381 512.021C234.523 512.021 233.823 512.071 234.281 512.171C234.309 512.185 234.352 512.192 234.409 512.192C234.709 512.235 235.038 512.328 235.395 512.471C235.838 512.642 236.131 512.785 236.273 512.899C236.516 513.071 236.709 513.257 236.852 513.457C237.323 514.071 237.559 514.764 237.559 515.535C237.559 515.935 237.495 516.307 237.366 516.65C237.181 517.135 236.873 517.557 236.445 517.914C235.845 518.414 235.173 518.664 234.431 518.664C234.031 518.664 233.552 518.585 232.995 518.428C232.252 518.242 231.673 517.978 231.259 517.635C230.988 517.392 230.773 517.092 230.616 516.735C230.445 516.364 230.359 516.014 230.359 515.685C230.359 514.957 230.695 514.214 231.366 513.457C232.009 512.728 232.738 512.307 233.552 512.192L233.788 512.128L233.231 512.085H233.209L231.13 512.021C230.559 512.021 230.173 512.007 229.973 511.978C229.83 511.949 229.723 511.907 229.652 511.849C229.538 511.735 229.48 511.599 229.48 511.442C229.48 511.328 229.502 511.221 229.545 511.121C229.616 510.907 229.745 510.771 229.93 510.714ZM233.895 508.378C235.195 508.378 235.895 508.385 235.995 508.399C236.195 508.442 236.338 508.549 236.423 508.721C236.481 508.821 236.509 508.928 236.509 509.042C236.509 509.257 236.395 509.449 236.166 509.621C236.095 509.692 235.959 509.742 235.759 509.771L235.245 509.792L234.281 509.771C233.209 509.771 232.523 509.749 232.223 509.707C231.923 509.664 231.695 509.557 231.538 509.385C231.381 509.228 231.302 509.099 231.302 508.999C231.302 508.914 231.359 508.792 231.473 508.635C231.573 508.521 231.688 508.449 231.816 508.421C231.988 508.392 232.681 508.378 233.895 508.378ZM234.045 516.928C234.759 516.928 235.288 516.75 235.631 516.392C235.816 516.178 235.909 515.899 235.909 515.557C235.909 515.299 235.859 515.078 235.759 514.892C235.516 514.421 235.138 514.107 234.623 513.949C234.366 513.878 234.145 513.842 233.959 513.842C233.445 513.842 232.995 514.035 232.609 514.421C232.166 514.821 231.981 515.314 232.052 515.9C232.123 516.585 232.788 516.928 234.045 516.928ZM232.181 519.714C232.181 519.628 232.202 519.557 232.245 519.5C232.402 519.3 232.781 519.171 233.381 519.114C233.981 519.042 235.288 518.978 237.302 518.921C239.074 518.864 240.216 518.835 240.731 518.835C241.045 518.864 241.245 518.921 241.331 519.007C241.531 519.15 241.659 519.364 241.716 519.65C241.759 519.921 241.781 520.542 241.781 521.514C241.781 522.385 241.774 522.9 241.759 523.057C241.745 523.257 241.702 523.435 241.631 523.592C241.531 523.764 241.466 523.857 241.438 523.871C241.352 523.9 241.231 523.914 241.074 523.914C240.816 523.914 240.645 523.892 240.559 523.85C240.459 523.807 240.366 523.714 240.281 523.571C240.181 523.371 240.131 523.05 240.131 522.607C240.131 522.307 240.109 521.914 240.066 521.428L240.024 520.4L232.673 520.464L232.416 520.228C232.288 520.1 232.216 519.971 232.202 519.842C232.188 519.814 232.181 519.771 232.181 519.714ZM240.152 513.028C240.195 511.285 240.238 510.228 240.281 509.857C240.295 509.628 240.324 509.407 240.366 509.192C240.381 509.121 240.452 509.021 240.581 508.892C240.738 508.749 240.924 508.678 241.138 508.678C241.252 508.678 241.352 508.692 241.438 508.721C241.495 508.735 241.559 508.807 241.631 508.935C241.688 509.035 241.731 509.192 241.759 509.407C241.774 509.549 241.781 510.049 241.781 510.907C241.781 512.035 241.816 512.635 241.888 512.707C241.945 512.764 242.216 512.792 242.702 512.792C243.445 512.792 243.952 512.857 244.224 512.985C244.495 513.114 244.631 513.342 244.631 513.671C244.631 513.899 244.566 514.092 244.438 514.249C244.338 514.321 244.231 514.371 244.116 514.399L243.774 514.421L243.109 514.399C242.352 514.399 241.924 514.435 241.824 514.507C241.766 514.549 241.724 514.657 241.695 514.828C241.666 515.028 241.645 515.485 241.631 516.2C241.616 516.914 241.595 517.371 241.566 517.571C241.552 517.728 241.502 517.878 241.416 518.021C241.288 518.221 241.116 518.321 240.902 518.321C240.631 518.321 240.409 518.207 240.238 517.978C240.124 517.821 240.066 517.485 240.066 516.971C240.066 515.9 240.095 514.585 240.152 513.028Z" fill="white"/>
<path d="M178.122 445.266L180.297 449.259C180.05 449.373 179.868 449.638 179.932 449.941C180.061 450.402 180.472 450.716 180.729 451.109C181.393 452.031 182.033 452.931 182.725 453.838C183.393 454.573 184.086 455.281 184.675 456.084C185.408 456.866 187.043 459.488 188.083 457.824C188.561 456.356 187.99 454.798 188.061 453.298C188.218 451.548 187.258 449.977 186.825 448.327C186.658 447.441 186.475 446.563 186.115 445.734C185.897 445.248 185.779 444.748 185.679 444.209C185.415 443.53 184.697 443.602 184.386 444.023L183.05 442.823L178.118 445.266H178.122Z" fill="#E293B3"/>
<path d="M168.697 423.594C169.947 427.09 172.494 429.954 173.876 433.39C174.054 433.804 174.108 434.276 174.361 434.654C174.501 434.837 174.74 434.837 174.922 434.74L176.09 438.533L183.065 438.201L189.233 435.508L191.765 431.047C192.158 431.069 192.512 430.99 192.644 430.483C192.787 429.426 191.455 429.536 190.744 429.472C190.08 429.454 189.412 429.419 188.765 429.247C186.537 428.64 184.537 427.59 182.358 426.801C181.001 426.29 179.579 425.979 178.233 425.44C176.658 424.761 175.029 424.244 173.365 423.84C172.365 423.583 171.283 423.165 170.29 422.79C169.558 422.44 168.593 422.619 168.701 423.601L168.697 423.594Z" fill="#E293B3"/>
<path d="M157.436 442.616C158.915 443.237 160.518 443.491 162.029 444.041C164.329 444.827 166.622 445.641 168.904 446.484C170.293 447.055 171.626 447.766 173.047 448.252C175.283 449.012 177.611 449.462 179.911 449.987C179.976 449.998 180.044 450.009 180.111 450.02C180.126 450.08 180.147 450.137 180.19 450.187C180.354 450.384 180.629 450.341 180.804 450.187C181.808 449.634 182.547 448.737 183.126 447.762C184.354 445.702 185.612 443.655 186.887 441.623C188.062 439.598 189.194 437.555 190.483 435.601C191.329 434.176 191.99 432.651 192.804 431.209C193.233 431.016 193.565 430.723 193.337 430.155C193.14 429.701 192.583 429.644 192.19 429.866C191.89 429.984 191.44 430.144 191.044 430.233C189.626 430.566 188.112 430.737 186.672 431.073C185.415 431.391 184.183 431.809 182.919 432.112C181.297 432.541 179.604 432.759 177.972 433.159C176.354 433.573 174.672 434.255 173.065 434.776C171.933 435.162 170.747 435.334 169.568 435.526C167.847 435.837 166.179 436.376 164.486 436.801C162.418 437.237 160.343 437.919 158.447 438.887C156.147 439.948 153.754 441.127 157.432 442.616H157.436Z" fill="#FCB1CE"/>
<path d="M204.515 444.285C204.515 444.242 204.55 444.206 204.593 444.206C204.636 444.206 204.672 444.242 204.672 444.285C204.672 444.328 204.636 444.363 204.593 444.363C204.55 444.363 204.515 444.328 204.515 444.285Z" fill="white"/>
<path d="M209.489 445.556L205.203 444.042C205.311 443.788 205.268 443.47 205.018 443.292C204.614 443.035 204.096 443.074 203.646 442.956C202.536 442.713 201.457 442.474 200.336 442.263C199.35 442.163 198.36 442.102 197.385 441.899C196.318 441.806 193.35 440.956 193.689 442.885C194.314 444.295 195.782 445.07 196.732 446.235C197.785 447.642 199.553 448.167 200.975 449.103C201.689 449.649 202.414 450.181 203.236 450.553C203.721 450.767 204.143 451.06 204.578 451.395C205.228 451.724 205.714 451.192 205.664 450.67H207.457L209.489 445.556Z" fill="#EDD48E"/>
<path d="M230.997 455.36C227.729 453.596 223.918 453.171 220.593 451.542C220.182 451.353 219.825 451.039 219.386 450.928C219.161 450.889 218.982 451.046 218.915 451.239L215.511 449.199L210.547 454.11L207.761 460.239L208.864 465.25C208.557 465.496 208.35 465.792 208.589 466.257C209.193 467.139 210.107 466.167 210.679 465.735C211.186 465.303 211.704 464.882 212.3 464.582C214.361 463.542 216.55 462.985 218.7 462.114C220.05 461.585 221.315 460.864 222.679 460.367C224.304 459.817 225.861 459.114 227.368 458.299C228.286 457.821 229.368 457.406 230.354 457.024C231.129 456.796 231.729 456.017 230.993 455.36H230.997Z" fill="#EDD48E"/>
<path d="M226.64 433.688C225.122 434.216 223.765 435.098 222.272 435.698C220.036 436.652 217.786 437.581 215.529 438.481C214.115 438.984 212.651 439.345 211.265 439.938C209.093 440.87 207.061 442.091 205 443.241C204.947 443.277 204.89 443.313 204.829 443.352C204.779 443.316 204.725 443.288 204.658 443.281C204.404 443.245 204.229 443.459 204.204 443.695C203.825 444.777 203.879 445.938 204.1 447.049C204.565 449.402 205 451.763 205.411 454.127C205.893 456.417 206.415 458.695 206.765 461.01C207.09 462.635 207.618 464.21 207.975 465.828C207.786 466.26 207.733 466.695 208.283 466.97C208.733 467.174 209.183 466.845 209.329 466.42C209.472 466.135 209.7 465.71 209.933 465.378C210.765 464.181 211.776 463.042 212.618 461.828C213.34 460.749 213.976 459.613 214.711 458.545C215.629 457.142 216.743 455.845 217.686 454.46C218.611 453.07 219.408 451.438 220.254 449.974C220.836 448.927 221.608 448.009 222.351 447.077C223.422 445.695 224.301 444.177 225.276 442.731C226.522 441.027 227.608 439.127 228.372 437.141C229.372 434.813 230.362 432.338 226.629 433.691L226.64 433.688Z" fill="#FFEBA6"/>
<path d="M204.006 406.558C204.02 406.518 204.063 406.497 204.102 406.511C204.141 406.526 204.163 406.568 204.152 406.608C204.141 406.647 204.095 406.668 204.056 406.658C204.016 406.647 203.995 406.601 204.009 406.561L204.006 406.558Z" fill="white"/>
<path d="M208.316 409.353L204.738 406.549C204.92 406.345 204.981 406.031 204.802 405.778C204.502 405.406 203.998 405.278 203.609 405.02C202.634 404.435 201.691 403.863 200.695 403.303C199.791 402.892 198.873 402.517 198.016 402.013C197.034 401.585 194.495 399.827 194.198 401.763C194.341 403.299 195.48 404.503 196.009 405.91C196.559 407.578 198.063 408.642 199.109 409.985C199.613 410.731 200.127 411.467 200.788 412.085C201.181 412.442 201.484 412.856 201.788 413.313C202.298 413.831 202.931 413.485 203.048 412.974L204.748 413.549L208.313 409.353H208.316Z" fill="#C6C685"/>
<path d="M225.553 425.524C223.021 422.809 219.549 421.184 216.921 418.577C216.592 418.266 216.356 417.856 215.974 417.609C215.774 417.498 215.553 417.591 215.424 417.752L212.853 414.73L206.578 417.795L201.977 422.709L201.42 427.809C201.049 427.945 200.756 428.159 200.838 428.674C201.127 429.702 202.306 429.074 202.985 428.849C203.602 428.602 204.227 428.37 204.892 428.274C207.178 427.949 209.431 428.12 211.745 427.984C213.196 427.916 214.624 427.638 216.074 427.602C217.788 427.602 219.488 427.434 221.178 427.145C222.199 426.988 223.36 426.941 224.417 426.891C225.228 426.924 226.042 426.377 225.556 425.52L225.553 425.524Z" fill="#C6C685"/>
<path d="M228.364 403.6C226.76 403.614 225.185 404.018 223.581 404.111C221.156 404.3 218.728 404.461 216.303 404.586C214.803 404.611 213.295 404.482 211.799 404.6C209.442 404.786 207.127 405.296 204.806 405.725C204.745 405.739 204.677 405.757 204.61 405.775C204.574 405.725 204.531 405.682 204.47 405.65C204.242 405.532 204.006 405.682 203.906 405.896C203.202 406.803 202.881 407.918 202.734 409.039C202.42 411.418 202.077 413.793 201.709 416.164C201.434 418.486 201.199 420.811 200.792 423.118C200.577 424.761 200.574 426.422 200.399 428.072C200.081 428.418 199.892 428.818 200.327 429.25C200.688 429.586 201.22 429.422 201.495 429.061C201.724 428.836 202.074 428.507 202.402 428.268C203.574 427.4 204.895 426.643 206.085 425.765C207.113 424.975 208.081 424.104 209.12 423.325C210.442 422.289 211.91 421.418 213.249 420.407C214.57 419.386 215.849 418.093 217.117 416.979C218.006 416.175 219.028 415.55 220.031 414.904C221.488 413.939 222.806 412.782 224.192 411.721C225.917 410.504 227.556 409.053 228.914 407.418C230.606 405.532 232.339 403.503 228.367 403.593L228.364 403.6Z" fill="#D8D9A7"/>
<path d="M241.379 463.008C241.279 462.083 241.218 461.154 241.186 460.222C241.125 459.558 241.168 458.897 241.197 458.233C241.222 457.472 241.175 456.787 241.247 456.008C241.325 455.283 241.386 454.554 241.311 453.826C241.3 453.486 241.365 453.151 241.336 452.811C241.293 452.476 241.193 452.151 241.058 451.84C241.04 451.797 241.007 451.761 240.975 451.729C240.997 450.972 241.033 450.215 241.058 449.454C241.072 446.89 241.136 444.326 241.118 441.758C241.14 437.758 240.715 433.768 240.786 429.768C240.725 425.993 240.968 422.222 240.925 418.45C240.886 416.243 240.783 414.036 240.811 411.829C240.811 409.093 240.893 406.357 240.858 403.621C240.868 402.011 240.786 400.403 240.747 398.796C240.715 397.203 240.765 395.614 240.772 394.021C240.793 390.921 240.754 387.821 240.94 384.728C241.004 381.942 240.597 379.171 240.675 376.381C240.708 374.539 240.757 372.696 240.861 370.856C240.872 368.81 240.918 366.749 240.711 364.713C240.582 363.731 240.554 362.735 240.404 361.753C240.315 360.795 240.261 359.838 240 358.91C239.904 358.417 239.85 357.913 239.743 357.42C239.643 356.96 239.486 356.513 239.39 356.049C239.182 355.038 238.886 353.985 238.475 353.027C238.272 352.495 238.115 351.942 237.832 351.427C237.472 350.86 237.215 350.242 236.943 349.631C236.472 348.706 235.807 347.895 235.293 346.992C235.025 346.531 234.69 346.113 234.297 345.752C233.804 345.238 233.329 344.713 232.825 344.213C232.382 343.702 231.922 343.213 231.382 342.802C230.761 342.227 230.218 341.574 229.539 341.059C228.872 340.513 228.154 340.034 227.411 339.599C226.868 339.199 226.339 338.777 225.747 338.452C224.539 337.831 223.246 337.388 222.021 336.802C221.332 336.42 220.536 336.334 219.829 336.006C219.45 335.852 219.057 335.752 218.668 335.634C218.175 335.449 217.657 335.341 217.132 335.349C217.128 335.32 217.114 335.291 217.103 335.263C217.103 335.259 217.103 335.256 217.103 335.252C217.103 335.252 217.103 335.252 217.1 335.252C217.057 335.163 216.978 335.084 216.846 335.041C216.853 334.941 216.857 334.838 216.882 334.727C217.289 334.509 217.696 334.081 217.571 333.573L217.536 333.523C217.307 333.352 217.128 333.127 217.028 332.859C217.018 332.852 217.011 332.841 217 332.834L217.014 332.823C217.003 332.795 216.996 332.763 216.986 332.734C216.986 332.734 216.986 332.731 216.986 332.727C216.957 332.656 216.932 332.581 216.918 332.502C216.896 332.502 216.875 332.502 216.853 332.502C216.853 332.498 216.857 332.495 216.857 332.491C216.857 332.488 216.857 332.484 216.857 332.481C216.914 332.481 216.968 332.473 217.021 332.452C217.057 332.438 217.075 332.409 217.103 332.388C217.614 332.456 218.125 332.498 218.639 332.534C218.804 332.534 218.971 332.545 219.136 332.534C219.346 332.509 219.454 332.341 219.457 332.166C220.586 331.416 220.454 328.106 220.486 327.059C220.486 326.981 220.486 326.902 220.486 326.827C220.532 326.784 220.579 326.738 220.604 326.663C220.675 326.434 220.693 326.195 220.686 325.959C220.7 325.163 220.711 324.363 220.643 323.57C220.686 323.502 220.714 323.42 220.704 323.32C220.689 322.948 220.454 322.663 220.264 322.366C220.125 322.07 220.064 321.727 219.839 321.477C219.518 321.138 219.032 321.377 218.629 321.391C217.961 321.413 217.289 321.423 216.625 321.488C215.186 321.523 213.746 321.513 212.307 321.538C211.371 321.527 210.436 321.548 209.507 321.663C208.928 321.691 208.35 321.655 207.771 321.638C206.568 321.616 205.368 321.67 204.164 321.652C203.193 321.627 202.221 321.57 201.246 321.591C200.3 321.609 199.353 321.527 198.407 321.538C196.853 321.505 195.307 321.691 193.76 321.802C191.364 321.877 188.96 321.759 186.564 321.823C185.171 321.916 183.774 321.891 182.378 321.902C181.071 321.93 179.767 322.08 178.46 321.977C177.403 321.877 176.342 321.945 175.281 321.87C174.367 321.83 173.474 321.541 172.556 321.695C172.26 321.73 171.971 321.795 171.67 321.816C170.61 321.784 170.27 321.97 170.292 323.084C170.292 323.423 170.292 323.763 170.285 324.102C170.274 324.102 170.26 324.102 170.249 324.102C170.26 324.716 170.249 325.33 170.263 325.945C170.274 326.134 170.281 326.33 170.295 326.527C170.242 327.316 170.145 328.106 170.203 328.902C170.238 329.881 170.231 330.863 170.331 331.838C170.392 332.195 170.27 333.041 170.585 333.241C170.585 333.241 170.592 333.241 170.595 333.241C170.595 333.32 170.631 333.398 170.699 333.448C171.038 333.613 171.453 333.545 171.82 333.588C172.095 333.588 172.371 333.598 172.646 333.609C172.446 333.845 172.349 334.127 172.556 334.452C172.746 334.716 173.028 334.899 173.249 335.134C173.238 335.149 173.231 335.159 173.221 335.174C172.924 335.249 172.249 335.395 171.985 335.695C171.878 335.727 171.774 335.756 171.685 335.763C170.817 335.909 169.86 336.081 169.024 336.413C167.806 336.941 166.688 337.57 165.449 338.099C164.474 338.591 163.438 338.959 162.47 339.456C161.081 340.27 159.974 341.466 158.756 342.502C158.22 342.992 157.663 343.467 157.22 344.045C156.613 344.895 155.959 345.684 155.263 346.467C154.381 347.499 154.049 348.849 153.295 349.963C152.642 350.949 152.159 352.038 151.62 353.092C151.317 353.685 151.081 354.31 150.902 354.949C150.427 356.645 150.124 358.388 149.742 360.106C149.563 360.87 149.406 361.645 149.334 362.428C149.284 363.117 149.134 363.792 148.988 364.463C148.795 365.438 148.82 366.431 148.784 367.421C148.656 368.81 148.759 370.199 148.745 371.588C148.745 371.706 148.802 371.806 148.888 371.878C148.867 371.899 148.852 371.928 148.859 371.96C148.666 372.824 148.734 373.731 148.727 374.617C148.77 377.124 148.842 379.632 148.809 382.139C148.795 383.517 148.745 384.896 148.688 386.271C148.634 388.66 148.631 391.05 148.599 393.442C148.631 395.818 148.756 398.193 148.813 400.568C148.877 403.989 148.902 407.414 148.934 410.836C149.041 414.271 149.177 417.711 149.192 421.15C149.181 430.982 149.138 440.815 149.324 450.644C149.342 454.594 149.324 458.544 149.331 462.494C149.281 465.626 149.427 468.783 150.109 471.848C150.331 472.662 150.674 473.458 151.199 474.123C151.942 475.101 152.552 476.19 153.477 477.019C155.049 478.483 156.442 478.591 158.435 478.755C159.535 479.066 160.663 479.212 161.802 479.301C164.185 479.587 166.585 479.598 168.978 479.548C170.795 479.562 172.656 479.548 174.481 479.548C175.985 479.558 177.471 479.598 178.978 479.591C180.764 479.591 182.542 479.43 184.328 479.376C186.439 479.305 188.549 479.362 190.66 479.355C191.999 479.358 193.335 479.298 194.675 479.262C198.382 479.287 202.089 479.416 205.796 479.544C208.321 479.594 210.843 479.476 213.368 479.448C215.053 479.462 216.736 479.53 218.418 479.562C219.993 479.601 221.55 479.555 223.129 479.562C225.947 479.565 228.786 479.533 231.557 478.973C232.293 478.776 233.054 478.651 233.772 478.391C234.443 478.066 235.179 477.887 235.847 477.548C236.454 477.155 236.932 476.59 237.5 476.144C238.068 475.68 238.59 475.148 238.918 474.487C239.207 473.948 239.547 473.387 239.811 472.808C240.022 472.365 240.186 471.901 240.429 471.473C240.675 471.076 240.893 470.662 240.975 470.197C241.093 469.608 241.05 469.005 241.118 468.412C241.311 467.347 241.418 466.269 241.393 465.183C241.393 464.476 241.436 463.719 241.393 462.994L241.379 463.008ZM171.024 332.902C171.024 332.877 171.031 332.848 171.031 332.827C171.103 332.077 171.017 331.323 171.003 330.57C171.003 329.588 170.924 328.606 170.967 327.623C170.992 327.295 171.031 326.963 171.056 326.634C171.024 326.634 170.992 326.634 170.96 326.63C171.045 325.905 171.028 324.855 171.01 324.152C171.01 324.152 171.01 324.152 171.006 324.152C171.056 323.552 171.017 322.841 171.092 322.613C171.749 322.62 172.388 322.488 173.038 322.427C173.353 322.398 173.667 322.441 173.978 322.498C175.296 322.741 176.624 322.655 177.949 322.716C178.692 322.78 179.492 322.802 180.246 322.777C181.917 322.648 183.589 322.68 185.264 322.663C186.189 322.605 187.117 322.58 188.046 322.588C189.764 322.559 191.482 322.62 193.199 322.605C194.371 322.559 195.532 322.423 196.703 322.345C197.917 322.28 199.135 322.32 200.353 322.363C202.217 322.338 204.082 322.466 205.946 322.416C207.468 322.348 208.996 322.548 210.511 322.345C212.55 322.273 214.593 322.32 216.636 322.263C217.529 322.159 218.432 322.23 219.318 322.08C219.429 322.334 219.5 322.605 219.643 322.845C219.7 322.934 219.771 323.02 219.829 323.113C219.825 323.113 219.818 323.113 219.814 323.113C219.821 323.188 219.829 323.263 219.836 323.338C219.918 323.959 219.993 324.584 219.925 325.209C219.911 325.341 219.911 325.47 219.911 325.605C219.832 325.605 219.754 325.598 219.671 325.598C219.671 325.613 219.675 325.63 219.679 325.645C219.707 325.773 219.729 325.902 219.743 326.03C219.732 326.027 219.718 326.03 219.707 326.023C219.696 327.088 219.714 328.152 219.664 329.216C219.571 330.073 219.511 330.991 219.043 331.741L218.954 331.788C218.4 331.784 217.846 331.72 217.296 331.777C217.25 331.788 217.182 331.795 217.107 331.802C217.089 331.788 217.078 331.763 217.057 331.748C216.786 331.627 216.471 331.713 216.182 331.688C215.503 331.673 214.825 331.706 214.153 331.806C211.682 331.909 209.207 331.945 206.732 331.981C204.732 332.141 202.728 332.166 200.721 332.234C197.882 332.248 195.042 332.195 192.203 332.227C191.114 332.281 190.021 332.277 188.935 332.338C187.81 332.431 186.685 332.434 185.56 332.459C183.967 332.584 182.36 332.534 180.767 332.695C179.917 332.759 179.071 332.838 178.224 332.909C176.842 332.959 175.456 332.909 174.078 332.848C173.928 332.856 173.774 332.877 173.624 332.898C173.078 332.87 172.531 332.823 171.985 332.852C171.674 332.881 171.331 332.845 171.02 332.902H171.024ZM240.529 467.162C240.461 467.69 240.336 468.215 240.311 468.751C240.3 469.233 240.297 469.722 240.186 470.194C240.061 470.687 239.729 471.083 239.525 471.54C239.425 471.762 239.332 471.987 239.236 472.208C238.843 473.062 238.4 473.898 237.89 474.683C237.497 475.194 236.965 475.573 236.49 476.001C236.147 476.283 235.854 476.626 235.482 476.873C234.868 477.18 234.19 477.344 233.568 477.644C230.464 478.69 227.147 478.765 223.896 478.805C222.239 478.78 220.589 478.83 218.929 478.805C216.003 478.744 213.078 478.612 210.153 478.748C206.839 478.862 203.528 478.716 200.217 478.576C197.96 478.569 195.7 478.448 193.442 478.537C190.371 478.658 187.285 478.516 184.21 478.616C182.624 478.669 181.039 478.79 179.453 478.826C177.646 478.84 175.838 478.787 174.031 478.783C171.167 478.78 168.306 478.805 165.435 478.794C163.263 478.726 161.11 478.469 158.952 478.244C158.902 478.112 158.785 478.005 158.602 478.005C157.527 477.88 156.384 477.883 155.388 477.419C154.102 476.805 153.184 475.683 152.417 474.515C152.156 474.123 151.867 473.751 151.584 473.369C151.167 472.712 150.895 471.976 150.742 471.215C150.381 469.251 150.145 467.258 150.092 465.262C150.074 460.454 150.102 455.644 150.081 450.836C149.909 441.472 149.927 432.107 149.949 422.739C149.97 418.829 149.824 414.921 149.695 411.014C149.67 408.021 149.627 405.028 149.602 402.035C149.552 398.293 149.267 394.553 149.388 390.81C149.409 388.442 149.427 386.074 149.538 383.707C149.599 381.267 149.574 378.828 149.492 376.392C149.481 375.342 149.406 374.292 149.377 373.242C149.363 372.921 149.363 372.596 149.277 372.281C149.242 372.153 149.163 371.974 149.024 371.949C149.056 371.956 149.084 371.967 149.117 371.967H149.124C149.327 371.967 149.499 371.785 149.499 371.585C149.524 370.974 149.488 370.36 149.474 369.749C149.456 368.91 149.492 368.071 149.552 367.231C149.567 366.296 149.574 365.353 149.767 364.431C150.052 363.374 150.077 362.281 150.277 361.21C150.795 358.992 151.131 356.727 151.82 354.552C152.459 352.988 153.227 351.463 154.142 350.042C154.67 349.174 154.977 348.192 155.545 347.345C156.02 346.67 156.627 346.106 157.117 345.438C157.442 345.013 157.745 344.57 158.099 344.167C158.627 343.599 159.224 343.095 159.795 342.574C160.656 341.845 161.449 341.038 162.377 340.399C163.01 339.952 163.745 339.699 164.449 339.388C165.103 339.095 165.745 338.781 166.399 338.488C167.72 337.934 168.931 337.099 170.342 336.788C171.095 336.574 171.899 336.549 172.617 336.227C172.71 336.188 172.931 336.091 173.11 335.974C173.224 335.949 173.338 335.924 173.446 335.888C173.546 335.888 173.646 335.852 173.717 335.777C173.753 335.741 173.771 335.702 173.785 335.659C173.928 335.495 174.028 335.291 174.021 335.077C173.999 334.609 173.506 334.377 173.228 334.063C173.403 333.92 173.613 333.806 173.778 333.645C173.846 333.645 173.913 333.652 173.985 333.656C174.192 333.645 174.435 333.698 174.61 333.57C175.303 333.638 175.996 333.673 176.696 333.663C178.446 333.72 180.181 333.452 181.928 333.356C182.771 333.302 183.667 333.295 184.528 333.273C185.256 333.227 185.974 333.17 186.714 333.184C187.949 333.184 189.182 333.027 190.421 333.031C193.057 332.913 195.696 332.984 198.332 332.97C200.05 333.009 201.767 332.927 203.485 332.906C204.7 332.884 205.9 332.756 207.114 332.709C208.953 332.681 210.796 332.702 212.632 332.595C213.443 332.552 214.253 332.581 215.057 332.448C215.432 332.431 215.811 332.431 216.186 332.431C216.161 332.495 216.168 332.552 216.189 332.602C216.086 332.798 216.068 333.016 216.261 333.216C216.453 333.388 216.675 333.541 216.8 333.777C216.661 334.052 216.268 334.088 216.171 334.406C216.057 334.684 216.086 334.999 216.046 335.295C216.039 335.449 216.118 335.609 216.253 335.681C216.303 335.716 216.361 335.724 216.418 335.731C216.486 335.806 216.578 335.856 216.682 335.863C216.703 335.874 216.721 335.888 216.743 335.899C217.025 336.041 217.346 336.041 217.65 336.102C218.189 336.238 218.711 336.445 219.246 336.595C219.85 336.845 220.461 337.059 221.093 337.224C222.404 337.816 223.732 338.381 225.054 338.949C225.718 339.274 226.3 339.724 226.893 340.17C227.222 340.399 227.582 340.577 227.911 340.802C228.497 341.199 229.057 341.631 229.586 342.099C230.068 342.531 230.475 343.049 230.975 343.463C231.597 343.924 232.011 344.484 232.568 345.045C233.093 345.577 233.59 346.142 234.125 346.667C234.572 347.199 234.879 347.827 235.272 348.395C235.572 348.884 235.932 349.338 236.197 349.852C236.5 350.545 236.804 351.235 237.2 351.877C237.536 352.595 237.761 353.36 238.065 354.092C238.365 354.949 238.543 355.802 238.75 356.688C238.982 357.413 239.093 358.167 239.215 358.913C239.411 359.728 239.554 360.553 239.586 361.392C239.697 362.31 239.804 363.224 239.868 364.146C239.99 365.085 240.072 366.024 240.068 366.971C240.111 368.467 240.129 369.967 240.061 371.463C239.979 372.528 239.975 373.596 239.947 374.664C239.8 377.489 240.018 380.31 240.172 383.128C240.222 384.924 240.029 386.717 240.025 388.514C240.047 392.489 239.897 396.464 240.025 400.435C240.211 405.375 239.961 410.314 240.068 415.254C240.186 417.964 240.193 420.679 240.086 423.393C240.018 426.025 240 428.661 240.022 431.293C240.022 434.325 240.297 437.354 240.35 440.386C240.357 444.204 240.347 448.022 240.204 451.84C240.204 451.972 240.275 452.083 240.379 452.151C240.44 452.404 240.604 452.69 240.579 452.933C240.5 453.622 240.615 454.311 240.565 454.997C240.45 456.008 240.429 456.997 240.436 458.015C240.422 458.597 240.365 459.176 240.393 459.758C240.443 460.894 240.504 462.026 240.618 463.158C240.632 464.487 240.654 465.822 240.525 467.144L240.529 467.162Z" fill="white"/>
<path d="M219.378 321.298C219.55 321.298 219.707 321.341 219.839 321.476C220.064 321.726 220.125 322.069 220.264 322.366C220.453 322.666 220.689 322.948 220.703 323.319C220.714 323.423 220.686 323.501 220.643 323.569C220.711 324.362 220.696 325.162 220.686 325.959C220.693 326.194 220.675 326.434 220.603 326.662C220.578 326.737 220.532 326.784 220.486 326.827C220.486 326.905 220.486 326.984 220.486 327.059C220.453 328.105 220.582 331.416 219.457 332.166C219.453 332.337 219.346 332.509 219.136 332.534C219.071 332.537 219.003 332.541 218.939 332.541C218.839 332.541 218.739 332.537 218.639 332.537C218.128 332.502 217.614 332.459 217.103 332.391C217.075 332.412 217.057 332.441 217.021 332.455C216.975 332.477 216.925 332.484 216.875 332.484C216.868 332.484 216.861 332.484 216.853 332.484C216.853 332.487 216.853 332.491 216.853 332.494C216.853 332.498 216.85 332.502 216.85 332.505C216.871 332.505 216.893 332.505 216.914 332.505C216.928 332.584 216.95 332.659 216.982 332.73C216.982 332.73 216.982 332.734 216.982 332.737C216.989 332.769 217 332.798 217.011 332.827L216.996 332.837C216.996 332.837 217.014 332.855 217.025 332.862C217.125 333.13 217.303 333.355 217.532 333.527L217.568 333.577C217.696 334.084 217.286 334.512 216.878 334.73C216.857 334.841 216.85 334.941 216.843 335.045C216.975 335.087 217.053 335.162 217.096 335.255C217.096 335.255 217.096 335.255 217.1 335.255C217.1 335.259 217.1 335.262 217.1 335.266C217.111 335.295 217.125 335.32 217.128 335.352C217.143 335.352 217.153 335.352 217.164 335.352C217.678 335.352 218.182 335.459 218.664 335.637C219.053 335.752 219.446 335.855 219.825 336.009C220.536 336.337 221.332 336.423 222.018 336.805C223.243 337.391 224.536 337.834 225.743 338.455C226.336 338.78 226.864 339.202 227.407 339.602C228.15 340.037 228.871 340.512 229.536 341.063C230.214 341.577 230.757 342.23 231.379 342.805C231.918 343.213 232.382 343.705 232.822 344.216C233.325 344.716 233.804 345.245 234.293 345.755C234.686 346.116 235.022 346.53 235.289 346.995C235.804 347.895 236.468 348.709 236.939 349.634C237.211 350.245 237.464 350.863 237.829 351.431C238.111 351.945 238.265 352.498 238.472 353.031C238.882 353.984 239.179 355.041 239.386 356.052C239.482 356.513 239.64 356.959 239.74 357.424C239.847 357.916 239.9 358.416 239.997 358.913C240.257 359.841 240.311 360.802 240.4 361.756C240.55 362.738 240.579 363.731 240.707 364.717C240.918 366.756 240.872 368.813 240.857 370.859C240.754 372.699 240.704 374.542 240.672 376.385C240.593 379.174 241.004 381.945 240.936 384.731C240.747 387.824 240.786 390.924 240.768 394.024C240.761 395.617 240.711 397.206 240.743 398.799C240.782 400.406 240.861 402.017 240.854 403.624C240.89 406.36 240.811 409.096 240.807 411.832C240.779 414.039 240.882 416.246 240.922 418.453C240.965 422.225 240.722 425.996 240.782 429.771C240.711 433.771 241.136 437.761 241.115 441.761C241.136 444.325 241.068 446.889 241.054 449.457C241.025 450.215 240.99 450.972 240.972 451.732C241.007 451.761 241.036 451.8 241.054 451.843C241.19 452.15 241.29 452.479 241.332 452.815C241.357 453.15 241.297 453.49 241.307 453.829C241.386 454.557 241.322 455.286 241.243 456.011C241.172 456.793 241.218 457.479 241.193 458.236C241.165 458.9 241.122 459.561 241.182 460.225C241.215 461.158 241.275 462.083 241.375 463.011C241.422 463.736 241.382 464.493 241.375 465.201C241.404 466.286 241.293 467.361 241.1 468.429C241.036 469.022 241.079 469.626 240.957 470.215C240.875 470.679 240.657 471.094 240.411 471.49C240.168 471.919 240.004 472.383 239.793 472.826C239.532 473.408 239.19 473.965 238.9 474.504C238.572 475.165 238.05 475.697 237.482 476.161C236.914 476.608 236.436 477.172 235.829 477.565C235.164 477.901 234.429 478.079 233.754 478.408C233.036 478.669 232.275 478.794 231.539 478.99C228.882 479.526 226.164 479.579 223.461 479.579C223.343 479.579 223.225 479.579 223.111 479.579C222.979 479.579 222.843 479.579 222.711 479.579C221.743 479.579 220.782 479.597 219.821 479.597C219.35 479.597 218.875 479.594 218.4 479.583C216.718 479.551 215.032 479.483 213.35 479.469C211.257 479.494 209.168 479.579 207.075 479.579C206.642 479.579 206.21 479.576 205.778 479.569C202.071 479.444 198.367 479.312 194.657 479.287C193.364 479.322 192.071 479.379 190.778 479.379C190.731 479.379 190.689 479.379 190.642 479.379C190.474 479.379 190.303 479.379 190.135 479.379C189.024 479.379 187.91 479.365 186.799 479.365C185.971 479.365 185.139 479.372 184.31 479.401C182.524 479.454 180.746 479.615 178.96 479.615C178.838 479.615 178.717 479.615 178.596 479.615C177.21 479.615 175.845 479.579 174.46 479.569C173.292 479.569 172.106 479.576 170.928 479.576C170.267 479.576 169.606 479.576 168.956 479.569C168.295 479.583 167.635 479.59 166.97 479.59C165.235 479.59 163.502 479.529 161.777 479.319C160.642 479.229 159.509 479.083 158.409 478.772C156.417 478.608 155.024 478.501 153.452 477.036C152.527 476.208 151.92 475.119 151.174 474.14C150.649 473.476 150.306 472.679 150.084 471.865C149.402 468.797 149.252 465.643 149.306 462.511C149.302 458.561 149.316 454.611 149.299 450.661C149.113 440.829 149.156 431 149.166 421.168C149.152 417.728 149.016 414.289 148.909 410.853C148.881 407.432 148.856 404.007 148.788 400.585C148.727 398.21 148.606 395.835 148.574 393.46C148.602 391.071 148.609 388.678 148.663 386.288C148.72 384.91 148.77 383.535 148.784 382.156C148.816 379.649 148.741 377.142 148.702 374.635C148.709 373.749 148.641 372.842 148.834 371.977C148.827 371.945 148.841 371.917 148.863 371.895C148.777 371.824 148.72 371.724 148.72 371.606C148.734 370.217 148.631 368.824 148.759 367.438C148.799 366.449 148.774 365.456 148.963 364.481C149.106 363.806 149.259 363.134 149.309 362.445C149.381 361.663 149.538 360.888 149.716 360.124C150.099 358.402 150.402 356.663 150.877 354.966C151.056 354.327 151.291 353.702 151.595 353.109C152.134 352.059 152.613 350.966 153.27 349.981C154.02 348.866 154.356 347.516 155.238 346.484C155.931 345.698 156.584 344.909 157.195 344.063C157.638 343.484 158.192 343.005 158.731 342.52C159.952 341.484 161.056 340.287 162.445 339.473C163.417 338.977 164.449 338.605 165.424 338.116C166.663 337.591 167.781 336.959 168.999 336.43C169.838 336.102 170.795 335.927 171.66 335.78C171.749 335.773 171.853 335.748 171.96 335.712C172.224 335.412 172.903 335.266 173.195 335.191C173.206 335.177 173.217 335.166 173.224 335.152C173.003 334.916 172.72 334.734 172.531 334.47C172.324 334.145 172.42 333.862 172.62 333.627C172.367 333.616 172.117 333.602 171.863 333.602C171.842 333.602 171.82 333.602 171.799 333.602C171.431 333.555 171.017 333.627 170.678 333.462C170.61 333.412 170.574 333.334 170.574 333.255C170.574 333.255 170.567 333.255 170.563 333.255C170.249 333.055 170.37 332.209 170.31 331.852C170.21 330.877 170.22 329.894 170.181 328.916C170.124 328.119 170.22 327.33 170.274 326.541C170.26 326.344 170.253 326.148 170.242 325.959C170.228 325.344 170.238 324.73 170.228 324.116C170.238 324.116 170.253 324.116 170.263 324.116C170.27 323.776 170.274 323.437 170.27 323.098C170.249 322.059 170.542 321.83 171.445 321.83C171.51 321.83 171.578 321.83 171.649 321.83C171.945 321.805 172.238 321.744 172.535 321.709C172.724 321.676 172.913 321.662 173.103 321.662C173.824 321.662 174.535 321.851 175.26 321.884C176.317 321.955 177.381 321.887 178.438 321.991C178.76 322.016 179.085 322.026 179.406 322.026C180.388 322.026 181.371 321.934 182.356 321.916C183.753 321.909 185.149 321.93 186.542 321.837C187.092 321.823 187.642 321.816 188.192 321.816C189.417 321.816 190.646 321.841 191.871 321.841C192.492 321.841 193.117 321.834 193.739 321.816C195.164 321.712 196.585 321.544 198.014 321.544C198.139 321.544 198.26 321.544 198.385 321.548C198.435 321.548 198.489 321.548 198.539 321.548C199.335 321.548 200.135 321.605 200.932 321.605C201.028 321.605 201.128 321.605 201.225 321.605C201.382 321.601 201.539 321.601 201.692 321.601C202.51 321.601 203.325 321.644 204.142 321.666C204.317 321.666 204.496 321.669 204.671 321.669C205.485 321.669 206.3 321.644 207.114 321.644C207.325 321.644 207.539 321.644 207.75 321.651C208.171 321.666 208.596 321.687 209.018 321.687C209.175 321.687 209.328 321.687 209.485 321.676C210.289 321.58 211.093 321.548 211.9 321.548C212.028 321.548 212.157 321.548 212.285 321.548C213.725 321.523 215.164 321.534 216.603 321.498C217.271 321.43 217.939 321.423 218.607 321.401C218.843 321.394 219.111 321.309 219.357 321.309M208.853 322.444C208.118 322.444 207.378 322.405 206.642 322.405C206.403 322.405 206.167 322.409 205.928 322.419C205.625 322.426 205.325 322.43 205.021 322.43C203.625 322.43 202.228 322.362 200.828 322.362C200.664 322.362 200.5 322.362 200.335 322.362C199.585 322.337 198.835 322.312 198.082 322.312C197.617 322.312 197.149 322.323 196.685 322.348C195.514 322.426 194.353 322.559 193.182 322.609C192.974 322.609 192.767 322.609 192.56 322.609C191.381 322.609 190.206 322.58 189.028 322.58C188.692 322.58 188.36 322.58 188.024 322.587C187.924 322.587 187.824 322.587 187.721 322.587C186.892 322.587 186.067 322.612 185.242 322.662C183.567 322.68 181.896 322.651 180.224 322.776C180.028 322.784 179.828 322.787 179.624 322.787C179.053 322.787 178.474 322.762 177.924 322.716C176.806 322.666 175.681 322.716 174.567 322.591C174.103 322.537 173.642 322.426 173.174 322.426C173.049 322.426 172.924 322.434 172.799 322.451C172.238 322.534 171.678 322.616 171.113 322.612H171.067C170.988 322.841 171.031 323.551 170.981 324.151C170.981 324.151 170.981 324.151 170.985 324.151C171.003 324.855 171.02 325.905 170.935 326.63C170.967 326.63 170.999 326.634 171.031 326.634C171.006 326.962 170.967 327.291 170.942 327.623C170.899 328.605 170.978 329.587 170.978 330.569C170.992 331.323 171.078 332.077 171.006 332.827C171.006 332.852 170.999 332.877 170.999 332.902C171.31 332.841 171.653 332.88 171.963 332.852C172.092 332.844 172.217 332.841 172.342 332.841C172.763 332.841 173.181 332.873 173.603 332.894C173.753 332.873 173.903 332.852 174.056 332.844C175.042 332.887 176.031 332.927 177.017 332.927C177.413 332.927 177.806 332.919 178.203 332.905C179.049 332.834 179.899 332.755 180.746 332.691C182.338 332.53 183.942 332.58 185.539 332.455C186.667 332.43 187.792 332.427 188.914 332.334C190.003 332.273 191.092 332.277 192.181 332.223C192.903 332.216 193.624 332.212 194.342 332.212C196.142 332.212 197.942 332.23 199.742 332.23C200.06 332.23 200.382 332.23 200.7 332.23C202.703 332.162 204.71 332.137 206.71 331.977C209.185 331.941 211.657 331.905 214.132 331.802C214.703 331.719 215.275 331.68 215.853 331.68C215.957 331.68 216.061 331.68 216.164 331.684C216.203 331.684 216.246 331.687 216.286 331.687C216.411 331.687 216.536 331.677 216.661 331.677C216.786 331.677 216.918 331.691 217.039 331.744C217.061 331.759 217.071 331.78 217.089 331.798C217.164 331.791 217.232 331.784 217.278 331.773C217.446 331.755 217.618 331.752 217.786 331.752C218.168 331.752 218.553 331.78 218.936 331.784L219.025 331.737C219.493 330.987 219.553 330.069 219.646 329.212C219.696 328.148 219.682 327.084 219.689 326.019C219.7 326.023 219.714 326.019 219.725 326.026C219.711 325.898 219.689 325.766 219.661 325.641C219.661 325.626 219.661 325.609 219.653 325.594C219.732 325.594 219.811 325.601 219.893 325.601C219.893 325.469 219.893 325.337 219.907 325.205C219.971 324.58 219.896 323.955 219.818 323.334C219.807 323.259 219.8 323.184 219.796 323.109C219.8 323.109 219.807 323.109 219.811 323.109C219.753 323.016 219.682 322.93 219.625 322.841C219.482 322.601 219.407 322.33 219.3 322.076C218.414 322.226 217.511 322.155 216.618 322.259C214.578 322.316 212.535 322.269 210.493 322.341C209.946 322.416 209.4 322.434 208.853 322.434M199.282 332.998C198.96 332.998 198.635 332.998 198.314 332.987C198.021 332.987 197.724 332.987 197.432 332.987C196.335 332.987 195.242 332.977 194.146 332.977C192.896 332.977 191.649 332.991 190.403 333.044H190.356C189.142 333.044 187.931 333.198 186.717 333.198H186.699C186.628 333.198 186.553 333.198 186.481 333.198C185.817 333.198 185.174 333.248 184.514 333.291C183.653 333.312 182.756 333.319 181.913 333.373C180.331 333.462 178.756 333.687 177.174 333.687C177.01 333.687 176.846 333.687 176.681 333.68C176.596 333.68 176.51 333.68 176.424 333.68C175.813 333.68 175.206 333.644 174.595 333.587C174.495 333.662 174.37 333.677 174.245 333.677C174.178 333.677 174.106 333.673 174.038 333.673C174.017 333.673 173.995 333.673 173.974 333.673C173.906 333.673 173.838 333.666 173.767 333.662C173.606 333.823 173.392 333.934 173.217 334.08C173.495 334.398 173.988 334.627 174.01 335.095C174.017 335.309 173.917 335.516 173.774 335.677C173.756 335.72 173.738 335.759 173.706 335.795C173.635 335.87 173.535 335.905 173.435 335.905C173.324 335.941 173.21 335.966 173.099 335.991C172.92 336.109 172.703 336.205 172.606 336.245C171.885 336.566 171.081 336.587 170.331 336.805C168.917 337.112 167.706 337.948 166.388 338.505C165.735 338.798 165.092 339.112 164.438 339.405C163.735 339.712 162.999 339.97 162.367 340.416C161.434 341.055 160.642 341.866 159.784 342.591C159.209 343.113 158.617 343.616 158.088 344.184C157.734 344.588 157.434 345.03 157.106 345.455C156.617 346.12 156.009 346.688 155.534 347.363C154.967 348.205 154.656 349.191 154.131 350.059C153.216 351.481 152.449 353.006 151.809 354.57C151.12 356.745 150.784 359.009 150.266 361.227C150.066 362.299 150.041 363.395 149.756 364.449C149.566 365.37 149.556 366.313 149.541 367.249C149.481 368.088 149.449 368.927 149.463 369.767C149.477 370.377 149.513 370.992 149.488 371.602C149.488 371.802 149.316 371.985 149.113 371.985H149.106C149.084 371.985 149.063 371.981 149.045 371.974C149.034 371.97 149.024 371.967 149.013 371.967C149.024 371.967 149.034 371.974 149.045 371.974C149.166 372.02 149.234 372.181 149.27 372.299C149.356 372.61 149.356 372.938 149.37 373.26C149.399 374.31 149.474 375.36 149.484 376.41C149.566 378.849 149.591 381.285 149.531 383.724C149.424 386.092 149.402 388.46 149.381 390.828C149.263 394.571 149.545 398.31 149.595 402.053C149.62 405.046 149.663 408.039 149.688 411.032C149.816 414.939 149.963 418.846 149.941 422.757C149.92 432.125 149.902 441.489 150.074 450.854C150.095 455.661 150.066 460.472 150.084 465.279C150.138 467.276 150.374 469.268 150.734 471.233C150.884 471.994 151.159 472.733 151.577 473.386C151.859 473.765 152.149 474.14 152.409 474.533C153.174 475.701 154.095 476.822 155.381 477.436C156.381 477.901 157.52 477.894 158.595 478.022C158.777 478.022 158.895 478.129 158.945 478.262C161.102 478.487 163.26 478.744 165.427 478.812C165.902 478.812 166.377 478.812 166.856 478.812C168.999 478.812 171.142 478.797 173.281 478.797C173.528 478.797 173.774 478.797 174.024 478.797C175.638 478.801 177.249 478.844 178.86 478.844C179.056 478.844 179.249 478.844 179.446 478.844C181.031 478.808 182.617 478.683 184.203 478.633C185.124 478.604 186.046 478.594 186.971 478.594C188.074 478.594 189.181 478.604 190.285 478.604C191.389 478.604 192.385 478.594 193.435 478.551C194.028 478.529 194.621 478.519 195.214 478.519C196.878 478.519 198.546 478.587 200.21 478.59C202.689 478.694 205.167 478.801 207.646 478.801C208.478 478.801 209.31 478.79 210.146 478.758C211.082 478.715 212.018 478.697 212.95 478.697C214.939 478.697 216.928 478.772 218.918 478.815C219.239 478.819 219.561 478.822 219.882 478.822C220.857 478.822 221.832 478.808 222.807 478.808C223.164 478.808 223.525 478.808 223.882 478.815C227.132 478.776 230.45 478.697 233.554 477.654C234.175 477.354 234.85 477.19 235.468 476.883C235.839 476.636 236.132 476.294 236.475 476.011C236.95 475.583 237.482 475.204 237.875 474.694C238.386 473.908 238.829 473.072 239.222 472.219C239.318 471.997 239.411 471.772 239.511 471.551C239.715 471.094 240.047 470.697 240.172 470.204C240.282 469.733 240.286 469.243 240.297 468.761C240.318 468.226 240.447 467.701 240.515 467.172C240.643 465.851 240.622 464.515 240.607 463.186C240.493 462.054 240.432 460.922 240.382 459.786C240.354 459.204 240.411 458.625 240.425 458.043C240.418 457.025 240.44 456.036 240.554 455.025C240.604 454.336 240.486 453.65 240.568 452.961C240.593 452.718 240.429 452.432 240.368 452.179C240.265 452.111 240.19 451.997 240.193 451.868C240.332 448.054 240.347 444.232 240.34 440.414C240.286 437.382 240.011 434.357 240.011 431.321C239.993 428.686 240.011 426.053 240.075 423.421C240.182 420.71 240.175 417.993 240.057 415.282C239.95 410.342 240.2 405.399 240.015 400.464C239.89 396.492 240.036 392.517 240.015 388.542C240.022 386.745 240.215 384.953 240.161 383.156C240.004 380.338 239.79 377.517 239.936 374.692C239.965 373.624 239.968 372.556 240.05 371.492C240.118 369.995 240.1 368.495 240.057 366.999C240.061 366.052 239.979 365.113 239.857 364.174C239.793 363.252 239.686 362.334 239.575 361.42C239.543 360.581 239.4 359.759 239.204 358.941C239.082 358.191 238.972 357.441 238.74 356.716C238.532 355.831 238.354 354.977 238.054 354.12C237.75 353.388 237.522 352.623 237.189 351.906C236.793 351.259 236.489 350.573 236.186 349.881C235.922 349.366 235.561 348.913 235.261 348.423C234.868 347.855 234.561 347.223 234.114 346.695C233.579 346.17 233.086 345.609 232.557 345.073C232 344.513 231.586 343.952 230.964 343.491C230.461 343.077 230.057 342.563 229.575 342.127C229.046 341.659 228.482 341.23 227.9 340.83C227.571 340.605 227.211 340.427 226.882 340.198C226.289 339.752 225.707 339.305 225.043 338.977C223.721 338.405 222.393 337.841 221.082 337.252C220.45 337.087 219.839 336.873 219.236 336.623C218.7 336.473 218.178 336.266 217.639 336.13C217.336 336.07 217.014 336.073 216.732 335.927C216.711 335.92 216.693 335.905 216.671 335.891C216.568 335.884 216.471 335.834 216.407 335.759C216.35 335.752 216.293 335.745 216.243 335.709C216.107 335.637 216.028 335.477 216.036 335.323C216.075 335.03 216.046 334.712 216.161 334.434C216.261 334.12 216.653 334.084 216.789 333.805C216.664 333.57 216.446 333.416 216.25 333.244C216.057 333.044 216.075 332.83 216.178 332.63C216.153 332.58 216.15 332.519 216.175 332.459C216.107 332.459 216.036 332.459 215.968 332.459C215.661 332.459 215.353 332.459 215.046 332.477C214.243 332.609 213.432 332.58 212.621 332.623C210.785 332.727 208.943 332.709 207.103 332.737C205.885 332.784 204.689 332.909 203.475 332.934C202.078 332.952 200.685 333.009 199.289 333.009M219.364 320.537C219.168 320.537 218.986 320.569 218.828 320.598C218.746 320.612 218.668 320.63 218.589 320.634L218.25 320.644C217.7 320.659 217.132 320.676 216.564 320.734C215.746 320.755 214.928 320.759 214.11 320.766C213.5 320.769 212.893 320.773 212.282 320.784C212.171 320.784 212.039 320.784 211.907 320.784C210.957 320.784 210.168 320.823 209.425 320.912H209.421C208.993 320.93 208.564 320.912 208.135 320.898L207.785 320.884C207.557 320.88 207.339 320.876 207.125 320.876C206.714 320.876 206.303 320.884 205.892 320.887C205.489 320.894 205.085 320.898 204.682 320.898C204.51 320.898 204.339 320.898 204.164 320.894C203.892 320.887 203.61 320.876 203.332 320.869C202.8 320.851 202.25 320.83 201.703 320.83C201.542 320.83 201.378 320.83 201.217 320.837C201.128 320.837 201.035 320.837 200.942 320.837C200.553 320.837 200.164 320.823 199.775 320.809C199.367 320.794 198.96 320.78 198.549 320.78H198.389C198.282 320.78 198.153 320.78 198.024 320.78C196.946 320.78 195.867 320.873 194.828 320.959C194.449 320.991 194.071 321.023 193.692 321.051C193.174 321.066 192.571 321.076 191.882 321.076C191.271 321.076 190.66 321.069 190.049 321.062C189.435 321.055 188.817 321.048 188.203 321.048C187.646 321.048 187.089 321.051 186.531 321.069C185.428 321.141 184.324 321.141 183.256 321.144C182.96 321.144 182.66 321.144 182.363 321.144C181.913 321.155 181.478 321.176 181.038 321.198C180.478 321.226 179.953 321.255 179.417 321.255C179.088 321.255 178.792 321.244 178.51 321.223C177.913 321.166 177.31 321.162 176.724 321.155C176.238 321.151 175.781 321.148 175.324 321.116C175.013 321.101 174.713 321.059 174.395 321.012C173.985 320.955 173.56 320.894 173.113 320.894C172.867 320.894 172.642 320.912 172.417 320.951C172.324 320.962 172.199 320.984 172.074 321.001C171.928 321.023 171.785 321.048 171.635 321.062C171.574 321.062 171.513 321.062 171.453 321.062C170.949 321.062 170.381 321.119 169.967 321.541C169.542 321.976 169.495 322.584 169.506 323.123C169.506 323.187 169.506 323.251 169.506 323.319H169.485L169.463 324.141C169.47 324.434 169.47 324.726 169.47 325.019C169.47 325.341 169.47 325.662 169.477 325.984L169.488 326.23C169.492 326.33 169.499 326.434 169.506 326.537C169.495 326.698 169.481 326.859 169.47 327.019C169.42 327.652 169.367 328.305 169.417 328.984C169.428 329.244 169.435 329.534 169.442 329.823C169.46 330.512 169.474 331.227 169.549 331.944V331.969L169.556 331.994C169.563 332.044 169.567 332.194 169.567 332.294C169.574 332.73 169.581 333.298 169.895 333.691C169.967 333.855 170.085 334.002 170.235 334.109L170.288 334.148L170.345 334.177C170.724 334.359 171.106 334.366 171.413 334.373C171.503 334.373 171.588 334.373 171.674 334.384C171.706 334.545 171.767 334.702 171.856 334.855C171.76 334.905 171.67 334.962 171.588 335.027H171.567L171.535 335.034C170.603 335.191 169.617 335.373 168.717 335.727C168.092 335.998 167.513 336.284 166.952 336.559C166.36 336.852 165.749 337.152 165.124 337.42L165.099 337.43L165.077 337.441C164.624 337.67 164.16 337.87 163.667 338.08C163.149 338.302 162.613 338.534 162.092 338.802L162.074 338.812L162.056 338.823C161.006 339.441 160.12 340.245 159.263 341.027C158.92 341.337 158.581 341.648 158.231 341.948L158.017 342.145C157.524 342.588 157.017 343.048 156.584 343.613C156.038 344.373 155.431 345.123 154.663 345.991C154.084 346.67 153.734 347.416 153.391 348.141C153.152 348.652 152.924 349.134 152.634 349.566C152.113 350.352 151.702 351.184 151.306 351.988L151.07 352.463C150.784 353.031 150.424 353.788 150.184 354.616C149.827 355.859 149.563 357.131 149.309 358.363C149.199 358.899 149.088 359.438 148.97 359.974C148.82 360.616 148.634 361.481 148.549 362.391C148.506 362.991 148.381 363.57 148.249 364.181L148.216 364.338C148.052 365.17 148.031 365.984 148.013 366.774C148.009 366.984 148.002 367.195 147.995 367.406C147.909 368.367 147.924 369.324 147.941 370.249C147.949 370.706 147.959 371.159 147.952 371.617C147.952 371.77 147.981 371.92 148.038 372.06C147.916 372.735 147.924 373.402 147.931 374.052C147.931 374.252 147.934 374.449 147.931 374.645C147.941 375.256 147.952 375.845 147.963 376.438C147.999 378.317 148.038 380.26 148.013 382.163C147.999 383.46 147.956 384.745 147.895 386.274C147.859 387.885 147.845 389.506 147.831 391.071C147.824 391.867 147.816 392.667 147.806 393.463C147.827 394.881 147.877 396.299 147.927 397.671C147.963 398.653 147.999 399.635 148.024 400.621C148.081 403.607 148.106 406.646 148.131 409.585L148.141 410.875L148.202 412.703C148.295 415.485 148.388 418.36 148.402 421.185V424.95C148.384 433.386 148.37 442.107 148.534 450.69C148.545 453.093 148.541 455.507 148.541 457.918C148.541 459.454 148.541 460.99 148.541 462.525C148.481 466.293 148.734 469.326 149.338 472.047C149.62 473.09 150.034 473.947 150.574 474.633C150.781 474.908 150.988 475.201 151.191 475.497C151.702 476.229 152.227 476.986 152.941 477.626C154.677 479.244 156.267 479.387 158.277 479.551C159.259 479.822 160.327 479.994 161.72 480.101C163.249 480.287 164.927 480.372 166.974 480.372C167.642 480.372 168.306 480.362 168.974 480.351C169.606 480.358 170.267 480.358 170.931 480.358C171.556 480.358 172.181 480.358 172.806 480.358H174.463C175.013 480.358 175.57 480.369 176.124 480.376C176.949 480.387 177.771 480.401 178.599 480.401H178.967C180.056 480.401 181.156 480.34 182.221 480.283C182.928 480.244 183.631 480.208 184.339 480.187C185.06 480.162 185.842 480.151 186.806 480.151C187.36 480.151 187.914 480.151 188.467 480.158C189.024 480.162 189.581 480.165 190.139 480.165H190.649H190.781C191.724 480.165 192.678 480.133 193.599 480.104C193.96 480.094 194.321 480.079 194.682 480.072C198.239 480.097 201.882 480.222 205.407 480.34L205.753 480.351C206.203 480.362 206.639 480.365 207.075 480.365C208.307 480.365 209.55 480.337 210.757 480.308C211.625 480.287 212.493 480.265 213.36 480.254C214.35 480.262 215.371 480.29 216.361 480.319C217.036 480.337 217.711 480.354 218.386 480.369C218.864 480.379 219.343 480.383 219.821 480.383C220.3 480.383 220.786 480.379 221.268 480.376C221.746 480.372 222.229 480.369 222.711 480.369H223.107H223.461C226.111 480.369 228.929 480.322 231.689 479.765H231.714L231.736 479.754C231.982 479.687 232.232 479.629 232.482 479.572C232.982 479.458 233.5 479.337 234.014 479.151L234.054 479.137L234.089 479.119C234.379 478.979 234.686 478.865 235.014 478.747C235.393 478.608 235.786 478.465 236.175 478.269L236.211 478.251L236.243 478.229C236.661 477.961 237.004 477.64 237.336 477.329C237.547 477.133 237.747 476.947 237.954 476.783C238.736 476.14 239.25 475.533 239.586 474.861C239.665 474.719 239.757 474.554 239.85 474.386C240.072 473.994 240.297 473.586 240.493 473.154C240.568 472.997 240.643 472.822 240.718 472.651C240.836 472.376 240.947 472.119 241.079 471.883C241.325 471.486 241.607 470.976 241.715 470.361C241.797 469.965 241.811 469.568 241.825 469.183C241.832 468.972 241.84 468.761 241.861 468.551C242.075 467.34 242.168 466.243 242.143 465.193C242.143 465.011 242.147 464.801 242.154 464.586C242.165 464.061 242.175 463.515 242.14 462.976C242.043 462.086 241.982 461.193 241.95 460.215V460.193V460.172C241.9 459.625 241.929 459.072 241.954 458.486L241.965 458.286C241.975 457.979 241.975 457.693 241.972 457.408C241.972 456.968 241.997 456.25 242.04 455.815C242.104 455.175 242.147 454.493 242.075 453.797C242.075 453.679 242.082 453.557 242.09 453.44C242.104 453.24 242.118 453.015 242.1 452.772V452.754L242.097 452.736C242.047 452.347 241.932 451.947 241.757 451.55C241.757 451.543 241.75 451.536 241.747 451.529C241.757 451.118 241.775 450.704 241.793 450.293L241.825 449.507C241.832 448.518 241.843 447.55 241.857 446.586C241.879 445.011 241.9 443.382 241.886 441.779C241.897 439.875 241.804 437.939 241.715 436.071C241.618 434.018 241.515 431.893 241.554 429.811C241.522 427.857 241.572 425.893 241.622 423.989C241.668 422.182 241.715 420.314 241.693 418.468C241.679 417.732 241.661 417.003 241.64 416.271C241.6 414.825 241.557 413.328 241.575 411.864C241.575 410.767 241.59 409.678 241.604 408.585C241.622 406.964 241.643 405.289 241.622 403.635C241.629 402.542 241.593 401.428 241.557 400.346C241.54 399.831 241.525 399.314 241.511 398.799C241.49 397.774 241.504 396.724 241.518 395.706C241.525 395.153 241.532 394.599 241.536 394.046C241.54 393.399 241.543 392.749 241.543 392.099C241.55 389.699 241.554 387.22 241.704 384.795C241.74 383.36 241.654 381.949 241.568 380.581C241.486 379.213 241.4 377.799 241.436 376.42C241.475 374.202 241.532 372.506 241.622 370.917V370.899V370.881V370.127C241.64 368.334 241.654 366.484 241.465 364.652C241.407 364.209 241.372 363.788 241.332 363.341C241.286 362.799 241.24 362.241 241.154 361.681L241.118 361.27C241.047 360.449 240.972 359.602 240.736 358.756C240.697 358.556 240.665 358.352 240.636 358.149C240.593 357.866 240.547 357.577 240.482 357.281C240.429 357.041 240.365 356.806 240.297 356.566C240.236 356.348 240.175 356.134 240.129 355.913C239.89 354.741 239.565 353.673 239.168 352.748C239.122 352.627 239.072 352.481 239.018 352.331C238.875 351.923 238.725 351.502 238.493 351.081L238.482 351.059L238.468 351.038C238.182 350.588 237.965 350.091 237.732 349.566L237.636 349.345L237.629 349.327L237.618 349.309C237.332 348.745 236.986 348.234 236.654 347.738C236.4 347.363 236.161 347.009 235.95 346.638C235.65 346.116 235.272 345.645 234.825 345.23C234.661 345.055 234.497 344.884 234.332 344.709C234.018 344.373 233.704 344.041 233.379 343.716C232.968 343.245 232.472 342.705 231.868 342.241C231.661 342.048 231.464 341.848 231.268 341.645C230.879 341.248 230.472 340.834 229.996 340.473C229.386 339.97 228.668 339.477 227.829 338.984L227.557 338.784C227.104 338.448 226.639 338.098 226.111 337.809C225.393 337.437 224.668 337.137 223.968 336.845C223.436 336.623 222.886 336.395 222.368 336.148C221.921 335.905 221.471 335.773 221.032 335.645C220.714 335.552 220.414 335.462 220.146 335.337C219.782 335.187 219.45 335.091 219.132 335.002L218.907 334.937C218.628 334.834 218.353 334.755 218.075 334.702C218.282 334.384 218.382 334.027 218.35 333.666V333.612L218.332 333.562C218.314 333.477 218.286 333.395 218.257 333.312C218.368 333.319 218.471 333.33 218.575 333.337H218.596H218.618H218.728C218.796 333.337 218.861 333.341 218.928 333.341C219.014 333.341 219.096 333.341 219.182 333.334C219.632 333.284 219.978 333.009 220.136 332.63C221.121 331.677 221.225 329.541 221.243 327.584C221.243 327.398 221.243 327.241 221.25 327.116C221.278 327.062 221.307 326.998 221.332 326.927C221.425 326.641 221.464 326.327 221.453 325.962C221.464 325.294 221.478 324.512 221.425 323.723C221.468 323.58 221.486 323.43 221.471 323.276C221.453 322.787 221.193 322.394 221 322.109L220.939 322.016C220.911 321.951 220.889 321.887 220.864 321.823C220.771 321.573 220.657 321.262 220.411 320.984C220.214 320.776 219.889 320.548 219.375 320.548L219.364 320.537ZM210.564 323.119C211.621 323.084 212.703 323.076 213.746 323.073C214.696 323.069 215.675 323.066 216.643 323.037H216.675L216.707 323.034C217.064 322.991 217.432 322.98 217.818 322.969C218.139 322.959 218.468 322.951 218.8 322.923C218.846 323.03 218.9 323.137 218.964 323.248C218.993 323.294 219.018 323.33 219.043 323.369C219.043 323.391 219.046 323.409 219.05 323.43C219.128 323.891 219.132 324.348 219.128 324.823H218.775L218.893 325.701V325.748L218.911 325.819C218.914 325.837 218.918 325.855 218.921 325.873V326.019C218.918 326.319 218.918 326.623 218.914 326.923C218.914 327.659 218.914 328.419 218.875 329.159L218.853 329.359C218.789 329.959 218.732 330.527 218.536 331.005H218.428C218.214 330.991 218 330.984 217.786 330.984C217.589 330.984 217.414 330.991 217.25 331.005C217.021 330.923 216.807 330.912 216.661 330.912C216.586 330.912 216.511 330.912 216.436 330.919C216.386 330.919 216.336 330.923 216.286 330.923C216.268 330.923 216.25 330.923 216.228 330.923H216.203H216.178C216.068 330.923 215.961 330.919 215.85 330.919C215.236 330.919 214.635 330.962 214.057 331.041C211.607 331.141 209.11 331.18 206.696 331.212H206.671H206.646C205.125 331.334 203.564 331.38 202.053 331.423C201.592 331.437 201.132 331.448 200.671 331.466C200.375 331.466 200.057 331.466 199.739 331.466C198.839 331.466 197.942 331.462 197.042 331.455C196.142 331.452 195.239 331.444 194.339 331.444C193.614 331.444 192.892 331.444 192.167 331.455C191.635 331.48 191.128 331.494 190.624 331.505C190.049 331.519 189.456 331.534 188.867 331.566C187.964 331.641 187.053 331.659 186.171 331.673L185.517 331.687H185.496H185.474C184.771 331.744 184.042 331.762 183.335 331.784C182.463 331.809 181.56 331.834 180.663 331.927C180.092 331.969 179.503 332.019 178.913 332.073L178.131 332.141C177.781 332.152 177.396 332.159 177.01 332.159C176.01 332.159 175.017 332.119 174.081 332.08H174.042H174.003C173.856 332.087 173.71 332.105 173.567 332.127L173.395 332.116C173.053 332.094 172.699 332.073 172.338 332.073C172.199 332.073 172.06 332.073 171.917 332.084C171.878 332.087 171.838 332.091 171.803 332.091C171.803 331.802 171.785 331.516 171.77 331.237C171.76 331.009 171.749 330.784 171.742 330.555C171.742 330.173 171.731 329.773 171.717 329.377C171.699 328.784 171.681 328.223 171.706 327.659C171.717 327.516 171.735 327.348 171.749 327.18C171.763 327.019 171.781 326.859 171.792 326.698L171.86 325.866H171.753C171.77 325.309 171.763 324.698 171.749 324.134V324.123C171.767 323.873 171.77 323.619 171.774 323.391C171.774 323.376 171.774 323.366 171.774 323.351C172.006 323.33 172.231 323.301 172.453 323.269C172.628 323.248 172.803 323.223 172.978 323.205C173.038 323.198 173.103 323.194 173.167 323.194C173.413 323.194 173.678 323.237 173.96 323.28C174.131 323.309 174.303 323.334 174.474 323.351C175.228 323.437 175.978 323.448 176.706 323.455C177.099 323.459 177.492 323.462 177.885 323.48C178.424 323.526 179.021 323.551 179.617 323.551C179.828 323.551 180.035 323.551 180.238 323.541C181.517 323.444 182.796 323.437 184.035 323.434C184.438 323.434 184.842 323.43 185.242 323.426C186.092 323.376 186.91 323.351 187.714 323.351H188.01C188.36 323.348 188.689 323.344 189.017 323.344C189.603 323.344 190.189 323.351 190.774 323.359C191.367 323.366 191.957 323.373 192.549 323.373C192.76 323.373 192.967 323.373 193.178 323.373C193.932 323.341 194.66 323.28 195.364 323.219C195.817 323.18 196.271 323.141 196.724 323.112C197.135 323.091 197.578 323.08 198.067 323.08C198.828 323.08 199.607 323.105 200.292 323.13C200.489 323.13 200.653 323.13 200.814 323.13C201.503 323.13 202.21 323.148 202.892 323.166C203.585 323.184 204.3 323.201 205.007 323.201C205.314 323.201 205.625 323.201 205.935 323.191C206.175 323.18 206.403 323.176 206.628 323.176C206.989 323.176 207.353 323.187 207.714 323.194C208.089 323.205 208.464 323.212 208.839 323.212C209.496 323.212 210.039 323.18 210.543 323.116L210.564 323.119ZM215.128 333.248C215.211 333.245 215.293 333.241 215.375 333.237C215.428 333.427 215.528 333.602 215.675 333.759C215.578 333.866 215.493 333.998 215.436 334.17C215.321 334.466 215.303 334.752 215.289 334.984C215.286 335.062 215.282 335.141 215.271 335.22V335.252L215.264 335.284C215.243 335.73 215.468 336.152 215.846 336.37C215.918 336.412 215.989 336.445 216.053 336.466C216.161 336.537 216.282 336.591 216.407 336.623C216.714 336.773 217.014 336.812 217.261 336.845C217.332 336.855 217.4 336.862 217.471 336.877C217.739 336.945 218.007 337.034 218.289 337.127C218.518 337.202 218.75 337.28 218.982 337.348C219.632 337.616 220.236 337.82 220.821 337.977C221.857 338.445 222.918 338.898 223.943 339.341L224.736 339.684C225.261 339.941 225.768 340.323 226.307 340.73L226.418 340.812C226.632 340.966 226.829 341.08 227.018 341.191C227.168 341.28 227.318 341.366 227.461 341.466C228.061 341.873 228.582 342.277 229.061 342.702C229.25 342.873 229.436 343.066 229.629 343.27C229.889 343.541 230.157 343.823 230.472 344.084L230.486 344.098L230.504 344.109C230.861 344.373 231.147 344.684 231.472 345.045C231.643 345.234 231.818 345.423 232.007 345.616C232.232 345.845 232.454 346.08 232.675 346.316C232.954 346.613 233.243 346.92 233.543 347.216C233.772 347.495 233.968 347.816 234.175 348.155C234.318 348.388 234.457 348.62 234.611 348.845C234.729 349.034 234.854 349.223 234.982 349.409C235.168 349.684 235.347 349.945 235.486 350.216C235.764 350.859 236.082 351.581 236.504 352.273C236.675 352.648 236.818 353.041 236.968 353.456C237.082 353.773 237.2 354.091 237.329 354.402C237.565 355.077 237.718 355.756 237.886 356.477L237.982 356.899L237.99 356.927L238 356.956C238.193 357.556 238.297 358.184 238.404 358.849L238.44 359.07V359.099L238.45 359.127C238.657 359.988 238.772 360.749 238.8 361.452V361.484L238.804 361.516C238.904 362.356 239.018 363.306 239.082 364.231V364.256L239.086 364.277C239.222 365.324 239.282 366.192 239.279 366.999C239.315 368.338 239.343 369.895 239.272 371.46C239.207 372.281 239.19 373.127 239.175 373.949L239.157 374.677C239.032 377.12 239.175 379.603 239.315 381.999L239.382 383.203C239.411 384.17 239.361 385.192 239.311 386.178C239.275 386.949 239.236 387.749 239.232 388.546C239.24 390.063 239.225 391.606 239.207 393.096C239.182 395.517 239.154 398.024 239.232 400.496C239.336 403.196 239.304 405.949 239.275 408.61C239.25 410.803 239.225 413.071 239.275 415.307C239.393 418.014 239.4 420.728 239.293 423.4C239.229 425.932 239.207 428.521 239.225 431.336C239.225 433.032 239.311 434.754 239.397 436.414C239.465 437.732 239.532 439.096 239.554 440.436C239.565 444.664 239.543 448.229 239.407 451.847C239.4 452.129 239.497 452.393 239.675 452.604C239.69 452.643 239.704 452.682 239.718 452.722C239.74 452.782 239.775 452.875 239.786 452.918C239.743 453.329 239.757 453.729 239.772 454.115C239.782 454.418 239.793 454.704 239.772 454.975C239.672 455.854 239.632 456.811 239.64 458.054C239.636 458.211 239.625 458.397 239.618 458.579C239.597 458.983 239.579 459.397 239.597 459.825C239.64 460.833 239.704 462.025 239.822 463.233V463.333C239.836 464.576 239.85 465.865 239.732 467.101C239.711 467.261 239.679 467.447 239.65 467.629C239.59 467.979 239.529 468.343 239.515 468.733V468.822C239.504 469.254 239.493 469.661 239.407 470.033C239.361 470.219 239.243 470.426 239.104 470.661C238.997 470.844 238.89 471.029 238.793 471.244C238.729 471.383 238.668 471.529 238.607 471.676L238.504 471.919C238.104 472.79 237.686 473.558 237.236 474.254C237.004 474.547 236.7 474.804 236.379 475.079C236.236 475.201 236.089 475.322 235.95 475.451C235.829 475.551 235.693 475.679 235.557 475.808C235.389 475.965 235.232 476.115 235.072 476.229C234.807 476.358 234.522 476.458 234.222 476.569C233.907 476.683 233.582 476.801 233.257 476.954C230.164 477.987 226.675 478.026 223.868 478.061C223.529 478.054 223.164 478.054 222.8 478.054C222.311 478.054 221.821 478.058 221.332 478.061C220.846 478.065 220.361 478.069 219.875 478.069C219.557 478.069 219.239 478.069 218.921 478.061C218.314 478.047 217.7 478.033 217.086 478.015C215.728 477.979 214.325 477.944 212.943 477.944C211.907 477.944 210.978 477.965 210.1 478.004C209.321 478.033 208.51 478.044 207.639 478.044C205.321 478.044 202.96 477.947 200.675 477.851L200.232 477.833C199.407 477.833 198.61 477.815 197.81 477.797C196.957 477.779 196.074 477.762 195.203 477.762C194.542 477.762 193.953 477.772 193.396 477.794C192.496 477.829 191.532 477.844 190.278 477.844C189.728 477.844 189.174 477.844 188.624 477.836C188.071 477.836 187.517 477.829 186.964 477.829C185.867 477.829 184.981 477.84 184.171 477.869C183.446 477.894 182.724 477.929 182.003 477.969C181.156 478.015 180.278 478.062 179.421 478.079C179.242 478.079 179.046 478.079 178.853 478.079C178.01 478.079 177.167 478.069 176.324 478.054C175.556 478.044 174.788 478.033 174.017 478.033H173.274C172.203 478.033 171.131 478.033 170.06 478.04C168.988 478.044 167.92 478.047 166.849 478.047C166.374 478.047 165.899 478.047 165.424 478.047C163.602 477.99 161.724 477.79 159.909 477.597L159.342 477.536C159.152 477.372 158.909 477.272 158.645 477.258C158.409 477.233 158.174 477.212 157.934 477.19C157.12 477.119 156.352 477.051 155.699 476.744C154.502 476.172 153.652 475.04 153.049 474.115C152.831 473.79 152.606 473.486 152.388 473.194L152.209 472.954C151.87 472.411 151.627 471.786 151.488 471.086C151.116 469.076 150.902 467.115 150.852 465.265C150.845 462.951 150.845 460.615 150.849 458.283C150.849 455.808 150.852 453.332 150.841 450.857C150.666 441.214 150.688 431.411 150.709 422.768C150.727 419.21 150.609 415.603 150.491 412.114L150.456 411.014C150.445 409.567 150.427 408.099 150.409 406.632C150.391 405.107 150.374 403.582 150.363 402.053C150.345 400.664 150.295 399.26 150.245 397.903C150.159 395.592 150.074 393.199 150.149 390.86V390.613C150.17 388.367 150.191 386.045 150.295 383.77C150.352 381.46 150.338 379.049 150.249 376.395C150.241 375.792 150.213 375.17 150.184 374.567C150.163 374.127 150.145 373.688 150.131 373.249L150.124 373.099C150.113 372.845 150.102 372.567 150.041 372.274C150.177 372.081 150.252 371.849 150.249 371.613C150.266 371.181 150.252 370.72 150.238 370.277C150.231 370.106 150.227 369.934 150.224 369.763C150.209 369.027 150.234 368.249 150.299 367.317V367.295V367.274V367.177C150.313 366.292 150.327 365.452 150.491 364.642C150.674 363.963 150.752 363.284 150.831 362.631C150.884 362.199 150.931 361.788 151.006 361.384C151.177 360.652 151.338 359.87 151.491 359.113C151.781 357.695 152.081 356.231 152.516 354.848C153.163 353.266 153.92 351.798 154.759 350.495C155.034 350.045 155.242 349.598 155.442 349.166C155.667 348.681 155.881 348.223 156.156 347.816C156.374 347.509 156.638 347.209 156.917 346.891C157.181 346.591 157.456 346.28 157.709 345.938C157.806 345.813 157.909 345.673 158.009 345.534C158.224 345.245 158.427 344.97 158.645 344.72C159.009 344.33 159.424 343.959 159.859 343.566C159.999 343.441 160.142 343.316 160.281 343.188C160.545 342.963 160.824 342.713 161.102 342.463C161.663 341.955 162.195 341.48 162.781 341.077C163.213 340.773 163.713 340.562 164.242 340.341C164.402 340.273 164.563 340.205 164.724 340.137C165.06 339.987 165.388 339.834 165.717 339.68C166.038 339.53 166.36 339.38 166.685 339.234C167.152 339.037 167.617 338.802 168.067 338.573C168.881 338.159 169.653 337.766 170.478 337.587H170.503L170.528 337.577C170.785 337.502 171.063 337.452 171.356 337.398C171.86 337.305 172.385 337.212 172.906 336.98C172.992 336.941 173.185 336.859 173.381 336.745C173.442 336.73 173.503 336.716 173.56 336.698C173.82 336.666 174.067 336.548 174.249 336.362C174.331 336.284 174.388 336.191 174.424 336.12C174.663 335.809 174.785 335.448 174.77 335.095C174.76 334.837 174.685 334.627 174.585 334.445C174.631 334.434 174.678 334.423 174.724 334.405C175.317 334.459 175.87 334.484 176.413 334.484C176.503 334.484 176.592 334.484 176.685 334.484C176.82 334.487 176.992 334.491 177.163 334.491C178.181 334.491 179.196 334.402 180.174 334.312C180.756 334.259 181.36 334.205 181.949 334.173C182.574 334.134 183.242 334.12 183.885 334.105L184.524 334.091L184.828 334.073C185.392 334.037 185.928 334.002 186.474 334.002H186.678C187.339 334.002 187.967 333.962 188.574 333.923C189.185 333.884 189.764 333.848 190.346 333.848H190.392C191.778 333.787 193.121 333.78 194.139 333.78C194.685 333.78 195.232 333.78 195.778 333.784C196.328 333.784 196.874 333.787 197.424 333.787C197.721 333.787 198.017 333.787 198.31 333.787C198.617 333.795 198.946 333.798 199.274 333.798C200.125 333.798 200.982 333.777 201.81 333.759C202.364 333.745 202.917 333.734 203.471 333.723C204.171 333.709 204.864 333.662 205.532 333.62C206.06 333.584 206.585 333.548 207.117 333.53C207.61 333.523 208.125 333.52 208.635 333.516C209.95 333.505 211.307 333.494 212.653 333.419C212.885 333.409 213.125 333.402 213.36 333.394C213.928 333.38 214.518 333.366 215.118 333.27L215.128 333.248Z" fill="white"/>
</svg>
