<svg width="27" height="25" viewBox="0 0 27 25" fill="none" xmlns="http://www.w3.org/2000/svg">
<path d="M4.73097 6.70002C5.52643 6.85106 6.29169 7.02224 7.07708 7.19341C11.1776 8.23482 14.5972 11.2309 18.4599 12.9318C18.4599 12.9318 24.1543 14.7404 26.4702 15.9889H26.4601C26.9837 16.4571 26.5558 17.0109 26.007 17.172C23.2092 18.259 20.5434 19.6921 17.7453 20.7818C16.8779 21.1351 10.5812 23.722 10.5812 23.722L8.39086 13.7708C8.39086 13.7708 5.99766 12.1736 5.1841 11.5533C3.43254 10.4031 0.923106 9.19979 0.0135985 7.14306C-0.263362 5.57362 3.7713 6.60336 4.73097 6.70002Z" fill="#AE97D1"/>
<path d="M23.3796 0.623858C19.7344 1.88433 16.0273 3.54218 12.4747 5.05428C11.7371 5.37007 7.53629 6.99278 7.4704 7.71754C7.20357 8.48783 7.23882 9.30846 7.39993 10.0939C7.79199 12.0661 8.36596 23.2056 10.3703 24.2208C12.4472 25.1768 23.8937 4.94126 24.6131 3.06562C25.3229 1.41429 26.0227 -0.342767 23.3796 0.618833V0.623858Z" fill="#BFACD9"/>
</svg>
