<svg width="34" height="26" viewBox="0 0 34 26" fill="none" xmlns="http://www.w3.org/2000/svg">
<path d="M20.9135 7H3.58654C2.15803 7 1 8.15804 1 9.58654V21.859C1 23.2875 2.15803 24.4455 3.58654 24.4455H20.9135C22.342 24.4455 23.5 23.2875 23.5 21.859V9.58654C23.5 8.15804 22.342 7 20.9135 7Z" stroke="#8F8F8F" stroke-width="1.60256" stroke-miterlimit="10" stroke-linecap="round"/>
<path d="M1 12.2207L12.2532 16.0925L23.5032 12.2207" stroke="#8F8F8F" stroke-width="1.60256" stroke-linecap="round" stroke-linejoin="round"/>
<path d="M26.3336 13.468C30.0527 13.468 33.0676 10.453 33.0676 6.73397C33.0676 3.0149 30.0527 0 26.3336 0C22.6145 0 19.5996 3.0149 19.5996 6.73397C19.5996 10.453 22.6145 13.468 26.3336 13.468Z" fill="#DA6A98"/>
</svg>
