<svg width="34" height="31" viewBox="0 0 34 31" fill="none" xmlns="http://www.w3.org/2000/svg">
<path d="M14.2115 11.4751L10.3633 10.1171C10.4588 9.89138 10.4221 9.6051 10.1963 9.44362C9.833 9.21423 9.37056 9.2491 8.96317 9.14266C7.96672 8.92612 6.99963 8.70958 5.99217 8.51873C5.10583 8.42881 4.21765 8.37376 3.34231 8.19025C2.38256 8.10767 -0.281976 7.34244 0.0226475 9.07476C0.586018 10.341 1.89994 11.0365 2.75509 12.0825C3.70199 13.345 5.2875 13.8166 6.56472 14.6589C7.207 15.1489 7.85661 15.626 8.59432 15.9618C9.03107 16.1545 9.41093 16.4169 9.79997 16.7179C10.3835 17.0133 10.8203 16.5344 10.7744 16.0664H12.3856L14.2115 11.4751Z" fill="#E293B3"/>
<path d="M33.5204 20.2792C30.5861 18.6974 27.1655 18.3138 24.1798 16.8513C23.8128 16.6806 23.4917 16.3999 23.0971 16.3008C22.8953 16.2641 22.7338 16.4054 22.6714 16.5815L19.616 14.752L15.1604 19.1617L12.6592 24.6632L13.6501 29.161C13.373 29.3831 13.1877 29.6492 13.4042 30.0657C13.9456 30.8566 14.7659 29.985 15.2815 29.5996C15.7366 29.2124 16.2027 28.8344 16.7367 28.5628C18.5883 27.6287 20.5537 27.1296 22.4824 26.3478C23.6954 25.8726 24.8313 25.2266 26.0534 24.7788C27.5123 24.287 28.9088 23.6539 30.2631 22.9236C31.0871 22.4942 32.0597 22.1235 32.9442 21.7766C33.6415 21.5711 34.1792 20.8701 33.5186 20.2811L33.5204 20.2792Z" fill="#E293B3"/>
<path d="M29.6111 0.817734C28.2495 1.29118 27.0291 2.08578 25.6914 2.62529C23.6838 3.48227 21.6652 4.3154 19.6356 5.12284C18.3657 5.57427 17.05 5.90091 15.8076 6.42941C13.8569 7.26621 12.0347 8.36359 10.1831 9.39491C10.1354 9.42611 10.0822 9.45914 10.0308 9.494C9.98673 9.46281 9.93718 9.43712 9.87663 9.42978C9.64724 9.39674 9.49126 9.59126 9.46924 9.80046C9.12975 10.7731 9.17746 11.8135 9.37748 12.8118C9.79588 14.9258 10.1868 17.0454 10.5538 19.1686C10.985 21.2239 11.4548 23.2681 11.7704 25.3473C12.0622 26.8062 12.5357 28.221 12.8586 29.6726C12.6898 30.0598 12.6421 30.4525 13.1357 30.6965C13.5394 30.8801 13.945 30.5846 14.0753 30.2011C14.2037 29.9442 14.4093 29.5643 14.6185 29.267C15.3654 28.1935 16.2719 27.1695 17.0316 26.0813C17.6794 25.1142 18.2501 24.0939 18.9126 23.1342C19.7365 21.8735 20.7366 20.71 21.5845 19.464C22.4157 18.2162 23.1296 16.7499 23.8893 15.4378C24.4142 14.4983 25.1023 13.6743 25.7721 12.8357C26.7355 11.5952 27.5228 10.2335 28.3981 8.9343C29.5175 7.40385 30.4919 5.69905 31.1783 3.91535C32.0756 1.82519 32.9656 -0.397091 29.6148 0.817734H29.6111Z" fill="#FCB1CE"/>
</svg>
