<svg width="68" height="68" viewBox="0 0 68 68" fill="none" xmlns="http://www.w3.org/2000/svg">
<path d="M16.2977 17.9134C15.919 17.8439 15.4322 17.7666 14.9686 17.7202C14.6131 17.6584 14.2654 17.5348 13.9022 17.4112C13.5622 17.2953 13.1681 17.1562 12.774 17.0789C12.6581 17.0557 12.5345 17.0402 12.4108 17.0325C12.2177 16.9862 12.0168 17.0171 11.8777 17.1021C11.6999 17.1716 11.5608 17.303 11.4758 17.4807C11.3754 17.6816 11.3754 17.9134 11.4604 18.1143C11.6458 18.5471 12.0786 18.5702 12.2486 18.578C12.5731 18.6321 12.9054 18.748 13.2608 18.8793L13.3381 18.9025C14.0026 19.1807 14.7058 19.3507 15.4863 19.4203C15.5636 19.428 15.6486 19.4512 15.7336 19.4743C15.8881 19.513 16.0736 19.5593 16.2822 19.5593C16.3595 19.5593 16.4367 19.5593 16.5217 19.5439C16.6222 19.5207 16.7226 19.4821 16.8076 19.428C16.9699 19.3275 17.0858 19.173 17.1476 18.9875C17.2326 18.7016 17.1631 18.3848 16.9545 18.1607C16.7845 17.983 16.5449 17.8902 16.2977 17.9134Z" fill="white"/>
<path d="M19.9295 12.4502C19.7209 12.1798 19.5122 11.9093 19.3113 11.6311C19.2804 11.3916 19.1336 11.1752 18.9018 11.0516C18.6236 10.9202 18.299 10.9666 18.075 11.1752C17.8277 11.407 17.7427 11.8011 17.8895 12.1489C18.1136 12.597 18.4072 12.9911 18.6777 13.3543C18.8322 13.5629 18.9868 13.7716 19.1336 13.9957C19.3654 14.3279 19.5895 14.6911 19.8445 15.1393C19.9527 15.3248 20.1304 15.4639 20.3468 15.5102C20.4163 15.5257 20.4781 15.5334 20.5477 15.5334C20.7022 15.5334 20.8568 15.487 20.9804 15.4098C21.1659 15.2939 21.2972 15.1084 21.3436 14.892C21.39 14.6834 21.3513 14.4593 21.2431 14.2893C20.8568 13.6402 20.4009 13.0529 19.9218 12.4348L19.9295 12.4502Z" fill="white"/>
<path d="M27.4867 10.7272L27.4636 10.6344C27.4327 10.5108 27.4095 10.4026 27.3786 10.2635C27.3013 9.92351 27.2472 9.58351 27.1777 9.18942C27.1081 8.76442 27.0308 8.2776 26.9149 7.84487V7.80624C26.9304 7.70579 26.9304 7.5976 26.9149 7.48942C26.8686 7.29624 26.7372 7.12624 26.5595 7.03351C26.2272 6.86351 25.8331 6.97942 25.6631 7.27306C25.4468 7.5976 25.4931 7.9376 25.524 8.13851V8.22351C25.5781 8.54033 25.6245 8.85715 25.6631 9.1817C25.7481 9.82306 25.8331 10.4876 25.949 11.0826C25.9413 11.3531 26.0186 11.5849 26.1731 11.7549C26.2813 11.8708 26.4667 12.0021 26.8145 12.0021C26.9536 11.9867 27.0849 11.9481 27.1931 11.8785C27.2781 11.8244 27.3554 11.7549 27.4095 11.6699C27.649 11.3222 27.5254 10.8894 27.4867 10.7349V10.7272Z" fill="white"/>
<path d="M22.3557 45.2371L23.9862 48.2353C23.8007 48.3203 23.6616 48.5212 23.7157 48.7453C23.8162 49.093 24.1175 49.3248 24.3107 49.6185C24.8053 50.3062 25.2921 50.9862 25.8098 51.6662C26.3121 52.2148 26.8298 52.748 27.2702 53.3507C27.8189 53.938 29.0475 55.9007 29.828 54.6566C30.1834 53.5516 29.7584 52.3848 29.8125 51.2566C29.9284 49.943 29.2098 48.7607 28.8852 47.5244C28.7616 46.8598 28.6225 46.203 28.3521 45.5771C28.1898 45.2139 28.0971 44.8353 28.0275 44.4334C27.8266 43.9234 27.2934 43.9775 27.0616 44.2944L26.0571 43.3903L22.3557 45.2216V45.2371Z" fill="#E293B3"/>
<path d="M15.2857 28.9712C16.2207 31.5907 18.1371 33.7466 19.1725 36.3198C19.3039 36.6289 19.3503 36.9843 19.5357 37.2703C19.6439 37.4093 19.8216 37.4093 19.953 37.3321L20.8262 40.1757L26.0575 39.9284L30.6862 37.9116L32.5871 34.5657C32.8807 34.5812 33.1512 34.5193 33.2439 34.1407C33.3521 33.3448 32.3553 33.4298 31.8144 33.3834C31.3121 33.368 30.8175 33.3448 30.3307 33.2134C28.6616 32.7575 27.1548 31.9694 25.5244 31.3744C24.5044 30.988 23.438 30.7562 22.4257 30.3543C21.2434 29.8443 20.0225 29.458 18.7707 29.1566C18.0212 28.9634 17.2098 28.6466 16.4603 28.3684C15.9116 28.1057 15.1853 28.2448 15.2703 28.9789L15.2857 28.9712Z" fill="#E293B3"/>
<path d="M6.83167 43.2511C7.94439 43.7147 9.14211 43.9079 10.278 44.3174C12.0012 44.9047 13.7244 45.5152 15.4398 46.1488C16.483 46.5815 17.4798 47.1147 18.5462 47.4779C20.223 48.0497 21.9694 48.382 23.7003 48.7761C23.7467 48.7761 23.8007 48.7915 23.8471 48.7992C23.8548 48.8456 23.8703 48.8843 23.9089 48.9229C24.0326 49.0697 24.2412 49.0388 24.3726 48.9229C25.1298 48.5056 25.6785 47.8334 26.1112 47.107C27.0307 45.5615 27.9735 44.0238 28.9316 42.5015C29.8126 40.9793 30.6626 39.4492 31.6285 37.9811C32.2621 36.9147 32.7567 35.7711 33.3671 34.6815C33.6917 34.5347 33.9389 34.3183 33.7689 33.8933C33.6221 33.5533 33.2048 33.507 32.9112 33.677C32.6871 33.762 32.3471 33.8856 32.0535 33.9552C30.9871 34.2024 29.8512 34.3338 28.7771 34.5888C27.8344 34.8283 26.9071 35.1452 25.9644 35.3693C24.7435 35.6938 23.4762 35.8561 22.2553 36.1574C21.0421 36.4665 19.7748 36.9765 18.5694 37.3706C17.7194 37.6643 16.8307 37.7879 15.9421 37.9347C14.6516 38.1665 13.3998 38.5761 12.1326 38.8929C10.5794 39.2174 9.0262 39.7352 7.59666 40.4538C5.87348 41.2497 4.07301 42.1306 6.83938 43.2511H6.83167Z" fill="#FCB1CE"/>
<path d="M42.1606 44.4953C42.1606 44.4953 42.1838 44.4412 42.2147 44.4412C42.2456 44.4412 42.2688 44.4643 42.2688 44.4953C42.2688 44.5262 42.2456 44.5493 42.2147 44.5493C42.1838 44.5493 42.1606 44.5262 42.1606 44.4953Z" fill="white"/>
<path d="M45.8931 45.4533L42.6786 44.3174C42.7559 44.132 42.725 43.8924 42.5395 43.7533C42.2381 43.5602 41.8518 43.5911 41.5118 43.4983C40.6772 43.3206 39.8736 43.1352 39.0313 42.9806C38.2895 42.9033 37.5477 42.857 36.8136 42.7102C36.01 42.6406 33.7845 41.9992 34.0395 43.452C34.5109 44.5106 35.6081 45.0902 36.3268 45.9633C37.115 47.022 38.444 47.4161 39.5104 48.1193C40.0436 48.5288 40.5922 48.9306 41.2104 49.2088C41.5736 49.3711 41.8904 49.5874 42.215 49.8424C42.7018 50.0897 43.065 49.6879 43.0263 49.3015H44.3709L45.8931 45.4611V45.4533Z" fill="#EDD48E"/>
<path d="M62.0354 52.8097C59.5858 51.4884 56.7267 51.1638 54.2308 49.9429C53.9217 49.8038 53.659 49.5643 53.3267 49.4793C53.1567 49.4484 53.0254 49.5643 52.9713 49.7111L50.4213 48.1811L46.6967 51.867L44.6104 56.4647L45.4372 60.2279C45.2054 60.4134 45.0508 60.6374 45.2285 60.9852C45.6767 61.6497 46.3645 60.9156 46.7972 60.5988C47.1758 60.2743 47.5699 59.9575 48.0103 59.7334C49.5558 58.9529 51.2017 58.5356 52.809 57.8788C53.8213 57.4847 54.7717 56.9438 55.7917 56.5652C57.0126 56.1556 58.1794 55.6225 59.3076 55.012C59.9953 54.6565 60.8067 54.3397 61.5485 54.0538C62.1281 53.8838 62.584 53.2965 62.0276 52.802L62.0354 52.8097Z" fill="#EDD48E"/>
<path d="M58.767 36.5516C57.6311 36.9457 56.6111 37.6102 55.4906 38.0584C53.8138 38.777 52.1215 39.4725 50.4292 40.1448C49.3706 40.5234 48.2656 40.7939 47.2302 41.2343C45.5997 41.9298 44.0774 42.8493 42.532 43.7148C42.4933 43.7379 42.447 43.7688 42.4083 43.7998C42.3697 43.7766 42.3311 43.7534 42.277 43.7457C42.0838 43.7148 41.9524 43.877 41.937 44.0548C41.6511 44.8661 41.6897 45.7393 41.8597 46.5739C42.2074 48.3434 42.532 50.1129 42.841 51.8825C43.2042 53.5979 43.5983 55.3057 43.861 57.0443C44.1006 58.2652 44.5024 59.4475 44.7729 60.6607C44.6338 60.9852 44.5951 61.3098 45.0047 61.5184C45.3447 61.6729 45.677 61.4257 45.7929 61.1011C45.901 60.8848 46.071 60.5679 46.2488 60.3207C46.8747 59.4243 47.632 58.5666 48.2656 57.6548C48.8065 56.8434 49.2856 55.9934 49.8342 55.1898C50.522 54.1389 51.3565 53.1652 52.0674 52.122C52.7629 51.0789 53.3579 49.8502 53.9915 48.7529C54.432 47.9648 55.0038 47.277 55.5679 46.5816C56.3715 45.5461 57.0283 44.4102 57.7624 43.3207C58.6974 42.0379 59.5165 40.6161 60.0883 39.1248C60.8379 37.3784 61.5797 35.5239 58.7824 36.5361L58.767 36.5516Z" fill="#FFEBA6"/>
<path d="M41.7825 16.1901C41.7825 16.1901 41.8289 16.1438 41.8521 16.1515C41.8752 16.1592 41.8984 16.1979 41.8907 16.2211C41.883 16.2442 41.8444 16.2674 41.8212 16.2597C41.798 16.252 41.7748 16.2133 41.7825 16.1901Z" fill="white"/>
<path d="M45.0123 18.292L42.331 16.1902C42.47 16.0356 42.5164 15.8038 42.3773 15.6106C42.1532 15.3324 41.7746 15.232 41.481 15.0465C40.7469 14.6061 40.0437 14.1811 39.2941 13.7561C38.6141 13.447 37.9264 13.1688 37.285 12.7902C36.5509 12.4656 34.6423 11.152 34.4182 12.6047C34.5264 13.7561 35.3764 14.6602 35.7782 15.7188C36.1878 16.9706 37.316 17.7665 38.1041 18.7788C38.4828 19.3352 38.8691 19.8915 39.3637 20.3552C39.6573 20.6256 39.8891 20.9347 40.1132 21.2747C40.4996 21.6611 40.9709 21.4061 41.0559 21.0197L42.331 21.4524L45.0046 18.3074L45.0123 18.292Z" fill="#C6C685"/>
<path d="M57.9478 30.4239C56.0469 28.3839 53.4428 27.1707 51.4724 25.208C51.2251 24.9762 51.0474 24.6671 50.7615 24.4816C50.6146 24.3966 50.4446 24.4662 50.3519 24.5898L48.4201 22.3257L43.7142 24.6285L40.2601 28.3144L39.8428 32.1394C39.5647 32.2398 39.3483 32.4021 39.4024 32.7885C39.6187 33.5612 40.4996 33.0898 41.0096 32.9198C41.4733 32.7344 41.9446 32.5566 42.4392 32.4871C44.1546 32.2398 45.8469 32.3712 47.5778 32.2707C48.6674 32.2167 49.7337 32.008 50.8233 31.9848C52.106 31.9848 53.3887 31.8612 54.656 31.6448C55.421 31.5289 56.2942 31.4903 57.0824 31.4517C57.6928 31.4748 58.3033 31.0653 57.9401 30.4239H57.9478Z" fill="#C6C685"/>
<path d="M60.0572 13.9725C58.8517 13.9803 57.6695 14.2894 56.4718 14.3512C54.6558 14.4903 52.8322 14.6139 51.0086 14.7066C49.8804 14.7221 48.7522 14.6294 47.6318 14.7144C45.8622 14.8534 44.1236 15.2398 42.3849 15.5566C42.3386 15.5721 42.2845 15.5798 42.2381 15.5953C42.2149 15.5566 42.1763 15.5257 42.1377 15.5025C41.9677 15.4175 41.7899 15.5257 41.7127 15.688C41.1872 16.368 40.9399 17.2025 40.8318 18.0448C40.5999 19.8298 40.3372 21.6148 40.0667 23.3921C39.8581 25.1385 39.6804 26.8771 39.379 28.608C39.2168 29.8444 39.2168 31.0885 39.0854 32.3248C38.8458 32.5875 38.7068 32.8812 39.0313 33.2134C39.3018 33.4684 39.7036 33.3448 39.9045 33.0744C40.0745 32.9044 40.3372 32.6571 40.5845 32.4794C41.4654 31.8303 42.4545 31.2585 43.3431 30.6016C44.1159 30.0066 44.8422 29.3575 45.6227 28.7703C46.6118 27.9898 47.7168 27.3407 48.7213 26.5757C49.7104 25.8107 50.6686 24.8371 51.6268 24.0025C52.2913 23.3998 53.0563 22.9285 53.8136 22.4494C54.9108 21.723 55.8999 20.8575 56.9354 20.0616C58.2336 19.1498 59.4622 18.0603 60.4822 16.8316C61.7495 15.4175 63.0477 13.8953 60.0727 13.9648L60.0572 13.9725Z" fill="#D8D9A7"/>
</svg>
