<svg width="27" height="25" viewBox="0 0 27 25" fill="none" xmlns="http://www.w3.org/2000/svg">
<path d="M4.73097 6.90681C5.52643 7.05784 6.29169 7.22902 7.07708 7.4002C11.1776 8.44161 14.5972 11.4377 18.4599 13.1385C18.4599 13.1385 24.1543 14.9471 26.4702 16.1957H26.4601C26.9837 16.6639 26.5558 17.2177 26.007 17.3788C23.2092 18.4658 20.5434 19.8988 17.7453 20.9886C16.8779 21.3419 10.5812 23.9288 10.5812 23.9288L8.39086 13.9776C8.39086 13.9776 5.99766 12.3804 5.1841 11.7601C3.43254 10.6099 0.923106 9.40658 0.0135985 7.34985C-0.263362 5.78041 3.7713 6.81015 4.73097 6.90681Z" fill="#EDD48E"/>
<path d="M23.3796 0.830645C19.7344 2.09112 16.0273 3.74896 12.4747 5.26106C11.7371 5.57685 7.53629 7.19957 7.4704 7.92433C7.20357 8.69462 7.23882 9.51525 7.39993 10.3006C7.79199 12.2728 8.36596 23.4124 10.3703 24.4276C12.4472 25.3836 23.8937 5.14804 24.6131 3.27241C25.3229 1.62107 26.0227 -0.13598 23.3796 0.825621V0.830645Z" fill="#FFEBA6"/>
</svg>
