<svg width="35" height="31" viewBox="0 0 35 31" fill="none" xmlns="http://www.w3.org/2000/svg">
<path d="M10.4873 10.3295C10.4873 10.291 10.5185 10.2598 10.557 10.2598C10.5956 10.2598 10.6268 10.291 10.6268 10.3295C10.6268 10.368 10.5956 10.3992 10.557 10.3992C10.5185 10.3992 10.4873 10.368 10.4873 10.3295Z" fill="white"/>
<path d="M14.9576 11.4751L11.1094 10.1171C11.2049 9.89138 11.1682 9.6051 10.9424 9.44362C10.5791 9.21423 10.1167 9.2491 9.70926 9.14266C8.71281 8.92612 7.74573 8.70958 6.73827 8.51873C5.85192 8.42881 4.96374 8.37376 4.08841 8.19025C3.12866 8.10767 0.464118 7.34244 0.768741 9.07476C1.33211 10.341 2.64603 11.0365 3.50118 12.0825C4.44809 13.345 6.03359 13.8166 7.31081 14.6589C7.95309 15.1489 8.60271 15.626 9.34041 15.9618C9.77716 16.1545 10.157 16.4169 10.5461 16.7179C11.1296 17.0133 11.5664 16.5344 11.5205 16.0664H13.1317L14.9576 11.4751Z" fill="#AE97D1"/>
<path d="M34.2665 20.2792C31.3322 18.6974 27.9116 18.3138 24.9259 16.8513C24.5589 16.6806 24.2378 16.3999 23.8432 16.3008C23.6414 16.2641 23.4799 16.4054 23.4175 16.5815L20.3621 14.752L15.9065 19.1617L13.4053 24.6632L14.3962 29.161C14.1191 29.3831 13.9338 29.6492 14.1503 30.0657C14.6917 30.8566 15.5119 29.985 16.0276 29.5996C16.4827 29.2124 16.9488 28.8344 17.4828 28.5628C19.3344 27.6287 21.2998 27.1296 23.2285 26.3478C24.4415 25.8726 25.5774 25.2266 26.7995 24.7788C28.2584 24.287 29.6549 23.6539 31.0092 22.9236C31.8332 22.4942 32.8058 22.1235 33.6903 21.7766C34.3876 21.5711 34.9253 20.8701 34.2647 20.2811L34.2665 20.2792Z" fill="#AE97D1"/>
<path d="M30.3557 0.817734C28.9941 1.29118 27.7738 2.08578 26.436 2.62529C24.4284 3.48227 22.4098 4.3154 20.3802 5.12284C19.1104 5.57427 17.7946 5.90091 16.5522 6.42941C14.6015 7.26621 12.7793 8.36359 10.9277 9.39491C10.88 9.42611 10.8268 9.45914 10.7754 9.494C10.7314 9.46281 10.6818 9.43712 10.6213 9.42978C10.3919 9.39674 10.2359 9.59126 10.2139 9.80046C9.87438 10.7731 9.92209 11.8135 10.1221 12.8118C10.5405 14.9258 10.9314 17.0454 11.2984 19.1686C11.7296 21.2239 12.1994 23.2681 12.5151 25.3473C12.8068 26.8062 13.2803 28.221 13.6033 29.6726C13.4344 30.0598 13.3867 30.4525 13.8804 30.6965C14.2841 30.8801 14.6896 30.5846 14.8199 30.2011C14.9484 29.9442 15.1539 29.5643 15.3631 29.267C16.11 28.1935 17.0165 27.1695 17.7762 26.0813C18.424 25.1142 18.9947 24.0939 19.6572 23.1342C20.4812 21.8735 21.4813 20.71 22.3291 19.464C23.1604 18.2162 23.8742 16.7499 24.6339 15.4378C25.1588 14.4983 25.8469 13.6743 26.5167 12.8357C27.4802 11.5952 28.2674 10.2335 29.1427 8.9343C30.2621 7.40385 31.2366 5.69905 31.9229 3.91535C32.8202 1.82519 33.7103 -0.397091 30.3594 0.817734H30.3557Z" fill="#BFACD9"/>
</svg>
