<svg width="29" height="30" viewBox="0 0 29 30" fill="none" xmlns="http://www.w3.org/2000/svg">
<path d="M16.0779 11.9982L15.5418 9.42551C15.698 9.40275 15.8434 9.28701 15.857 9.10881C15.8622 8.83214 15.6886 8.58906 15.6113 8.32916C15.3981 7.70806 15.1947 7.10314 14.9637 6.48455C14.7174 5.96635 14.4514 5.45878 14.2604 4.91541C13.9856 4.35923 13.5181 2.63628 12.6655 3.38209C12.1561 4.11489 12.2114 5.07066 11.9206 5.89069C11.5412 6.83351 11.8105 7.86417 11.7727 8.84871C11.7171 9.36596 11.6711 9.88297 11.7323 10.4014C11.7719 10.7062 11.7541 11.003 11.7181 11.3177C11.7501 11.7377 12.1597 11.8184 12.4021 11.637L12.9397 12.5245L16.0779 11.9982Z" fill="#AE97D1"/>
<path d="M17.6715 25.5707C17.5637 23.4267 16.6336 21.4146 16.4429 19.2821C16.4145 19.023 16.462 18.7524 16.3849 18.5021C16.3377 18.3786 16.206 18.3368 16.0882 18.3613L16.0764 16.0679L12.1609 15.0851L8.29602 15.5432L6.1493 17.5898C5.93454 17.5112 5.72614 17.4979 5.56895 17.7562C5.31395 18.3183 6.06776 18.4792 6.45208 18.6347C6.8172 18.7562 7.18095 18.8867 7.50872 19.0903C8.64102 19.7984 9.57173 20.7144 10.6459 21.5159C11.3124 22.0254 12.0472 22.4355 12.7016 22.9593C13.4593 23.5987 14.274 24.1567 15.1281 24.6589C15.6396 24.9695 16.1683 25.3815 16.6545 25.7529C17.0003 26.0684 17.5659 26.1307 17.6699 25.5703L17.6715 25.5707Z" fill="#AE97D1"/>
<path d="M27.0853 16.9233C26.3702 16.3313 25.5253 15.9242 24.7818 15.3674C23.6399 14.5476 22.5075 13.7138 21.3855 12.8653C20.7132 12.3165 20.0942 11.7007 19.3886 11.1928C18.2768 10.3976 17.0643 9.76006 15.8784 9.08432C15.8453 9.06845 15.8094 9.05016 15.773 9.03349C15.7755 8.99883 15.7731 8.96296 15.757 8.92716C15.6986 8.78979 15.5395 8.76878 15.4169 8.82646C14.7679 8.96399 14.2107 9.33746 13.7276 9.78073C12.7028 10.7166 11.6658 11.6391 10.6188 12.5497C9.63068 13.473 8.66145 14.4139 7.62158 15.2815C6.91538 15.929 6.29407 16.6618 5.60233 17.3241C5.33272 17.3603 5.1005 17.465 5.13078 17.8184C5.16441 18.102 5.46247 18.2268 5.71719 18.1705C5.90156 18.1556 6.17936 18.142 6.41291 18.1581C7.25342 18.2112 8.1199 18.3689 8.97278 18.4242C9.7216 18.4584 10.474 18.4323 11.2237 18.4769C12.193 18.5101 13.1675 18.6727 14.1367 18.7239C15.1014 18.7654 16.1472 18.6694 17.1234 18.65C17.816 18.6256 18.4995 18.7297 19.1849 18.8188C20.1896 18.9355 21.2023 18.9148 22.21 18.9634C23.4265 19.0693 24.6906 19.0372 25.9021 18.82C27.3527 18.6169 28.8737 18.3656 27.0865 16.9253L27.0853 16.9233Z" fill="#BFACD9"/>
</svg>
