<svg width="14" height="12" viewBox="0 0 14 12" fill="none" xmlns="http://www.w3.org/2000/svg">
<path d="M13.0125 7.14133L12.9125 7.05134H12.8625C12.3025 6.76134 11.7125 6.58132 11.1325 6.41132C10.6125 6.25132 10.1125 6.11132 9.64246 5.88132V5.86133C9.80246 5.59133 10.0025 5.35134 10.2025 5.09134L10.2925 4.97132C10.5325 4.67132 10.7325 4.34135 10.9325 4.03135C11.0325 3.87135 11.1325 3.72132 11.2325 3.57132C11.6725 2.96132 12.0225 2.33132 12.2625 1.72132C12.4925 1.17132 12.7625 0.56132 12.4225 0.19132C12.1225 -0.11868 11.6225 0.0113318 11.2625 0.141332C10.9725 0.241332 10.7025 0.381327 10.4425 0.511327C10.2425 0.611327 10.0525 0.711326 9.84246 0.791326C9.13246 1.09133 8.41247 1.39133 7.71247 1.67133C7.54247 1.73133 7.37247 1.78134 7.20247 1.84134C6.91247 1.93134 6.61246 2.02133 6.33246 2.14133C5.75246 2.39133 5.21246 2.70132 4.68246 3.00132L4.43246 3.14133C4.36246 3.12133 4.30246 3.11133 4.24246 3.11133C4.20246 3.11133 4.16247 3.10134 4.11247 3.09134L4.04247 3.07132C3.71247 3.00132 3.38246 2.93133 3.02246 2.86133L2.83246 2.84134C2.59246 2.82134 2.35246 2.80134 2.07246 2.74134C2.02246 2.74134 1.95247 2.72134 1.88247 2.71134C1.49247 2.65134 0.972465 2.56134 0.672465 2.87134C0.572465 2.98134 0.462465 3.16132 0.512465 3.47132L0.542465 3.55134C0.702465 3.90134 0.972465 4.14132 1.21247 4.35132C1.33247 4.46132 1.46247 4.57134 1.55247 4.68134C1.83247 5.05134 2.22246 5.26132 2.57246 5.44132C2.72246 5.52132 2.86247 5.59133 2.98247 5.67133C3.23247 5.86133 3.48247 6.04134 3.77246 6.18134C3.87246 6.22134 3.97247 6.28132 4.14247 6.41132L4.17246 6.57132C4.20246 6.73132 4.23246 6.89135 4.26246 7.06135L4.35246 7.47132C4.47246 8.05132 4.60246 8.65132 4.69246 9.25132C4.75246 9.54132 4.83247 9.83134 4.90247 10.1213C4.95247 10.3113 5.01247 10.5113 5.05247 10.7013C4.95247 11.0513 5.14247 11.3013 5.37247 11.4113C5.45247 11.4513 5.53246 11.4613 5.61246 11.4613C5.76247 11.4613 5.91246 11.4013 6.02246 11.2913C6.18246 11.2313 6.32246 11.1213 6.43246 11.0313L6.51246 10.9613C6.66246 10.8313 6.80247 10.7213 6.96247 10.6413C7.34247 10.4513 7.74246 10.3113 8.17246 10.1613C8.44246 10.0713 8.71247 9.97133 8.98247 9.86133C9.19247 9.78133 9.39246 9.68134 9.59246 9.59134C9.81246 9.49134 10.0225 9.39135 10.2425 9.31135C10.7525 9.14135 11.2625 8.91132 11.7925 8.63132C12.0525 8.49132 12.3725 8.37132 12.6825 8.25132C12.9625 8.17132 13.1825 7.96134 13.2325 7.71134C13.2825 7.49134 13.2025 7.27133 13.0225 7.11133L13.0125 7.14133ZM5.16246 5.62134C5.12246 5.43134 5.08247 5.24134 5.03246 5.05134C4.95247 4.72134 4.88246 4.41132 4.85246 4.10132C5.12246 3.98132 5.38247 3.85132 5.64247 3.72132C6.10247 3.49132 6.53247 3.28134 6.98247 3.12134C7.16247 3.06134 7.34246 3.00133 7.53246 2.95133C7.81247 2.87133 8.09247 2.78133 8.38247 2.67133C8.62247 2.57133 8.87247 2.47134 9.11246 2.37134C9.62247 2.17134 10.1225 1.97134 10.6025 1.74134C10.7625 1.68134 10.9125 1.60134 11.0625 1.52134C10.9625 1.76134 10.8425 1.99134 10.7125 2.21134C10.6025 2.39134 10.4825 2.56133 10.3725 2.73133C10.2625 2.89133 10.1625 3.04132 10.0525 3.22132C9.76246 3.67132 9.49247 4.10132 9.15247 4.50132C8.81247 4.91132 8.55247 5.38132 8.31247 5.82132C8.16247 6.10132 8.00246 6.39132 7.82246 6.66132C7.69246 6.84132 7.56246 7.02133 7.42246 7.20133C7.25246 7.42133 7.08246 7.64134 6.93246 7.87134C6.80246 8.06134 6.67247 8.27132 6.54247 8.47132C6.34247 8.78132 6.14246 9.11134 5.91246 9.40134C5.88246 9.29134 5.85246 9.18132 5.83246 9.07132C5.73246 8.45132 5.60247 7.84133 5.47247 7.23133C5.40247 6.88133 5.32246 6.54132 5.25246 6.19132L5.14247 5.62134H5.16246ZM7.87247 8.61133C8.02247 8.38133 8.19246 8.15134 8.36246 7.93134C8.52246 7.72134 8.67246 7.52135 8.82246 7.31135C8.92246 7.15135 9.02246 6.99132 9.12247 6.82132C9.20247 6.87132 9.29247 6.92132 9.38247 6.97132C9.87247 7.22132 10.3925 7.39134 10.9025 7.55134C10.9925 7.58134 11.0825 7.61133 11.1725 7.64133C11.0925 7.68133 11.0025 7.73134 10.9225 7.77134L10.7625 7.85132C10.5125 7.98132 10.2425 8.08134 9.96246 8.18134L9.21247 8.50132C8.74247 8.71132 8.29247 8.92132 7.81247 9.07132C7.72247 9.10132 7.63246 9.13132 7.53246 9.16132C7.64247 8.98132 7.75247 8.80134 7.88247 8.62134L7.87247 8.61133ZM2.62247 4.12134C2.62247 4.12134 2.54246 4.04132 2.50246 4.00132H2.60246C2.73246 4.02132 2.86246 4.02134 3.00246 4.05134C3.13246 4.07134 3.25247 4.10134 3.38247 4.12134C3.51247 4.15134 3.64246 4.17132 3.76246 4.19132C3.76246 4.38132 3.78246 4.59134 3.82246 4.80134V4.84134C3.67246 4.72134 3.50246 4.60133 3.32246 4.51133C3.24246 4.46133 3.15246 4.42132 3.07246 4.38132C2.90246 4.29132 2.73247 4.21133 2.61247 4.11133L2.62247 4.12134Z" fill="#8F8F8F"/>
</svg>
