<svg width="35" height="31" viewBox="0 0 35 31" fill="none" xmlns="http://www.w3.org/2000/svg">
<path d="M10.3594 10.3295C10.3594 10.291 10.3906 10.2598 10.4291 10.2598C10.4676 10.2598 10.4988 10.291 10.4988 10.3295C10.4988 10.368 10.4676 10.3992 10.4291 10.3992C10.3906 10.3992 10.3594 10.368 10.3594 10.3295Z" fill="white"/>
<path d="M14.8297 11.4751L10.9815 10.1171C11.0769 9.89138 11.0402 9.6051 10.8145 9.44362C10.4512 9.21423 9.98872 9.2491 9.58133 9.14266C8.58488 8.92612 7.61779 8.70958 6.61033 8.51873C5.72399 8.42881 4.8358 8.37376 3.96047 8.19025C3.00072 8.10767 0.336188 7.34244 0.640812 9.07476C1.20418 10.341 2.5181 11.0365 3.37325 12.0825C4.32016 13.345 5.90566 13.8166 7.18288 14.6589C7.82515 15.1489 8.47478 15.626 9.21249 15.9618C9.64924 16.1545 10.0291 16.4169 10.4181 16.7179C11.0017 17.0133 11.4384 16.5344 11.3926 16.0664H13.0038L14.8297 11.4751Z" fill="#EDD48E"/>
<path d="M34.1381 20.2792C31.2038 18.6974 27.7832 18.3138 24.7975 16.8513C24.4305 16.6806 24.1093 16.3999 23.7148 16.3008C23.5129 16.2641 23.3515 16.4054 23.2891 16.5815L20.2337 14.752L15.7781 19.1617L13.2769 24.6632L14.2678 29.161C13.9907 29.3831 13.8054 29.6492 14.0219 30.0657C14.5632 30.8566 15.3835 29.985 15.8992 29.5996C16.3543 29.2124 16.8204 28.8344 17.3544 28.5628C19.206 27.6287 21.1714 27.1296 23.1001 26.3478C24.313 25.8726 25.449 25.2266 26.6711 24.7788C28.13 24.287 29.5265 23.6539 30.8808 22.9236C31.7048 22.4942 32.6773 22.1235 33.5619 21.7766C34.2592 21.5711 34.7969 20.8701 34.1362 20.2811L34.1381 20.2792Z" fill="#EDD48E"/>
<path d="M30.2283 0.817734C28.8667 1.29118 27.6463 2.08578 26.3086 2.62529C24.301 3.48227 22.2824 4.3154 20.2528 5.12284C18.9829 5.57427 17.6672 5.90091 16.4248 6.42941C14.4741 7.26621 12.6519 8.36359 10.8003 9.39491C10.7526 9.42611 10.6993 9.45914 10.648 9.494C10.6039 9.46281 10.5544 9.43712 10.4938 9.42978C10.2644 9.39674 10.1084 9.59126 10.0864 9.80046C9.74693 10.7731 9.79465 11.8135 9.99467 12.8118C10.4131 14.9258 10.8039 17.0454 11.171 19.1686C11.6022 21.2239 12.072 23.2681 12.3876 25.3473C12.6794 26.8062 13.1529 28.221 13.4758 29.6726C13.307 30.0598 13.2593 30.4525 13.7529 30.6965C14.1566 30.8801 14.5622 30.5846 14.6925 30.2011C14.8209 29.9442 15.0265 29.5643 15.2357 29.267C15.9825 28.1935 16.8891 27.1695 17.6488 26.0813C18.2966 25.1142 18.8673 24.0939 19.5298 23.1342C20.3537 21.8735 21.3538 20.71 22.2016 19.464C23.0329 18.2162 23.7468 16.7499 24.5065 15.4378C25.0313 14.4983 25.7195 13.6743 26.3893 12.8357C27.3527 11.5952 28.14 10.2335 29.0153 8.9343C30.1347 7.40385 31.1091 5.69905 31.7955 3.91535C32.6928 1.82519 33.5828 -0.397091 30.232 0.817734H30.2283Z" fill="#FFEBA6"/>
</svg>
