<svg width="22" height="21" viewBox="0 0 22 21" fill="none" xmlns="http://www.w3.org/2000/svg">
<path d="M9.33577 8.05936L6.85761 7.18485C6.91906 7.0395 6.89543 6.85514 6.75008 6.75115C6.51609 6.60343 6.21828 6.62588 5.95593 6.55734C5.31423 6.41789 4.69144 6.27844 4.04266 6.15554C3.47187 6.09763 2.89989 6.06218 2.33619 5.944C1.71813 5.89082 0.00221691 5.39803 0.198389 6.51361C0.56119 7.32903 1.40733 7.77691 1.95803 8.45052C2.56782 9.26357 3.58886 9.56728 4.41137 10.1097C4.82498 10.4252 5.24333 10.7325 5.7184 10.9488C5.99966 11.0728 6.24428 11.2418 6.49481 11.4356C6.87061 11.6259 7.15187 11.3175 7.12233 11.0161H8.15992L9.33577 8.05936Z" fill="#EDD48E"/>
<path d="M21.77 13.7284C19.8803 12.7097 17.6775 12.4627 15.7548 11.5209C15.5184 11.411 15.3116 11.2302 15.0576 11.1664C14.9276 11.1427 14.8236 11.2337 14.7834 11.3472L12.8158 10.1689L9.94643 13.0087L8.33569 16.5516L8.97385 19.4481C8.7954 19.5911 8.67604 19.7625 8.81549 20.0307C9.16411 20.5401 9.69235 19.9787 10.0244 19.7306C10.3175 19.4812 10.6177 19.2378 10.9616 19.0629C12.154 18.4614 13.4196 18.1399 14.6617 17.6365C15.4428 17.3304 16.1743 16.9144 16.9614 16.6261C17.9009 16.3094 18.8002 15.9017 19.6723 15.4313C20.2029 15.1548 20.8293 14.9161 21.3989 14.6927C21.848 14.5604 22.1942 14.1089 21.7688 13.7296L21.77 13.7284Z" fill="#EDD48E"/>
<path d="M19.2529 1.19634C18.376 1.50124 17.5902 2.01294 16.7287 2.36038C15.4358 2.91226 14.1359 3.44878 12.8288 3.96876C12.0111 4.25947 11.1637 4.46982 10.3637 4.81017C9.10747 5.34905 7.93398 6.05575 6.74158 6.7199C6.71086 6.73999 6.67659 6.76126 6.6435 6.78371C6.61513 6.76362 6.58323 6.74708 6.54423 6.74235C6.39651 6.72108 6.29606 6.84635 6.28188 6.98107C6.06325 7.6074 6.09398 8.27746 6.22279 8.92034C6.49223 10.2817 6.74395 11.6467 6.9803 13.014C7.25802 14.3375 7.56055 15.654 7.76381 16.993C7.95171 17.9324 8.2566 18.8436 8.4646 19.7784C8.35587 20.0277 8.32515 20.2806 8.64304 20.4378C8.90303 20.556 9.1642 20.3657 9.2481 20.1187C9.33083 19.9533 9.46318 19.7086 9.5979 19.5172C10.0789 18.8259 10.6627 18.1664 11.1519 17.4657C11.5691 16.8429 11.9366 16.1858 12.3632 15.5677C12.8938 14.7559 13.5379 14.0066 14.0839 13.2042C14.6192 12.4006 15.0789 11.4564 15.5682 10.6114C15.9061 10.0064 16.3493 9.47577 16.7807 8.9357C17.4011 8.13683 17.9081 7.25996 18.4718 6.42328C19.1926 5.43769 19.8201 4.33983 20.2621 3.19116C20.84 1.84513 21.4132 0.414019 19.2553 1.19634H19.2529Z" fill="#FFEBA6"/>
</svg>
