<svg width="27" height="24" viewBox="0 0 27 24" fill="none" xmlns="http://www.w3.org/2000/svg">
<path d="M4.73097 6.4361C5.52643 6.58714 6.29169 6.75832 7.07708 6.9295C11.1776 7.9709 14.5972 10.967 18.4599 12.6678C18.4599 12.6678 24.1543 14.4764 26.4702 15.725H26.4601C26.9837 16.1932 26.5558 16.747 26.007 16.9081C23.2092 17.9951 20.5434 19.4281 17.7453 20.5179C16.8779 20.8712 10.5812 23.4581 10.5812 23.4581L8.39086 13.5069C8.39086 13.5069 5.99766 11.9097 5.1841 11.2894C3.43254 10.1391 0.923106 8.93587 0.0135985 6.87915C-0.263362 5.3097 3.7713 6.33945 4.73097 6.4361Z" fill="#C6C685"/>
<path d="M23.3796 0.359942C19.7344 1.62042 16.0273 3.27826 12.4747 4.79036C11.7371 5.10615 7.53629 6.72887 7.4704 7.45363C7.20357 8.22391 7.23882 9.04455 7.39993 9.82994C7.79199 11.8021 8.36596 22.9417 10.3703 23.9569C12.4472 24.9129 23.8937 4.67734 24.6131 2.8017C25.3229 1.15037 26.0227 -0.606683 23.3796 0.354917V0.359942Z" fill="#D8D9A7"/>
</svg>
