<svg width="124" height="48" viewBox="0 0 124 48" fill="none" xmlns="http://www.w3.org/2000/svg">
<path d="M46.96 26.83C50.26 28.33 53.31 31.4 56.96 32.83C60.16 34.08 64.06 34.49 67.6 34.08C71.8 33.58 78.4 28.8399 79.46 24.4999C80.15 21.6699 80.7099 17.4599 77.9299 15.5299C76.9699 14.8699 73.67 14.91 72.8 15.6C68.63 18.94 69.97 23.3799 75.09 25.2199C79.7 26.8799 85.1799 26.82 90.0099 26.6C92.7899 26.48 96.01 25.94 98.59 24.88" stroke="#8F8F8F" stroke-linecap="round"/>
<path d="M38.2099 22.0199L34.7099 21.9699C34.7299 21.7599 34.6199 21.5399 34.3899 21.4699C34.0299 21.3799 33.6699 21.5399 33.3099 21.5599C32.4399 21.6599 31.5899 21.7399 30.7299 21.8599C29.9799 22.0299 29.2499 22.2299 28.4899 22.3199C27.6899 22.5099 25.3099 22.6199 26.0299 23.9399C26.8299 24.8199 28.0899 25.0199 29.0699 25.6399C30.1799 26.4099 31.5999 26.3599 32.8699 26.6999C33.5299 26.9199 34.1799 27.1299 34.8799 27.2099C35.2899 27.2499 35.6699 27.3599 36.0699 27.4999C36.6199 27.5799 36.8499 27.0699 36.6799 26.6999L37.9899 26.2599L38.2199 22.0299L38.2099 22.0199Z" fill="#FC5EB5"/>
<path d="M56.2999 23.91C53.4799 23.42 50.5999 24.04 47.7699 23.67C47.4199 23.63 47.0899 23.49 46.7399 23.52C46.5699 23.54 46.4699 23.7 46.4699 23.86L43.4899 23.21L41.0699 28.0099L40.5399 33.16L42.5699 36.55C42.4099 36.81 42.3299 37.07 42.6199 37.35C43.2799 37.85 43.7099 36.91 44.0199 36.46C44.2899 36.02 44.5599 35.59 44.9199 35.22C46.1699 33.96 47.6299 33.01 48.9899 31.85C49.8499 31.13 50.5899 30.3 51.4699 29.6C52.5199 28.8 53.4799 27.91 54.3899 26.94C54.9399 26.37 55.6299 25.8 56.2599 25.28C56.7699 24.92 57.0199 24.21 56.3199 23.91H56.2999Z" fill="#FC5EB5"/>
<path d="M47.82 9.1599C46.84 9.9199 46.0699 10.8899 45.1299 11.6999C43.7299 12.9399 42.3199 14.1699 40.8899 15.3799C39.9799 16.0899 38.9999 16.7199 38.1299 17.4899C36.7699 18.6999 35.5899 20.0899 34.3699 21.4299C34.3399 21.4699 34.3099 21.5099 34.2699 21.5499C34.2299 21.5399 34.1799 21.5299 34.1299 21.5399C33.9399 21.5799 33.8599 21.7799 33.8999 21.9499C33.8899 22.8299 34.2099 23.6699 34.6499 24.4199C35.5699 26.0299 36.4599 27.6399 37.3399 29.2699C38.2499 30.8199 39.1899 32.3599 40.0099 33.9599C40.6399 35.0699 41.42 36.0899 42.07 37.1799C42.04 37.5399 42.11 37.8699 42.57 37.9399C42.95 37.9799 43.1999 37.6299 43.1999 37.2799C43.2299 37.0399 43.2999 36.6699 43.3899 36.3699C43.7099 35.2899 44.1599 34.2099 44.4799 33.1199C44.7399 32.1599 44.93 31.1699 45.21 30.2099C45.54 28.9599 46.0299 27.7399 46.3799 26.4999C46.7199 25.2599 46.8999 23.8699 47.1599 22.5999C47.3299 21.6899 47.6699 20.8399 47.9799 19.9699C48.4199 18.6999 48.6899 17.3799 49.0499 16.0799C49.5399 14.5299 49.8699 12.8799 49.9399 11.2399C50.0999 9.2999 50.22 7.24989 47.82 9.14989V9.1599Z" fill="#FF76B4"/>
</svg>
