<svg width="162" height="162" viewBox="0 0 162 162" fill="none" xmlns="http://www.w3.org/2000/svg">
<path d="M72.0948 66.9644L59.3426 62.3822C59.6517 61.6228 59.523 60.654 58.8016 60.1041C57.5908 59.3186 56.0708 59.4495 54.7055 59.0829C51.4079 58.3498 48.1876 57.6166 44.8643 56.9882C41.9275 56.674 38.9906 56.4907 36.0795 55.8885C32.9108 55.6004 24.0744 53.0344 25.0791 58.8735C26.934 63.1415 31.2877 65.4719 34.1215 69.0068C37.2645 73.2487 42.52 74.8459 46.745 77.6738C48.8833 79.3234 51.0215 80.9207 53.4689 82.0728C54.9115 82.7274 56.1738 83.6177 57.4619 84.6127C59.3941 85.6077 60.8368 83.9843 60.6822 82.4132H66.0149L72.069 66.9382L72.0948 66.9644Z" fill="#FC5EB5"/>
<path d="M136.056 96.6073C126.344 91.2657 115.008 89.9827 105.116 85.06C103.905 84.484 102.823 83.5413 101.535 83.2009C100.865 83.07 100.324 83.5675 100.118 84.1436L89.9935 77.9902L75.2319 92.8368L66.9365 111.375L70.2083 126.51C69.2808 127.243 68.6625 128.159 69.3839 129.547C71.1872 132.218 73.8922 129.285 75.5925 127.976C77.1125 126.667 78.6324 125.41 80.41 124.494C86.5414 121.352 93.0592 119.676 99.4482 117.031C103.467 115.434 107.228 113.261 111.273 111.742C116.116 110.092 120.728 107.945 125.21 105.484C127.941 104.044 131.161 102.787 134.098 101.635C136.417 100.954 138.194 98.5973 136.004 96.6073H136.056Z" fill="#FC5EB5"/>
<path d="M123.104 31.0933C118.595 32.6906 114.551 35.3614 110.119 37.1681C103.473 40.0484 96.7748 42.8501 90.0509 45.5733C85.8517 47.092 81.4721 48.1917 77.376 49.9722C70.9097 52.8001 64.8813 56.4921 58.75 59.9485C58.5954 60.0532 58.4151 60.158 58.2348 60.2889C58.0802 60.1841 57.9256 60.1056 57.7195 60.0794C56.9724 59.9747 56.4314 60.6293 56.3799 61.3362C55.2464 64.6093 55.401 68.118 56.0708 71.4696C57.4619 78.5917 58.75 85.7139 59.9608 92.8622C61.4035 99.7749 62.9492 106.661 63.9797 113.679C64.9329 118.601 66.5044 123.367 67.5864 128.237C67.0196 129.546 66.865 130.856 68.5138 131.694C69.8534 132.322 71.193 131.327 71.631 130.018C72.0689 129.154 72.7388 127.871 73.4344 126.876C75.9075 123.262 78.9217 119.806 81.4206 116.14C83.5589 112.893 85.4652 109.437 87.655 106.216C90.3857 101.974 93.7091 98.0467 96.5171 93.8572C99.2737 89.6415 101.644 84.7189 104.143 80.2937C105.869 77.1254 108.162 74.3499 110.377 71.5219C113.572 67.3325 116.174 62.7502 119.085 58.3774C122.794 53.2191 126.015 47.4848 128.307 41.4885C131.27 34.4449 134.233 26.9562 123.129 31.0671L123.104 31.0933Z" fill="#FF76B4"/>
</svg>
