<svg width="38" height="76" viewBox="0 0 38 76" fill="none" xmlns="http://www.w3.org/2000/svg">
<path d="M28.7701 41.0265V41.0065C28.6501 40.7965 28.53 40.5865 28.4 40.3865L28.28 40.1865C28.23 40.1065 28.1801 40.0265 28.1301 39.9465C27.9601 39.6765 27.7801 39.3765 27.4901 39.1365C27.3001 38.9865 27.1 38.8765 26.9 38.7665L26.76 38.6865C26.44 38.5065 26.09 38.3365 25.67 38.1565C25.21 37.9465 24.66 37.7365 24.07 37.7965C23.68 37.8065 23.1101 37.8665 22.6301 38.1765C22.4501 38.2865 22.29 38.3965 22.12 38.5165L21.9901 38.6065C21.6601 38.8265 21.2901 39.0765 21.0201 39.4365C20.9401 39.5365 20.86 39.6465 20.78 39.7465C20.69 39.8665 20.6 39.9965 20.5 40.1165L20.42 40.2065C20.31 40.3365 20.2001 40.4765 20.1001 40.6265C19.9601 40.8665 19.84 41.0965 19.75 41.3165C19.4 40.8665 19.02 40.3865 18.57 40.0065C18.31 39.7765 18.0301 39.5665 17.7401 39.3665L17.64 39.2865C17.47 39.1665 17.3001 39.0465 17.1001 38.9565C16.5801 38.7265 15.98 38.5865 15.31 38.5465C14.52 38.4865 13.72 38.6365 12.98 38.9965C12.6 39.1965 12.23 39.4665 11.89 39.7865C11.35 40.2665 10.96 40.7065 10.7 41.1665C10.4 41.6265 10.15 42.1665 9.92005 42.8065C9.59005 43.6865 9.39004 44.5765 9.32004 45.4565C9.28004 46.0065 9.28004 46.4965 9.32004 46.9665C9.40004 47.5465 9.56004 48.1265 9.81004 48.7465C10.03 49.2765 10.26 49.8265 10.61 50.3065C11.03 50.9365 11.55 51.4965 12.04 52.0365L12.14 52.1465C12.4 52.4165 12.68 52.6665 12.97 52.9065C13.12 53.0365 13.26 53.1565 13.42 53.2965C13.57 53.4265 13.7201 53.5565 13.8801 53.6765C14.1001 53.8565 14.33 54.0065 14.57 54.1665C14.78 54.3165 15 54.4565 15.2 54.6165L15.31 54.7065C15.54 54.8965 15.7801 55.0865 16.0501 55.2365C16.1801 55.3065 16.32 55.3765 16.45 55.4465C16.61 55.5265 16.7601 55.5965 16.9101 55.6965C17.0701 55.7965 17.23 55.9065 17.39 56.0165C17.62 56.1765 17.8601 56.3365 18.1001 56.4765C18.3501 56.6365 18.62 56.7665 18.89 56.8965C19.05 56.9765 19.2201 57.0565 19.3801 57.1465C19.4601 57.2265 19.55 57.2765 19.65 57.2865C19.69 57.2965 19.74 57.3065 19.78 57.3065C19.88 57.3065 19.98 57.2765 20.07 57.2165C20.16 57.1565 20.22 57.0665 20.26 56.9665C20.3 56.9365 20.34 56.8965 20.39 56.8665L20.62 56.6865C20.83 56.5265 21.0301 56.3765 21.2101 56.1865C21.2901 56.1065 21.36 56.0265 21.43 55.9365C21.49 55.8665 21.5601 55.7965 21.6301 55.7165C21.7301 55.6065 21.8701 55.5065 22.0201 55.4065C22.1501 55.3165 22.28 55.2265 22.4 55.1265C22.57 54.9765 22.72 54.8065 22.86 54.6365C22.94 54.5365 23.02 54.4365 23.11 54.3565C23.21 54.2665 23.3101 54.1765 23.4101 54.0965C23.5801 53.9565 23.75 53.8165 23.9 53.6365C24.01 53.5165 24.1101 53.3865 24.2101 53.2665C24.2901 53.1665 24.3801 53.0565 24.4601 52.9665C24.5301 52.8865 24.6 52.8165 24.68 52.7365C24.78 52.6365 24.88 52.5265 24.97 52.4265C25.1 52.2665 25.22 52.1065 25.33 51.9365L25.68 51.4665C25.93 51.1465 26.17 50.8265 26.39 50.4865C26.45 50.3965 26.52 50.3065 26.58 50.2165C26.69 50.0565 26.8001 49.9065 26.9101 49.7365C26.9901 49.6065 27.06 49.4765 27.12 49.3465C27.19 49.2165 27.26 49.0765 27.34 48.9465L27.4601 48.7565C27.5601 48.5965 27.66 48.4465 27.75 48.2765C27.91 47.9265 28.06 47.5765 28.2 47.2165L28.29 47.0065C28.37 46.7765 28.45 46.5565 28.54 46.3365C28.65 46.0565 28.7501 45.7665 28.8501 45.4665C29.0201 44.8965 29.1301 44.2665 29.2101 43.4765C29.2801 42.6465 29.13 41.7965 28.79 41.0065L28.7701 41.0265Z" fill="#DA6A98"/>
<path d="M37.23 68.147V68.127C37.19 67.767 37.17 67.417 37.15 67.037C37.13 66.817 37.15 66.597 37.15 66.297C37.15 66.177 37.15 66.067 37.15 65.957C37.15 65.787 37.15 65.627 37.16 65.447C37.19 65.157 37.22 64.837 37.19 64.547C37.19 64.497 37.19 64.447 37.19 64.397C37.19 64.307 37.2 64.217 37.19 64.107C37.17 63.947 37.12 63.797 37.05 63.627L37.08 62.827C37.08 62.447 37.08 62.067 37.09 61.687C37.09 61.057 37.11 60.427 37.1 59.797C37.1 59.047 37.07 58.287 37.03 57.557C36.99 56.747 36.95 55.907 36.97 55.077C36.96 54.317 36.97 53.547 37 52.787C37.02 52.067 37.04 51.347 37.03 50.627L37.01 49.787C36.99 49.207 36.98 48.617 36.98 48.027C36.98 47.597 36.98 47.167 36.99 46.727C36.99 46.077 37.01 45.437 36.99 44.797C36.99 44.367 36.98 43.947 36.96 43.517L36.94 42.887C36.94 42.477 36.94 42.067 36.94 41.657V40.257C36.95 39.307 36.95 38.327 37.01 37.367C37.02 36.817 36.99 36.257 36.96 35.717C36.93 35.177 36.89 34.627 36.91 34.077C36.92 33.357 36.94 32.637 36.98 31.897V31.597C36.98 30.897 36.99 30.167 36.92 29.437C36.9 29.267 36.88 29.097 36.87 28.927C36.85 28.707 36.83 28.487 36.8 28.287L36.78 28.117C36.75 27.787 36.72 27.447 36.63 27.137C36.61 27.057 36.6 26.977 36.59 26.887C36.57 26.767 36.55 26.657 36.53 26.537C36.51 26.447 36.48 26.347 36.46 26.257C36.44 26.177 36.41 26.087 36.39 26.007C36.29 25.537 36.17 25.117 36.01 24.767L35.95 24.597C35.89 24.427 35.83 24.257 35.73 24.077C35.61 23.897 35.53 23.697 35.44 23.497L35.4 23.397C35.29 23.177 35.15 22.977 35.02 22.777C34.93 22.637 34.83 22.497 34.74 22.347C34.62 22.137 34.46 21.947 34.3 21.797L34.11 21.597C33.98 21.457 33.85 21.317 33.73 21.207C33.56 21.017 33.36 20.787 33.14 20.627C33.06 20.547 32.98 20.467 32.89 20.387C32.73 20.227 32.57 20.057 32.4 19.927C32.14 19.717 31.85 19.517 31.55 19.337L31.44 19.247C31.25 19.107 31.07 18.967 30.85 18.857C30.58 18.717 30.3 18.597 30.01 18.487C29.8 18.397 29.58 18.307 29.39 18.217C29.21 18.117 29.03 18.067 28.85 18.007C28.73 17.977 28.62 17.937 28.49 17.877C28.36 17.827 28.22 17.787 28.09 17.747L28.03 17.727C27.93 17.687 27.83 17.657 27.74 17.637C27.81 17.507 27.84 17.367 27.82 17.207V17.167H27.94C28 17.167 28.06 17.167 28.14 17.167C28.32 17.147 28.46 17.027 28.53 16.877C28.92 16.487 28.96 15.647 28.97 14.867V14.707L29 14.617C29.04 14.497 29.05 14.367 29.05 14.247C29.05 13.947 29.05 13.657 29.04 13.357C29.06 13.297 29.06 13.237 29.06 13.187C29.06 12.967 28.94 12.807 28.85 12.677L28.82 12.587C28.78 12.487 28.74 12.357 28.63 12.237C28.41 12.007 28.13 12.057 27.98 12.087C27.95 12.087 27.92 12.097 27.89 12.097H27.74C27.52 12.107 27.3 12.117 27.11 12.137C26.78 12.137 26.45 12.147 26.12 12.147H25.43C24.97 12.147 24.62 12.167 24.31 12.207C24.14 12.207 23.96 12.207 23.79 12.207H23.65C23.41 12.197 23.16 12.207 22.92 12.207C22.69 12.207 22.46 12.207 22.23 12.207H21.89C21.61 12.187 21.34 12.177 21.07 12.187C20.88 12.187 20.69 12.187 20.5 12.187C20.32 12.187 20.13 12.167 19.96 12.177C19.48 12.177 19 12.207 18.54 12.247L18.11 12.277C17.63 12.297 17.14 12.287 16.66 12.277C16.2 12.277 15.74 12.277 15.27 12.277C14.85 12.307 14.43 12.307 14.01 12.307H13.64C13.47 12.307 13.29 12.317 13.12 12.327C12.78 12.347 12.45 12.367 12.14 12.337C11.9 12.317 11.66 12.307 11.43 12.307C11.25 12.307 11.07 12.307 10.88 12.287C10.76 12.287 10.64 12.267 10.53 12.247C10.29 12.217 10.03 12.167 9.75999 12.217L9.61 12.237C9.55 12.237 9.49 12.257 9.47 12.257C9.23 12.257 8.97 12.257 8.77 12.447C8.58 12.627 8.56999 12.897 8.56999 13.097V13.147H8.55L8.58 14.417L8.56 14.627C8.54 14.877 8.51999 15.137 8.53999 15.387V15.727C8.55999 16.007 8.56 16.287 8.59 16.587C8.59 16.617 8.59 16.657 8.59 16.697C8.59 16.897 8.59 17.177 8.75 17.297C8.79 17.357 8.84 17.417 8.92 17.467C9.08 17.547 9.23001 17.547 9.35001 17.547C9.37001 17.547 9.39 17.547 9.42 17.547C9.43 17.587 9.45 17.637 9.47 17.677C9.44 17.697 9.42 17.707 9.39 17.727C9.04 17.787 8.63999 17.857 8.25999 18.007C8.01999 18.107 7.79999 18.217 7.56999 18.327C7.33999 18.447 7.1 18.557 6.83 18.677C6.65 18.767 6.46 18.847 6.27 18.927C6.06 19.017 5.85 19.107 5.63 19.217C5.21 19.457 4.86 19.777 4.53 20.087C4.4 20.207 4.26 20.337 4.11 20.457L4.02 20.537C3.83 20.707 3.63001 20.887 3.46001 21.117C3.25001 21.417 3.01001 21.707 2.71001 22.047C2.48001 22.317 2.34001 22.607 2.21001 22.897C2.12001 23.087 2.03 23.277 1.91 23.457C1.71 23.767 1.55 24.087 1.39 24.407L1.28999 24.607C1.17999 24.837 1.03 25.137 0.940002 25.467C0.800002 25.957 0.689996 26.457 0.589996 26.947C0.549996 27.157 0.500007 27.367 0.460007 27.577C0.400007 27.837 0.329993 28.177 0.289993 28.547C0.269993 28.787 0.220004 29.017 0.160004 29.307C0.100004 29.627 0.0900018 29.947 0.0800018 30.267V30.507C0.0400018 30.897 0.0400031 31.277 0.0500031 31.647C0.0500031 31.827 0.0500031 31.997 0.0500031 32.177C0.0500031 32.237 0.0500018 32.307 0.0800018 32.357C0.0300018 32.617 0.0399933 32.877 0.0399933 33.137V34.037C0.0699933 34.797 0.0799921 35.567 0.0699921 36.337C0.0699921 36.877 0.0400043 37.417 0.0200043 37.957C0.0100043 38.577 0 39.197 0 39.817V40.797C0 41.347 0.0199933 41.897 0.0399933 42.457C0.0499933 42.837 0.0700018 43.227 0.0800018 43.607C0.100002 44.817 0.109995 46.027 0.119995 47.237L0.149994 48.347C0.189994 49.467 0.219996 50.577 0.229996 51.697V53.207C0.229996 56.517 0.219999 59.937 0.279999 63.297C0.279999 64.267 0.279999 65.237 0.279999 66.207V67.947C0.249999 69.437 0.360006 70.627 0.600006 71.727C0.710006 72.127 0.869996 72.477 1.09 72.737C1.18 72.847 1.26 72.967 1.34 73.087C1.54 73.377 1.75 73.677 2.03 73.927C2.73 74.577 3.37 74.637 4.12 74.687C4.52 74.797 4.95 74.867 5.5 74.917C6.48 75.037 7.46 75.037 8.36 75.017C8.84 75.017 9.32 75.017 9.81 75.017H10.53H11.21C11.53 75.017 11.85 75.017 12.17 75.017C12.64 75.017 13.11 74.997 13.59 74.967C13.87 74.947 14.15 74.937 14.42 74.927C14.96 74.907 15.51 74.917 16.05 74.917C16.34 74.917 16.62 74.917 16.9 74.917C17.28 74.917 17.67 74.907 18.06 74.897H18.48C19.9 74.897 21.35 74.947 22.75 74.987H22.85C23.51 75.007 24.16 74.987 24.82 74.977C25.16 74.977 25.5 74.957 25.84 74.957C26.24 74.957 26.64 74.967 27.03 74.987L27.82 75.007C28.2 75.007 28.57 75.007 28.95 75.007C29.19 75.007 29.44 75.007 29.68 75.007C30.82 74.997 31.96 74.997 33.08 74.767C33.18 74.737 33.28 74.717 33.38 74.697C33.58 74.647 33.79 74.597 34.02 74.517C34.14 74.457 34.26 74.417 34.38 74.377C34.54 74.317 34.69 74.267 34.87 74.167C35.03 74.067 35.17 73.937 35.31 73.807C35.39 73.737 35.47 73.657 35.56 73.587C35.87 73.337 36.07 73.097 36.2 72.827L36.31 72.637C36.4 72.477 36.49 72.317 36.56 72.157L36.65 71.947C36.69 71.847 36.74 71.747 36.78 71.667C36.88 71.497 37 71.297 37.04 71.057C37.07 70.897 37.08 70.747 37.08 70.587C37.08 70.497 37.08 70.417 37.09 70.347C37.18 69.867 37.21 69.427 37.2 69.017V68.767C37.2 68.557 37.21 68.347 37.2 68.137L37.23 68.147ZM9.56 14.177C9.56 13.957 9.56 13.737 9.56 13.537C9.56 13.447 9.56 13.357 9.56 13.267C9.64 13.267 9.72 13.247 9.8 13.237L10 13.207C10.11 13.207 10.24 13.207 10.37 13.237C10.44 13.247 10.51 13.257 10.58 13.267C10.87 13.297 11.17 13.307 11.46 13.307C11.61 13.307 11.77 13.307 11.91 13.307C12.21 13.337 12.54 13.347 12.87 13.327C13.37 13.287 13.86 13.287 14.36 13.287H14.84C15.2 13.257 15.55 13.257 15.92 13.257C16.27 13.257 16.63 13.257 16.99 13.257C17.31 13.257 17.63 13.257 17.96 13.257C18.24 13.247 18.52 13.217 18.81 13.197C18.99 13.187 19.17 13.167 19.35 13.157C19.8 13.137 20.25 13.147 20.77 13.157C21.1 13.157 21.44 13.157 21.78 13.167C22.18 13.167 22.58 13.187 22.98 13.167C23.21 13.157 23.44 13.167 23.68 13.167C24.05 13.167 24.43 13.187 24.78 13.137C25.2 13.117 25.62 13.117 26.04 13.117C26.42 13.117 26.8 13.117 27.21 13.097C27.35 13.077 27.5 13.077 27.64 13.077C27.76 13.077 27.88 13.077 28 13.057C28.02 13.097 28.04 13.137 28.06 13.177L28.09 13.237C28.12 13.397 28.12 13.567 28.12 13.727H28.02V14.167C28.02 14.167 28.03 14.177 28.03 14.187V14.587C28.03 14.887 28.03 15.187 28.01 15.457V15.547C27.98 15.777 27.95 15.997 27.89 16.157H27.87C27.73 16.157 27.6 16.147 27.42 16.157C27.29 16.117 27.18 16.117 27.09 16.127H26.99C26.69 16.127 26.41 16.127 26.17 16.177C25.2 16.217 24.23 16.227 23.24 16.247C22.64 16.297 22.03 16.317 21.43 16.327L20.9 16.347C20.42 16.347 19.94 16.347 19.45 16.347C18.81 16.347 18.18 16.347 17.53 16.347C17.33 16.347 17.14 16.357 16.94 16.367C16.71 16.367 16.47 16.377 16.23 16.397C15.88 16.427 15.54 16.427 15.19 16.437H14.9C14.62 16.467 14.34 16.477 14.06 16.477C13.71 16.487 13.36 16.497 13.01 16.537C12.76 16.557 12.51 16.577 12.26 16.597L12.02 16.617C11.57 16.637 11.12 16.617 10.65 16.607H10.32C10.32 16.607 10.25 16.607 10.25 16.617H10.16C9.96 16.597 9.76 16.587 9.56 16.597C9.56 16.497 9.56 16.397 9.55 16.297V16.047C9.54 15.887 9.53 15.727 9.53 15.577C9.53 15.357 9.52 15.127 9.53 14.917L9.56 14.527V14.157V14.177ZM36.21 69.767C36.21 69.837 36.19 69.907 36.18 69.977C36.16 70.117 36.13 70.267 36.12 70.457C36.12 70.627 36.12 70.777 36.08 70.917C36.06 70.987 36.02 71.067 35.96 71.157C35.92 71.237 35.87 71.307 35.84 71.387L35.73 71.647C35.57 71.997 35.4 72.297 35.24 72.557C35.15 72.677 35.03 72.777 34.9 72.887L34.74 73.027C34.68 73.077 34.63 73.127 34.57 73.177C34.51 73.237 34.44 73.297 34.41 73.327C34.3 73.387 34.18 73.427 34.06 73.467C33.92 73.517 33.79 73.567 33.7 73.617C32.49 74.027 31.11 74.037 30.01 74.057C29.68 74.057 29.34 74.057 29.01 74.057C28.69 74.057 28.37 74.057 28.06 74.057L27.35 74.037C26.45 74.017 25.51 73.987 24.59 74.037C23.36 74.077 22.11 74.037 20.9 73.977H20.7C20.39 73.977 20.07 73.957 19.76 73.957C19.18 73.947 18.6 73.937 18.02 73.957C17.4 73.977 16.78 73.977 16.16 73.977C15.57 73.977 14.98 73.977 14.4 73.987C14.11 73.987 13.82 74.017 13.53 74.027C13.2 74.047 12.86 74.067 12.53 74.067C12.13 74.067 11.72 74.067 11.32 74.067C11.01 74.067 10.71 74.067 10.4 74.067H8.86C8.25 74.067 7.63 74.067 7.03 74.067C6.31 74.047 5.58 73.967 4.87 73.887L4.64999 73.867C4.56999 73.797 4.47 73.757 4.38 73.757L4.08 73.727C3.76 73.697 3.47 73.667 3.22 73.557C2.76 73.337 2.43 72.897 2.19 72.537C2.11 72.417 2.01999 72.297 1.92999 72.177L1.87 72.097C1.74 71.887 1.64 71.637 1.59 71.377C1.44 70.577 1.36 69.807 1.34 69.097C1.34 68.177 1.34 67.257 1.34 66.327C1.34 65.357 1.34 64.387 1.34 63.417C1.28 59.887 1.27999 56.467 1.28999 52.377C1.28999 50.987 1.25001 49.567 1.21001 48.207L1.16 44.227C1.16 43.687 1.13 43.147 1.11 42.597C1.08 41.687 1.03999 40.747 1.06999 39.747C1.06999 38.847 1.09 37.937 1.13 37.027C1.15 36.127 1.15 35.177 1.11 34.137C1.11 33.897 1.1 33.657 1.09 33.417C1.09 33.247 1.06999 33.067 1.06999 32.827C1.06999 32.737 1.06999 32.627 1.03999 32.527C1.08999 32.447 1.12 32.367 1.12 32.267C1.12 32.087 1.12 31.917 1.12 31.737V31.527C1.11 31.207 1.11999 30.887 1.14999 30.517C1.14999 30.167 1.16 29.827 1.22 29.527C1.29 29.257 1.33 28.977 1.36 28.717C1.38 28.557 1.39999 28.397 1.42999 28.247C1.49999 27.947 1.56 27.647 1.62 27.337C1.73 26.777 1.85 26.197 2.02 25.677C2.28 25.047 2.57 24.477 2.91 23.957C3.01 23.787 3.08999 23.617 3.17999 23.437C3.25999 23.257 3.35 23.077 3.45 22.917C3.54 22.787 3.65 22.667 3.75 22.547C3.86 22.427 3.96 22.307 4.06 22.177L4.17999 22.017C4.25999 21.907 4.34 21.797 4.42 21.707C4.57 21.547 4.73999 21.397 4.89999 21.247L5.05 21.107C5.16 21.017 5.27 20.917 5.38 20.817C5.6 20.617 5.80999 20.427 6.03999 20.277C6.19999 20.157 6.4 20.077 6.61 19.987L7.56 19.557C7.75 19.477 7.93 19.387 8.11 19.297C8.43 19.137 8.72999 18.987 9.06999 18.907C9.17999 18.877 9.28 18.857 9.39 18.837C9.59 18.797 9.8 18.767 10 18.667C10.04 18.647 10.11 18.617 10.19 18.577C10.21 18.577 10.24 18.567 10.26 18.557C10.37 18.547 10.47 18.497 10.55 18.417L10.64 18.297C10.73 18.167 10.78 18.027 10.77 17.877C10.77 17.797 10.74 17.717 10.71 17.647C10.96 17.667 11.21 17.677 11.46 17.677C11.93 17.687 12.39 17.647 12.84 17.607C13.07 17.587 13.31 17.567 13.55 17.547C13.8 17.527 14.06 17.527 14.32 17.517H14.66C14.88 17.487 15.09 17.477 15.32 17.477C15.59 17.477 15.87 17.467 16.15 17.447C16.39 17.437 16.64 17.407 16.88 17.417C17.58 17.387 18.28 17.387 18.99 17.387C19.32 17.387 19.65 17.387 19.97 17.387C20.44 17.397 20.89 17.387 21.36 17.377H22.02C22.29 17.357 22.56 17.337 22.83 17.327C23.04 17.317 23.25 17.297 23.45 17.287H24.07C24.59 17.277 25.12 17.267 25.63 17.247H25.9C26.14 17.227 26.38 17.227 26.58 17.187C26.61 17.187 26.64 17.187 26.66 17.187C26.68 17.247 26.71 17.297 26.75 17.347C26.72 17.387 26.69 17.427 26.68 17.487C26.63 17.617 26.62 17.737 26.62 17.827V17.947C26.6 18.147 26.7 18.327 26.85 18.407L26.94 18.447C26.94 18.447 27.03 18.497 27.09 18.517C27.21 18.577 27.34 18.597 27.43 18.607H27.5C27.61 18.647 27.72 18.677 27.83 18.717C27.93 18.747 28.02 18.777 28.08 18.797C28.33 18.897 28.59 18.987 28.79 19.037C29.19 19.217 29.6 19.397 30.01 19.567L30.34 19.707C30.56 19.817 30.76 19.967 31.02 20.157C31.1 20.207 31.17 20.257 31.25 20.307C31.31 20.337 31.37 20.377 31.42 20.417C31.64 20.567 31.85 20.727 32.04 20.897C32.12 20.967 32.19 21.047 32.26 21.117C32.37 21.227 32.48 21.337 32.61 21.447C32.76 21.557 32.87 21.677 32.98 21.807C33.05 21.887 33.12 21.957 33.19 22.037C33.28 22.127 33.36 22.217 33.45 22.307C33.57 22.427 33.68 22.557 33.78 22.647C33.88 22.767 33.96 22.897 34.03 23.027C34.09 23.117 34.14 23.217 34.2 23.287C34.25 23.367 34.3 23.437 34.35 23.517C34.42 23.627 34.49 23.727 34.54 23.817C34.65 24.077 34.78 24.377 34.94 24.617C35.01 24.777 35.07 24.937 35.13 25.097C35.18 25.227 35.22 25.357 35.27 25.457C35.36 25.727 35.43 25.997 35.49 26.267L35.54 26.467C35.62 26.697 35.66 26.947 35.7 27.207L35.72 27.317C35.8 27.647 35.85 27.947 35.86 28.247C35.9 28.607 35.94 28.957 35.97 29.337C36.02 29.747 36.05 30.087 36.05 30.417C36.06 30.937 36.08 31.557 36.05 32.147C36.02 32.477 36.02 32.807 36.01 33.137V33.417C35.95 34.387 36.01 35.367 36.07 36.317L36.1 36.777C36.11 37.167 36.1 37.557 36.07 37.947C36.05 38.257 36.04 38.577 36.04 38.887C36.04 39.477 36.04 40.077 36.04 40.667C36.03 41.617 36.02 42.607 36.04 43.587C36.08 44.647 36.07 45.727 36.06 46.777C36.06 47.657 36.04 48.537 36.06 49.417C36.11 50.477 36.11 51.537 36.06 52.597C36.03 53.637 36.03 54.677 36.03 55.717C36.03 56.387 36.06 57.057 36.1 57.717C36.13 58.247 36.15 58.767 36.16 59.287C36.16 60.727 36.16 62.267 36.1 63.787C36.1 63.907 36.14 64.017 36.22 64.107C36.22 64.127 36.24 64.157 36.25 64.187C36.23 64.347 36.24 64.517 36.25 64.677C36.25 64.787 36.25 64.897 36.25 64.997C36.21 65.357 36.19 65.737 36.2 66.217V66.437C36.18 66.597 36.17 66.767 36.18 66.927C36.2 67.377 36.23 67.837 36.27 68.317C36.27 68.797 36.27 69.297 36.23 69.777L36.21 69.767Z" fill="white"/>
<path d="M13.5801 4.46664C13.3101 4.21664 12.9501 3.89665 12.5901 3.61665C12.3201 3.37665 12.1001 3.09664 11.8601 2.79664C11.6401 2.51664 11.4101 2.23664 11.1501 1.98664C11.0701 1.90664 10.9801 1.83663 10.9001 1.77663C10.8201 1.68663 10.7001 1.62664 10.5801 1.62664C10.4701 1.60664 10.3601 1.62664 10.2601 1.68664C10.1501 1.75664 10.0701 1.86664 10.0501 1.99664C10.0101 2.26664 10.2101 2.41664 10.3101 2.48664L10.3601 2.52663C10.6101 2.75663 10.8201 3.02663 11.0501 3.30663L11.1001 3.37664C11.4801 3.90664 11.9301 4.37664 12.5001 4.81664C12.5701 4.87664 12.6301 4.93665 12.7001 5.00665C12.8301 5.14665 12.9801 5.29664 13.1901 5.38664H13.2001C13.2601 5.41664 13.3301 5.42664 13.3901 5.42664C13.5101 5.42664 13.6101 5.38663 13.7001 5.30663C13.8401 5.18663 13.9101 4.99664 13.8701 4.81664C13.8401 4.65664 13.7301 4.52664 13.5801 4.45664V4.46664Z" fill="white"/>
<path d="M19.0302 0.666773C19.1202 0.536773 19.1302 0.356781 19.0402 0.206781C18.9402 0.0467813 18.7702 -0.0232157 18.6002 0.00678432C18.3902 0.0467843 18.2202 0.226772 18.1802 0.446772C18.1402 0.886772 18.1802 1.32677 18.2002 1.74677C18.2202 1.99677 18.2402 2.25678 18.2402 2.51678C18.2602 2.90678 18.2502 3.31678 18.2402 3.81678C18.2402 3.94678 18.2802 4.06677 18.3802 4.16677C18.4702 4.26677 18.6102 4.32678 18.7402 4.32678C18.8702 4.32678 19.0002 4.27678 19.0902 4.17678C19.1802 4.07678 19.2402 3.95677 19.2302 3.83677C19.2502 3.13677 19.1802 2.43678 19.1102 1.76678C19.0802 1.39678 19.0402 1.03677 19.0202 0.666773H19.0302Z" fill="white"/>
<path d="M27.1899 0.856898C27.0899 0.686898 26.8699 0.616904 26.6999 0.706904C26.4599 0.806904 26.3599 1.03689 26.2899 1.19689L26.2599 1.25691C26.1399 1.53691 26.0099 1.81689 25.8799 2.08689C25.6199 2.63689 25.3599 3.2169 25.1299 3.7969C25.0299 3.9469 24.9899 4.0969 25.0099 4.2369C25.0299 4.3269 25.0799 4.45689 25.2299 4.55689H25.2499C25.3399 4.61689 25.4199 4.6369 25.4899 4.6369C25.5599 4.6369 25.6199 4.6169 25.6599 4.5969C25.9099 4.4869 25.9999 4.17689 26.0399 4.05689L26.0699 3.9669C26.1099 3.8569 26.1399 3.7469 26.1899 3.6269C26.3099 3.2969 26.4399 2.97691 26.5799 2.64691C26.7499 2.25691 26.9199 1.84689 27.0499 1.44689L27.0799 1.3769C27.0799 1.3769 27.0799 1.3569 27.0899 1.3469C27.1499 1.2969 27.1999 1.2369 27.2199 1.1669C27.2599 1.0569 27.2499 0.946903 27.1899 0.846903V0.856898Z" fill="white"/>
<path d="M28.1695 41.0265V41.0065C28.0495 40.7965 27.9295 40.5865 27.7995 40.3865L27.6794 40.1865C27.6294 40.1065 27.5795 40.0265 27.5295 39.9465C27.3595 39.6765 27.1795 39.3765 26.8895 39.1365C26.6995 38.9865 26.4995 38.8765 26.2995 38.7665L26.1595 38.6865C25.8395 38.5065 25.4894 38.3365 25.0694 38.1565C24.6094 37.9465 24.0595 37.7365 23.4695 37.7965C23.0795 37.8065 22.5095 37.8665 22.0295 38.1765C21.8495 38.2865 21.6895 38.3965 21.5195 38.5165L21.3895 38.6065C21.0595 38.8265 20.6894 39.0765 20.4194 39.4365C20.3394 39.5365 20.2594 39.6465 20.1794 39.7465C20.0894 39.8665 19.9994 39.9965 19.8994 40.1165L19.8194 40.2065C19.7094 40.3365 19.5995 40.4765 19.4995 40.6265C19.3595 40.8665 19.2394 41.0965 19.1494 41.3165C18.7994 40.8665 18.4195 40.3865 17.9695 40.0065C17.7095 39.7765 17.4295 39.5665 17.1395 39.3665L17.0394 39.2865C16.8694 39.1665 16.6995 39.0465 16.4995 38.9565C15.9795 38.7265 15.3795 38.5865 14.7095 38.5465C13.9195 38.4865 13.1195 38.6365 12.3795 38.9965C11.9995 39.1965 11.6294 39.4665 11.2894 39.7865C10.7494 40.2665 10.3595 40.7065 10.0995 41.1665C9.79946 41.6265 9.54944 42.1665 9.31944 42.8065C8.98944 43.6865 8.78945 44.5765 8.71945 45.4565C8.67945 46.0065 8.67945 46.4965 8.71945 46.9665C8.79945 47.5465 8.95946 48.1265 9.20946 48.7465C9.42946 49.2765 9.65945 49.8265 10.0094 50.3065C10.4294 50.9365 10.9495 51.4965 11.4395 52.0365L11.5394 52.1465C11.7994 52.4165 12.0794 52.6665 12.3694 52.9065C12.5194 53.0365 12.6594 53.1565 12.8194 53.2965C12.9694 53.4265 13.1195 53.5565 13.2795 53.6765C13.4995 53.8565 13.7295 54.0065 13.9695 54.1665C14.1795 54.3165 14.3995 54.4565 14.5995 54.6165L14.7095 54.7065C14.9395 54.8965 15.1794 55.0865 15.4494 55.2365C15.5794 55.3065 15.7195 55.3765 15.8495 55.4465C16.0095 55.5265 16.1594 55.5965 16.3094 55.6965C16.4694 55.7965 16.6294 55.9065 16.7894 56.0165C17.0194 56.1765 17.2595 56.3365 17.4995 56.4765C17.7495 56.6365 18.0194 56.7665 18.2894 56.8965C18.4494 56.9765 18.6195 57.0565 18.7795 57.1465C18.8595 57.2265 18.9495 57.2765 19.0495 57.2865C19.0895 57.2965 19.1394 57.3065 19.1794 57.3065C19.2794 57.3065 19.3795 57.2765 19.4695 57.2165C19.5595 57.1565 19.6195 57.0665 19.6595 56.9665C19.6995 56.9365 19.7394 56.8965 19.7894 56.8665L20.0195 56.6865C20.2295 56.5265 20.4295 56.3765 20.6095 56.1865C20.6895 56.1065 20.7595 56.0265 20.8295 55.9365C20.8895 55.8665 20.9595 55.7965 21.0295 55.7165C21.1295 55.6065 21.2694 55.5065 21.4194 55.4065C21.5494 55.3165 21.6795 55.2265 21.7995 55.1265C21.9695 54.9765 22.1194 54.8065 22.2594 54.6365C22.3394 54.5365 22.4194 54.4365 22.5094 54.3565C22.6094 54.2665 22.7094 54.1765 22.8094 54.0965C22.9794 53.9565 23.1495 53.8165 23.2995 53.6365C23.4095 53.5165 23.5095 53.3865 23.6095 53.2665C23.6895 53.1665 23.7795 53.0565 23.8595 52.9665C23.9295 52.8865 23.9995 52.8165 24.0795 52.7365C24.1795 52.6365 24.2794 52.5265 24.3694 52.4265C24.4994 52.2665 24.6194 52.1065 24.7294 51.9365L25.0795 51.4665C25.3295 51.1465 25.5694 50.8265 25.7894 50.4865C25.8494 50.3965 25.9194 50.3065 25.9794 50.2165C26.0894 50.0565 26.1995 49.9065 26.3095 49.7365C26.3895 49.6065 26.4595 49.4765 26.5195 49.3465C26.5895 49.2165 26.6595 49.0765 26.7395 48.9465L26.8595 48.7565C26.9595 48.5965 27.0594 48.4465 27.1494 48.2765C27.3094 47.9265 27.4595 47.5765 27.5995 47.2165L27.6895 47.0065C27.7695 46.7765 27.8495 46.5565 27.9395 46.3365C28.0495 46.0565 28.1495 45.7665 28.2495 45.4665C28.4195 44.8965 28.5295 44.2665 28.6095 43.4765C28.6795 42.6465 28.5295 41.7965 28.1895 41.0065L28.1695 41.0265Z" fill="#DA6A98"/>
</svg>
