<svg width="34" height="31" viewBox="0 0 34 31" fill="none" xmlns="http://www.w3.org/2000/svg">
<path d="M14.2115 11.7211L10.3633 10.3632C10.4588 10.1375 10.4221 9.8512 10.1963 9.68971C9.833 9.46033 9.37056 9.49519 8.96317 9.38875C7.96672 9.17221 6.99963 8.95568 5.99217 8.76483C5.10583 8.67491 4.21765 8.61985 3.34231 8.43635C2.38256 8.35377 -0.281976 7.58854 0.0226475 9.32086C0.586018 10.5871 1.89994 11.2826 2.75509 12.3286C3.70199 13.5911 5.2875 14.0627 6.56472 14.905C7.207 15.395 7.85661 15.8721 8.59432 16.2079C9.03107 16.4006 9.41093 16.663 9.79997 16.964C10.3835 17.2594 10.8203 16.7805 10.7744 16.3125H12.3856L14.2115 11.7211Z" fill="#FC5EB5"/>
<path d="M33.5204 20.5253C30.5861 18.9435 27.1655 18.5599 24.1798 17.0974C23.8128 16.9267 23.4917 16.646 23.0971 16.5469C22.8953 16.5102 22.7338 16.6515 22.6714 16.8276L19.616 14.998L15.1604 19.4078L12.6592 24.9093L13.6501 29.4071C13.373 29.6292 13.1877 29.8952 13.4042 30.3118C13.9456 31.1027 14.7659 30.2311 15.2815 29.8457C15.7366 29.4585 16.2027 29.0805 16.7367 28.8089C18.5883 27.8748 20.5537 27.3757 22.4824 26.5939C23.6954 26.1186 24.8313 25.4727 26.0534 25.0249C27.5123 24.5331 28.9088 23.9 30.2631 23.1697C31.0871 22.7403 32.0597 22.3696 32.9442 22.0227C33.6415 21.8172 34.1792 21.1162 33.5186 20.5272L33.5204 20.5253Z" fill="#FC5EB5"/>
<path d="M29.6111 1.06578C28.2495 1.53923 27.0291 2.33382 25.6914 2.87334C23.6838 3.73032 21.6652 4.56345 19.6356 5.37088C18.3657 5.82231 17.05 6.14896 15.8076 6.67746C13.8569 7.51426 12.0347 8.61164 10.1831 9.64295C10.1354 9.67415 10.0822 9.70718 10.0308 9.74205C9.98673 9.71085 9.93718 9.68516 9.87663 9.67782C9.64724 9.64479 9.49126 9.83931 9.46924 10.0485C9.12975 11.0211 9.17746 12.0616 9.37748 13.0599C9.79588 15.1739 10.1868 17.2934 10.5538 19.4166C10.985 21.4719 11.4548 23.5162 11.7704 25.5953C12.0622 27.0542 12.5357 28.4691 12.8586 29.9206C12.6898 30.3078 12.6421 30.7005 13.1357 30.9446C13.5394 31.1281 13.945 30.8327 14.0753 30.4491C14.2037 30.1922 14.4093 29.8123 14.6185 29.5151C15.3654 28.4415 16.2719 27.4176 17.0316 26.3294C17.6794 25.3623 18.2501 24.342 18.9126 23.3822C19.7365 22.1215 20.7366 20.9581 21.5845 19.7121C22.4157 18.4642 23.1296 16.998 23.8893 15.6859C24.4142 14.7463 25.1023 13.9224 25.7721 13.0837C26.7355 11.8432 27.5228 10.4816 28.3981 9.18235C29.5175 7.65189 30.4919 5.9471 31.1783 4.1634C32.0756 2.07324 32.9656 -0.149044 29.6148 1.06578H29.6111Z" fill="#FF76B4"/>
</svg>
