<svg width="30" height="33" viewBox="0 0 30 33" fill="none" xmlns="http://www.w3.org/2000/svg">
<g filter="url(#filter0_d_1708_8643)">
<path d="M16.2928 10.6205L16.5273 8.00305C16.6834 8.02665 16.8561 7.95816 16.921 7.7916C17.0062 7.52835 16.9108 7.24534 16.9124 6.97419C16.8888 6.31794 16.8699 5.68001 16.8286 5.02098C16.7435 4.4536 16.6365 3.89062 16.6116 3.31521C16.5103 2.70319 16.5634 0.918702 15.531 1.38465C14.8306 1.93782 14.6059 2.86844 14.0894 3.5686C13.4524 4.36051 13.4106 5.42494 13.0884 6.35604C12.8849 6.83484 12.6907 7.31617 12.5986 7.82996C12.5479 8.13317 12.4447 8.41198 12.3188 8.70266C12.2274 9.11384 12.5958 9.31009 12.8805 9.20695L13.1371 10.2123L16.2928 10.6205Z" fill="#E293B3"/>
<path d="M13.8746 24.0706C14.3944 21.9877 14.089 19.7923 14.5261 17.6963C14.5742 17.4401 14.6982 17.1951 14.6972 16.9331C14.688 16.8013 14.5741 16.723 14.4542 16.7121L15.1093 14.5143L11.6482 12.4363L7.817 11.7517L5.16826 13.0863C4.98558 12.9487 4.79003 12.8754 4.56459 13.0769C4.15727 13.5406 4.8318 13.9137 5.15438 14.1741C5.46846 14.3964 5.77857 14.627 6.03308 14.917C6.91077 15.9236 7.5352 17.0705 8.33013 18.1494C8.81987 18.8306 9.40382 19.4366 9.87784 20.1279C10.417 20.9599 11.0345 21.7305 11.7059 22.4592C12.105 22.9049 12.4912 23.4528 12.8485 23.9495C13.0878 24.3519 13.6108 24.5758 13.8732 24.0697L13.8746 24.0706Z" fill="#E293B3"/>
<path d="M25.3943 18.5326C24.8821 17.7584 24.1919 17.1234 23.6422 16.3746C22.7878 15.2584 21.9465 14.1315 21.1194 12.9936C20.6355 12.2731 20.2222 11.5041 19.6946 10.8131C18.8618 9.72916 17.8869 8.76687 16.9485 7.77573C16.9214 7.75093 16.8923 7.72298 16.8624 7.69648C16.8748 7.66403 16.883 7.62902 16.8779 7.59006C16.862 7.44167 16.7158 7.37532 16.5817 7.39489C15.9208 7.33793 15.2791 7.5334 14.6881 7.81718C13.4356 8.41491 12.1753 8.99633 10.9089 9.56345C9.69512 10.1598 8.49433 10.7785 7.24724 11.3066C6.38339 11.7209 5.57594 12.2417 4.72163 12.6744C4.45314 12.6307 4.20049 12.6634 4.12681 13.0103C4.0766 13.2915 4.32553 13.4975 4.5856 13.5177C4.76636 13.5569 5.03612 13.6247 5.25493 13.7079C6.04373 14.003 6.82704 14.4056 7.62704 14.7063C8.33364 14.9565 9.06118 15.1502 9.76554 15.4107C10.6834 15.7241 11.5686 16.1629 12.4811 16.4935C13.3922 16.8135 14.4207 17.0254 15.3604 17.2905C16.0303 17.4684 16.654 17.7666 17.284 18.0509C18.2115 18.4546 19.1865 18.729 20.1365 19.0683C21.2698 19.523 22.4887 19.8596 23.711 20.0038C25.1581 20.2309 26.6865 20.4323 25.3949 18.5349L25.3943 18.5326Z" fill="#FCB1CE"/>
</g>
<defs>
<filter id="filter0_d_1708_8643" x="0.120361" y="1.30786" width="29.7612" height="31.0542" filterUnits="userSpaceOnUse" color-interpolation-filters="sRGB">
<feFlood flood-opacity="0" result="BackgroundImageFix"/>
<feColorMatrix in="SourceAlpha" type="matrix" values="0 0 0 0 0 0 0 0 0 0 0 0 0 0 0 0 0 0 127 0" result="hardAlpha"/>
<feOffset dy="4"/>
<feGaussianBlur stdDeviation="2"/>
<feComposite in2="hardAlpha" operator="out"/>
<feColorMatrix type="matrix" values="0 0 0 0 0 0 0 0 0 0 0 0 0 0 0 0 0 0 0.25 0"/>
<feBlend mode="normal" in2="BackgroundImageFix" result="effect1_dropShadow_1708_8643"/>
<feBlend mode="normal" in="SourceGraphic" in2="effect1_dropShadow_1708_8643" result="shape"/>
</filter>
</defs>
</svg>
