<svg width="62" height="92" viewBox="0 0 62 92" fill="none" xmlns="http://www.w3.org/2000/svg">
<path d="M40.7701 49.0268V49.0068C40.6501 48.7968 40.53 48.5868 40.4 48.3868L40.28 48.1868C40.23 48.1068 40.1801 48.0268 40.1301 47.9468C39.9601 47.6768 39.7801 47.3768 39.4901 47.1368C39.3001 46.9868 39.1 46.8768 38.9 46.7668L38.76 46.6868C38.44 46.5068 38.09 46.3368 37.67 46.1568C37.21 45.9468 36.66 45.7368 36.07 45.7968C35.68 45.8068 35.1101 45.8668 34.6301 46.1768C34.4501 46.2868 34.29 46.3968 34.12 46.5168L33.9901 46.6068C33.6601 46.8268 33.2901 47.0768 33.0201 47.4368C32.9401 47.5368 32.86 47.6468 32.78 47.7468C32.69 47.8668 32.6 47.9968 32.5 48.1168L32.42 48.2068C32.31 48.3368 32.2001 48.4768 32.1001 48.6268C31.9601 48.8668 31.84 49.0968 31.75 49.3168C31.4 48.8668 31.02 48.3868 30.57 48.0068C30.31 47.7768 30.0301 47.5668 29.7401 47.3668L29.64 47.2868C29.47 47.1668 29.3001 47.0468 29.1001 46.9568C28.5801 46.7268 27.98 46.5868 27.31 46.5468C26.52 46.4868 25.72 46.6368 24.98 46.9968C24.6 47.1968 24.23 47.4668 23.89 47.7868C23.35 48.2668 22.96 48.7068 22.7 49.1668C22.4 49.6268 22.15 50.1668 21.92 50.8068C21.59 51.6868 21.39 52.5768 21.32 53.4568C21.28 54.0068 21.28 54.4968 21.32 54.9668C21.4 55.5468 21.56 56.1268 21.81 56.7468C22.03 57.2768 22.26 57.8268 22.61 58.3068C23.03 58.9368 23.55 59.4968 24.04 60.0368L24.14 60.1468C24.4 60.4168 24.68 60.6668 24.97 60.9068C25.12 61.0368 25.26 61.1568 25.42 61.2968C25.57 61.4268 25.7201 61.5568 25.8801 61.6768C26.1001 61.8568 26.33 62.0068 26.57 62.1668C26.78 62.3168 27 62.4568 27.2 62.6168L27.31 62.7068C27.54 62.8968 27.7801 63.0868 28.0501 63.2368C28.1801 63.3068 28.32 63.3768 28.45 63.4468C28.61 63.5268 28.7601 63.5968 28.9101 63.6968C29.0701 63.7968 29.23 63.9068 29.39 64.0168C29.62 64.1768 29.8601 64.3368 30.1001 64.4768C30.3501 64.6368 30.62 64.7668 30.89 64.8968C31.05 64.9768 31.2201 65.0568 31.3801 65.1468C31.4601 65.2268 31.55 65.2768 31.65 65.2868C31.69 65.2968 31.74 65.3068 31.78 65.3068C31.88 65.3068 31.98 65.2768 32.07 65.2168C32.16 65.1568 32.22 65.0668 32.26 64.9668C32.3 64.9368 32.34 64.8968 32.39 64.8668L32.62 64.6868C32.83 64.5268 33.0301 64.3768 33.2101 64.1868C33.2901 64.1068 33.36 64.0268 33.43 63.9368C33.49 63.8668 33.5601 63.7968 33.6301 63.7168C33.7301 63.6068 33.8701 63.5068 34.0201 63.4068C34.1501 63.3168 34.28 63.2268 34.4 63.1268C34.57 62.9768 34.72 62.8068 34.86 62.6368C34.94 62.5368 35.02 62.4368 35.11 62.3568C35.21 62.2668 35.3101 62.1768 35.4101 62.0968C35.5801 61.9568 35.75 61.8168 35.9 61.6368C36.01 61.5168 36.1101 61.3868 36.2101 61.2668C36.2901 61.1668 36.3801 61.0568 36.4601 60.9668C36.5301 60.8868 36.6 60.8168 36.68 60.7368C36.78 60.6368 36.88 60.5268 36.97 60.4268C37.1 60.2668 37.22 60.1068 37.33 59.9368L37.68 59.4668C37.93 59.1468 38.17 58.8268 38.39 58.4868C38.45 58.3968 38.5201 58.3068 38.58 58.2168C38.6901 58.0568 38.8001 57.9068 38.9101 57.7368C38.9901 57.6068 39.06 57.4768 39.12 57.3468C39.19 57.2168 39.26 57.0768 39.34 56.9468L39.4601 56.7568C39.5601 56.5968 39.66 56.4468 39.75 56.2768C39.91 55.9268 40.06 55.5768 40.2 55.2168L40.29 55.0068C40.37 54.7768 40.45 54.5568 40.54 54.3368C40.65 54.0568 40.7501 53.7668 40.8501 53.4668C41.0201 52.8968 41.1301 52.2668 41.2101 51.4768C41.2801 50.6468 41.13 49.7968 40.79 49.0068L40.7701 49.0268Z" fill="#DA6A98"/>
<path d="M49.23 76.1467V76.1267C49.19 75.7667 49.17 75.4167 49.15 75.0367C49.13 74.8167 49.15 74.5968 49.15 74.2968C49.15 74.1768 49.15 74.0667 49.15 73.9567C49.15 73.7867 49.15 73.6267 49.16 73.4467C49.19 73.1567 49.22 72.8368 49.19 72.5468C49.19 72.4968 49.19 72.4467 49.19 72.3967C49.19 72.3067 49.2 72.2168 49.19 72.1068C49.17 71.9468 49.12 71.7967 49.05 71.6267L49.08 70.8268C49.08 70.4468 49.08 70.0667 49.09 69.6867C49.09 69.0567 49.11 68.4267 49.1 67.7967C49.1 67.0467 49.07 66.2867 49.03 65.5567C48.99 64.7467 48.95 63.9067 48.97 63.0767C48.96 62.3167 48.97 61.5467 49 60.7867C49.02 60.0667 49.04 59.3467 49.03 58.6267L49.01 57.7867C48.99 57.2067 48.98 56.6167 48.98 56.0267C48.98 55.5967 48.98 55.1667 48.99 54.7267C48.99 54.0767 49.01 53.4367 48.99 52.7967C48.99 52.3667 48.98 51.9467 48.96 51.5167L48.94 50.8867C48.94 50.4767 48.94 50.0667 48.94 49.6567V48.2567C48.95 47.3067 48.95 46.3267 49.01 45.3667C49.02 44.8167 48.99 44.2567 48.96 43.7167C48.93 43.1767 48.89 42.6267 48.91 42.0767C48.92 41.3567 48.94 40.6367 48.98 39.8967V39.5967C48.98 38.8967 48.99 38.1667 48.92 37.4367C48.9 37.2667 48.88 37.0967 48.87 36.9267C48.85 36.7067 48.83 36.4867 48.8 36.2867L48.78 36.1167C48.75 35.7867 48.72 35.4467 48.63 35.1367C48.61 35.0567 48.6 34.9767 48.59 34.8867C48.57 34.7667 48.55 34.6567 48.53 34.5367C48.51 34.4467 48.48 34.3467 48.46 34.2567C48.44 34.1767 48.41 34.0867 48.39 34.0067C48.29 33.5367 48.17 33.1167 48.01 32.7667L47.95 32.5967C47.89 32.4267 47.83 32.2567 47.73 32.0767C47.61 31.8967 47.53 31.6967 47.44 31.4967L47.4 31.3967C47.29 31.1767 47.15 30.9767 47.02 30.7767C46.93 30.6367 46.83 30.4967 46.74 30.3467C46.62 30.1367 46.46 29.9467 46.3 29.7967L46.11 29.5967C45.98 29.4567 45.85 29.3167 45.73 29.2067C45.56 29.0167 45.36 28.7867 45.14 28.6267C45.06 28.5467 44.98 28.4667 44.89 28.3867C44.73 28.2267 44.57 28.0567 44.4 27.9267C44.14 27.7167 43.85 27.5167 43.55 27.3367L43.44 27.2467C43.25 27.1067 43.07 26.9667 42.85 26.8567C42.58 26.7167 42.3 26.5967 42.01 26.4867C41.8 26.3967 41.58 26.3067 41.39 26.2167C41.21 26.1167 41.03 26.0667 40.85 26.0067C40.73 25.9767 40.62 25.9367 40.49 25.8767C40.36 25.8267 40.22 25.7867 40.09 25.7467L40.03 25.7267C39.93 25.6867 39.83 25.6567 39.74 25.6367C39.81 25.5067 39.84 25.3667 39.82 25.2067V25.1667H39.94C40 25.1667 40.06 25.1667 40.14 25.1667C40.32 25.1467 40.46 25.0267 40.53 24.8767C40.92 24.4867 40.96 23.6467 40.97 22.8667V22.7067L41 22.6167C41.04 22.4967 41.05 22.3667 41.05 22.2467C41.05 21.9467 41.05 21.6567 41.04 21.3567C41.06 21.2967 41.06 21.2367 41.06 21.1867C41.06 20.9667 40.94 20.8067 40.85 20.6767L40.82 20.5867C40.78 20.4867 40.74 20.3567 40.63 20.2367C40.41 20.0067 40.13 20.0567 39.98 20.0867C39.95 20.0867 39.92 20.0967 39.89 20.0967H39.74C39.52 20.1067 39.3 20.1167 39.11 20.1367C38.78 20.1367 38.45 20.1467 38.12 20.1467H37.43C36.97 20.1467 36.62 20.1667 36.31 20.2067C36.14 20.2067 35.96 20.2067 35.79 20.2067H35.65C35.41 20.1967 35.16 20.2067 34.92 20.2067C34.69 20.2067 34.46 20.2067 34.23 20.2067H33.89C33.61 20.1867 33.34 20.1767 33.07 20.1867C32.88 20.1867 32.69 20.1867 32.5 20.1867C32.32 20.1867 32.13 20.1667 31.96 20.1767C31.48 20.1767 31 20.2067 30.54 20.2467L30.11 20.2767C29.63 20.2967 29.14 20.2867 28.66 20.2767C28.2 20.2767 27.74 20.2767 27.27 20.2767C26.85 20.3067 26.43 20.3067 26.01 20.3067H25.64C25.47 20.3067 25.29 20.3167 25.12 20.3267C24.78 20.3467 24.45 20.3667 24.14 20.3367C23.9 20.3167 23.66 20.3067 23.43 20.3067C23.25 20.3067 23.07 20.3067 22.88 20.2867C22.76 20.2867 22.64 20.2667 22.53 20.2467C22.29 20.2167 22.03 20.1667 21.76 20.2167L21.61 20.2367C21.55 20.2367 21.49 20.2567 21.47 20.2567C21.23 20.2567 20.97 20.2567 20.77 20.4467C20.58 20.6267 20.57 20.8967 20.57 21.0967V21.1467H20.55L20.58 22.4167L20.56 22.6267C20.54 22.8767 20.52 23.1367 20.54 23.3867V23.7267C20.56 24.0067 20.56 24.2867 20.59 24.5867C20.59 24.6167 20.59 24.6567 20.59 24.6967C20.59 24.8967 20.59 25.1767 20.75 25.2967C20.79 25.3567 20.84 25.4167 20.92 25.4667C21.08 25.5467 21.23 25.5467 21.35 25.5467C21.37 25.5467 21.39 25.5467 21.42 25.5467C21.43 25.5867 21.45 25.6367 21.47 25.6767C21.44 25.6967 21.42 25.7067 21.39 25.7267C21.04 25.7867 20.64 25.8567 20.26 26.0067C20.02 26.1067 19.8 26.2167 19.57 26.3267C19.34 26.4467 19.1 26.5567 18.83 26.6767C18.65 26.7667 18.46 26.8467 18.27 26.9267C18.06 27.0167 17.85 27.1067 17.63 27.2167C17.21 27.4567 16.86 27.7767 16.53 28.0867C16.4 28.2067 16.26 28.3367 16.11 28.4567L16.02 28.5367C15.83 28.7067 15.63 28.8867 15.46 29.1167C15.25 29.4167 15.01 29.7067 14.71 30.0467C14.48 30.3167 14.34 30.6067 14.21 30.8967C14.12 31.0867 14.03 31.2767 13.91 31.4567C13.71 31.7667 13.55 32.0867 13.39 32.4067L13.29 32.6067C13.18 32.8367 13.03 33.1367 12.94 33.4667C12.8 33.9567 12.69 34.4567 12.59 34.9467C12.55 35.1567 12.5 35.3667 12.46 35.5767C12.4 35.8367 12.33 36.1767 12.29 36.5467C12.27 36.7867 12.22 37.0167 12.16 37.3067C12.1 37.6267 12.09 37.9467 12.08 38.2667V38.5067C12.04 38.8967 12.04 39.2767 12.05 39.6467C12.05 39.8267 12.05 39.9967 12.05 40.1767C12.05 40.2367 12.05 40.3067 12.08 40.3567C12.03 40.6167 12.04 40.8767 12.04 41.1367V42.0367C12.07 42.7967 12.08 43.5667 12.07 44.3367C12.07 44.8767 12.04 45.4167 12.02 45.9567C12.01 46.5767 12 47.1967 12 47.8167V48.7967C12 49.3467 12.02 49.8967 12.04 50.4567C12.05 50.8367 12.07 51.2267 12.08 51.6067C12.1 52.8167 12.11 54.0267 12.12 55.2367L12.15 56.3467C12.19 57.4667 12.22 58.5767 12.23 59.6967V61.2067C12.23 64.5167 12.22 67.9368 12.28 71.2968C12.28 72.2668 12.28 73.2367 12.28 74.2067V75.9467C12.25 77.4367 12.36 78.6267 12.6 79.7267C12.71 80.1267 12.87 80.4767 13.09 80.7367C13.18 80.8467 13.26 80.9667 13.34 81.0867C13.54 81.3767 13.75 81.6767 14.03 81.9267C14.73 82.5767 15.37 82.6367 16.12 82.6867C16.52 82.7967 16.95 82.8667 17.5 82.9167C18.48 83.0367 19.46 83.0367 20.36 83.0167C20.84 83.0167 21.32 83.0167 21.81 83.0167H22.53H23.21C23.53 83.0167 23.85 83.0167 24.17 83.0167C24.64 83.0167 25.11 82.9967 25.59 82.9667C25.87 82.9467 26.15 82.9367 26.42 82.9267C26.96 82.9067 27.51 82.9167 28.05 82.9167C28.34 82.9167 28.62 82.9167 28.9 82.9167C29.28 82.9167 29.67 82.9067 30.06 82.8967H30.48C31.9 82.8967 33.35 82.9467 34.75 82.9867H34.85C35.51 83.0067 36.16 82.9867 36.82 82.9767C37.16 82.9767 37.5 82.9567 37.84 82.9567C38.24 82.9567 38.64 82.9667 39.03 82.9867L39.82 83.0067C40.2 83.0067 40.57 83.0067 40.95 83.0067C41.19 83.0067 41.44 83.0067 41.68 83.0067C42.82 82.9967 43.96 82.9967 45.08 82.7667C45.18 82.7367 45.28 82.7167 45.38 82.6967C45.58 82.6467 45.79 82.5967 46.02 82.5167C46.14 82.4567 46.26 82.4167 46.38 82.3767C46.54 82.3167 46.69 82.2667 46.87 82.1667C47.03 82.0667 47.17 81.9367 47.31 81.8067C47.39 81.7367 47.47 81.6567 47.56 81.5867C47.87 81.3367 48.07 81.0968 48.2 80.8268L48.31 80.6367C48.4 80.4767 48.49 80.3167 48.56 80.1567L48.65 79.9467C48.69 79.8467 48.74 79.7467 48.78 79.6667C48.88 79.4967 49 79.2967 49.04 79.0567C49.07 78.8967 49.08 78.7467 49.08 78.5867C49.08 78.4967 49.08 78.4167 49.09 78.3467C49.18 77.8667 49.21 77.4267 49.2 77.0167V76.7667C49.2 76.5567 49.21 76.3467 49.2 76.1367L49.23 76.1467ZM21.56 22.1767C21.56 21.9567 21.56 21.7367 21.56 21.5367C21.56 21.4467 21.56 21.3567 21.56 21.2667C21.64 21.2667 21.72 21.2467 21.8 21.2367L22 21.2067C22.11 21.2067 22.24 21.2067 22.37 21.2367C22.44 21.2467 22.51 21.2567 22.58 21.2667C22.87 21.2967 23.17 21.3067 23.46 21.3067C23.61 21.3067 23.77 21.3067 23.91 21.3067C24.21 21.3367 24.54 21.3467 24.87 21.3267C25.37 21.2867 25.86 21.2867 26.36 21.2867H26.84C27.2 21.2567 27.55 21.2567 27.92 21.2567C28.27 21.2567 28.63 21.2567 28.99 21.2567C29.31 21.2567 29.63 21.2567 29.96 21.2567C30.24 21.2467 30.52 21.2167 30.81 21.1967C30.99 21.1867 31.17 21.1667 31.35 21.1567C31.8 21.1367 32.25 21.1467 32.77 21.1567C33.1 21.1567 33.44 21.1567 33.78 21.1667C34.18 21.1667 34.58 21.1867 34.98 21.1667C35.21 21.1567 35.44 21.1667 35.68 21.1667C36.05 21.1667 36.43 21.1867 36.78 21.1367C37.2 21.1167 37.62 21.1167 38.04 21.1167C38.42 21.1167 38.8 21.1167 39.21 21.0967C39.35 21.0767 39.5 21.0767 39.64 21.0767C39.76 21.0767 39.88 21.0767 40 21.0567C40.02 21.0967 40.04 21.1367 40.06 21.1767L40.09 21.2367C40.12 21.3967 40.12 21.5667 40.12 21.7267H40.02V22.1667C40.02 22.1667 40.03 22.1767 40.03 22.1867V22.5867C40.03 22.8867 40.03 23.1867 40.01 23.4567V23.5467C39.98 23.7767 39.95 23.9967 39.89 24.1567H39.87C39.73 24.1567 39.6 24.1467 39.42 24.1567C39.29 24.1167 39.18 24.1167 39.09 24.1267H38.99C38.69 24.1267 38.41 24.1267 38.17 24.1767C37.2 24.2167 36.23 24.2267 35.24 24.2467C34.64 24.2967 34.03 24.3167 33.43 24.3267L32.9 24.3467C32.42 24.3467 31.94 24.3467 31.45 24.3467C30.81 24.3467 30.18 24.3467 29.53 24.3467C29.33 24.3467 29.14 24.3567 28.94 24.3667C28.71 24.3667 28.47 24.3767 28.23 24.3967C27.88 24.4267 27.54 24.4267 27.19 24.4367H26.9C26.62 24.4667 26.34 24.4767 26.06 24.4767C25.71 24.4867 25.36 24.4967 25.01 24.5367C24.76 24.5567 24.51 24.5767 24.26 24.5967L24.02 24.6167C23.57 24.6367 23.12 24.6167 22.65 24.6067H22.32C22.32 24.6067 22.25 24.6067 22.25 24.6167H22.16C21.96 24.5967 21.76 24.5867 21.56 24.5967C21.56 24.4967 21.56 24.3967 21.55 24.2967V24.0467C21.54 23.8867 21.53 23.7267 21.53 23.5767C21.53 23.3567 21.52 23.1267 21.53 22.9167L21.56 22.5267V22.1567V22.1767ZM48.21 77.7667C48.21 77.8367 48.19 77.9067 48.18 77.9767C48.16 78.1167 48.13 78.2667 48.12 78.4567C48.12 78.6267 48.12 78.7767 48.08 78.9167C48.06 78.9867 48.02 79.0667 47.96 79.1567C47.92 79.2367 47.87 79.3067 47.84 79.3867L47.73 79.6467C47.57 79.9967 47.4 80.2967 47.24 80.5567C47.15 80.6767 47.03 80.7767 46.9 80.8867L46.74 81.0267C46.68 81.0767 46.63 81.1267 46.57 81.1767C46.51 81.2367 46.44 81.2968 46.41 81.3268C46.3 81.3868 46.18 81.4267 46.06 81.4667C45.92 81.5167 45.79 81.5667 45.7 81.6167C44.49 82.0267 43.11 82.0367 42.01 82.0567C41.68 82.0567 41.34 82.0567 41.01 82.0567C40.69 82.0567 40.37 82.0567 40.06 82.0567L39.35 82.0367C38.45 82.0167 37.51 81.9867 36.59 82.0367C35.36 82.0767 34.11 82.0367 32.9 81.9767H32.7C32.39 81.9767 32.07 81.9567 31.76 81.9567C31.18 81.9467 30.6 81.9367 30.02 81.9567C29.4 81.9767 28.78 81.9767 28.16 81.9767C27.57 81.9767 26.98 81.9767 26.4 81.9867C26.11 81.9867 25.82 82.0167 25.53 82.0267C25.2 82.0467 24.86 82.0667 24.53 82.0667C24.13 82.0667 23.72 82.0667 23.32 82.0667C23.01 82.0667 22.71 82.0667 22.4 82.0667H20.86C20.25 82.0667 19.63 82.0667 19.03 82.0667C18.31 82.0467 17.58 81.9668 16.87 81.8867L16.65 81.8667C16.57 81.7967 16.47 81.7567 16.38 81.7567L16.08 81.7267C15.76 81.6967 15.47 81.6667 15.22 81.5567C14.76 81.3367 14.43 80.8967 14.19 80.5367C14.11 80.4167 14.02 80.2967 13.93 80.1767L13.87 80.0967C13.74 79.8867 13.64 79.6367 13.59 79.3767C13.44 78.5767 13.36 77.8067 13.34 77.0967C13.34 76.1767 13.34 75.2568 13.34 74.3268C13.34 73.3568 13.34 72.3867 13.34 71.4167C13.28 67.8867 13.28 64.4667 13.29 60.3767C13.29 58.9867 13.25 57.5667 13.21 56.2067L13.16 52.2267C13.16 51.6867 13.13 51.1467 13.11 50.5967C13.08 49.6867 13.04 48.7467 13.07 47.7467C13.07 46.8467 13.09 45.9367 13.13 45.0267C13.15 44.1267 13.15 43.1767 13.11 42.1367C13.11 41.8967 13.1 41.6567 13.09 41.4167C13.09 41.2467 13.07 41.0667 13.07 40.8267C13.07 40.7367 13.07 40.6267 13.04 40.5267C13.09 40.4467 13.12 40.3667 13.12 40.2667C13.12 40.0867 13.12 39.9167 13.12 39.7367V39.5267C13.11 39.2067 13.12 38.8867 13.15 38.5167C13.15 38.1667 13.16 37.8267 13.22 37.5267C13.29 37.2567 13.33 36.9767 13.36 36.7167C13.38 36.5567 13.4 36.3967 13.43 36.2467C13.5 35.9467 13.56 35.6467 13.62 35.3367C13.73 34.7767 13.85 34.1967 14.02 33.6767C14.28 33.0467 14.57 32.4767 14.91 31.9567C15.01 31.7867 15.09 31.6167 15.18 31.4367C15.26 31.2567 15.35 31.0767 15.45 30.9167C15.54 30.7867 15.65 30.6667 15.75 30.5467C15.86 30.4267 15.96 30.3067 16.06 30.1767L16.18 30.0167C16.26 29.9067 16.34 29.7967 16.42 29.7067C16.57 29.5467 16.74 29.3967 16.9 29.2467L17.05 29.1067C17.16 29.0167 17.27 28.9167 17.38 28.8167C17.6 28.6167 17.81 28.4267 18.04 28.2767C18.2 28.1567 18.4 28.0767 18.61 27.9867L19.56 27.5567C19.75 27.4767 19.93 27.3867 20.11 27.2967C20.43 27.1367 20.73 26.9867 21.07 26.9067C21.18 26.8767 21.28 26.8567 21.39 26.8367C21.59 26.7967 21.8 26.7667 22 26.6667C22.04 26.6467 22.11 26.6167 22.19 26.5767C22.21 26.5767 22.24 26.5667 22.26 26.5567C22.37 26.5467 22.47 26.4967 22.55 26.4167L22.64 26.2967C22.73 26.1667 22.78 26.0267 22.77 25.8767C22.77 25.7967 22.74 25.7167 22.71 25.6467C22.96 25.6667 23.21 25.6767 23.46 25.6767C23.93 25.6867 24.39 25.6467 24.84 25.6067C25.07 25.5867 25.31 25.5667 25.55 25.5467C25.8 25.5267 26.06 25.5267 26.32 25.5167H26.66C26.88 25.4867 27.09 25.4767 27.32 25.4767C27.59 25.4767 27.87 25.4667 28.15 25.4467C28.39 25.4367 28.64 25.4067 28.88 25.4167C29.58 25.3867 30.28 25.3867 30.99 25.3867C31.32 25.3867 31.65 25.3867 31.97 25.3867C32.44 25.3967 32.89 25.3867 33.36 25.3767H34.02C34.29 25.3567 34.56 25.3367 34.83 25.3267C35.04 25.3167 35.25 25.2967 35.45 25.2867H36.07C36.59 25.2767 37.12 25.2667 37.63 25.2467H37.9C38.14 25.2267 38.38 25.2267 38.58 25.1867C38.61 25.1867 38.64 25.1867 38.66 25.1867C38.68 25.2467 38.71 25.2967 38.75 25.3467C38.72 25.3867 38.69 25.4267 38.68 25.4867C38.63 25.6167 38.62 25.7367 38.62 25.8267V25.9467C38.6 26.1467 38.7 26.3267 38.85 26.4067L38.94 26.4467C38.94 26.4467 39.03 26.4967 39.09 26.5167C39.21 26.5767 39.34 26.5967 39.43 26.6067H39.5C39.61 26.6467 39.72 26.6767 39.83 26.7167C39.93 26.7467 40.02 26.7767 40.08 26.7967C40.33 26.8967 40.59 26.9867 40.79 27.0367C41.19 27.2167 41.6 27.3967 42.01 27.5667L42.34 27.7067C42.56 27.8167 42.76 27.9667 43.02 28.1567C43.1 28.2067 43.17 28.2567 43.25 28.3067C43.31 28.3367 43.37 28.3767 43.42 28.4167C43.64 28.5667 43.85 28.7267 44.04 28.8967C44.12 28.9667 44.19 29.0467 44.26 29.1167C44.37 29.2267 44.48 29.3367 44.61 29.4467C44.76 29.5567 44.87 29.6767 44.98 29.8067C45.05 29.8867 45.12 29.9567 45.19 30.0367C45.28 30.1267 45.36 30.2167 45.45 30.3067C45.57 30.4267 45.68 30.5567 45.78 30.6467C45.88 30.7667 45.96 30.8967 46.03 31.0267C46.09 31.1167 46.14 31.2167 46.2 31.2867C46.25 31.3667 46.3 31.4367 46.35 31.5167C46.42 31.6267 46.49 31.7267 46.54 31.8167C46.65 32.0767 46.78 32.3767 46.94 32.6167C47.01 32.7767 47.07 32.9367 47.13 33.0967C47.18 33.2267 47.22 33.3567 47.27 33.4567C47.36 33.7267 47.43 33.9967 47.49 34.2667L47.54 34.4667C47.62 34.6967 47.66 34.9467 47.7 35.2067L47.72 35.3167C47.8 35.6467 47.85 35.9467 47.86 36.2467C47.9 36.6067 47.94 36.9567 47.97 37.3367C48.02 37.7467 48.05 38.0867 48.05 38.4167C48.06 38.9367 48.08 39.5567 48.05 40.1467C48.02 40.4767 48.02 40.8067 48.01 41.1367V41.4167C47.95 42.3867 48.01 43.3667 48.07 44.3167L48.1 44.7767C48.11 45.1667 48.1 45.5567 48.07 45.9467C48.05 46.2567 48.04 46.5767 48.04 46.8867C48.04 47.4767 48.04 48.0767 48.04 48.6667C48.03 49.6167 48.02 50.6067 48.04 51.5867C48.08 52.6467 48.07 53.7267 48.06 54.7767C48.06 55.6567 48.04 56.5367 48.06 57.4167C48.11 58.4767 48.11 59.5367 48.06 60.5967C48.03 61.6367 48.03 62.6767 48.03 63.7167C48.03 64.3867 48.06 65.0567 48.1 65.7167C48.13 66.2467 48.15 66.7667 48.16 67.2867C48.16 68.7267 48.16 70.2667 48.1 71.7867C48.1 71.9067 48.14 72.0168 48.22 72.1068C48.22 72.1268 48.24 72.1567 48.25 72.1867C48.23 72.3467 48.24 72.5167 48.25 72.6767C48.25 72.7867 48.25 72.8967 48.25 72.9967C48.21 73.3567 48.19 73.7367 48.2 74.2167V74.4367C48.18 74.5967 48.17 74.7667 48.18 74.9267C48.2 75.3767 48.23 75.8367 48.27 76.3167C48.27 76.7967 48.27 77.2967 48.23 77.7767L48.21 77.7667Z" fill="white"/>
<path d="M25.5801 12.4668C25.3101 12.2168 24.9501 11.8968 24.5901 11.6168C24.3201 11.3768 24.1001 11.0968 23.8601 10.7968C23.6401 10.5168 23.4101 10.2368 23.1501 9.98676C23.0701 9.90676 22.9801 9.83676 22.9001 9.77676C22.8201 9.68676 22.7001 9.62676 22.5801 9.62676C22.4701 9.60676 22.3601 9.62676 22.2601 9.68676C22.1501 9.75676 22.0701 9.86676 22.0501 9.99676C22.0101 10.2668 22.2101 10.4168 22.3101 10.4868L22.3601 10.5268C22.6101 10.7568 22.8201 11.0268 23.0501 11.3068L23.1001 11.3768C23.4801 11.9068 23.9301 12.3768 24.5001 12.8168C24.5701 12.8768 24.6301 12.9368 24.7001 13.0068C24.8301 13.1468 24.9801 13.2968 25.1901 13.3868H25.2001C25.2601 13.4168 25.3301 13.4268 25.3901 13.4268C25.5101 13.4268 25.6101 13.3868 25.7001 13.3068C25.8401 13.1868 25.9101 12.9968 25.8701 12.8168C25.8401 12.6568 25.7301 12.5268 25.5801 12.4568V12.4668Z" fill="white"/>
<path d="M31.0302 8.66677C31.1202 8.53677 31.1302 8.35678 31.0402 8.20678C30.9402 8.04678 30.7702 7.97678 30.6002 8.00678C30.3902 8.04678 30.2202 8.22677 30.1802 8.44677C30.1402 8.88677 30.1802 9.32677 30.2002 9.74677C30.2202 9.99677 30.2402 10.2568 30.2402 10.5168C30.2602 10.9068 30.2502 11.3168 30.2402 11.8168C30.2402 11.9468 30.2802 12.0668 30.3802 12.1668C30.4702 12.2668 30.6102 12.3268 30.7402 12.3268C30.8702 12.3268 31.0002 12.2768 31.0902 12.1768C31.1802 12.0768 31.2402 11.9568 31.2302 11.8368C31.2502 11.1368 31.1802 10.4368 31.1102 9.76678C31.0802 9.39678 31.0402 9.03677 31.0202 8.66677H31.0302Z" fill="white"/>
<path d="M39.1899 8.85678C39.0899 8.68678 38.8699 8.61678 38.6999 8.70678C38.4599 8.80678 38.3599 9.03677 38.2899 9.19677L38.2599 9.25678C38.1399 9.53678 38.0099 9.81677 37.8799 10.0868C37.6199 10.6368 37.3599 11.2168 37.1299 11.7968C37.0299 11.9468 36.9899 12.0968 37.0099 12.2368C37.0299 12.3268 37.0799 12.4568 37.2299 12.5568H37.2499C37.3399 12.6168 37.4199 12.6368 37.4899 12.6368C37.5599 12.6368 37.6199 12.6168 37.6599 12.5968C37.9099 12.4868 37.9999 12.1768 38.0399 12.0568L38.0699 11.9668C38.1099 11.8568 38.1399 11.7468 38.1899 11.6268C38.3099 11.2968 38.4399 10.9768 38.5799 10.6468C38.7499 10.2568 38.9199 9.84677 39.0499 9.44677L39.0799 9.37678C39.0799 9.37678 39.0799 9.35678 39.0899 9.34678C39.1499 9.29678 39.1999 9.23677 39.2199 9.16677C39.2599 9.05677 39.2499 8.94678 39.1899 8.84678V8.85678Z" fill="white"/>
<path d="M40.1699 49.0268V49.0068C40.0499 48.7968 39.9299 48.5868 39.7999 48.3868L39.6799 48.1868C39.6299 48.1068 39.5799 48.0268 39.5299 47.9468C39.3599 47.6768 39.1799 47.3768 38.8899 47.1368C38.6999 46.9868 38.4999 46.8768 38.2999 46.7668L38.1599 46.6868C37.8399 46.5068 37.4899 46.3368 37.0699 46.1568C36.6099 45.9468 36.0599 45.7368 35.4699 45.7968C35.0799 45.8068 34.5099 45.8668 34.0299 46.1768C33.8499 46.2868 33.6899 46.3968 33.5199 46.5168L33.3899 46.6068C33.0599 46.8268 32.6899 47.0768 32.4199 47.4368C32.3399 47.5368 32.2599 47.6468 32.1799 47.7468C32.0899 47.8668 31.9999 47.9968 31.8999 48.1168L31.8199 48.2068C31.7099 48.3368 31.5999 48.4768 31.4999 48.6268C31.3599 48.8668 31.2399 49.0968 31.1499 49.3168C30.7999 48.8668 30.4199 48.3868 29.9699 48.0068C29.7099 47.7768 29.4299 47.5668 29.1399 47.3668L29.0399 47.2868C28.8699 47.1668 28.6999 47.0468 28.4999 46.9568C27.9799 46.7268 27.3799 46.5868 26.7099 46.5468C25.9199 46.4868 25.1199 46.6368 24.3799 46.9968C23.9999 47.1968 23.6299 47.4668 23.2899 47.7868C22.7499 48.2668 22.3599 48.7068 22.0999 49.1668C21.7999 49.6268 21.5499 50.1668 21.3199 50.8068C20.9899 51.6868 20.7899 52.5768 20.7199 53.4568C20.6799 54.0068 20.6799 54.4968 20.7199 54.9668C20.7999 55.5468 20.9599 56.1268 21.2099 56.7468C21.4299 57.2768 21.6599 57.8268 22.0099 58.3068C22.4299 58.9368 22.9499 59.4968 23.4399 60.0368L23.5399 60.1468C23.7999 60.4168 24.0799 60.6668 24.3699 60.9068C24.5199 61.0368 24.6599 61.1568 24.8199 61.2968C24.9699 61.4268 25.1199 61.5568 25.2799 61.6768C25.4999 61.8568 25.7299 62.0068 25.9699 62.1668C26.1799 62.3168 26.3999 62.4568 26.5999 62.6168L26.7099 62.7068C26.9399 62.8968 27.1799 63.0868 27.4499 63.2368C27.5799 63.3068 27.7199 63.3768 27.8499 63.4468C28.0099 63.5268 28.1599 63.5968 28.3099 63.6968C28.4699 63.7968 28.6299 63.9068 28.7899 64.0168C29.0199 64.1768 29.2599 64.3368 29.4999 64.4768C29.7499 64.6368 30.0199 64.7668 30.2899 64.8968C30.4499 64.9768 30.6199 65.0568 30.7799 65.1468C30.8599 65.2268 30.9499 65.2768 31.0499 65.2868C31.0899 65.2968 31.1399 65.3068 31.1799 65.3068C31.2799 65.3068 31.3799 65.2768 31.4699 65.2168C31.5599 65.1568 31.6199 65.0668 31.6599 64.9668C31.6999 64.9368 31.7399 64.8968 31.7899 64.8668L32.0199 64.6868C32.2299 64.5268 32.4299 64.3768 32.6099 64.1868C32.6899 64.1068 32.7599 64.0268 32.8299 63.9368C32.8899 63.8668 32.9599 63.7968 33.0299 63.7168C33.1299 63.6068 33.2699 63.5068 33.4199 63.4068C33.5499 63.3168 33.6799 63.2268 33.7999 63.1268C33.9699 62.9768 34.1199 62.8068 34.2599 62.6368C34.3399 62.5368 34.4199 62.4368 34.5099 62.3568C34.6099 62.2668 34.7099 62.1768 34.8099 62.0968C34.9799 61.9568 35.1499 61.8168 35.2999 61.6368C35.4099 61.5168 35.5099 61.3868 35.6099 61.2668C35.6899 61.1668 35.7799 61.0568 35.8599 60.9668C35.9299 60.8868 35.9999 60.8168 36.0799 60.7368C36.1799 60.6368 36.2799 60.5268 36.3699 60.4268C36.4999 60.2668 36.6199 60.1068 36.7299 59.9368L37.0799 59.4668C37.3299 59.1468 37.5699 58.8268 37.7899 58.4868C37.8499 58.3968 37.9199 58.3068 37.9799 58.2168C38.0899 58.0568 38.1999 57.9068 38.3099 57.7368C38.3899 57.6068 38.4599 57.4768 38.5199 57.3468C38.5899 57.2168 38.6599 57.0768 38.7399 56.9468L38.8599 56.7568C38.9599 56.5968 39.0599 56.4468 39.1499 56.2768C39.3099 55.9268 39.4599 55.5768 39.5999 55.2168L39.6899 55.0068C39.7699 54.7768 39.8499 54.5568 39.9399 54.3368C40.0499 54.0568 40.1499 53.7668 40.2499 53.4668C40.4199 52.8968 40.5299 52.2668 40.6099 51.4768C40.6799 50.6468 40.5299 49.7968 40.1899 49.0068L40.1699 49.0268Z" fill="#DA6A98"/>
</svg>
