<svg width="246" height="266" viewBox="0 0 246 266" fill="none" xmlns="http://www.w3.org/2000/svg">
<path d="M153.879 52.6393L153.779 52.8293L153.829 52.6193C153.469 52.5293 153.109 52.4494 152.749 52.3794L152.039 52.2193L152.139 52.2694C150.779 52.0594 149.399 51.9893 148.049 51.9293C146.359 51.8493 144.609 51.7593 142.929 51.3893C142.779 51.3593 142.619 51.3093 142.469 51.2593C142.379 51.2293 142.279 51.1993 142.189 51.1693C142.269 50.8593 142.359 50.5593 142.439 50.2593C142.709 49.2693 143.149 48.3194 143.579 47.4094L143.759 47.0293C144.229 45.9693 144.609 44.8694 144.979 43.7994C145.169 43.2494 145.359 42.6993 145.549 42.1693C146.399 40.0993 146.969 38.0294 147.229 36.0194C147.539 34.1394 147.719 32.6593 146.949 32.1693C146.419 31.8293 145.599 32.0493 144.369 32.8693C143.609 33.3593 142.919 33.9494 142.259 34.5194C141.739 34.9694 141.199 35.4293 140.639 35.8293C138.749 37.2393 136.799 38.6693 134.829 40.0793C134.359 40.3893 133.879 40.6794 133.409 40.9594C132.629 41.4294 131.819 41.9193 131.069 42.4793C129.559 43.6193 128.159 44.9293 126.819 46.1993C126.519 46.4893 126.209 46.7693 125.879 47.0893C125.599 47.0393 125.329 47.0693 125.069 47.0893C124.919 47.1093 124.769 47.1293 124.609 47.1193H124.059C123.109 47.1593 122.209 47.1793 121.239 47.2293L120.629 47.3194C119.879 47.4294 119.109 47.5394 118.319 47.5694C118.149 47.5994 117.919 47.6193 117.659 47.6393C116.639 47.7193 115.249 47.8393 114.799 48.5893C114.609 48.9093 114.609 49.2893 114.839 49.7893C115.449 50.5793 116.319 51.0394 117.159 51.4894C117.649 51.7494 118.159 52.0193 118.589 52.3393C119.549 53.1293 120.719 53.4193 121.859 53.6993C122.379 53.8293 122.909 53.9594 123.389 54.1294C124.229 54.4994 125.049 54.8393 125.959 55.0093C126.479 55.0993 126.949 55.2893 127.439 55.4993C127.529 55.5193 127.609 55.5293 127.699 55.5293C127.819 55.8093 127.949 56.0793 128.079 56.3593C128.289 56.8293 128.509 57.3093 128.719 57.7893L129.299 58.9894C130.099 60.6394 130.919 62.3493 131.639 64.0793C132.019 64.8993 132.459 65.6993 132.889 66.4693C133.229 67.0793 133.579 67.7193 133.899 68.3593C133.809 69.0393 134.069 69.4493 134.679 69.5893C134.739 69.5993 134.789 69.6093 134.849 69.6093C135.229 69.6093 135.579 69.3693 135.739 68.9693C136.139 68.7893 136.469 68.3593 136.739 67.9993C136.799 67.9193 136.859 67.8393 136.929 67.7493C137.289 67.2493 137.689 66.7294 138.179 66.2994C139.239 65.3994 140.419 64.6393 141.549 63.8993C142.269 63.4393 143.009 62.9594 143.719 62.4394C144.269 62.0494 144.799 61.6194 145.319 61.2094C145.899 60.7394 146.499 60.2493 147.129 59.8393C148.489 58.9693 149.819 57.9593 151.179 56.7293C151.879 56.1193 152.709 55.5293 153.519 54.9693L153.709 54.8293C154.229 54.5293 154.559 54.0294 154.549 53.5494C154.549 53.1694 154.319 52.8493 153.929 52.6393H153.879ZM138.339 56.5393C138.009 57.2893 137.669 58.0694 137.389 58.8494C137.129 59.5194 136.889 60.2394 136.659 60.9394C136.239 62.1894 135.809 63.4893 135.229 64.6493L135.129 64.8794C134.989 65.1794 134.859 65.4793 134.729 65.7793L134.569 65.4894C134.169 64.7694 133.749 64.0194 133.389 63.2694C132.639 61.4994 131.789 59.7393 130.969 58.0393C130.239 56.5393 129.489 54.9793 128.809 53.4193L128.489 52.6793V52.7293C128.329 52.4293 128.179 52.1293 128.019 51.8293C127.479 50.7693 126.909 49.6794 126.589 48.5194C126.579 48.4894 126.569 48.4494 126.549 48.4094C127.419 47.7594 128.269 47.0493 129.089 46.3593C130.269 45.3693 131.479 44.3493 132.789 43.4993C133.299 43.1793 133.819 42.8693 134.339 42.5593C135.089 42.1193 135.859 41.6593 136.599 41.1493C137.269 40.6593 137.939 40.1793 138.609 39.6993C139.939 38.7493 141.309 37.7694 142.599 36.7394C143.039 36.4194 143.449 36.0693 143.839 35.7193C144.379 35.2493 144.899 34.7994 145.479 34.4394C145.299 35.8594 145.059 37.4693 144.609 39.0393C144.409 39.6593 144.169 40.2794 143.949 40.8794C143.749 41.4194 143.539 41.9593 143.359 42.4993L143.339 42.5593C142.819 44.0893 142.279 45.6693 141.549 47.1393C140.859 48.5593 140.449 50.0893 140.059 51.5793C139.799 52.5593 139.529 53.5693 139.189 54.5293C138.939 55.1893 138.649 55.8593 138.369 56.4993L138.339 56.5393ZM137.879 63.4594C138.089 62.8994 138.269 62.3193 138.459 61.7493C138.669 61.1093 138.879 60.4594 139.119 59.8194C139.409 58.9894 139.779 58.1493 140.129 57.3393C140.429 56.6393 140.749 55.9193 141.019 55.1993C141.309 54.3993 141.549 53.5493 141.789 52.6793C142.259 52.9093 142.779 53.0493 143.279 53.1793L143.439 53.2193C145.039 53.5893 146.699 53.7193 148.299 53.8393C149.279 53.9093 150.279 53.9893 151.259 54.1193C150.489 54.6893 149.759 55.3193 149.049 55.9293L148.589 56.3293C147.879 56.9393 147.089 57.4694 146.319 57.9894C146.079 58.1494 145.839 58.3194 145.589 58.4894C145.169 58.8094 144.749 59.1394 144.339 59.4594C143.119 60.4194 141.849 61.3993 140.489 62.2293C139.549 62.8193 138.519 63.4793 137.559 64.2493C137.669 63.9893 137.779 63.7293 137.879 63.4693V63.4594ZM126.609 53.1493C126.529 53.1293 126.449 53.1094 126.369 53.0994C126.039 53.0294 125.699 52.9493 125.369 52.8393L124.879 52.6393C124.289 52.3893 123.679 52.1293 123.049 51.9793C122.769 51.8993 122.489 51.8293 122.199 51.7593C121.599 51.6193 120.979 51.4694 120.429 51.2094C120.229 51.0994 120.029 50.9693 119.849 50.8393C119.349 50.4593 118.729 50.1193 118.139 49.7893C118.009 49.7193 117.879 49.6494 117.749 49.5694C118.079 49.5394 118.409 49.5094 118.739 49.4894C119.139 49.4594 119.539 49.4294 119.949 49.3794C120.159 49.3494 120.369 49.3093 120.579 49.2793C121.019 49.1993 121.449 49.1293 121.889 49.1193C122.289 49.0893 122.699 49.0693 123.109 49.0593C123.759 49.0293 124.429 49.0093 125.079 48.9193C125.159 49.6793 125.389 50.4693 125.769 51.2893C125.999 51.7793 126.219 52.2793 126.439 52.7793L126.609 53.1594V53.1493Z" fill="#FF76B4"/>
<path d="M177.779 219.26C173.969 217.2 169.529 216.71 165.649 214.8C165.279 214.63 164.949 214.37 164.579 214.21C164.809 213.79 165.039 213.38 165.269 212.97C165.949 211.75 166.849 210.68 167.719 209.59C168.969 207.98 169.989 206.21 171.129 204.52C172.579 202.53 173.849 200.32 174.739 198C175.909 195.28 177.059 192.4 172.709 193.98C170.939 194.6 169.359 195.63 167.619 196.33C165.009 197.44 162.389 198.53 159.749 199.57C158.099 200.16 156.389 200.58 154.779 201.27C152.249 202.35 149.879 203.78 147.479 205.12C147.459 205.12 147.449 205.14 147.429 205.15C146.969 204.89 146.399 204.92 145.889 204.79C144.599 204.51 143.339 204.23 142.029 203.98C140.879 203.87 139.719 203.79 138.589 203.55C137.349 203.44 133.879 202.45 134.279 204.7C135.009 206.34 136.719 207.25 137.829 208.6C139.059 210.24 141.119 210.85 142.779 211.95C143.619 212.59 144.459 213.21 145.419 213.64C145.989 213.89 146.479 214.23 146.989 214.62C147.129 214.69 147.269 214.73 147.399 214.73C147.589 215.75 147.789 216.77 147.969 217.8C148.529 220.47 149.139 223.13 149.549 225.83C149.929 227.73 150.539 229.56 150.959 231.45C150.739 231.95 150.679 232.47 151.319 232.78C151.759 232.98 152.189 232.73 152.419 232.35C153.009 232.31 153.649 231.69 154.099 231.34C154.689 230.84 155.299 230.35 155.989 229.99C158.389 228.78 160.949 228.13 163.449 227.11C165.019 226.49 166.499 225.65 168.089 225.07C169.979 224.43 171.799 223.61 173.559 222.66C174.629 222.11 175.899 221.62 177.049 221.17C177.949 220.9 178.649 219.99 177.799 219.23L177.779 219.26ZM145.019 211.49C144.259 210.93 143.509 210.34 142.669 209.9C141.719 209.36 140.689 208.94 139.829 208.26C139.619 208.07 139.429 207.86 139.239 207.64C138.519 206.75 137.419 205.88 136.579 205.03C137.729 205.13 138.859 205.38 139.999 205.53C140.779 205.6 141.559 205.6 142.319 205.77C143.639 205.98 144.979 206.35 146.339 206.46C146.139 207.49 146.209 208.55 146.419 209.58C146.609 210.57 146.779 211.56 146.969 212.55C146.349 212.19 145.669 211.93 145.019 211.5V211.49ZM148.699 213C148.299 210.91 147.589 208.86 147.529 206.72C147.529 206.61 147.509 206.5 147.499 206.38C150.449 205.15 153.209 203.47 156.239 202.41C157.899 201.85 159.609 201.41 161.249 200.79C163.949 199.66 166.699 198.65 169.359 197.41C170.889 196.79 172.269 195.8 173.889 195.42C173.169 197.34 172.389 199.26 171.369 201.04C170.599 202.27 169.739 203.44 168.959 204.67C167.899 206.33 166.839 208 165.559 209.52C163.599 211.88 162.479 214.77 160.799 217.31C159.769 218.81 158.569 220.2 157.569 221.73C156.229 223.68 155.009 225.96 153.449 227.79C153.029 228.33 152.599 228.87 152.189 229.43C151.839 228.15 151.469 226.87 151.189 225.57C150.499 221.37 149.429 217.23 148.689 213H148.699ZM171.009 222.06C169.709 222.72 168.319 223.18 166.949 223.7C164.659 224.7 162.419 225.81 160.029 226.57C158.299 227.15 156.549 227.75 154.969 228.65C155.449 228.05 155.919 227.44 156.349 226.82C157.189 225.56 157.929 224.24 158.789 222.99C159.859 221.35 161.159 219.84 162.259 218.22C162.879 217.29 163.449 216.26 164.009 215.24C164.559 215.79 165.289 216.16 165.959 216.53C168.919 218.03 172.259 218.73 175.329 220.03C173.829 220.59 172.419 221.35 170.999 222.07L171.009 222.06Z" fill="#FF76B4"/>
<path d="M171.289 185.18C168.349 181.99 164.309 180.08 161.259 177.02C160.969 176.74 160.729 176.39 160.439 176.11C160.789 175.79 161.149 175.47 161.499 175.16C162.539 174.23 163.739 173.51 164.909 172.76C166.619 171.64 168.159 170.3 169.789 169.08C171.809 167.67 173.729 165.99 175.329 164.09C177.319 161.9 179.349 159.55 174.719 159.63C172.849 159.63 171.009 160.09 169.139 160.19C166.309 160.39 163.479 160.56 160.649 160.7C158.899 160.72 157.139 160.56 155.399 160.69C152.649 160.89 149.939 161.47 147.239 161.96C147.219 161.96 147.199 161.96 147.189 161.97C146.839 161.57 146.289 161.41 145.849 161.13C144.719 160.44 143.619 159.77 142.459 159.11C141.409 158.62 140.339 158.18 139.339 157.59C138.199 157.08 135.249 155.02 134.889 157.27C135.049 159.06 136.369 160.48 136.969 162.12C137.599 164.07 139.349 165.32 140.559 166.89C141.139 167.76 141.739 168.63 142.499 169.35C142.959 169.77 143.309 170.25 143.659 170.79C143.779 170.9 143.889 170.98 144.009 171.03C143.849 172.06 143.709 173.09 143.549 174.12C143.209 176.83 142.929 179.54 142.429 182.23C142.169 184.15 142.159 186.08 141.939 188C141.569 188.4 141.339 188.87 141.839 189.38C142.189 189.71 142.679 189.62 143.019 189.34C143.589 189.49 144.399 189.11 144.939 188.94C145.659 188.66 146.399 188.39 147.169 188.28C149.839 187.91 152.459 188.13 155.159 187.99C156.849 187.92 158.519 187.6 160.209 187.57C162.209 187.58 164.189 187.39 166.169 187.07C167.359 186.89 168.709 186.85 169.949 186.8C170.899 186.84 171.849 186.21 171.289 185.2V185.18ZM142.839 167.17C142.299 166.4 141.789 165.59 141.129 164.9C140.409 164.08 139.569 163.35 138.979 162.42C138.849 162.17 138.729 161.91 138.619 161.65C138.219 160.57 137.469 159.39 136.949 158.31C138.009 158.77 138.989 159.38 140.019 159.89C140.729 160.22 141.469 160.46 142.139 160.87C143.319 161.5 144.469 162.28 145.709 162.82C145.189 163.73 144.909 164.76 144.769 165.8C144.629 166.8 144.469 167.79 144.319 168.79C143.849 168.25 143.289 167.78 142.819 167.17H142.839ZM145.829 169.79C146.129 167.68 146.129 165.52 146.769 163.47C146.799 163.37 146.819 163.25 146.849 163.14C150.039 162.94 153.189 162.25 156.409 162.23C158.169 162.23 159.919 162.38 161.669 162.33C164.589 162.15 167.529 162.08 170.439 161.78C172.089 161.69 173.709 161.2 175.369 161.37C174.069 162.95 172.699 164.51 171.159 165.86C170.029 166.78 168.839 167.6 167.699 168.5C166.149 169.73 164.609 170.96 162.909 171.98C160.289 173.57 158.289 175.94 155.869 177.79C154.409 178.88 152.819 179.8 151.379 180.91C149.469 182.31 147.589 184.07 145.519 185.3C144.939 185.67 144.369 186.04 143.799 186.44C143.889 185.12 143.949 183.79 144.109 182.47C144.829 178.27 145.159 174.01 145.839 169.77L145.829 169.79ZM163.979 185.62C162.529 185.82 161.069 185.8 159.609 185.85C157.119 186.05 154.639 186.37 152.139 186.31C150.319 186.3 148.459 186.29 146.679 186.62C147.329 186.21 147.969 185.79 148.579 185.34C149.779 184.43 150.919 183.42 152.129 182.52C153.679 181.32 155.389 180.31 156.969 179.14C157.859 178.46 158.729 177.68 159.599 176.89C159.939 177.59 160.499 178.18 161.019 178.75C163.329 181.14 166.259 182.88 168.739 185.11C167.139 185.16 165.559 185.41 163.979 185.63V185.62Z" fill="#FF76B4"/>
<path d="M105.379 182.21C106.789 186.31 109.709 189.69 111.269 193.72C111.429 194.1 111.499 194.51 111.659 194.88C111.209 195.03 110.759 195.18 110.309 195.32C108.979 195.76 107.599 195.93 106.219 196.14C104.209 196.48 102.259 197.08 100.279 197.55C97.8586 198.03 95.4286 198.79 93.2086 199.89C90.5086 201.09 87.6986 202.43 91.9686 204.22C93.6886 204.97 95.5486 205.29 97.3086 205.95C99.9786 206.9 102.639 207.89 105.289 208.91C106.899 209.6 108.439 210.45 110.099 211.04C112.699 211.96 115.409 212.52 118.079 213.16C118.099 213.16 118.119 213.16 118.139 213.16C118.299 213.67 118.739 214.03 119.019 214.47C119.779 215.55 120.509 216.61 121.309 217.68C122.069 218.55 122.879 219.38 123.549 220.33C124.389 221.26 126.259 224.33 127.499 222.41C128.079 220.7 127.439 218.88 127.539 217.13C127.749 215.09 126.649 213.24 126.179 211.31C125.999 210.28 125.799 209.25 125.389 208.28C125.139 207.71 125.009 207.13 124.899 206.5C124.839 206.35 124.759 206.23 124.669 206.14C125.229 205.26 125.769 204.37 126.329 203.5C127.729 201.16 129.079 198.79 130.619 196.53C131.629 194.88 132.419 193.11 133.399 191.44C133.899 191.22 134.299 190.89 134.039 190.22C133.849 189.77 133.369 189.67 132.939 189.79C132.479 189.42 131.589 189.44 131.019 189.39C130.239 189.36 129.469 189.31 128.719 189.1C126.129 188.36 123.819 187.11 121.279 186.15C119.709 185.53 118.049 185.15 116.489 184.5C114.659 183.69 112.769 183.06 110.839 182.56C109.679 182.24 108.419 181.74 107.269 181.29C106.419 180.87 105.289 181.07 105.399 182.21H105.379ZM124.169 210.15C124.349 211.08 124.489 212.02 124.819 212.91C125.149 213.95 125.629 214.96 125.789 216.05C125.809 216.33 125.809 216.62 125.799 216.9C125.729 218.05 125.939 219.43 125.979 220.62C125.199 219.77 124.549 218.82 123.799 217.94C123.279 217.36 122.699 216.83 122.249 216.19C121.419 215.13 120.679 213.96 119.769 212.96C120.609 212.34 121.279 211.51 121.829 210.62C122.359 209.76 122.909 208.92 123.439 208.06C123.649 208.74 123.979 209.4 124.159 210.15H124.169ZM122.489 206.55C121.359 208.35 120.499 210.34 119.089 211.95C119.019 212.03 118.949 212.13 118.879 212.22C115.879 211.12 112.709 210.48 109.769 209.21C108.169 208.49 106.619 207.66 104.989 207C102.239 205.99 99.5286 204.87 96.7386 203.98C95.1886 203.4 93.5086 203.19 92.0586 202.36C93.8786 201.43 95.7686 200.56 97.7186 199.94C99.1186 199.55 100.549 199.28 101.949 198.91C103.859 198.4 105.769 197.9 107.729 197.66C110.769 197.26 113.549 195.89 116.509 195.17C118.289 194.76 120.109 194.56 121.879 194.12C124.189 193.6 126.619 192.75 129.019 192.46C129.699 192.35 130.379 192.24 131.049 192.11C130.429 193.28 129.849 194.48 129.169 195.62C126.819 199.17 124.799 202.94 122.479 206.55H122.489ZM112.249 184.76C113.649 185.16 114.989 185.76 116.339 186.31C118.699 187.13 121.099 187.83 123.359 188.89C125.019 189.63 126.719 190.38 128.489 190.8C127.729 190.92 126.969 191.05 126.229 191.21C124.759 191.56 123.319 192.03 121.839 192.36C119.939 192.84 117.959 193.07 116.059 193.51C114.969 193.77 113.859 194.14 112.749 194.51C112.719 193.73 112.439 192.96 112.199 192.24C111.039 189.12 109.069 186.35 107.689 183.31C109.169 183.91 110.719 184.32 112.259 184.75L112.249 184.76Z" fill="#FF76B4"/>
<path d="M188.189 228.8V228.76C188.079 227.77 188.009 226.75 187.969 225.58C187.909 224.96 187.939 224.33 187.969 223.67V223.42C187.989 223.08 187.989 222.76 187.989 222.43C187.989 221.92 187.989 221.44 188.029 220.94C188.119 220.08 188.199 219.17 188.109 218.3C188.109 218.16 188.109 218.01 188.129 217.87C188.149 217.61 188.159 217.35 188.129 217.04C188.069 216.58 187.939 216.11 187.729 215.65C187.739 215.21 187.759 214.76 187.779 214.32L187.819 213.33C187.819 212.23 187.839 211.12 187.849 210.02C187.869 208.18 187.899 206.33 187.879 204.5C187.889 202.3 187.789 200.08 187.679 197.94C187.569 195.58 187.449 193.14 187.489 190.73C187.449 188.52 187.509 186.27 187.569 184.09C187.619 182.02 187.679 179.87 187.649 177.74C187.629 176.9 187.609 176.06 187.589 175.22C187.539 173.56 187.499 171.85 187.519 170.16C187.519 168.91 187.539 167.66 187.549 166.41C187.569 164.55 187.599 162.63 187.569 160.75C187.569 159.48 187.539 158.2 187.499 156.96C187.479 156.37 187.459 155.77 187.449 155.18C187.429 154 187.449 152.81 187.449 151.63C187.449 151 187.469 150.36 187.469 149.73V147.5C187.489 144.75 187.489 141.9 187.659 139.09C187.699 137.47 187.599 135.85 187.499 134.28C187.409 132.71 187.309 131.09 187.349 129.5C187.389 126.96 187.459 125.02 187.559 123.15V122.29C187.579 120.23 187.599 118.1 187.379 115.96C187.319 115.47 187.269 114.98 187.229 114.48C187.179 113.85 187.119 113.19 187.029 112.6L186.989 112.1C186.909 111.14 186.819 110.15 186.559 109.24C186.509 109 186.479 108.76 186.439 108.51C186.389 108.18 186.339 107.84 186.259 107.51C186.199 107.23 186.119 106.96 186.049 106.69C185.979 106.44 185.909 106.2 185.859 105.95C185.579 104.59 185.209 103.36 184.759 102.33C184.699 102.16 184.639 101.99 184.569 101.82C184.399 101.35 184.229 100.86 183.929 100.32C183.609 99.81 183.359 99.25 183.099 98.65L182.959 98.35C182.629 97.7 182.229 97.11 181.849 96.53C181.569 96.12 181.289 95.71 181.049 95.27C180.699 94.66 180.249 94.1 179.759 93.66L179.169 93.04C178.799 92.65 178.429 92.25 178.099 91.93C177.609 91.37 177.019 90.72 176.369 90.23C176.119 90 175.889 89.76 175.649 89.52C175.199 89.06 174.729 88.58 174.209 88.19C173.479 87.59 172.649 87.02 171.679 86.45L171.379 86.22C170.859 85.83 170.319 85.43 169.679 85.08C168.869 84.66 168.039 84.32 167.229 83.98C166.609 83.72 165.979 83.46 165.429 83.2C164.899 82.91 164.369 82.75 163.849 82.6C163.489 82.49 163.149 82.39 162.809 82.24C162.439 82.09 162.059 81.98 161.669 81.87L161.449 81.81C161.169 81.7 160.889 81.62 160.609 81.56C160.799 81.21 160.889 80.83 160.859 80.44L160.839 80.31C160.779 80.04 160.669 79.79 160.529 79.58C160.639 79.39 160.689 79.21 160.719 79.05C160.829 78.46 160.619 77.93 160.349 77.49C160.769 77.06 160.879 76.61 160.889 76.29C160.919 75.57 160.499 74.99 160.039 74.5C159.829 74.09 159.439 73.8 158.979 73.73C158.239 73.61 157.529 74.04 157.309 74.75C157.149 75.25 157.269 75.76 157.609 76.13C157.139 76.69 156.749 77.52 157.429 78.41L157.519 78.51C157.519 78.51 157.539 78.53 157.549 78.54C157.369 78.78 157.229 79.06 157.189 79.4C157.139 79.81 157.249 80.2 157.539 80.56C157.449 80.67 157.369 80.81 157.319 80.96C157.169 81.33 157.149 81.68 157.129 81.96C157.129 82.05 157.129 82.13 157.099 82.31C157.069 82.86 157.359 83.39 157.819 83.66C157.899 83.71 157.989 83.75 158.059 83.78C158.189 83.87 158.339 83.93 158.489 83.97C158.849 84.14 159.199 84.19 159.479 84.23C159.569 84.24 159.649 84.25 159.679 84.26C159.999 84.34 160.319 84.45 160.629 84.55C160.889 84.64 161.159 84.73 161.429 84.8C162.179 85.11 162.869 85.34 163.539 85.52C164.719 86.05 165.909 86.56 167.099 87.07L167.979 87.45C168.609 87.76 169.189 88.2 169.809 88.66L169.959 88.77C170.179 88.92 170.399 89.06 170.629 89.19C170.799 89.29 170.969 89.39 171.139 89.5C171.809 89.96 172.419 90.43 172.959 90.91C173.189 91.11 173.399 91.34 173.609 91.56C173.909 91.88 174.219 92.2 174.629 92.53C175.029 92.83 175.349 93.18 175.729 93.59C175.929 93.81 176.129 94.03 176.349 94.25C176.609 94.51 176.859 94.78 177.119 95.05C177.459 95.41 177.799 95.77 178.079 96.05C178.349 96.37 178.579 96.75 178.819 97.15C178.989 97.42 179.159 97.7 179.309 97.92C179.449 98.15 179.599 98.37 179.749 98.59C179.969 98.91 180.169 99.21 180.309 99.47C180.619 100.18 180.999 101.05 181.489 101.87C181.679 102.3 181.849 102.74 182.019 103.21C182.159 103.58 182.289 103.96 182.419 104.27C182.689 105.05 182.869 105.83 183.059 106.66L183.189 107.22C183.409 107.9 183.529 108.62 183.649 109.38L183.709 109.71C183.949 110.69 184.079 111.56 184.119 112.44C184.229 113.4 184.369 114.49 184.439 115.61C184.589 116.81 184.659 117.8 184.659 118.75C184.699 120.26 184.729 122.04 184.659 123.8C184.589 124.77 184.569 125.74 184.549 126.68L184.529 127.49C184.379 130.32 184.549 133.17 184.709 135.92L184.789 137.28C184.819 138.41 184.769 139.58 184.709 140.71C184.669 141.62 184.619 142.52 184.619 143.44C184.619 145.17 184.609 146.91 184.589 148.64C184.559 151.42 184.529 154.3 184.619 157.15C184.739 160.24 184.699 163.4 184.669 166.45C184.639 168.97 184.609 171.57 184.669 174.16C184.809 177.24 184.809 180.36 184.689 183.43C184.619 186.32 184.589 189.29 184.609 192.52C184.609 194.48 184.709 196.45 184.799 198.36C184.879 199.87 184.949 201.44 184.979 202.96C184.989 207.83 184.969 211.92 184.809 216.08C184.809 216.42 184.919 216.75 185.129 217.01C185.139 217.05 185.159 217.08 185.169 217.12C185.199 217.19 185.229 217.27 185.249 217.24C185.189 217.74 185.209 218.22 185.229 218.68C185.239 219.01 185.259 219.33 185.229 219.62C185.109 220.67 185.059 221.77 185.079 223.17C185.079 223.38 185.059 223.59 185.049 223.8C185.029 224.26 184.999 224.74 185.029 225.24C185.079 226.41 185.149 227.79 185.289 229.11V229.25C185.309 230.68 185.329 232.16 185.189 233.55C185.159 233.76 185.129 233.97 185.089 234.18C185.019 234.59 184.949 235.01 184.929 235.46V235.57C184.919 236.06 184.909 236.52 184.809 236.92C184.759 237.13 184.619 237.36 184.469 237.62C184.339 237.84 184.209 238.06 184.109 238.29C184.029 238.46 183.959 238.63 183.889 238.8L183.779 239.05C183.309 240.08 182.829 240.96 182.349 241.7C182.089 242.04 181.739 242.34 181.359 242.65C181.189 242.79 181.029 242.93 180.899 243.05C180.729 243.19 180.569 243.34 180.409 243.49C180.219 243.67 180.049 243.83 179.869 243.96C179.579 244.1 179.249 244.22 178.909 244.34C178.529 244.48 178.159 244.61 177.799 244.78C174.529 245.87 171.149 245.99 167.089 246.04C166.109 246.02 165.129 246.04 164.149 246.04C163.229 246.04 162.309 246.05 161.399 246.04C160.689 246.03 159.989 246.01 159.279 245.99C156.659 245.92 153.939 245.85 151.269 245.98C147.669 246.11 143.989 245.95 140.429 245.8L139.899 245.78C138.989 245.78 138.069 245.76 137.159 245.74C135.499 245.71 133.789 245.67 132.079 245.74C130.269 245.81 128.409 245.8 126.609 245.79C124.929 245.79 123.199 245.77 121.489 245.83C120.659 245.86 119.819 245.9 118.989 245.95C118.009 246 117.019 246.05 116.049 246.08C114.859 246.08 113.669 246.08 112.489 246.06C111.609 246.05 110.729 246.04 109.839 246.03C108.329 246.03 106.819 246.03 105.309 246.03C103.539 246.03 101.759 246.04 100.009 246.03C97.9092 245.96 95.7592 245.74 93.6792 245.51L93.0492 245.44C92.8192 245.25 92.5292 245.13 92.2092 245.12C91.9392 245.09 91.6692 245.06 91.3992 245.04C90.4792 244.96 89.6092 244.88 88.8792 244.54C87.5192 243.89 86.5592 242.61 85.8692 241.55C85.6292 241.19 85.3692 240.84 85.1092 240.49L84.9292 240.26C84.5392 239.64 84.2592 238.93 84.0992 238.14C83.6692 235.83 83.4292 233.58 83.3692 231.49C83.3692 228.8 83.3692 226.1 83.3692 223.41C83.3692 220.59 83.3692 217.76 83.3692 214.92C83.1692 203.88 83.1892 192.63 83.2192 182.7C83.2392 178.63 83.0992 174.5 82.9692 170.51L82.9292 169.24C82.9192 167.58 82.8992 165.93 82.8792 164.27C82.8592 162.49 82.8392 160.72 82.8192 158.94C82.7992 157.35 82.7392 155.77 82.6792 154.18C82.5792 151.53 82.4792 148.79 82.5692 146.08V145.78C82.5992 143.21 82.6192 140.56 82.7392 137.94C82.8092 135.3 82.7892 132.54 82.6892 129.51C82.6892 128.8 82.6492 128.09 82.6192 127.38C82.5992 126.88 82.5692 126.38 82.5592 125.86V125.7C82.5392 125.42 82.5292 125.12 82.4692 124.79C82.6192 124.56 82.6992 124.29 82.6992 124.05C82.7192 123.53 82.6992 123 82.6892 122.48L82.6692 121.88C82.6492 121.05 82.6792 120.13 82.7592 119.03V118.92C82.7792 117.9 82.7892 116.93 82.9692 116.06C83.1792 115.26 83.2792 114.47 83.3692 113.71C83.4292 113.23 83.4792 112.76 83.5592 112.33C83.7692 111.45 83.9492 110.56 84.1292 109.68C84.4592 108.05 84.8092 106.36 85.2792 104.84C86.0192 103.02 86.8892 101.33 87.8692 99.81C88.1792 99.31 88.4192 98.79 88.6492 98.29C88.9092 97.74 89.1492 97.22 89.4492 96.77C89.6992 96.41 90.0092 96.07 90.3292 95.7C90.6492 95.34 90.9592 94.98 91.2292 94.61C91.3492 94.45 91.4692 94.29 91.5892 94.13C91.8192 93.82 92.0492 93.5 92.2892 93.23C92.7192 92.77 93.1892 92.35 93.6892 91.9L94.1492 91.49C94.4792 91.21 94.7992 90.92 95.1192 90.64C95.7592 90.06 96.3692 89.52 97.0492 89.05C97.5192 88.72 98.0892 88.48 98.6892 88.23C98.8792 88.15 99.0592 88.07 99.2592 87.99C99.6392 87.82 100.019 87.64 100.399 87.46C100.759 87.29 101.129 87.12 101.469 86.96C102.019 86.73 102.549 86.46 103.079 86.19C104.009 85.72 104.889 85.27 105.879 85.05C106.189 84.96 106.499 84.91 106.819 84.85C107.409 84.74 108.009 84.63 108.619 84.37C108.729 84.32 108.949 84.23 109.169 84.1C109.229 84.09 109.289 84.07 109.349 84.05C109.669 84.01 109.969 83.86 110.179 83.65C110.279 83.55 110.359 83.44 110.429 83.32C110.709 82.94 110.849 82.51 110.829 82.08C110.809 81.64 110.629 81.29 110.419 81.03C110.529 80.9 110.629 80.74 110.699 80.55C111.029 79.74 110.699 79.12 110.319 78.7C110.529 78.51 110.749 78.27 110.919 77.92C111.229 77.21 111.009 76.67 110.689 76.3C110.809 76.15 110.909 75.98 110.959 75.8C111.179 75.16 110.959 74.5 110.399 74.15C109.899 73.83 109.259 73.85 108.769 74.19C108.659 74.24 108.559 74.31 108.459 74.38L108.289 74.46L108.209 74.55H108.199L108.179 74.57L108.159 74.6C108.089 74.68 108.019 74.77 107.949 74.85C107.899 74.91 107.849 74.98 107.769 75.06C107.259 75.64 107.219 76.21 107.269 76.58C107.309 76.84 107.409 77.09 107.559 77.32C107.119 77.84 106.769 78.57 107.109 79.5C107.179 79.65 107.269 79.79 107.359 79.9C107.199 80.12 107.089 80.34 107.039 80.58C106.949 80.97 106.989 81.36 107.189 81.75C107.119 81.79 107.039 81.84 106.979 81.89H106.959C105.879 82.07 104.749 82.28 103.669 82.71C102.979 83.01 102.329 83.33 101.669 83.66C100.989 83.99 100.289 84.34 99.5192 84.67C98.9892 84.94 98.4492 85.17 97.9092 85.4C97.3092 85.66 96.6992 85.92 96.0492 86.26C94.8292 86.97 93.8092 87.9 92.8292 88.8C92.4392 89.16 92.0492 89.51 91.6192 89.88L91.3892 90.08C90.8192 90.59 90.2292 91.12 89.7192 91.8C89.1092 92.65 88.4192 93.51 87.5292 94.51C86.8692 95.29 86.4592 96.15 86.0692 96.99C85.7992 97.57 85.5392 98.12 85.2092 98.62C84.6092 99.52 84.1392 100.48 83.6792 101.41L83.4092 101.95C83.0792 102.61 82.6592 103.49 82.3892 104.44C81.9792 105.87 81.6792 107.33 81.3792 108.74C81.2492 109.36 81.1292 109.97 80.9892 110.58C80.7292 111.69 80.5792 112.56 80.4992 113.4C80.4492 114.06 80.3092 114.72 80.1592 115.42L80.1192 115.62C79.9292 116.57 79.9092 117.51 79.8892 118.41C79.8892 118.66 79.8792 118.91 79.8692 119.11C79.7692 120.23 79.7892 121.34 79.8092 122.41C79.8092 122.68 79.8092 122.96 79.8192 123.23L79.8592 124.91C79.7892 125.54 79.7992 126.16 79.7992 126.77C79.7992 127 79.7992 127.22 79.7992 127.48L79.8392 129.5C79.8792 131.66 79.9292 133.89 79.8992 136.08C79.8792 137.57 79.8292 139.04 79.7592 140.81C79.7192 142.64 79.6992 144.47 79.6892 146.31L79.6592 149.08C79.6792 150.68 79.7392 152.29 79.7992 153.89C79.8392 155.01 79.8792 156.14 79.9092 157.26C79.9792 160.71 80.0092 164.16 80.0392 167.61L80.1192 171.14C80.2192 174.33 80.3292 177.62 80.3492 180.85V185.18C80.3292 194.86 80.3192 204.86 80.4992 214.7C80.5092 217.48 80.4992 220.25 80.4992 223.03C80.4992 224.79 80.4992 226.54 80.4992 228.28C80.4292 232.63 80.7192 236.11 81.4292 239.29C81.7492 240.46 82.2292 241.46 82.8492 242.24C83.0992 242.57 83.3292 242.9 83.5692 243.24C84.1592 244.08 84.7692 244.96 85.5792 245.68C87.5992 247.56 89.4292 247.74 91.7392 247.93C93.1792 248.33 94.6192 248.48 95.6892 248.56C98.5792 248.91 101.419 248.9 104.039 248.85C105.489 248.86 106.959 248.85 108.419 248.85H110.359C111.009 248.85 111.649 248.86 112.289 248.87C113.229 248.88 114.169 248.9 115.109 248.9C116.499 248.9 117.909 248.84 119.269 248.76C120.079 248.72 120.889 248.67 121.699 248.65C123.269 248.6 124.879 248.61 126.429 248.62C127.269 248.62 128.099 248.63 128.929 248.62C130.069 248.62 131.199 248.59 132.329 248.55L133.529 248.51C137.639 248.54 141.819 248.68 145.859 248.82H146.279C148.199 248.87 150.139 248.82 152.019 248.78C153.009 248.76 154.009 248.73 154.979 248.72C156.129 248.72 157.289 248.76 158.439 248.79C159.209 248.81 159.989 248.83 160.759 248.85C161.869 248.88 162.969 248.87 164.069 248.85C164.769 248.85 165.479 248.84 166.189 248.85C169.559 248.85 172.839 248.8 176.119 248.14C176.399 248.06 176.689 248 176.969 247.93C177.549 247.8 178.149 247.66 178.739 247.44L178.839 247.4C179.179 247.23 179.539 247.11 179.889 246.98C180.329 246.82 180.779 246.66 181.229 246.43L181.319 246.38C181.809 246.07 182.199 245.7 182.589 245.34C182.819 245.13 183.049 244.91 183.309 244.71C184.209 243.98 184.809 243.27 185.179 242.51C185.279 242.32 185.389 242.13 185.489 241.94C185.739 241.49 186.009 241.02 186.219 240.54C186.309 240.34 186.399 240.15 186.479 239.95C186.609 239.65 186.729 239.36 186.869 239.11C187.179 238.62 187.509 238.02 187.629 237.32C187.729 236.83 187.749 236.37 187.759 235.93C187.759 235.68 187.779 235.43 187.789 235.25C188.039 233.84 188.149 232.56 188.119 231.37C188.119 231.13 188.119 230.89 188.129 230.65C188.139 230.04 188.149 229.42 188.109 228.79L188.189 228.8Z" fill="white"/>
<path d="M101.359 236.14H34.3887V251.54H101.359V236.14Z" fill="#2F2E2E"/>
<path d="M43.2188 254.489C42.9788 254.489 42.7387 254.489 42.4987 254.479C41.7387 254.489 40.8987 254.459 39.9887 254.389C39.6087 254.489 39.2687 254.479 39.0687 254.469H38.9987L36.9887 254.389C36.5887 254.369 36.2788 254.359 35.9688 254.359H35.8588L35.7487 254.349C35.6387 254.339 35.5287 254.339 35.4187 254.339C34.9587 254.339 34.3288 254.319 33.6788 253.999L33.4187 253.849C33.1487 253.659 32.9287 253.399 32.7787 253.119C32.2387 252.409 32.2288 251.459 32.2188 250.839C32.2188 250.719 32.2188 250.609 32.2188 250.519C32.1088 249.429 32.0787 248.449 32.0587 247.499C32.0587 247.109 32.0387 246.729 32.0287 246.339C31.9587 245.429 32.0288 244.519 32.1088 243.639L32.1588 243.029C32.1588 242.909 32.1487 242.789 32.1387 242.669L32.1188 242.369C32.1088 241.869 32.1088 241.429 32.1088 240.999C32.1088 240.599 32.1088 240.199 32.1088 239.809L32.0687 237.959H32.1687C32.1987 237.239 32.3688 236.399 33.0188 235.759C33.8688 234.919 35.0388 234.909 35.7288 234.929C35.8988 234.909 36.0688 234.879 36.2288 234.859C36.4088 234.829 36.5788 234.799 36.7588 234.779C37.7488 234.609 38.7188 234.749 39.5788 234.869C39.9688 234.929 40.3487 234.979 40.7387 234.999C41.3987 235.039 42.0187 235.049 42.6387 235.049C43.4487 235.049 44.2787 235.059 45.1387 235.149C46.1787 235.229 47.2788 235.169 48.4388 235.109C49.0388 235.079 49.6387 235.049 50.2387 235.029H51.4788C52.9788 235.029 54.3988 235.029 55.8288 234.929C57.4988 234.879 59.1188 234.899 60.6888 234.919C62.3188 234.939 63.9988 234.949 65.6288 234.899C66.0688 234.869 66.5788 234.819 67.0788 234.779C68.6788 234.639 70.3287 234.509 72.0087 234.539C72.5887 234.539 73.2287 234.559 73.8587 234.579C74.4987 234.599 75.1387 234.629 75.7787 234.609C76.7587 234.589 77.7288 234.619 78.6788 234.649L79.8087 234.689C80.5587 234.699 81.3287 234.689 82.1087 234.679C82.9687 234.669 83.8288 234.659 84.6788 234.679L85.1888 234.699C85.7688 234.719 86.3188 234.749 86.8488 234.719C88.0088 234.579 89.2387 234.529 90.8087 234.549C91.5887 234.539 92.4187 234.529 93.2487 234.529C94.3387 234.529 95.4387 234.519 96.5287 234.489C97.3187 234.409 98.0888 234.389 98.8288 234.369H99.2888C99.3588 234.349 99.4287 234.329 99.5087 234.319C100.039 234.229 101.289 233.999 102.249 235.019C102.709 235.529 102.899 236.039 103.039 236.419C103.059 236.479 103.079 236.539 103.099 236.589L103.139 236.649C103.419 237.079 103.849 237.719 103.899 238.609C103.919 238.849 103.899 239.079 103.839 239.299C103.909 240.359 103.889 241.399 103.869 242.319C103.879 242.809 103.819 243.319 103.669 243.779C103.649 243.849 103.619 243.929 103.589 243.999C103.589 244.149 103.589 244.299 103.589 244.469C103.559 247.319 103.409 250.199 101.979 251.699C101.649 252.369 101.009 252.849 100.219 252.939C99.9288 252.959 99.6987 252.959 99.4787 252.959L98.9787 252.939C98.3887 252.899 97.7988 252.859 97.2088 252.779L96.1087 252.829C95.5887 252.829 95.1288 252.829 94.6888 252.849C93.8488 252.979 93.0387 252.999 92.2587 253.019C91.9387 253.019 91.6287 253.039 91.3087 253.049C89.4787 253.149 87.6388 253.169 85.8488 253.179C85.1588 253.179 84.4688 253.189 83.7688 253.199C83.0888 253.229 82.3888 253.269 81.6788 253.319C80.7388 253.379 79.7987 253.449 78.8587 253.459C78.0987 253.469 77.3587 253.489 76.6087 253.509C75.0387 253.549 73.4187 253.589 71.8087 253.549C70.7087 253.549 69.5687 253.549 68.4187 253.549C66.0487 253.549 63.5987 253.529 61.2087 253.639C60.3987 253.639 59.5487 253.689 58.7087 253.739C57.8687 253.789 57.0488 253.849 56.1088 253.849C55.2788 253.839 54.4788 253.889 53.6288 253.939L52.3487 253.989C51.4787 254.009 50.5888 254.019 49.7488 254.079C48.9388 254.129 48.1488 254.199 47.3588 254.269C46.0188 254.389 44.6288 254.509 43.2188 254.509V254.489ZM42.5287 250.979C44.0587 251.029 45.5088 250.899 47.0488 250.759C47.8788 250.689 48.7088 250.609 49.5488 250.569C50.4288 250.509 51.3588 250.489 52.2888 250.479L53.4088 250.439C54.2888 250.379 55.1988 250.319 56.1488 250.339C56.8888 250.339 57.6688 250.289 58.4988 250.239C59.3588 250.189 60.2488 250.139 61.1488 250.129C63.5388 250.019 66.0287 250.029 68.4487 250.039C69.5787 250.039 70.7088 250.049 71.8488 250.039C73.4288 250.079 75.0088 250.039 76.5388 249.999C77.2988 249.979 78.0588 249.959 78.8188 249.949C79.6988 249.929 80.5788 249.869 81.4588 249.809C82.1988 249.759 82.9388 249.709 83.6888 249.679C84.4288 249.669 85.1288 249.659 85.8288 249.659C87.5688 249.649 89.3788 249.629 91.1288 249.529C91.4788 249.509 91.8287 249.499 92.1687 249.489C92.8987 249.469 93.5787 249.449 94.2287 249.349L94.4187 249.329C94.9587 249.299 95.4988 249.299 96.0388 249.299L97.3587 249.239L97.5087 249.259C98.0687 249.329 98.6387 249.369 99.1987 249.409L99.4888 249.219C99.7188 248.959 100.059 247.869 100.089 244.409C100.089 244.139 100.089 243.899 100.099 243.709V242.799L100.369 242.499C100.369 242.449 100.369 242.379 100.369 242.309C100.389 241.279 100.399 240.199 100.319 239.169L100.269 238.639C100.269 238.639 100.239 238.589 100.219 238.559L99.9588 238.139C99.9088 238.019 99.8587 237.909 99.8087 237.779C99.6687 237.799 99.5187 237.819 99.3887 237.819H98.9187C98.1787 237.859 97.4788 237.879 96.7888 237.939H96.6588C95.5188 237.979 94.3887 237.979 93.2487 237.989C92.4287 237.989 91.6188 237.999 90.7988 238.009C89.3088 237.999 88.2088 238.039 87.1888 238.169H87.0688C86.3688 238.219 85.6888 238.189 85.0388 238.169L84.5688 238.149C83.7788 238.129 82.9587 238.149 82.1387 238.149C81.3287 238.159 80.5288 238.169 79.7188 238.159L78.5287 238.119C77.5987 238.089 76.7188 238.059 75.8288 238.079C75.1188 238.089 74.4088 238.069 73.7088 238.039C73.1288 238.019 72.5488 237.999 71.9588 237.999C70.4088 237.969 68.9188 238.089 67.3488 238.229C66.8288 238.269 66.3087 238.319 65.7787 238.359C63.9987 238.419 62.2788 238.399 60.6188 238.379C59.0888 238.359 57.4987 238.349 55.9587 238.379C54.4787 238.479 52.9388 238.479 51.4488 238.479H50.2488C49.7088 238.489 49.1488 238.519 48.5888 238.549C47.3688 238.609 46.0988 238.679 44.7988 238.579C44.0688 238.509 43.3388 238.499 42.5788 238.499C41.8888 238.499 41.1988 238.489 40.5188 238.439C40.0588 238.419 39.5587 238.349 39.0587 238.279C38.3687 238.179 37.7687 238.089 37.2387 238.179C37.0287 238.209 36.8887 238.229 36.7487 238.249C36.4587 238.299 36.1787 238.339 35.8887 238.359H35.7888H35.6888C35.6688 238.359 35.6488 238.359 35.6288 238.359C35.6288 238.829 35.6288 239.289 35.6288 239.739L35.5987 241.489C35.5987 241.719 35.5987 241.939 35.5987 242.169L35.6488 242.989L35.5788 243.849C35.5188 244.639 35.4588 245.379 35.5088 246.079C35.5288 246.539 35.5388 246.939 35.5488 247.349C35.5688 248.259 35.5888 249.119 35.6788 249.969C35.7088 250.169 35.7188 250.439 35.7188 250.729C35.7188 250.749 35.7188 250.769 35.7188 250.789C35.8288 250.789 35.9288 250.789 36.0388 250.809C36.4288 250.779 36.7187 250.819 37.0687 250.839L38.8388 250.919C38.8388 250.919 38.9488 250.919 39.0188 250.919L39.2487 250.749L39.9187 250.819C40.8587 250.909 41.7188 250.949 42.5388 250.939L42.5287 250.979ZM100.649 242.189C100.599 242.239 100.549 242.289 100.499 242.349L100.649 242.189Z" fill="white"/>
<path d="M138.209 16.0697C138.109 14.4697 138.009 12.8197 137.949 11.1997C138.179 10.7997 138.219 10.2497 138.039 9.77972C137.719 8.98972 137.119 9.00972 136.939 9.02972C136.269 9.11972 135.839 9.86973 135.759 10.5497C135.649 12.3397 135.739 14.1597 135.829 15.9097C135.879 16.9797 135.939 18.0797 135.949 19.1697C135.989 20.8197 135.989 22.6297 135.929 24.6997C135.919 25.1997 136.099 25.6897 136.409 26.0097C136.639 26.2497 136.929 26.3797 137.229 26.3797C137.529 26.3797 137.809 26.2597 138.029 26.0297C138.339 25.7197 138.519 25.2297 138.519 24.7297C138.559 21.8197 138.379 18.8897 138.209 16.0597V16.0697Z" fill="white"/>
<path d="M130.819 20.0897C131.059 19.7797 131.089 19.3497 130.879 18.9897C130.649 18.6197 130.269 18.4497 129.859 18.5297C129.369 18.6197 128.959 19.0497 128.869 19.5797C128.749 20.7597 128.849 21.9497 128.939 23.0897C128.989 23.7797 129.049 24.4897 129.059 25.1997C129.099 26.2597 129.099 27.4197 129.039 28.7597C129.029 29.0697 129.139 29.3597 129.359 29.5897C129.589 29.8297 129.899 29.9597 130.219 29.9597C130.539 29.9597 130.829 29.8397 131.049 29.6097C131.269 29.3897 131.389 29.0897 131.389 28.7897C131.429 26.8897 131.249 24.9897 131.079 23.1497C130.979 22.1497 130.889 21.1097 130.829 20.0897H130.819Z" fill="white"/>
</svg>
