<svg width="10" height="15" viewBox="0 0 10 15" fill="none" xmlns="http://www.w3.org/2000/svg">
<path d="M2.73051 14.81C2.41051 14.81 2.11051 14.71 1.85051 14.51C1.53051 14.27 1.33051 13.93 1.27051 13.53L0.0305131 4.93997C-0.149487 3.67997 0.480512 2.46996 1.56051 1.88996V1.83996C1.50051 1.49996 1.74051 1.17997 2.08051 1.12997C2.42051 1.08997 2.74051 1.31997 2.79051 1.65997L2.94051 2.69996L2.44051 2.85997C1.64051 3.11997 1.14051 3.91996 1.26051 4.74996L2.50051 13.34C2.51051 13.42 2.56051 13.47 2.59051 13.49C2.62051 13.51 2.68051 13.55 2.76051 13.53L8.48051 12.71C8.61051 12.69 8.69051 12.57 8.68051 12.45L7.44051 3.85997C7.32051 3.01997 6.61051 2.38996 5.76051 2.36996H5.23051L5.08051 1.30996C5.03051 0.969962 5.27051 0.649971 5.61051 0.599971C5.95051 0.559971 6.27051 0.789969 6.32051 1.12997V1.16996C7.55051 1.40996 8.50051 2.39996 8.68051 3.66996L9.92051 12.26C10.0405 13.07 9.47051 13.82 8.67051 13.94L2.95051 14.76C2.88051 14.77 2.81051 14.78 2.74051 14.78L2.73051 14.81Z" fill="#8F8F8F"/>
</svg>
