<svg width="262" height="254" viewBox="0 0 262 254" fill="none" xmlns="http://www.w3.org/2000/svg">
<path d="M195.7 196.981C195.585 195.916 195.515 194.848 195.478 193.775C195.409 193.01 195.458 192.249 195.491 191.485C195.52 190.609 195.466 189.82 195.548 188.924C195.639 188.089 195.709 187.251 195.622 186.412C195.61 186.022 195.684 185.635 195.651 185.245C195.602 184.858 195.487 184.484 195.33 184.127C195.31 184.077 195.273 184.036 195.236 183.999C195.261 183.128 195.302 182.256 195.33 181.381C195.347 178.429 195.421 175.478 195.4 172.522C195.425 167.918 194.936 163.326 195.018 158.722C194.948 154.377 195.228 150.036 195.178 145.696C195.133 143.155 195.014 140.615 195.047 138.074C195.047 134.926 195.141 131.777 195.1 128.628C195.113 126.774 195.018 124.924 194.973 123.074C194.936 121.241 194.993 119.412 195.002 117.578C195.026 114.01 194.981 110.442 195.195 106.882C195.269 103.676 194.8 100.486 194.891 97.2754C194.928 95.1543 194.985 93.0332 195.104 90.9161C195.117 88.5607 195.17 86.1888 194.932 83.8457C194.784 82.7152 194.751 81.5684 194.578 80.4379C194.475 79.3362 194.414 78.2346 194.114 77.1658C194.003 76.5985 193.941 76.0189 193.818 75.4516C193.703 74.9213 193.522 74.4075 193.411 73.8731C193.172 72.7097 192.831 71.4971 192.358 70.3954C192.124 69.7829 191.943 69.1457 191.618 68.5538C191.203 67.9002 190.907 67.189 190.595 66.4861C190.052 65.4214 189.288 64.4883 188.696 63.4483C188.387 62.918 188.001 62.4371 187.549 62.0219C186.982 61.4299 186.435 60.8256 185.855 60.2501C185.346 59.6623 184.815 59.0992 184.195 58.6264C183.479 57.9646 182.854 57.2123 182.073 56.6204C181.305 55.9914 180.478 55.4406 179.623 54.9391C178.999 54.4787 178.39 53.9936 177.708 53.6196C176.318 52.9043 174.83 52.3945 173.42 51.7204C172.627 51.2805 171.71 51.1819 170.896 50.8037C170.461 50.6269 170.008 50.5119 169.56 50.3762C168.993 50.1624 168.397 50.0391 167.793 50.0473C167.789 50.0145 167.772 49.9816 167.76 49.9487C167.76 49.9446 167.76 49.9405 167.76 49.9364C167.76 49.9364 167.76 49.9364 167.756 49.9364C167.706 49.8336 167.616 49.7431 167.464 49.6938C167.472 49.5787 167.476 49.4595 167.505 49.3321C167.974 49.0813 168.442 48.588 168.298 48.0043L168.257 47.9468C167.994 47.7494 167.789 47.4905 167.674 47.1822C167.661 47.1739 167.653 47.1616 167.641 47.1534L167.657 47.1411C167.645 47.1082 167.637 47.0712 167.624 47.0383C167.624 47.0383 167.624 47.0342 167.624 47.0301C167.591 46.9479 167.563 46.8615 167.546 46.7711C167.521 46.7711 167.497 46.7711 167.472 46.7711C167.472 46.767 167.476 46.7629 167.476 46.7588C167.476 46.7547 167.476 46.7505 167.476 46.7464C167.542 46.7464 167.604 46.7382 167.665 46.7135C167.706 46.6971 167.727 46.6642 167.76 46.6395C168.348 46.7176 168.936 46.767 169.527 46.8081C169.717 46.8081 169.91 46.8204 170.099 46.8081C170.341 46.7793 170.465 46.5861 170.469 46.3847C171.768 45.5214 171.616 41.7108 171.653 40.5064C171.653 40.4159 171.653 40.3255 171.653 40.2391C171.706 40.1898 171.76 40.1364 171.788 40.0501C171.871 39.787 171.891 39.5116 171.883 39.2402C171.899 38.3236 171.912 37.4028 171.834 36.4902C171.883 36.4121 171.916 36.3175 171.903 36.2024C171.887 35.7749 171.616 35.4461 171.398 35.1049C171.238 34.7637 171.168 34.369 170.909 34.0813C170.539 33.6908 169.98 33.9662 169.515 33.9826C168.746 34.0073 167.974 34.0196 167.209 34.0936C165.552 34.1347 163.896 34.1224 162.239 34.1512C161.162 34.1388 160.085 34.1635 159.016 34.2951C158.35 34.3279 157.684 34.2868 157.019 34.2663C155.633 34.2416 154.252 34.3033 152.867 34.2827C151.749 34.2539 150.63 34.1882 149.508 34.2128C148.419 34.2334 147.33 34.1388 146.24 34.1512C144.452 34.1142 142.672 34.3279 140.892 34.4554C138.134 34.5417 135.367 34.4061 132.609 34.4801C131.006 34.5869 129.399 34.5581 127.791 34.5705C126.287 34.6034 124.786 34.776 123.282 34.6568C122.065 34.5417 120.844 34.6198 119.623 34.5335C118.571 34.4882 117.543 34.1553 116.487 34.332C116.146 34.3732 115.813 34.4472 115.467 34.4718C114.246 34.4348 113.856 34.6486 113.881 35.9311C113.881 36.3216 113.881 36.7121 113.872 37.1027C113.86 37.1027 113.844 37.1027 113.831 37.1027C113.844 37.8097 113.831 38.5168 113.848 39.2238C113.86 39.4417 113.868 39.6678 113.885 39.8939C113.823 40.8023 113.712 41.7108 113.778 42.6275C113.819 43.7538 113.811 44.8843 113.926 46.0065C113.996 46.4176 113.856 47.3918 114.218 47.622C114.218 47.622 114.226 47.622 114.23 47.622C114.23 47.7124 114.271 47.8029 114.349 47.8604C114.74 48.0495 115.217 47.9714 115.64 48.0207C115.957 48.0207 116.273 48.0331 116.59 48.0454C116.359 48.3167 116.248 48.6415 116.487 49.0156C116.705 49.3197 117.029 49.5294 117.284 49.8007C117.272 49.8171 117.264 49.8295 117.251 49.8459C116.91 49.9322 116.133 50.1008 115.829 50.4461C115.706 50.4831 115.587 50.516 115.484 50.5242C114.485 50.6927 113.383 50.89 112.421 51.2723C111.02 51.8807 109.733 52.6042 108.307 53.2126C107.184 53.7799 105.992 54.2033 104.878 54.7747C103.279 55.7119 102.005 57.089 100.603 58.2811C99.9864 58.8443 99.3451 59.391 98.8354 60.0569C98.1366 61.0353 97.3843 61.9438 96.5827 62.844C95.5674 64.032 95.1851 65.5859 94.3177 66.8684C93.5655 68.003 93.0105 69.2567 92.3898 70.4694C92.0404 71.1518 91.7691 71.8712 91.5635 72.607C91.0168 74.5596 90.6674 76.5656 90.2275 78.5428C90.022 79.4225 89.8411 80.3146 89.7589 81.2148C89.7014 82.0082 89.5287 82.7851 89.3602 83.5579C89.1382 84.6802 89.167 85.823 89.1259 86.9616C88.9779 88.5607 89.0971 90.1598 89.0807 91.7588C89.0807 91.8945 89.1464 92.0096 89.2451 92.0918C89.2204 92.1165 89.204 92.1493 89.2122 92.1863C88.9902 93.1811 89.0683 94.2253 89.0601 95.2447C89.1094 98.1304 89.1916 101.016 89.1547 103.902C89.1382 105.489 89.0806 107.075 89.0149 108.658C88.9532 111.408 88.9491 114.158 88.9121 116.912C88.9491 119.646 89.093 122.38 89.1588 125.113C89.2327 129.051 89.2615 132.993 89.2985 136.932C89.4218 140.886 89.578 144.845 89.5945 148.803C89.5822 160.12 89.5328 171.437 89.7466 182.75C89.7671 187.296 89.7466 191.843 89.7548 196.389C89.6973 199.994 89.8658 203.628 90.6509 207.155C90.9058 208.092 91.3004 209.009 91.9047 209.773C92.7597 210.9 93.4627 212.154 94.5274 213.107C96.3361 214.793 97.9393 214.916 100.233 215.105C101.499 215.463 102.798 215.631 104.109 215.734C106.851 216.063 109.614 216.075 112.368 216.018C114.46 216.034 116.602 216.018 118.703 216.018C120.433 216.03 122.143 216.075 123.878 216.067C125.933 216.067 127.98 215.882 130.036 215.82C132.465 215.738 134.895 215.804 137.324 215.796C138.866 215.8 140.403 215.73 141.945 215.689C146.211 215.718 150.478 215.866 154.745 216.014C157.652 216.071 160.554 215.935 163.46 215.903C165.4 215.919 167.336 215.997 169.273 216.034C171.085 216.079 172.878 216.026 174.695 216.034C177.938 216.038 181.206 216.001 184.396 215.356C185.243 215.13 186.118 214.986 186.945 214.686C187.717 214.312 188.564 214.106 189.333 213.716C190.032 213.264 190.583 212.614 191.236 212.1C191.89 211.566 192.49 210.953 192.868 210.193C193.201 209.572 193.592 208.927 193.896 208.261C194.138 207.751 194.327 207.217 194.607 206.723C194.891 206.267 195.141 205.79 195.236 205.256C195.372 204.578 195.322 203.883 195.4 203.2C195.622 201.975 195.746 200.734 195.717 199.484C195.717 198.67 195.766 197.799 195.717 196.965L195.7 196.981ZM114.723 47.2315C114.723 47.2027 114.732 47.1698 114.732 47.1452C114.814 46.2819 114.715 45.4146 114.699 44.5472C114.699 43.4168 114.608 42.2863 114.658 41.1559C114.686 40.7777 114.732 40.3954 114.76 40.0172C114.723 40.0172 114.686 40.0172 114.649 40.0131C114.748 39.1786 114.727 37.97 114.707 37.1602C114.707 37.1602 114.707 37.1602 114.703 37.1602C114.76 36.4696 114.715 35.6516 114.801 35.3885C115.558 35.3967 116.294 35.2446 117.042 35.1747C117.404 35.1419 117.765 35.1912 118.123 35.257C119.64 35.5365 121.169 35.4378 122.694 35.5077C123.549 35.5817 124.47 35.6064 125.337 35.5776C127.261 35.4296 129.185 35.4666 131.113 35.4461C132.177 35.3803 133.246 35.3515 134.315 35.3597C136.292 35.3268 138.27 35.3967 140.247 35.3803C141.595 35.3268 142.931 35.1706 144.279 35.0802C145.677 35.0062 147.079 35.0514 148.481 35.1007C150.626 35.072 152.772 35.22 154.918 35.1624C156.669 35.0843 158.429 35.3145 160.171 35.0802C162.519 34.998 164.87 35.0514 167.221 34.9857C168.249 34.8664 169.289 34.9487 170.309 34.776C170.436 35.0679 170.518 35.3803 170.683 35.6557C170.748 35.7585 170.831 35.8571 170.896 35.964C170.892 35.964 170.884 35.964 170.88 35.964C170.888 36.0503 170.896 36.1367 170.905 36.223C170.999 36.9383 171.085 37.6576 171.007 38.377C170.991 38.5291 170.991 38.6771 170.991 38.8333C170.9 38.8333 170.81 38.8251 170.715 38.8251C170.715 38.8415 170.72 38.8621 170.724 38.8785C170.757 39.0265 170.781 39.1745 170.798 39.3225C170.785 39.3184 170.769 39.3225 170.757 39.3142C170.744 40.5392 170.765 41.7642 170.707 42.9892C170.6 43.9758 170.53 45.0323 169.992 45.8955L169.889 45.9489C169.252 45.9448 168.615 45.8709 167.982 45.9366C167.928 45.949 167.85 45.9572 167.764 45.9654C167.743 45.9489 167.731 45.9202 167.706 45.9037C167.394 45.764 167.032 45.8626 166.699 45.8339C165.918 45.8174 165.137 45.8544 164.364 45.9695C161.52 46.0887 158.671 46.1298 155.822 46.1709C153.52 46.3559 151.214 46.3847 148.904 46.4628C145.636 46.4792 142.368 46.4176 139.1 46.4546C137.846 46.5162 136.588 46.5121 135.339 46.582C134.044 46.6889 132.749 46.693 131.454 46.7218C129.621 46.8656 127.771 46.8081 125.937 46.9931C124.959 47.0671 123.985 47.1575 123.011 47.2397C121.42 47.2973 119.825 47.2397 118.238 47.1698C118.065 47.1781 117.889 47.2027 117.716 47.2274C117.087 47.1945 116.458 47.141 115.829 47.1739C115.471 47.2068 115.077 47.1657 114.719 47.2315H114.723ZM194.722 201.762C194.644 202.37 194.5 202.974 194.471 203.591C194.459 204.146 194.455 204.709 194.327 205.252C194.184 205.819 193.801 206.275 193.567 206.801C193.452 207.056 193.345 207.315 193.234 207.57C192.782 208.553 192.272 209.515 191.684 210.419C191.232 211.007 190.62 211.442 190.073 211.936C189.678 212.26 189.341 212.655 188.914 212.939C188.207 213.292 187.426 213.481 186.71 213.827C183.138 215.031 179.319 215.117 175.578 215.163C173.671 215.134 171.772 215.191 169.86 215.163C166.494 215.093 163.127 214.941 159.76 215.097C155.946 215.228 152.135 215.06 148.324 214.9C145.726 214.891 143.124 214.752 140.526 214.854C136.991 214.994 133.439 214.83 129.9 214.945C128.075 215.006 126.25 215.146 124.425 215.187C122.345 215.204 120.265 215.142 118.185 215.138C114.888 215.134 111.595 215.163 108.29 215.15C105.791 215.072 103.312 214.776 100.829 214.517C100.772 214.365 100.636 214.242 100.426 214.242C99.1889 214.098 97.8735 214.102 96.7266 213.568C95.2467 212.861 94.1903 211.57 93.3065 210.226C93.0064 209.774 92.6734 209.346 92.3487 208.906C91.8677 208.15 91.5553 207.303 91.3785 206.427C90.9634 204.166 90.6921 201.873 90.6304 199.575C90.6098 194.042 90.6427 188.505 90.6181 182.972C90.4208 172.193 90.4413 161.415 90.466 150.633C90.4906 146.131 90.3221 141.634 90.1741 137.137C90.1453 133.692 90.096 130.248 90.0672 126.803C90.0097 122.495 89.6808 118.191 89.8206 113.883C89.8453 111.157 89.8658 108.432 89.9932 105.707C90.0631 102.899 90.0343 100.091 89.9398 97.2878C89.9275 96.0792 89.8411 94.8706 89.8083 93.6621C89.7918 93.2921 89.7918 92.918 89.6932 92.5563C89.652 92.4083 89.5616 92.2028 89.4013 92.174C89.4383 92.1822 89.4712 92.1946 89.5082 92.1946H89.5164C89.7507 92.1946 89.948 91.9849 89.948 91.7547C89.9768 91.0518 89.9357 90.3447 89.9192 89.6418C89.8987 88.6758 89.9398 87.7098 90.0097 86.7437C90.0261 85.6667 90.0343 84.5815 90.2563 83.5209C90.5852 82.3042 90.614 81.0463 90.8442 79.8131C91.4402 77.2603 91.8266 74.6541 92.62 72.1507C93.3558 70.3502 94.2396 68.5949 95.292 66.9588C95.9003 65.9599 96.2539 64.8295 96.9075 63.8552C97.4542 63.0783 98.153 62.4288 98.7162 61.6601C99.0903 61.171 99.4397 60.6612 99.8466 60.1967C100.455 59.5431 101.142 58.9635 101.799 58.3633C102.79 57.5247 103.702 56.5957 104.771 55.8599C105.499 55.346 106.346 55.0542 107.155 54.6966C107.908 54.3595 108.648 53.9977 109.4 53.6607C110.921 53.0235 112.314 52.0616 113.938 51.704C114.806 51.4573 115.73 51.4285 116.557 51.0586C116.664 51.0134 116.918 50.9024 117.124 50.7667C117.256 50.7379 117.387 50.7092 117.51 50.668C117.626 50.668 117.741 50.6269 117.823 50.5406C117.864 50.4995 117.884 50.4543 117.901 50.405C118.065 50.2159 118.18 49.9816 118.172 49.7349C118.148 49.1964 117.58 48.9292 117.26 48.5675C117.461 48.403 117.704 48.2715 117.893 48.0865C117.971 48.0865 118.049 48.0947 118.131 48.0988C118.37 48.0865 118.649 48.1482 118.85 48.0002C119.648 48.0783 120.445 48.1194 121.251 48.1071C123.265 48.1728 125.263 47.8645 127.273 47.7536C128.244 47.6919 129.275 47.6837 130.266 47.659C131.105 47.6056 131.931 47.5398 132.782 47.5563C134.204 47.5563 135.622 47.3754 137.049 47.3795C140.082 47.2438 143.12 47.326 146.154 47.3096C148.131 47.3548 150.108 47.2603 152.086 47.2356C153.483 47.2109 154.865 47.063 156.262 47.0095C158.379 46.9766 160.5 47.0013 162.613 46.878C163.546 46.8286 164.479 46.8615 165.404 46.7094C165.836 46.6889 166.272 46.6889 166.703 46.6889C166.675 46.7629 166.683 46.8287 166.708 46.8862C166.588 47.1123 166.568 47.363 166.79 47.5932C167.012 47.7906 167.267 47.9673 167.41 48.2386C167.25 48.5551 166.798 48.5963 166.687 48.9621C166.555 49.2827 166.588 49.6445 166.543 49.9857C166.535 50.1624 166.625 50.3474 166.782 50.4296C166.839 50.4708 166.905 50.479 166.971 50.4872C167.049 50.5735 167.156 50.6311 167.275 50.6393C167.299 50.6516 167.32 50.6681 167.345 50.6804C167.669 50.8448 168.039 50.8448 168.389 50.9147C169.01 51.0709 169.61 51.3093 170.226 51.482C170.921 51.7697 171.624 52.0164 172.352 52.2055C173.86 52.8879 175.389 53.5373 176.91 54.1909C177.675 54.565 178.345 55.083 179.027 55.5968C179.406 55.8599 179.821 56.0654 180.199 56.3244C180.873 56.7807 181.518 57.2781 182.127 57.8166C182.682 58.314 183.15 58.9101 183.726 59.3869C184.441 59.9172 184.918 60.5626 185.559 61.2079C186.164 61.8204 186.735 62.4699 187.352 63.0742C187.865 63.6867 188.219 64.4102 188.671 65.0638C189.016 65.627 189.432 66.149 189.736 66.741C190.085 67.5385 190.435 68.3318 190.891 69.0718C191.277 69.898 191.536 70.7777 191.886 71.6204C192.231 72.607 192.437 73.5894 192.675 74.6089C192.942 75.4434 193.07 76.3107 193.209 77.1699C193.435 78.1071 193.6 79.0567 193.637 80.0227C193.764 81.0792 193.888 82.1315 193.962 83.1921C194.101 84.2732 194.196 85.3543 194.192 86.4437C194.241 88.1661 194.262 89.8926 194.184 91.615C194.089 92.84 194.085 94.069 194.052 95.2981C193.883 98.5497 194.134 101.797 194.311 105.041C194.369 107.108 194.147 109.172 194.142 111.24C194.167 115.815 193.994 120.39 194.142 124.961C194.356 130.646 194.068 136.331 194.192 142.016C194.327 145.137 194.336 148.261 194.212 151.385C194.134 154.414 194.114 157.448 194.138 160.478C194.138 163.968 194.455 167.454 194.517 170.944C194.525 175.338 194.512 179.732 194.348 184.127C194.348 184.279 194.43 184.406 194.549 184.484C194.619 184.776 194.808 185.105 194.78 185.385C194.689 186.178 194.821 186.971 194.763 187.761C194.632 188.924 194.607 190.063 194.615 191.234C194.599 191.904 194.533 192.57 194.566 193.24C194.623 194.547 194.693 195.851 194.825 197.154C194.841 198.683 194.866 200.22 194.718 201.741L194.722 201.762Z" fill="white"/>
<path d="M170.379 33.8756C170.576 33.8756 170.757 33.9249 170.909 34.0811C171.168 34.3689 171.238 34.7635 171.398 35.1047C171.616 35.45 171.887 35.7747 171.904 36.2022C171.916 36.3215 171.883 36.4119 171.834 36.49C171.912 37.4026 171.896 38.3234 171.883 39.2401C171.892 39.5114 171.871 39.7868 171.789 40.0499C171.76 40.1362 171.707 40.1896 171.653 40.239C171.653 40.3294 171.653 40.4199 171.653 40.5062C171.616 41.7106 171.764 45.5213 170.469 46.3845C170.465 46.5818 170.342 46.7791 170.099 46.8079C170.025 46.812 169.947 46.8161 169.873 46.8161C169.758 46.8161 169.643 46.812 169.528 46.812C168.94 46.7709 168.348 46.7216 167.76 46.6435C167.727 46.6681 167.707 46.701 167.666 46.7175C167.612 46.7421 167.555 46.7504 167.497 46.7504C167.489 46.7504 167.481 46.7504 167.473 46.7504C167.473 46.7545 167.473 46.7586 167.473 46.7627C167.473 46.7668 167.468 46.7709 167.468 46.775C167.493 46.775 167.518 46.775 167.542 46.775C167.559 46.8655 167.584 46.9518 167.621 47.034C167.621 47.034 167.621 47.0381 167.621 47.0422C167.629 47.0792 167.641 47.1121 167.653 47.145L167.637 47.1573C167.637 47.1573 167.658 47.1779 167.67 47.1861C167.785 47.4944 167.991 47.7534 168.254 47.9507L168.295 48.0082C168.443 48.592 167.97 49.0852 167.501 49.336C167.477 49.4634 167.468 49.5785 167.46 49.6977C167.612 49.7471 167.703 49.8334 167.752 49.9403C167.752 49.9403 167.752 49.9403 167.756 49.9403C167.756 49.9444 167.756 49.9485 167.756 49.9526C167.769 49.9855 167.785 50.0143 167.789 50.0513C167.806 50.0513 167.818 50.0513 167.83 50.0513C168.422 50.0513 169.002 50.1746 169.557 50.3801C170.005 50.5117 170.457 50.6309 170.893 50.8076C171.711 51.1858 172.627 51.2845 173.417 51.7243C174.827 52.3985 176.315 52.9082 177.704 53.6235C178.387 53.9976 178.995 54.4826 179.62 54.943C180.475 55.4445 181.305 55.9913 182.07 56.6243C182.851 57.2163 183.476 57.9685 184.191 58.6304C184.812 59.099 185.346 59.6662 185.852 60.2541C186.431 60.8296 186.982 61.438 187.545 62.0258C187.997 62.441 188.384 62.9178 188.692 63.4522C189.284 64.4881 190.049 65.4254 190.591 66.4901C190.904 67.193 191.196 67.9041 191.615 68.5577C191.94 69.1497 192.116 69.7868 192.355 70.3993C192.827 71.4969 193.169 72.7137 193.407 73.877C193.518 74.4073 193.699 74.9211 193.814 75.4555C193.937 76.0228 193.999 76.5983 194.11 77.1697C194.41 78.2385 194.472 79.3443 194.575 80.4418C194.747 81.5723 194.78 82.7151 194.928 83.8496C195.171 86.1968 195.117 88.5646 195.101 90.9201C194.982 93.0371 194.924 95.1582 194.887 97.2793C194.797 100.49 195.269 103.68 195.191 106.886C194.973 110.446 195.019 114.014 194.998 117.582C194.99 119.416 194.932 121.245 194.969 123.078C195.014 124.928 195.105 126.782 195.097 128.632C195.138 131.781 195.047 134.929 195.043 138.078C195.01 140.619 195.13 143.159 195.175 145.7C195.224 150.04 194.945 154.381 195.014 158.726C194.932 163.33 195.421 167.922 195.397 172.526C195.421 175.478 195.343 178.429 195.327 181.385C195.294 182.256 195.253 183.128 195.232 184.003C195.273 184.036 195.306 184.081 195.327 184.131C195.483 184.484 195.598 184.862 195.647 185.249C195.676 185.635 195.606 186.026 195.619 186.416C195.709 187.255 195.635 188.093 195.545 188.928C195.462 189.828 195.516 190.617 195.487 191.489C195.454 192.253 195.405 193.014 195.475 193.779C195.512 194.851 195.582 195.916 195.697 196.985C195.75 197.819 195.705 198.691 195.697 199.505C195.73 200.754 195.602 201.992 195.38 203.221C195.306 203.903 195.356 204.598 195.216 205.276C195.121 205.811 194.871 206.287 194.587 206.744C194.307 207.237 194.118 207.771 193.876 208.281C193.576 208.951 193.181 209.592 192.848 210.213C192.47 210.974 191.87 211.586 191.216 212.121C190.562 212.634 190.012 213.284 189.313 213.736C188.548 214.122 187.701 214.328 186.925 214.706C186.098 215.006 185.223 215.15 184.376 215.376C181.317 215.993 178.189 216.055 175.077 216.055C174.942 216.055 174.806 216.055 174.675 216.055C174.522 216.055 174.366 216.055 174.214 216.055C173.1 216.055 171.994 216.075 170.889 216.075C170.346 216.075 169.799 216.071 169.253 216.059C167.316 216.022 165.376 215.944 163.44 215.927C161.031 215.956 158.626 216.055 156.217 216.055C155.72 216.055 155.223 216.05 154.725 216.042C150.458 215.898 146.195 215.746 141.924 215.717C140.436 215.759 138.948 215.824 137.46 215.824C137.407 215.824 137.357 215.824 137.304 215.824C137.111 215.824 136.913 215.824 136.72 215.824C135.442 215.824 134.159 215.808 132.881 215.808C131.927 215.808 130.969 215.816 130.016 215.849C127.96 215.911 125.913 216.096 123.858 216.096C123.718 216.096 123.578 216.096 123.439 216.096C121.844 216.096 120.273 216.055 118.678 216.042C117.334 216.042 115.969 216.05 114.613 216.05C113.852 216.05 113.092 216.05 112.344 216.042C111.583 216.059 110.823 216.067 110.058 216.067C108.06 216.067 106.067 215.997 104.081 215.754C102.774 215.652 101.471 215.483 100.205 215.125C97.9109 214.936 96.3078 214.813 94.4991 213.128C93.4344 212.174 92.7356 210.92 91.8764 209.794C91.2721 209.029 90.8775 208.113 90.6226 207.175C89.8375 203.644 89.6648 200.014 89.7265 196.409C89.7224 191.863 89.7388 187.316 89.7183 182.77C89.5045 171.453 89.5539 160.14 89.5662 148.824C89.5498 144.865 89.3935 140.906 89.2702 136.952C89.2373 133.014 89.2086 129.072 89.1304 125.134C89.0606 122.4 88.9208 119.666 88.8838 116.933C88.9167 114.183 88.9249 111.428 88.9866 108.678C89.0524 107.092 89.1099 105.509 89.1263 103.922C89.1633 101.037 89.077 98.1508 89.0318 95.2651C89.04 94.2456 88.9619 93.2015 89.1839 92.2067C89.1757 92.1697 89.1921 92.1368 89.2168 92.1122C89.1181 92.0299 89.0524 91.9148 89.0524 91.7792C89.0688 90.1801 88.9496 88.577 89.0976 86.982C89.1428 85.8433 89.114 84.7005 89.3319 83.5783C89.4963 82.8014 89.6731 82.0286 89.7306 81.2352C89.8128 80.335 89.9937 79.4429 90.1992 78.5632C90.6391 76.5819 90.9885 74.58 91.5352 72.6274C91.7408 71.8915 92.0121 71.1722 92.3615 70.4898C92.9822 69.2812 93.533 68.0233 94.2894 66.8888C95.1527 65.6062 95.5391 64.0524 96.5544 62.8644C97.3519 61.96 98.1042 61.0516 98.8071 60.0773C99.3168 59.4114 99.954 58.8605 100.575 58.3015C101.981 57.1094 103.251 55.7323 104.85 54.7951C105.968 54.2237 107.156 53.7962 108.278 53.233C109.705 52.6287 110.991 51.9011 112.393 51.2927C113.359 50.9145 114.461 50.7131 115.456 50.5446C115.558 50.5363 115.677 50.5076 115.801 50.4664C116.105 50.1211 116.886 49.9526 117.223 49.8663C117.235 49.8499 117.248 49.8375 117.256 49.8211C117.001 49.5498 116.676 49.3401 116.459 49.0359C116.22 48.6619 116.331 48.3371 116.561 48.0658C116.269 48.0535 115.982 48.037 115.69 48.037C115.665 48.037 115.64 48.037 115.616 48.037C115.192 47.9836 114.716 48.0658 114.325 47.8767C114.247 47.8191 114.206 47.7287 114.206 47.6383C114.206 47.6383 114.198 47.6383 114.194 47.6383C113.832 47.4081 113.972 46.4338 113.902 46.0228C113.787 44.9005 113.799 43.7701 113.754 42.6438C113.688 41.7271 113.799 40.8186 113.861 39.9101C113.844 39.684 113.836 39.4579 113.824 39.2401C113.807 38.533 113.819 37.826 113.807 37.119C113.819 37.119 113.836 37.119 113.848 37.119C113.856 36.7284 113.861 36.3379 113.856 35.9474C113.832 34.7512 114.169 34.4881 115.209 34.4881C115.283 34.4881 115.361 34.4881 115.443 34.4881C115.784 34.4593 116.121 34.3894 116.463 34.3483C116.68 34.3113 116.898 34.2949 117.116 34.2949C117.947 34.2949 118.765 34.5128 119.599 34.5497C120.816 34.632 122.041 34.5539 123.258 34.6731C123.628 34.7018 124.002 34.7142 124.372 34.7142C125.502 34.7142 126.633 34.6073 127.767 34.5867C129.374 34.5785 130.982 34.6032 132.585 34.4963C133.218 34.4799 133.851 34.4716 134.484 34.4716C135.894 34.4716 137.308 34.5004 138.718 34.5004C139.433 34.5004 140.153 34.4922 140.868 34.4716C142.508 34.3524 144.144 34.1592 145.789 34.1592C145.932 34.1592 146.072 34.1592 146.216 34.1633C146.274 34.1633 146.335 34.1633 146.393 34.1633C147.309 34.1633 148.23 34.2291 149.147 34.2291C149.258 34.2291 149.373 34.2291 149.484 34.2291C149.665 34.225 149.846 34.225 150.023 34.225C150.964 34.225 151.901 34.2743 152.843 34.299C153.044 34.299 153.249 34.3031 153.451 34.3031C154.388 34.3031 155.325 34.2743 156.263 34.2743C156.505 34.2743 156.752 34.2743 156.994 34.2825C157.479 34.299 157.969 34.3237 158.454 34.3237C158.635 34.3237 158.811 34.3237 158.992 34.3113C159.917 34.2003 160.842 34.1633 161.771 34.1633C161.919 34.1633 162.067 34.1633 162.215 34.1633C163.872 34.1346 165.528 34.1469 167.185 34.1058C167.954 34.0277 168.722 34.0195 169.491 33.9948C169.762 33.9866 170.071 33.8879 170.354 33.8879M158.265 35.1951C157.418 35.1951 156.567 35.1499 155.72 35.1499C155.445 35.1499 155.173 35.154 154.898 35.1664C154.548 35.1746 154.203 35.1787 153.854 35.1787C152.246 35.1787 150.639 35.1006 149.028 35.1006C148.839 35.1006 148.65 35.1006 148.46 35.1006C147.597 35.0718 146.734 35.043 145.867 35.043C145.332 35.043 144.794 35.0554 144.259 35.0841C142.911 35.1746 141.575 35.3267 140.227 35.3842C139.988 35.3842 139.75 35.3842 139.511 35.3842C138.155 35.3842 136.802 35.3513 135.446 35.3513C135.06 35.3513 134.677 35.3513 134.291 35.3595C134.176 35.3595 134.061 35.3595 133.941 35.3595C132.988 35.3595 132.038 35.3883 131.089 35.4459C129.161 35.4664 127.237 35.4336 125.313 35.5774C125.087 35.5857 124.857 35.5897 124.622 35.5897C123.965 35.5897 123.299 35.561 122.666 35.5076C121.379 35.45 120.084 35.5075 118.802 35.3637C118.267 35.302 117.737 35.1746 117.198 35.1746C117.055 35.1746 116.911 35.1828 116.767 35.2033C116.121 35.2979 115.476 35.3924 114.827 35.3883H114.773C114.683 35.6514 114.732 36.4694 114.674 37.16C114.674 37.16 114.674 37.16 114.679 37.16C114.699 37.9699 114.72 39.1784 114.621 40.0129C114.658 40.0129 114.695 40.017 114.732 40.017C114.703 40.3952 114.658 40.7734 114.629 41.1557C114.58 42.2861 114.67 43.4166 114.67 44.547C114.687 45.4144 114.785 46.2818 114.703 47.145C114.703 47.1738 114.695 47.2025 114.695 47.2313C115.053 47.1614 115.447 47.2066 115.805 47.1738C115.953 47.1655 116.097 47.1614 116.241 47.1614C116.726 47.1614 117.207 47.1984 117.692 47.2231C117.864 47.1984 118.037 47.1738 118.214 47.1656C119.348 47.2149 120.487 47.2601 121.622 47.2601C122.078 47.2601 122.53 47.2519 122.986 47.2354C123.961 47.1532 124.939 47.0628 125.913 46.9888C127.747 46.8038 129.592 46.8613 131.43 46.7175C132.729 46.6887 134.024 46.6846 135.314 46.5777C136.568 46.5078 137.822 46.512 139.076 46.4503C139.906 46.4421 140.736 46.4379 141.563 46.4379C143.634 46.4379 145.706 46.4585 147.778 46.4585C148.144 46.4585 148.514 46.4585 148.88 46.4585C151.186 46.3804 153.496 46.3516 155.798 46.1667C158.647 46.1255 161.491 46.0844 164.34 45.9652C164.998 45.8707 165.656 45.8255 166.322 45.8255C166.441 45.8255 166.56 45.8255 166.679 45.8296C166.724 45.8296 166.774 45.8337 166.819 45.8337C166.963 45.8337 167.107 45.8213 167.251 45.8213C167.394 45.8213 167.547 45.8378 167.686 45.8994C167.711 45.9159 167.723 45.9406 167.744 45.9611C167.83 45.9529 167.908 45.9447 167.962 45.9323C168.155 45.9118 168.352 45.9077 168.545 45.9077C168.985 45.9077 169.429 45.9405 169.869 45.9447L169.972 45.8912C170.51 45.028 170.58 43.9715 170.687 42.9849C170.745 41.7599 170.728 40.535 170.736 39.31C170.749 39.3141 170.765 39.31 170.778 39.3182C170.761 39.1702 170.736 39.0181 170.704 38.8742C170.704 38.8578 170.704 38.8372 170.695 38.8208C170.786 38.8208 170.876 38.829 170.971 38.829C170.971 38.6769 170.971 38.5248 170.987 38.3727C171.061 37.6533 170.975 36.934 170.884 36.2187C170.872 36.1324 170.864 36.046 170.86 35.9597C170.864 35.9597 170.872 35.9597 170.876 35.9597C170.81 35.8528 170.728 35.7542 170.662 35.6514C170.498 35.376 170.412 35.0636 170.288 34.7717C169.269 34.9444 168.229 34.8622 167.201 34.9814C164.854 35.0471 162.503 34.9937 160.151 35.0759C159.522 35.1622 158.893 35.1828 158.265 35.1828M147.248 47.3423C146.878 47.3423 146.504 47.3423 146.134 47.33C145.797 47.33 145.456 47.33 145.118 47.33C143.856 47.33 142.599 47.3176 141.337 47.3176C139.898 47.3176 138.463 47.3341 137.029 47.3958H136.975C135.577 47.3958 134.184 47.5725 132.786 47.5725H132.766C132.684 47.5725 132.597 47.5725 132.515 47.5725C131.75 47.5725 131.01 47.6301 130.25 47.6794C129.259 47.7041 128.228 47.7123 127.257 47.7739C125.436 47.8767 123.624 48.1357 121.802 48.1357C121.613 48.1357 121.424 48.1357 121.235 48.1274C121.137 48.1274 121.038 48.1274 120.939 48.1274C120.236 48.1274 119.537 48.0863 118.835 48.0206C118.719 48.1069 118.576 48.1233 118.432 48.1233C118.354 48.1233 118.271 48.1192 118.193 48.1192C118.169 48.1192 118.144 48.1192 118.119 48.1192C118.041 48.1192 117.963 48.111 117.881 48.1069C117.696 48.2919 117.449 48.4193 117.248 48.5878C117.568 48.9537 118.136 49.2168 118.16 49.7553C118.169 50.0019 118.053 50.2404 117.889 50.4254C117.869 50.4747 117.848 50.5199 117.811 50.561C117.729 50.6473 117.614 50.6884 117.499 50.6884C117.371 50.7296 117.24 50.7583 117.112 50.7871C116.907 50.9228 116.656 51.0337 116.545 51.0789C115.714 51.4489 114.79 51.4736 113.926 51.7243C112.298 52.0779 110.905 53.0398 109.388 53.681C108.636 54.0181 107.896 54.3799 107.144 54.7169C106.334 55.0705 105.487 55.3664 104.759 55.8803C103.687 56.6161 102.774 57.5492 101.787 58.3837C101.126 58.9839 100.443 59.5635 99.8348 60.2171C99.4278 60.6816 99.0825 61.1913 98.7043 61.6805C98.1412 62.4451 97.4423 63.0987 96.8956 63.8756C96.242 64.8458 95.8844 65.9803 95.2801 66.9792C94.2278 68.6153 93.3439 70.3706 92.6081 72.1711C91.8148 74.6745 91.4283 77.2807 90.8323 79.8334C90.6021 81.0667 90.5733 82.3287 90.2445 83.5413C90.0266 84.6019 90.0143 85.6871 89.9978 86.7641C89.9279 87.7301 89.8909 88.6962 89.9074 89.6622C89.9238 90.3651 89.9649 91.0721 89.9362 91.7751C89.9362 92.0053 89.7388 92.2149 89.5045 92.2149H89.4963C89.4716 92.2149 89.447 92.2108 89.4264 92.2026C89.4141 92.1985 89.4018 92.1944 89.3894 92.1944C89.4018 92.1944 89.4141 92.2026 89.4264 92.2026C89.5662 92.2561 89.6443 92.441 89.6854 92.5767C89.7841 92.9343 89.7841 93.3125 89.8005 93.6825C89.8334 94.891 89.9197 96.0996 89.932 97.3081C90.0266 100.116 90.0554 102.919 89.9855 105.727C89.8622 108.452 89.8375 111.178 89.8128 113.903C89.6772 118.211 90.0019 122.515 90.0595 126.823C90.0883 130.268 90.1376 133.713 90.1664 137.157C90.3143 141.655 90.4829 146.152 90.4582 150.653C90.4336 161.435 90.413 172.214 90.6103 182.992C90.635 188.525 90.6021 194.062 90.6226 199.595C90.6843 201.893 90.9556 204.187 91.3708 206.448C91.5434 207.323 91.86 208.174 92.3409 208.927C92.6657 209.362 92.9986 209.794 93.2987 210.246C94.1784 211.59 95.239 212.881 96.7188 213.588C97.8698 214.122 99.1812 214.114 100.418 214.262C100.628 214.262 100.764 214.386 100.821 214.538C103.304 214.797 105.787 215.093 108.282 215.171C108.829 215.171 109.376 215.171 109.927 215.171C112.393 215.171 114.859 215.154 117.322 215.154C117.605 215.154 117.889 215.154 118.177 215.154C120.035 215.158 121.889 215.208 123.743 215.208C123.969 215.208 124.191 215.208 124.417 215.208C126.242 215.167 128.067 215.023 129.892 214.965C130.953 214.932 132.014 214.92 133.078 214.92C134.348 214.92 135.623 214.932 136.893 214.932C138.163 214.932 139.31 214.92 140.519 214.871C141.201 214.846 141.883 214.834 142.566 214.834C144.481 214.834 146.401 214.912 148.317 214.916C151.169 215.035 154.022 215.158 156.875 215.158C157.833 215.158 158.791 215.146 159.753 215.109C160.83 215.06 161.907 215.039 162.98 215.039C165.269 215.039 167.559 215.125 169.849 215.175C170.219 215.179 170.588 215.183 170.958 215.183C172.081 215.183 173.203 215.167 174.325 215.167C174.736 215.167 175.151 215.167 175.562 215.175C179.303 215.13 183.122 215.039 186.694 213.839C187.41 213.494 188.186 213.304 188.898 212.951C189.325 212.667 189.662 212.273 190.057 211.948C190.604 211.455 191.216 211.019 191.668 210.431C192.256 209.527 192.766 208.565 193.218 207.582C193.329 207.327 193.436 207.068 193.551 206.814C193.785 206.287 194.168 205.831 194.311 205.264C194.439 204.721 194.443 204.158 194.455 203.603C194.48 202.987 194.628 202.382 194.706 201.774C194.854 200.253 194.829 198.715 194.813 197.186C194.681 195.883 194.612 194.58 194.554 193.273C194.521 192.603 194.587 191.937 194.603 191.267C194.595 190.095 194.62 188.957 194.751 187.793C194.809 187 194.673 186.211 194.768 185.417C194.797 185.138 194.607 184.809 194.538 184.517C194.418 184.439 194.332 184.307 194.336 184.159C194.496 179.769 194.513 175.371 194.505 170.976C194.443 167.486 194.126 164.005 194.126 160.51C194.106 157.477 194.126 154.447 194.2 151.418C194.324 148.298 194.316 145.169 194.18 142.049C194.057 136.364 194.344 130.675 194.131 124.994C193.987 120.423 194.155 115.847 194.131 111.272C194.139 109.205 194.361 107.141 194.299 105.073C194.118 101.83 193.872 98.5824 194.04 95.3309C194.073 94.1018 194.077 92.8726 194.172 91.6477C194.25 89.9253 194.229 88.1988 194.18 86.4764C194.184 85.387 194.089 84.3059 193.95 83.2248C193.876 82.1642 193.752 81.1078 193.625 80.0554C193.588 79.0894 193.424 78.144 193.197 77.2026C193.058 76.3393 192.93 75.4761 192.663 74.6416C192.425 73.6221 192.219 72.6397 191.874 71.6531C191.524 70.8104 191.261 69.9307 190.879 69.1045C190.423 68.3604 190.073 67.5712 189.724 66.7737C189.42 66.1818 189.005 65.6597 188.659 65.0965C188.207 64.4429 187.854 63.7153 187.34 63.1069C186.723 62.5026 186.156 61.8573 185.547 61.2407C184.906 60.5953 184.429 59.9499 183.714 59.4196C183.134 58.9428 182.67 58.3508 182.115 57.8493C181.507 57.3108 180.857 56.8175 180.187 56.3571C179.809 56.0981 179.394 55.8926 179.015 55.6295C178.333 55.1157 177.663 54.6018 176.898 54.2237C175.377 53.5659 173.848 52.9164 172.34 52.2382C171.612 52.0491 170.909 51.8024 170.214 51.5147C169.598 51.342 168.998 51.1036 168.377 50.9474C168.028 50.8775 167.658 50.8816 167.333 50.7131C167.308 50.7049 167.288 50.6884 167.263 50.672C167.144 50.6638 167.033 50.6062 166.959 50.5199C166.893 50.5117 166.827 50.5034 166.77 50.4623C166.613 50.3801 166.523 50.1952 166.531 50.0184C166.576 49.6813 166.544 49.3155 166.675 48.9948C166.79 48.6331 167.242 48.592 167.399 48.2713C167.255 48 167.004 47.8233 166.778 47.626C166.556 47.3958 166.576 47.1491 166.696 46.9189C166.667 46.8613 166.663 46.7915 166.692 46.7216C166.613 46.7216 166.531 46.7216 166.453 46.7216C166.1 46.7216 165.746 46.7216 165.393 46.7421C164.468 46.8942 163.535 46.8614 162.601 46.9107C160.488 47.0299 158.367 47.0094 156.25 47.0422C154.849 47.0957 153.471 47.2395 152.074 47.2683C150.467 47.2889 148.863 47.3546 147.256 47.3546M170.362 33C170.136 33 169.927 33.037 169.746 33.0699C169.651 33.0863 169.561 33.1069 169.47 33.111L169.08 33.1233C168.447 33.1398 167.793 33.1603 167.14 33.2261C166.198 33.2507 165.257 33.2549 164.316 33.2631C163.613 33.2672 162.914 33.2713 162.211 33.2836C162.083 33.2836 161.931 33.2836 161.779 33.2836C160.686 33.2836 159.777 33.3289 158.922 33.4316H158.918C158.425 33.4522 157.932 33.4316 157.438 33.4152L157.035 33.3988C156.772 33.3946 156.522 33.3905 156.275 33.3905C155.802 33.3905 155.329 33.3987 154.857 33.4028C154.392 33.4111 153.928 33.4152 153.463 33.4152C153.266 33.4152 153.069 33.4152 152.867 33.4111C152.555 33.4029 152.23 33.3905 151.909 33.3823C151.297 33.3617 150.664 33.3371 150.035 33.3371C149.85 33.3371 149.661 33.3371 149.476 33.3453C149.373 33.3453 149.266 33.3453 149.159 33.3453C148.711 33.3453 148.263 33.3289 147.815 33.3124C147.346 33.296 146.878 33.2795 146.405 33.2795H146.22C146.097 33.2795 145.949 33.2795 145.801 33.2795C144.559 33.2795 143.318 33.3864 142.122 33.4851C141.686 33.5221 141.25 33.5591 140.815 33.5919C140.219 33.6084 139.524 33.6207 138.73 33.6207C138.027 33.6207 137.325 33.6125 136.622 33.6043C135.915 33.5961 135.203 33.5878 134.496 33.5878C133.855 33.5878 133.214 33.5919 132.573 33.6125C131.302 33.6947 130.032 33.6947 128.803 33.6988C128.462 33.6988 128.117 33.6988 127.775 33.6988C127.257 33.7112 126.756 33.7358 126.25 33.7605C125.605 33.7934 125.001 33.8263 124.384 33.8263C124.006 33.8263 123.665 33.8139 123.34 33.7893C122.653 33.7235 121.959 33.7194 121.285 33.7111C120.725 33.707 120.199 33.7029 119.673 33.6659C119.315 33.6495 118.97 33.6002 118.604 33.5467C118.132 33.481 117.642 33.4111 117.129 33.4111C116.845 33.4111 116.586 33.4316 116.327 33.4769C116.22 33.4892 116.076 33.5138 115.932 33.5344C115.764 33.5591 115.599 33.5878 115.427 33.6043C115.357 33.6043 115.287 33.6043 115.217 33.6043C114.637 33.6043 113.984 33.67 113.507 34.1551C113.018 34.6566 112.964 35.3554 112.977 35.9762C112.977 36.0502 112.977 36.1241 112.977 36.2022H112.952L112.927 37.1477C112.936 37.4848 112.936 37.8219 112.936 38.1589C112.936 38.5289 112.936 38.8989 112.944 39.2688L112.956 39.5525C112.96 39.6676 112.969 39.7868 112.977 39.906C112.964 40.091 112.948 40.276 112.936 40.461C112.878 41.1886 112.816 41.9408 112.874 42.7219C112.886 43.0219 112.895 43.3549 112.903 43.6879C112.923 44.4812 112.94 45.3034 113.026 46.1296V46.1584L113.034 46.1872C113.043 46.2448 113.047 46.4174 113.047 46.5325C113.055 47.034 113.063 47.6876 113.425 48.1398C113.507 48.3289 113.643 48.4974 113.815 48.6207L113.877 48.666L113.943 48.6988C114.378 48.9085 114.818 48.9167 115.172 48.9249C115.275 48.9249 115.373 48.9249 115.472 48.9373C115.509 49.1223 115.579 49.3031 115.682 49.4799C115.571 49.5374 115.468 49.6032 115.373 49.6772H115.349L115.312 49.6854C114.239 49.8663 113.104 50.0759 112.068 50.4829C111.349 50.7953 110.683 51.1242 110.038 51.4407C109.355 51.7778 108.652 52.1231 107.933 52.4314L107.904 52.4437L107.879 52.456C107.357 52.7191 106.823 52.9493 106.256 53.1919C105.66 53.4467 105.043 53.7139 104.443 54.0222L104.422 54.0346L104.402 54.0469C103.193 54.7581 102.174 55.683 101.187 56.5832C100.793 56.9408 100.402 57.2985 99.9992 57.6438L99.7526 57.8699C99.1853 58.3796 98.6016 58.9099 98.1042 59.5594C97.4752 60.4349 96.7764 61.2982 95.8926 62.2971C95.2267 63.0782 94.8238 63.9373 94.4292 64.7718C94.1538 65.3596 93.8907 65.9146 93.5577 66.412C92.9575 67.3163 92.4848 68.2741 92.0285 69.199L91.7572 69.7457C91.4283 70.3993 91.0132 71.2708 90.7377 72.2245C90.3267 73.655 90.0225 75.1185 89.7306 76.5367C89.6032 77.1533 89.4758 77.774 89.3401 78.3906C89.1674 79.1305 88.9537 80.1253 88.855 81.1735C88.8057 81.8641 88.6618 82.5301 88.5097 83.233L88.4727 83.4139C88.2836 84.3717 88.259 85.3089 88.2384 86.2174C88.2343 86.4599 88.2261 86.7025 88.2179 86.945C88.1192 88.0508 88.1357 89.1525 88.1562 90.2171C88.1644 90.7433 88.1768 91.2654 88.1685 91.7915C88.1685 91.9683 88.2014 92.1409 88.2672 92.3013C88.1274 93.0782 88.1357 93.8469 88.1439 94.5951C88.1439 94.8253 88.148 95.0513 88.1439 95.2774C88.1562 95.9804 88.1685 96.6586 88.1809 97.341C88.222 99.5033 88.2672 101.739 88.2384 103.93C88.222 105.423 88.1727 106.903 88.1028 108.662C88.0617 110.516 88.0452 112.382 88.0288 114.183C88.0206 115.099 88.0123 116.02 88 116.937C88.0247 118.569 88.0822 120.201 88.1398 121.779C88.1809 122.91 88.222 124.04 88.2508 125.175C88.3165 128.611 88.3453 132.109 88.3741 135.493L88.3864 136.977L88.4563 139.081C88.5632 142.284 88.6701 145.593 88.6865 148.844V153.177C88.6659 162.886 88.6495 172.925 88.8386 182.803C88.8509 185.569 88.8468 188.348 88.8468 191.123C88.8468 192.891 88.8468 194.658 88.8468 196.426C88.7769 200.763 89.0688 204.253 89.7635 207.385C90.0882 208.585 90.5651 209.572 91.1858 210.361C91.4242 210.678 91.6627 211.015 91.897 211.356C92.4848 212.199 93.0891 213.07 93.9112 213.806C95.909 215.668 97.7383 215.833 100.053 216.022C101.183 216.334 102.412 216.531 104.015 216.655C105.775 216.868 107.707 216.967 110.062 216.967C110.831 216.967 111.596 216.955 112.364 216.942C113.092 216.951 113.852 216.951 114.617 216.951C115.336 216.951 116.056 216.951 116.775 216.951H118.682C119.315 216.951 119.957 216.963 120.594 216.971C121.543 216.984 122.489 217 123.443 217H123.866C125.12 217 126.386 216.93 127.611 216.864C128.425 216.819 129.235 216.778 130.049 216.753C130.879 216.725 131.779 216.712 132.889 216.712C133.526 216.712 134.163 216.712 134.801 216.72C135.442 216.725 136.083 216.729 136.724 216.729H137.312H137.464C138.55 216.729 139.647 216.692 140.708 216.659C141.123 216.646 141.538 216.63 141.953 216.622C146.047 216.651 150.24 216.794 154.298 216.93L154.696 216.942C155.214 216.955 155.716 216.959 156.217 216.959C157.636 216.959 159.066 216.926 160.456 216.893C161.454 216.868 162.453 216.844 163.452 216.831C164.591 216.84 165.767 216.873 166.905 216.905C167.682 216.926 168.459 216.947 169.236 216.963C169.787 216.975 170.338 216.979 170.889 216.979C171.439 216.979 171.998 216.975 172.553 216.971C173.104 216.967 173.659 216.963 174.214 216.963H174.67H175.077C178.128 216.963 181.371 216.91 184.549 216.268H184.577L184.602 216.256C184.886 216.178 185.173 216.112 185.461 216.046C186.037 215.915 186.633 215.775 187.225 215.561L187.27 215.545L187.311 215.524C187.644 215.364 187.997 215.232 188.376 215.097C188.811 214.936 189.263 214.772 189.712 214.546L189.753 214.525L189.79 214.501C190.271 214.192 190.665 213.822 191.048 213.465C191.29 213.239 191.52 213.025 191.759 212.836C192.659 212.096 193.251 211.397 193.637 210.624C193.728 210.46 193.835 210.271 193.942 210.078C194.196 209.625 194.455 209.157 194.681 208.659C194.768 208.478 194.854 208.277 194.94 208.08C195.076 207.763 195.203 207.467 195.356 207.196C195.639 206.74 195.964 206.152 196.087 205.445C196.182 204.988 196.198 204.532 196.215 204.088C196.223 203.846 196.231 203.603 196.256 203.361C196.502 201.967 196.609 200.705 196.581 199.497C196.581 199.287 196.585 199.044 196.593 198.798C196.605 198.193 196.618 197.564 196.576 196.944C196.465 195.92 196.396 194.893 196.359 193.766V193.742V193.717C196.301 193.088 196.334 192.451 196.363 191.777L196.375 191.546C196.387 191.193 196.387 190.864 196.383 190.535C196.383 190.03 196.412 189.203 196.461 188.702C196.535 187.966 196.585 187.181 196.502 186.379C196.502 186.244 196.511 186.104 196.519 185.968C196.535 185.738 196.552 185.479 196.531 185.199V185.179L196.527 185.158C196.47 184.71 196.338 184.25 196.137 183.794C196.137 183.785 196.128 183.777 196.124 183.769C196.137 183.296 196.157 182.819 196.178 182.347L196.215 181.442C196.223 180.304 196.235 179.19 196.252 178.08C196.276 176.267 196.301 174.392 196.285 172.547C196.297 170.356 196.19 168.128 196.087 165.978C195.976 163.614 195.857 161.168 195.902 158.772C195.865 156.523 195.923 154.262 195.98 152.071C196.034 149.991 196.087 147.841 196.063 145.716C196.046 144.869 196.026 144.031 196.001 143.188C195.956 141.523 195.906 139.801 195.927 138.115C195.927 136.853 195.943 135.599 195.96 134.342C195.98 132.475 196.005 130.547 195.98 128.644C195.989 127.386 195.948 126.104 195.906 124.858C195.886 124.266 195.869 123.67 195.853 123.078C195.828 121.898 195.845 120.69 195.861 119.518C195.869 118.881 195.878 118.244 195.882 117.607C195.886 116.863 195.89 116.115 195.89 115.367C195.898 112.604 195.902 109.751 196.075 106.96C196.116 105.308 196.017 103.684 195.919 102.109C195.824 100.535 195.726 98.9072 195.767 97.3205C195.812 94.7677 195.878 92.8151 195.98 90.9858V90.9653V90.9447V90.0774C196.001 88.0138 196.017 85.8844 195.8 83.7756C195.734 83.2659 195.693 82.7808 195.647 82.267C195.594 81.6422 195.541 81.0009 195.442 80.3555L195.401 79.8828C195.319 78.9373 195.232 77.9631 194.961 76.9888C194.916 76.7586 194.879 76.5243 194.846 76.29C194.797 75.9653 194.743 75.6323 194.669 75.2911C194.607 75.0157 194.533 74.7444 194.455 74.469C194.385 74.2182 194.316 73.9715 194.262 73.7167C193.987 72.3684 193.613 71.1393 193.156 70.0746C193.103 69.9348 193.045 69.7663 192.984 69.5936C192.819 69.125 192.647 68.64 192.379 68.1549L192.367 68.1302L192.351 68.1056C192.022 67.5876 191.771 67.0162 191.504 66.412L191.393 66.1571L191.385 66.1365L191.372 66.116C191.043 65.4665 190.645 64.8787 190.262 64.3073C189.971 63.8756 189.695 63.4687 189.453 63.0412C189.107 62.441 188.672 61.8984 188.158 61.4215C187.969 61.2201 187.78 61.0228 187.59 60.8214C187.229 60.4349 186.867 60.0527 186.493 59.6786C186.02 59.136 185.449 58.5153 184.754 57.9809C184.516 57.7589 184.29 57.5287 184.063 57.2944C183.615 56.8381 183.147 56.3612 182.6 55.946C181.897 55.3664 181.071 54.7992 180.105 54.2319L179.792 54.0017C179.27 53.6153 178.736 53.2124 178.128 52.8794C177.301 52.4519 176.467 52.1066 175.661 51.7696C175.049 51.5147 174.416 51.2516 173.82 50.968C173.306 50.6884 172.788 50.5363 172.282 50.3883C171.916 50.2815 171.571 50.1787 171.263 50.0348C170.843 49.8622 170.461 49.7512 170.095 49.6484L169.836 49.5744C169.516 49.4552 169.199 49.3648 168.878 49.3031C169.117 48.9373 169.232 48.5262 169.195 48.111V48.0493L169.174 47.9918C169.154 47.8932 169.121 47.7986 169.088 47.7041C169.216 47.7123 169.335 47.7246 169.454 47.7328H169.479H169.503H169.631C169.709 47.7328 169.783 47.7369 169.861 47.7369C169.96 47.7369 170.054 47.7369 170.153 47.7287C170.671 47.6712 171.069 47.3546 171.25 46.9189C172.385 45.8213 172.504 43.3631 172.525 41.1104C172.525 40.8967 172.525 40.7158 172.533 40.5719C172.566 40.5103 172.599 40.4363 172.627 40.3541C172.734 40.0252 172.78 39.6635 172.767 39.2442C172.78 38.4755 172.796 37.5752 172.734 36.6668C172.784 36.5023 172.804 36.3297 172.788 36.1529C172.767 35.5897 172.467 35.1376 172.245 34.8087L172.175 34.7018C172.142 34.6279 172.118 34.5539 172.089 34.4799C171.982 34.1921 171.85 33.8345 171.567 33.5138C171.341 33.2754 170.967 33.0123 170.375 33.0123L170.362 33ZM160.234 35.972C161.45 35.9309 162.696 35.9227 163.896 35.9186C164.99 35.9145 166.116 35.9104 167.23 35.8775H167.267L167.304 35.8734C167.715 35.8241 168.139 35.8117 168.582 35.7994C168.952 35.7871 169.331 35.7788 169.713 35.746C169.766 35.8693 169.828 35.9926 169.902 36.12C169.935 36.1735 169.964 36.2146 169.992 36.2598C169.992 36.2845 169.997 36.305 170.001 36.3297C170.091 36.86 170.095 37.3861 170.091 37.9329H169.684L169.82 38.9441V38.9976L169.84 39.0797C169.844 39.1003 169.849 39.1209 169.853 39.1414V39.31C169.849 39.6553 169.849 40.0047 169.844 40.35C169.844 41.1968 169.844 42.0724 169.799 42.9233L169.775 43.1535C169.701 43.8441 169.635 44.4977 169.409 45.0485H169.285C169.039 45.0321 168.792 45.0239 168.545 45.0239C168.319 45.0239 168.118 45.0321 167.929 45.0485C167.666 44.954 167.419 44.9416 167.251 44.9416C167.164 44.9416 167.078 44.9416 166.992 44.9499C166.934 44.9499 166.877 44.954 166.819 44.954C166.798 44.954 166.778 44.954 166.753 44.954H166.724H166.696C166.568 44.954 166.445 44.9499 166.317 44.9499C165.61 44.9499 164.92 44.9992 164.254 45.0896C161.434 45.2047 158.561 45.25 155.782 45.287H155.753H155.724C153.973 45.4267 152.177 45.4801 150.438 45.5295C149.907 45.5459 149.377 45.5583 148.847 45.5788C148.506 45.5788 148.14 45.5788 147.774 45.5788C146.738 45.5788 145.706 45.5747 144.67 45.5665C143.634 45.5624 142.594 45.5541 141.559 45.5541C140.724 45.5541 139.894 45.5541 139.059 45.5665C138.447 45.5953 137.863 45.6117 137.283 45.624C136.622 45.6405 135.939 45.6569 135.261 45.6939C134.221 45.7802 133.173 45.8008 132.157 45.8172L131.405 45.8337H131.38H131.356C130.546 45.8995 129.707 45.92 128.893 45.9447C127.89 45.9734 126.85 46.0022 125.819 46.1091C125.161 46.1584 124.483 46.216 123.804 46.2776L122.904 46.3557C122.501 46.3681 122.057 46.3763 121.613 46.3763C120.462 46.3763 119.32 46.3311 118.243 46.2859H118.197H118.152C117.984 46.2941 117.815 46.3146 117.651 46.3393L117.453 46.327C117.059 46.3023 116.652 46.2776 116.237 46.2776C116.076 46.2776 115.916 46.2776 115.751 46.29C115.706 46.2941 115.661 46.2982 115.62 46.2982C115.62 45.9652 115.599 45.6364 115.583 45.3157C115.571 45.0526 115.558 44.7937 115.55 44.5306C115.55 44.0907 115.538 43.6303 115.521 43.174C115.501 42.4917 115.48 41.8463 115.509 41.1968C115.521 41.0323 115.542 40.8392 115.558 40.646C115.575 40.461 115.595 40.276 115.608 40.091L115.686 39.1332H115.562C115.583 38.4919 115.575 37.789 115.558 37.1395V37.1272C115.579 36.8394 115.583 36.5475 115.587 36.2845C115.587 36.268 115.587 36.2557 115.587 36.2393C115.854 36.2146 116.113 36.1817 116.368 36.1447C116.57 36.12 116.771 36.0913 116.972 36.0707C117.042 36.0625 117.116 36.0584 117.19 36.0584C117.474 36.0584 117.778 36.1077 118.103 36.157C118.3 36.1899 118.497 36.2187 118.695 36.2393C119.562 36.3379 120.425 36.3502 121.264 36.3585C121.716 36.3626 122.168 36.3667 122.621 36.3872C123.241 36.4407 123.928 36.4694 124.614 36.4694C124.857 36.4694 125.095 36.4695 125.329 36.4571C126.801 36.3461 128.273 36.3379 129.699 36.3338C130.164 36.3338 130.628 36.3297 131.089 36.3256C132.067 36.268 133.008 36.2393 133.933 36.2393H134.274C134.677 36.2351 135.055 36.231 135.434 36.231C136.108 36.231 136.782 36.2393 137.456 36.2475C138.138 36.2557 138.817 36.2639 139.499 36.2639C139.742 36.2639 139.98 36.2639 140.223 36.2639C141.09 36.2269 141.929 36.157 142.738 36.0872C143.26 36.0419 143.782 35.9967 144.305 35.9638C144.777 35.9392 145.287 35.9268 145.85 35.9268C146.726 35.9268 147.622 35.9556 148.411 35.9844C148.637 35.9844 148.826 35.9844 149.011 35.9844C149.805 35.9844 150.619 36.0049 151.404 36.0255C152.201 36.046 153.023 36.0666 153.837 36.0666C154.191 36.0666 154.548 36.0666 154.906 36.0543C155.182 36.0419 155.445 36.0378 155.704 36.0378C156.119 36.0378 156.538 36.0502 156.953 36.0584C157.385 36.0707 157.816 36.0789 158.248 36.0789C159.004 36.0789 159.629 36.0419 160.209 35.968L160.234 35.972ZM165.487 47.6301C165.582 47.626 165.676 47.6218 165.771 47.6177C165.832 47.8356 165.948 48.037 166.116 48.2179C166.005 48.3412 165.906 48.4933 165.841 48.6906C165.709 49.0318 165.689 49.3607 165.672 49.6279C165.668 49.7183 165.664 49.8087 165.652 49.8992V49.9362L165.643 49.9732C165.619 50.487 165.878 50.9721 166.313 51.2228C166.396 51.2722 166.478 51.3092 166.552 51.3338C166.675 51.416 166.815 51.4777 166.959 51.5147C167.312 51.6873 167.658 51.7326 167.941 51.7696C168.023 51.7819 168.102 51.7901 168.184 51.8065C168.492 51.8847 168.8 51.9874 169.125 52.0943C169.388 52.1806 169.655 52.2711 169.923 52.3492C170.671 52.6575 171.365 52.8918 172.04 53.0727C173.232 53.6112 174.453 54.1332 175.632 54.643L176.545 55.0376C177.149 55.3335 177.733 55.7734 178.354 56.242L178.481 56.3366C178.728 56.5133 178.954 56.6449 179.172 56.7723C179.344 56.8751 179.517 56.9737 179.681 57.0888C180.372 57.5575 180.972 58.022 181.523 58.5111C181.741 58.7084 181.955 58.9304 182.177 59.1647C182.477 59.4772 182.785 59.8019 183.147 60.102L183.163 60.1184L183.184 60.1308C183.595 60.435 183.924 60.7926 184.298 61.2078C184.495 61.4256 184.696 61.6435 184.914 61.8655C185.173 62.1286 185.428 62.3999 185.683 62.6712C186.004 63.0124 186.337 63.3659 186.682 63.7071C186.945 64.0277 187.171 64.3977 187.41 64.7882C187.574 65.0554 187.734 65.3226 187.911 65.5816C188.047 65.7994 188.191 66.0173 188.339 66.2311C188.552 66.5476 188.758 66.8477 188.918 67.1601C189.239 67.9 189.605 68.7304 190.09 69.5279C190.287 69.9595 190.451 70.4117 190.624 70.8885C190.756 71.2544 190.891 71.6202 191.039 71.9779C191.311 72.7548 191.487 73.5358 191.681 74.3662L191.792 74.8512L191.8 74.8841L191.812 74.917C192.034 75.6076 192.153 76.3311 192.277 77.0957L192.318 77.3506V77.3835L192.33 77.4163C192.569 78.407 192.7 79.2826 192.733 80.0924V80.1294L192.737 80.1664C192.852 81.1324 192.984 82.2259 193.058 83.2906V83.3194L193.062 83.344C193.218 84.5485 193.288 85.5474 193.284 86.4764C193.325 88.0179 193.358 89.8102 193.276 91.6107C193.202 92.5561 193.181 93.5304 193.165 94.4758L193.144 95.3144C193 98.1262 193.165 100.983 193.325 103.741L193.403 105.127C193.436 106.241 193.378 107.416 193.321 108.551C193.28 109.439 193.234 110.36 193.23 111.276C193.239 113.023 193.222 114.799 193.202 116.513C193.173 119.3 193.14 122.186 193.23 125.031C193.35 128.139 193.313 131.308 193.28 134.37C193.251 136.894 193.222 139.505 193.28 142.078C193.415 145.194 193.424 148.318 193.3 151.393C193.226 154.307 193.202 157.288 193.222 160.527C193.222 162.48 193.321 164.461 193.419 166.372C193.498 167.889 193.576 169.46 193.6 171.001C193.613 175.868 193.588 179.971 193.432 184.135C193.424 184.46 193.535 184.764 193.74 185.006C193.757 185.051 193.773 185.097 193.789 185.142C193.814 185.212 193.855 185.319 193.868 185.368C193.818 185.841 193.835 186.301 193.851 186.745C193.863 187.094 193.876 187.423 193.851 187.736C193.736 188.747 193.691 189.849 193.699 191.279C193.695 191.46 193.683 191.674 193.674 191.883C193.65 192.348 193.629 192.825 193.65 193.318C193.699 194.477 193.773 195.85 193.909 197.24V197.355C193.925 198.785 193.941 200.269 193.806 201.692C193.781 201.877 193.744 202.09 193.711 202.3C193.641 202.703 193.572 203.122 193.555 203.57V203.673C193.543 204.17 193.53 204.639 193.432 205.067C193.378 205.28 193.243 205.519 193.082 205.79C192.959 206 192.836 206.213 192.725 206.46C192.651 206.62 192.581 206.789 192.511 206.957L192.392 207.237C191.931 208.24 191.45 209.124 190.932 209.925C190.665 210.262 190.316 210.558 189.946 210.875C189.781 211.015 189.613 211.155 189.453 211.303C189.313 211.418 189.157 211.566 189 211.714C188.807 211.895 188.626 212.067 188.441 212.199C188.137 212.347 187.808 212.462 187.463 212.589C187.101 212.721 186.727 212.856 186.353 213.033C182.793 214.221 178.777 214.266 175.546 214.307C175.156 214.299 174.736 214.299 174.317 214.299C173.754 214.299 173.191 214.303 172.627 214.307C172.068 214.312 171.509 214.316 170.95 214.316C170.584 214.316 170.219 214.316 169.853 214.307C169.154 214.291 168.447 214.275 167.74 214.254C166.178 214.213 164.562 214.172 162.971 214.172C161.779 214.172 160.71 214.196 159.699 214.242C158.803 214.275 157.87 214.287 156.867 214.287C154.199 214.287 151.482 214.176 148.851 214.065L148.341 214.044C147.392 214.044 146.475 214.024 145.554 214.003C144.572 213.983 143.556 213.962 142.553 213.962C141.793 213.962 141.115 213.974 140.473 213.999C139.437 214.04 138.328 214.057 136.885 214.057C136.252 214.057 135.614 214.057 134.981 214.048C134.344 214.048 133.707 214.04 133.07 214.04C131.808 214.04 130.788 214.053 129.855 214.085C129.021 214.114 128.191 214.155 127.36 214.201C126.386 214.254 125.375 214.307 124.388 214.328C124.183 214.328 123.956 214.328 123.734 214.328C122.764 214.328 121.794 214.316 120.824 214.299C119.94 214.287 119.057 214.275 118.169 214.275H117.314C116.08 214.275 114.847 214.275 113.614 214.283C112.381 214.287 111.152 214.291 109.918 214.291C109.372 214.291 108.825 214.291 108.278 214.291C106.182 214.225 104.019 213.995 101.931 213.773L101.278 213.703C101.06 213.514 100.78 213.399 100.476 213.383C100.205 213.354 99.9334 213.329 99.658 213.304C98.7208 213.222 97.837 213.144 97.0847 212.791C95.7076 212.133 94.7293 210.83 94.0345 209.765C93.7838 209.391 93.5248 209.042 93.2741 208.705L93.0685 208.429C92.678 207.804 92.3985 207.085 92.2382 206.279C91.8106 203.965 91.564 201.708 91.5065 199.579C91.4982 196.915 91.4982 194.227 91.5023 191.542C91.5023 188.694 91.5064 185.845 91.4941 182.996C91.2927 171.897 91.3174 160.613 91.342 150.665C91.3626 146.571 91.2269 142.419 91.0913 138.403L91.0502 137.137C91.0378 135.472 91.0173 133.783 90.9967 132.093C90.9762 130.338 90.9556 128.583 90.9433 126.823C90.9227 125.224 90.8652 123.609 90.8076 122.046C90.709 119.387 90.6103 116.633 90.6966 113.94V113.656C90.7213 111.071 90.746 108.399 90.8652 105.78C90.9309 103.121 90.9145 100.346 90.8117 97.2917C90.8035 96.597 90.7706 95.8817 90.7377 95.187C90.7131 94.6814 90.6925 94.1758 90.6761 93.6701L90.6679 93.4975C90.6555 93.2056 90.6432 92.885 90.5733 92.5479C90.7295 92.3259 90.8159 92.0587 90.8117 91.7874C90.8323 91.29 90.8159 90.7598 90.7994 90.25C90.7912 90.0527 90.7871 89.8554 90.783 89.6581C90.7665 88.8113 90.7953 87.9151 90.8693 86.8422V86.8176V86.7929V86.6819C90.8857 85.6625 90.9022 84.6964 91.0913 83.7633C91.3009 82.9823 91.3913 82.2012 91.4818 81.449C91.5434 80.9516 91.5969 80.4788 91.6832 80.0143C91.8805 79.1716 92.0655 78.2714 92.2423 77.3999C92.5752 75.7679 92.9205 74.0826 93.422 72.4917C94.1661 70.6707 95.0376 68.9811 96.0036 67.4807C96.3201 66.9628 96.5585 66.449 96.7887 65.9516C97.0477 65.3925 97.2943 64.8663 97.6109 64.3977C97.8616 64.0442 98.1658 63.6989 98.4865 63.333C98.7906 62.9877 99.1072 62.6301 99.399 62.2354C99.51 62.0916 99.6292 61.9313 99.7443 61.7709C99.991 61.438 100.225 61.1215 100.476 60.8337C100.895 60.3856 101.372 59.9581 101.874 59.5059C102.034 59.362 102.198 59.2182 102.359 59.0702C102.663 58.8112 102.984 58.5235 103.304 58.2357C103.95 57.652 104.562 57.1053 105.236 56.6408C105.734 56.2913 106.309 56.0488 106.918 55.794C107.103 55.7158 107.288 55.6377 107.472 55.5596C107.859 55.387 108.237 55.2102 108.615 55.0335C108.985 54.8608 109.355 54.6882 109.729 54.5196C110.268 54.2936 110.802 54.0222 111.32 53.7591C112.257 53.2823 113.145 52.8301 114.095 52.6246H114.124L114.152 52.6123C114.448 52.5259 114.769 52.4684 115.106 52.4067C115.686 52.2998 116.29 52.1929 116.89 51.9258C116.989 51.8805 117.211 51.786 117.437 51.6545C117.507 51.638 117.577 51.6216 117.642 51.601C117.942 51.564 118.226 51.4284 118.436 51.2146C118.53 51.1242 118.596 51.0173 118.637 50.9351C118.913 50.5774 119.052 50.1623 119.036 49.7553C119.024 49.4593 118.937 49.2168 118.822 49.0071C118.876 48.9948 118.929 48.9825 118.983 48.9619C119.665 49.0236 120.302 49.0524 120.927 49.0524C121.03 49.0524 121.132 49.0524 121.239 49.0524C121.395 49.0565 121.593 49.0606 121.79 49.0606C122.962 49.0606 124.129 48.9578 125.255 48.8551C125.926 48.7934 126.62 48.7317 127.299 48.6947C128.018 48.6495 128.787 48.6331 129.527 48.6166L130.262 48.6002L130.612 48.5796C131.261 48.5385 131.878 48.4974 132.507 48.4974H132.741C133.502 48.4974 134.225 48.4522 134.924 48.407C135.627 48.3618 136.293 48.3207 136.963 48.3207H137.016C138.611 48.2508 140.157 48.2426 141.328 48.2426C141.957 48.2426 142.586 48.2426 143.215 48.2467C143.848 48.2467 144.477 48.2508 145.11 48.2508C145.451 48.2508 145.793 48.2508 146.13 48.2508C146.483 48.259 146.861 48.2631 147.24 48.2631C148.218 48.2631 149.205 48.2385 150.158 48.2179C150.795 48.2015 151.433 48.1891 152.07 48.1768C152.875 48.1603 153.673 48.1069 154.442 48.0576C155.05 48.0165 155.654 47.9754 156.267 47.9548C156.834 47.9466 157.426 47.9425 158.014 47.9384C159.527 47.926 161.089 47.9137 162.638 47.8274C162.906 47.815 163.181 47.8068 163.452 47.7986C164.106 47.7822 164.784 47.7657 165.475 47.6547L165.487 47.6301Z" fill="white"/>
<path d="M184.034 188.258C180.224 186.202 175.78 185.705 171.899 183.802C171.529 183.629 171.196 183.374 170.826 183.21C171.057 182.79 171.287 182.375 171.517 181.972C172.199 180.751 173.096 179.683 173.963 178.593C175.213 176.982 176.236 175.214 177.375 173.525C178.826 171.535 180.096 169.32 180.988 167.005C182.156 164.288 183.311 161.402 178.957 162.981C177.19 163.597 175.603 164.629 173.864 165.328C171.258 166.442 168.631 167.523 165.996 168.571C164.348 169.159 162.638 169.583 161.022 170.269C158.49 171.354 156.118 172.781 153.718 174.121C153.701 174.129 153.685 174.141 153.668 174.15C153.208 173.891 152.636 173.919 152.131 173.788C150.836 173.504 149.578 173.225 148.271 172.978C147.12 172.863 145.965 172.789 144.83 172.551C143.585 172.444 140.119 171.449 140.518 173.702C141.25 175.346 142.956 176.25 144.07 177.607C145.299 179.247 147.358 179.859 149.019 180.953C149.854 181.59 150.696 182.211 151.658 182.646C152.225 182.897 152.719 183.238 153.224 183.629C153.368 183.703 153.508 183.736 153.635 183.744C153.82 184.768 154.026 185.787 154.203 186.815C154.766 189.487 155.374 192.142 155.781 194.843C156.159 196.738 156.776 198.576 157.195 200.462C156.973 200.964 156.912 201.478 157.557 201.794C158.001 201.996 158.428 201.745 158.659 201.367C159.247 201.326 159.888 200.705 160.344 200.36C160.936 199.858 161.54 199.365 162.235 199.011C164.64 197.799 167.193 197.149 169.7 196.134C171.274 195.517 172.75 194.679 174.341 194.095C176.236 193.454 178.049 192.631 179.808 191.686C180.877 191.131 182.143 190.646 183.294 190.198C184.199 189.931 184.897 189.022 184.042 188.258H184.034ZM151.272 180.484C150.507 179.929 149.767 179.329 148.92 178.893C147.967 178.355 146.939 177.936 146.08 177.249C145.87 177.056 145.681 176.846 145.492 176.632C144.769 175.74 143.671 174.869 142.832 174.022C143.979 174.117 145.11 174.372 146.253 174.52C147.029 174.594 147.81 174.589 148.575 174.758C149.899 174.972 151.239 175.338 152.591 175.444C152.394 176.472 152.464 177.533 152.669 178.565C152.863 179.555 153.031 180.546 153.22 181.537C152.599 181.179 151.917 180.916 151.272 180.488V180.484ZM154.955 181.993C154.556 179.901 153.849 177.857 153.783 175.716C153.779 175.609 153.763 175.494 153.75 175.379C156.698 174.154 159.456 172.472 162.49 171.408C164.151 170.845 165.857 170.409 167.501 169.788C170.206 168.662 172.956 167.646 175.615 166.409C177.145 165.784 178.522 164.798 180.145 164.42C179.43 166.339 178.645 168.259 177.626 170.039C176.861 171.272 175.994 172.44 175.217 173.665C174.156 175.329 173.096 176.998 171.817 178.511C169.856 180.867 168.738 183.76 167.053 186.301C166.025 187.805 164.821 189.191 163.822 190.716C162.478 192.664 161.265 194.942 159.707 196.775C159.284 197.318 158.856 197.856 158.449 198.411C158.104 197.129 157.726 195.854 157.446 194.555C156.76 190.354 155.683 186.215 154.947 181.989L154.955 181.993ZM177.264 191.053C175.961 191.711 174.571 192.171 173.207 192.693C170.917 193.692 168.681 194.802 166.288 195.562C164.562 196.142 162.811 196.742 161.224 197.638C161.701 197.034 162.173 196.426 162.609 195.805C163.452 194.547 164.192 193.223 165.051 191.978C166.124 190.338 167.419 188.829 168.52 187.209C169.141 186.276 169.712 185.253 170.271 184.225C170.818 184.776 171.546 185.15 172.22 185.52C175.184 187.024 178.518 187.719 181.592 189.018C180.096 189.581 178.682 190.334 177.26 191.057L177.264 191.053Z" fill="#FF76B4"/>
<path d="M177.544 154.184C174.609 150.998 170.568 149.083 167.518 146.024C167.226 145.741 166.991 145.391 166.695 145.112C167.049 144.791 167.402 144.47 167.752 144.166C168.792 143.233 169.988 142.514 171.164 141.766C172.87 140.647 174.415 139.307 176.039 138.082C178.062 136.676 179.981 134.991 181.576 133.092C183.562 130.901 185.597 128.55 180.964 128.628C179.093 128.632 177.256 129.092 175.386 129.191C172.557 129.396 169.725 129.565 166.893 129.701C165.142 129.717 163.386 129.561 161.639 129.688C158.889 129.89 156.184 130.469 153.475 130.954C153.459 130.958 153.438 130.963 153.422 130.967C153.068 130.572 152.522 130.412 152.086 130.124C150.955 129.437 149.858 128.759 148.699 128.102C147.646 127.616 146.582 127.172 145.583 126.581C144.44 126.075 141.488 124.007 141.131 126.264C141.287 128.056 142.607 129.47 143.215 131.115C143.844 133.067 145.595 134.317 146.804 135.887C147.383 136.759 147.979 137.622 148.748 138.345C149.204 138.765 149.558 139.25 149.907 139.784C150.022 139.899 150.137 139.977 150.257 140.027C150.1 141.054 149.961 142.086 149.796 143.114C149.459 145.823 149.171 148.532 148.678 151.22C148.419 153.136 148.403 155.072 148.185 156.992C147.815 157.395 147.589 157.859 148.09 158.369C148.444 158.702 148.929 158.607 149.27 158.324C149.837 158.476 150.647 158.097 151.19 157.921C151.913 157.637 152.645 157.37 153.418 157.263C156.086 156.897 158.712 157.115 161.413 156.971C163.103 156.901 164.772 156.585 166.465 156.552C168.463 156.564 170.449 156.375 172.422 156.05C173.614 155.874 174.966 155.828 176.199 155.775C177.145 155.816 178.099 155.183 177.54 154.18L177.544 154.184ZM149.093 136.171C148.551 135.398 148.045 134.588 147.387 133.902C146.664 133.084 145.825 132.352 145.237 131.423C145.102 131.172 144.991 130.913 144.88 130.65C144.485 129.573 143.733 128.393 143.215 127.312C144.271 127.773 145.254 128.385 146.29 128.895C147.001 129.22 147.741 129.466 148.407 129.877C149.587 130.51 150.738 131.291 151.979 131.83C151.461 132.738 151.177 133.766 151.038 134.806C150.902 135.805 150.738 136.8 150.59 137.795C150.121 137.256 149.562 136.783 149.089 136.171H149.093ZM152.082 138.794C152.386 136.689 152.382 134.522 153.019 132.475C153.048 132.373 153.072 132.257 153.097 132.146C156.283 131.949 159.44 131.254 162.655 131.238C164.41 131.246 166.165 131.39 167.92 131.337C170.843 131.152 173.778 131.086 176.693 130.782C178.345 130.691 179.965 130.202 181.626 130.375C180.327 131.957 178.958 133.515 177.416 134.868C176.29 135.784 175.094 136.607 173.959 137.511C172.413 138.74 170.868 139.973 169.17 140.989C166.552 142.575 164.55 144.951 162.133 146.801C160.673 147.891 159.082 148.807 157.64 149.925C155.732 151.327 153.845 153.086 151.778 154.316C151.202 154.69 150.623 155.06 150.055 155.454C150.146 154.131 150.203 152.803 150.364 151.483C151.083 147.286 151.412 143.023 152.09 138.785L152.082 138.794ZM170.227 154.62C168.78 154.817 167.316 154.801 165.857 154.85C163.366 155.047 160.891 155.372 158.384 155.31C156.563 155.298 154.709 155.294 152.92 155.623C153.566 155.208 154.211 154.788 154.824 154.34C156.028 153.428 157.163 152.416 158.379 151.516C159.925 150.316 161.643 149.309 163.214 148.137C164.106 147.459 164.977 146.674 165.84 145.885C166.177 146.583 166.745 147.175 167.263 147.743C169.577 150.131 172.504 151.874 174.987 154.102C173.388 154.147 171.809 154.402 170.227 154.62Z" fill="#FF76B4"/>
<path d="M111.64 151.208C113.046 155.303 115.973 158.686 117.531 162.714C117.687 163.092 117.757 163.504 117.918 163.878C117.465 164.03 117.013 164.178 116.569 164.317C115.241 164.753 113.856 164.93 112.479 165.14C110.469 165.477 108.516 166.081 106.535 166.55C104.118 167.026 101.684 167.791 99.4604 168.889C96.7596 170.093 93.952 171.429 98.2231 173.221C99.9413 173.969 101.803 174.286 103.559 174.952C106.231 175.901 108.894 176.888 111.538 177.907C113.149 178.594 114.691 179.445 116.343 180.033C118.941 180.954 121.65 181.513 124.322 182.158C124.338 182.158 124.359 182.166 124.38 182.166C124.544 182.672 124.98 183.034 125.263 183.478C126.024 184.563 126.756 185.623 127.549 186.692C128.314 187.56 129.115 188.394 129.789 189.339C130.632 190.264 132.502 193.343 133.736 191.419C134.315 189.714 133.674 187.892 133.777 186.141C133.986 184.102 132.889 182.253 132.412 180.325C132.231 179.293 132.034 178.265 131.623 177.291C131.376 176.724 131.244 176.136 131.138 175.507C131.08 175.355 131.002 175.236 130.912 175.145C131.471 174.265 132.013 173.378 132.576 172.506C133.974 170.163 135.331 167.799 136.864 165.538C137.871 163.89 138.668 162.122 139.639 160.449C140.14 160.231 140.535 159.894 140.276 159.228C140.087 158.78 139.602 158.673 139.178 158.793C138.722 158.423 137.826 158.447 137.258 158.39C136.482 158.357 135.705 158.308 134.956 158.098C132.367 157.358 130.052 156.104 127.52 155.146C125.946 154.53 124.289 154.148 122.727 153.494C120.902 152.68 119.011 152.051 117.075 151.554C115.911 151.237 114.654 150.732 113.507 150.283C112.66 149.864 111.529 150.061 111.64 151.204V151.208ZM130.435 179.149C130.62 180.078 130.755 181.019 131.084 181.911C131.417 182.951 131.89 183.959 132.054 185.048C132.075 185.332 132.075 185.615 132.067 185.899C131.993 187.046 132.206 188.427 132.247 189.623C131.466 188.776 130.813 187.818 130.069 186.939C129.551 186.355 128.971 185.833 128.523 185.188C127.697 184.131 126.957 182.955 126.04 181.961C126.883 181.34 127.553 180.514 128.1 179.618C128.626 178.758 129.177 177.916 129.711 177.061C129.925 177.743 130.246 178.401 130.431 179.153L130.435 179.149ZM128.753 175.544C127.627 177.348 126.76 179.33 125.354 180.949C125.284 181.032 125.218 181.126 125.148 181.221C122.152 180.119 118.982 179.486 116.035 178.208C114.432 177.492 112.882 176.654 111.254 175.996C108.504 174.989 105.791 173.867 103 172.971C101.45 172.391 99.7728 172.185 98.3217 171.355C100.147 170.43 102.03 169.555 103.982 168.934C105.38 168.547 106.81 168.276 108.212 167.906C110.119 167.401 112.031 166.895 113.996 166.652C117.034 166.254 119.821 164.885 122.78 164.161C124.556 163.75 126.381 163.553 128.153 163.109C130.463 162.591 132.897 161.74 135.289 161.448C135.968 161.337 136.646 161.23 137.32 161.099C136.704 162.274 136.116 163.467 135.442 164.609C133.094 168.161 131.076 171.931 128.749 175.536L128.753 175.544ZM118.514 153.753C119.919 154.156 121.251 154.756 122.604 155.299C124.963 156.121 127.36 156.82 129.629 157.884C131.29 158.628 132.987 159.376 134.755 159.796C133.995 159.919 133.238 160.042 132.494 160.207C131.022 160.56 129.58 161.029 128.104 161.362C126.205 161.839 124.227 162.069 122.32 162.509C121.231 162.772 120.117 163.138 119.011 163.512C118.986 162.735 118.699 161.966 118.46 161.239C117.305 158.123 115.328 155.348 113.951 152.31C115.431 152.914 116.98 153.317 118.518 153.749L118.514 153.753Z" fill="#FF76B4"/>
<path d="M37.9773 203.442C36.241 194.993 27.5212 180.071 32.0005 171.647C51.5063 171.647 70.8018 164.007 90.0633 161.53C95.7835 160.795 105.869 155.548 108.635 162.761C113.315 174.965 116.815 188.126 119.629 200.98C121.268 208.472 124.458 219.221 122.243 226.995C121.936 228.073 117.905 227.53 116.96 227.53C102.617 227.53 89.4362 228.764 75.2273 230.902C65.6928 232.337 56.7226 235.491 47.2631 236.951C43.9489 237.462 43.6859 233.895 43.5274 230.956C43.044 221.985 39.7816 212.223 37.9773 203.442Z" fill="#2F2E2E" stroke="white" stroke-width="3" stroke-linecap="round"/>
<path d="M76.2973 197.702C73.8642 197.442 72.8276 194.982 70.3822 194.858C68.4229 194.759 66.4295 194.858 64.4671 194.858C60.2717 194.858 58.4539 202.568 61.5644 204.811C67.714 209.246 75.1534 211.291 82.1576 214.237C85.1655 215.503 85.0293 215.29 86.6486 212.868C88.9381 209.444 91.0804 206.052 93.0566 202.441C96.3395 196.444 97 192.89 97 186.327C97 183.63 88.7003 183.424 86.6486 184.958C79.3499 190.416 78.0746 196.18 74.3256 203.389" stroke="white" stroke-width="3" stroke-linecap="round"/>
</svg>
