<svg width="23" height="24" viewBox="0 0 23 24" fill="none" xmlns="http://www.w3.org/2000/svg">
<path d="M19.0673 7.26367H3.34616C2.05041 7.26367 1 8.31408 1 9.60983V20.7444C1 22.0402 2.05041 23.0906 3.34616 23.0906H19.0673C20.3631 23.0906 21.4135 22.0402 21.4135 20.7444V9.60983C21.4135 8.31408 20.3631 7.26367 19.0673 7.26367Z" stroke="#8F8F8F" stroke-width="1.60256" stroke-miterlimit="10" stroke-linecap="round"/>
<path d="M1 11.998H21.4135" stroke="#8F8F8F" stroke-width="1.60256" stroke-miterlimit="10" stroke-linecap="round"/>
<path d="M6.44515 1.58159C6.41951 1.60723 6.39387 1.63608 6.36823 1.66172C5.4131 2.71941 5.88104 4.41493 7.22078 4.90211L8.15989 5.24185L11.2048 6.34441L10.1022 3.29954L9.76245 2.36044C9.27848 1.02069 7.57976 0.552748 6.52207 1.50788C6.49643 1.53352 6.46758 1.55916 6.44194 1.5848L6.44515 1.58159Z" stroke="#8F8F8F" stroke-width="1.60256" stroke-miterlimit="10" stroke-linecap="round"/>
<path d="M15.9679 1.58089C15.9423 1.55525 15.9134 1.52961 15.8878 1.50397C14.8301 0.548841 13.1346 1.01679 12.6474 2.35653L12.3076 3.29564L11.2051 6.34051L14.25 5.23795L15.1891 4.8982C16.5288 4.41423 16.9968 2.71551 16.0416 1.65782C16.016 1.63218 15.9903 1.60333 15.9647 1.57769L15.9679 1.58089Z" stroke="#8F8F8F" stroke-width="1.60256" stroke-miterlimit="10" stroke-linecap="round"/>
</svg>
