<svg width="35" height="31" viewBox="0 0 35 31" fill="none" xmlns="http://www.w3.org/2000/svg">
<path d="M10.1719 9.85684C10.1719 9.81831 10.2031 9.78711 10.2416 9.78711C10.2801 9.78711 10.3113 9.81831 10.3113 9.85684C10.3113 9.89538 10.2801 9.92658 10.2416 9.92658C10.2031 9.92658 10.1719 9.89538 10.1719 9.85684Z" fill="white"/>
<path d="M14.6397 11.0004L10.7916 9.64248C10.887 9.41677 10.8503 9.13049 10.6246 8.96901C10.2612 8.73962 9.79878 8.77449 9.39139 8.66805C8.39494 8.45151 7.42786 8.23497 6.4204 8.04412C5.53405 7.9542 4.64586 7.89915 3.77053 7.71564C2.81078 7.63307 0.146247 6.86783 0.45087 8.60015C1.01424 9.86636 2.32816 10.5619 3.18331 11.6079C4.13021 12.8704 5.71573 13.342 6.99294 14.1843C7.63522 14.6743 8.28483 15.1514 9.02253 15.4872C9.45928 15.6799 9.83916 15.9423 10.2282 16.2433C10.8118 16.5387 11.2485 16.0598 11.2026 15.5918H12.8138L14.6397 11.0004Z" fill="#DBDBDB"/>
<path d="M33.9486 19.8046C31.0143 18.2228 27.5937 17.8392 24.6081 16.3767C24.241 16.206 23.9199 15.9252 23.5254 15.8262C23.3235 15.7895 23.162 15.9308 23.0996 16.1069L20.0442 14.2773L15.5886 18.687L13.0874 24.1886L14.0784 28.6864C13.8013 28.9085 13.6159 29.1745 13.8324 29.5911C14.3738 30.382 15.1941 29.5104 15.7097 29.125C16.1648 28.7378 16.6309 28.3598 17.165 28.0882C19.0165 27.1541 20.9819 26.655 22.9106 25.8732C24.1236 25.3979 25.2595 24.752 26.4817 24.3042C27.9406 23.8124 29.3371 23.1793 30.6914 22.449C31.5153 22.0196 32.4879 21.6489 33.3724 21.302C34.0697 21.0965 34.6074 20.3955 33.9468 19.8064L33.9486 19.8046Z" fill="#DBDBDB"/>
<path d="M30.0403 0.345077C28.6787 0.818529 27.4583 1.61312 26.1206 2.15263C24.113 3.00962 22.0944 3.84274 20.0648 4.65018C18.7949 5.10161 17.4792 5.42825 16.2368 5.95676C14.2861 6.79356 12.4639 7.89094 10.6123 8.92225C10.5646 8.95345 10.5114 8.98648 10.46 9.02135C10.4159 8.99015 10.3664 8.96446 10.3058 8.95712C10.0764 8.92409 9.92046 9.11861 9.89844 9.32781C9.55895 10.3004 9.60666 11.3409 9.80668 12.3392C10.2251 14.4532 10.616 16.5727 10.983 18.6959C11.4142 20.7512 11.884 22.7955 12.1996 24.8746C12.4914 26.3335 12.9649 27.7484 13.2878 29.1999C13.119 29.5871 13.0713 29.9798 13.5649 30.2239C13.9686 30.4074 14.3742 30.1119 14.5045 29.7284C14.6329 29.4715 14.8385 29.0916 15.0477 28.7944C15.7946 27.7208 16.7011 26.6969 17.4608 25.6087C18.1086 24.6416 18.6793 23.6213 19.3418 22.6615C20.1657 21.4008 21.1658 20.2374 22.0137 18.9914C22.8449 17.7435 23.5588 16.2773 24.3185 14.9652C24.8433 14.0256 25.5315 13.2017 26.2013 12.363C27.1647 11.1225 27.952 9.76089 28.8273 8.46165C29.9467 6.93119 30.9212 5.2264 31.6075 3.4427C32.5048 1.35254 33.3948 -0.869747 30.044 0.345077H30.0403Z" fill="white"/>
</svg>
