<svg width="22" height="20" viewBox="0 0 22 20" fill="none" xmlns="http://www.w3.org/2000/svg">
<path d="M12.6261 7.08548L15.1043 6.21098C15.0428 6.06562 15.0665 5.88126 15.2118 5.77727C15.4458 5.62955 15.7436 5.652 16.006 5.58346C16.6477 5.44401 17.2705 5.30456 17.9193 5.18166C18.49 5.12375 19.062 5.0883 19.6257 4.97013C20.2438 4.91695 21.9597 4.42415 21.7635 5.53973C21.4007 6.35515 20.5546 6.80304 20.0039 7.47664C19.3941 8.28969 18.3731 8.59341 17.5505 9.13584C17.1369 9.45137 16.7186 9.75862 16.2435 9.97488C15.9623 10.099 15.7176 10.268 15.4671 10.4618C15.0913 10.652 14.81 10.3436 14.8396 10.0422H13.802L12.6261 7.08548Z" fill="#DBDBDB"/>
<path d="M0.192167 12.7548C2.0818 11.7361 4.28461 11.4891 6.20733 10.5472C6.44369 10.4373 6.65049 10.2565 6.90457 10.1927C7.03457 10.1691 7.13856 10.2601 7.17874 10.3735L9.14638 9.19531L12.0157 12.0351L13.6264 15.578L12.9883 18.4745C13.1667 18.6175 13.2861 18.7889 13.1466 19.0571C12.798 19.5665 12.2698 19.0051 11.9377 18.7569C11.6446 18.5076 11.3445 18.2641 11.0006 18.0892C9.80816 17.4877 8.5425 17.1663 7.30046 16.6629C6.51932 16.3568 5.78781 15.9408 5.00076 15.6525C4.06126 15.3357 3.16193 14.928 2.28979 14.4577C1.75918 14.1812 1.13285 13.9424 0.56324 13.7191C0.114171 13.5867 -0.232086 13.1353 0.193349 12.756L0.192167 12.7548Z" fill="#DBDBDB"/>
<path d="M2.70917 0.222224C3.58604 0.527118 4.37191 1.03882 5.23342 1.38626C6.52626 1.93814 7.8262 2.47466 9.13323 2.99464C9.95101 3.28535 10.7983 3.4957 11.5984 3.83605C12.8546 4.37493 14.0281 5.08163 15.2205 5.74578C15.2512 5.76587 15.2855 5.78714 15.3186 5.80959C15.3469 5.7895 15.3788 5.77296 15.4178 5.76823C15.5656 5.74696 15.666 5.87223 15.6802 6.00695C15.8988 6.63328 15.8681 7.30334 15.7393 7.94622C15.4698 9.30761 15.2181 10.6725 14.9818 12.0398C14.7041 13.3634 14.4015 14.6799 14.1983 16.0188C14.0104 16.9583 13.7055 17.8695 13.4975 18.8042C13.6062 19.0536 13.6369 19.3065 13.319 19.4637C13.059 19.5818 12.7979 19.3916 12.714 19.1446C12.6312 18.9791 12.4989 18.7345 12.3642 18.5431C11.8832 17.8517 11.2994 17.1923 10.8101 16.4915C10.393 15.8687 10.0255 15.2117 9.59884 14.5936C9.06823 13.7818 8.42417 13.0325 7.8782 12.2301C7.34286 11.4265 6.88315 10.4823 6.39391 9.63732C6.05592 9.03226 5.61276 8.50164 5.18142 7.96158C4.56099 7.16271 4.05402 6.28584 3.49032 5.44915C2.76944 4.46357 2.14193 3.36571 1.69995 2.21704C1.12207 0.87101 0.548913 -0.560102 2.70681 0.222224H2.70917Z" fill="white"/>
</svg>
