<svg width="206" height="158" viewBox="0 0 206 158" fill="none" xmlns="http://www.w3.org/2000/svg">
<path d="M114.175 77.4323C114.341 74.7854 114.153 72.1309 114.34 69.4896C114.753 65.9757 114.894 62.443 115.1 58.9169C115.44 55.3052 115.746 51.6953 116.001 48.0713C116.123 46.3581 116.501 44.6478 117.479 43.2237C117.604 42.8905 117.947 42.6506 118.306 42.804C118.633 42.949 118.742 43.3237 118.598 43.607C118.483 44.0315 118.447 44.489 118.36 44.8881C117.711 47.5924 117.894 50.39 117.679 53.1348C117.159 58.6668 117.093 64.2111 116.517 69.7054C116.371 72.2798 116.548 74.8534 116.388 77.4354C116.367 78.0416 115.906 78.5498 115.281 78.5573C114.693 78.5525 114.138 78.0564 114.169 77.453L114.175 77.4323Z" fill="#ACABAB"/>
<path d="M117.703 44.1975C117.72 44.1354 117.786 44.0977 117.848 44.1147C117.91 44.1316 117.948 44.1976 117.931 44.2597C117.914 44.3218 117.848 44.3594 117.786 44.3425C117.724 44.3255 117.686 44.2597 117.703 44.1975Z" fill="#ACABAB"/>
<path d="M114.186 78.7812C113.174 77.8821 114.167 76.9739 114.856 76.283C115.99 75.1461 117.311 74.2162 118.597 73.2543C121.171 71.4868 123.47 69.0548 125.811 67.0792C127.584 65.5159 129.56 64.1861 131.355 62.6623C134.324 60.0571 136.708 56.825 139.967 54.5436C142.076 53.0942 143.972 51.3643 145.865 49.6448C147.256 48.3779 148.742 47.2147 150.115 45.9318C151.996 44.0532 153.635 41.9195 155.181 39.7603C153.014 39.6697 150.967 40.446 148.839 40.6999C145.095 41.3358 141.31 41.6714 137.54 42.1557C135.278 42.3729 132.998 42.3294 130.725 42.4656C126.506 42.7607 122.429 43.9623 118.26 44.4823C117.835 44.4889 117.558 44.0794 117.655 43.6831C117.775 43.1597 118.393 43.0167 118.833 42.87C122.293 42.0119 125.741 41.039 129.279 40.5471C131.533 40.2386 133.81 40.2925 136.081 40.1224C139.732 39.7058 143.382 39.2553 147.025 38.7474C149.439 38.4606 151.767 37.7163 154.192 37.5547C160.178 37.063 157.742 40.2811 155.356 43.2789C153.446 45.8729 151.108 48.2052 148.618 50.1958C146.623 51.921 144.735 53.7864 142.623 55.3685C141.166 56.4282 139.68 57.4692 138.416 58.7596C136.602 60.5563 134.793 62.6213 132.882 64.2806C130.955 65.9239 128.812 67.3751 126.917 69.0608C125.413 70.3305 124.043 71.7253 122.557 73.011C120.842 74.4453 118.92 75.7008 117.231 77.1201C116.756 77.5135 116.258 78.034 115.935 78.402C115.559 78.9667 114.766 79.2622 114.193 78.7943L114.186 78.7812Z" fill="#ACABAB"/>
<path d="M114.903 77.8644C114.625 76.5983 115.94 76.4676 116.797 76.1006C120.002 74.3831 123.678 74.1623 127.239 73.9547C130.489 73.8289 133.666 73.1939 136.862 72.7312C138.749 72.545 140.646 72.4398 142.505 72.0682C142.495 72.0654 142.472 72.0701 142.458 72.0776C142.438 72.0719 142.422 72.0898 142.401 72.0842C144.462 71.6674 146.505 71.1904 148.605 70.9958C145.207 68.3221 141.272 66.3138 138.079 63.418C137.228 62.5849 136.233 61.7461 135.809 60.607C135.651 60.0855 136.241 59.5566 136.743 59.7939C137.34 60.1347 137.733 60.7315 138.26 61.1645C142.456 64.8681 147.847 67.0064 151.909 70.8738C152.716 72.1174 151.535 73.019 150.313 73.0527C148.722 73.2192 146.971 73.3978 145.446 73.7271C142.926 74.3189 140.368 74.7224 137.79 74.8756C135.604 75.0579 133.473 75.6112 131.297 75.8406C127.812 76.2581 124.403 76.1956 120.985 76.8984C119.994 77.1063 119.071 77.511 118.164 77.942C117.153 78.3447 115.433 79.3885 114.913 77.8673L114.903 77.8644Z" fill="#ACABAB"/>
<path d="M114.966 54.5971C114.467 53.9381 113.972 53.3469 113.345 52.831C112.294 51.9545 111.449 50.8898 110.618 49.8176C108.92 47.8858 106.551 46.4162 105.568 43.9451C104.644 41.8685 102.809 40.1551 102.46 37.846C102.731 34.8941 106.72 37.3175 108.247 37.8787C109.583 38.566 111.01 39.0444 112.41 39.582C113.961 40.339 115.439 41.1205 116.958 41.9132C117.573 42.27 118.345 42.4141 118.824 42.9451C119.331 43.573 118.778 44.5792 117.963 44.468C115.925 43.9454 114.076 42.7732 112.175 41.9098C111.282 41.4325 110.296 41.1745 109.348 40.8157C107.97 40.2395 106.649 39.5343 105.241 39.0277C106.006 40.3823 107.076 41.8424 107.675 43.1961C107.839 43.5303 108.007 43.8541 108.201 44.1628C109.043 45.316 110.183 46.1944 111.19 47.1923C112.096 48.0293 112.815 49.0262 113.588 49.9826C114.531 51.052 115.673 51.7196 116.409 52.8549C117.607 53.9272 116.143 55.6637 114.945 54.5914L114.966 54.5971Z" fill="#ACABAB"/>
<path d="M112.183 128.738C112.034 126.09 111.533 123.477 111.405 120.832C111.399 117.294 111.121 113.769 110.907 110.244C110.817 106.617 110.693 102.996 110.517 99.3678C110.435 97.6522 110.608 95.9092 111.41 94.3793C111.494 94.0337 111.807 93.7547 112.181 93.8646C112.524 93.9697 112.676 94.3288 112.567 94.6272C112.502 95.0624 112.521 95.5209 112.482 95.9275C112.158 98.6896 112.671 101.446 112.783 104.197C112.922 109.751 113.513 115.265 113.593 120.788C113.752 123.362 114.233 125.896 114.38 128.479C114.432 129.084 114.034 129.643 113.414 129.724C112.829 129.789 112.22 129.362 112.18 128.76L112.183 128.738Z" fill="#ACABAB"/>
<path d="M111.748 95.3197C111.757 95.256 111.818 95.2108 111.882 95.2202C111.946 95.2297 111.991 95.2907 111.981 95.3544C111.972 95.4181 111.911 95.4633 111.847 95.4538C111.783 95.4443 111.738 95.3834 111.748 95.3197Z" fill="#ACABAB"/>
<path d="M112.353 130.076C111.242 129.304 112.12 128.284 112.722 127.516C113.713 126.253 114.915 125.173 116.078 124.066C118.425 122.006 120.419 119.318 122.51 117.079C124.085 115.317 125.889 113.763 127.491 112.037C130.131 109.098 132.115 105.606 135.081 102.955C137.003 101.266 138.68 99.3235 140.356 97.3917C141.588 95.9689 142.925 94.6378 144.137 93.2013C145.782 91.113 147.157 88.8001 148.436 86.473C146.274 86.6398 144.333 87.6532 142.25 88.1574C138.607 89.2325 134.889 90.0142 131.203 90.9418C128.982 91.4255 126.713 91.6524 124.472 92.057C120.318 92.8499 116.412 94.5261 112.334 95.5365C111.913 95.5933 111.589 95.2196 111.639 94.8146C111.696 94.2806 112.292 94.0655 112.713 93.8675C116.047 92.6055 119.354 91.231 122.81 90.3233C125.011 89.75 127.278 89.5337 129.513 89.0956C133.09 88.2493 136.66 87.3696 140.217 86.4337C142.581 85.8628 144.804 84.8479 147.192 84.4001C153.078 83.2027 151.041 86.6867 149.026 89.9461C147.438 92.7481 145.392 95.341 143.156 97.6126C141.379 99.562 139.725 101.638 137.816 103.459C136.494 104.684 135.143 105.894 134.04 107.325C132.452 109.324 130.9 111.589 129.2 113.463C127.48 115.323 125.525 117.018 123.843 118.916C122.5 120.355 121.304 121.902 119.982 123.355C118.449 124.982 116.689 126.457 115.18 128.066C114.755 128.513 114.322 129.089 114.045 129.493C113.738 130.098 112.986 130.485 112.362 130.089L112.353 130.076Z" fill="#ACABAB"/>
<path d="M112.956 129.081C112.531 127.857 113.821 127.571 114.628 127.105C117.607 125.02 121.231 124.365 124.742 123.737C127.954 123.227 131.033 122.22 134.153 121.382C136.004 120.974 137.876 120.644 139.678 120.055C139.667 120.053 139.644 120.061 139.632 120.07C139.611 120.067 139.597 120.086 139.576 120.083C141.572 119.425 143.545 118.71 145.607 118.267C141.917 116.015 137.771 114.487 134.258 111.99C133.313 111.264 132.226 110.549 131.671 109.468C131.452 108.969 131.974 108.374 132.502 108.55C133.135 108.818 133.596 109.364 134.171 109.731C138.776 112.912 144.382 114.396 148.874 117.755C149.822 118.894 148.756 119.929 147.547 120.107C145.986 120.461 144.269 120.846 142.794 121.354C140.362 122.24 137.87 122.944 135.328 123.401C133.179 123.841 131.129 124.643 128.995 125.129C125.584 125.956 122.191 126.298 118.881 127.401C117.921 127.725 117.053 128.236 116.203 128.772C115.247 129.291 113.663 130.532 112.967 129.083L112.956 129.081Z" fill="#ACABAB"/>
<path d="M110.262 105.97C109.688 105.375 109.127 104.847 108.443 104.409C107.295 103.663 106.331 102.706 105.379 101.74C103.464 100.023 100.937 98.844 99.668 96.5069C98.5044 94.5544 96.4789 93.0706 95.8588 90.8191C95.7786 87.8559 100.027 89.7895 101.609 90.1659C103.018 90.6899 104.491 90.9959 105.945 91.3639C107.575 91.9317 109.135 92.5326 110.737 93.1398C111.39 93.4212 112.174 93.4728 112.712 93.9433C113.29 94.5067 112.86 95.5713 112.038 95.5575C109.952 95.28 107.977 94.3352 105.988 93.7031C105.044 93.335 104.034 93.1956 103.05 92.9517C101.614 92.5428 100.219 91.9991 98.7607 91.6629C99.6809 92.9173 100.916 94.2403 101.671 95.5135C101.874 95.8259 102.079 96.1276 102.308 96.4112C103.281 97.4564 104.517 98.1936 105.635 99.0651C106.634 99.7888 107.466 100.694 108.347 101.552C109.41 102.502 110.623 103.029 111.488 104.069C112.805 104.992 111.557 106.89 110.24 105.967L110.262 105.97Z" fill="#ACABAB"/>
<path d="M96.5286 76.551C94.9115 78.6531 93.5837 80.9593 91.9526 83.0451C89.6455 85.7277 87.5543 88.5784 85.413 91.3874C83.1121 94.1921 80.8404 97.0142 78.6037 99.877C77.5445 101.229 76.2754 102.436 74.6683 103.07C74.379 103.277 73.96 103.284 73.7484 102.956C73.5578 102.653 73.6767 102.281 73.9545 102.127C74.2879 101.84 74.5732 101.48 74.8682 101.198C76.9177 99.3181 78.3303 96.8964 80.0427 94.7405C83.5653 90.4436 86.7194 85.8834 90.2678 81.6493C91.828 79.5962 93.12 77.3635 94.6953 75.3115C95.0513 74.8205 95.7179 74.6569 96.2404 75C96.7256 75.3328 96.9079 76.0541 96.5449 76.537L96.5286 76.551Z" fill="#ACABAB"/>
<path d="M75.0269 102.138C74.9782 102.18 74.9025 102.174 74.8604 102.125C74.8184 102.077 74.824 102.001 74.8728 101.959C74.9216 101.917 74.9972 101.922 75.0393 101.971C75.0813 102.02 75.0757 102.096 75.0269 102.138Z" fill="#ACABAB"/>
<path d="M97.2741 75.4268C97.6105 76.7378 96.2793 76.9358 95.3218 77.1235C93.7464 77.4327 92.1307 77.465 90.5267 77.5439C87.4047 77.5709 84.139 78.3027 81.0934 78.6322C78.7497 78.9377 76.3679 78.936 74.0276 79.196C70.1094 79.6967 66.3262 81.0445 62.3486 81.1146C59.79 81.1378 57.2509 81.5125 54.7199 81.8802C52.8581 82.153 50.9761 82.2873 49.1201 82.5833C46.5104 83.0898 43.9586 83.943 41.4699 84.8693C43.2161 86.1556 45.3478 86.6563 47.2537 87.6348C50.7142 89.2005 54.0404 91.0378 57.4372 92.7434C59.4342 93.8276 61.3004 95.138 63.2615 96.2956C66.9249 98.4091 70.9771 99.6915 74.7248 101.59C75.0805 101.822 75.0818 102.317 74.7799 102.591C74.3874 102.958 73.7955 102.731 73.3481 102.607C69.9992 101.384 66.5969 100.264 63.3879 98.6945C61.3468 97.6907 59.4888 96.3733 57.5103 95.2448C54.2497 93.5494 50.9717 91.8831 47.6671 90.2681C45.5047 89.1563 43.1583 88.4724 41.0573 87.2511C35.819 84.313 39.6373 83.0059 43.2918 81.854C46.3249 80.7702 49.5675 80.1433 52.7449 79.8844C55.3633 79.5689 57.9719 79.0776 60.6071 78.9459C62.4078 78.8817 64.2214 78.8488 65.991 78.4855C68.4995 78.0096 71.1541 77.3086 73.6655 77.0004C76.1827 76.7153 78.7705 76.7095 81.284 76.371C83.2403 76.1585 85.1566 75.768 87.107 75.5322C89.331 75.3015 91.6267 75.3349 93.8204 75.102C94.4337 75.041 95.1376 74.8877 95.6111 74.7631C96.239 74.5053 97.0614 74.7033 97.2752 75.4116L97.2741 75.4268Z" fill="#ACABAB"/>
<path d="M96.1666 75.7861C95.6891 76.9911 94.5256 76.3645 93.6101 76.19C89.9922 75.8226 86.8208 73.9511 83.752 72.1329C80.9872 70.421 77.9979 69.1718 75.0885 67.7687C73.4203 66.8687 71.7879 65.8953 70.0386 65.1643C70.0456 65.1724 70.0677 65.1817 70.0828 65.1828C70.0969 65.1991 70.1201 65.1932 70.1341 65.2094C68.1926 64.4033 66.2313 63.6566 64.3812 62.6441C65.7042 66.7603 67.845 70.6252 68.8737 74.8109C69.1143 75.9779 69.4704 77.2295 69.1849 78.4107C69.0245 78.9315 68.2402 79.0407 67.956 78.563C67.6517 77.9469 67.6591 77.2321 67.4641 76.5784C66.0549 71.1621 62.7801 66.376 61.5733 60.8986C61.5995 59.4166 63.0824 59.3288 64.1144 59.9837C65.5273 60.7354 67.079 61.5659 68.5275 62.1452C70.9479 63.063 73.2942 64.1579 75.5177 65.472C77.432 66.5424 79.5085 67.2749 81.4413 68.3011C84.5643 69.9026 87.3565 71.8601 90.5835 73.1878C91.5216 73.5694 92.5128 73.7495 93.5062 73.8993C94.5696 74.1304 96.5791 74.2263 96.1596 75.778L96.1666 75.7861Z" fill="#ACABAB"/>
<path d="M83.1095 95.0443C83.1548 95.8696 83.2348 96.6365 83.4662 97.4147C83.8481 98.7291 83.9531 100.084 84.0429 101.437C84.3711 103.988 85.5141 106.531 84.9484 109.13C84.554 111.368 85.1182 113.815 84.1169 115.925C82.2419 118.221 80.2887 113.982 79.3364 112.663C78.6123 111.346 77.6964 110.152 76.8363 108.924C75.9731 107.429 75.1846 105.955 74.3679 104.448C74.0577 103.809 73.4975 103.257 73.3978 102.55C73.3281 101.746 74.3487 101.22 74.9625 101.768C76.3602 103.341 77.2387 105.346 78.332 107.124C78.8058 108.019 79.4796 108.785 80.0651 109.612C80.8856 110.86 81.5865 112.183 82.471 113.39C82.5937 111.839 82.5225 110.03 82.7828 108.573C82.833 108.204 82.8751 107.842 82.8869 107.478C82.833 106.051 82.3788 104.685 82.1015 103.295C81.8177 102.094 81.7795 100.866 81.6725 99.6406C81.4883 98.2267 80.9147 97.0351 80.939 95.6823C80.5448 94.1235 82.7293 93.5018 83.1235 95.0606L83.1095 95.0443Z" fill="#ACABAB"/>
<path d="M63.626 39.4584C62.8343 39.3264 61.8369 39.1992 60.9239 39.1209C60.2228 39.0077 59.5285 38.7856 58.7618 38.5328C58.0977 38.3169 57.2403 38.0454 56.4064 37.889C56.1648 37.8391 55.8866 37.8132 55.6387 37.7935C55.1856 37.6999 54.7314 37.7636 54.4399 37.9554C54.0274 38.1222 53.7109 38.4348 53.5148 38.851C53.2879 39.3396 53.3027 39.8782 53.5055 40.3452C53.8099 41.0066 54.4126 41.3672 55.3199 41.3971C55.9787 41.4859 56.6366 41.7319 57.506 42.0217C58.9062 42.5627 60.3801 42.8986 61.9947 43.0115C62.1337 43.0245 62.2848 43.0557 62.4661 43.0931C62.901 43.1986 63.475 43.3171 64.1957 43.1825C64.4441 43.1235 64.6685 43.0281 64.869 42.8963C65.2517 42.6446 65.514 42.2893 65.6378 41.8424C65.8235 41.172 65.6586 40.445 65.1475 39.9458C64.7448 39.5319 64.2014 39.341 63.6385 39.398L63.626 39.4584Z" fill="#ACABAB"/>
<path d="M69.762 26.5986C69.6686 26.0596 69.3085 25.5915 68.7839 25.31C68.1203 25.0155 67.3573 25.1257 66.8398 25.6488C66.2677 26.2079 66.0988 27.1022 66.4507 27.915C66.9349 28.8497 67.5774 29.628 68.1173 30.3694C68.4414 30.7828 68.7774 31.2144 69.0891 31.6883C69.581 32.3568 70.0422 33.0977 70.5993 33.9844C70.8568 34.4155 71.2663 34.7205 71.7798 34.8266C72.2934 34.9326 72.8323 34.8392 73.2515 34.5635C73.6706 34.2879 73.9637 33.8601 74.0698 33.3466C74.1576 32.845 74.0699 32.3544 73.8062 31.9535C72.9796 30.6174 72.013 29.4257 70.9865 28.1429C70.5722 27.6321 70.146 27.1031 69.75 26.5804L69.762 26.5986Z" fill="#ACABAB"/>
<path d="M84.3426 16.7738C83.5586 16.3757 82.6129 16.6844 82.2335 17.3778C81.751 18.1128 81.8852 18.9122 81.9724 19.4814C82.0893 20.1355 82.1761 20.7834 82.2983 21.5646C82.4899 22.8483 82.6873 24.1804 82.9466 25.2891C82.9307 25.9 83.121 26.4275 83.4816 26.817C83.8302 27.1882 84.325 27.3849 85.0025 27.383C85.3233 27.3548 85.6144 27.2416 85.8696 27.0738C86.07 26.942 86.2283 26.7857 86.3688 26.5627C86.9002 25.7433 86.5978 24.7674 86.4559 24.2341L86.2728 23.5191C86.1137 22.8406 85.9728 22.15 85.8267 21.3324C85.6628 20.4481 85.5051 19.5337 85.2271 18.5156C85.2587 18.2859 85.2602 18.05 85.195 17.8318C85.0709 17.3652 84.7588 16.97 84.3306 16.7556L84.3426 16.7738Z" fill="#ACABAB"/>
</svg>
