<svg width="27" height="25" viewBox="0 0 27 25" fill="none" xmlns="http://www.w3.org/2000/svg">
<path d="M4.73097 6.84895C5.52643 6.99998 6.29169 7.17116 7.07708 7.34234C11.1776 8.38374 14.5972 11.3798 18.4599 13.0807C18.4599 13.0807 24.1543 14.8893 26.4702 16.1379H26.4601C26.9837 16.6061 26.5558 17.1599 26.007 17.321C23.2092 18.4079 20.5434 19.841 17.7453 20.9308C16.8779 21.2841 10.5812 23.8709 10.5812 23.8709L8.39086 13.9198C8.39086 13.9198 5.99766 12.3225 5.1841 11.7023C3.43254 10.552 0.923106 9.34871 0.0135985 7.29199C-0.263362 5.72254 3.7713 6.75229 4.73097 6.84895Z" fill="#75ABDB"/>
<path d="M23.3796 0.772783C19.7344 2.03326 16.0273 3.6911 12.4747 5.2032C11.7371 5.51899 7.53629 7.14171 7.4704 7.86647C7.20357 8.63676 7.23882 9.45739 7.39993 10.2428C7.79199 12.215 8.36596 23.3545 10.3703 24.3697C12.4472 25.3258 23.8937 5.09018 24.6131 3.21455C25.3229 1.56321 26.0227 -0.193841 23.3796 0.767759V0.772783Z" fill="#95BEE9"/>
</svg>
