<svg width="81" height="109" viewBox="0 0 81 109" fill="none" xmlns="http://www.w3.org/2000/svg">
<path d="M53.3125 86.5337C54.0925 85.7137 54.7525 84.7938 55.4725 83.9138C56.3825 82.8938 57.2025 81.7337 57.8225 80.5037C58.6125 79.0637 59.4025 77.5337 56.9125 78.1737C55.9025 78.4137 54.9725 78.9038 53.9725 79.1938C52.4725 79.6638 50.9625 80.1237 49.4525 80.5637C48.5125 80.8037 47.5425 80.9437 46.6125 81.2337C45.1525 81.6937 43.7725 82.3537 42.3725 82.9637C42.3725 82.9637 42.3525 82.9637 42.3425 82.9737C42.1025 82.8037 41.7825 82.7937 41.5125 82.6937C40.8125 82.4637 40.1325 82.2437 39.4225 82.0437C38.7925 81.9137 38.1625 81.8137 37.5425 81.6237C36.8625 81.4937 35.0025 80.7637 35.1025 82.0237C35.4225 82.9737 36.3125 83.5637 36.8525 84.3737C37.4425 85.3437 38.5525 85.7937 39.4025 86.4837C39.8325 86.8837 40.2625 87.2637 40.7725 87.5637C41.0725 87.7337 41.3225 87.9438 41.5825 88.1938C41.6625 88.2438 41.7325 88.2637 41.8025 88.2737C41.8525 88.8537 41.9125 89.4237 41.9525 90.0037C42.1225 91.5037 42.3125 93.0137 42.3925 94.5237C42.5025 95.5937 42.7425 96.6437 42.8725 97.7037C42.7225 97.9737 42.6625 98.2537 43.0025 98.4637C43.2325 98.5937 43.4825 98.4837 43.6325 98.2837C43.9625 98.2837 44.3425 97.9837 44.6225 97.8137C44.9725 97.5637 45.3325 97.3337 45.7425 97.1737C47.1325 96.6337 48.5825 96.4137 50.0225 95.9837C50.9225 95.7237 51.7825 95.3437 52.6925 95.1037C53.7725 94.8537 54.8225 94.4937 55.8425 94.0637C56.4625 93.8137 57.1925 93.6137 57.8425 93.4337C58.3525 93.3337 58.7925 92.8737 58.3625 92.4037C56.3725 91.0637 53.9425 90.5537 51.9025 89.2937C51.7125 89.1837 51.5325 89.0237 51.3425 88.9037C51.4925 88.6837 51.6425 88.4637 51.7925 88.2537C52.2325 87.6137 52.7825 87.0737 53.3225 86.5137L53.3125 86.5337ZM40.6825 86.3537C40.2925 86.0037 39.9125 85.6337 39.4725 85.3537C38.9725 85.0037 38.4325 84.7137 37.9925 84.2937C37.8925 84.1737 37.7925 84.0537 37.7025 83.9237C37.3525 83.3937 36.7925 82.8537 36.3725 82.3337C37.0025 82.4437 37.6125 82.6537 38.2325 82.7937C38.6525 82.8737 39.0925 82.9137 39.5025 83.0537C40.2225 83.2437 40.9425 83.5137 41.6825 83.6437C41.5225 84.2037 41.5025 84.7937 41.5625 85.3737C41.6125 85.9337 41.6525 86.4837 41.7025 87.0437C41.3825 86.8137 41.0125 86.6337 40.6825 86.3637V86.3537ZM51.9825 90.2637C53.5425 91.2537 55.3425 91.8137 56.9725 92.7037C56.1125 92.9337 55.2925 93.2737 54.4725 93.5937C53.7125 93.8837 52.9225 94.0637 52.1425 94.2837C50.8225 94.7137 49.5325 95.2037 48.1725 95.4937C47.1925 95.7237 46.1825 95.9637 45.2625 96.3637C45.5525 96.0537 45.8525 95.7437 46.1225 95.4237C46.6525 94.7737 47.1325 94.0838 47.6825 93.4438C48.3625 92.5938 49.1625 91.8337 49.8525 90.9937C50.2425 90.5137 50.6125 89.9738 50.9825 89.4438C51.2525 89.7738 51.6425 90.0237 51.9925 90.2637H51.9825ZM49.0925 90.4237C48.4425 91.2037 47.7025 91.9038 47.0725 92.6938C46.2225 93.6938 45.4325 94.8937 44.4725 95.8237C44.2125 96.1037 43.9425 96.3738 43.6925 96.6638C43.5725 95.9338 43.4325 95.2137 43.3425 94.4837C43.1925 92.1237 42.8225 89.7837 42.6425 87.4037C42.5325 86.2237 42.2525 85.0637 42.3325 83.8737C42.3325 83.8137 42.3325 83.7537 42.3325 83.6837C44.0225 83.1637 45.6425 82.3837 47.3725 81.9637C48.3225 81.7437 49.2825 81.5937 50.2225 81.3437C51.7725 80.8637 53.3525 80.4538 54.8825 79.9138C55.7625 79.6538 56.5725 79.1837 57.4925 79.0637C56.9925 80.0837 56.4625 81.1037 55.8025 82.0337C55.3125 82.6737 54.7725 83.2737 54.2725 83.9037C53.5925 84.7637 52.9225 85.6337 52.1325 86.3937C50.9225 87.5937 50.1525 89.1238 49.0825 90.4438L49.0925 90.4237Z" fill="#FF76B4"/>
<path d="M59.8721 59.3135C58.8421 59.2135 57.8021 59.3734 56.7621 59.3234C55.1921 59.2834 53.6121 59.2234 52.0421 59.1434C51.0721 59.0634 50.1121 58.8734 49.1421 58.8534C47.6121 58.8134 46.0921 58.9934 44.5621 59.1134C44.5621 59.1134 44.5421 59.1134 44.5321 59.1134C44.3621 58.8734 44.0621 58.7634 43.8421 58.5734C43.2521 58.1334 42.6821 57.7035 42.0821 57.2735C41.5321 56.9535 40.9621 56.6434 40.4421 56.2634C39.8421 55.9234 38.3221 54.6234 38.0021 55.8534C37.9921 56.8534 38.6421 57.7034 38.8921 58.6434C39.1321 59.7534 40.0321 60.5435 40.6221 61.4735C40.8921 61.9835 41.1821 62.4935 41.5621 62.9335C41.7921 63.1935 41.9621 63.4734 42.1221 63.7934C42.1821 63.8634 42.2421 63.9135 42.3021 63.9435C42.1621 64.5035 42.0321 65.0635 41.8821 65.6235C41.5521 67.1035 41.2421 68.5834 40.8321 70.0434C40.5821 71.0834 40.4721 72.1534 40.2521 73.2034C40.0221 73.4034 39.8721 73.6535 40.1221 73.9635C40.3021 74.1635 40.5721 74.1435 40.7721 74.0035C41.0721 74.1135 41.5421 73.9535 41.8521 73.8835C42.2621 73.7635 42.6821 73.6534 43.1221 73.6434C44.6121 73.5834 46.0521 73.8435 47.5521 73.9135C48.4921 73.9635 49.4321 73.8834 50.3621 73.9534C51.4621 74.0634 52.5721 74.0735 53.6821 73.9935C54.3521 73.9635 55.1021 74.0034 55.7821 74.0434C56.3021 74.1134 56.8621 73.8234 56.6121 73.2334C55.1621 71.3134 53.0321 70.0435 51.5121 68.1835C51.3621 68.0135 51.2521 67.8035 51.1121 67.6335C51.3221 67.4735 51.5321 67.3135 51.7521 67.1635C52.3721 66.7035 53.0721 66.3735 53.7621 66.0235C54.7621 65.5035 55.6921 64.8435 56.6521 64.2535C57.8421 63.5835 58.9921 62.7634 59.9821 61.7934C61.1921 60.6934 62.4421 59.5034 59.8821 59.2934L59.8721 59.3135ZM41.8621 61.7634C41.6021 61.3034 41.3721 60.8334 41.0421 60.4234C40.6821 59.9334 40.2621 59.4835 39.9921 58.9435C39.9321 58.7935 39.8821 58.6435 39.8321 58.4935C39.6721 57.8735 39.3221 57.1835 39.0921 56.5635C39.6521 56.8735 40.1621 57.2634 40.7021 57.6034C41.0721 57.8234 41.4721 57.9934 41.8221 58.2634C42.4421 58.6734 43.0321 59.1735 43.6921 59.5335C43.3521 60.0035 43.1421 60.5635 43.0121 61.1235C42.8821 61.6635 42.7421 62.2035 42.6021 62.7535C42.3721 62.4335 42.0921 62.1435 41.8621 61.7735V61.7634ZM51.2721 69.1335C52.4221 70.5735 53.9421 71.6935 55.1921 73.0635C54.3121 73.0035 53.4221 73.0635 52.5321 73.0935C51.7221 73.1235 50.9121 73.0334 50.1021 72.9834C48.7121 72.9634 47.3321 73.0034 45.9521 72.8334C44.9521 72.7334 43.9221 72.6235 42.9221 72.7135C43.3021 72.5135 43.6821 72.3234 44.0421 72.1034C44.7621 71.6634 45.4321 71.1634 46.1621 70.7334C47.0821 70.1534 48.0821 69.6935 49.0121 69.1235C49.5421 68.7935 50.0621 68.4135 50.5821 68.0235C50.7321 68.4235 51.0121 68.7835 51.2621 69.1235L51.2721 69.1335ZM57.5721 62.5734C56.9021 63.0234 56.1921 63.4135 55.5221 63.8435C54.6021 64.4435 53.6821 65.0335 52.6921 65.5035C51.1621 66.2435 49.9321 67.4434 48.4921 68.3334C47.6221 68.8534 46.7021 69.2735 45.8421 69.8135C44.7121 70.4835 43.5721 71.3534 42.3721 71.9234C42.0321 72.1034 41.6921 72.2735 41.3621 72.4635C41.4821 71.7335 41.5821 71.0035 41.7421 70.2835C42.3621 68.0035 42.7721 65.6634 43.3821 63.3634C43.6621 62.2134 43.7821 61.0234 44.2421 59.9234C44.2621 59.8634 44.2821 59.8035 44.3021 59.7435C46.0721 59.8035 47.8521 59.5935 49.6321 59.7535C50.6021 59.8535 51.5621 60.0235 52.5321 60.0935C54.1621 60.1535 55.7821 60.2734 57.4121 60.2634C58.3321 60.3034 59.2521 60.1234 60.1621 60.3034C59.3621 61.1034 58.5221 61.8935 57.5921 62.5635L57.5721 62.5734Z" fill="#FF76B4"/>
<path d="M35.7525 74.0238C35.6725 73.7638 35.4125 73.6838 35.1725 73.7238C34.9425 73.4938 34.4425 73.4638 34.1325 73.3938C33.7025 73.3338 33.2825 73.2638 32.8725 73.1038C31.4825 72.5538 30.2725 71.7338 28.9225 71.0738C28.0825 70.6438 27.1925 70.3438 26.3625 69.9038C25.4025 69.3538 24.3825 68.9038 23.3425 68.5238C22.7125 68.2838 22.0525 67.9438 21.4425 67.6338C20.9925 67.3538 20.3625 67.4038 20.3625 68.0438C20.9225 70.3838 22.3525 72.4038 23.0025 74.7138C23.0725 74.9338 23.0825 75.1638 23.1525 75.3738C22.8925 75.4338 22.6325 75.4938 22.3825 75.5438C21.6225 75.7138 20.8525 75.7338 20.0825 75.7738C18.9525 75.8538 17.8425 76.0838 16.7225 76.2338C15.3625 76.3638 13.9725 76.6638 12.6925 77.1438C11.1325 77.6638 9.51249 78.2538 11.7725 79.4738C12.6825 79.9838 13.6925 80.2538 14.6225 80.7138C16.0425 81.3838 17.4625 82.0738 18.8725 82.7738C19.7225 83.2438 20.5325 83.7938 21.4125 84.2038C22.8025 84.8538 24.2625 85.3038 25.7025 85.8038C25.7025 85.8038 25.7225 85.8038 25.7325 85.8038C25.7925 86.0938 26.0225 86.3138 26.1525 86.5738C26.5125 87.2138 26.8625 87.8438 27.2425 88.4738C27.6225 88.9938 28.0125 89.5038 28.3325 90.0538C28.7525 90.6138 29.6125 92.4138 30.4025 91.4138C30.8125 90.5038 30.5625 89.4638 30.7125 88.5038C30.9425 87.3938 30.4325 86.3038 30.2725 85.2138C30.2325 84.6338 30.1725 84.0538 30.0025 83.4938C29.8925 83.1638 29.8525 82.8338 29.8325 82.4838C29.8125 82.3938 29.7725 82.3238 29.7325 82.2738C30.0925 81.8138 30.4325 81.3538 30.7925 80.9038C31.6925 79.6838 32.5625 78.4538 33.5325 77.2838C34.1825 76.4238 34.7125 75.4938 35.3425 74.6238C35.6325 74.5338 35.8625 74.3638 35.7625 73.9838L35.7525 74.0238ZM21.5825 68.7838C22.3725 69.1938 23.2025 69.5038 24.0225 69.8238C24.7725 70.1238 25.4825 70.5238 26.2025 70.8938C27.4625 71.4738 28.7525 71.9938 29.9425 72.7038C30.8225 73.2038 31.7125 73.7138 32.6725 74.0338C32.2425 74.0638 31.8225 74.0838 31.4025 74.1338C30.5725 74.2538 29.7525 74.4338 28.9125 74.5338C27.8425 74.6938 26.7325 74.7138 25.6525 74.8538C25.0325 74.9438 24.4025 75.0838 23.7725 75.2338C23.8025 74.8038 23.6825 74.3638 23.5925 73.9538C23.1225 72.1738 22.1825 70.5338 21.5825 68.7838ZM29.8225 87.8438C29.8225 88.0038 29.8025 88.1538 29.7825 88.3138C29.6825 88.9438 29.7225 89.7138 29.6825 90.3838C29.2925 89.8738 28.9825 89.3138 28.6225 88.7838C28.3625 88.4338 28.0725 88.1138 27.8625 87.7338C27.4625 87.1038 27.1225 86.4138 26.6625 85.8138C27.1625 85.5138 27.5725 85.0938 27.9225 84.6338C28.2625 84.1838 28.6125 83.7538 28.9525 83.3038C29.0325 83.6938 29.1725 84.0738 29.2325 84.4938C29.2825 85.0138 29.3125 85.5438 29.4425 86.0538C29.5725 86.6438 29.7725 87.2238 29.8125 87.8338L29.8225 87.8438ZM32.7925 76.7438C31.3025 78.5838 29.9825 80.5538 28.5125 82.4238C27.7925 83.3638 27.2025 84.4038 26.3425 85.2238C26.3025 85.2638 26.2625 85.3138 26.2125 85.3638C24.6125 84.5938 22.9025 84.0738 21.3425 83.2038C20.4925 82.7238 19.6825 82.1738 18.8225 81.7238C17.3525 81.0138 15.9225 80.2538 14.4225 79.6138C13.6025 79.2138 12.6825 79.0038 11.9225 78.4738C12.9825 78.0638 14.0625 77.6738 15.1825 77.4438C15.9725 77.3038 16.7825 77.2338 17.5725 77.1038C18.6525 76.9238 19.7325 76.7538 20.8325 76.7238C22.5325 76.6638 24.1425 76.0638 25.8225 75.8238C26.8225 75.6938 27.8425 75.6838 28.8425 75.5338C30.1425 75.3738 31.5325 75.0338 32.8725 75.0038C33.2525 74.9738 33.6325 74.9538 34.0125 74.9238C33.6125 75.5438 33.2225 76.1638 32.7825 76.7638L32.7925 76.7438Z" fill="#FF76B4"/>
<path d="M1.10249 13.8037C-1.40751 13.6437 1.08248 8.35368 1.59248 7.07368C2.27248 5.17368 3.23248 3.34369 4.75248 1.98369C5.50248 1.31369 6.22249 0.583712 7.13249 0.133712C7.64249 -0.136288 8.26248 0.0136881 8.59248 0.483688C9.10248 1.07369 8.45248 2.0237 7.73248 1.7437C6.59248 2.7237 5.59248 3.7037 4.75248 4.9337C3.74248 6.7337 3.09249 8.73369 2.38249 10.6737C2.24249 11.2137 2.13248 11.7637 2.11248 12.3237C2.21248 13.0137 1.88249 13.7937 1.10249 13.8037Z" fill="white"/>
<path d="M6.17268 12.3936C4.81268 12.1336 5.65268 10.4836 5.78268 9.59358C6.10268 8.36358 7.82268 4.70356 9.42268 5.35356C9.68268 5.40356 9.97269 5.41356 9.99269 5.76356C9.99269 5.97356 9.83268 6.15358 9.62268 6.16358C8.61268 6.38358 7.63269 8.94358 7.40269 9.91358C7.11269 10.7536 7.47269 12.4436 6.18269 12.4036L6.17268 12.3936Z" fill="white"/>
<path d="M79.0632 94.1238C80.9032 93.9538 79.7032 98.0738 79.4832 99.0638C79.2132 100.524 78.7232 101.954 77.7732 103.124C77.3132 103.694 76.8732 104.314 76.2632 104.734C75.9232 104.984 75.4632 104.954 75.1632 104.644C74.7232 104.274 75.0832 103.514 75.6432 103.634C76.3632 102.794 76.9732 101.974 77.4432 100.984C77.9732 99.5637 78.2132 98.0338 78.5032 96.5538C78.5432 96.1438 78.5632 95.7337 78.5032 95.3237C78.3532 94.8337 78.5032 94.2338 79.0632 94.1338V94.1238Z" fill="white"/>
<path d="M75.5528 95.7236C76.5728 95.7536 76.1528 97.0536 76.1628 97.7136C76.0728 98.6436 75.2428 101.494 74.0128 101.204C73.8128 101.204 73.6028 101.224 73.5528 100.974C73.5228 100.824 73.6328 100.674 73.7828 100.644C74.4928 100.364 74.9128 98.3936 74.9628 97.6736C75.0728 97.0336 74.6228 95.8436 75.5628 95.7236H75.5528Z" fill="white"/>
<path d="M70.4831 34.4834C70.4831 34.1334 70.4831 33.7734 70.4731 33.4134V33.1534C70.4731 32.6234 70.4831 32.0834 70.3931 31.5334C70.3831 31.4034 70.3731 31.2734 70.3631 31.1434C70.3531 30.9634 70.3431 30.7734 70.3231 30.5834C70.3031 30.4234 70.2731 30.2734 70.2531 30.1234C70.2231 29.9834 70.2031 29.8434 70.1831 29.7034C70.1031 28.9434 69.9631 28.2434 69.7731 27.6334C69.7531 27.5534 69.7231 27.4534 69.7031 27.3634C69.6331 27.0934 69.5631 26.8134 69.4431 26.5334V26.5034C69.2931 26.2034 69.1831 25.8734 69.0631 25.5234L69.0131 25.3734V25.3533C68.8631 24.9733 68.6831 24.6334 68.4931 24.2934C68.3531 24.0434 68.2231 23.8034 68.1131 23.5534C67.9531 23.2034 67.7431 22.8834 67.4831 22.5934C67.3931 22.4734 67.2931 22.3534 67.2031 22.2334C67.0231 22.0034 66.8431 21.7734 66.6531 21.5434C66.4231 21.2134 66.1431 20.8434 65.7831 20.5134C65.6631 20.3734 65.5531 20.2334 65.4331 20.0934C65.2131 19.8134 64.9731 19.5334 64.6931 19.2734C64.3331 18.9134 63.9131 18.5534 63.4031 18.1934L63.2431 18.0534C62.9731 17.8134 62.7031 17.5634 62.3831 17.3434C61.9531 17.0634 61.5031 16.8234 61.0831 16.5934C60.7631 16.4234 60.4231 16.2434 60.1131 16.0534C59.8431 15.8734 59.5631 15.7634 59.2931 15.6534C59.0931 15.5734 58.9131 15.5034 58.7531 15.4034C58.5331 15.2834 58.3231 15.2034 58.1331 15.1234L57.9931 15.0634C57.8231 14.9834 57.6531 14.9134 57.4831 14.8634C57.6331 14.6734 57.7231 14.4534 57.7231 14.2234V14.1934V14.1634C57.7231 14.1034 57.7031 14.0534 57.6931 14.0034C57.7631 14.0134 57.8331 14.0234 57.8931 14.0334H57.9031H57.9131H57.9831C57.9831 14.0334 58.0631 14.0534 58.1131 14.0534C58.1631 14.0534 58.2231 14.0534 58.2731 14.0634C58.5631 14.0634 58.8031 13.9034 58.9231 13.6734C59.6031 13.1234 59.8031 11.7734 59.9431 10.5334C59.9531 10.4134 59.9631 10.3134 59.9731 10.2334C59.9931 10.2034 60.0131 10.1634 60.0331 10.1234C60.1131 9.94337 60.1531 9.75336 60.1731 9.52336C60.2231 9.10336 60.2831 8.60337 60.2931 8.09337C60.3331 8.00337 60.3531 7.91337 60.3531 7.81337C60.3731 7.50337 60.2331 7.23335 60.1231 7.04335L60.0931 6.98335C60.0931 6.98335 60.0731 6.90335 60.0631 6.85335C60.0231 6.69335 59.9631 6.48335 59.8231 6.29335C59.7131 6.15335 59.5231 5.98335 59.1931 5.95335C59.0631 5.94335 58.9531 5.95335 58.8531 5.95335C58.8031 5.95335 58.7531 5.96335 58.7031 5.95335H58.4831C58.1331 5.91335 57.7731 5.89336 57.4031 5.89336C56.8831 5.85336 56.3631 5.80335 55.8431 5.76335C55.4531 5.72335 55.0631 5.69338 54.6831 5.66338C54.6131 5.66338 54.5331 5.64336 54.4431 5.64336C53.8431 5.58336 53.3331 5.56335 52.8631 5.57335C52.5931 5.56335 52.3131 5.52335 52.0431 5.48335L51.8231 5.45335C51.6731 5.43335 51.5431 5.42338 51.4031 5.41338C51.1431 5.38338 50.8831 5.36337 50.6231 5.34337C50.3631 5.32337 50.1131 5.30336 49.8531 5.27336C49.7431 5.26336 49.6331 5.25336 49.5231 5.24336C49.3531 5.22336 49.1731 5.20336 48.9931 5.17336C48.6531 5.13336 48.3131 5.08336 47.9631 5.05336C47.8631 5.04336 47.7531 5.03336 47.6531 5.02336C47.5931 5.02336 47.5331 5.02337 47.4731 5.00337C47.2231 4.98337 46.9831 4.94338 46.7331 4.91338C46.4731 4.88338 46.2131 4.84335 45.9531 4.82335H45.8531C45.7831 4.80335 45.7031 4.79335 45.6231 4.79335C44.9331 4.72335 44.2431 4.71336 43.5831 4.71336C43.3431 4.71336 43.1031 4.71335 42.8531 4.70335C42.5231 4.68335 42.1431 4.65335 41.7031 4.60335C41.3131 4.56335 40.9231 4.52335 40.5431 4.48335C40.1531 4.44335 39.7631 4.40336 39.3731 4.36336C39.0231 4.33336 38.6631 4.29336 38.3131 4.27336C37.6031 4.25336 36.9031 4.18336 36.2231 4.11336C36.0331 4.09336 35.8431 4.07337 35.6531 4.06337C35.3631 4.04337 35.0831 4.03335 34.8131 4.01335C34.4531 3.99335 34.1231 3.98335 33.7831 3.95335C33.5731 3.93335 33.3831 3.90337 33.2131 3.87337C32.8331 3.80337 32.4531 3.76337 32.0831 3.72337C31.7731 3.69337 31.4831 3.66336 31.1931 3.61336C30.9931 3.58336 30.8031 3.54336 30.6131 3.49336C30.3531 3.43336 30.0931 3.36336 29.8031 3.33336C29.6431 3.31336 29.5031 3.31336 29.3531 3.33336C29.2931 3.33336 29.2131 3.33337 29.1331 3.34337C29.0431 3.34337 28.9431 3.35335 28.8531 3.35335C28.8131 3.35335 28.7731 3.35337 28.7431 3.34337C28.4231 3.31337 28.0531 3.31336 27.7731 3.55336C27.4731 3.80336 27.4031 4.18337 27.3831 4.53337C27.3831 4.57337 27.3831 4.61337 27.3731 4.65337H27.3631L27.3031 5.17336C27.2931 5.36336 27.2731 5.54335 27.2531 5.73335C27.2331 5.93335 27.2131 6.14337 27.2031 6.34337V6.50337C27.1931 6.56337 27.1931 6.63335 27.1831 6.70335C27.1631 6.80335 27.1531 6.90337 27.1331 7.00337C27.0631 7.40337 26.9831 7.81336 26.9731 8.24336C26.9631 8.41336 26.9531 8.59336 26.9331 8.77336C26.9031 9.21336 26.8631 9.67337 26.8731 10.1234V10.1534C26.8731 10.1534 26.8731 10.2834 26.8631 10.3434C26.8431 10.6234 26.8131 10.9834 26.9831 11.2534C27.0231 11.3634 27.0831 11.4634 27.1731 11.5434L27.2031 11.5733L27.2431 11.5934C27.4731 11.7334 27.7131 11.7634 27.9131 11.7834C27.9731 11.7834 28.0231 11.7934 28.0831 11.8034C28.0831 11.9034 28.1231 12.0134 28.1731 12.1134C28.1131 12.1434 28.0531 12.1734 27.9931 12.2034H27.9831H27.9631C27.3631 12.2434 26.7231 12.3034 26.1331 12.4634C25.7231 12.5934 25.3331 12.7434 24.9631 12.8834C24.5731 13.0334 24.1631 13.1834 23.7431 13.3134H23.7231L23.7031 13.3233C23.4031 13.4433 23.0931 13.5434 22.7631 13.6434C22.4231 13.7534 22.0631 13.8634 21.7131 14.0034H21.7031L21.6931 14.0134C20.9831 14.3434 20.3731 14.7934 19.7831 15.2434C19.5431 15.4234 19.3131 15.5934 19.0731 15.7634L18.9231 15.8734C18.5831 16.1234 18.2331 16.3834 17.9231 16.7234C17.5231 17.1734 17.0931 17.6134 16.5531 18.1134C16.1431 18.5034 15.8731 18.9634 15.6131 19.4034C15.4331 19.7134 15.2531 20.0034 15.0431 20.2634C14.6631 20.7334 14.3531 21.2334 14.0531 21.7234L13.8731 22.0134C13.6531 22.3534 13.3831 22.8133 13.1731 23.3233C12.8731 24.0933 12.6231 24.8834 12.3831 25.6534C12.2831 25.9834 12.1731 26.3234 12.0631 26.6534C11.9231 27.0534 11.7531 27.5934 11.6431 28.1634C11.5831 28.5434 11.4631 28.9034 11.3431 29.2834L11.3131 29.3834C11.1531 29.9034 11.0931 30.4234 11.0331 30.9234C11.0131 31.0534 11.0031 31.1933 10.9831 31.3233C10.8631 31.9333 10.8231 32.5434 10.7731 33.1334C10.7531 33.4234 10.7231 33.7134 10.6931 34.0034C10.6831 34.1034 10.6931 34.1934 10.7231 34.2934C10.6031 34.7134 10.5631 35.1434 10.5331 35.5534C10.5231 35.6834 10.5131 35.8034 10.4931 35.9334C10.4631 36.3234 10.4331 36.7033 10.4031 37.0733C10.3131 38.2733 10.2131 39.5034 10.0831 40.7134C9.99309 41.5334 9.88309 42.3533 9.75309 43.3233C9.63309 44.3433 9.52309 45.3734 9.41309 46.3734C9.36309 46.8834 9.30309 47.3834 9.25309 47.8934C9.17309 48.7934 9.1231 49.7033 9.0731 50.5733C9.0331 51.2033 8.99308 51.8234 8.95308 52.4534C8.80308 54.3534 8.63309 56.2934 8.46309 58.1634L8.39309 58.9834L8.31309 60.1534C8.20309 61.9234 8.08309 63.7634 7.91309 65.5534L7.67309 67.9434C7.14309 73.3034 6.59309 78.8534 6.16309 84.3134C6.02309 85.8434 5.87309 87.3734 5.72309 88.9134C5.62309 89.8934 5.5331 90.8634 5.4331 91.8434C5.1631 94.2334 5.13309 96.1734 5.35309 97.9434C5.46309 98.6234 5.67308 99.1934 5.98308 99.6634C6.10308 99.8534 6.21309 100.053 6.32309 100.253C6.60309 100.753 6.89309 101.263 7.30309 101.713C8.30309 102.853 9.31309 103.033 10.5731 103.263C11.1831 103.493 11.8531 103.673 12.7231 103.823C13.6831 104.033 14.7431 104.193 16.0431 104.323C16.4631 104.363 16.8931 104.403 17.3131 104.433C17.7131 104.473 18.1331 104.513 18.5531 104.563C18.9531 104.603 19.3431 104.643 19.7431 104.673L20.7931 104.773C21.1431 104.813 21.4931 104.853 21.8431 104.893C22.3631 104.953 22.8831 105.013 23.4131 105.063L23.6431 105.083C24.3331 105.153 25.0431 105.183 25.7131 105.213C26.1631 105.233 26.6131 105.253 27.0631 105.283C27.5231 105.313 28.0231 105.353 28.6331 105.413C28.9831 105.443 29.3331 105.483 29.6931 105.523C30.0431 105.563 30.4031 105.593 30.7531 105.633L31.0731 105.663H31.1531C31.7531 105.733 32.3631 105.773 32.9431 105.803C33.1731 105.813 33.4031 105.833 33.6331 105.853C35.8931 106.093 38.2031 106.393 40.4331 106.693L40.6531 106.723C40.9331 106.753 41.2131 106.783 41.4931 106.813C42.2731 106.893 43.0731 106.943 43.8331 107.003C44.3831 107.043 44.9431 107.083 45.4931 107.133C46.1231 107.203 46.7731 107.283 47.3931 107.363C47.8231 107.413 48.2531 107.473 48.6731 107.523C48.9731 107.563 49.2831 107.593 49.5831 107.623C49.8931 107.653 50.1931 107.683 50.5031 107.703C50.8131 107.733 51.1131 107.753 51.4231 107.783L51.6731 107.813L51.9031 107.833C53.5831 107.993 55.3831 108.143 57.1731 107.963H57.1931H57.2031C57.3631 107.933 57.5231 107.913 57.6931 107.893C58.0231 107.853 58.3531 107.803 58.6931 107.723H58.7131L58.7331 107.703C58.9231 107.633 59.1331 107.583 59.3431 107.523C59.5931 107.463 59.8531 107.393 60.1131 107.293H60.1331L60.1531 107.273C60.4331 107.133 60.6731 106.943 60.9031 106.773C61.0531 106.663 61.1931 106.553 61.3331 106.463C61.8731 106.103 62.2331 105.753 62.4931 105.343C62.5531 105.253 62.6231 105.153 62.6931 105.053C62.8531 104.813 63.0231 104.573 63.1731 104.313C63.2331 104.213 63.2931 104.113 63.3431 104.003C63.4331 103.833 63.5231 103.683 63.6231 103.533C63.8031 103.293 64.0131 102.993 64.1231 102.603C64.2031 102.353 64.2331 102.103 64.2631 101.863C64.2831 101.733 64.3031 101.593 64.3231 101.463C64.5331 100.703 64.6631 100.013 64.7131 99.3434C64.7231 99.2234 64.7431 99.0934 64.7531 98.9634C64.7931 98.6334 64.8331 98.2834 64.8431 97.9334C64.8431 97.3634 64.8531 96.7934 64.8931 96.1634V96.1334C64.8931 95.7834 64.9431 95.4334 65.0031 95.0634L65.0231 94.9334C65.0531 94.7334 65.0631 94.5534 65.0831 94.3734C65.1131 94.0934 65.1731 93.6434 65.2231 93.3634C65.3031 92.9634 65.3731 92.5334 65.3731 92.0834C65.3731 92.0034 65.3931 91.9333 65.4031 91.8533C65.4231 91.7233 65.4431 91.5834 65.4531 91.4334V91.4034C65.4531 91.1534 65.3931 90.8934 65.3131 90.6334C65.3131 90.6334 65.3131 90.6334 65.3131 90.6234C65.3431 90.3634 65.3831 90.1034 65.4231 89.8434L65.4931 89.3434C65.5531 88.7134 65.6231 88.1034 65.6931 87.4834C65.8031 86.4834 65.9131 85.4534 66.0131 84.4334C66.1331 83.2234 66.2031 81.9834 66.2531 80.7934C66.3231 79.4834 66.3831 78.1234 66.5331 76.8034C66.6331 75.5634 66.7831 74.3133 66.9331 73.1033C67.0731 71.9533 67.2231 70.7733 67.3231 69.6033C67.3631 69.1333 67.3931 68.6734 67.4231 68.2034C67.4831 67.2834 67.5531 66.3234 67.6531 65.3934C67.7231 64.6934 67.7931 64.0034 67.8731 63.3134C67.9831 62.2834 68.1031 61.2234 68.1931 60.1634C68.2631 59.4734 68.3131 58.7533 68.3531 58.0733C68.3731 57.7433 68.3931 57.4134 68.4231 57.0834C68.4731 56.4334 68.5431 55.7634 68.6231 55.1134C68.6631 54.7634 68.7031 54.4134 68.7331 54.0534C68.7731 53.6434 68.8131 53.2334 68.8631 52.8134C69.0131 51.2934 69.1731 49.7134 69.4131 48.1834C69.5231 47.2734 69.5531 46.3734 69.5931 45.4934C69.6231 44.6234 69.6631 43.7134 69.7631 42.8434C69.9231 41.4334 70.0631 40.3633 70.2231 39.3533V39.3334L70.2731 38.8533C70.3931 37.7133 70.5131 36.5434 70.5131 35.3634C70.5131 35.0734 70.5131 34.8034 70.5131 34.5234L70.4831 34.4834ZM28.2631 9.77336C28.2631 9.63336 28.2731 9.48337 28.2931 9.34337C28.3131 9.10337 28.3331 8.84337 28.3531 8.59337C28.3731 8.21337 28.4031 7.85337 28.4531 7.50337C28.4731 7.41337 28.4931 7.30335 28.5131 7.20335C28.5331 7.10335 28.5531 7.00337 28.5731 6.90337L28.6631 6.37337H28.5931C28.6431 6.01337 28.6731 5.62335 28.6931 5.26335C28.7231 5.10335 28.7431 4.93335 28.7531 4.79335C28.7531 4.79335 28.7531 4.77335 28.7531 4.76335C28.9031 4.76335 29.0431 4.76335 29.1931 4.76335C29.3031 4.76335 29.4231 4.76335 29.5331 4.76335C29.5731 4.76335 29.6131 4.76335 29.6531 4.76335C29.8131 4.78335 29.9731 4.82336 30.1531 4.86336C30.2631 4.89336 30.3631 4.92338 30.4731 4.94338C30.9431 5.04338 31.4231 5.09336 31.8831 5.14336C32.1331 5.17336 32.3831 5.19335 32.6331 5.23335C32.9731 5.29335 33.3531 5.35338 33.7331 5.38338C33.8631 5.39338 34.0031 5.40338 34.1331 5.41338C34.9531 5.43338 35.7631 5.50336 36.5531 5.58336C36.8131 5.60336 37.0631 5.63337 37.3231 5.65337C37.8631 5.67337 38.3931 5.71335 38.9031 5.76335L39.0931 5.78337C39.3131 5.80337 39.5231 5.82337 39.7331 5.84337C40.1031 5.88337 40.4731 5.92336 40.8531 5.96336C41.2331 6.00336 41.6031 6.04336 41.9831 6.08336C42.1131 6.09336 42.2531 6.11337 42.3831 6.12337C42.8631 6.15337 43.3331 6.15338 43.7831 6.16338C44.0731 6.16338 44.3631 6.16337 44.6531 6.18337C44.9131 6.19337 45.1931 6.21336 45.5131 6.24336C45.9931 6.29336 46.4931 6.35338 46.9231 6.41338C47.0531 6.42338 47.1531 6.43338 47.2531 6.44338C47.6931 6.48338 48.1431 6.54337 48.5731 6.59337C49.0131 6.64337 49.4631 6.70336 49.9131 6.74336C50.1131 6.76336 50.3031 6.78335 50.5031 6.79335C50.6531 6.79335 50.8031 6.81335 50.9431 6.82335C51.1731 6.84335 51.4031 6.87337 51.6331 6.90337C51.8731 6.93337 52.1131 6.96335 52.3431 6.98335C52.7631 7.02335 53.1131 7.03336 53.4331 7.02336C54.1031 7.06336 54.7931 7.13338 55.4631 7.19338C56.0631 7.25338 56.6931 7.30335 57.3031 7.35335H57.3231H57.3431C57.5731 7.35335 57.8031 7.36338 58.0531 7.38338C58.2631 7.39338 58.4631 7.41338 58.6831 7.41338C58.7031 7.48338 58.7331 7.55338 58.7731 7.63338C58.7931 7.66338 58.8031 7.69336 58.8131 7.71336C58.8131 7.72336 58.8131 7.74337 58.8131 7.75337C58.8331 8.05337 58.8131 8.34336 58.7731 8.64336L58.5531 8.62337L58.5731 9.19338V9.27336C58.5731 9.27336 58.5731 9.29337 58.5731 9.31337V9.40337C58.5431 9.59337 58.5231 9.78337 58.5031 9.97337C58.4531 10.4434 58.4131 10.9234 58.3431 11.3934L58.3131 11.5234C58.2331 11.9034 58.1631 12.2534 58.0131 12.5534C57.9931 12.5534 57.9631 12.5534 57.9431 12.5534C57.8031 12.5334 57.6731 12.5134 57.5331 12.5034C57.4131 12.4934 57.2931 12.4834 57.1931 12.4834C57.0531 12.4134 56.9131 12.3934 56.8231 12.3834C56.7731 12.3834 56.7231 12.3834 56.6831 12.3834C56.6531 12.3834 56.6231 12.3834 56.5831 12.3834C56.5731 12.3834 56.5631 12.3834 56.5431 12.3834H56.5231H56.5031C56.4331 12.3834 56.3631 12.3634 56.2931 12.3634C55.9031 12.3234 55.5231 12.3134 55.1431 12.3334C53.5831 12.2434 51.9931 12.1134 50.4531 11.9834H50.4331H50.4131C49.4331 11.9634 48.4431 11.8934 47.4831 11.8334C47.1931 11.8134 46.8931 11.7934 46.6031 11.7734C46.4131 11.7534 46.2131 11.7334 46.0131 11.7134C45.4431 11.6534 44.8731 11.6034 44.3031 11.5434C43.7331 11.4834 43.1531 11.4234 42.5831 11.3734C42.1231 11.3334 41.6631 11.2834 41.2031 11.2434C40.8631 11.2234 40.5431 11.2034 40.2131 11.1834C39.8431 11.1534 39.4731 11.1334 39.0931 11.1134C38.5131 11.1134 37.9331 11.0634 37.3731 11.0134L36.9531 10.9834H36.9431H36.9331C36.4831 10.9834 36.0131 10.9434 35.5631 10.9134C35.0031 10.8734 34.4331 10.8334 33.8531 10.8334C33.4831 10.8334 33.1131 10.8234 32.7331 10.8134H32.2331C32.0131 10.7934 31.7631 10.7734 31.5231 10.7534C30.8931 10.6934 30.2531 10.6034 29.6631 10.5234H29.6431H29.6131C29.5231 10.5234 29.4231 10.5234 29.3331 10.5234L29.2231 10.5034C29.0031 10.4734 28.7831 10.4334 28.5531 10.4134C28.4631 10.4134 28.3731 10.3934 28.2831 10.3934C28.2531 10.3934 28.2331 10.3934 28.2131 10.3934C28.2331 10.2134 28.2331 10.0233 28.2431 9.85335L28.2631 9.77336ZM69.0031 34.9334C69.0231 35.6034 69.0031 36.1634 68.9531 36.6734C68.8931 37.5234 68.8131 38.5134 68.6731 39.5034C68.5831 40.0234 68.5231 40.5634 68.4531 41.0834L68.3931 41.5434C68.1631 43.0934 68.1031 44.6734 68.0431 46.2034L68.0131 46.9734C67.9731 47.5934 67.8731 48.2334 67.7831 48.8634C67.7131 49.3534 67.6331 49.8534 67.5831 50.3634C67.4931 51.3334 67.3831 52.3034 67.2831 53.2534C67.1131 54.7934 66.9431 56.3834 66.8431 57.9634C66.7431 59.6834 66.5531 61.4334 66.3731 63.1234C66.2231 64.5134 66.0631 65.9534 65.9631 67.3834C65.8731 69.1134 65.7031 70.8334 65.4731 72.5334C65.2731 74.1334 65.1031 75.7833 64.9431 77.5733C64.8431 78.6533 64.7831 79.7534 64.7331 80.8134C64.6931 81.6534 64.6531 82.5234 64.5831 83.3834C64.3231 86.0734 64.0931 88.3334 63.7831 90.6234C63.7631 90.8034 63.8031 90.9734 63.9031 91.1234C63.9031 91.1534 63.9131 91.1734 63.9231 91.2034C63.9331 91.2434 63.9531 91.3034 63.9531 91.3334C63.9031 91.5934 63.8831 91.8434 63.8731 92.0934C63.8631 92.2834 63.8531 92.4734 63.8231 92.6434C63.7031 93.1934 63.6231 93.8034 63.5531 94.5934C63.5431 94.6934 63.5231 94.8134 63.5031 94.9234C63.4631 95.1734 63.4231 95.4434 63.4131 95.7134C63.3831 96.3534 63.3431 97.1234 63.3431 97.8934V97.9534C63.2731 98.7434 63.2031 99.5634 63.0431 100.343C63.0231 100.443 62.9931 100.563 62.9531 100.673C62.8931 100.893 62.8331 101.123 62.7931 101.363V101.423C62.7531 101.693 62.7231 101.953 62.6431 102.183C62.6031 102.303 62.5131 102.423 62.4131 102.563C62.3331 102.673 62.2531 102.783 62.1831 102.913C62.1331 102.993 62.0831 103.083 62.0331 103.173L61.9531 103.323C61.6431 103.853 61.3331 104.313 61.0031 104.733C60.8431 104.903 60.6331 105.053 60.4031 105.203C60.3031 105.273 60.2031 105.343 60.1031 105.413C60.0231 105.473 59.9231 105.543 59.8331 105.613C59.7131 105.703 59.6031 105.793 59.5031 105.853C59.3331 105.913 59.1431 105.963 58.9431 106.013C58.7331 106.063 58.5231 106.123 58.3031 106.193C56.2731 106.653 54.0531 106.463 52.2631 106.313C52.0431 106.293 51.8131 106.263 51.5831 106.243C51.2731 106.213 50.9631 106.183 50.6531 106.153C50.3431 106.123 50.0331 106.093 49.7231 106.063C49.5231 106.043 49.3231 106.023 49.1131 106.003C48.7231 105.953 48.3331 105.913 47.9531 105.863C47.0931 105.753 46.2031 105.643 45.3231 105.563C44.6631 105.503 44.0731 105.453 43.5131 105.423C43.0131 105.393 42.5031 105.353 41.9431 105.293C40.4731 105.153 38.9731 104.943 37.5331 104.743L37.2531 104.703C36.7331 104.653 36.2231 104.593 35.7131 104.533C35.1731 104.473 34.6131 104.403 34.0531 104.353C33.6331 104.313 33.2531 104.283 32.9031 104.263C32.3331 104.233 31.7131 104.183 30.9131 104.103C30.5631 104.073 30.2131 104.033 29.8631 103.993C29.5131 103.953 29.1631 103.923 28.8031 103.883C28.1031 103.813 27.5431 103.773 27.0231 103.733C26.5631 103.703 26.1031 103.683 25.6331 103.663C25.0931 103.643 24.5331 103.613 23.9831 103.573C23.8731 103.563 23.7431 103.553 23.6231 103.543C23.0831 103.493 22.5531 103.433 22.0131 103.373C21.5231 103.323 21.0331 103.263 20.5531 103.213L20.0831 103.163C19.4031 103.093 18.7231 103.033 18.0431 102.973C17.3631 102.913 16.6831 102.843 16.0031 102.783C15.7031 102.753 15.4031 102.723 15.0931 102.693C13.9431 102.543 12.7531 102.303 11.6131 102.063L11.2531 101.993C11.1431 101.873 10.9931 101.793 10.8231 101.773C10.6731 101.743 10.5231 101.713 10.3731 101.683C9.86308 101.583 9.37308 101.493 8.98308 101.263C8.25308 100.823 7.79309 100.053 7.46309 99.4334C7.34309 99.2134 7.22309 99.0034 7.10309 98.8034L7.00309 98.6434C6.82309 98.2834 6.70309 97.8634 6.66309 97.4134C6.55309 96.1134 6.53308 94.8534 6.62308 93.6734C6.76308 92.2034 6.90309 90.7134 7.05309 89.2334C7.20309 87.6634 7.36308 86.0834 7.51308 84.5134C7.99308 78.3734 8.62309 72.1434 9.17309 66.6434C9.40309 64.3834 9.55309 62.0833 9.69309 59.8533L9.73308 59.1534C9.81308 58.2334 9.89309 57.3034 9.97309 56.3634C10.0531 55.3934 10.1431 54.4234 10.2231 53.4534C10.2931 52.5734 10.3531 51.6734 10.4031 50.8034C10.4931 49.3234 10.5831 47.8033 10.7731 46.3233L10.7931 46.1634C10.9431 44.7334 11.1031 43.2633 11.3131 41.8233C11.4931 40.3533 11.6331 38.8234 11.7431 37.1334C11.7731 36.7534 11.7931 36.3534 11.8131 35.9634C11.8231 35.6834 11.8431 35.4034 11.8631 35.1234V35.0234C11.8731 34.8634 11.8931 34.6834 11.8631 34.4934C11.9631 34.3834 12.0231 34.2334 12.0331 34.0834C12.0731 33.8134 12.0931 33.5134 12.1131 33.2334C12.1131 33.1234 12.1231 33.0134 12.1331 32.9034C12.1731 32.4334 12.2331 31.9433 12.3331 31.3533V31.3233V31.2634C12.4031 30.7034 12.4631 30.1634 12.6231 29.6634C12.7831 29.2434 12.8731 28.8134 12.9631 28.4034C13.0231 28.1334 13.0831 27.8734 13.1531 27.6234C13.3131 27.1634 13.4531 26.6834 13.6031 26.2134C13.8731 25.3334 14.1531 24.4134 14.5231 23.5634C15.0331 22.5934 15.6031 21.7134 16.2231 20.9334C16.4231 20.6634 16.5831 20.3934 16.7431 20.1334C16.9131 19.8434 17.0831 19.5633 17.2831 19.3233C17.4431 19.1433 17.6231 18.9634 17.8231 18.7834C18.0131 18.6134 18.2031 18.4334 18.3831 18.2234C18.4531 18.1534 18.5231 18.0634 18.6031 17.9834C18.7531 17.8134 18.9031 17.6534 19.0631 17.5034C19.3231 17.2734 19.6031 17.0634 19.9031 16.8434C20.0031 16.7734 20.0931 16.7034 20.1931 16.6334C20.3731 16.5034 20.5631 16.3634 20.7631 16.2234C21.1531 15.9334 21.5231 15.6634 21.9131 15.4434C22.2031 15.2734 22.5331 15.1734 22.8831 15.0634C22.9931 15.0334 23.0931 14.9934 23.2031 14.9634C23.4231 14.8834 23.6431 14.8134 23.8631 14.7334C24.0731 14.6534 24.2931 14.5834 24.5031 14.5134C24.8131 14.4134 25.1231 14.2934 25.4231 14.1734C25.9631 13.9634 26.4831 13.7634 27.0131 13.6934H27.0331H27.0531C27.2231 13.6634 27.4031 13.6434 27.5931 13.6334C27.9231 13.6034 28.2531 13.5734 28.6031 13.4634C28.6631 13.4434 28.7931 13.4034 28.9231 13.3434C28.9631 13.3434 29.0031 13.3333 29.0431 13.3233C29.2131 13.3233 29.3731 13.2634 29.5031 13.1534C29.5631 13.1034 29.6031 13.0534 29.6331 13.0134C29.8031 12.8334 29.9031 12.6134 29.9131 12.3834C29.9131 12.2234 29.8831 12.0834 29.8331 11.9634C29.8631 11.9634 29.8931 11.9634 29.9231 11.9434C30.2931 12.0134 30.6431 12.0634 30.9931 12.0934C31.0531 12.0934 31.1031 12.1034 31.1631 12.1134C31.2531 12.1234 31.3531 12.1334 31.4631 12.1434C32.1131 12.2034 32.7631 12.2134 33.3831 12.2134C33.7531 12.2134 34.1431 12.2134 34.5231 12.2334C34.9231 12.2434 35.3431 12.2834 35.7631 12.3134L36.1731 12.3434H36.3631C36.7231 12.3634 37.0631 12.3734 37.4131 12.4034H37.5431V12.4134C37.9631 12.4534 38.3631 12.4634 38.7531 12.4834C39.1431 12.4934 39.5131 12.5134 39.8831 12.5434H39.9131C40.8031 12.5934 41.6531 12.6734 42.3031 12.7334C42.6531 12.7634 42.9931 12.8034 43.3431 12.8334C43.6931 12.8734 44.0431 12.9034 44.3931 12.9434C44.5831 12.9634 44.7731 12.9834 44.9531 12.9934C45.1431 13.0134 45.3531 13.0434 45.5631 13.0634C46.1031 13.1134 46.6531 13.1534 47.1731 13.1934C47.5231 13.2234 47.8831 13.2434 48.2331 13.2734C48.6831 13.3034 49.1231 13.3234 49.5531 13.3334C49.8931 13.3334 50.2231 13.3534 50.5631 13.3734C50.8731 13.4034 51.2031 13.4234 51.5331 13.4534C52.3731 13.5234 53.2331 13.6034 54.0931 13.6434C54.2431 13.6434 54.3931 13.6634 54.5431 13.6734C54.9031 13.7034 55.2831 13.7234 55.6631 13.7034C55.7131 13.7034 55.7731 13.7034 55.8231 13.7034C55.8431 13.8234 55.8931 13.9434 55.9831 14.0534C55.9131 14.1134 55.8531 14.1934 55.8031 14.3034C55.7131 14.4834 55.6831 14.6634 55.6631 14.8134C55.6631 14.8634 55.6431 14.9134 55.6331 14.9634V14.9834V15.0034C55.5931 15.2834 55.7131 15.5734 55.9331 15.7334C55.9731 15.7634 56.0231 15.7934 56.0631 15.8134C56.1231 15.8634 56.2031 15.9034 56.2831 15.9334C56.4731 16.0434 56.6531 16.0934 56.8131 16.1234C56.8531 16.1334 56.9031 16.1434 56.9431 16.1534C57.1131 16.2134 57.2731 16.2834 57.4431 16.3634C57.5831 16.4234 57.7231 16.4934 57.8731 16.5434C58.2731 16.7534 58.6431 16.9234 59.0031 17.0534C59.6331 17.4134 60.2831 17.7734 60.9031 18.1134L61.3831 18.3834C61.7031 18.5834 62.0031 18.8534 62.3131 19.1434L62.3731 19.2034C62.5031 19.3134 62.6131 19.4034 62.7331 19.4834C62.8231 19.5534 62.9131 19.6134 63.0031 19.6834C63.3631 19.9834 63.6631 20.2733 63.9431 20.5733C64.0531 20.6933 64.1631 20.8234 64.2731 20.9734C64.4231 21.1634 64.5731 21.3634 64.7631 21.5434V21.5634C64.9731 21.7534 65.1331 21.9734 65.3231 22.2134C65.4231 22.3434 65.5231 22.4734 65.6331 22.6134C65.7631 22.7734 65.8931 22.9333 66.0131 23.1033C66.1731 23.3133 66.3331 23.5234 66.5131 23.7334C66.6431 23.9234 66.7431 24.1434 66.8531 24.3734C66.9331 24.5334 67.0031 24.6834 67.0931 24.8334C67.1531 24.9634 67.2231 25.0834 67.2931 25.2134C67.3931 25.4034 67.4931 25.5734 67.5631 25.7534C67.7031 26.1834 67.8531 26.6534 68.0831 27.1234C68.1731 27.3734 68.2331 27.6334 68.3031 27.9034C68.3531 28.1134 68.4131 28.3234 68.4731 28.5234C68.5831 28.9634 68.6331 29.4134 68.7031 29.8734L68.7431 30.1434V30.1634V30.1834C68.8331 30.5734 68.8531 30.9834 68.8831 31.4134V31.5534L68.8931 31.5733V31.5934C68.9731 32.1534 69.0031 32.6434 68.9731 33.0934V33.1134V33.1334C68.9831 33.6734 69.0031 34.2834 68.9731 34.8734V34.9034L69.0031 34.9334Z" fill="white"/>
</svg>
