<svg width="124" height="48" viewBox="0 0 124 48" fill="none" xmlns="http://www.w3.org/2000/svg">
<path fill-rule="evenodd" clip-rule="evenodd" d="M48.5471 15C47.9971 15 47.5471 15.45 47.5471 16V32C47.5471 32.55 47.9971 33 48.5471 33H116.547C117.097 33 117.547 32.55 117.547 32V16C117.547 15.45 117.097 15 116.547 15H48.5471ZM51.0471 26C51.8771 26 52.5471 25.33 52.5471 24.5C52.5471 23.67 51.8771 23 51.0471 23C50.2171 23 49.5471 23.67 49.5471 24.5C49.5471 25.33 50.2171 26 51.0471 26Z" fill="#464141"/>
<path d="M66.6317 20.93C66.685 20.8833 66.7583 20.86 66.8517 20.86C66.9317 20.8666 66.9983 20.8966 67.0517 20.95C67.105 21.0033 67.1417 21.05 67.1617 21.09C67.1817 21.1233 67.1983 21.5666 67.2117 22.42L67.2317 23.7L67.7717 23.72C68.125 23.7333 68.3317 23.7533 68.3917 23.78C68.4983 23.84 68.5517 23.9233 68.5517 24.03C68.5517 24.2166 68.4583 24.3466 68.2717 24.42C68.2117 24.4466 68.0617 24.46 67.8217 24.46C67.6017 24.46 67.4417 24.4766 67.3417 24.51L67.2117 24.56V25.28C67.2117 25.66 67.195 26.1233 67.1617 26.67C67.135 27.0766 67.0983 27.33 67.0517 27.43C67.0117 27.5033 66.9217 27.54 66.7817 27.54C66.6883 27.54 66.6017 27.5266 66.5217 27.5C66.4817 27.4733 66.445 27.43 66.4117 27.37C66.3717 27.3033 66.3517 27.1933 66.3517 27.04L66.3817 26.17C66.3817 26.07 66.3883 25.8666 66.4017 25.56C66.4217 24.7666 66.4317 23.8633 66.4317 22.85C66.4317 21.9766 66.4417 21.4566 66.4617 21.29C66.4683 21.13 66.525 21.01 66.6317 20.93ZM61.1017 25.95C61.1017 25.8366 61.1317 25.7266 61.1917 25.62C61.2383 25.52 61.355 25.35 61.5417 25.11L61.9017 24.61C62.015 24.4233 62.1517 24.2133 62.3117 23.98C62.4917 23.6933 62.605 23.45 62.6517 23.25C62.6983 23.05 62.7317 22.6633 62.7517 22.09C62.765 21.69 62.785 21.4466 62.8117 21.36C62.8317 21.26 62.8917 21.1866 62.9917 21.14C63.045 21.1133 63.1017 21.1 63.1617 21.1C63.235 21.1 63.3017 21.13 63.3617 21.19L63.4717 21.3V21.85C63.4717 22.2566 63.4583 22.5833 63.4317 22.83C63.425 23.1166 63.425 23.27 63.4317 23.29C63.445 23.3166 63.5783 23.4666 63.8317 23.74L64.3117 24.27C64.4717 24.47 64.6883 24.7166 64.9617 25.01C65.1283 25.1833 65.245 25.35 65.3117 25.51C65.3583 25.6233 65.3817 25.7066 65.3817 25.76C65.3817 25.8066 65.3717 25.8466 65.3517 25.88C65.325 25.9333 65.265 25.9866 65.1717 26.04C65.1117 26.0666 65.0617 26.08 65.0217 26.08C65.0017 26.08 64.9583 26.0633 64.8917 26.03C64.805 25.9766 64.665 25.8366 64.4717 25.61L63.9417 24.99L63.4317 24.43C63.2517 24.2166 63.145 24.1166 63.1117 24.13C63.0717 24.1433 62.9683 24.2966 62.8017 24.59C62.6483 24.8566 62.515 25.0733 62.4017 25.24C62.335 25.34 62.235 25.5 62.1017 25.72C62.0017 25.8933 61.895 26.0366 61.7817 26.15C61.7217 26.21 61.6717 26.2533 61.6317 26.28C61.605 26.3 61.5517 26.31 61.4717 26.31C61.3717 26.31 61.285 26.2833 61.2117 26.23C61.165 26.2033 61.135 26.17 61.1217 26.13C61.1083 26.09 61.1017 26.03 61.1017 25.95ZM73.7458 20.68C73.8058 20.6466 73.8625 20.6233 73.9158 20.61C73.9558 20.61 74.0091 20.63 74.0758 20.67C74.1491 20.71 74.1891 20.7733 74.1958 20.86C74.2158 21.0266 74.2291 21.2933 74.2358 21.66C74.2491 22.1266 74.2691 22.3766 74.2958 22.41C74.3291 22.4433 74.5158 22.46 74.8558 22.46C75.2091 22.46 75.4291 22.4833 75.5158 22.53C75.6091 22.5833 75.6558 22.69 75.6558 22.85C75.6558 22.93 75.6325 23.0033 75.5858 23.07L75.5058 23.17L74.9358 23.16H74.8058C74.5125 23.1466 74.3425 23.17 74.2958 23.23C74.2425 23.2966 74.2158 23.5133 74.2158 23.88V24.04C74.2158 24.4 74.2125 24.6066 74.2058 24.66C74.1925 24.74 74.1691 24.8033 74.1358 24.85C74.0891 24.91 73.9991 24.94 73.8658 24.94C73.7258 24.94 73.6291 24.91 73.5758 24.85C73.5158 24.7966 73.4758 24.6866 73.4558 24.52C73.4425 24.3666 73.4425 24.2333 73.4558 24.12C73.4825 23.9933 73.4991 23.4466 73.5058 22.48C73.5258 21.68 73.5458 21.1933 73.5658 21.02C73.5858 20.8533 73.6458 20.74 73.7458 20.68ZM68.8458 23.52C68.8458 23.0133 68.8591 22.7066 68.8858 22.6C68.9191 22.4733 68.9891 22.3866 69.0958 22.34C69.1758 22.3 69.5725 22.28 70.2858 22.28C70.9858 22.28 71.3625 22.2633 71.4158 22.23C71.4625 22.2033 71.4958 22.0833 71.5158 21.87C71.5225 21.8233 71.5258 21.7633 71.5258 21.69C71.5258 21.59 71.5125 21.53 71.4858 21.51C71.4591 21.4766 71.0591 21.4566 70.2858 21.45C69.6925 21.4433 69.3191 21.4266 69.1658 21.4C69.0391 21.38 68.9558 21.32 68.9158 21.22C68.9025 21.18 68.8958 21.15 68.8958 21.13C68.8958 21.1033 68.9025 21.07 68.9158 21.03C68.9491 20.95 68.9925 20.8966 69.0458 20.87C69.0925 20.8433 69.2725 20.83 69.5858 20.83C69.7725 20.83 69.9091 20.8266 69.9958 20.82L71.1658 20.81C71.6791 20.81 71.9625 20.8233 72.0158 20.85C72.1558 20.9233 72.2458 21.03 72.2858 21.17C72.3058 21.2566 72.3158 21.38 72.3158 21.54C72.3158 21.6133 72.3091 21.75 72.2958 21.95C72.2758 22.23 72.2425 22.43 72.1958 22.55C72.1491 22.6766 72.0791 22.7666 71.9858 22.82C71.8391 22.9 71.3925 22.94 70.6458 22.94C70.1391 22.94 69.8491 22.9466 69.7758 22.96C69.6825 22.98 69.6258 23.03 69.6058 23.11C69.5991 23.1233 69.5958 23.1733 69.5958 23.26C69.5958 23.38 69.5991 23.4833 69.6058 23.57L69.6458 23.93H70.8858C71.7258 23.93 72.1558 23.9333 72.1758 23.94C72.2291 23.9466 72.2791 23.9866 72.3258 24.06C72.3791 24.1333 72.4058 24.2033 72.4058 24.27C72.3925 24.4166 72.3358 24.5166 72.2358 24.57C72.1758 24.6033 71.6425 24.6233 70.6358 24.63L69.1058 24.66L68.8458 24.38V23.52ZM69.7358 26.58C69.7358 26.4 69.7458 26.29 69.7658 26.25C69.7925 26.2166 69.8325 26.1333 69.8858 26C69.9525 25.8666 70.0258 25.76 70.1058 25.68C70.1658 25.62 70.2758 25.5366 70.4358 25.43C70.5891 25.3366 70.7025 25.28 70.7758 25.26C70.8291 25.2533 70.8825 25.2333 70.9358 25.2C71.0891 25.14 71.3425 25.09 71.6958 25.05C71.8691 25.0366 72.0058 25.03 72.1058 25.03C72.3058 25.03 72.5458 25.0466 72.8258 25.08C73.2258 25.14 73.5258 25.2233 73.7258 25.33C73.8258 25.3833 73.9458 25.4766 74.0858 25.61C74.2191 25.75 74.3125 25.87 74.3658 25.97C74.4258 26.0766 74.4558 26.2333 74.4558 26.44C74.4425 26.6666 74.4058 26.8433 74.3458 26.97C74.2791 27.1033 74.1591 27.2366 73.9858 27.37C73.6058 27.6566 73.0325 27.8 72.2658 27.8C71.7325 27.8 71.1858 27.7166 70.6258 27.55C70.2991 27.4433 70.0658 27.32 69.9258 27.18C69.7991 27.0533 69.7358 26.8533 69.7358 26.58ZM70.5858 26.8C70.7191 26.92 71.0725 27.0066 71.6458 27.06C71.8858 27.08 72.0991 27.09 72.2858 27.09C72.6525 27.09 72.9391 27.0533 73.1458 26.98C73.2725 26.9333 73.3858 26.8633 73.4858 26.77C73.5858 26.67 73.6358 26.57 73.6358 26.47C73.6358 26.3033 73.5925 26.1666 73.5058 26.06C73.4258 25.96 73.2625 25.8733 73.0158 25.8C72.9091 25.76 72.5758 25.74 72.0158 25.74C71.8091 25.74 71.6591 25.7466 71.5658 25.76L71.4258 25.79L71.2758 25.81C70.9691 25.87 70.7425 26.0133 70.5958 26.24C70.5158 26.36 70.4758 26.4633 70.4758 26.55C70.4758 26.6433 70.5125 26.7266 70.5858 26.8ZM81.7052 20.76C81.7318 20.7533 81.7852 20.75 81.8652 20.75C82.0185 20.75 82.1118 20.7666 82.1452 20.8C82.1785 20.8333 82.1952 21.9533 82.1952 24.16V27.48L82.0852 27.57C82.0052 27.6366 81.9318 27.67 81.8652 27.67C81.7852 27.67 81.6985 27.63 81.6052 27.55L81.4952 27.45L81.4652 26.77C81.4518 26.4633 81.4452 26.0133 81.4452 25.42L81.4552 23.67C81.4685 21.9833 81.4818 21.1066 81.4952 21.04C81.5352 20.8733 81.6052 20.78 81.7052 20.76ZM75.9552 26.1C75.9552 25.9266 76.0285 25.8166 76.1752 25.77C76.2618 25.7433 76.9585 25.72 78.2652 25.7C79.5785 25.6666 80.2385 25.6466 80.2452 25.64C80.2585 25.6266 80.3085 25.62 80.3952 25.62C80.4952 25.6333 80.5685 25.6466 80.6152 25.66C80.8018 25.7133 80.9085 25.8066 80.9352 25.94V25.99C80.9352 26.05 80.9218 26.1066 80.8952 26.16C80.8618 26.24 80.8118 26.2966 80.7452 26.33C80.6718 26.3566 79.9652 26.3733 78.6252 26.38C77.3052 26.3866 76.5685 26.4 76.4152 26.42H76.3552C76.2552 26.42 76.1685 26.4 76.0952 26.36C76.0018 26.2933 75.9552 26.2066 75.9552 26.1ZM76.4452 22.7C76.4918 22.46 76.5818 22.2233 76.7152 21.99C76.7752 21.8833 76.8985 21.75 77.0852 21.59C77.2785 21.4166 77.3985 21.33 77.4452 21.33L77.5952 21.27C77.6685 21.2366 77.7618 21.2066 77.8752 21.18C77.9885 21.1533 78.1185 21.14 78.2652 21.14C78.4185 21.14 78.5585 21.1533 78.6852 21.18C78.9518 21.2266 79.1852 21.3133 79.3852 21.44C79.6652 21.6266 79.8752 21.9166 80.0152 22.31C80.0952 22.55 80.1352 22.7833 80.1352 23.01C80.1352 23.1433 80.1185 23.2866 80.0852 23.44C79.9452 24.0066 79.6818 24.4033 79.2952 24.63C79.1218 24.73 78.9685 24.7966 78.8352 24.83C78.6885 24.8633 78.5018 24.88 78.2752 24.88C77.9485 24.88 77.6852 24.8366 77.4852 24.75C77.2785 24.67 77.0685 24.5233 76.8552 24.31C76.5485 24.0033 76.3952 23.6233 76.3952 23.17C76.3952 23.0366 76.4118 22.88 76.4452 22.7ZM77.1952 23.12C77.1952 23.38 77.2218 23.57 77.2752 23.69C77.4485 24.0033 77.7718 24.1733 78.2452 24.2C78.3785 24.2066 78.4685 24.2066 78.5152 24.2C78.5885 24.1866 78.6618 24.1633 78.7352 24.13C79.0152 24.0033 79.2018 23.7633 79.2952 23.41C79.3285 23.2766 79.3452 23.1566 79.3452 23.05C79.3452 22.9433 79.3285 22.8166 79.2952 22.67C79.2485 22.4766 79.1885 22.3233 79.1152 22.21C79.0285 22.1033 78.9052 22.0166 78.7452 21.95C78.5785 21.8833 78.4118 21.85 78.2452 21.85C78.0985 21.85 77.9685 21.88 77.8552 21.94C77.5885 22.0733 77.4018 22.2633 77.2952 22.51C77.2552 22.5833 77.2285 22.6633 77.2152 22.75C77.2018 22.8433 77.1952 22.9666 77.1952 23.12ZM86.8378 20.55C86.8778 20.53 87.2111 20.52 87.8378 20.52L89.2278 20.53L90.1978 20.54C90.7311 20.54 91.0544 20.5433 91.1678 20.55C91.4411 20.5566 91.6111 20.5766 91.6778 20.61C91.8178 20.6633 91.9044 20.74 91.9378 20.84C91.9444 20.8533 91.9478 20.8766 91.9478 20.91C91.9478 20.9766 91.9111 21.0566 91.8378 21.15L91.7178 21.27L90.7078 21.24L90.0378 21.23C89.8044 21.23 89.6744 21.2366 89.6478 21.25C89.5678 21.2966 89.6344 21.3966 89.8478 21.55L89.9178 21.6L90.3978 21.84L90.5878 21.93C90.9278 22.0966 91.1178 22.18 91.1578 22.18L91.2778 22.23C91.3844 22.2833 91.4944 22.33 91.6078 22.37C91.9011 22.47 92.0778 22.5866 92.1378 22.72C92.1444 22.7333 92.1478 22.7533 92.1478 22.78C92.1478 22.8133 92.1311 22.87 92.0978 22.95C92.0378 23.0766 91.9511 23.14 91.8378 23.14C91.8178 23.14 91.7811 23.1333 91.7278 23.12C91.6611 23.1066 91.4511 23.0266 91.0978 22.88L90.2878 22.55C90.0944 22.4566 89.8744 22.36 89.6278 22.26L89.2578 22.11L88.9678 22.28C88.9078 22.32 88.7644 22.4033 88.5378 22.53C88.4578 22.57 88.2978 22.67 88.0578 22.83C87.5444 23.1633 87.2378 23.33 87.1378 23.33C87.0711 23.33 87.0011 23.3 86.9278 23.24C86.8611 23.1933 86.8211 23.13 86.8078 23.05C86.7744 22.91 86.8211 22.7833 86.9478 22.67C87.0078 22.61 87.1578 22.5033 87.3978 22.35C87.6511 22.19 87.7911 22.11 87.8178 22.11C87.8378 22.11 87.9511 22.0466 88.1578 21.92L88.5378 21.68C88.6111 21.6266 88.6811 21.56 88.7478 21.48C88.8078 21.4066 88.8378 21.36 88.8378 21.34C88.8378 21.26 88.7078 21.22 88.4478 21.22C88.2544 21.22 87.9678 21.2066 87.5878 21.18C87.1478 21.1466 86.8978 21.1266 86.8378 21.12C86.7778 21.1066 86.7311 21.06 86.6978 20.98C86.6844 20.9133 86.6778 20.87 86.6778 20.85C86.6778 20.8166 86.6844 20.7733 86.6978 20.72C86.7511 20.62 86.7978 20.5633 86.8378 20.55ZM85.9478 24.21C85.9611 24.05 86.0278 23.9533 86.1478 23.92C86.2678 23.8866 86.6878 23.8666 87.4078 23.86H87.4478C88.2811 23.8466 88.7144 23.83 88.7478 23.81C88.7811 23.7766 88.8011 23.6233 88.8078 23.35C88.8078 23.17 88.8144 23.0466 88.8278 22.98C88.8411 22.92 88.8678 22.87 88.9078 22.83C88.9678 22.77 89.0511 22.74 89.1578 22.74C89.2711 22.74 89.3511 22.7533 89.3978 22.78C89.5178 22.84 89.5778 23.03 89.5778 23.35C89.5778 23.55 89.5911 23.68 89.6178 23.74L89.6678 23.83L90.9878 23.85L91.5678 23.86C91.8944 23.86 92.0878 23.8633 92.1478 23.87C92.2611 23.8766 92.3511 23.9033 92.4178 23.95C92.5178 24.0166 92.5778 24.1066 92.5978 24.22V24.26C92.5978 24.3533 92.5644 24.4366 92.4978 24.51L92.4178 24.59L89.2878 24.58L87.9378 24.57C87.1644 24.57 86.7111 24.5666 86.5778 24.56C86.2778 24.5533 86.1011 24.5333 86.0478 24.5C86.0011 24.4666 85.9711 24.4366 85.9578 24.41C85.9511 24.39 85.9478 24.3266 85.9478 24.22V24.21ZM86.9478 26.42C86.9478 26.2333 86.9744 26.07 87.0278 25.93C87.0678 25.8233 87.1711 25.6766 87.3378 25.49C87.5178 25.29 87.6911 25.1433 87.8578 25.05C88.0578 24.95 88.2878 24.8766 88.5478 24.83C88.7611 24.79 88.9644 24.77 89.1578 24.77C89.5311 24.77 89.9078 24.8366 90.2878 24.97C90.8544 25.17 91.2278 25.46 91.4078 25.84C91.4811 26 91.5178 26.1766 91.5178 26.37C91.5178 26.5633 91.5044 26.7 91.4778 26.78C91.4444 26.8733 91.3744 26.99 91.2678 27.13C91.0211 27.47 90.5678 27.7 89.9078 27.82C89.7678 27.8533 89.5844 27.87 89.3578 27.87C89.1378 27.87 88.9344 27.8533 88.7478 27.82C88.2878 27.7466 87.9244 27.6466 87.6578 27.52C87.4911 27.44 87.3644 27.3633 87.2778 27.29C87.1978 27.23 87.1244 27.1266 87.0578 26.98C86.9844 26.8133 86.9478 26.6266 86.9478 26.42ZM87.6978 26.26C87.6778 26.3266 87.6678 26.39 87.6678 26.45C87.6678 26.65 87.7911 26.8 88.0378 26.9C88.2844 27 88.6411 27.0633 89.1078 27.09C89.3344 27.1033 89.4844 27.11 89.5578 27.11C89.8044 27.11 89.9878 27.09 90.1078 27.05C90.3211 26.9766 90.4811 26.8533 90.5878 26.68C90.6411 26.5933 90.6678 26.4933 90.6678 26.38C90.6678 26.2866 90.6511 26.2066 90.6178 26.14C90.4844 25.84 90.1811 25.6366 89.7078 25.53C89.5411 25.4966 89.3811 25.48 89.2278 25.48C88.8011 25.48 88.4578 25.5466 88.1978 25.68C87.9444 25.82 87.7778 26.0133 87.6978 26.26ZM98.7162 20.86C98.7962 20.8266 98.8429 20.81 98.8562 20.81H98.8762C98.9029 20.81 98.9495 20.8266 99.0162 20.86C99.0895 20.9066 99.1295 20.9466 99.1362 20.98C99.1562 21 99.1729 22.0866 99.1862 24.24L99.1962 27.43L99.1162 27.51C99.0562 27.57 98.9595 27.6 98.8262 27.6C98.6929 27.6 98.5995 27.57 98.5462 27.51C98.4795 27.4233 98.4462 26.35 98.4462 24.29V23.36L98.4562 22.41C98.4562 21.87 98.4595 21.55 98.4662 21.45C98.4795 21.2233 98.4995 21.0866 98.5262 21.04C98.5795 20.96 98.6429 20.9 98.7162 20.86ZM92.9962 24.06C92.9962 23.6133 93.0429 23.3066 93.1362 23.14C93.1695 23.06 93.1862 23.01 93.1862 22.99C93.1862 22.95 93.2762 22.7566 93.4562 22.41C93.5562 22.2166 93.7195 22.0366 93.9462 21.87C94.1662 21.6966 94.3795 21.5966 94.5862 21.57C94.6129 21.5633 94.6595 21.56 94.7262 21.56C95.2062 21.56 95.6062 21.65 95.9262 21.83C96.1862 21.9766 96.3962 22.2033 96.5562 22.51C96.6962 22.7833 96.7829 22.9933 96.8162 23.14C96.8495 23.3266 96.8662 23.59 96.8662 23.93C96.8662 24.2566 96.8629 24.45 96.8562 24.51C96.8495 24.5766 96.8162 24.7 96.7562 24.88C96.6162 25.3 96.4229 25.6333 96.1762 25.88C96.0362 26.0333 95.8629 26.1466 95.6562 26.22C95.4762 26.2866 95.2229 26.32 94.8962 26.32C94.7562 26.32 94.5895 26.2933 94.3962 26.24C94.2429 26.2 94.0862 26.1366 93.9262 26.05C93.4862 25.7633 93.1895 25.2533 93.0362 24.52C93.0095 24.4066 92.9962 24.2533 92.9962 24.06ZM93.7462 24.12C93.7862 24.62 93.9229 25.0066 94.1562 25.28C94.3362 25.4933 94.6095 25.6 94.9762 25.6C95.1562 25.6 95.3329 25.5566 95.5062 25.47C95.6395 25.41 95.7595 25.2866 95.8662 25.1C95.9729 24.9133 96.0462 24.7066 96.0862 24.48C96.1195 24.3266 96.1362 24.1533 96.1362 23.96C96.1362 23.64 96.0762 23.33 95.9562 23.03C95.9095 22.9033 95.8129 22.7633 95.6662 22.61C95.5195 22.4633 95.3862 22.3666 95.2662 22.32C95.1462 22.2733 95.0362 22.25 94.9362 22.25C94.8095 22.25 94.6595 22.3066 94.4862 22.42C94.3062 22.54 94.1662 22.68 94.0662 22.84C93.9595 23.0133 93.8729 23.2366 93.8062 23.51C93.7595 23.7166 93.7395 23.92 93.7462 24.12ZM101.45 20.6C101.53 20.5866 101.853 20.58 102.42 20.58C103.026 20.58 103.353 20.5833 103.4 20.59C103.493 20.61 103.56 20.66 103.6 20.74C103.626 20.7866 103.64 20.8366 103.64 20.89C103.64 20.99 103.586 21.08 103.48 21.16C103.446 21.1933 103.383 21.2166 103.29 21.23L103.05 21.24L102.6 21.23C102.1 21.23 101.78 21.22 101.64 21.2C101.5 21.18 101.393 21.13 101.32 21.05C101.246 20.9766 101.21 20.9166 101.21 20.87C101.21 20.83 101.236 20.7733 101.29 20.7C101.336 20.6466 101.39 20.6133 101.45 20.6ZM100.39 21.86C100.423 21.76 100.483 21.6966 100.57 21.67C100.65 21.6366 100.803 21.6166 101.03 21.61C101.243 21.5966 101.853 21.5866 102.86 21.58C103.093 21.5733 103.37 21.57 103.69 21.57C103.93 21.57 104.073 21.5733 104.12 21.58C104.273 21.5933 104.386 21.6166 104.46 21.65C104.58 21.7033 104.656 21.78 104.69 21.88L104.7 21.94C104.7 22.02 104.663 22.0966 104.59 22.17L104.48 22.27L103.58 22.28C102.713 22.28 102.386 22.3033 102.6 22.35C102.613 22.3566 102.633 22.36 102.66 22.36C102.8 22.38 102.953 22.4233 103.12 22.49C103.326 22.57 103.463 22.6366 103.53 22.69C103.643 22.77 103.733 22.8566 103.8 22.95C104.02 23.2366 104.13 23.56 104.13 23.92C104.13 24.1066 104.1 24.28 104.04 24.44C103.953 24.6666 103.81 24.8633 103.61 25.03C103.33 25.2633 103.016 25.38 102.67 25.38C102.483 25.38 102.26 25.3433 102 25.27C101.653 25.1833 101.383 25.06 101.19 24.9C101.063 24.7866 100.963 24.6466 100.89 24.48C100.81 24.3066 100.77 24.1433 100.77 23.99C100.77 23.65 100.926 23.3033 101.24 22.95C101.54 22.61 101.88 22.4133 102.26 22.36L102.37 22.33C102.37 22.33 102.283 22.3233 102.11 22.31H102.1L101.13 22.28C100.863 22.28 100.683 22.2733 100.59 22.26C100.523 22.2466 100.473 22.2266 100.44 22.2C100.386 22.1466 100.36 22.0833 100.36 22.01C100.36 21.9566 100.37 21.9066 100.39 21.86ZM101.56 24.09C101.593 24.41 101.903 24.57 102.49 24.57C102.823 24.57 103.07 24.4866 103.23 24.32C103.316 24.22 103.36 24.09 103.36 23.93C103.36 23.81 103.336 23.7066 103.29 23.62C103.176 23.4 103 23.2533 102.76 23.18C102.64 23.1466 102.536 23.13 102.45 23.13C102.21 23.13 102 23.22 101.82 23.4C101.613 23.5866 101.526 23.8166 101.56 24.09ZM101.63 25.93C101.623 25.9166 101.62 25.8966 101.62 25.87C101.62 25.83 101.63 25.7966 101.65 25.77C101.723 25.6766 101.9 25.6166 102.18 25.59C102.46 25.5566 103.07 25.5266 104.01 25.5C104.836 25.4733 105.37 25.46 105.61 25.46C105.756 25.4733 105.85 25.5 105.89 25.54C105.983 25.6066 106.043 25.7066 106.07 25.84C106.09 25.9666 106.1 26.2566 106.1 26.71C106.1 27.1166 106.096 27.3566 106.09 27.43C106.083 27.5233 106.063 27.6066 106.03 27.68C105.983 27.76 105.953 27.8033 105.94 27.81C105.9 27.8233 105.843 27.83 105.77 27.83C105.65 27.83 105.57 27.82 105.53 27.8C105.483 27.78 105.44 27.7366 105.4 27.67C105.353 27.5766 105.33 27.4266 105.33 27.22C105.33 27.08 105.32 26.8966 105.3 26.67L105.28 26.19L101.85 26.22L101.73 26.11C101.67 26.05 101.636 25.99 101.63 25.93ZM105.3 24.59C105.3 24.09 105.313 23.4766 105.34 22.75C105.36 21.9366 105.38 21.4433 105.4 21.27C105.406 21.1633 105.42 21.06 105.44 20.96C105.446 20.9266 105.48 20.88 105.54 20.82C105.613 20.7533 105.7 20.72 105.8 20.72C105.853 20.72 105.9 20.7266 105.94 20.74C105.966 20.7466 105.996 20.78 106.03 20.84C106.056 20.8866 106.076 20.96 106.09 21.06C106.096 21.1266 106.1 21.36 106.1 21.76C106.1 22.2866 106.116 22.5666 106.15 22.6C106.176 22.6266 106.303 22.64 106.53 22.64C106.876 22.64 107.113 22.67 107.24 22.73C107.366 22.79 107.43 22.8966 107.43 23.05C107.43 23.1566 107.4 23.2466 107.34 23.32C107.293 23.3533 107.243 23.3766 107.19 23.39L107.03 23.4L106.72 23.39C106.366 23.39 106.166 23.4066 106.12 23.44C106.093 23.46 106.073 23.51 106.06 23.59C106.046 23.6833 106.036 23.8966 106.03 24.23C106.023 24.5633 106.013 24.7766 106 24.87C105.993 24.9433 105.97 25.0133 105.93 25.08C105.87 25.1733 105.79 25.22 105.69 25.22C105.563 25.22 105.46 25.1666 105.38 25.06C105.326 24.9866 105.3 24.83 105.3 24.59Z" fill="#867171"/>
<path d="M23.5571 24.6994C25.2871 26.2394 28.0471 27.4994 30.4871 28.1594C32.5471 28.4994 35.2771 27.9893 36.9971 27.2893C41.5571 25.4293 45.3871 23.5894 50.4071 24.1694" stroke="#7D6F6F" stroke-linecap="round"/>
<path d="M15.6872 22.7497L12.9572 22.5697C12.9772 22.4097 12.8972 22.2297 12.7272 22.1597C12.4472 22.0797 12.1572 22.1797 11.8772 22.1897C11.1972 22.2297 10.5272 22.2697 9.8472 22.3297C9.2572 22.4297 8.6772 22.5597 8.0772 22.5997C7.4372 22.7197 5.57719 22.7097 6.08719 23.7697C6.67719 24.4897 7.65721 24.6997 8.39721 25.2197C9.23721 25.8597 10.3472 25.8797 11.3272 26.1997C11.8272 26.3997 12.3372 26.5897 12.8772 26.6697C13.1972 26.7197 13.4872 26.8197 13.7972 26.9397C14.2272 27.0197 14.4272 26.6397 14.3072 26.3397L15.3472 26.0497L15.6972 22.7497H15.6872Z" fill="#FC5EB5"/>
<path d="M29.7571 24.9399C27.5771 24.4499 25.2971 24.8199 23.0971 24.4099C22.8271 24.3699 22.5671 24.2399 22.2971 24.2499C22.1571 24.2599 22.0771 24.3799 22.0771 24.5099L19.7671 23.8799L17.6871 27.5399L17.0671 31.5499L18.5171 34.2799C18.3771 34.4699 18.3071 34.6799 18.5171 34.9099C19.0071 35.3199 19.3871 34.6099 19.6471 34.2699C19.8671 33.9399 20.1071 33.6099 20.3971 33.3399C21.4271 32.3999 22.6071 31.7199 23.7071 30.8699C24.4071 30.3399 25.0171 29.7199 25.7271 29.2099C26.5771 28.6299 27.3671 27.9699 28.1071 27.2499C28.5571 26.8199 29.1271 26.4099 29.6371 26.0199C30.0471 25.7599 30.2671 25.2099 29.7371 24.9499L29.7571 24.9399Z" fill="#FC5EB5"/>
<path d="M23.7072 13.0797C22.9172 13.6297 22.2672 14.3697 21.4972 14.9597C20.3572 15.8797 19.1972 16.7797 18.0372 17.6697C17.2972 18.1897 16.5072 18.6397 15.7972 19.2097C14.6872 20.0997 13.7072 21.1397 12.6972 22.1397C12.6672 22.1697 12.6472 22.1997 12.6172 22.2297C12.5872 22.2197 12.5472 22.2097 12.5072 22.2197C12.3572 22.2397 12.2872 22.3897 12.3072 22.5297C12.2672 23.2197 12.4872 23.8797 12.7972 24.4897C13.4472 25.7797 14.0872 27.0797 14.7072 28.3897C15.3572 29.6397 16.0272 30.8797 16.6072 32.1597C17.0572 33.0497 17.6172 33.8797 18.0972 34.7597C18.0572 35.0397 18.0972 35.2997 18.4572 35.3697C18.7472 35.4197 18.9572 35.1497 18.9772 34.8797C19.0172 34.6897 19.0772 34.4097 19.1572 34.1797C19.4472 33.3497 19.8472 32.5197 20.1372 31.6797C20.3772 30.9397 20.5672 30.1797 20.8172 29.4397C21.1172 28.4797 21.5572 27.5397 21.8772 26.5797C22.1872 25.6197 22.3872 24.5497 22.6372 23.5597C22.8072 22.8597 23.1072 22.1997 23.3872 21.5397C23.7872 20.5597 24.0472 19.5397 24.3772 18.5397C24.8272 17.3497 25.1472 16.0697 25.2672 14.7897C25.4672 13.2797 25.6372 11.6797 23.6972 13.0697L23.7072 13.0797Z" fill="#FF76B4"/>
</svg>
