<svg width="21" height="24" viewBox="0 0 21 24" fill="none" xmlns="http://www.w3.org/2000/svg">
<path d="M12.7751 10.2382L13.5605 7.73036C13.7079 7.78658 13.8913 7.75636 13.9901 7.60738C14.1293 7.36826 14.0962 7.07146 14.1554 6.80682C14.2718 6.16055 14.3889 5.53318 14.4885 4.88041C14.526 4.30791 14.541 3.73504 14.6389 3.16748C14.67 2.54791 15.1011 0.815469 13.9933 1.05139C13.1913 1.44311 12.774 2.30472 12.1205 2.87915C11.3298 3.51761 11.0627 4.54885 10.5501 5.39022C10.2495 5.81485 9.9574 6.24391 9.75826 6.72641C9.64431 7.01192 9.48416 7.26243 9.29943 7.51973C9.12273 7.90209 9.44102 8.17215 9.74112 8.13185L9.77821 9.16877L12.7751 10.2382Z" fill="#C6C685"/>
<path d="M7.55411 22.8659C8.5046 20.9411 8.67269 18.7308 9.54522 16.7757C9.64661 16.5355 9.81991 16.3224 9.8746 16.0662C9.89358 15.9354 9.79892 15.8348 9.68411 15.7987L10.7912 13.7902L7.85072 11.0242L4.25249 9.54113L1.38065 10.2824C1.23137 10.1092 1.05586 9.99603 0.792757 10.145C0.296204 10.5116 0.876065 11.0194 1.13595 11.3424C1.39561 11.6264 1.64963 11.9177 1.83671 12.2551C2.48046 13.4252 2.84694 14.6786 3.39444 15.9018C3.72824 16.6715 4.17011 17.3877 4.4864 18.164C4.8365 19.0915 5.27609 19.9757 5.7773 20.8305C6.07262 21.3509 6.33358 21.9683 6.57715 22.5295C6.72547 22.9736 7.18899 23.3035 7.55289 22.8648L7.55411 22.8659Z" fill="#C6C685"/>
<path d="M19.988 19.9026C19.652 19.0372 19.1125 18.2701 18.7345 17.4216C18.1367 16.1493 17.5541 14.8693 16.9877 13.5817C16.668 12.7749 16.4275 11.9356 16.0587 11.1482C15.4753 9.91208 14.7271 8.7646 14.0208 7.59671C13.9996 7.56672 13.9771 7.53324 13.9535 7.50097C13.9726 7.47191 13.9879 7.43943 13.9913 7.40028C14.0073 7.2519 13.8785 7.15599 13.7433 7.14664C13.1096 6.95054 12.4411 7.00519 11.8032 7.1569C10.4523 7.47484 9.09724 7.77517 7.73926 8.06025C6.42646 8.3851 5.12164 8.73449 3.79082 8.98548C2.85864 9.20685 1.95898 9.54411 1.03224 9.78538C0.779162 9.68564 0.525326 9.66398 0.379616 9.98729C0.270807 10.2513 0.470287 10.5055 0.720116 10.5806C0.888413 10.6573 1.13761 10.7808 1.33375 10.9086C2.04183 11.3646 2.7217 11.9244 3.43952 12.3883C4.07683 12.783 4.7466 13.1268 5.37952 13.531C6.20983 14.0323 6.98161 14.6491 7.80303 15.1661C8.62525 15.6723 9.58531 16.098 10.4472 16.5567C11.064 16.8729 11.6101 17.2968 12.1652 17.7086C12.9858 18.3 13.8802 18.7753 14.7365 19.3088C15.7472 19.994 16.8668 20.5818 18.0305 20.9825C19.3964 21.5119 20.847 22.0335 19.9881 19.905L19.988 19.9026Z" fill="#D8D9A7"/>
</svg>
