<svg width="35" height="31" viewBox="0 0 35 31" fill="none" xmlns="http://www.w3.org/2000/svg">
<path d="M10.2329 10.3295C10.2329 10.291 10.2641 10.2598 10.3026 10.2598C10.3412 10.2598 10.3724 10.291 10.3724 10.3295C10.3724 10.368 10.3412 10.3992 10.3026 10.3992C10.2641 10.3992 10.2329 10.368 10.2329 10.3295Z" fill="white"/>
<path d="M14.7027 11.4751L10.8546 10.1171C10.95 9.89138 10.9133 9.6051 10.6876 9.44362C10.3242 9.21423 9.86178 9.2491 9.45439 9.14266C8.45794 8.92612 7.49085 8.70958 6.48339 8.51873C5.59704 8.42881 4.70886 8.37376 3.83353 8.19025C2.87378 8.10767 0.209235 7.34244 0.513858 9.07476C1.07723 10.341 2.39115 11.0365 3.2463 12.0825C4.1932 13.345 5.77872 13.8166 7.05593 14.6589C7.69821 15.1489 8.34783 15.626 9.08553 15.9618C9.52228 16.1545 9.90215 16.4169 10.2912 16.7179C10.8747 17.0133 11.3115 16.5344 11.2656 16.0664H12.8768L14.7027 11.4751Z" fill="#C6C685"/>
<path d="M34.0092 20.2792C31.0749 18.6974 27.6543 18.3138 24.6686 16.8513C24.3016 16.6806 23.9804 16.3999 23.5859 16.3008C23.384 16.2641 23.2226 16.4054 23.1602 16.5815L20.1047 14.752L15.6492 19.1617L13.1479 24.6632L14.1389 29.161C13.8618 29.3831 13.6765 29.6492 13.893 30.0657C14.4343 30.8566 15.2546 29.985 15.7703 29.5996C16.2254 29.2124 16.6915 28.8344 17.2255 28.5628C19.0771 27.6287 21.0425 27.1296 22.9711 26.3478C24.1841 25.8726 25.3201 25.2266 26.5422 24.7788C28.0011 24.287 29.3976 23.6539 30.7519 22.9236C31.5758 22.4942 32.5484 22.1235 33.4329 21.7766C34.1303 21.5711 34.668 20.8701 34.0073 20.2811L34.0092 20.2792Z" fill="#C6C685"/>
<path d="M30.1009 0.817734C28.7392 1.29118 27.5189 2.08578 26.1811 2.62529C24.1735 3.48227 22.1549 4.3154 20.1253 5.12284C18.8555 5.57427 17.5397 5.90091 16.2974 6.42941C14.3467 7.26621 12.5244 8.36359 10.6728 9.39491C10.6251 9.42611 10.5719 9.45914 10.5205 9.494C10.4765 9.46281 10.4269 9.43712 10.3664 9.42978C10.137 9.39674 9.981 9.59126 9.95898 9.80046C9.61949 10.7731 9.66721 11.8135 9.86723 12.8118C10.2856 14.9258 10.6765 17.0454 11.0435 19.1686C11.4748 21.2239 11.9445 23.2681 12.2602 25.3473C12.552 26.8062 13.0254 28.221 13.3484 29.6726C13.1795 30.0598 13.1318 30.4525 13.6255 30.6965C14.0292 30.8801 14.4347 30.5846 14.565 30.2011C14.6935 29.9442 14.899 29.5643 15.1082 29.267C15.8551 28.1935 16.7616 27.1695 17.5214 26.0813C18.1691 25.1142 18.7398 24.0939 19.4023 23.1342C20.2263 21.8735 21.2264 20.71 22.0742 19.464C22.9055 18.2162 23.6193 16.7499 24.3791 15.4378C24.9039 14.4983 25.592 13.6743 26.2619 12.8357C27.2253 11.5952 28.0125 10.2335 28.8879 8.9343C30.0073 7.40385 30.9817 5.69905 31.668 3.91535C32.5654 1.82519 33.4554 -0.397091 30.1045 0.817734H30.1009Z" fill="#D8D9A7"/>
</svg>
