<svg width="162" height="162" viewBox="0 0 162 162" fill="none" xmlns="http://www.w3.org/2000/svg">
<path d="M123.104 31.0933C118.595 32.6906 114.551 35.3614 110.119 37.1681C103.473 40.0484 96.7748 42.8501 90.0509 45.5733C85.8517 47.092 81.4721 48.1917 77.376 49.9722C70.9097 52.8001 64.8813 56.4921 58.75 59.9485C58.5954 60.0532 58.4151 60.158 58.2348 60.2889C58.0802 60.1841 57.9256 60.1056 57.7195 60.0794C56.9724 59.9747 56.4314 60.6293 56.3799 61.3362C55.2464 64.6093 55.401 68.118 56.0708 71.4696C57.4619 78.5917 58.75 85.7139 59.9608 92.8622C61.4035 99.7749 62.9492 106.661 63.9797 113.679C64.9329 118.601 66.5044 123.367 67.5864 128.237C67.0196 129.546 66.865 130.856 68.5138 131.694C69.8534 132.322 71.193 131.327 71.631 130.018C72.0689 129.154 72.7388 127.871 73.4344 126.876C75.9075 123.262 78.9217 119.806 81.4206 116.14C83.5589 112.893 85.4652 109.437 87.655 106.216C90.3857 101.974 93.7091 98.0467 96.5171 93.8572C99.2737 89.6415 101.644 84.7189 104.143 80.2937C105.869 77.1254 108.162 74.3499 110.377 71.5219C113.572 67.3325 116.174 62.7502 119.085 58.3774C122.794 53.2191 126.015 47.4848 128.307 41.4885C131.27 34.4449 134.233 26.9562 123.129 31.0671L123.104 31.0933Z" fill="#FF76B4"/>
</svg>
