<svg width="168" height="266" viewBox="0 0 168 266" fill="none" xmlns="http://www.w3.org/2000/svg">
<path d="M34.5639 230.178C34.6639 229.963 34.914 229.599 35.314 229.085L36.0854 228.013C36.3283 227.613 36.6211 227.163 36.964 226.663C37.3497 226.049 37.5926 225.528 37.6926 225.099C37.7926 224.67 37.864 223.842 37.9069 222.613C37.9354 221.756 37.9783 221.235 38.0354 221.049C38.0783 220.835 38.2069 220.678 38.4212 220.578C38.5355 220.52 38.6569 220.492 38.7855 220.492C38.9426 220.492 39.0855 220.556 39.214 220.685L39.4498 220.92V222.099C39.4498 222.97 39.4212 223.67 39.364 224.199C39.3498 224.813 39.3498 225.142 39.364 225.185C39.3926 225.242 39.6783 225.563 40.2212 226.149L41.2498 227.285C41.5927 227.713 42.057 228.242 42.6427 228.871C42.9998 229.242 43.2498 229.599 43.3927 229.942C43.4927 230.185 43.5427 230.363 43.5427 230.478C43.5427 230.578 43.5213 230.663 43.4784 230.735C43.4213 230.849 43.2927 230.963 43.0927 231.078C42.9641 231.135 42.857 231.163 42.7712 231.163C42.7284 231.163 42.6355 231.128 42.4927 231.056C42.307 230.942 42.007 230.642 41.5927 230.156L40.4569 228.828L39.364 227.628C38.9783 227.171 38.7497 226.956 38.6783 226.985C38.5926 227.013 38.3712 227.342 38.014 227.971C37.6854 228.542 37.3997 229.006 37.1569 229.363C37.014 229.578 36.7997 229.921 36.514 230.392C36.2997 230.763 36.0711 231.071 35.8283 231.313C35.6997 231.442 35.5925 231.535 35.5068 231.592C35.4497 231.635 35.3354 231.656 35.164 231.656C34.9497 231.656 34.764 231.599 34.6068 231.485C34.5068 231.428 34.4425 231.356 34.4139 231.271C34.3854 231.185 34.3711 231.056 34.3711 230.885C34.3711 230.642 34.4354 230.406 34.5639 230.178ZM46.6928 219.978C46.8642 219.992 47.007 220.056 47.1213 220.17C47.2356 220.285 47.3142 220.385 47.357 220.47C47.3999 220.542 47.4356 221.492 47.4642 223.32L47.5071 226.063L48.6642 226.106C49.4214 226.135 49.8642 226.178 49.9928 226.235C50.2214 226.363 50.3357 226.542 50.3357 226.77C50.3357 227.17 50.1357 227.449 49.7357 227.606C49.6071 227.663 49.2857 227.692 48.7714 227.692C48.2999 227.692 47.9571 227.728 47.7428 227.799L47.4642 227.906V229.449C47.4642 230.263 47.4285 231.256 47.357 232.428C47.2999 233.299 47.2213 233.842 47.1213 234.056C47.0356 234.213 46.8428 234.292 46.5427 234.292C46.3427 234.292 46.157 234.264 45.9856 234.206C45.8999 234.149 45.8213 234.056 45.7499 233.928C45.6642 233.785 45.6213 233.549 45.6213 233.221L45.6856 231.356C45.6856 231.142 45.6999 230.706 45.7284 230.049C45.7713 228.349 45.7927 226.413 45.7927 224.242C45.7927 222.37 45.8142 221.256 45.857 220.899C45.8713 220.556 45.9927 220.299 46.2213 220.128C46.3356 220.028 46.4928 219.978 46.6928 219.978Z" fill="white"/>
<path d="M50.957 225.678C50.957 224.592 50.9856 223.935 51.0427 223.707C51.1142 223.435 51.2642 223.25 51.4928 223.15C51.6642 223.064 52.5142 223.021 54.0428 223.021C55.5714 223.021 56.35 222.985 56.4643 222.914C56.5643 222.857 56.6357 222.6 56.6786 222.142C56.6928 222.042 56.7 221.914 56.7 221.757C56.7 221.542 56.6714 221.414 56.6143 221.371C56.5571 221.3 55.7 221.257 54.0428 221.242C52.7713 221.228 51.9713 221.192 51.6428 221.135C51.3713 221.092 51.1927 220.964 51.107 220.75C51.0785 220.664 51.0642 220.6 51.0642 220.557C51.0642 220.5 51.0785 220.428 51.107 220.342C51.1785 220.171 51.2713 220.057 51.3856 220C51.4856 219.942 51.8713 219.914 52.5428 219.914C52.9428 219.914 53.2356 219.907 53.4214 219.892L55.9285 219.871C57.0286 219.871 57.6357 219.9 57.75 219.957C58.05 220.114 58.2429 220.342 58.3286 220.642C58.3715 220.828 58.3929 221.092 58.3929 221.435C58.3929 221.592 58.3786 221.885 58.35 222.314C58.3072 222.914 58.2357 223.342 58.1357 223.6C58.0357 223.871 57.8857 224.064 57.6857 224.178C57.3714 224.35 56.4143 224.435 54.8142 224.435C53.7285 224.435 53.1071 224.45 52.9499 224.478C52.7499 224.521 52.6285 224.628 52.5856 224.8C52.5713 224.828 52.5642 224.935 52.5642 225.121C52.5642 225.378 52.5713 225.6 52.5856 225.785L52.6713 226.557H55.3285C57.1286 226.557 58.05 226.564 58.0929 226.578C58.2072 226.593 58.3143 226.678 58.4143 226.835C58.5286 226.993 58.5858 227.143 58.5858 227.285C58.5572 227.6 58.4357 227.814 58.2215 227.928C58.0929 228 56.95 228.043 54.7928 228.057L51.5142 228.121L50.957 227.521V225.678ZM52.9285 231.528C52.9856 231.457 53.0714 231.278 53.1856 230.993C53.3285 230.707 53.4856 230.478 53.6571 230.307C53.7857 230.178 54.0214 230 54.3642 229.771C54.6928 229.571 54.9357 229.45 55.0928 229.407C55.2071 229.393 55.3214 229.35 55.4357 229.278C55.7643 229.15 56.3071 229.043 57.0643 228.957C57.4357 228.928 57.7286 228.914 57.9429 228.914C58.3714 228.914 58.8857 228.95 59.4858 229.021C60.3429 229.15 60.9858 229.328 61.4144 229.557C61.6287 229.671 61.8858 229.871 62.1858 230.157C62.4715 230.457 62.6715 230.714 62.7858 230.928C62.9144 231.157 62.9787 231.493 62.9787 231.935C62.9501 232.421 62.8715 232.8 62.743 233.071C62.6001 233.357 62.343 233.643 61.9715 233.928C61.1572 234.543 59.9286 234.85 58.2857 234.85C57.1429 234.85 55.9714 234.671 54.7714 234.314C54.0714 234.085 53.5714 233.821 53.2714 233.521C52.9999 233.25 52.8642 232.821 52.8642 232.235C52.8642 231.85 52.8856 231.614 52.9285 231.528ZM56.9571 233.264C57.4714 233.307 57.9286 233.328 58.3286 233.328C59.1143 233.328 59.7286 233.25 60.1715 233.093C60.4429 232.993 60.6858 232.843 60.9001 232.643C61.1144 232.428 61.2215 232.214 61.2215 232C61.2215 231.643 61.1286 231.35 60.9429 231.121C60.7715 230.907 60.4215 230.721 59.8929 230.564C59.6643 230.478 58.95 230.435 57.75 230.435C57.3071 230.435 56.9857 230.45 56.7857 230.478L56.4857 230.543L56.1643 230.585C55.5071 230.714 55.0214 231.021 54.7071 231.507C54.5357 231.764 54.45 231.985 54.45 232.171C54.45 232.371 54.5285 232.55 54.6857 232.707C54.9714 232.964 55.7285 233.15 56.9571 233.264ZM61.8215 219.442C61.9072 219.442 62.0215 219.485 62.1644 219.571C62.3215 219.657 62.4072 219.792 62.4215 219.978C62.4644 220.335 62.493 220.907 62.5072 221.692C62.5358 222.692 62.5787 223.228 62.6358 223.3C62.7072 223.371 63.1072 223.407 63.8358 223.407C64.5644 223.407 65.0644 223.457 65.2502 223.557C65.4502 223.671 65.5502 223.9 65.5502 224.242C65.5502 224.414 65.5002 224.571 65.4002 224.714L65.2287 224.928L64.0073 224.907H63.7287C63.1001 224.878 62.7358 224.928 62.6358 225.057C62.5215 225.2 62.4644 225.664 62.4644 226.45V226.793C62.4644 227.564 62.4572 228.007 62.443 228.121C62.4144 228.293 62.3644 228.428 62.2929 228.528C62.1929 228.657 62.0001 228.721 61.7144 228.721C61.4144 228.721 61.2072 228.657 61.0929 228.528C60.9644 228.414 60.8786 228.178 60.8358 227.821C60.8072 227.493 60.8072 227.207 60.8358 226.964C60.8929 226.692 60.9286 225.521 60.9429 223.45C60.9858 221.735 61.0286 220.692 61.0715 220.321C61.1144 219.964 61.2429 219.721 61.4572 219.592C61.5858 219.521 61.7072 219.471 61.8215 219.442Z" fill="white"/>
<path d="M66.6638 230.5C66.8495 230.442 68.3424 230.392 71.1425 230.35C73.9568 230.278 75.3711 230.235 75.3854 230.221C75.414 230.192 75.5211 230.178 75.7069 230.178C75.9211 230.207 76.0783 230.235 76.1783 230.264C76.5783 230.378 76.8069 230.578 76.864 230.864V230.971C76.864 231.1 76.8354 231.221 76.7783 231.335C76.7069 231.507 76.5997 231.628 76.4569 231.7C76.2997 231.757 74.7854 231.792 71.9139 231.807C69.0853 231.821 67.5067 231.85 67.1781 231.892H67.0495C66.8352 231.892 66.6495 231.85 66.4924 231.764C66.2924 231.621 66.1924 231.435 66.1924 231.207C66.1924 230.835 66.3495 230.6 66.6638 230.5ZM67.821 222.399C67.9496 222.171 68.2138 221.885 68.6138 221.542C69.0281 221.171 69.2853 220.985 69.3853 220.985L69.7067 220.856C69.8639 220.785 70.0639 220.721 70.3067 220.664C70.5496 220.606 70.8282 220.578 71.1425 220.578C71.4568 220.578 71.7711 220.606 72.0425 220.664C72.6139 220.764 73.1139 220.949 73.5425 221.221C74.1425 221.621 74.5925 222.242 74.8925 223.085C75.064 223.599 75.1497 224.099 75.1497 224.585C75.1497 224.871 75.114 225.178 75.0425 225.507C74.7425 226.721 74.1782 227.571 73.3497 228.057C72.9782 228.271 72.6496 228.414 72.3639 228.485C72.0496 228.557 71.6496 228.592 71.1639 228.592C70.4639 228.592 69.8996 228.499 69.471 228.314C69.0281 228.142 68.5781 227.828 68.121 227.371C67.4638 226.714 67.1353 225.899 67.1353 224.928C67.1353 224.642 67.171 224.307 67.2424 223.921C67.3424 223.407 67.5353 222.899 67.821 222.399ZM69.021 226.042C69.3924 226.714 70.0853 227.078 71.0996 227.135C71.3853 227.149 71.5782 227.149 71.6782 227.135C71.8353 227.107 71.9925 227.057 72.1496 226.985C72.7496 226.714 73.1496 226.199 73.3497 225.442C73.4211 225.157 73.4568 224.899 73.4568 224.671C73.4568 224.442 73.4211 224.171 73.3497 223.857C73.2497 223.442 73.1211 223.114 72.9639 222.871C72.7782 222.642 72.5139 222.457 72.1711 222.314C71.8139 222.171 71.4568 222.099 71.0996 222.099C70.7853 222.099 70.5067 222.164 70.2639 222.292C69.6924 222.578 69.2924 222.985 69.0639 223.514C68.9781 223.671 68.921 223.842 68.8924 224.028C68.8639 224.228 68.8496 224.492 68.8496 224.821C68.8496 225.378 68.9067 225.785 69.021 226.042ZM78.8569 219.742C79.1855 219.742 79.3855 219.778 79.4569 219.849C79.5284 219.921 79.5641 222.321 79.5641 227.049V234.164L79.3283 234.357C79.1569 234.5 78.9998 234.571 78.8569 234.571C78.6855 234.571 78.4997 234.485 78.2997 234.314L78.064 234.1L77.9997 232.642C77.9712 231.985 77.9569 231.021 77.9569 229.75L77.9783 225.999C78.0069 222.385 78.0355 220.506 78.064 220.364C78.1497 220.006 78.2998 219.806 78.514 219.764C78.5712 219.749 78.6855 219.742 78.8569 219.742Z" fill="white"/>
<path d="M87.6006 227.156C87.6292 226.813 87.772 226.606 88.0292 226.535C88.2863 226.463 89.1863 226.421 90.7292 226.406H90.8149C92.6007 226.378 93.5293 226.342 93.6007 226.299C93.6721 226.228 93.715 225.899 93.7293 225.313C93.7293 224.928 93.7435 224.663 93.7721 224.521C93.8007 224.392 93.8579 224.285 93.9436 224.199C94.0721 224.071 94.2507 224.006 94.4793 224.006C94.7222 224.006 94.8936 224.035 94.9936 224.092C95.2507 224.221 95.3793 224.628 95.3793 225.313C95.3793 225.742 95.4079 226.021 95.465 226.149L95.5722 226.342L98.4008 226.385L99.6437 226.406C100.344 226.406 100.758 226.413 100.887 226.428C101.129 226.442 101.322 226.499 101.465 226.599C101.679 226.742 101.808 226.935 101.851 227.178V227.263C101.851 227.463 101.779 227.642 101.637 227.799L101.465 227.971L94.7579 227.949L91.865 227.928C90.2078 227.928 89.2363 227.921 88.9506 227.906C88.3077 227.892 87.9292 227.849 87.8149 227.778C87.7149 227.706 87.6506 227.642 87.622 227.585C87.6077 227.542 87.6006 227.406 87.6006 227.178V227.156ZM91.6507 219.249L94.6293 219.27L96.7079 219.292C97.8508 219.292 98.5437 219.299 98.7865 219.313C99.3722 219.328 99.7365 219.37 99.8794 219.442C100.179 219.556 100.365 219.72 100.437 219.935C100.451 219.963 100.458 220.013 100.458 220.085C100.458 220.228 100.379 220.399 100.222 220.599L99.9651 220.856L97.8008 220.792L96.365 220.77C95.865 220.77 95.5865 220.785 95.5293 220.813C95.3579 220.913 95.5007 221.128 95.9579 221.456L96.1079 221.563L97.1365 222.078L97.5436 222.27C98.2722 222.628 98.6794 222.806 98.7651 222.806L99.0222 222.913C99.2508 223.028 99.4865 223.128 99.7294 223.213C100.358 223.428 100.737 223.678 100.865 223.963C100.879 223.992 100.887 224.035 100.887 224.092C100.887 224.163 100.851 224.285 100.779 224.456C100.651 224.728 100.465 224.863 100.222 224.863C100.179 224.863 100.101 224.849 99.9865 224.821C99.8437 224.792 99.3937 224.621 98.6365 224.306L96.9008 223.599C96.4865 223.399 96.015 223.192 95.4864 222.978L94.6936 222.656L94.0721 223.021C93.9436 223.106 93.6364 223.285 93.1507 223.556C92.9793 223.642 92.6364 223.856 92.1221 224.199C91.0221 224.913 90.3649 225.271 90.1506 225.271C90.0078 225.271 89.8578 225.206 89.7006 225.078C89.5578 224.978 89.472 224.842 89.4435 224.671C89.372 224.371 89.472 224.099 89.7435 223.856C89.8721 223.728 90.1935 223.499 90.7078 223.171C91.2507 222.828 91.5506 222.656 91.6078 222.656C91.6507 222.656 91.8935 222.521 92.3364 222.249L93.1507 221.735C93.3078 221.62 93.4578 221.478 93.6007 221.306C93.7293 221.149 93.7935 221.049 93.7935 221.006C93.7935 220.835 93.515 220.749 92.9578 220.749C92.5435 220.749 91.9292 220.72 91.1149 220.663C90.1721 220.592 89.6363 220.549 89.5078 220.535C89.3792 220.506 89.2792 220.406 89.2078 220.235C89.1792 220.092 89.1649 219.999 89.1649 219.956C89.1649 219.885 89.1792 219.792 89.2078 219.678C89.322 219.463 89.422 219.342 89.5078 219.313C89.5935 219.27 90.3078 219.249 91.6507 219.249ZM89.9149 230.842C90.0006 230.614 90.2221 230.299 90.5792 229.899C90.9649 229.471 91.3364 229.156 91.6935 228.956C92.1221 228.742 92.615 228.585 93.1721 228.485C93.6293 228.399 94.065 228.356 94.4793 228.356C95.2793 228.356 96.0865 228.499 96.9008 228.785C98.1151 229.213 98.9151 229.835 99.3008 230.649C99.458 230.992 99.5365 231.371 99.5365 231.785C99.5365 232.199 99.5079 232.492 99.4508 232.664C99.3794 232.864 99.2294 233.114 99.0008 233.414C98.4722 234.142 97.5008 234.635 96.0865 234.892C95.7865 234.964 95.3936 234.999 94.9079 234.999C94.4221 234.999 94.0007 234.964 93.6007 234.892C92.615 234.735 91.8364 234.521 91.2649 234.249C90.9078 234.078 90.6364 233.914 90.4506 233.756C90.2792 233.628 90.1221 233.406 89.9792 233.092C89.822 232.735 89.7435 232.335 89.7435 231.892C89.7435 231.492 89.8006 231.142 89.9149 230.842ZM91.2864 231.956C91.2864 232.385 91.5507 232.706 92.0792 232.921C92.6078 233.135 93.3721 233.271 94.3721 233.328C94.8579 233.356 95.1793 233.371 95.3364 233.371C95.865 233.371 96.2579 233.328 96.515 233.242C96.9722 233.085 97.315 232.821 97.5436 232.449C97.6579 232.264 97.7151 232.049 97.7151 231.806C97.7151 231.606 97.6793 231.435 97.6079 231.292C97.3222 230.649 96.6722 230.213 95.6579 229.985C95.3007 229.913 94.9579 229.878 94.6293 229.878C93.715 229.878 92.9793 230.021 92.4221 230.306C91.8792 230.606 91.5221 231.021 91.3507 231.549C91.3078 231.692 91.2864 231.828 91.2864 231.956Z" fill="white"/>
<path d="M103.008 224.863C103.079 224.692 103.115 224.584 103.115 224.542C103.115 224.456 103.308 224.042 103.694 223.299C103.908 222.884 104.258 222.499 104.744 222.142C105.215 221.77 105.672 221.556 106.115 221.499C106.172 221.484 106.272 221.477 106.415 221.477C107.444 221.477 108.301 221.67 108.987 222.056C109.544 222.37 109.994 222.856 110.337 223.513C110.637 224.099 110.822 224.549 110.894 224.863C110.965 225.263 111.001 225.827 111.001 226.556C111.001 227.285 110.994 227.67 110.98 227.799C110.965 227.942 110.894 228.206 110.765 228.592C110.465 229.492 110.051 230.206 109.522 230.735C109.222 231.063 108.851 231.306 108.408 231.463C108.022 231.606 107.48 231.678 106.78 231.678C106.48 231.678 106.122 231.62 105.708 231.506C105.379 231.42 105.044 231.285 104.701 231.099C103.758 230.485 103.122 229.392 102.794 227.82C102.737 227.577 102.708 227.249 102.708 226.835C102.708 225.877 102.808 225.22 103.008 224.863ZM105.194 229.449C105.579 229.906 106.165 230.135 106.951 230.135C107.337 230.135 107.715 230.042 108.087 229.856C108.372 229.727 108.63 229.463 108.858 229.063C109.087 228.663 109.244 228.22 109.33 227.735C109.401 227.406 109.437 227.035 109.437 226.62C109.437 225.935 109.308 225.27 109.051 224.627C108.951 224.356 108.744 224.056 108.43 223.727C108.115 223.413 107.83 223.206 107.572 223.106C107.315 223.006 107.08 222.956 106.865 222.956C106.594 222.956 106.272 223.077 105.901 223.32C105.515 223.577 105.215 223.877 105.001 224.22C104.772 224.592 104.587 225.07 104.444 225.656C104.344 226.099 104.301 226.535 104.315 226.963C104.401 228.035 104.694 228.863 105.194 229.449ZM115.265 219.87H115.308C115.365 219.87 115.465 219.906 115.608 219.977C115.765 220.077 115.851 220.163 115.865 220.234C115.908 220.277 115.944 222.606 115.973 227.22L115.994 234.056L115.823 234.228C115.694 234.356 115.487 234.42 115.201 234.42C114.915 234.42 114.715 234.356 114.601 234.228C114.458 234.042 114.387 231.742 114.387 227.327V225.335L114.408 223.299C114.408 222.142 114.415 221.456 114.43 221.242C114.458 220.756 114.501 220.463 114.558 220.363C114.673 220.192 114.808 220.063 114.965 219.977C115.137 219.906 115.237 219.87 115.265 219.87Z" fill="white"/>
<path d="M118.93 221.714C119.102 221.642 119.43 221.599 119.916 221.585C120.373 221.557 121.681 221.535 123.838 221.521C124.338 221.507 124.931 221.499 125.616 221.499C126.131 221.499 126.438 221.507 126.538 221.521C126.866 221.549 127.109 221.599 127.266 221.671C127.524 221.785 127.688 221.949 127.759 222.164L127.781 222.292C127.781 222.464 127.702 222.628 127.545 222.785L127.309 222.999L125.381 223.021C123.523 223.021 122.823 223.071 123.281 223.171C123.309 223.185 123.352 223.192 123.409 223.192C123.709 223.235 124.038 223.328 124.395 223.471C124.838 223.642 125.131 223.785 125.273 223.899C125.516 224.071 125.709 224.257 125.852 224.457C126.323 225.071 126.559 225.764 126.559 226.535C126.559 226.935 126.495 227.307 126.366 227.65C126.181 228.135 125.873 228.557 125.445 228.914C124.845 229.414 124.173 229.664 123.431 229.664C123.031 229.664 122.552 229.585 121.995 229.428C121.252 229.242 120.673 228.978 120.259 228.635C119.988 228.392 119.773 228.092 119.616 227.735C119.445 227.364 119.359 227.014 119.359 226.685C119.359 225.957 119.695 225.214 120.366 224.457C121.009 223.728 121.738 223.307 122.552 223.192L122.788 223.128L122.231 223.085H122.209L120.13 223.021C119.559 223.021 119.173 223.007 118.973 222.978C118.83 222.949 118.723 222.907 118.652 222.849C118.538 222.735 118.48 222.599 118.48 222.442C118.48 222.328 118.502 222.221 118.545 222.121C118.616 221.907 118.745 221.771 118.93 221.714ZM122.895 219.378C124.195 219.378 124.895 219.385 124.995 219.399C125.195 219.442 125.338 219.549 125.423 219.721C125.481 219.821 125.509 219.928 125.509 220.042C125.509 220.257 125.395 220.449 125.166 220.621C125.095 220.692 124.959 220.742 124.759 220.771L124.245 220.792L123.281 220.771C122.209 220.771 121.523 220.749 121.223 220.707C120.923 220.664 120.695 220.557 120.538 220.385C120.381 220.228 120.302 220.099 120.302 219.999C120.302 219.914 120.359 219.792 120.473 219.635C120.573 219.521 120.688 219.449 120.816 219.421C120.988 219.392 121.681 219.378 122.895 219.378ZM123.045 227.928C123.759 227.928 124.288 227.75 124.631 227.392C124.816 227.178 124.909 226.899 124.909 226.557C124.909 226.299 124.859 226.078 124.759 225.892C124.516 225.421 124.138 225.107 123.623 224.949C123.366 224.878 123.145 224.842 122.959 224.842C122.445 224.842 121.995 225.035 121.609 225.421C121.166 225.821 120.981 226.314 121.052 226.9C121.123 227.585 121.788 227.928 123.045 227.928ZM121.181 230.714C121.181 230.628 121.202 230.557 121.245 230.5C121.402 230.3 121.781 230.171 122.381 230.114C122.981 230.042 124.288 229.978 126.302 229.921C128.074 229.864 129.216 229.835 129.731 229.835C130.045 229.864 130.245 229.921 130.331 230.007C130.531 230.15 130.659 230.364 130.716 230.65C130.759 230.921 130.781 231.542 130.781 232.514C130.781 233.385 130.774 233.9 130.759 234.057C130.745 234.257 130.702 234.435 130.631 234.592C130.531 234.764 130.466 234.857 130.438 234.871C130.352 234.9 130.231 234.914 130.074 234.914C129.816 234.914 129.645 234.892 129.559 234.85C129.459 234.807 129.366 234.714 129.281 234.571C129.181 234.371 129.131 234.05 129.131 233.607C129.131 233.307 129.109 232.914 129.066 232.428L129.024 231.4L121.673 231.464L121.416 231.228C121.288 231.1 121.216 230.971 121.202 230.842C121.188 230.814 121.181 230.771 121.181 230.714ZM129.152 224.028C129.195 222.285 129.238 221.228 129.281 220.857C129.295 220.628 129.324 220.407 129.366 220.192C129.381 220.121 129.452 220.021 129.581 219.892C129.738 219.749 129.924 219.678 130.138 219.678C130.252 219.678 130.352 219.692 130.438 219.721C130.495 219.735 130.559 219.807 130.631 219.935C130.688 220.035 130.731 220.192 130.759 220.407C130.774 220.549 130.781 221.049 130.781 221.907C130.781 223.035 130.816 223.635 130.888 223.707C130.945 223.764 131.216 223.792 131.702 223.792C132.445 223.792 132.952 223.857 133.224 223.985C133.495 224.114 133.631 224.342 133.631 224.671C133.631 224.899 133.566 225.092 133.438 225.249C133.338 225.321 133.231 225.371 133.116 225.399L132.774 225.421L132.109 225.399C131.352 225.399 130.924 225.435 130.824 225.507C130.766 225.549 130.724 225.657 130.695 225.828C130.666 226.028 130.645 226.485 130.631 227.2C130.616 227.914 130.595 228.371 130.566 228.571C130.552 228.728 130.502 228.878 130.416 229.021C130.288 229.221 130.116 229.321 129.902 229.321C129.631 229.321 129.409 229.207 129.238 228.978C129.124 228.821 129.066 228.485 129.066 227.971C129.066 226.9 129.095 225.585 129.152 224.028Z" fill="white"/>
<path d="M67.1217 156.266L69.2968 160.259C69.0504 160.373 68.8682 160.638 68.9325 160.941C69.0611 161.402 69.4718 161.716 69.7289 162.109C70.3932 163.031 71.0325 163.931 71.7254 164.838C72.3933 165.573 73.0861 166.281 73.6754 167.084C74.4076 167.866 76.0433 170.488 77.0826 168.824C77.5612 167.356 76.9898 165.798 77.0612 164.298C77.2184 162.548 76.2576 160.977 75.8255 159.327C75.6576 158.441 75.4755 157.563 75.1147 156.734C74.8969 156.248 74.779 155.748 74.679 155.209C74.4147 154.53 73.6969 154.602 73.3862 155.023L72.0504 153.823L67.1182 156.266H67.1217Z" fill="#E293B3"/>
<path d="M57.697 134.594C58.947 138.09 61.4935 140.954 62.8757 144.39C63.0543 144.804 63.1078 145.276 63.3614 145.654C63.5007 145.837 63.74 145.837 63.9222 145.74L65.09 149.533L72.0652 149.201L78.2331 146.508L80.7653 142.047C81.1582 142.069 81.5118 141.99 81.6439 141.483C81.7868 140.426 80.4546 140.536 79.7439 140.472C79.0796 140.454 78.4117 140.419 77.7653 140.247C75.5366 139.64 73.5366 138.59 71.358 137.801C70.0008 137.29 68.5794 136.979 67.2329 136.44C65.6579 135.761 64.0293 135.244 62.365 134.84C61.3649 134.583 60.2828 134.165 59.2899 133.79C58.5578 133.44 57.5934 133.619 57.7006 134.601L57.697 134.594Z" fill="#E293B3"/>
<path d="M46.436 153.616C47.9146 154.237 49.5182 154.491 51.0289 155.041C53.329 155.827 55.6219 156.641 57.904 157.484C59.2934 158.055 60.6255 158.766 62.047 159.252C64.2828 160.012 66.6114 160.462 68.9114 160.987C68.9757 160.998 69.0435 161.009 69.1114 161.02C69.1257 161.08 69.1471 161.137 69.19 161.187C69.3543 161.384 69.6293 161.341 69.8043 161.187C70.8079 160.634 71.5472 159.737 72.1257 158.762C73.3543 156.702 74.6115 154.655 75.8865 152.623C77.0616 150.598 78.1937 148.555 79.483 146.601C80.3295 145.176 80.9902 143.651 81.8045 142.209C82.2331 142.016 82.5652 141.723 82.3367 141.155C82.1402 140.701 81.5831 140.644 81.1902 140.866C80.8902 140.984 80.4402 141.144 80.0437 141.233C78.6259 141.566 77.1115 141.737 75.6722 142.073C74.4151 142.391 73.1829 142.809 71.9186 143.112C70.2971 143.541 68.6043 143.759 66.9721 144.159C65.3542 144.573 63.672 145.255 62.0648 145.776C60.9327 146.162 59.7469 146.334 58.5683 146.526C56.8469 146.837 55.179 147.376 53.4861 147.801C51.4182 148.237 49.3432 148.919 47.4467 149.887C45.1467 150.948 42.7538 152.127 46.4324 153.616H46.436Z" fill="#FCB1CE"/>
<path d="M93.5146 155.285C93.5146 155.242 93.5504 155.206 93.5932 155.206C93.6361 155.206 93.6718 155.242 93.6718 155.285C93.6718 155.328 93.6361 155.363 93.5932 155.363C93.5504 155.363 93.5146 155.328 93.5146 155.285Z" fill="white"/>
<path d="M98.4893 156.556L94.2035 155.042C94.3106 154.788 94.2677 154.47 94.0177 154.292C93.6142 154.035 93.0963 154.074 92.6463 153.956C91.5356 153.713 90.457 153.474 89.3355 153.263C88.3498 153.163 87.3605 153.102 86.3855 152.899C85.3176 152.806 82.3497 151.956 82.689 153.885C83.314 155.295 84.7818 156.07 85.7319 157.235C86.7855 158.642 88.5533 159.167 89.9748 160.103C90.6891 160.649 91.4141 161.181 92.2356 161.553C92.7213 161.767 93.1427 162.06 93.5785 162.395C94.2285 162.724 94.7142 162.192 94.6642 161.67H96.4571L98.4893 156.556Z" fill="#EDD48E"/>
<path d="M119.997 166.36C116.729 164.596 112.918 164.171 109.593 162.542C109.182 162.353 108.825 162.039 108.386 161.928C108.161 161.889 107.982 162.046 107.915 162.239L104.511 160.199L99.5465 165.11L96.7607 171.239L97.8643 176.25C97.5572 176.496 97.35 176.792 97.5893 177.257C98.1929 178.139 99.1072 177.167 99.6787 176.735C100.186 176.303 100.704 175.882 101.3 175.582C103.361 174.542 105.55 173.985 107.7 173.114C109.05 172.585 110.315 171.864 111.679 171.367C113.304 170.817 114.861 170.114 116.368 169.299C117.286 168.821 118.368 168.406 119.354 168.024C120.129 167.796 120.729 167.017 119.993 166.36H119.997Z" fill="#EDD48E"/>
<path d="M115.64 144.688C114.122 145.216 112.765 146.098 111.272 146.698C109.036 147.652 106.786 148.581 104.529 149.481C103.115 149.984 101.651 150.345 100.265 150.938C98.0933 151.87 96.0611 153.091 94.0004 154.241C93.9468 154.277 93.8897 154.313 93.829 154.352C93.779 154.316 93.7254 154.288 93.6575 154.281C93.4039 154.245 93.2289 154.459 93.2039 154.695C92.8254 155.777 92.8789 156.938 93.1004 158.049C93.5647 160.402 94.0004 162.763 94.4111 165.127C94.8933 167.417 95.4147 169.695 95.7647 172.01C96.0897 173.635 96.6183 175.21 96.9754 176.828C96.7862 177.26 96.7326 177.695 97.2826 177.97C97.7326 178.174 98.1826 177.845 98.329 177.42C98.4719 177.135 98.7005 176.71 98.9326 176.378C99.7648 175.181 100.776 174.042 101.618 172.828C102.34 171.749 102.976 170.613 103.711 169.545C104.629 168.142 105.743 166.845 106.686 165.46C107.611 164.07 108.408 162.438 109.254 160.974C109.836 159.927 110.608 159.009 111.351 158.077C112.422 156.695 113.301 155.177 114.276 153.731C115.522 152.027 116.608 150.127 117.372 148.141C118.372 145.813 119.362 143.338 115.629 144.691L115.64 144.688Z" fill="#FFEBA6"/>
<path d="M93.0057 117.558C93.02 117.518 93.0629 117.497 93.1022 117.511C93.1415 117.526 93.1629 117.568 93.1522 117.608C93.1415 117.647 93.095 117.668 93.0558 117.658C93.0165 117.647 92.995 117.601 93.0093 117.561L93.0057 117.558Z" fill="white"/>
<path d="M97.3164 120.353L93.7377 117.549C93.9199 117.345 93.9806 117.031 93.802 116.778C93.502 116.406 92.9984 116.278 92.6091 116.02C91.6341 115.435 90.6912 114.863 89.6948 114.303C88.7912 113.892 87.8733 113.517 87.0162 113.013C86.034 112.585 83.4947 110.827 83.1982 112.763C83.3411 114.299 84.4804 115.503 85.009 116.91C85.559 118.578 87.0626 119.642 88.109 120.985C88.6126 121.731 89.1269 122.467 89.7877 123.085C90.1805 123.442 90.4841 123.856 90.7877 124.313C91.2984 124.831 91.9305 124.485 92.0484 123.974L93.7484 124.549L97.3128 120.353H97.3164Z" fill="#C6C685"/>
<path d="M114.553 136.524C112.021 133.809 108.549 132.184 105.921 129.577C105.592 129.266 105.356 128.856 104.974 128.609C104.774 128.498 104.553 128.591 104.424 128.752L101.853 125.73L95.5775 128.795L90.9774 133.709L90.4203 138.809C90.0489 138.945 89.756 139.159 89.8381 139.674C90.1274 140.702 91.306 140.074 91.9846 139.849C92.6025 139.602 93.2275 139.37 93.8918 139.274C96.1775 138.949 98.4312 139.12 100.745 138.984C102.196 138.916 103.624 138.638 105.074 138.602C106.788 138.602 108.488 138.434 110.178 138.145C111.199 137.988 112.36 137.941 113.417 137.891C114.228 137.924 115.042 137.377 114.556 136.52L114.553 136.524Z" fill="#C6C685"/>
<path d="M117.364 114.6C115.76 114.614 114.185 115.018 112.581 115.111C110.156 115.3 107.728 115.461 105.303 115.586C103.803 115.611 102.295 115.482 100.799 115.6C98.4418 115.786 96.1274 116.296 93.806 116.725C93.7453 116.739 93.6774 116.757 93.6095 116.775C93.5738 116.725 93.531 116.682 93.4703 116.65C93.2417 116.532 93.006 116.682 92.9059 116.896C92.2024 117.803 91.8809 118.918 91.7345 120.039C91.4202 122.418 91.0773 124.793 90.7095 127.164C90.4345 129.486 90.1987 131.811 89.7916 134.118C89.5773 135.761 89.5737 137.422 89.3987 139.072C89.0809 139.418 88.8916 139.818 89.3273 140.25C89.688 140.586 90.2202 140.422 90.4952 140.061C90.7238 139.836 91.0738 139.507 91.4023 139.268C92.5738 138.4 93.8952 137.643 95.0846 136.765C96.1131 135.975 97.081 135.104 98.1203 134.325C99.4418 133.289 100.91 132.418 102.249 131.407C103.57 130.386 104.849 129.093 106.117 127.979C107.006 127.175 108.028 126.55 109.031 125.904C110.488 124.939 111.806 123.782 113.192 122.721C114.917 121.504 116.556 120.053 117.914 118.418C119.606 116.532 121.339 114.503 117.367 114.593L117.364 114.6Z" fill="#D8D9A7"/>
<path d="M130.379 174.008C130.279 173.083 130.218 172.154 130.186 171.222C130.125 170.558 130.168 169.897 130.197 169.233C130.222 168.472 130.175 167.787 130.247 167.008C130.325 166.283 130.386 165.554 130.311 164.826C130.3 164.486 130.365 164.151 130.336 163.811C130.293 163.476 130.193 163.151 130.058 162.84C130.04 162.797 130.007 162.761 129.975 162.729C129.997 161.972 130.033 161.215 130.058 160.454C130.072 157.89 130.136 155.326 130.118 152.758C130.14 148.758 129.715 144.768 129.786 140.768C129.725 136.993 129.968 133.222 129.925 129.45C129.886 127.243 129.783 125.036 129.811 122.829C129.811 120.093 129.893 117.357 129.858 114.621C129.868 113.011 129.786 111.403 129.747 109.796C129.715 108.203 129.765 106.614 129.772 105.021C129.793 101.921 129.754 98.821 129.94 95.728C130.004 92.9423 129.597 90.1708 129.675 87.3814C129.708 85.5385 129.757 83.6957 129.861 81.8563C129.872 79.8099 129.918 77.7491 129.711 75.7134C129.582 74.7312 129.554 73.7348 129.404 72.7526C129.315 71.7954 129.261 70.8383 129 69.9097C128.904 69.4168 128.85 68.9132 128.743 68.4204C128.643 67.9596 128.486 67.5132 128.39 67.0489C128.182 66.0382 127.886 64.9846 127.475 64.0274C127.272 63.4953 127.115 62.9417 126.832 62.4274C126.472 61.8595 126.215 61.2417 125.943 60.6309C125.472 59.7059 124.807 58.8952 124.293 57.9916C124.025 57.5309 123.69 57.113 123.297 56.7523C122.804 56.238 122.329 55.713 121.825 55.213C121.382 54.7022 120.922 54.213 120.382 53.8022C119.761 53.2272 119.218 52.5736 118.539 52.0593C117.872 51.5129 117.154 51.0343 116.411 50.5986C115.868 50.1986 115.339 49.7772 114.747 49.4522C113.539 48.8307 112.246 48.3878 111.021 47.8021C110.332 47.42 109.536 47.3343 108.829 47.0057C108.45 46.8521 108.057 46.7521 107.668 46.6342C107.175 46.4485 106.657 46.3414 106.132 46.3485C106.128 46.32 106.114 46.2914 106.103 46.2628C106.103 46.2592 106.103 46.2557 106.103 46.2521C106.103 46.2521 106.103 46.2521 106.1 46.2521C106.057 46.1628 105.978 46.0842 105.846 46.0414C105.853 45.9414 105.857 45.8378 105.882 45.7271C106.289 45.5092 106.696 45.0806 106.571 44.5735L106.536 44.5235C106.307 44.352 106.128 44.127 106.028 43.8592C106.018 43.852 106.011 43.8413 106 43.8342L106.014 43.8235C106.003 43.7949 105.996 43.7628 105.986 43.7342C105.986 43.7342 105.986 43.7306 105.986 43.727C105.957 43.6556 105.932 43.5806 105.918 43.502C105.896 43.502 105.875 43.502 105.853 43.502C105.853 43.4985 105.857 43.4949 105.857 43.4913C105.857 43.4878 105.857 43.4842 105.857 43.4806C105.914 43.4806 105.968 43.4735 106.021 43.452C106.057 43.4377 106.075 43.4092 106.103 43.3877C106.614 43.4556 107.125 43.4985 107.639 43.5342C107.804 43.5342 107.971 43.5449 108.136 43.5342C108.346 43.5092 108.454 43.3413 108.457 43.1663C109.586 42.4163 109.454 39.1055 109.486 38.0591C109.486 37.9805 109.486 37.9019 109.486 37.8269C109.532 37.7841 109.579 37.7377 109.604 37.6627C109.675 37.4341 109.693 37.1948 109.686 36.9591C109.7 36.1626 109.711 35.3626 109.643 34.5697C109.686 34.5019 109.714 34.4197 109.704 34.3197C109.689 33.9483 109.454 33.6626 109.264 33.3661C109.125 33.0697 109.064 32.7268 108.839 32.4768C108.518 32.1375 108.032 32.3768 107.629 32.3911C106.961 32.4125 106.289 32.4233 105.625 32.4876C104.186 32.5233 102.746 32.5125 101.307 32.5375C100.371 32.5268 99.4355 32.5483 98.5069 32.6626C97.9283 32.6911 97.3498 32.6554 96.7712 32.6376C95.5676 32.6161 94.3675 32.6697 93.164 32.6518C92.1925 32.6268 91.2211 32.5697 90.246 32.5911C89.2996 32.609 88.3531 32.5268 87.4067 32.5375C85.8531 32.5054 84.3067 32.6911 82.7602 32.8018C80.3637 32.8768 77.9601 32.759 75.5636 32.8233C74.1708 32.9161 72.7743 32.8911 71.3778 32.9018C70.0707 32.9304 68.7671 33.0804 67.4599 32.9768C66.4027 32.8768 65.342 32.9447 64.2813 32.8697C63.367 32.8304 62.4741 32.5411 61.5562 32.6947C61.2598 32.7304 60.9705 32.7947 60.6705 32.8161C59.6098 32.784 59.2705 32.9697 59.2919 34.084C59.2919 34.4233 59.2919 34.7626 59.2848 35.1019C59.274 35.1019 59.2598 35.1019 59.249 35.1019C59.2598 35.7162 59.249 36.3305 59.2633 36.9448C59.274 37.1341 59.2812 37.3305 59.2955 37.5269C59.2419 38.3162 59.1455 39.1055 59.2026 39.902C59.2383 40.8806 59.2312 41.8627 59.3312 42.8377C59.3919 43.1949 59.2705 44.0413 59.5848 44.2413C59.5848 44.2413 59.5919 44.2413 59.5955 44.2413C59.5955 44.3199 59.6312 44.3985 59.6991 44.4485C60.0384 44.6128 60.4526 44.5449 60.8205 44.5878C61.0955 44.5878 61.3705 44.5985 61.6455 44.6092C61.4455 44.8449 61.3491 45.1271 61.5562 45.4521C61.7455 45.7164 62.0277 45.8985 62.2491 46.1342C62.2384 46.1485 62.2312 46.1592 62.2205 46.1735C61.9241 46.2485 61.2491 46.3949 60.9848 46.695C60.8776 46.7271 60.7741 46.7557 60.6848 46.7628C59.8169 46.9092 58.8598 47.0807 58.024 47.4128C56.8061 47.9414 55.6883 48.57 54.449 49.0986C53.4739 49.5914 52.4382 49.9593 51.4703 50.4558C50.081 51.2701 48.9738 52.4665 47.756 53.5022C47.2202 53.9915 46.6631 54.4665 46.2202 55.0451C45.6131 55.8951 44.9595 56.6844 44.263 57.4666C43.3809 58.4988 43.0487 59.8488 42.2952 60.9631C41.6416 61.9488 41.1594 63.0381 40.6201 64.0917C40.3165 64.6846 40.0808 65.3096 39.9023 65.9489C39.4272 67.6454 39.1237 69.3882 38.7415 71.1061C38.5629 71.8704 38.4058 72.6454 38.3344 73.4276C38.2844 74.1169 38.1344 74.7919 37.9879 75.4633C37.7951 76.4384 37.8201 77.4313 37.7844 78.4206C37.6558 79.8099 37.7594 81.1992 37.7451 82.5885C37.7451 82.7063 37.8022 82.8063 37.8879 82.8778C37.8665 82.8992 37.8522 82.9278 37.8594 82.9599C37.6665 83.8242 37.7344 84.7314 37.7272 85.6171C37.7701 88.1243 37.8415 90.6315 37.8094 93.1387C37.7951 94.5173 37.7451 95.8959 37.6879 97.2709C37.6343 99.6602 37.6308 102.05 37.5986 104.442C37.6308 106.818 37.7558 109.193 37.8129 111.568C37.8772 114.989 37.9022 118.414 37.9344 121.836C38.0415 125.271 38.1772 128.711 38.1915 132.15C38.1808 141.982 38.1379 151.815 38.3236 161.644C38.3415 165.594 38.3237 169.544 38.3308 173.494C38.2808 176.626 38.4272 179.783 39.1094 182.848C39.3308 183.662 39.6737 184.458 40.1987 185.123C40.9416 186.101 41.5523 187.19 42.4773 188.019C44.0488 189.483 45.4416 189.591 47.4345 189.755C48.5346 190.066 49.6631 190.212 50.8025 190.301C53.1846 190.587 55.5847 190.598 57.9776 190.548C59.7955 190.562 61.6562 190.548 63.4813 190.548C64.9849 190.558 66.4706 190.598 67.9778 190.591C69.7635 190.591 71.5421 190.43 73.3279 190.376C75.4386 190.305 77.5494 190.362 79.6601 190.355C80.9994 190.358 82.3352 190.298 83.6745 190.262C87.3817 190.287 91.0889 190.416 94.7961 190.544C97.3212 190.594 99.8427 190.476 102.368 190.448C104.053 190.462 105.736 190.53 107.418 190.562C108.993 190.601 110.55 190.555 112.129 190.562C114.947 190.565 117.786 190.533 120.557 189.973C121.293 189.776 122.054 189.651 122.772 189.391C123.443 189.066 124.179 188.887 124.847 188.548C125.454 188.155 125.932 187.59 126.5 187.144C127.068 186.68 127.59 186.148 127.918 185.487C128.207 184.948 128.547 184.387 128.811 183.808C129.022 183.365 129.186 182.901 129.429 182.473C129.675 182.076 129.893 181.662 129.975 181.197C130.093 180.608 130.05 180.005 130.118 179.412C130.311 178.347 130.418 177.269 130.393 176.183C130.393 175.476 130.436 174.719 130.393 173.994L130.379 174.008ZM60.0241 43.902C60.0241 43.877 60.0312 43.8485 60.0312 43.8271C60.1026 43.077 60.0169 42.3235 60.0026 41.5699C60.0026 40.5877 59.9241 39.6055 59.9669 38.6234C59.9919 38.2948 60.0312 37.9626 60.0562 37.6341C60.0241 37.6341 59.9919 37.6341 59.9598 37.6305C60.0455 36.9055 60.0276 35.8555 60.0098 35.1519C60.0098 35.1519 60.0098 35.1519 60.0062 35.1519C60.0562 34.5519 60.0169 33.8411 60.0919 33.6126C60.7491 33.6197 61.3884 33.4876 62.0384 33.4268C62.3527 33.3983 62.667 33.4411 62.9777 33.4983C64.2956 33.7411 65.6242 33.6554 66.9492 33.7162C67.6921 33.7804 68.4921 33.8019 69.2457 33.7769C70.9171 33.6483 72.5886 33.6804 74.2636 33.6626C75.1886 33.6054 76.1172 33.5804 77.0458 33.5876C78.7637 33.559 80.4816 33.6197 82.1995 33.6054C83.3709 33.559 84.5317 33.4233 85.7031 33.3447C86.9174 33.2804 88.1353 33.3197 89.3532 33.3626C91.2175 33.3376 93.0818 33.4661 94.9461 33.4161C96.4676 33.3483 97.9962 33.5483 99.5105 33.3447C101.55 33.2733 103.593 33.3197 105.636 33.2626C106.529 33.159 107.432 33.2304 108.318 33.0804C108.429 33.334 108.5 33.6054 108.643 33.8447C108.7 33.934 108.771 34.0197 108.829 34.1126C108.825 34.1126 108.818 34.1126 108.814 34.1126C108.821 34.1876 108.829 34.2626 108.836 34.3376C108.918 34.959 108.993 35.584 108.925 36.209C108.911 36.3412 108.911 36.4698 108.911 36.6055C108.832 36.6055 108.754 36.5983 108.671 36.5983C108.671 36.6126 108.675 36.6305 108.679 36.6448C108.707 36.7733 108.729 36.9019 108.743 37.0305C108.732 37.0269 108.718 37.0305 108.707 37.0233C108.696 38.0876 108.714 39.152 108.664 40.2163C108.571 41.0734 108.511 41.9913 108.043 42.7413L107.954 42.7877C107.4 42.7842 106.846 42.7199 106.296 42.777C106.25 42.7877 106.182 42.7949 106.107 42.802C106.089 42.7877 106.078 42.7627 106.057 42.7485C105.786 42.627 105.471 42.7127 105.182 42.6877C104.503 42.6735 103.825 42.7056 103.153 42.8056C100.682 42.9092 98.2069 42.9449 95.7319 42.9806C93.7318 43.1413 91.7282 43.1663 89.7211 43.2342C86.8817 43.2485 84.0424 43.1949 81.203 43.227C80.1137 43.2806 79.0208 43.277 77.9351 43.3377C76.8101 43.4306 75.6851 43.4342 74.56 43.4592C72.9672 43.5842 71.36 43.5342 69.7671 43.6949C68.9171 43.7592 68.0706 43.8378 67.2242 43.9092C65.842 43.9592 64.4563 43.9092 63.0777 43.8485C62.9277 43.8556 62.7741 43.877 62.6241 43.8985C62.0777 43.8699 61.5312 43.8235 60.9848 43.852C60.6741 43.8806 60.3312 43.8449 60.0205 43.902H60.0241ZM129.529 178.162C129.461 178.69 129.336 179.215 129.311 179.751C129.3 180.233 129.297 180.722 129.186 181.194C129.061 181.687 128.729 182.083 128.525 182.54C128.425 182.762 128.332 182.987 128.236 183.208C127.843 184.062 127.4 184.898 126.89 185.683C126.497 186.194 125.965 186.573 125.49 187.001C125.147 187.283 124.854 187.626 124.482 187.873C123.868 188.18 123.19 188.344 122.568 188.644C119.464 189.69 116.147 189.765 112.896 189.805C111.239 189.78 109.589 189.83 107.929 189.805C105.003 189.744 102.078 189.612 99.1534 189.748C95.839 189.862 92.5282 189.716 89.2175 189.576C86.9603 189.569 84.6995 189.448 82.4423 189.537C79.3709 189.658 76.2851 189.516 73.21 189.616C71.6243 189.669 70.0385 189.79 68.4528 189.826C66.6456 189.84 64.8384 189.787 63.0312 189.783C60.1669 189.78 57.3062 189.805 54.4347 189.794C52.2632 189.726 50.1096 189.469 47.9524 189.244C47.9024 189.112 47.7845 189.005 47.6024 189.005C46.5274 188.88 45.3845 188.883 44.388 188.419C43.1023 187.805 42.1844 186.683 41.4166 185.515C41.1558 185.123 40.8666 184.751 40.5844 184.369C40.1665 183.712 39.8951 182.976 39.7415 182.215C39.3808 180.251 39.1451 178.258 39.0915 176.262C39.0737 171.454 39.1022 166.644 39.0808 161.836C38.9094 152.472 38.9272 143.107 38.9487 133.739C38.9701 129.829 38.8237 125.921 38.6951 122.014C38.6701 119.021 38.6272 116.028 38.6022 113.035C38.5522 109.293 38.2665 105.553 38.3879 101.81C38.4094 99.4424 38.4272 97.0745 38.5379 94.7066C38.5987 92.2673 38.5737 89.8279 38.4915 87.3922C38.4808 86.3421 38.4058 85.2921 38.3772 84.2421C38.3629 83.9207 38.3629 83.5956 38.2772 83.2814C38.2415 83.1528 38.1629 82.9742 38.0236 82.9492C38.0558 82.9564 38.0844 82.9671 38.1165 82.9671H38.1236C38.3272 82.9671 38.4987 82.7849 38.4987 82.5849C38.5237 81.9742 38.4879 81.3599 38.4737 80.7492C38.4558 79.9099 38.4915 79.0706 38.5522 78.2313C38.5665 77.2955 38.5737 76.3527 38.7665 75.4312C39.0522 74.3741 39.0772 73.2812 39.2772 72.2097C39.7951 69.9918 40.1308 67.7275 40.8201 65.5524C41.4594 63.9881 42.2273 62.4631 43.1416 61.0416C43.6702 60.1738 43.9773 59.1916 44.5452 58.3452C45.0202 57.6702 45.6274 57.1059 46.1167 56.438C46.4417 56.013 46.7452 55.5701 47.0988 55.1666C47.6274 54.5987 48.2238 54.0951 48.7953 53.5737C49.656 52.8451 50.4489 52.0379 51.3775 51.3986C52.0096 50.9522 52.7453 50.6986 53.4489 50.3879C54.1025 50.095 54.7454 49.7807 55.399 49.4879C56.7204 48.9343 57.9312 48.0986 59.3419 47.7878C60.0955 47.5735 60.8991 47.5485 61.617 47.2271C61.7098 47.1878 61.9312 47.0914 62.1098 46.9735C62.2241 46.9485 62.3384 46.9235 62.4455 46.8878C62.5455 46.8878 62.6455 46.8521 62.717 46.7771C62.7527 46.7414 62.7705 46.7021 62.7848 46.6592C62.9277 46.495 63.0277 46.2914 63.0205 46.0771C62.9991 45.6092 62.5062 45.3771 62.2277 45.0628C62.4027 44.9199 62.6134 44.8056 62.7777 44.6449C62.8455 44.6449 62.9134 44.6521 62.9848 44.6556C63.192 44.6449 63.4348 44.6985 63.6098 44.5699C64.3027 44.6378 64.9956 44.6735 65.6956 44.6628C67.4456 44.7199 69.1814 44.4521 70.9278 44.3556C71.7707 44.3021 72.6671 44.2949 73.5279 44.2735C74.2565 44.2271 74.9743 44.1699 75.7136 44.1842C76.9494 44.1842 78.1815 44.027 79.4208 44.0306C82.0566 43.9128 84.696 43.9842 87.3317 43.9699C89.0496 44.0092 90.7675 43.927 92.4854 43.9056C93.6997 43.8842 94.8997 43.7556 96.114 43.7092C97.9533 43.6806 99.7962 43.702 101.632 43.5949C102.443 43.552 103.253 43.5806 104.057 43.4485C104.432 43.4306 104.811 43.4306 105.186 43.4306C105.161 43.4949 105.168 43.552 105.189 43.602C105.086 43.7985 105.068 44.0163 105.261 44.2163C105.453 44.3878 105.675 44.5413 105.8 44.7771C105.661 45.0521 105.268 45.0878 105.171 45.4057C105.057 45.6842 105.086 45.9985 105.046 46.2949C105.039 46.4485 105.118 46.6092 105.253 46.6807C105.303 46.7164 105.361 46.7235 105.418 46.7307C105.486 46.8057 105.578 46.8557 105.682 46.8628C105.703 46.8735 105.721 46.8878 105.743 46.8985C106.025 47.0414 106.346 47.0414 106.65 47.1021C107.189 47.2378 107.711 47.445 108.246 47.595C108.85 47.845 109.461 48.0593 110.093 48.2236C111.404 48.8164 112.732 49.3807 114.054 49.9486C114.718 50.2736 115.3 50.7236 115.893 51.17C116.222 51.3986 116.582 51.5772 116.911 51.8022C117.497 52.1986 118.057 52.6308 118.586 53.0986C119.068 53.5308 119.475 54.0487 119.975 54.463C120.597 54.9237 121.011 55.4844 121.568 56.0451C122.093 56.5773 122.59 57.1416 123.125 57.6666C123.572 58.1988 123.879 58.8273 124.272 59.3952C124.572 59.8845 124.932 60.3381 125.197 60.8524C125.5 61.5452 125.804 62.2345 126.2 62.8774C126.536 63.5953 126.761 64.3596 127.065 65.0917C127.365 65.9489 127.543 66.8025 127.75 67.6882C127.982 68.4132 128.093 69.1668 128.215 69.9132C128.411 70.7276 128.554 71.5526 128.586 72.3919C128.697 73.3097 128.804 74.2241 128.868 75.1455C128.99 76.0848 129.072 77.0241 129.068 77.9705C129.111 79.467 129.129 80.967 129.061 82.4635C128.979 83.5278 128.975 84.5957 128.947 85.6635C128.8 88.4886 129.018 91.3101 129.172 94.128C129.222 95.9245 129.029 97.7173 129.025 99.5138C129.047 103.489 128.897 107.464 129.025 111.435C129.211 116.375 128.961 121.314 129.068 126.254C129.186 128.964 129.193 131.679 129.086 134.393C129.018 137.025 129 139.661 129.022 142.293C129.022 145.325 129.297 148.354 129.35 151.386C129.357 155.204 129.347 159.022 129.204 162.84C129.204 162.972 129.275 163.083 129.379 163.151C129.44 163.404 129.604 163.69 129.579 163.933C129.5 164.622 129.615 165.311 129.565 165.997C129.45 167.008 129.429 167.997 129.436 169.015C129.422 169.597 129.365 170.176 129.393 170.758C129.443 171.894 129.504 173.026 129.618 174.158C129.632 175.487 129.654 176.822 129.525 178.144L129.529 178.162Z" fill="white"/>
<path d="M108.378 32.2978C108.55 32.2978 108.707 32.3407 108.839 32.4764C109.064 32.7264 109.125 33.0693 109.264 33.3657C109.453 33.6657 109.689 33.9479 109.703 34.3193C109.714 34.4229 109.686 34.5014 109.643 34.5693C109.711 35.3622 109.696 36.1622 109.686 36.9586C109.693 37.1944 109.675 37.4337 109.603 37.6622C109.578 37.7372 109.532 37.7836 109.486 37.8265C109.486 37.9051 109.486 37.9837 109.486 38.0587C109.453 39.1051 109.582 42.4159 108.457 43.1659C108.453 43.3373 108.346 43.5088 108.136 43.5338C108.071 43.5373 108.003 43.5409 107.939 43.5409C107.839 43.5409 107.739 43.5373 107.639 43.5373C107.128 43.5016 106.614 43.4588 106.103 43.3909C106.075 43.4123 106.057 43.4409 106.021 43.4552C105.975 43.4766 105.925 43.4838 105.875 43.4838C105.868 43.4838 105.861 43.4838 105.853 43.4838C105.853 43.4873 105.853 43.4909 105.853 43.4945C105.853 43.498 105.85 43.5016 105.85 43.5052C105.871 43.5052 105.893 43.5052 105.914 43.5052C105.928 43.5838 105.95 43.6588 105.982 43.7302C105.982 43.7302 105.982 43.7338 105.982 43.7374C105.989 43.7695 106 43.7981 106.011 43.8266L105.996 43.8373C105.996 43.8373 106.014 43.8552 106.025 43.8623C106.125 44.1302 106.303 44.3552 106.532 44.5266L106.568 44.5766C106.696 45.0838 106.286 45.5124 105.878 45.7302C105.857 45.8409 105.85 45.9409 105.843 46.0445C105.975 46.0874 106.053 46.1624 106.096 46.2553C106.096 46.2553 106.096 46.2553 106.1 46.2553C106.1 46.2588 106.1 46.2624 106.1 46.266C106.111 46.2945 106.125 46.3195 106.128 46.3517C106.143 46.3517 106.153 46.3517 106.164 46.3517C106.678 46.3517 107.182 46.4588 107.664 46.6374C108.053 46.7517 108.446 46.8553 108.825 47.0088C109.536 47.3374 110.332 47.4231 111.018 47.8053C112.243 48.391 113.536 48.8339 114.743 49.4553C115.336 49.7803 115.864 50.2017 116.407 50.6018C117.15 51.0375 117.871 51.5125 118.536 52.0625C119.214 52.5768 119.757 53.2304 120.379 53.8054C120.918 54.2125 121.382 54.7054 121.822 55.2161C122.325 55.7161 122.804 56.2447 123.293 56.7554C123.686 57.1162 124.022 57.5305 124.289 57.9948C124.804 58.8948 125.468 59.7091 125.939 60.6341C126.211 61.2448 126.464 61.8627 126.829 62.4305C127.111 62.9448 127.265 63.4984 127.472 64.0306C127.882 64.9842 128.179 66.0413 128.386 67.0521C128.482 67.5128 128.64 67.9592 128.74 68.4235C128.847 68.9164 128.9 69.4164 128.997 69.9128C129.257 70.8414 129.311 71.8022 129.4 72.7558C129.55 73.7379 129.579 74.7308 129.707 75.7165C129.918 77.7558 129.872 79.813 129.857 81.8595C129.754 83.6988 129.704 85.5417 129.672 87.3846C129.593 90.1739 130.004 92.9454 129.936 95.7312C129.747 98.8241 129.786 101.924 129.768 105.024C129.761 106.617 129.711 108.206 129.743 109.799C129.782 111.406 129.861 113.017 129.854 114.624C129.89 117.36 129.811 120.096 129.807 122.832C129.779 125.039 129.882 127.246 129.922 129.453C129.965 133.225 129.722 136.996 129.782 140.771C129.711 144.771 130.136 148.761 130.115 152.761C130.136 155.325 130.068 157.889 130.054 160.457C130.025 161.215 129.99 161.972 129.972 162.732C130.007 162.761 130.036 162.8 130.054 162.843C130.19 163.15 130.29 163.479 130.332 163.815C130.357 164.15 130.297 164.49 130.307 164.829C130.386 165.557 130.322 166.286 130.243 167.011C130.172 167.793 130.218 168.479 130.193 169.236C130.165 169.9 130.122 170.561 130.182 171.225C130.215 172.158 130.275 173.083 130.375 174.011C130.422 174.736 130.382 175.493 130.375 176.201C130.404 177.286 130.293 178.361 130.1 179.429C130.036 180.022 130.079 180.626 129.957 181.215C129.875 181.679 129.657 182.094 129.411 182.49C129.168 182.919 129.004 183.383 128.793 183.826C128.532 184.408 128.19 184.965 127.9 185.504C127.572 186.165 127.05 186.697 126.482 187.161C125.914 187.608 125.436 188.172 124.829 188.565C124.164 188.901 123.429 189.079 122.754 189.408C122.036 189.669 121.275 189.794 120.539 189.99C117.882 190.526 115.164 190.579 112.461 190.579C112.343 190.579 112.225 190.579 112.111 190.579C111.979 190.579 111.843 190.579 111.711 190.579C110.743 190.579 109.782 190.597 108.821 190.597C108.35 190.597 107.875 190.594 107.4 190.583C105.718 190.551 104.032 190.483 102.35 190.469C100.257 190.494 98.1675 190.579 96.0746 190.579C95.6425 190.579 95.2103 190.576 94.7782 190.569C91.071 190.444 87.3673 190.312 83.6565 190.287C82.3637 190.322 81.0708 190.379 79.7779 190.379C79.7315 190.379 79.6886 190.379 79.6422 190.379C79.4743 190.379 79.3029 190.379 79.135 190.379C78.0243 190.379 76.91 190.365 75.7993 190.365C74.9707 190.365 74.1385 190.372 73.3099 190.401C71.5242 190.454 69.7456 190.615 67.9598 190.615C67.8384 190.615 67.717 190.615 67.5955 190.615C66.2098 190.615 64.8455 190.579 63.4597 190.569C62.2919 190.569 61.1061 190.576 59.9275 190.576C59.2668 190.576 58.6061 190.576 57.9561 190.569C57.2953 190.583 56.6346 190.59 55.9703 190.59C54.2346 190.59 52.5024 190.529 50.7774 190.319C49.6416 190.229 48.5095 190.083 47.4094 189.772C45.4165 189.608 44.0237 189.501 42.4522 188.036C41.5272 187.208 40.92 186.119 40.1736 185.14C39.6486 184.476 39.3057 183.679 39.0843 182.865C38.4021 179.797 38.2521 176.643 38.3057 173.511C38.3021 169.561 38.3164 165.611 38.2986 161.661C38.1128 151.829 38.1557 142 38.1664 132.168C38.1521 128.728 38.0164 125.289 37.9093 121.853C37.8807 118.432 37.8557 115.007 37.7878 111.585C37.7271 109.21 37.6057 106.835 37.5735 104.46C37.6021 102.071 37.6093 99.6777 37.6628 97.2884C37.72 95.9098 37.77 94.5347 37.7843 93.1561C37.8164 90.6489 37.7414 88.1418 37.7021 85.6346C37.7093 84.7488 37.6414 83.8417 37.8343 82.9774C37.8271 82.9452 37.8414 82.9166 37.8628 82.8952C37.7771 82.8238 37.72 82.7238 37.72 82.6059C37.7343 81.2166 37.6307 79.8237 37.7593 78.438C37.7985 77.4487 37.7735 76.4558 37.9628 75.4808C38.1057 74.8058 38.2593 74.1343 38.3093 73.445C38.3807 72.6629 38.5378 71.8879 38.7164 71.1236C39.0986 69.4021 39.4021 67.6628 39.8772 65.9663C40.0557 65.327 40.2914 64.702 40.595 64.1092C41.1343 63.0591 41.6129 61.9663 42.2701 60.9805C43.0201 59.8662 43.3558 58.5162 44.238 57.484C44.9308 56.6983 45.5844 55.909 46.1951 55.0625C46.638 54.484 47.1916 54.0054 47.7309 53.5197C48.9523 52.4839 50.0559 51.2875 51.4452 50.4732C52.4167 49.9767 53.4488 49.6053 54.4239 49.116C55.6632 48.591 56.781 47.9588 57.9989 47.4303C58.8382 47.1017 59.7954 46.9267 60.6597 46.7803C60.749 46.7731 60.8525 46.7481 60.9597 46.7124C61.224 46.4124 61.9026 46.266 62.1954 46.191C62.2062 46.1767 62.2169 46.1659 62.224 46.1517C62.0026 45.9159 61.7204 45.7338 61.5311 45.4695C61.324 45.1445 61.4204 44.8624 61.6204 44.6266C61.3669 44.6159 61.1168 44.6016 60.8633 44.6016C60.8418 44.6016 60.8204 44.6016 60.799 44.6016C60.4311 44.5552 60.0168 44.6266 59.6775 44.4624C59.6097 44.4124 59.5739 44.3338 59.5739 44.2552C59.5739 44.2552 59.5668 44.2552 59.5632 44.2552C59.249 44.0552 59.3704 43.2088 59.3097 42.8516C59.2097 41.8766 59.2204 40.8944 59.1811 39.9158C59.1239 39.1194 59.2204 38.3301 59.274 37.5408C59.2597 37.3444 59.2525 37.1479 59.2418 36.9586C59.2275 36.3443 59.2382 35.7301 59.2275 35.1158C59.2382 35.1158 59.2525 35.1158 59.2632 35.1158C59.2704 34.7765 59.274 34.4372 59.2704 34.0979C59.249 33.0586 59.5418 32.83 60.4454 32.83C60.5097 32.83 60.5775 32.83 60.649 32.83C60.9454 32.805 61.2383 32.7443 61.5347 32.7086C61.724 32.6764 61.9133 32.6621 62.1026 32.6621C62.824 32.6621 63.5347 32.8514 64.2598 32.8836C65.3169 32.955 66.3812 32.8871 67.4384 32.9907C67.7598 33.0157 68.0848 33.0264 68.4063 33.0264C69.3884 33.0264 70.3706 32.9336 71.3563 32.9157C72.7528 32.9086 74.1492 32.93 75.5421 32.8371C76.0921 32.8229 76.6421 32.8157 77.1921 32.8157C78.4172 32.8157 79.6458 32.8407 80.8708 32.8407C81.4922 32.8407 82.1172 32.8336 82.7387 32.8157C84.1637 32.7121 85.5852 32.5443 87.0138 32.5443C87.1388 32.5443 87.2602 32.5443 87.3852 32.5478C87.4352 32.5478 87.4888 32.5478 87.5388 32.5478C88.3352 32.5478 89.1352 32.605 89.9317 32.605C90.0281 32.605 90.1281 32.605 90.2245 32.605C90.3817 32.6014 90.5388 32.6014 90.6924 32.6014C91.5103 32.6014 92.3246 32.6443 93.1424 32.6657C93.3174 32.6657 93.496 32.6693 93.671 32.6693C94.4853 32.6693 95.2996 32.6443 96.1139 32.6443C96.3246 32.6443 96.5389 32.6443 96.7497 32.6514C97.1711 32.6657 97.5961 32.6871 98.0175 32.6871C98.1747 32.6871 98.3283 32.6871 98.4854 32.6764C99.289 32.58 100.093 32.5478 100.9 32.5478C101.028 32.5478 101.157 32.5478 101.285 32.5478C102.725 32.5228 104.164 32.5336 105.603 32.4978C106.271 32.43 106.939 32.4228 107.607 32.4014C107.843 32.3943 108.111 32.3086 108.357 32.3086M97.8532 33.4443C97.1175 33.4443 96.3782 33.405 95.6425 33.405C95.4032 33.405 95.1675 33.4086 94.9282 33.4193C94.6246 33.4264 94.3246 33.43 94.021 33.43C92.6246 33.43 91.2281 33.3621 89.8281 33.3621C89.6638 33.3621 89.4995 33.3621 89.3352 33.3621C88.5852 33.3371 87.8352 33.3122 87.0816 33.3122C86.6173 33.3122 86.1494 33.3229 85.6852 33.3479C84.5137 33.4264 83.353 33.5586 82.1815 33.6086C81.9744 33.6086 81.7672 33.6086 81.5601 33.6086C80.3815 33.6086 79.2065 33.58 78.0279 33.58C77.6922 33.58 77.36 33.58 77.0243 33.5871C76.9243 33.5871 76.8243 33.5871 76.7207 33.5871C75.8921 33.5871 75.0671 33.6122 74.2421 33.6622C72.5671 33.68 70.8956 33.6514 69.2241 33.7764C69.0277 33.7836 68.8277 33.7871 68.6241 33.7871C68.0527 33.7871 67.4741 33.7622 66.9241 33.7157C65.8062 33.6657 64.6812 33.7157 63.5669 33.5907C63.1026 33.5371 62.6419 33.4264 62.174 33.4264C62.049 33.4264 61.924 33.4336 61.799 33.4514C61.2383 33.5336 60.6775 33.6157 60.1132 33.6121H60.0668C59.9882 33.8407 60.0311 34.5515 59.9811 35.1515C59.9811 35.1515 59.9811 35.1515 59.9847 35.1515C60.0025 35.855 60.0204 36.9051 59.9347 37.6301C59.9668 37.6301 59.999 37.6337 60.0311 37.6337C60.0061 37.9622 59.9668 38.2908 59.9418 38.623C59.899 39.6051 59.9775 40.5873 59.9775 41.5695C59.9918 42.323 60.0775 43.0766 60.0061 43.8266C60.0061 43.8516 59.999 43.8766 59.999 43.9016C60.3097 43.8409 60.6525 43.8802 60.9633 43.8516C61.0918 43.8445 61.2168 43.8409 61.3418 43.8409C61.7633 43.8409 62.1812 43.8731 62.6026 43.8945C62.7526 43.8731 62.9026 43.8516 63.0562 43.8445C64.0419 43.8873 65.0312 43.9266 66.0169 43.9266C66.4134 43.9266 66.8062 43.9195 67.2027 43.9052C68.0491 43.8338 68.8991 43.7552 69.7456 43.6909C71.3385 43.5302 72.9421 43.5802 74.5385 43.4552C75.6671 43.4302 76.7921 43.4266 77.9136 43.3338C79.0029 43.2731 80.0922 43.2766 81.1815 43.2231C81.9029 43.2159 82.6244 43.2123 83.3422 43.2123C85.1423 43.2123 86.9423 43.2302 88.7424 43.2302C89.0602 43.2302 89.3817 43.2302 89.6995 43.2302C91.7031 43.1623 93.7103 43.1373 95.7103 42.9766C98.1854 42.9409 100.657 42.9052 103.132 42.8016C103.703 42.7195 104.275 42.6802 104.853 42.6802C104.957 42.6802 105.061 42.6802 105.164 42.6838C105.203 42.6838 105.246 42.6873 105.286 42.6873C105.411 42.6873 105.536 42.6766 105.661 42.6766C105.786 42.6766 105.918 42.6909 106.039 42.7445C106.061 42.7588 106.071 42.7802 106.089 42.798C106.164 42.7909 106.232 42.7838 106.278 42.773C106.446 42.7552 106.618 42.7516 106.786 42.7516C107.168 42.7516 107.553 42.7802 107.936 42.7837L108.025 42.7373C108.493 41.9873 108.553 41.0694 108.646 40.2123C108.696 39.148 108.682 38.0837 108.689 37.0194C108.7 37.0229 108.714 37.0194 108.725 37.0265C108.711 36.8979 108.689 36.7658 108.661 36.6408C108.661 36.6265 108.661 36.6086 108.653 36.5944C108.732 36.5944 108.811 36.6015 108.893 36.6015C108.893 36.4693 108.893 36.3372 108.907 36.2051C108.971 35.58 108.896 34.955 108.818 34.3336C108.807 34.2586 108.8 34.1836 108.796 34.1086C108.8 34.1086 108.807 34.1086 108.811 34.1086C108.753 34.0157 108.682 33.93 108.625 33.8407C108.482 33.6014 108.407 33.33 108.3 33.0764C107.414 33.2264 106.511 33.155 105.618 33.2586C103.578 33.3157 101.535 33.2693 99.4926 33.3407C98.9461 33.4157 98.3997 33.4336 97.8532 33.4336M88.2816 43.9981C87.9602 43.9981 87.6352 43.9981 87.3138 43.9873C87.0209 43.9873 86.7245 43.9873 86.4316 43.9873C85.3352 43.9873 84.2423 43.9766 83.1458 43.9766C81.8958 43.9766 80.6494 43.9909 79.4029 44.0445H79.3565C78.1422 44.0445 76.9314 44.1981 75.7171 44.1981H75.6993C75.6278 44.1981 75.5528 44.1981 75.4814 44.1981C74.8171 44.1981 74.1742 44.2481 73.5135 44.2909C72.6528 44.3124 71.7563 44.3195 70.9134 44.3731C69.3313 44.4624 67.7563 44.6874 66.1741 44.6874C66.0098 44.6874 65.8455 44.6874 65.6812 44.6802C65.5955 44.6802 65.5098 44.6802 65.4241 44.6802C64.8133 44.6802 64.2062 44.6445 63.5955 44.5873C63.4955 44.6623 63.3705 44.6766 63.2455 44.6766C63.1776 44.6766 63.1062 44.6731 63.0383 44.6731C63.0169 44.6731 62.9954 44.6731 62.974 44.6731C62.9062 44.6731 62.8383 44.6659 62.7669 44.6624C62.6061 44.8231 62.3919 44.9338 62.2169 45.0802C62.4954 45.3981 62.9883 45.6267 63.0097 46.0945C63.0169 46.3088 62.9169 46.516 62.774 46.6767C62.7562 46.7195 62.7383 46.7588 62.7062 46.7945C62.6347 46.8696 62.5347 46.9053 62.4347 46.9053C62.324 46.941 62.2097 46.966 62.099 46.991C61.9204 47.1088 61.7026 47.2053 61.6061 47.2445C60.8847 47.566 60.0811 47.5874 59.3311 47.8053C57.9168 48.1124 56.706 48.9482 55.3882 49.5053C54.7346 49.7982 54.0917 50.1125 53.4381 50.4053C52.7345 50.7125 51.9988 50.9696 51.3667 51.4161C50.4345 52.0554 49.6416 52.8661 48.7845 53.5911C48.2095 54.1125 47.6166 54.6161 47.088 55.184C46.7344 55.5876 46.4344 56.0304 46.1058 56.4554C45.6165 57.1197 45.0094 57.6876 44.5344 58.3626C43.9665 59.2055 43.6558 60.1912 43.1308 61.0591C42.2165 62.4806 41.4486 64.0056 40.8093 65.5699C40.12 67.7449 39.7843 70.0093 39.2664 72.2272C39.0664 73.2986 39.0414 74.3951 38.7557 75.4487C38.5664 76.3701 38.5557 77.313 38.5414 78.2487C38.4807 79.088 38.4486 79.9273 38.4628 80.7666C38.4771 81.3773 38.5128 81.9916 38.4878 82.6023C38.4878 82.8024 38.3164 82.9845 38.1128 82.9845H38.1057C38.0843 82.9845 38.0628 82.9809 38.045 82.9738C38.0343 82.9702 38.0235 82.9666 38.0128 82.9666C38.0235 82.9666 38.0343 82.9738 38.045 82.9738C38.1664 83.0202 38.2343 83.1809 38.27 83.2988C38.3557 83.6095 38.3557 83.9381 38.37 84.2595C38.3986 85.3095 38.4736 86.3596 38.4843 87.4096C38.5664 89.8489 38.5914 92.2847 38.5307 94.724C38.4236 97.0919 38.4021 99.4598 38.3807 101.828C38.2628 105.571 38.545 109.31 38.595 113.053C38.62 116.046 38.6628 119.039 38.6878 122.032C38.8164 125.939 38.9629 129.846 38.9414 133.757C38.92 143.125 38.9021 152.489 39.0736 161.854C39.095 166.661 39.0664 171.472 39.0843 176.279C39.1379 178.276 39.3736 180.268 39.7343 182.233C39.8843 182.994 40.1593 183.733 40.5772 184.386C40.8593 184.765 41.1486 185.14 41.4093 185.533C42.1736 186.701 43.0951 187.822 44.3808 188.436C45.3808 188.901 46.5201 188.894 47.5952 189.022C47.7773 189.022 47.8952 189.129 47.9452 189.262C50.1023 189.487 52.2595 189.744 54.4274 189.812C54.9024 189.812 55.3775 189.812 55.856 189.812C57.9989 189.812 60.1418 189.797 62.2811 189.797C62.5276 189.797 62.774 189.797 63.024 189.797C64.6383 189.801 66.2491 189.844 67.8598 189.844C68.0563 189.844 68.2491 189.844 68.4456 189.844C70.0313 189.808 71.617 189.683 73.2028 189.633C74.1242 189.604 75.0457 189.594 75.9707 189.594C77.0743 189.594 78.1814 189.604 79.285 189.604C80.3886 189.604 81.3851 189.594 82.4351 189.551C83.028 189.529 83.6208 189.519 84.2137 189.519C85.878 189.519 87.5459 189.587 89.2102 189.59C91.6889 189.694 94.1675 189.801 96.6461 189.801C97.4782 189.801 98.3104 189.79 99.1461 189.758C100.082 189.715 101.018 189.697 101.95 189.697C103.939 189.697 105.928 189.772 107.918 189.815C108.239 189.819 108.561 189.822 108.882 189.822C109.857 189.822 110.832 189.808 111.807 189.808C112.164 189.808 112.525 189.808 112.882 189.815C116.132 189.776 119.45 189.697 122.554 188.654C123.175 188.354 123.85 188.19 124.468 187.883C124.839 187.636 125.132 187.294 125.475 187.011C125.95 186.583 126.482 186.204 126.875 185.694C127.386 184.908 127.829 184.072 128.222 183.219C128.318 182.997 128.411 182.772 128.511 182.551C128.715 182.094 129.047 181.697 129.172 181.204C129.282 180.733 129.286 180.243 129.297 179.761C129.318 179.226 129.447 178.701 129.515 178.172C129.643 176.851 129.622 175.515 129.607 174.186C129.493 173.054 129.432 171.922 129.382 170.786C129.354 170.204 129.411 169.625 129.425 169.043C129.418 168.025 129.44 167.036 129.554 166.025C129.604 165.336 129.486 164.65 129.568 163.961C129.593 163.718 129.429 163.432 129.368 163.179C129.265 163.111 129.19 162.997 129.193 162.868C129.332 159.054 129.347 155.232 129.34 151.414C129.286 148.382 129.011 145.357 129.011 142.321C128.993 139.686 129.011 137.053 129.075 134.421C129.182 131.71 129.175 128.993 129.057 126.282C128.95 121.342 129.2 116.399 129.015 111.464C128.89 107.492 129.036 103.517 129.015 99.5419C129.022 97.7455 129.215 95.9526 129.161 94.1562C129.004 91.3382 128.79 88.5168 128.936 85.6917C128.965 84.6238 128.968 83.5559 129.05 82.4916C129.118 80.9952 129.1 79.4952 129.057 77.9987C129.061 77.0523 128.979 76.1129 128.857 75.1736C128.793 74.2522 128.686 73.3343 128.575 72.42C128.543 71.5807 128.4 70.7593 128.204 69.9414C128.082 69.1914 127.972 68.4414 127.74 67.7164C127.532 66.8306 127.354 65.9771 127.054 65.1199C126.75 64.3877 126.522 63.6234 126.189 62.9056C125.793 62.2591 125.489 61.5734 125.186 60.8805C124.922 60.3662 124.561 59.9126 124.261 59.4234C123.868 58.8555 123.561 58.2233 123.114 57.6947C122.579 57.1697 122.086 56.609 121.557 56.0733C121 55.5126 120.586 54.9518 119.964 54.4911C119.461 54.0768 119.057 53.5625 118.575 53.1268C118.046 52.6589 117.482 52.2304 116.9 51.8304C116.571 51.6053 116.211 51.4268 115.882 51.1982C115.289 50.7518 114.707 50.3053 114.043 49.9767C112.721 49.4053 111.393 48.841 110.082 48.2517C109.45 48.0874 108.839 47.8731 108.236 47.6231C107.7 47.4731 107.178 47.266 106.639 47.1303C106.336 47.0696 106.014 47.0731 105.732 46.9267C105.711 46.9196 105.693 46.9053 105.671 46.891C105.568 46.8838 105.471 46.8338 105.407 46.7588C105.35 46.7517 105.293 46.7445 105.243 46.7088C105.107 46.6374 105.028 46.4767 105.036 46.3231C105.075 46.0302 105.046 45.7124 105.161 45.4338C105.261 45.1195 105.653 45.0838 105.789 44.8052C105.664 44.5695 105.446 44.4159 105.25 44.2445C105.057 44.0445 105.075 43.8302 105.178 43.6302C105.153 43.5802 105.15 43.5195 105.175 43.4588C105.107 43.4588 105.036 43.4588 104.968 43.4588C104.661 43.4588 104.353 43.4588 104.046 43.4766C103.243 43.6088 102.432 43.5802 101.621 43.6231C99.7854 43.7266 97.9425 43.7088 96.1032 43.7374C94.8853 43.7838 93.6889 43.9088 92.4746 43.9338C91.0781 43.9516 89.6852 44.0088 88.2888 44.0088M108.364 31.5371C108.168 31.5371 107.986 31.5692 107.828 31.5978C107.746 31.6121 107.668 31.63 107.589 31.6335L107.25 31.6442C106.7 31.6585 106.132 31.6764 105.564 31.7335C104.746 31.755 103.928 31.7585 103.11 31.7657C102.5 31.7693 101.893 31.7728 101.282 31.7835C101.171 31.7835 101.039 31.7835 100.907 31.7835C99.9569 31.7835 99.1676 31.8228 98.4247 31.9121H98.4211C97.9925 31.93 97.564 31.9121 97.1354 31.8978L96.7854 31.8836C96.5568 31.88 96.3389 31.8764 96.1246 31.8764C95.7139 31.8764 95.3032 31.8835 94.8925 31.8871C94.4889 31.8943 94.0853 31.8978 93.6817 31.8978C93.5103 31.8978 93.3389 31.8978 93.1639 31.8943C92.8924 31.8871 92.6103 31.8764 92.3317 31.8693C91.7996 31.8514 91.2496 31.83 90.7031 31.83C90.5424 31.83 90.3781 31.83 90.2174 31.8371C90.1281 31.8371 90.0352 31.8371 89.9424 31.8371C89.5531 31.8371 89.1638 31.8228 88.7745 31.8085C88.3674 31.7943 87.9602 31.78 87.5495 31.78H87.3888C87.2816 31.78 87.153 31.78 87.0245 31.78C85.9459 31.78 84.8673 31.8728 83.828 31.9585C83.4494 31.9907 83.0708 32.0228 82.6923 32.0514C82.1744 32.0657 81.5708 32.0764 80.8815 32.0764C80.2708 32.0764 79.6601 32.0693 79.0493 32.0621C78.435 32.055 77.8171 32.0478 77.2028 32.0478C76.6457 32.0478 76.0885 32.0514 75.5314 32.0693C74.4278 32.1407 73.3242 32.1407 72.2563 32.1443C71.9599 32.1443 71.6599 32.1443 71.3635 32.1443C70.9135 32.155 70.4777 32.1764 70.0384 32.1978C69.4777 32.2264 68.9527 32.255 68.417 32.255C68.0884 32.255 67.792 32.2443 67.5098 32.2228C66.9134 32.1657 66.3098 32.1621 65.7241 32.155C65.2384 32.1514 64.7812 32.1478 64.324 32.1157C64.0133 32.1014 63.7133 32.0586 63.3955 32.0121C62.9847 31.955 62.5597 31.8943 62.1133 31.8943C61.8668 31.8943 61.6419 31.9121 61.4169 31.9514C61.324 31.9621 61.199 31.9835 61.074 32.0014C60.9276 32.0228 60.7847 32.0478 60.6347 32.0621C60.574 32.0621 60.5133 32.0621 60.4525 32.0621C59.949 32.0621 59.3811 32.1193 58.9668 32.5407C58.5418 32.9764 58.4954 33.5836 58.5061 34.1229C58.5061 34.1872 58.5061 34.2514 58.5061 34.3193H58.4846L58.4632 35.1408C58.4704 35.4336 58.4704 35.7265 58.4704 36.0193C58.4704 36.3408 58.4704 36.6622 58.4775 36.9836L58.4882 37.2301C58.4918 37.3301 58.4989 37.4336 58.5061 37.5372C58.4954 37.6979 58.4811 37.8587 58.4704 38.0194C58.4204 38.6515 58.3668 39.3051 58.4168 39.9837C58.4275 40.2444 58.4346 40.5337 58.4418 40.823C58.4596 41.5123 58.4739 42.2266 58.5489 42.9445V42.9695L58.5561 42.9945C58.5632 43.0445 58.5668 43.1945 58.5668 43.2945C58.5739 43.7302 58.5811 44.2981 58.8954 44.6909C58.9668 44.8552 59.0847 45.0016 59.2347 45.1088L59.2882 45.1481L59.3454 45.1767C59.7239 45.3588 60.1061 45.3659 60.4133 45.3731C60.5026 45.3731 60.5883 45.3731 60.674 45.3838C60.7061 45.5445 60.7668 45.7017 60.8561 45.8552C60.7597 45.9052 60.6704 45.9624 60.5883 46.0267H60.5668L60.5347 46.0338C59.6025 46.191 58.6168 46.3731 57.7168 46.7267C57.0918 46.9981 56.5132 47.2838 55.9525 47.5588C55.3596 47.8517 54.7489 48.1517 54.1239 48.4196L54.0989 48.4303L54.0774 48.441C53.6238 48.6696 53.1595 48.8696 52.6667 49.0803C52.1488 49.3017 51.6131 49.5339 51.0916 49.8017L51.0738 49.8124L51.0559 49.8232C50.0059 50.441 49.1202 51.2446 48.263 52.0268C47.9202 52.3375 47.5809 52.6482 47.2309 52.9482L47.0166 53.1447C46.5237 53.5875 46.0166 54.0482 45.5844 54.6125C45.038 55.3733 44.4308 56.1233 43.6629 56.9912C43.0844 57.6698 42.7344 58.4162 42.3915 59.1412C42.1522 59.6519 41.9236 60.1341 41.6343 60.5662C41.1129 61.352 40.7022 62.1841 40.3057 62.9877L40.07 63.4627C39.7843 64.0306 39.4236 64.7877 39.1843 65.6163C38.8271 66.8592 38.5628 68.1307 38.3093 69.3628C38.1986 69.8986 38.0878 70.4378 37.97 70.9736C37.82 71.6164 37.6343 72.4807 37.5485 73.3915C37.5057 73.9915 37.3807 74.5701 37.2485 75.1808L37.2164 75.3379C37.0521 76.1701 37.0307 76.9844 37.0128 77.7737C37.0092 77.9844 37.0021 78.1951 36.995 78.4058C36.9092 79.3666 36.9235 80.3237 36.9414 81.2488C36.9485 81.7059 36.9592 82.1595 36.9521 82.6166C36.9521 82.7702 36.9807 82.9202 37.0378 83.0595C36.9164 83.7345 36.9235 84.4024 36.9307 85.0524C36.9307 85.2524 36.9342 85.4488 36.9307 85.6453C36.9414 86.256 36.9521 86.8453 36.9628 87.4382C36.9985 89.3168 37.0378 91.2597 37.0128 93.1633C36.9985 94.4597 36.9557 95.7455 36.895 97.2741C36.8592 98.8848 36.845 100.506 36.8307 102.071C36.8235 102.867 36.8164 103.667 36.8057 104.463C36.8271 105.881 36.8771 107.299 36.9271 108.671C36.9628 109.653 36.9985 110.635 37.0235 111.621C37.0807 114.607 37.1057 117.646 37.1307 120.585L37.1414 121.875L37.2021 123.703C37.295 126.485 37.3878 129.36 37.4021 132.185V135.95C37.3843 144.386 37.37 153.107 37.5343 161.69C37.545 164.093 37.5414 166.507 37.5414 168.918C37.5414 170.454 37.5414 171.99 37.5414 173.525C37.4807 177.293 37.7343 180.326 38.3378 183.047C38.62 184.09 39.0343 184.947 39.5736 185.633C39.7807 185.908 39.9879 186.201 40.1914 186.497C40.7022 187.229 41.2272 187.986 41.9415 188.626C43.6772 190.244 45.2665 190.387 47.2773 190.551C48.2595 190.822 49.3273 190.994 50.7202 191.101C52.2488 191.287 53.9274 191.372 55.9739 191.372C56.6418 191.372 57.3061 191.362 57.9739 191.351C58.6061 191.358 59.2668 191.358 59.9311 191.358C60.5561 191.358 61.1811 191.358 61.8061 191.358H63.4633C64.0133 191.358 64.5705 191.369 65.1241 191.376C65.9491 191.387 66.7705 191.401 67.5991 191.401H67.967C69.0563 191.401 70.1563 191.34 71.2206 191.283C71.9277 191.244 72.6314 191.208 73.3385 191.187C74.0599 191.162 74.8421 191.151 75.8064 191.151C76.36 191.151 76.9136 191.151 77.4672 191.158C78.0243 191.162 78.5815 191.165 79.1386 191.165H79.6493H79.7815C80.7244 191.165 81.6779 191.133 82.5994 191.104C82.9601 191.094 83.3208 191.079 83.6815 191.072C87.2388 191.097 90.8817 191.222 94.4068 191.34L94.7532 191.351C95.2032 191.362 95.6389 191.365 96.0746 191.365C97.3068 191.365 98.5497 191.337 99.7569 191.308C100.625 191.287 101.493 191.265 102.36 191.254C103.35 191.262 104.371 191.29 105.361 191.319C106.036 191.337 106.711 191.354 107.386 191.369C107.864 191.379 108.343 191.383 108.821 191.383C109.3 191.383 109.786 191.379 110.268 191.376C110.746 191.372 111.229 191.369 111.711 191.369H112.107H112.461C115.111 191.369 117.929 191.322 120.689 190.765H120.714L120.736 190.754C120.982 190.687 121.232 190.629 121.482 190.572C121.982 190.458 122.5 190.337 123.014 190.151L123.054 190.137L123.089 190.119C123.379 189.979 123.686 189.865 124.014 189.747C124.393 189.608 124.786 189.465 125.175 189.269L125.211 189.251L125.243 189.229C125.661 188.961 126.004 188.64 126.336 188.329C126.547 188.133 126.747 187.947 126.954 187.783C127.736 187.14 128.25 186.533 128.586 185.861C128.665 185.719 128.757 185.554 128.85 185.386C129.072 184.994 129.297 184.586 129.493 184.154C129.568 183.997 129.643 183.822 129.718 183.651C129.836 183.376 129.947 183.119 130.079 182.883C130.325 182.486 130.607 181.976 130.715 181.361C130.797 180.965 130.811 180.568 130.825 180.183C130.832 179.972 130.84 179.761 130.861 179.551C131.075 178.34 131.168 177.243 131.143 176.193C131.143 176.011 131.147 175.801 131.154 175.586C131.165 175.061 131.175 174.515 131.14 173.976C131.043 173.086 130.982 172.193 130.95 171.215V171.193V171.172C130.9 170.625 130.929 170.072 130.954 169.486L130.965 169.286C130.975 168.979 130.975 168.693 130.972 168.408C130.972 167.968 130.997 167.25 131.04 166.815C131.104 166.175 131.147 165.493 131.075 164.797C131.075 164.679 131.082 164.557 131.09 164.44C131.104 164.24 131.118 164.015 131.1 163.772V163.754L131.097 163.736C131.047 163.347 130.932 162.947 130.757 162.55C130.757 162.543 130.75 162.536 130.747 162.529C130.757 162.118 130.775 161.704 130.793 161.293L130.825 160.507C130.832 159.518 130.843 158.55 130.857 157.586C130.879 156.011 130.9 154.382 130.886 152.779C130.897 150.875 130.804 148.939 130.715 147.071C130.618 145.018 130.515 142.893 130.554 140.811C130.522 138.857 130.572 136.893 130.622 134.989C130.668 133.182 130.715 131.314 130.693 129.468C130.679 128.732 130.661 128.003 130.64 127.271C130.6 125.825 130.557 124.328 130.575 122.864C130.575 121.767 130.59 120.678 130.604 119.585C130.622 117.964 130.643 116.289 130.622 114.635C130.629 113.542 130.593 112.428 130.557 111.346C130.54 110.831 130.525 110.314 130.511 109.799C130.49 108.774 130.504 107.724 130.518 106.706C130.525 106.153 130.532 105.599 130.536 105.046C130.54 104.399 130.543 103.749 130.543 103.099C130.55 100.699 130.554 98.2205 130.704 95.7955C130.74 94.3597 130.654 92.949 130.568 91.5811C130.486 90.2132 130.4 88.7989 130.436 87.4203C130.475 85.2024 130.532 83.5059 130.622 81.9166V81.8988V81.8809V81.1273C130.64 79.3344 130.654 77.4844 130.465 75.6522C130.407 75.2094 130.372 74.7879 130.332 74.3415C130.286 73.7986 130.24 73.2415 130.154 72.6807L130.118 72.27C130.047 71.4486 129.972 70.6021 129.736 69.7557C129.697 69.5557 129.665 69.3521 129.636 69.1485C129.593 68.8664 129.547 68.5771 129.482 68.2807C129.429 68.0414 129.365 67.8056 129.297 67.5664C129.236 67.3485 129.175 67.1342 129.129 66.9128C128.89 65.7413 128.565 64.6734 128.168 63.7484C128.122 63.627 128.072 63.4806 128.018 63.3306C127.875 62.9234 127.725 62.502 127.493 62.0805L127.482 62.0591L127.468 62.0377C127.182 61.5877 126.965 61.0912 126.732 60.5662L126.636 60.3448L126.629 60.3269L126.618 60.3091C126.332 59.7448 125.986 59.2341 125.654 58.7376C125.4 58.3626 125.161 58.009 124.95 57.6376C124.65 57.1162 124.272 56.6447 123.825 56.2304C123.661 56.0554 123.497 55.884 123.332 55.709C123.018 55.3733 122.704 55.0411 122.379 54.7161C121.968 54.2447 121.472 53.7054 120.868 53.2411C120.661 53.0482 120.464 52.8482 120.268 52.6447C119.879 52.2482 119.472 51.8339 118.996 51.4732C118.386 50.9696 117.668 50.4768 116.829 49.9839L116.557 49.7839C116.104 49.4482 115.639 49.0981 115.111 48.8089C114.393 48.4374 113.668 48.1374 112.968 47.8446C112.436 47.6231 111.886 47.3946 111.368 47.1481C110.921 46.9053 110.471 46.7731 110.032 46.6445C109.714 46.5517 109.414 46.4624 109.146 46.3374C108.782 46.1874 108.45 46.091 108.132 46.0017L107.907 45.9374C107.628 45.8338 107.353 45.7552 107.075 45.7017C107.282 45.3838 107.382 45.0267 107.35 44.6659V44.6123L107.332 44.5624C107.314 44.4766 107.286 44.3945 107.257 44.3124C107.368 44.3195 107.471 44.3302 107.575 44.3374H107.596H107.618H107.728C107.796 44.3374 107.861 44.3409 107.928 44.3409C108.014 44.3409 108.096 44.3409 108.182 44.3338C108.632 44.2838 108.978 44.0088 109.136 43.6302C110.121 42.6766 110.225 40.5408 110.243 38.5837C110.243 38.3979 110.243 38.2408 110.25 38.1158C110.278 38.0622 110.307 37.998 110.332 37.9265C110.425 37.6408 110.464 37.3265 110.453 36.9622C110.464 36.2943 110.478 35.5122 110.425 34.7229C110.468 34.58 110.486 34.43 110.471 34.2764C110.453 33.7871 110.193 33.3943 110 33.1086L109.939 33.0157C109.911 32.9514 109.889 32.8871 109.864 32.8229C109.771 32.5729 109.657 32.2621 109.411 31.9835C109.214 31.7764 108.889 31.5478 108.375 31.5478L108.364 31.5371ZM99.564 34.1193C100.621 34.0836 101.703 34.0765 102.746 34.0729C103.696 34.0693 104.675 34.0657 105.643 34.0372H105.675L105.707 34.0336C106.064 33.9907 106.432 33.98 106.818 33.9693C107.139 33.9586 107.468 33.9514 107.8 33.9229C107.846 34.03 107.9 34.1372 107.964 34.2479C107.993 34.2943 108.018 34.33 108.043 34.3693C108.043 34.3907 108.046 34.4086 108.05 34.43C108.128 34.8908 108.132 35.3479 108.128 35.8229H107.775L107.893 36.7015V36.7479L107.911 36.8193C107.914 36.8372 107.918 36.8551 107.921 36.8729V37.0194C107.918 37.3194 107.918 37.6229 107.914 37.9229C107.914 38.6587 107.914 39.4194 107.875 40.1587L107.853 40.3587C107.789 40.9587 107.732 41.5266 107.536 42.0052H107.428C107.214 41.9909 107 41.9837 106.786 41.9837C106.589 41.9837 106.414 41.9909 106.25 42.0052C106.021 41.923 105.807 41.9123 105.661 41.9123C105.586 41.9123 105.511 41.9123 105.436 41.9194C105.386 41.9194 105.336 41.923 105.286 41.923C105.268 41.923 105.25 41.923 105.228 41.923H105.203H105.178C105.068 41.923 104.961 41.9194 104.85 41.9194C104.236 41.9194 103.635 41.9623 103.057 42.0409C100.607 42.1409 98.1104 42.1802 95.6961 42.2123H95.6711H95.6461C94.1246 42.3337 92.5639 42.3802 91.0531 42.423C90.5924 42.4373 90.1317 42.448 89.671 42.4659C89.3745 42.4659 89.0567 42.4659 88.7388 42.4659C87.8388 42.4659 86.9423 42.4623 86.0423 42.4552C85.1423 42.4516 84.2387 42.4444 83.3387 42.4444C82.6137 42.4444 81.8922 42.4445 81.1672 42.4552C80.6351 42.4802 80.1279 42.4945 79.6243 42.5052C79.0493 42.5195 78.4565 42.5337 77.8672 42.5659C76.9636 42.6409 76.0528 42.6587 75.1707 42.673L74.5171 42.6873H74.4957H74.4742C73.7707 42.7445 73.0421 42.7623 72.3349 42.7837C71.4635 42.8087 70.5599 42.8338 69.6634 42.9266C69.092 42.9695 68.5027 43.0195 67.9134 43.073L67.1312 43.1409C66.7812 43.1516 66.3955 43.1587 66.0098 43.1587C65.0098 43.1587 64.0169 43.1195 63.0812 43.0802H63.0419H63.0026C62.8562 43.0873 62.7097 43.1052 62.5669 43.1266L62.3954 43.1159C62.0526 43.0945 61.699 43.073 61.3383 43.073C61.199 43.073 61.0597 43.073 60.9168 43.0838C60.8775 43.0873 60.8383 43.0909 60.8025 43.0909C60.8025 42.8016 60.7847 42.5159 60.7704 42.2373C60.7597 42.0087 60.749 41.7837 60.7418 41.5552C60.7418 41.173 60.7311 40.773 60.7168 40.3766C60.699 39.7837 60.6811 39.223 60.7061 38.6587C60.7168 38.5158 60.7347 38.348 60.749 38.1801C60.7633 38.0194 60.7811 37.8587 60.7918 37.6979L60.8597 36.8658H60.7525C60.7704 36.3086 60.7633 35.6979 60.749 35.1336V35.1229C60.7668 34.8729 60.7704 34.6193 60.774 34.3907C60.774 34.3764 60.774 34.3657 60.774 34.3514C61.0061 34.33 61.2311 34.3015 61.4526 34.2693C61.6276 34.2479 61.8026 34.2229 61.9776 34.205C62.0383 34.1979 62.1026 34.1943 62.1669 34.1943C62.4133 34.1943 62.6776 34.2372 62.9597 34.28C63.1312 34.3086 63.3026 34.3336 63.474 34.3514C64.2276 34.4372 64.9776 34.4479 65.7062 34.455C66.0991 34.4586 66.4919 34.4622 66.8848 34.48C67.4241 34.5264 68.0205 34.5515 68.617 34.5515C68.8277 34.5515 69.0348 34.5515 69.2384 34.5407C70.517 34.4443 71.7956 34.4372 73.0349 34.4336C73.4385 34.4336 73.8421 34.43 74.2421 34.4265C75.0921 34.3765 75.91 34.3514 76.7136 34.3514H77.01C77.36 34.3479 77.6886 34.3443 78.0172 34.3443C78.6029 34.3443 79.1886 34.3515 79.7743 34.3586C80.3672 34.3657 80.9565 34.3729 81.5494 34.3729C81.7601 34.3729 81.9672 34.3729 82.178 34.3729C82.9315 34.3407 83.6601 34.28 84.3637 34.2193C84.8173 34.18 85.2709 34.1407 85.7245 34.1122C86.1352 34.0907 86.578 34.08 87.0673 34.08C87.8281 34.08 88.6066 34.105 89.2924 34.13C89.4888 34.13 89.6531 34.13 89.8138 34.13C90.5031 34.13 91.2103 34.1479 91.8924 34.1657C92.5853 34.1836 93.2996 34.2015 94.0068 34.2015C94.3139 34.2015 94.6246 34.2014 94.9353 34.1907C95.1746 34.18 95.4032 34.1765 95.6282 34.1765C95.9889 34.1765 96.3532 34.1872 96.7139 34.1943C97.0889 34.205 97.464 34.2122 97.839 34.2122C98.4961 34.2122 99.039 34.18 99.5426 34.1157L99.564 34.1193ZM104.128 44.2481C104.211 44.2445 104.293 44.2409 104.375 44.2373C104.428 44.4266 104.528 44.6016 104.675 44.7588C104.578 44.8659 104.493 44.9981 104.436 45.1695C104.321 45.4659 104.303 45.7517 104.289 45.9838C104.286 46.0624 104.282 46.141 104.271 46.2195V46.2517L104.264 46.2838C104.243 46.7302 104.468 47.1517 104.846 47.3696C104.918 47.4124 104.989 47.4446 105.053 47.466C105.161 47.5374 105.282 47.591 105.407 47.6231C105.714 47.7731 106.014 47.8124 106.261 47.8446C106.332 47.8553 106.4 47.8624 106.471 47.8767C106.739 47.9446 107.007 48.0339 107.289 48.1267C107.518 48.2017 107.75 48.2803 107.982 48.3481C108.632 48.616 109.236 48.8196 109.821 48.9767C110.857 49.4446 111.918 49.8982 112.943 50.341L113.736 50.6839C114.261 50.941 114.768 51.3232 115.307 51.7303L115.418 51.8125C115.632 51.9661 115.829 52.0804 116.018 52.1911C116.168 52.2804 116.318 52.3661 116.461 52.4661C117.061 52.8732 117.582 53.2768 118.061 53.7018C118.25 53.8732 118.436 54.0661 118.629 54.2697C118.889 54.5411 119.157 54.8233 119.472 55.084L119.486 55.0983L119.504 55.109C119.861 55.3733 120.147 55.684 120.472 56.0447C120.643 56.234 120.818 56.4233 121.007 56.6162C121.232 56.8447 121.454 57.0804 121.675 57.3162C121.954 57.6126 122.243 57.9198 122.543 58.2162C122.772 58.4948 122.968 58.8162 123.175 59.1555C123.318 59.3876 123.457 59.6198 123.611 59.8448C123.729 60.0341 123.854 60.2234 123.982 60.4091C124.168 60.6841 124.347 60.9448 124.486 61.2163C124.764 61.8591 125.082 62.5805 125.504 63.2734C125.675 63.6484 125.818 64.0413 125.968 64.4556C126.082 64.7734 126.2 65.0913 126.329 65.402C126.565 66.077 126.718 66.7556 126.886 67.4771L126.982 67.8985L126.99 67.9271L127 67.9557C127.193 68.5557 127.297 69.1843 127.404 69.8486L127.44 70.07V70.0986L127.45 70.1271C127.657 70.9878 127.772 71.7486 127.8 72.4522V72.4843L127.804 72.5164C127.904 73.3558 128.018 74.3058 128.082 75.2308V75.2558L128.086 75.2772C128.222 76.3237 128.282 77.1915 128.279 77.9987C128.315 79.338 128.343 80.8952 128.272 82.4595C128.207 83.2809 128.19 84.1274 128.175 84.9488L128.157 85.6774C128.032 88.1203 128.175 90.6025 128.315 92.999L128.382 94.2026C128.411 95.1705 128.361 96.1919 128.311 97.1776C128.275 97.9491 128.236 98.7491 128.232 99.5455C128.24 101.063 128.225 102.606 128.207 104.096C128.182 106.517 128.154 109.024 128.232 111.496C128.336 114.196 128.304 116.949 128.275 119.61C128.25 121.803 128.225 124.071 128.275 126.307C128.393 129.014 128.4 131.728 128.293 134.4C128.229 136.932 128.207 139.521 128.225 142.336C128.225 144.032 128.311 145.754 128.397 147.414C128.465 148.732 128.532 150.096 128.554 151.436C128.565 155.664 128.543 159.229 128.407 162.847C128.4 163.129 128.497 163.393 128.675 163.604C128.69 163.643 128.704 163.682 128.718 163.722C128.74 163.782 128.775 163.875 128.786 163.918C128.743 164.329 128.757 164.729 128.772 165.115C128.782 165.418 128.793 165.704 128.772 165.975C128.672 166.854 128.632 167.811 128.64 169.054C128.636 169.211 128.625 169.397 128.618 169.579C128.597 169.983 128.579 170.397 128.597 170.825C128.64 171.833 128.704 173.025 128.822 174.233V174.333C128.836 175.576 128.85 176.865 128.732 178.101C128.711 178.261 128.679 178.447 128.65 178.629C128.59 178.979 128.529 179.343 128.515 179.733V179.822C128.504 180.254 128.493 180.661 128.407 181.033C128.361 181.219 128.243 181.426 128.104 181.661C127.997 181.844 127.89 182.029 127.793 182.244C127.729 182.383 127.668 182.529 127.607 182.676L127.504 182.919C127.104 183.79 126.686 184.558 126.236 185.254C126.004 185.547 125.7 185.804 125.379 186.079C125.236 186.201 125.089 186.322 124.95 186.451C124.829 186.551 124.693 186.679 124.557 186.808C124.389 186.965 124.232 187.115 124.072 187.229C123.807 187.358 123.522 187.458 123.222 187.569C122.907 187.683 122.582 187.801 122.257 187.954C119.164 188.987 115.675 189.026 112.868 189.061C112.529 189.054 112.164 189.054 111.8 189.054C111.311 189.054 110.821 189.058 110.332 189.061C109.846 189.065 109.361 189.069 108.875 189.069C108.557 189.069 108.239 189.069 107.921 189.061C107.314 189.047 106.7 189.033 106.086 189.015C104.728 188.979 103.325 188.944 101.943 188.944C100.907 188.944 99.9783 188.965 99.0997 189.004C98.3211 189.033 97.5104 189.044 96.6389 189.044C94.321 189.044 91.9603 188.947 89.6745 188.851L89.2317 188.833C88.4066 188.833 87.6102 188.815 86.8102 188.797C85.9566 188.779 85.0744 188.762 84.203 188.762C83.5423 188.762 82.953 188.772 82.3958 188.794C81.4958 188.829 80.5315 188.844 79.2779 188.844C78.7279 188.844 78.1743 188.844 77.6243 188.836C77.0707 188.836 76.5171 188.829 75.9635 188.829C74.8671 188.829 73.9814 188.84 73.1706 188.869C72.4456 188.894 71.7242 188.929 71.0027 188.969C70.1563 189.015 69.2777 189.062 68.4206 189.079C68.242 189.079 68.0455 189.079 67.8527 189.079C67.0098 189.079 66.1669 189.069 65.3241 189.054C64.5562 189.044 63.7883 189.033 63.0169 189.033H62.274C61.2026 189.033 60.1311 189.033 59.0597 189.04C57.9882 189.044 56.9203 189.047 55.8489 189.047C55.3739 189.047 54.8989 189.047 54.4239 189.047C52.6024 188.99 50.7238 188.79 48.9095 188.597L48.3416 188.536C48.1523 188.372 47.9094 188.272 47.6452 188.258C47.4094 188.233 47.1737 188.212 46.9344 188.19C46.1201 188.119 45.3523 188.051 44.6987 187.744C43.5022 187.172 42.6522 186.04 42.0486 185.115C41.8308 184.79 41.6058 184.486 41.3879 184.194L41.2093 183.954C40.87 183.411 40.6272 182.786 40.4879 182.086C40.1165 180.076 39.9022 178.115 39.8522 176.265C39.845 173.951 39.845 171.615 39.8486 169.283C39.8486 166.808 39.8521 164.332 39.8414 161.857C39.6664 152.214 39.6879 142.411 39.7093 133.768C39.7271 130.21 39.6093 126.603 39.4914 123.114L39.4557 122.014C39.445 120.567 39.4271 119.099 39.4093 117.632C39.3914 116.107 39.3736 114.582 39.3629 113.053C39.345 111.664 39.295 110.26 39.245 108.903C39.1593 106.592 39.0736 104.199 39.1486 101.86V101.613C39.17 99.367 39.1914 97.0455 39.295 94.7704C39.3521 92.4597 39.3379 90.0489 39.2486 87.3953C39.2414 86.7917 39.2129 86.1703 39.1843 85.5667C39.1629 85.1274 39.145 84.6881 39.1307 84.2488L39.1236 84.0988C39.1129 83.8452 39.1021 83.5667 39.0414 83.2738C39.1771 83.0809 39.2521 82.8488 39.2486 82.6131C39.2664 82.1809 39.2521 81.7202 39.2379 81.2773C39.2307 81.1059 39.2271 80.9345 39.2236 80.763C39.2093 80.0273 39.2343 79.2487 39.2986 78.3166V78.2951V78.2737V78.1773C39.3129 77.2915 39.3271 76.4522 39.4914 75.6415C39.6736 74.9629 39.7521 74.2843 39.8307 73.6308C39.8843 73.1986 39.9307 72.7879 40.0057 72.3843C40.1772 71.6521 40.3379 70.87 40.4915 70.1128C40.7807 68.695 41.0807 67.2306 41.5165 65.8485C42.1629 64.2663 42.9201 62.7984 43.7594 61.4948C44.0344 61.0448 44.2415 60.5984 44.4415 60.1662C44.6665 59.6805 44.8808 59.2233 45.1558 58.8162C45.3737 58.509 45.638 58.209 45.9166 57.8912C46.1808 57.5912 46.4558 57.2804 46.7094 56.9376C46.8059 56.8126 46.9094 56.6733 47.0094 56.534C47.2237 56.2447 47.4273 55.9697 47.6452 55.7197C48.0094 55.3304 48.4237 54.959 48.8595 54.5661C48.9988 54.4411 49.1416 54.3161 49.2809 54.1875C49.5452 53.9625 49.8238 53.7125 50.1023 53.4625C50.6631 52.9554 51.1952 52.4804 51.781 52.0768C52.2131 51.7732 52.7131 51.5625 53.2417 51.3411C53.4024 51.2732 53.5631 51.2053 53.7238 51.1375C54.0596 50.9875 54.3881 50.8339 54.7167 50.6803C55.0382 50.5303 55.3596 50.3803 55.6846 50.2339C56.1525 50.0375 56.6168 49.8017 57.0668 49.5732C57.8811 49.1589 58.6525 48.766 59.4775 48.5874H59.5025L59.5275 48.5767C59.7847 48.5017 60.0632 48.4517 60.3561 48.3981C60.8597 48.3053 61.3847 48.2124 61.9061 47.9803C61.9919 47.941 62.1847 47.8588 62.3811 47.7446C62.4419 47.7303 62.5026 47.716 62.5597 47.6981C62.8204 47.666 63.0669 47.5481 63.249 47.3624C63.3312 47.2838 63.3883 47.191 63.424 47.1195C63.6633 46.8088 63.7847 46.4481 63.7705 46.0945C63.7597 45.8374 63.6848 45.6267 63.5848 45.4445C63.6312 45.4338 63.6776 45.4231 63.724 45.4052C64.3169 45.4588 64.8705 45.4838 65.4134 45.4838C65.5026 45.4838 65.5919 45.4838 65.6848 45.4838C65.8205 45.4874 65.9919 45.4909 66.1634 45.4909C67.1812 45.4909 68.1955 45.4017 69.1741 45.3124C69.7563 45.2588 70.3599 45.2052 70.9492 45.1731C71.5742 45.1338 72.2421 45.1195 72.8849 45.1052L73.5242 45.0909L73.8278 45.0731C74.3921 45.0374 74.9278 45.0017 75.4743 45.0017H75.6778C76.3386 45.0017 76.9671 44.9624 77.5743 44.9231C78.185 44.8838 78.7636 44.8481 79.3457 44.8481H79.3922C80.7779 44.7874 82.1208 44.7802 83.1387 44.7802C83.6851 44.7802 84.2316 44.7802 84.778 44.7838C85.328 44.7838 85.8744 44.7874 86.4244 44.7874C86.7209 44.7874 87.0173 44.7874 87.3102 44.7874C87.6173 44.7945 87.9459 44.7981 88.2745 44.7981C89.1245 44.7981 89.9817 44.7767 90.8103 44.7588C91.3638 44.7445 91.9174 44.7338 92.471 44.7231C93.171 44.7088 93.8639 44.6624 94.5317 44.6195C95.0603 44.5838 95.5853 44.5481 96.1175 44.5302C96.6104 44.5231 97.1247 44.5195 97.6354 44.5159C98.9497 44.5052 100.307 44.4945 101.653 44.4195C101.885 44.4088 102.125 44.4016 102.36 44.3945C102.928 44.3802 103.518 44.3659 104.118 44.2695L104.128 44.2481Z" fill="white"/>
</svg>
