<svg width="12" height="14" viewBox="0 0 12 14" fill="none" xmlns="http://www.w3.org/2000/svg">
<path d="M0.992658 0.540003C1.11266 0.460003 1.25266 0.420003 1.41266 0.420003C1.55932 0.433337 1.67932 0.493337 1.77266 0.600003C2.03932 0.840003 2.39932 1.38667 2.85266 2.24C3.06599 2.64 3.36599 3.12667 3.75266 3.7C4.21932 4.39334 4.52599 4.83334 4.67266 5.02C4.87266 5.24667 5.09932 5.56 5.35266 5.96C5.57932 6.37333 5.69266 6.64667 5.69266 6.78C5.69266 6.94 5.60599 7.16 5.43266 7.44C5.29932 7.66667 5.11266 8.00667 4.87266 8.46C4.65932 8.87333 4.49932 9.15333 4.39266 9.3C4.29932 9.42 3.97266 10.0333 3.41266 11.14C2.73266 12.4733 2.26599 13.24 2.01266 13.44C1.91932 13.5067 1.74599 13.54 1.49266 13.54C1.34599 13.54 1.23266 13.5267 1.15266 13.5C1.09932 13.4867 1.03932 13.42 0.972658 13.3C0.879324 13.1667 0.832658 13.02 0.832658 12.86C0.832658 12.6733 0.892658 12.4933 1.01266 12.32C1.15932 12.0933 1.49266 11.4733 2.01266 10.46C2.57266 9.35333 2.89266 8.74667 2.97266 8.64C3.15932 8.4 3.37932 8.02 3.63266 7.5C3.85932 7.02 3.97266 6.74 3.97266 6.66C3.97266 6.59333 3.77266 6.3 3.37266 5.78C2.97266 5.22 2.69932 4.82 2.55266 4.58C2.32599 4.20667 2.17932 3.97334 2.11266 3.88C1.99266 3.69334 1.81266 3.37334 1.57266 2.92C1.33266 2.46667 1.15266 2.16 1.03266 2C0.872658 1.78667 0.785991 1.51334 0.772658 1.18V1.08C0.772658 0.800003 0.845991 0.620003 0.992658 0.540003ZM6.52 0.540003C6.64 0.460003 6.78 0.420003 6.94 0.420003C7.08667 0.433337 7.20667 0.493337 7.3 0.600003C7.56667 0.840003 7.92667 1.38667 8.38 2.24C8.59333 2.64 8.89333 3.12667 9.28 3.7C9.74667 4.39334 10.0533 4.83334 10.2 5.02C10.4 5.24667 10.6267 5.56 10.88 5.96C11.1067 6.37333 11.22 6.64667 11.22 6.78C11.22 6.94 11.1333 7.16 10.96 7.44C10.8267 7.66667 10.64 8.00667 10.4 8.46C10.1867 8.87333 10.0267 9.15333 9.92 9.3C9.82667 9.42 9.5 10.0333 8.94 11.14C8.26 12.4733 7.79333 13.24 7.54 13.44C7.44667 13.5067 7.27333 13.54 7.02 13.54C6.87333 13.54 6.76 13.5267 6.68 13.5C6.62667 13.4867 6.56667 13.42 6.5 13.3C6.40667 13.1667 6.36 13.02 6.36 12.86C6.36 12.6733 6.42 12.4933 6.54 12.32C6.68667 12.0933 7.02 11.4733 7.54 10.46C8.1 9.35333 8.42 8.74667 8.5 8.64C8.68667 8.4 8.90667 8.02 9.16 7.5C9.38667 7.02 9.5 6.74 9.5 6.66C9.5 6.59333 9.3 6.3 8.9 5.78C8.5 5.22 8.22667 4.82 8.08 4.58C7.85333 4.20667 7.70667 3.97334 7.64 3.88C7.52 3.69334 7.34 3.37334 7.1 2.92C6.86 2.46667 6.68 2.16 6.56 2C6.4 1.78667 6.31333 1.51334 6.3 1.18V1.08C6.3 0.800003 6.37333 0.620003 6.52 0.540003Z" fill="#C9C9C9" fill-opacity="0.6"/>
</svg>
