<svg width="242" height="396" viewBox="0 0 242 396" fill="none" xmlns="http://www.w3.org/2000/svg">
<path d="M65.34 14.0609C65.34 14.0609 65.34 14.0437 65.34 14.0369C65.34 14.0437 65.3366 14.054 65.3331 14.0609C65.3331 14.0609 65.3366 14.0609 65.34 14.0609Z" fill="white"/>
<path d="M63.7166 0.241609C63.7301 0.228 63.7403 0.214394 63.7538 0.200786C63.764 0.190579 63.7708 0.18379 63.781 0.173584C63.7606 0.197398 63.7369 0.217794 63.7166 0.241609Z" fill="white"/>
<path d="M239.94 349.354C239.686 346.973 239.534 344.592 239.448 342.197C239.296 340.491 239.402 338.789 239.478 337.083C239.541 335.129 239.422 333.367 239.607 331.36C239.805 329.498 239.967 327.627 239.769 325.756C239.742 324.888 239.904 324.017 239.838 323.152C239.729 322.295 239.471 321.45 239.121 320.658C239.071 320.546 238.995 320.45 238.906 320.374C238.959 318.426 239.051 316.479 239.121 314.531C239.157 307.937 239.322 301.346 239.273 294.751C239.326 284.471 238.238 274.22 238.42 263.936C238.262 254.235 238.89 244.543 238.777 234.846C238.678 229.172 238.41 223.502 238.48 217.828C238.486 210.797 238.688 203.765 238.599 196.734C238.625 192.597 238.417 188.463 238.318 184.33C238.235 180.239 238.364 176.146 238.381 172.055C238.433 164.093 238.331 156.124 238.813 148.172C238.979 141.011 237.934 133.883 238.133 126.716C238.212 121.98 238.341 117.247 238.605 112.517C238.635 107.254 238.757 101.965 238.219 96.7251C237.888 94.198 237.815 91.641 237.425 89.1205C237.194 86.663 237.062 84.1988 236.388 81.8107C236.14 80.5389 236.004 79.2505 235.73 77.9853C235.472 76.7996 235.072 75.6503 234.824 74.4646C234.296 71.8712 233.529 69.1586 232.478 66.7043C231.952 65.3398 231.556 63.9123 230.832 62.594C229.907 61.1367 229.252 59.5502 228.555 57.977C227.349 55.5989 225.643 53.5156 224.325 51.1972C223.641 50.0114 222.778 48.9416 221.77 48.0143C220.508 46.696 219.285 45.3414 217.993 44.053C216.859 42.7414 215.676 41.4795 214.288 40.4296C212.695 38.9524 211.303 37.2698 209.565 35.9516C207.856 34.544 206.012 33.3152 204.102 32.199C202.711 31.1756 201.356 30.0892 199.839 29.2546C196.742 27.6549 193.427 26.5155 190.287 25.0118C188.523 24.0314 186.48 23.8095 184.659 22.965C183.691 22.5708 182.683 22.3125 181.685 22.0144C180.419 21.5374 179.097 21.2625 177.742 21.2758C177.683 20.9446 177.455 20.6366 177.008 20.4974C177.025 20.2358 177.038 19.9774 177.094 19.6926C178.049 19.1792 179.014 18.2088 178.912 17.0396C178.71 16.1487 178.056 15.4266 177.402 14.8238C179.771 13.4295 178.291 11.5051 177.012 9.93188C177.322 9.498 177.778 9.21649 178.172 8.86872C179.722 7.53064 178.74 6.15279 177.593 4.98031C177.527 4.91738 177.461 4.84783 177.395 4.77497C177.306 4.4007 177.018 4.08606 176.585 4.0165C175.382 3.8244 174.735 5.36121 175.881 5.92427C175.941 5.94745 176.004 5.96069 176.07 5.97394C176.377 6.40782 176.734 6.81853 176.989 7.27229C176 8.13012 174.169 9.49801 175.26 10.9355C175.835 11.5118 176.275 12.2073 176.678 12.9128C175.743 13.4924 174.513 14.7609 175.531 15.8208C176.03 16.2646 176.592 16.6587 176.912 17.2648C176.559 17.9736 175.551 18.0664 175.296 18.8745C175.006 19.5899 175.078 20.4014 174.976 21.1565C174.956 21.5474 175.158 21.9614 175.508 22.1469C175.633 22.233 175.776 22.2595 175.921 22.2793C176.09 22.4748 176.334 22.6039 176.599 22.6238C176.651 22.6569 176.708 22.6867 176.764 22.7099C177.484 23.0776 178.31 23.0776 179.09 23.2299C180.475 23.581 181.807 24.1109 183.182 24.5017C184.729 25.141 186.295 25.6941 187.915 26.118C191.279 27.6383 194.683 29.089 198.074 30.5529C199.776 31.3909 201.27 32.5435 202.79 33.6895C203.629 34.279 204.555 34.7361 205.401 35.3157C206.898 36.3391 208.346 37.4421 209.701 38.6477C210.94 39.7638 211.978 41.0887 213.267 42.1519C214.863 43.3343 215.917 44.775 217.351 46.2191C218.703 47.587 219.972 49.0377 221.344 50.3824C222.487 51.747 223.277 53.3666 224.285 54.8305C225.058 56.0924 225.981 57.2583 226.658 58.5765C227.431 60.3551 228.211 62.1237 229.229 63.7831C230.085 65.6312 230.667 67.5953 231.447 69.4799C232.214 71.6824 232.67 73.8717 233.205 76.1537C233.803 78.0217 234.084 79.9494 234.401 81.877C234.907 83.9736 235.271 86.0867 235.353 88.2461C235.634 90.601 235.912 92.9559 236.074 95.3241C236.384 97.7353 236.596 100.153 236.586 102.584C236.695 106.43 236.745 110.285 236.566 114.13C236.358 116.869 236.345 119.612 236.275 122.357C235.905 129.617 236.457 136.868 236.857 144.111C236.989 148.731 236.493 153.335 236.477 157.956C236.53 168.17 236.15 178.388 236.474 188.599C236.953 201.291 236.312 213.989 236.586 226.685C236.89 233.653 236.91 240.632 236.632 247.604C236.46 254.37 236.417 261.14 236.464 267.91C236.464 275.707 237.164 283.484 237.306 291.277C237.33 301.091 237.293 310.904 236.933 320.711C236.926 321.049 237.108 321.351 237.376 321.53C237.538 322.175 237.958 322.901 237.895 323.52C237.693 325.295 237.987 327.061 237.862 328.829C237.571 331.423 237.511 333.966 237.531 336.586C237.492 338.08 237.349 339.574 237.419 341.068C237.548 343.985 237.706 346.9 238.001 349.805C238.04 353.216 238.09 356.651 237.763 360.052C237.591 361.417 237.264 362.762 237.207 364.14C237.181 365.378 237.168 366.634 236.883 367.846C236.566 369.114 235.717 370.131 235.191 371.31C234.934 371.877 234.699 372.453 234.451 373.026C233.443 375.218 232.309 377.365 230.997 379.388C229.986 380.703 228.628 381.674 227.408 382.777C226.532 383.505 225.779 384.386 224.827 385.019C223.247 385.807 221.509 386.231 219.923 387.003C211.961 389.689 203.458 389.888 195.119 389.987C190.872 389.918 186.632 390.05 182.382 389.99C174.883 389.835 167.378 389.49 159.879 389.848C151.382 390.146 142.888 389.762 134.398 389.411C128.608 389.394 122.811 389.083 117.024 389.308C109.149 389.619 101.233 389.252 93.3478 389.51C89.2761 389.643 85.2144 389.961 81.1427 390.057C76.5059 390.09 71.8758 389.954 67.2423 389.941C59.8921 389.927 52.5586 390 45.1985 389.97C39.633 389.798 34.1039 389.136 28.5715 388.556C28.4426 388.215 28.1386 387.943 27.6726 387.94C24.913 387.616 21.9881 387.629 19.4268 386.437C16.1285 384.86 13.7721 381.975 11.809 378.971C11.1348 377.961 10.3945 377.004 9.67401 376.027C8.60652 374.341 7.90588 372.443 7.5159 370.492C6.58722 365.448 5.98903 360.324 5.85022 355.194C5.80726 342.836 5.87666 330.475 5.82378 318.115C5.38423 294.046 5.42719 269.974 5.48338 245.901C5.53625 235.853 5.1628 225.807 4.83231 215.765C4.76621 208.074 4.65384 200.383 4.59105 192.689C4.46216 183.071 3.73177 173.459 4.03913 163.841C4.09531 157.754 4.14158 151.669 4.41919 145.585C4.57783 139.318 4.50843 133.049 4.30022 126.782C4.27048 124.08 4.07879 121.384 4.00608 118.681C3.96642 117.86 3.96642 117.018 3.7483 116.217C3.66567 115.925 3.50043 115.528 3.20629 115.399C3.24925 115.405 3.29222 115.412 3.33518 115.412C3.34179 115.412 3.34841 115.412 3.35502 115.412C3.87719 115.412 4.32005 114.948 4.31674 114.428C4.37954 112.855 4.28369 111.282 4.25395 109.712C4.21098 107.552 4.30022 105.393 4.45224 103.24C4.4886 100.832 4.50843 98.4143 5.00086 96.0461C5.73125 93.3335 5.79404 90.5182 6.3063 87.7626C7.63488 82.0658 8.49746 76.2398 10.2623 70.6524C11.8982 66.6315 13.8679 62.7133 16.2144 59.0601C17.5694 56.831 18.3593 54.3039 19.8168 52.1345C21.0297 50.399 22.5929 48.9482 23.8455 47.2359C24.6816 46.1429 25.455 45.0036 26.3605 43.9702C27.7155 42.5096 29.2424 41.2212 30.7131 39.8798C32.9175 38.0084 34.95 35.9285 37.3394 34.2857C38.9621 33.1397 40.8459 32.4839 42.6504 31.6923C44.326 30.9371 45.9785 30.1356 47.6541 29.3805C51.0383 27.953 54.1449 25.8067 57.7704 25.0151C59.7005 24.462 61.7594 24.3991 63.6102 23.5777C63.8514 23.4717 64.4199 23.2266 64.876 22.9219C65.1635 22.8557 65.4543 22.7927 65.7286 22.7033C65.7319 22.7033 65.7352 22.7033 65.7385 22.7033C65.993 22.7033 66.2508 22.6072 66.4326 22.4184C66.5317 22.3224 66.5912 22.2098 66.6375 22.0939C66.9878 21.6799 67.239 21.1599 67.2158 20.6167C67.1597 19.4144 65.9005 18.8215 65.1833 18.0067C65.8509 17.4569 66.7465 17.1059 67.0803 16.2315C67.6851 14.7344 65.9666 13.8832 65.0511 13.0519C65.6262 11.9158 67.0175 11.4356 67.5959 10.273C68.1974 8.9184 66.5119 8.36858 65.7451 7.6333C65.9831 7.31202 66.2409 7.00732 66.5086 6.70923C67.0109 6.57344 67.4736 6.1826 67.6124 5.70566C67.976 4.63254 66.7201 4.05626 65.9699 4.76835C65.7518 4.83128 65.5303 4.97702 65.3651 5.16581C65.3155 5.18237 65.2659 5.19561 65.2197 5.21548C65.2031 5.2221 65.1866 5.22873 65.1701 5.23867C65.1701 5.23867 65.1635 5.23867 65.1602 5.24198C64.8561 5.58644 64.5851 5.98058 64.2976 6.28198C63.0153 7.72605 64.0398 9.031 65.4114 9.8524C64.2976 10.8295 62.5691 12.1145 63.1871 13.8037C63.5672 14.6317 64.486 15.0391 65.1172 15.6419C63.9638 16.3341 62.4898 17.4967 63.4251 18.9706C63.9109 19.6462 64.6347 20.1199 65.2031 20.7227C65.18 20.7558 65.1536 20.7889 65.1271 20.822C64.3637 21.0141 62.5724 21.3917 61.9115 22.18C61.6504 22.2595 61.4025 22.3191 61.1877 22.3323C58.9635 22.7033 56.5112 23.1504 54.3597 23.9983C51.2333 25.3563 48.3712 26.9759 45.1919 28.3272C42.6901 29.5924 40.0395 30.5397 37.5509 31.8181C33.9882 33.9114 31.1493 36.9883 28.0229 39.6479C26.648 40.9032 25.2236 42.1254 24.09 43.6158C22.5301 45.7985 20.8545 47.8288 19.0732 49.8425C16.8159 52.4955 15.9566 55.9632 14.0299 58.8282C12.5195 61.1135 11.3661 63.6109 10.1466 66.0585C9.30385 67.7311 8.5272 69.4467 8.00833 71.2518C6.72272 75.7364 5.92954 80.3468 4.92154 84.8976C4.45885 86.865 4.06557 88.849 3.87719 90.8627C3.7516 92.638 3.35832 94.3636 2.98817 96.0991C2.49574 98.6063 2.55853 101.16 2.46269 103.697C2.13219 107.264 2.39328 110.838 2.36023 114.412C2.35362 114.706 2.49573 114.975 2.71055 115.157C2.66098 115.213 2.63454 115.293 2.65437 115.372C2.15863 117.595 2.3371 119.926 2.31727 122.198C2.42303 128.64 2.61471 135.086 2.53209 141.528C2.49574 145.072 2.36684 148.609 2.22473 152.15C2.08923 158.29 2.07601 164.434 2 170.578C2.08593 176.685 2.39989 182.79 2.55192 188.894C2.72047 197.691 2.78327 206.488 2.85928 215.281C3.13689 224.115 3.4806 232.951 3.52026 241.791C3.49382 267.059 3.38145 292.33 3.85736 317.598C3.90032 327.75 3.86067 337.901 3.87388 348.053C3.74169 356.108 4.12175 364.212 5.87336 372.098C6.4385 374.188 7.3176 376.239 8.66601 377.944C10.5762 380.455 12.1362 383.26 14.5058 385.387C18.5213 389.142 22.0674 389.424 27.1537 389.845C29.9893 390.653 32.9142 391.017 35.8489 391.249C41.9564 391.988 48.1101 392.011 54.2507 391.885C58.9106 391.925 63.6862 391.888 68.366 391.885C72.2261 391.915 76.03 392.017 79.9001 391.997C84.4774 391.997 89.0415 391.583 93.6188 391.444C99.0322 391.266 104.442 391.411 109.859 391.388C113.293 391.398 116.723 391.242 120.154 391.15C129.665 391.213 139.167 391.547 148.672 391.872C155.15 392.001 161.614 391.696 168.092 391.62C172.411 391.653 176.724 391.832 181.044 391.911C185.082 392.011 189.081 391.892 193.126 391.911C200.351 391.921 207.635 391.835 214.744 390.398C216.634 389.891 218.584 389.57 220.425 388.901C222.15 388.063 224.037 387.602 225.743 386.735C227.302 385.728 228.522 384.274 229.983 383.128C231.434 381.935 232.772 380.567 233.618 378.868C234.362 377.481 235.234 376.047 235.905 374.553C236.444 373.413 236.867 372.221 237.488 371.121C238.116 370.108 238.681 369.038 238.89 367.849C239.197 366.339 239.085 364.789 239.25 363.265C239.742 360.526 240.023 357.757 239.95 354.972C239.957 353.153 240.063 351.206 239.944 349.348L239.94 349.354Z" fill="white"/>
</svg>
