<svg width="721" height="1173" viewBox="0 0 721 1173" fill="none" xmlns="http://www.w3.org/2000/svg">
<path d="M720.82 1043.47C720.05 1036.28 719.59 1029.09 719.33 1021.86C718.87 1016.71 719.19 1011.57 719.42 1006.42C719.61 1000.52 719.25 995.2 719.81 989.14C720.41 983.52 720.9 977.87 720.3 972.22C720.22 969.6 720.71 966.97 720.51 964.36C720.18 961.77 719.4 959.22 718.34 956.83C718.19 956.49 717.96 956.2 717.69 955.97C717.85 950.09 718.13 944.21 718.34 938.33C718.45 918.42 718.95 898.52 718.8 878.61C718.96 847.57 715.67 816.62 716.22 785.57C715.74 756.28 717.64 727.02 717.3 697.74C717 680.61 716.19 663.49 716.4 646.36C716.42 625.13 717.03 603.9 716.76 582.67C716.84 570.18 716.21 557.7 715.91 545.22C715.66 532.87 716.05 520.51 716.1 508.16C716.26 484.12 715.95 460.06 717.41 436.05C717.91 414.43 714.75 392.91 715.35 371.27C715.59 356.97 715.98 342.68 716.78 328.4C716.87 312.51 717.24 296.54 715.61 280.72C714.61 273.09 714.39 265.37 713.21 257.76C712.51 250.34 712.11 242.9 710.07 235.69C709.32 231.85 708.91 227.96 708.08 224.14C707.3 220.56 706.09 217.09 705.34 213.51C703.74 205.68 701.42 197.49 698.24 190.08C696.65 185.96 695.45 181.65 693.26 177.67C690.46 173.27 688.48 168.48 686.37 163.73C682.72 156.55 677.56 150.26 673.57 143.26C671.5 139.68 668.89 136.45 665.84 133.65C662.02 129.67 658.32 125.58 654.41 121.69C650.98 117.73 647.4 113.92 643.2 110.75C638.38 106.29 634.17 101.21 628.91 97.2296C623.74 92.9796 618.16 89.2696 612.38 85.8996C608.17 82.8096 604.07 79.5296 599.48 77.0096C590.11 72.1796 580.08 68.7396 570.58 64.1996C565.24 61.2396 559.06 60.5696 553.55 58.0196C550.62 56.8296 547.57 56.0496 544.55 55.1496C540.72 53.7096 536.72 52.8796 532.62 52.9196C532.44 51.9196 531.75 50.9896 530.4 50.5696C530.45 49.7796 530.49 48.9996 530.66 48.1396C533.55 46.5896 536.47 43.6596 536.16 40.1296C535.55 37.4396 533.57 35.2596 531.59 33.4396C538.76 29.2296 534.28 23.4196 530.41 18.6696C531.35 17.3596 532.73 16.5096 533.92 15.4596C538.61 11.4196 535.64 7.25957 532.17 3.71957C531.97 3.52957 531.77 3.31958 531.57 3.09958C531.3 1.96958 530.43 1.0196 529.12 0.809598C525.48 0.229598 523.52 4.86961 526.99 6.56961C527.17 6.63961 527.36 6.67957 527.56 6.71957C528.49 8.02957 529.57 9.26962 530.34 10.6396C527.35 13.2296 521.81 17.3596 525.11 21.6996C526.85 23.4396 528.18 25.5396 529.4 27.6696C526.57 29.4196 522.85 33.2496 525.93 36.4496C527.44 37.7896 529.14 38.9796 530.11 40.8096C529.04 42.9496 525.99 43.2296 525.22 45.6696C524.34 47.8296 524.56 50.2796 524.25 52.5596C524.19 53.7396 524.8 54.9896 525.86 55.5496C526.24 55.8096 526.67 55.8896 527.11 55.9496C527.62 56.5396 528.36 56.9296 529.16 56.9896C529.32 57.0896 529.49 57.1796 529.66 57.2496C531.84 58.3596 534.34 58.3596 536.7 58.8196C540.89 59.8796 544.92 61.4796 549.08 62.6596C553.76 64.5896 558.5 66.2596 563.4 67.5396C573.58 72.1296 583.88 76.5096 594.14 80.9296C599.29 83.4596 603.81 86.9396 608.41 90.3996C610.95 92.1796 613.75 93.5596 616.31 95.3096C620.84 98.3996 625.22 101.73 629.32 105.37C633.07 108.74 636.21 112.74 640.11 115.95C644.94 119.52 648.13 123.87 652.47 128.23C656.56 132.36 660.4 136.74 664.55 140.8C668.01 144.92 670.4 149.81 673.45 154.23C675.79 158.04 678.58 161.56 680.63 165.54C682.97 170.91 685.33 176.25 688.41 181.26C691 186.84 692.76 192.77 695.12 198.46C697.44 205.11 698.82 211.72 700.44 218.61C702.25 224.25 703.1 230.07 704.06 235.89C705.59 242.22 706.69 248.6 706.94 255.12C707.79 262.23 708.63 269.34 709.12 276.49C710.06 283.77 710.7 291.07 710.67 298.41C711 310.02 711.15 321.66 710.61 333.27C709.98 341.54 709.94 349.82 709.73 358.11C708.61 380.03 710.28 401.92 711.49 423.79C711.89 437.74 710.39 451.64 710.34 465.59C710.5 496.43 709.35 527.28 710.33 558.11C711.78 596.43 709.84 634.77 710.67 673.1C711.59 694.14 711.65 715.21 710.81 736.26C710.29 756.69 710.16 777.13 710.3 797.57C710.3 821.11 712.42 844.59 712.85 868.12C712.92 897.75 712.81 927.38 711.72 956.99C711.7 958.01 712.25 958.92 713.06 959.46C713.55 961.41 714.82 963.6 714.63 965.47C714.02 970.83 714.91 976.16 714.53 981.5C713.65 989.33 713.47 997.01 713.53 1004.92C713.41 1009.43 712.98 1013.94 713.19 1018.45C713.58 1027.26 714.06 1036.06 714.95 1044.83C715.07 1055.13 715.22 1065.5 714.23 1075.77C713.71 1079.89 712.72 1083.95 712.55 1088.11C712.47 1091.85 712.43 1095.64 711.57 1099.3C710.61 1103.13 708.04 1106.2 706.45 1109.76C705.67 1111.47 704.96 1113.21 704.21 1114.94C701.16 1121.56 697.73 1128.04 693.76 1134.15C690.7 1138.12 686.59 1141.05 682.9 1144.38C680.25 1146.58 677.97 1149.24 675.09 1151.15C670.31 1153.53 665.05 1154.81 660.25 1157.14C636.16 1165.25 610.43 1165.85 585.2 1166.15C572.35 1165.94 559.52 1166.34 546.66 1166.16C523.97 1165.69 501.26 1164.65 478.57 1165.73C452.86 1166.63 427.16 1165.47 401.47 1164.41C383.95 1164.36 366.41 1163.42 348.9 1164.1C325.07 1165.04 301.12 1163.93 277.26 1164.71C264.94 1165.11 252.65 1166.07 240.33 1166.36C226.3 1166.46 212.29 1166.05 198.27 1166.01C176.03 1165.97 153.84 1166.19 131.57 1166.1C114.73 1165.58 98 1163.58 81.26 1161.83C80.87 1160.8 79.95 1159.98 78.54 1159.97C70.19 1158.99 61.34 1159.03 53.59 1155.43C43.61 1150.67 36.48 1141.96 30.54 1132.89C28.5 1129.84 26.26 1126.95 24.08 1124C20.85 1118.91 18.73 1113.18 17.55 1107.29C14.74 1092.06 12.93 1076.59 12.51 1061.1C12.38 1023.79 12.59 986.47 12.43 949.15C11.1 876.48 11.23 803.8 11.4 731.12C11.56 700.78 10.43 670.45 9.42999 640.13C9.22999 616.91 8.89 593.69 8.7 570.46C8.31 541.42 6.1 512.4 7.03 483.36C7.2 464.98 7.33999 446.61 8.17999 428.24C8.65999 409.32 8.45001 390.39 7.82001 371.47C7.73001 363.31 7.14999 355.17 6.92999 347.01C6.80999 344.53 6.80999 341.99 6.14999 339.57C5.89999 338.69 5.39999 337.49 4.50999 337.1C4.63999 337.12 4.76999 337.14 4.89999 337.14C4.91999 337.14 4.94001 337.14 4.96001 337.14C6.54001 337.14 7.88 335.74 7.87 334.17C8.06 329.42 7.76999 324.67 7.67999 319.93C7.54999 313.41 7.82 306.89 8.28 300.39C8.39 293.12 8.45 285.82 9.94 278.67C12.15 270.48 12.34 261.98 13.89 253.66C17.91 236.46 20.52 218.87 25.86 202C30.81 189.86 36.77 178.03 43.87 167C47.97 160.27 50.36 152.64 54.77 146.09C58.44 140.85 63.17 136.47 66.96 131.3C69.49 128 71.83 124.56 74.57 121.44C78.67 117.03 83.29 113.14 87.74 109.09C94.41 103.44 100.56 97.1596 107.79 92.1996C112.7 88.7396 118.4 86.7596 123.86 84.3696C128.93 82.0896 133.93 79.6696 139 77.3896C149.24 73.0796 158.64 66.5996 169.61 64.2096C175.45 62.5396 181.68 62.3496 187.28 59.8696C188.01 59.5496 189.73 58.8096 191.11 57.8896C191.98 57.6896 192.86 57.4996 193.69 57.2296C193.7 57.2296 193.71 57.2296 193.72 57.2296C194.49 57.2296 195.27 56.9396 195.82 56.3696C196.12 56.0796 196.3 55.7396 196.44 55.3896C197.5 54.1396 198.26 52.5696 198.19 50.9296C198.02 47.2996 194.21 45.5096 192.04 43.0496C194.06 41.3896 196.77 40.3296 197.78 37.6896C199.61 33.1696 194.41 30.5996 191.64 28.0896C193.38 24.6596 197.59 23.2096 199.34 19.6996C201.16 15.6096 196.06 13.9496 193.74 11.7296C194.46 10.7596 195.24 9.8396 196.05 8.9396C197.57 8.5296 198.97 7.34957 199.39 5.90957C200.49 2.66957 196.69 0.929617 194.42 3.07962C193.76 3.26962 193.09 3.70963 192.59 4.27963C192.44 4.32963 192.29 4.36959 192.15 4.42959C192.1 4.44959 192.05 4.4696 192 4.4996C192 4.4996 191.98 4.49961 191.97 4.50961C191.05 5.54961 190.23 6.73962 189.36 7.64962C185.48 12.0096 188.58 15.9496 192.73 18.4296C189.36 21.3796 184.13 25.2596 186 30.3596C187.15 32.8596 189.93 34.0896 191.84 35.9096C188.35 37.9996 183.89 41.5096 186.72 45.9596C188.19 47.9996 190.38 49.4296 192.1 51.2496C192.03 51.3496 191.95 51.4496 191.87 51.5496C189.56 52.1296 184.14 53.2696 182.14 55.6496C181.35 55.8896 180.6 56.0696 179.95 56.1096C173.22 57.2296 165.8 58.5796 159.29 61.1396C149.83 65.2396 141.17 70.1296 131.55 74.2096C123.98 78.0296 115.96 80.8896 108.43 84.7496C97.65 91.0696 89.06 100.36 79.6 108.39C75.44 112.18 71.13 115.87 67.7 120.37C62.98 126.96 57.91 133.09 52.52 139.17C45.69 147.18 43.09 157.65 37.26 166.3C32.69 173.2 29.2 180.74 25.51 188.13C22.96 193.18 20.61 198.36 19.04 203.81C15.15 217.35 12.75 231.27 9.7 245.01C8.3 250.95 7.10999 256.94 6.53999 263.02C6.15999 268.38 4.97001 273.59 3.85001 278.83C2.36001 286.4 2.54999 294.11 2.25999 301.77C1.25999 312.54 2.05 323.33 1.95 334.12C1.93 335.01 2.35999 335.82 3.00999 336.37C2.85999 336.54 2.78 336.78 2.84 337.02C1.34 343.73 1.88001 350.77 1.82001 357.63C2.14001 377.08 2.72 396.54 2.47 415.99C2.36 426.69 1.96999 437.37 1.53999 448.06C1.12999 466.6 1.09 485.15 0.860001 503.7C1.12 522.14 2.07 540.57 2.53 559C3.04 585.56 3.23001 612.12 3.46001 638.67C4.30001 665.34 5.34001 692.02 5.46001 718.71C5.38001 795 5.04 871.3 6.48 947.59C6.61 978.24 6.49 1008.89 6.53 1039.54C6.13 1063.86 7.28 1088.33 12.58 1112.14C14.29 1118.45 16.95 1124.64 21.03 1129.79C26.81 1137.37 31.53 1145.84 38.7 1152.26C50.85 1163.6 61.58 1164.45 76.97 1165.72C85.55 1168.16 94.4 1169.26 103.28 1169.96C121.76 1172.19 140.38 1172.26 158.96 1171.88C173.06 1172 187.51 1171.89 201.67 1171.88C213.35 1171.97 224.86 1172.28 236.57 1172.22C250.42 1172.22 264.23 1170.97 278.08 1170.55C294.46 1170.01 310.83 1170.45 327.22 1170.38C337.61 1170.41 347.99 1169.94 358.37 1169.66C387.15 1169.85 415.9 1170.86 444.66 1171.84C464.26 1172.23 483.82 1171.31 503.42 1171.08C516.49 1171.18 529.54 1171.72 542.61 1171.96C554.83 1172.26 566.93 1171.9 579.17 1171.96C601.03 1171.99 623.07 1171.73 644.58 1167.39C650.3 1165.86 656.2 1164.89 661.77 1162.87C666.99 1160.34 672.7 1158.95 677.86 1156.33C682.58 1153.29 686.27 1148.9 690.69 1145.44C695.08 1141.84 699.13 1137.71 701.69 1132.58C703.94 1128.39 706.58 1124.06 708.61 1119.55C710.24 1116.11 711.52 1112.51 713.4 1109.19C715.3 1106.13 717.01 1102.9 717.64 1099.31C718.57 1094.75 718.23 1090.07 718.73 1085.47C720.22 1077.2 721.07 1068.84 720.85 1060.43C720.87 1054.94 721.19 1049.06 720.83 1043.45L720.82 1043.47Z" fill="white"/>
</svg>
