<svg width="74" height="64" viewBox="0 0 74 64" fill="none" xmlns="http://www.w3.org/2000/svg">
<path d="M72.6095 44.9054C66.3815 40.7187 58.8018 39.1176 52.4317 35.1874C51.8252 34.8304 51.288 34.3348 50.6815 33.9847C51.1494 33.302 51.6138 32.6227 52.0851 31.9677C53.4645 29.9783 55.1905 28.2835 56.8679 26.5507C59.294 23.9825 61.3596 21.1025 63.6019 18.3818C66.4404 15.1968 68.9982 11.5889 70.9251 7.74534C73.3928 3.25716 75.8708 -1.52562 68.097 0.463738C64.9432 1.22621 62.0354 2.74078 58.9197 3.65575C54.2339 5.1391 49.5274 6.56352 44.8105 7.92904C41.8646 8.66378 38.8459 9.10742 35.9485 10.0224C31.3979 11.4676 27.0726 13.5332 22.7023 15.4394C22.6746 15.4533 22.6434 15.4706 22.6156 15.4845C21.8636 14.9611 20.8758 14.9126 20.0232 14.6007C17.8398 13.8971 15.7187 13.2005 13.5041 12.5558C11.539 12.1607 9.56006 11.8419 7.64002 11.2423C5.50856 10.8472 -0.29662 8.55286 0.011834 12.5004C0.996115 15.4602 3.78953 17.3074 5.47736 19.834C7.32116 22.8665 10.7731 24.2737 13.4487 26.4363C14.7795 27.6736 16.1312 28.8831 17.7116 29.7981C18.6473 30.3249 19.441 30.9973 20.245 31.7563C20.4842 31.9053 20.7129 31.9885 20.9347 32.0197C21.0838 33.8184 21.264 35.6102 21.3991 37.4089C21.919 42.1085 22.5255 46.7908 22.7751 51.5181C23.1078 54.8487 23.8633 58.1239 24.2688 61.4441C23.8044 62.2725 23.6138 63.1458 24.6674 63.8008C25.3952 64.2202 26.1785 63.8667 26.6394 63.2498C27.6583 63.2775 28.8679 62.3105 29.7135 61.7976C30.8191 61.0317 31.942 60.2831 33.2001 59.7909C37.5531 58.1031 42.0621 57.4134 46.5572 56.0825C49.3784 55.2854 52.0609 54.0828 54.9028 53.3481C58.2785 52.5648 61.5467 51.4488 64.7387 50.111C66.6761 49.3312 68.9392 48.7108 70.9979 48.1286C72.606 47.8201 73.9611 46.368 72.613 44.9054H72.6095ZM17.4204 25.9961C16.1936 24.9079 15.0186 23.7538 13.6358 22.8596C12.0831 21.7748 10.3814 20.8737 9.01593 19.5463C8.69015 19.179 8.39209 18.7839 8.10443 18.3853C7.00578 16.7287 5.26249 15.0408 3.95242 13.4327C5.91752 13.7862 7.8237 14.4204 9.768 14.8606C11.0954 15.1205 12.4436 15.2418 13.7328 15.6646C15.9787 16.2573 18.2314 17.1099 20.5396 17.5189C20.0302 19.2587 19.9678 21.1025 20.1515 22.9081C20.3213 24.6445 20.4461 26.3878 20.602 28.1241C19.5935 27.4033 18.4636 26.8349 17.4204 25.9892V25.9961ZM23.5167 29.2159C23.184 25.5421 22.3072 21.8996 22.5533 18.1947C22.5637 18.0075 22.5533 17.8065 22.5533 17.6089C27.842 15.9939 32.8847 13.554 38.2913 12.2301C41.2511 11.5369 44.2664 11.076 47.2019 10.2823C52.0574 8.7955 56.9719 7.50623 61.7616 5.82186C64.5065 5.00394 67.04 3.53096 69.9097 3.15319C68.357 6.34517 66.6796 9.51982 64.6243 12.4207C63.0994 14.4204 61.4081 16.2885 59.8589 18.2674C57.7517 20.9603 55.641 23.6637 53.1873 26.0551C49.413 29.7877 46.9974 34.5913 43.6668 38.6844C41.6428 41.1069 39.3346 43.2938 37.3521 45.758C34.7043 48.8911 32.2297 52.6133 29.2353 55.5176C28.4173 56.3806 27.5856 57.2366 26.7919 58.1239C26.4141 55.8538 25.974 53.5941 25.7106 51.3067C25.2358 43.9454 24.0747 36.6257 23.5133 29.2124L23.5167 29.2159ZM60.4654 48.5895C58.1052 49.5045 55.6341 50.0694 53.1977 50.7349C49.0803 52.0727 45.0358 53.6149 40.7902 54.5195C37.7195 55.23 34.5899 55.9717 31.7098 57.2436C32.6317 56.2801 33.5502 55.3166 34.4028 54.3115C36.0663 52.2841 37.567 50.1249 39.2583 48.1217C41.3828 45.4773 43.8713 43.0928 46.0443 40.4831C47.2712 38.9789 48.4253 37.3084 49.5621 35.631C50.4112 36.6742 51.6069 37.4401 52.7021 38.1887C57.5611 41.2802 63.193 43.0408 68.2738 45.7996C65.5982 46.517 63.037 47.581 60.4619 48.5895H60.4654Z" fill="#FF76B4"/>
</svg>
