<svg width="23" height="21" viewBox="0 0 23 21" fill="none" xmlns="http://www.w3.org/2000/svg">
<path d="M9.7137 7.93899L7.23555 7.06449C7.297 6.91914 7.27336 6.73478 7.128 6.63079C6.89402 6.48307 6.59621 6.50552 6.33386 6.43698C5.69216 6.29753 5.06938 6.15808 4.42059 6.03518C3.8498 5.97727 3.27783 5.94182 2.71413 5.82364C2.09606 5.77046 0.380147 5.27767 0.576319 6.39325C0.93912 7.20867 1.78526 7.65655 2.33596 8.33016C2.94575 9.14321 3.96679 9.44692 4.7893 9.98935C5.20292 10.3049 5.62126 10.6121 6.09633 10.8284C6.37759 10.9525 6.62221 11.1215 6.87275 11.3153C7.24855 11.5056 7.52981 11.1971 7.50026 10.8958H8.53785L9.7137 7.93899Z" fill="#75ABDB"/>
<path d="M22.1476 13.6083C20.258 12.5896 18.0552 12.3426 16.1325 11.4008C15.8961 11.2909 15.6893 11.1101 15.4352 11.0462C15.3052 11.0226 15.2013 11.1136 15.1611 11.227L13.1934 10.0488L10.3241 12.8886L8.71338 16.4315L9.35153 19.328C9.17308 19.471 9.05373 19.6424 9.19317 19.9106C9.54179 20.42 10.07 19.8586 10.4021 19.6105C10.6952 19.3611 10.9954 19.1177 11.3393 18.9428C12.5317 18.3412 13.7973 18.0198 15.0393 17.5164C15.8205 17.2103 16.552 16.7943 17.3391 16.506C18.2786 16.1893 19.1779 15.7816 20.05 15.3112C20.5806 15.0347 21.207 14.796 21.7766 14.5726C22.2256 14.4403 22.5719 13.9888 22.1465 13.6095L22.1476 13.6083Z" fill="#75ABDB"/>
<path d="M19.6296 1.07598C18.7527 1.38088 17.9669 1.89258 17.1054 2.24002C15.8125 2.7919 14.5126 3.32842 13.2055 3.8484C12.3878 4.13911 11.5404 4.34946 10.7404 4.68981C9.48418 5.22869 8.31069 5.93539 7.11829 6.59954C7.08757 6.61963 7.0533 6.6409 7.02021 6.66335C6.99185 6.64326 6.95994 6.62672 6.92094 6.62199C6.77322 6.60072 6.67277 6.72599 6.65859 6.86071C6.43996 7.48704 6.47069 8.1571 6.5995 8.79998C6.86894 10.1614 7.12066 11.5263 7.35701 12.8936C7.63472 14.2172 7.93725 15.5337 8.14052 16.8726C8.32842 17.8121 8.63331 18.7232 8.8413 19.658C8.73258 19.9074 8.70185 20.1602 9.01975 20.3174C9.27974 20.4356 9.5409 20.2453 9.62481 19.9983C9.70753 19.8329 9.83989 19.5883 9.97461 19.3968C10.4556 18.7055 11.0394 18.0461 11.5286 17.3453C11.9458 16.7225 12.3133 16.0654 12.7399 15.4474C13.2705 14.6355 13.9146 13.8863 14.4606 13.0839C14.9959 12.2803 15.4556 11.336 15.9449 10.4911C16.2829 9.88602 16.726 9.3554 17.1574 8.81534C17.7778 8.01647 18.2848 7.1396 18.8485 6.30291C19.5693 5.31733 20.1968 4.21947 20.6388 3.0708C21.2167 1.72477 21.7899 0.293658 19.632 1.07598H19.6296Z" fill="#95BEE9"/>
</svg>
