<svg width="35" height="31" viewBox="0 0 35 31" fill="none" xmlns="http://www.w3.org/2000/svg">
<path d="M15.0846 11.4751L11.2364 10.1171C11.3318 9.89138 11.2951 9.6051 11.0694 9.44362C10.706 9.21423 10.2436 9.2491 9.83622 9.14266C8.83977 8.92612 7.87268 8.70958 6.86522 8.51873C5.97887 8.42881 5.09069 8.37376 4.21536 8.19025C3.25561 8.10767 0.591071 7.34244 0.895694 9.07476C1.45906 10.341 2.77298 11.0365 3.62813 12.0825C4.57504 13.345 6.16055 13.8166 7.43777 14.6589C8.08005 15.1489 8.72966 15.626 9.46737 15.9618C9.90412 16.1545 10.284 16.4169 10.673 16.7179C11.2566 17.0133 11.6933 16.5344 11.6474 16.0664H13.2586L15.0846 11.4751Z" fill="#75ABDB"/>
<path d="M34.3934 20.2792C31.4591 18.6974 28.0386 18.3138 25.0529 16.8513C24.6859 16.6806 24.3647 16.3999 23.9702 16.3008C23.7683 16.2641 23.6068 16.4054 23.5444 16.5815L20.489 14.752L16.0334 19.1617L13.5322 24.6632L14.5232 29.161C14.2461 29.3831 14.0607 29.6492 14.2773 30.0657C14.8186 30.8566 15.6389 29.985 16.1546 29.5996C16.6097 29.2124 17.0758 28.8344 17.6098 28.5628C19.4614 27.6287 21.4268 27.1296 23.3554 26.3478C24.5684 25.8726 25.7043 25.2266 26.9265 24.7788C28.3854 24.287 29.7819 23.6539 31.1362 22.9236C31.9601 22.4942 32.9327 22.1235 33.8172 21.7766C34.5146 21.5711 35.0522 20.8701 34.3916 20.2811L34.3934 20.2792Z" fill="#75ABDB"/>
<path d="M30.4827 0.817734C29.1211 1.29118 27.9007 2.08578 26.563 2.62529C24.5554 3.48227 22.5368 4.3154 20.5072 5.12284C19.2373 5.57427 17.9215 5.90091 16.6792 6.42941C14.7285 7.26621 12.9063 8.36359 11.0547 9.39491C11.007 9.42611 10.9537 9.45914 10.9024 9.494C10.8583 9.46281 10.8088 9.43712 10.7482 9.42978C10.5188 9.39674 10.3628 9.59126 10.3408 9.80046C10.0013 10.7731 10.049 11.8135 10.2491 12.8118C10.6675 14.9258 11.0583 17.0454 11.4254 19.1686C11.8566 21.2239 12.3264 23.2681 12.642 25.3473C12.9338 26.8062 13.4072 28.221 13.7302 29.6726C13.5614 30.0598 13.5137 30.4525 14.0073 30.6965C14.411 30.8801 14.8166 30.5846 14.9469 30.2011C15.0753 29.9442 15.2809 29.5643 15.4901 29.267C16.2369 28.1935 17.1435 27.1695 17.9032 26.0813C18.551 25.1142 19.1217 24.0939 19.7842 23.1342C20.6081 21.8735 21.6082 20.71 22.456 19.464C23.2873 18.2162 24.0012 16.7499 24.7609 15.4378C25.2857 14.4983 25.9739 13.6743 26.6437 12.8357C27.6071 11.5952 28.3944 10.2335 29.2697 8.9343C30.3891 7.40385 31.3635 5.69905 32.0498 3.91535C32.9472 1.82519 33.8372 -0.397091 30.4864 0.817734H30.4827Z" fill="#95BEE9"/>
</svg>
