<svg width="206" height="158" viewBox="0 0 206 158" fill="none" xmlns="http://www.w3.org/2000/svg">
<path d="M103.727 30.4743C103.312 30.0901 102.775 29.6291 102.267 29.2295C101.899 28.8914 101.576 28.4919 101.222 28.0462C100.915 27.662 100.516 27.1703 100.085 26.7553C99.9623 26.6324 99.8086 26.5095 99.6703 26.4019C99.4398 26.1714 99.1478 26.0331 98.9019 26.0331C98.5946 25.9716 98.2872 26.0331 98.0106 26.2021C97.6879 26.4019 97.4881 26.7246 97.4266 27.0781C97.3498 27.5852 97.5649 28.0309 98.0874 28.3997C98.4409 28.707 98.7329 29.1066 99.1325 29.6137C99.7472 30.4743 100.485 31.2427 101.391 31.9342C101.468 31.9957 101.545 32.0725 101.637 32.1647C101.852 32.3953 102.144 32.6872 102.621 32.887C102.79 32.9485 102.959 32.9792 103.128 32.9792C103.451 32.9792 103.743 32.8716 103.989 32.6565C104.357 32.3338 104.542 31.842 104.434 31.3503C104.357 30.9507 104.112 30.628 103.758 30.4436L103.727 30.4743Z" fill="#ACABAB"/>
<path d="M112.318 25.2801C112.472 24.9266 112.441 24.5117 112.241 24.1428C111.965 23.7126 111.473 23.482 110.966 23.5896C110.413 23.6972 109.967 24.1582 109.859 24.7729C109.782 25.5106 109.859 26.2175 109.89 26.8629C109.921 27.2317 109.951 27.6159 109.951 28.0155C109.982 28.5995 109.967 29.2142 109.951 29.9518C109.936 30.3053 110.059 30.6433 110.32 30.9046C110.582 31.1658 110.935 31.3195 111.288 31.3195C111.642 31.3195 111.98 31.1812 112.241 30.92C112.487 30.6587 112.625 30.336 112.625 29.9979C112.656 28.8914 112.549 27.8157 112.441 26.6631C112.395 26.2021 112.349 25.7257 112.318 25.2647V25.2801Z" fill="#ACABAB"/>
<path d="M124.705 25.1418C124.397 24.6039 123.721 24.4195 123.229 24.6808C122.661 24.9267 122.43 25.4492 122.261 25.818C122.077 26.2483 121.877 26.6632 121.646 27.1703C121.262 28.0002 120.863 28.8608 120.586 29.6138C120.34 29.9672 120.248 30.3514 120.309 30.7202C120.371 31.0737 120.586 31.3811 120.986 31.6423C121.185 31.7499 121.401 31.796 121.616 31.796C121.785 31.796 121.938 31.7653 122.107 31.6884C122.738 31.4118 122.937 30.7202 123.06 30.3514L123.229 29.8597C123.398 29.3986 123.583 28.9376 123.813 28.3997C124.059 27.8158 124.32 27.2164 124.551 26.5095C124.658 26.3866 124.751 26.2483 124.797 26.0946C124.904 25.7719 124.874 25.4184 124.705 25.1264V25.1418Z" fill="#ACABAB"/>
<path d="M141.224 128.397C141.163 127.874 141.132 127.336 141.101 126.675C141.07 126.368 141.101 126.045 141.101 125.707V125.569C141.101 125.385 141.101 125.185 141.101 125.016C141.101 124.754 141.101 124.509 141.116 124.263C141.163 123.786 141.209 123.233 141.163 122.741C141.163 122.695 141.163 122.634 141.163 122.557C141.163 122.388 141.178 122.219 141.163 121.988C141.132 121.727 141.055 121.466 140.947 121.189L141.009 118.131C141.009 117.163 141.04 116.179 141.024 115.227C141.024 114.028 140.978 112.814 140.917 111.584C140.855 110.324 140.794 109.018 140.824 107.712C140.809 106.513 140.824 105.299 140.871 104.07C140.901 102.948 140.932 101.78 140.917 100.627L140.886 99.2442C140.855 98.3529 140.84 97.4309 140.84 96.5088C140.84 95.8326 140.84 95.1565 140.855 94.4342C140.855 93.4353 140.886 92.3903 140.855 91.3914C140.855 90.6999 140.84 89.9929 140.809 89.3014L140.778 88.3486C140.778 87.7339 140.778 87.1192 140.778 86.4277V84.1686C140.794 82.678 140.809 81.1412 140.901 79.6045C140.917 78.6978 140.871 77.8065 140.809 76.8998C140.763 76.0699 140.702 75.2093 140.732 74.3795C140.763 73.0118 140.794 71.9514 140.855 70.9218V70.4607C140.855 69.3235 140.871 68.1556 140.748 66.9415C140.717 66.6803 140.686 66.4191 140.671 66.1578C140.64 65.8044 140.609 65.4355 140.563 65.1435L140.533 64.8669C140.486 64.3137 140.44 63.7451 140.287 63.2533C140.256 63.1304 140.241 63.0074 140.225 62.8845C140.194 62.7001 140.164 62.5003 140.118 62.3005C140.087 62.1315 140.041 61.9778 139.995 61.8088C139.964 61.6858 139.933 61.5783 139.902 61.4553C139.749 60.6716 139.534 59.98 139.272 59.3807L139.18 59.1194C139.073 58.8275 138.98 58.5355 138.781 58.182C138.627 57.9208 138.504 57.6442 138.366 57.3522L138.273 57.1524C138.089 56.7836 137.859 56.4301 137.597 56.0613C137.459 55.8615 137.336 55.6617 137.213 55.4466C136.998 55.0624 136.721 54.7243 136.429 54.4631L136.107 54.125C135.907 53.9098 135.692 53.6793 135.538 53.541C135.277 53.2337 134.908 52.8341 134.555 52.5729C134.432 52.4653 134.324 52.3423 134.186 52.204C133.924 51.9274 133.648 51.6508 133.356 51.4356C132.926 51.0822 132.465 50.7595 131.957 50.4675L131.773 50.3292C131.466 50.0987 131.158 49.8682 130.774 49.6684C130.328 49.4379 129.852 49.2381 129.406 49.0537C129.084 48.9154 128.746 48.7771 128.484 48.6541C128.146 48.4697 127.808 48.3621 127.501 48.2699C127.332 48.2238 127.178 48.1777 126.994 48.0855C126.779 47.9933 126.563 47.9318 126.287 47.855C126.287 47.7628 126.287 47.6706 126.287 47.5784L126.256 47.4247C126.225 47.3171 126.195 47.2249 126.164 47.1174C126.164 47.0713 126.195 47.0098 126.195 46.9637C126.241 46.6717 126.21 46.3644 126.102 46.0724C126.241 45.8111 126.287 45.5652 126.302 45.3808C126.333 44.7815 126.01 44.3358 125.734 44.0438C125.534 43.7058 125.18 43.4599 124.781 43.3984C124.089 43.2908 123.444 43.6904 123.229 44.3512C123.136 44.6585 123.152 44.9813 123.259 45.2579C123.029 45.6882 123.013 46.1492 123.259 46.6102C123.213 46.7332 123.167 46.8561 123.152 46.9944C123.121 47.2403 123.152 47.4862 123.259 47.7167C123.152 48.0087 123.136 48.2546 123.121 48.4543V48.6234C123.075 49.1459 123.336 49.6223 123.767 49.8682C123.843 49.9143 123.92 49.9604 123.889 49.9296C124.012 50.0065 124.151 50.0679 124.197 50.0679C124.458 50.1909 124.704 50.237 124.95 50.2524C125.103 50.2985 125.257 50.3446 125.442 50.406C125.595 50.4521 125.734 50.4982 125.826 50.529C126.256 50.698 126.656 50.8363 126.963 50.9132C127.608 51.2051 128.254 51.4818 128.915 51.7584L129.376 51.9581C129.668 52.0964 129.944 52.3116 130.252 52.5421L130.375 52.6343C130.497 52.7265 130.636 52.8034 130.774 52.8956C130.851 52.9417 130.928 52.9878 131.02 53.0492C131.358 53.2798 131.681 53.5256 131.957 53.7715C132.065 53.8637 132.157 53.9713 132.28 54.0943C132.465 54.2787 132.649 54.4784 132.91 54.6936C133.095 54.8319 133.248 55.0009 133.417 55.2007C133.525 55.3236 133.648 55.4466 133.771 55.5695L134.094 55.9076L134.201 56.0152C134.385 56.215 134.57 56.4148 134.677 56.507C134.8 56.6606 134.908 56.845 135.031 57.0295C135.123 57.1831 135.231 57.3522 135.292 57.4444C135.369 57.5827 135.461 57.7056 135.569 57.8593C135.661 57.9976 135.769 58.1359 135.815 58.2435C135.984 58.6431 136.199 59.1348 136.46 59.5344C136.552 59.7495 136.645 59.98 136.737 60.2567C136.814 60.4564 136.89 60.6562 136.936 60.7945C137.075 61.1941 137.167 61.609 137.275 62.0393L137.367 62.3928C137.474 62.7308 137.536 63.0843 137.597 63.4838L137.628 63.699C137.751 64.2061 137.812 64.6364 137.843 65.1589C137.905 65.6661 137.966 66.2346 138.012 66.8493C138.089 67.4794 138.135 68.0019 138.135 68.509C138.166 69.3082 138.181 70.261 138.135 71.1984C138.089 71.7362 138.089 72.2741 138.074 72.7966V73.2269C137.982 74.8098 138.074 76.3619 138.166 77.8833L138.212 78.6056C138.227 79.2049 138.212 79.8196 138.166 80.4343C138.135 80.9414 138.12 81.4332 138.12 81.9557C138.12 82.8931 138.12 83.8306 138.104 84.7987C138.089 86.3201 138.074 87.8876 138.12 89.4397C138.181 91.0994 138.166 92.8206 138.151 94.4803C138.151 95.8634 138.12 97.2772 138.151 98.7064C138.227 100.366 138.227 102.041 138.151 103.716C138.104 105.299 138.104 106.913 138.104 108.68C138.104 109.74 138.151 110.816 138.212 111.892C138.258 112.706 138.289 113.551 138.304 114.366C138.304 117.009 138.304 119.237 138.212 121.497C138.212 121.819 138.304 122.127 138.443 122.265C138.443 122.495 138.443 122.726 138.443 122.987C138.443 123.125 138.443 123.264 138.443 123.371C138.381 123.971 138.35 124.585 138.35 125.354V125.692C138.32 125.953 138.304 126.23 138.32 126.522C138.35 127.167 138.381 127.936 138.458 128.689C138.458 129.411 138.473 130.225 138.412 130.948L138.366 131.27C138.32 131.516 138.289 131.762 138.273 132.1C138.273 132.331 138.273 132.546 138.227 132.7C138.227 132.73 138.151 132.838 138.104 132.93C138.028 133.068 137.951 133.207 137.889 133.345L137.705 133.76C137.459 134.282 137.213 134.743 136.998 135.097C136.906 135.22 136.737 135.358 136.552 135.527C136.46 135.604 136.353 135.696 136.306 135.742C136.199 135.819 136.107 135.911 135.999 136.004C135.922 136.08 135.845 136.157 135.861 136.157C135.722 136.219 135.569 136.28 135.4 136.342C135.185 136.418 134.954 136.511 134.816 136.572C133.11 137.141 131.327 137.202 129.176 137.233C128.638 137.233 128.1 137.233 127.562 137.233C127.071 137.233 126.563 137.233 126.087 137.233L124.934 137.202C123.567 137.171 122.03 137.125 120.539 137.202C118.603 137.264 116.621 137.202 114.684 137.11H114.377C113.885 137.11 113.393 137.079 112.856 137.079C111.949 137.064 111.027 137.049 110.105 137.079C109.121 137.125 108.122 137.11 107.154 137.11C106.232 137.11 105.279 137.11 104.342 137.125C103.881 137.125 103.42 137.171 102.959 137.187C102.436 137.218 101.898 137.248 101.391 137.248C100.746 137.248 100.116 137.248 99.4703 137.248H99.2244C98.8249 137.248 98.4253 137.248 98.0104 137.248C97.1959 137.248 96.366 137.248 95.5362 137.248C94.568 137.248 93.5999 137.248 92.6625 137.248C91.5406 137.218 90.3881 137.095 89.2662 136.972H89.0664C88.882 136.833 88.6669 136.772 88.4671 136.757L88.0061 136.71C87.5604 136.664 87.1302 136.634 86.8382 136.495C86.2235 136.203 85.7624 135.589 85.4397 135.066C85.3014 134.866 85.1631 134.667 85.0094 134.467L84.9326 134.375C84.7635 134.098 84.6406 133.775 84.5638 133.422C84.3332 132.192 84.2103 131.009 84.1796 129.903C84.1796 128.443 84.1796 126.967 84.1796 125.507V124.847C84.1796 123.525 84.1796 122.203 84.1796 120.866C84.072 114.888 84.0873 108.788 84.1027 103.347C84.1027 101.134 84.0412 98.8908 83.9644 96.6932L83.8876 90.4079C83.8876 89.5473 83.8415 88.6713 83.8108 87.78C83.7647 86.3508 83.7032 84.8755 83.7493 83.4156V83.2619C83.7493 81.8635 83.78 80.4343 83.8415 79.0051C83.8722 77.5606 83.8722 76.0545 83.8108 74.3948C83.8108 74.0106 83.7954 73.6111 83.7647 73.2115C83.7647 72.9503 83.7339 72.6737 83.7339 72.3048C83.7339 72.1819 83.7339 72.059 83.7032 71.936C83.78 71.767 83.8108 71.5979 83.8108 71.4596C83.8108 71.1676 83.8108 70.8603 83.8108 70.5683V70.2456C83.7954 69.8153 83.8108 69.3235 83.8569 68.632C83.8569 68.1095 83.8722 67.6177 83.9491 67.2335C84.072 66.7725 84.1335 66.3268 84.1796 65.8658C84.2103 65.6199 84.241 65.3741 84.2718 65.1896C84.3793 64.6979 84.4869 64.2215 84.5945 63.699C84.7789 62.8384 84.9479 61.9471 85.1784 61.2094C85.578 60.2413 86.0237 59.35 86.5462 58.5509C86.7152 58.2742 86.8535 57.9822 87.0072 57.6595C87.1301 57.3983 87.2531 57.137 87.3914 56.9219C87.5143 56.7375 87.668 56.5684 87.8217 56.3994C88.0061 56.1843 88.1905 55.9845 88.3442 55.7847L88.544 55.5081C88.6669 55.3544 88.7745 55.1853 88.882 55.0624C89.1126 54.8165 89.3431 54.6014 89.6197 54.3709L89.8502 54.1557C90.0346 54.002 90.219 53.833 90.4034 53.6639C90.7261 53.372 91.0335 53.0953 91.387 52.8495C91.6021 52.6958 91.8787 52.5882 92.1707 52.4653L93.6921 51.7737C93.9995 51.6508 94.3068 51.4971 94.6142 51.3281C95.1059 51.0822 95.5208 50.867 96.028 50.7595C96.1816 50.7134 96.32 50.698 96.489 50.6673C96.8271 50.6058 97.1959 50.5443 97.5955 50.3599C97.6723 50.3292 97.8106 50.2677 97.826 50.237C98.1333 50.1909 98.4099 50.0526 98.6097 49.8528C98.7019 49.7606 98.7942 49.653 98.7942 49.6069C99.0247 49.2995 99.1476 48.9307 99.1322 48.5619C99.1322 48.3775 99.0861 48.1777 99.0093 48.0087C99.0093 48.0087 99.0093 47.9779 99.0247 47.9626C99.1937 47.563 99.1783 47.1481 99.0093 46.7793C99.0554 46.7178 99.1015 46.641 99.1476 46.5488C99.3166 46.1646 99.3166 45.7804 99.163 45.4116C99.163 45.3808 99.1783 45.3654 99.1937 45.3347C99.3935 44.7354 99.1937 44.1053 98.6558 43.7672C98.1948 43.4752 97.5955 43.4752 97.2113 43.7518L97.119 43.6596L96.3046 44.5356L96.3353 44.5663C96.1048 44.9044 96.0126 45.2886 96.0741 45.6728C96.0741 45.765 96.1048 45.8418 96.1355 45.934C95.8128 46.4873 95.8743 47.0098 96.028 47.4093C95.9972 47.4862 95.9665 47.563 95.9511 47.6398C95.9204 47.7628 95.905 47.8857 95.905 48.0087C95.4286 48.1009 94.9369 48.2238 94.4451 48.4082C94.0763 48.5773 93.7074 48.7463 93.2772 48.9615C92.9391 49.1305 92.5856 49.2996 92.1553 49.484C91.8787 49.6223 91.5867 49.7452 91.2948 49.8682C90.972 50.0065 90.6186 50.1601 90.2344 50.3599C89.5275 50.7748 88.9435 51.2973 88.3288 51.8659C88.1444 52.035 87.9446 52.204 87.7295 52.4038L87.5912 52.5268C87.2838 52.8034 86.9303 53.1261 86.6076 53.5564C86.2849 54.002 85.9161 54.4631 85.4397 55.0009C85.0248 55.4773 84.7789 56.0152 84.5638 56.4762C84.4254 56.7682 84.3025 57.0448 84.1335 57.2907C83.7954 57.8132 83.5187 58.3511 83.2575 58.8736L83.1192 59.1655C82.9348 59.5497 82.6889 60.0569 82.5198 60.6255C82.2893 61.4246 82.1203 62.2237 81.9666 63.0074C81.9052 63.3455 81.8283 63.6683 81.7515 63.991C81.5978 64.621 81.521 65.1282 81.4748 65.62C81.4441 65.958 81.3826 66.2807 81.2751 66.7571C81.1675 67.3257 81.1521 67.879 81.1368 68.3707V68.7088C81.0753 69.3389 81.0753 69.969 81.0907 70.5683L81.1214 71.8592C81.0753 72.228 81.0753 72.5815 81.0907 72.9503L81.1214 74.5024C81.1368 75.655 81.1675 76.8383 81.1521 78.0062C81.1521 78.8053 81.1214 79.6045 81.0753 80.5726C81.06 81.5715 81.0445 82.5704 81.0292 83.5693V85.0907C81.0292 85.9667 81.0599 86.8426 81.0907 87.7185C81.106 88.3332 81.1368 88.9326 81.1521 89.5473C81.1829 91.4221 81.1983 93.297 81.2136 95.1872L81.2597 97.1235C81.3212 98.8447 81.3826 100.643 81.3826 102.395V104.746C81.3826 109.986 81.3673 115.426 81.4595 120.82C81.4595 122.203 81.4595 123.587 81.4595 124.97V128.197C81.4134 130.609 81.5824 132.561 81.982 134.344C82.1818 135.051 82.4737 135.665 82.8579 136.157C82.9809 136.326 83.1038 136.511 83.2421 136.68C83.5802 137.171 83.9337 137.663 84.4101 138.094C85.6702 139.277 86.8535 139.369 88.0061 139.446C88.8513 139.676 89.6965 139.769 90.2344 139.799C91.848 139.999 93.4001 139.984 94.8447 139.968C95.5362 139.968 96.2431 139.968 96.9346 139.968H98.287H99.332C99.8391 139.968 100.362 139.968 100.869 139.968C101.637 139.968 102.421 139.938 103.159 139.892H103.328C103.712 139.861 104.096 139.845 104.48 139.83C105.295 139.799 106.124 139.815 107.031 139.815H108.399C109.044 139.815 109.644 139.815 110.274 139.784H110.904C113.117 139.784 115.376 139.861 117.604 139.938H117.85C118.91 139.968 119.971 139.938 121 139.922H121.277C121.723 139.907 122.168 139.892 122.599 139.892C123.167 139.892 123.72 139.907 124.289 139.922L125.734 139.953C126.348 139.968 126.948 139.953 127.562 139.953H128.715C130.59 139.953 132.388 139.922 134.263 139.538L134.708 139.431C135.046 139.354 135.384 139.277 135.845 139.108C135.999 139.031 136.153 138.969 136.368 138.908C136.629 138.816 136.89 138.708 137.259 138.524C137.551 138.339 137.797 138.109 138.058 137.863C138.166 137.771 138.258 137.679 138.396 137.571C138.95 137.125 139.319 136.68 139.564 136.203L139.733 135.896C139.887 135.635 140.025 135.358 140.148 135.097L140.302 134.759C140.363 134.62 140.425 134.482 140.471 134.375C140.655 134.083 140.871 133.683 140.963 133.207C141.024 132.915 141.04 132.623 141.04 132.346C141.04 132.223 141.04 132.1 141.04 132.054C141.178 131.255 141.239 130.517 141.224 129.841V129.442C141.224 129.103 141.239 128.75 141.224 128.397Z" fill="#ACABAB"/>
<path d="M93.3697 132.484H56.9177V140.875H93.3697V132.484Z" fill="#2F2E2E"/>
<path d="M95.3213 133.791C95.2906 133.145 94.9986 132.715 94.8142 132.423C94.722 132.192 94.5991 131.839 94.261 131.47C93.5233 130.702 92.5706 130.871 92.2171 130.932H91.9558C91.5409 130.948 91.1106 130.963 90.7265 131.009C90.1271 131.009 89.5431 131.024 88.9438 131.024C88.4981 131.024 88.0371 131.024 87.6222 131.024C86.7462 131.024 86.0547 131.055 85.44 131.117C85.1787 131.117 84.9021 131.117 84.5794 131.117H84.2874C83.811 131.101 83.3346 131.101 82.8582 131.117C82.4433 131.117 82.0284 131.117 81.6288 131.117H81.0141C80.4916 131.071 79.9537 131.055 79.4005 131.071C79.0778 131.071 78.7705 131.071 78.3863 131.055C78.0328 131.055 77.6794 131.055 77.372 131.04C76.4192 131.04 75.5125 131.101 74.6212 131.178L73.8528 131.24C72.9769 131.27 72.0702 131.255 71.1942 131.24C70.3336 131.24 69.4423 131.224 68.5049 131.24C67.7365 131.286 66.9835 131.286 66.169 131.286H65.4775C65.1855 131.286 64.8781 131.316 64.4786 131.332C63.8639 131.363 63.2953 131.393 62.7728 131.347C62.2964 131.301 61.82 131.301 61.359 131.286C61.0362 131.286 60.7135 131.286 60.3447 131.255C60.1603 131.255 59.9912 131.224 59.7761 131.194C59.2997 131.132 58.685 131.04 58.0856 131.132L57.6093 131.209C57.2865 131.209 56.3799 131.178 55.7191 131.824C55.4425 132.1 55.258 132.438 55.1658 132.853H55.0275L55.0582 135.097C55.0582 135.343 55.0582 135.573 55.0582 135.881V136.157V136.495C55.0121 137.002 54.9814 137.51 55.0121 138.032V138.662C55.0429 139.2 55.0582 139.738 55.1197 140.476C55.1197 140.86 55.1197 141.521 55.4885 141.966C55.6115 142.197 55.7959 142.412 56.0571 142.596L56.2416 142.704C56.718 142.934 57.1636 142.934 57.5478 142.95H57.7476C57.9012 142.95 58.0703 142.965 58.2701 142.98L59.4226 143.027C59.5302 143.027 59.7454 143.027 59.9759 142.98C60.4523 143.011 60.8979 143.042 61.2821 143.027H61.697C62.4808 143.027 63.2338 142.965 64.0022 142.904C64.4325 142.873 64.8474 142.827 65.2931 142.796C65.7387 142.765 66.2151 142.765 66.6915 142.75L67.4138 142.719C67.8133 142.689 68.1975 142.673 68.5971 142.673C69.1349 142.673 69.6421 142.658 70.1799 142.612C70.6256 142.581 71.0866 142.55 71.5323 142.55C72.7924 142.489 74.0987 142.489 75.4203 142.504C76.0504 142.504 76.6804 142.504 77.249 142.504C78.0943 142.519 78.9395 142.504 79.8923 142.489C80.2918 142.489 80.6914 142.473 81.1063 142.458C81.6288 142.458 82.1513 142.412 82.6738 142.381C83.058 142.35 83.4268 142.335 83.7803 142.32H84.9021C85.8856 142.304 86.8999 142.289 87.8988 142.227H88.4366C88.8669 142.197 89.328 142.181 89.7275 142.12C89.958 142.12 90.2039 142.12 90.5113 142.12L91.0184 142.089C91.3411 142.135 91.6792 142.151 92.0173 142.181H92.3093C92.4476 142.197 92.5859 142.197 92.7857 142.181C93.3697 142.12 93.8768 141.782 94.1534 141.275C95.0294 140.291 95.1216 138.631 95.1369 137.002V136.803C95.2599 136.495 95.306 136.157 95.2906 135.835C95.2906 135.343 95.306 134.805 95.2906 134.236C95.3214 134.083 95.3213 133.929 95.3213 133.791ZM92.1095 135.896V136.987C92.0942 138.324 91.9866 138.908 91.9405 139.123C91.7407 139.123 91.5409 139.092 91.3565 139.062H91.2182L90.4037 139.077C90.1117 139.077 89.8505 139.077 89.5739 139.077H89.4048C89.0821 139.154 88.7286 139.154 88.2369 139.169H87.7759C86.8384 139.246 85.8703 139.246 84.9175 139.262H83.7342C83.35 139.292 82.9812 139.308 82.6124 139.338H82.4126C81.9669 139.384 81.5366 139.415 81.0909 139.415L79.8462 139.446C79.0163 139.461 78.1711 139.492 77.3105 139.461C76.6958 139.461 76.0811 139.461 75.4664 139.461C74.1448 139.461 72.7771 139.461 71.4862 139.507C70.9944 139.507 70.4873 139.538 70.0109 139.569C69.5806 139.6 69.1657 139.615 68.7815 139.63C68.2437 139.615 67.7365 139.646 67.2601 139.692H66.6454C66.1383 139.723 65.6311 139.738 65.1394 139.769C64.6783 139.799 64.2173 139.83 63.7563 139.876C62.9418 139.953 62.1734 140.015 61.359 139.999H61.3282C60.8979 139.999 60.4523 139.999 59.9605 139.938L59.3765 139.876L59.2382 139.984L58.2547 139.938C58.2547 139.938 58.1932 139.938 58.1778 139.938C58.1317 139.507 58.1318 139.077 58.1164 138.616V137.894C58.0703 137.54 58.101 137.172 58.1317 136.757L58.1625 136.203L58.1317 135.527V134.482C58.1471 134.405 58.1471 134.329 58.1471 134.252C58.1932 134.252 58.2239 134.252 58.2701 134.236L58.5467 134.19C58.7311 134.159 59.0231 134.19 59.3612 134.252C59.6532 134.298 59.9451 134.329 60.2064 134.344C60.5752 134.375 60.9287 134.375 61.359 134.375C61.7585 134.375 62.1427 134.375 62.5269 134.421C63.2645 134.482 63.9714 134.436 64.663 134.421C64.9703 134.421 65.2623 134.39 65.5389 134.39H66.1844C67.0143 134.39 67.8594 134.39 68.6586 134.329C69.4884 134.298 70.349 134.329 71.2557 134.329C72.147 134.329 73.0691 134.344 74.0372 134.329L74.8978 134.267C75.743 134.19 76.5422 134.129 77.372 134.144C77.664 134.144 77.9406 134.144 78.294 134.159C78.6936 134.159 79.0778 134.19 79.4774 134.175C79.9384 134.175 80.3841 134.175 80.9219 134.206H81.5827C82.0284 134.236 82.474 134.221 83.0273 134.206C83.4268 134.206 83.8264 134.206 84.2106 134.206H84.4564C84.8253 134.236 85.2095 134.236 85.7166 134.206C86.2391 134.144 86.8231 134.113 87.6222 134.129H88.9438C89.5739 134.113 90.1885 134.113 90.9262 134.083C91.2796 134.052 91.6485 134.037 92.048 134.021H92.171L92.2171 134.221C92.2632 134.697 92.2478 135.204 92.2478 135.758L92.0941 135.927L92.1095 135.896Z" fill="#ACABAB"/>
</svg>
