<svg width="162" height="162" viewBox="0 0 162 162" fill="none" xmlns="http://www.w3.org/2000/svg">
<path d="M33.3239 114.227C33.3239 105.074 31.5411 98.4208 31.5411 89.2677C31.5411 86.3612 31.3453 78.0928 31.2979 68.9165L52.6811 53.6109L65.1607 37.5656C74.0942 37.5656 106.418 34.0008 111.766 34.0004C117.115 34.0001 125.682 33.9226 128.934 36.0904C131.434 37.7572 130.256 44.2464 130.256 46.9571C130.256 68.9812 128.935 90.5011 128.935 112.449C128.935 119.739 130.109 127.28 121.74 127.28C112.913 127.28 104.355 126.509 95.5282 126.032C82.1275 125.307 68.849 124.637 55.587 124.637C51.4072 124.637 39.9781 126.788 36.7178 124.343C35.7677 123.63 33.3239 115.352 33.3239 114.227Z" fill="#FF76B4"/>
<path d="M47.9961 53.8883C52.3189 50.9854 53.5812 49.087 57.2355 45.2308C58.1443 44.2718 64.4701 36.8455 65.1597 37.5663C66.9801 39.4691 66.9425 45.8409 66.9425 47.1443C66.9425 51.2229 66.8219 55.3096 66.6146 59.3808L66.6091 59.4885C66.4623 62.3764 66.288 65.8031 65.0789 68.454C64.4452 69.8433 62.4853 69.1283 61.1619 69.3752C58.3492 69.8999 55.1979 69.5316 52.3445 69.5316C46.322 69.5316 40.3415 69.2188 34.3299 69.2188C33.4173 69.2188 32.1035 69.4895 31.3793 68.9059C30.6328 68.3044 39.3538 60.5787 40.0932 59.9718C41.3771 58.918 42.528 58.0773 43.9239 57.1734C45.3663 56.2393 46.5368 54.8683 47.9961 53.8883Z" fill="#FFD3E7"/>
</svg>
