<svg width="47" height="66" viewBox="0 0 47 66" fill="none" xmlns="http://www.w3.org/2000/svg">
<path d="M26.5123 4.25968C26.2866 4.05064 25.9939 3.7998 25.718 3.58241C25.5173 3.39846 25.3417 3.18106 25.1494 2.93858C24.9822 2.72955 24.7648 2.46198 24.5307 2.23623C24.4638 2.16934 24.3802 2.10245 24.3049 2.04392C24.1795 1.9185 24.0206 1.84324 23.8868 1.84324C23.7196 1.8098 23.5524 1.84324 23.4019 1.93522C23.2263 2.04392 23.1176 2.21951 23.0842 2.41182C23.0424 2.68775 23.1594 2.93023 23.4437 3.1309C23.636 3.29813 23.7949 3.51552 24.0123 3.79144C24.3467 4.25968 24.7481 4.67774 25.2414 5.054C25.2832 5.08745 25.325 5.12926 25.3752 5.17943C25.4922 5.30485 25.6511 5.46372 25.9103 5.57242C26.0023 5.60586 26.0942 5.62258 26.1862 5.62258C26.3618 5.62258 26.5207 5.56405 26.6545 5.44699C26.8551 5.2714 26.9555 5.00385 26.8969 4.73628C26.8551 4.51889 26.7214 4.34329 26.529 4.24295L26.5123 4.25968Z" fill="white"/>
<path d="M31.1865 1.43349C31.2701 1.24118 31.2534 1.01542 31.1447 0.814747C30.9942 0.580628 30.7266 0.455207 30.4507 0.513737C30.1496 0.572266 29.9072 0.823111 29.8486 1.15757C29.8068 1.55891 29.8487 1.94353 29.8654 2.29471C29.8821 2.49539 29.8988 2.70442 29.8988 2.92182C29.9155 3.23955 29.9072 3.574 29.8988 3.97534C29.8904 4.16765 29.9574 4.3516 30.0995 4.49374C30.2416 4.63589 30.4339 4.7195 30.6262 4.7195C30.8186 4.7195 31.0025 4.64426 31.1447 4.50211C31.2784 4.35997 31.3537 4.18438 31.3537 4.00043C31.3704 3.39841 31.3119 2.81311 31.2533 2.18601C31.2283 1.93517 31.2032 1.67596 31.1865 1.42512V1.43349Z" fill="white"/>
<path d="M37.9256 1.35824C37.7584 1.06559 37.3905 0.965254 37.1229 1.1074C36.8135 1.24118 36.6881 1.52547 36.5961 1.72614C36.4958 1.96026 36.3871 2.18602 36.2617 2.46195C36.0527 2.91346 35.8353 3.3817 35.6848 3.7914C35.551 3.98371 35.5008 4.19275 35.5343 4.39342C35.5677 4.58573 35.6847 4.75297 35.9021 4.89511C36.0108 4.95364 36.1279 4.97872 36.245 4.97872C36.3369 4.97872 36.4206 4.962 36.5125 4.92019C36.8553 4.76969 36.964 4.39342 37.0309 4.19274L37.1229 3.92519C37.2149 3.67435 37.3152 3.42351 37.4407 3.13086C37.5744 2.81313 37.7166 2.48702 37.842 2.1024C37.9005 2.03551 37.9507 1.96027 37.9758 1.87665C38.0343 1.70107 38.0176 1.50875 37.9256 1.34988V1.35824Z" fill="white"/>
<path d="M46.9141 57.5384C46.8806 57.2541 46.8639 56.9614 46.8472 56.6019C46.8305 56.4347 46.8472 56.2591 46.8472 56.0751V55.9999C46.8472 55.8995 46.8472 55.7909 46.8472 55.6989C46.8472 55.5567 46.8472 55.4229 46.8556 55.2892C46.8806 55.03 46.9057 54.729 46.8806 54.4614C46.8806 54.4363 46.8806 54.4029 46.8806 54.3611C46.8806 54.2691 46.889 54.1771 46.8806 54.0517C46.8639 53.9095 46.8221 53.7674 46.7636 53.6169L46.797 51.953C46.797 51.4262 46.8137 50.8911 46.8054 50.3727C46.8054 49.7205 46.7803 49.0599 46.7469 48.391C46.7134 47.7054 46.68 46.9947 46.6967 46.284C46.6883 45.6318 46.6967 44.9712 46.7218 44.3023C46.7385 43.6919 46.7552 43.0565 46.7469 42.4294L46.7301 41.6769C46.7134 41.1919 46.7051 40.6902 46.7051 40.1885C46.7051 39.8206 46.7051 39.4527 46.7134 39.0598C46.7134 38.5163 46.7301 37.9477 46.7134 37.4042C46.7134 37.0279 46.7051 36.6433 46.6883 36.267L46.6716 35.7486C46.6716 35.4142 46.6716 35.0797 46.6716 34.7035V33.4744C46.68 32.6633 46.6883 31.8272 46.7385 30.991C46.7469 30.4977 46.7218 30.0128 46.6883 29.5194C46.6633 29.0679 46.6298 28.5997 46.6465 28.1482C46.6632 27.404 46.68 26.8271 46.7134 26.2669V26.016C46.7134 25.3973 46.7218 24.7618 46.6549 24.1013C46.6382 23.9591 46.6215 23.817 46.6131 23.6748C46.5964 23.4825 46.5796 23.2818 46.5546 23.123L46.5378 22.9725C46.5127 22.6715 46.4877 22.3621 46.4041 22.0945C46.3873 22.0276 46.379 21.9607 46.3706 21.8939C46.3539 21.7935 46.3372 21.6848 46.3121 21.5761C46.2953 21.4842 46.2703 21.4005 46.2452 21.3086C46.2285 21.2417 46.2117 21.1831 46.195 21.1163C46.1114 20.6898 45.9943 20.3136 45.8522 19.9875L45.802 19.8453C45.7435 19.6865 45.6933 19.5276 45.5846 19.3353C45.501 19.1931 45.4341 19.0426 45.3589 18.8838L45.3087 18.7751C45.2084 18.5744 45.083 18.3821 44.9408 18.1814C44.8656 18.0727 44.7987 17.964 44.7318 17.847C44.6147 17.6379 44.4642 17.454 44.3053 17.3118L44.1298 17.1279C44.0211 17.0108 43.904 16.8854 43.8204 16.8102C43.6782 16.6429 43.4776 16.4255 43.2853 16.2834C43.2184 16.2249 43.1598 16.158 43.0846 16.0827C42.9424 15.9322 42.7919 15.7817 42.6331 15.6646C42.399 15.4723 42.1481 15.2967 41.8722 15.1379L41.7719 15.0626C41.6046 14.9372 41.4374 14.8118 41.2284 14.7031C40.9859 14.5777 40.7267 14.469 40.4842 14.3686C40.3086 14.2934 40.1246 14.2181 39.9825 14.1512C39.7986 14.0509 39.6146 13.9924 39.4474 13.9422C39.3554 13.9171 39.2718 13.892 39.1715 13.8419C39.0544 13.7917 38.9373 13.7582 38.7868 13.7164C38.7868 13.6663 38.7868 13.6161 38.7868 13.5659L38.7701 13.4823C38.7534 13.4238 38.7367 13.3736 38.72 13.3151C38.72 13.29 38.7367 13.2566 38.7367 13.2315C38.7618 13.0726 38.745 12.9054 38.6865 12.7465C38.7618 12.6044 38.7868 12.4706 38.7952 12.3703C38.8119 12.0442 38.6363 11.8017 38.4858 11.6428C38.3771 11.4589 38.1848 11.3251 37.9674 11.2916C37.5912 11.2331 37.24 11.4505 37.1229 11.81C37.0728 11.9773 37.0811 12.1529 37.1396 12.3034C37.0142 12.5375 37.0059 12.7883 37.1396 13.0392C37.1146 13.1061 37.0895 13.1729 37.0811 13.2482C37.0644 13.382 37.0811 13.5158 37.1396 13.6412C37.0811 13.8001 37.0728 13.9338 37.0644 14.0425V14.1345C37.0393 14.4188 37.1815 14.678 37.4156 14.8118C37.4574 14.8369 37.4992 14.8619 37.4825 14.8452C37.5494 14.887 37.6246 14.9205 37.6497 14.9205C37.7918 14.9874 37.9256 15.0125 38.0594 15.0208C38.143 15.0459 38.2266 15.071 38.327 15.1044C38.4106 15.1295 38.4858 15.1546 38.536 15.1713C38.7701 15.2633 38.9875 15.3385 39.1547 15.3804C39.5059 15.5392 39.8571 15.6897 40.2166 15.8402L40.4675 15.9489C40.6263 16.0242 40.7769 16.1412 40.9441 16.2667L41.011 16.3168C41.0779 16.367 41.1531 16.4088 41.2284 16.459C41.2702 16.484 41.312 16.5091 41.3622 16.5426C41.5461 16.668 41.7217 16.8018 41.8722 16.9356C41.9307 16.9857 41.9809 17.0443 42.0478 17.1112C42.1481 17.2115 42.2484 17.3202 42.3906 17.4373C42.4909 17.5125 42.5745 17.6045 42.6665 17.7132C42.7251 17.7801 42.7919 17.847 42.8588 17.9138L43.0344 18.0978L43.0929 18.1563C43.1933 18.265 43.2936 18.3737 43.3521 18.4239C43.419 18.5075 43.4776 18.6078 43.5445 18.7082C43.5946 18.7918 43.6532 18.8838 43.6866 18.9339C43.7284 19.0092 43.7786 19.0761 43.8371 19.1597C43.8873 19.2349 43.9458 19.3102 43.9709 19.3687C44.0629 19.5861 44.1799 19.8537 44.3221 20.0711C44.3722 20.1881 44.4224 20.3136 44.4726 20.4641C44.5144 20.5728 44.5562 20.6815 44.5813 20.7567C44.6565 20.9741 44.7067 21.1999 44.7652 21.434L44.8154 21.6263C44.8739 21.8102 44.9074 22.0026 44.9408 22.2199L44.9575 22.337C45.0244 22.6129 45.0579 22.8471 45.0746 23.1313C45.108 23.4073 45.1415 23.7166 45.1666 24.0511C45.2084 24.3939 45.2334 24.6782 45.2334 24.9541C45.2502 25.3889 45.2585 25.9073 45.2334 26.4174C45.2084 26.71 45.2084 27.0027 45.2 27.2869V27.5211C45.1498 28.3823 45.2 29.2268 45.2502 30.0546L45.2753 30.4475C45.2836 30.7736 45.2753 31.1081 45.2502 31.4425C45.2335 31.7185 45.2251 31.986 45.2251 32.2703C45.2251 32.7804 45.2251 33.2904 45.2167 33.8172C45.2084 34.645 45.2 35.4978 45.2251 36.3423C45.2585 37.2453 45.2502 38.1818 45.2418 39.0848C45.2418 39.8374 45.2251 40.6066 45.2418 41.3842C45.2836 42.2872 45.2836 43.1986 45.2418 44.11C45.2167 44.9712 45.2167 45.8492 45.2167 46.8107C45.2167 47.3877 45.2418 47.973 45.2753 48.5583C45.3004 49.0014 45.3171 49.4613 45.3254 49.9044C45.3254 51.3426 45.3254 52.555 45.2753 53.7841C45.2753 53.9597 45.3254 54.1269 45.4007 54.2022C45.4007 54.3276 45.4007 54.453 45.4007 54.5952C45.4007 54.6704 45.4007 54.7457 45.4007 54.8042C45.3672 55.1303 45.3505 55.4648 45.3505 55.8828V56.0668C45.3338 56.2089 45.3254 56.3594 45.3338 56.5183C45.3505 56.8695 45.3672 57.2875 45.4091 57.6972C45.4091 58.0902 45.4174 58.5334 45.384 58.9264L45.3589 59.1019C45.3338 59.2357 45.3171 59.3695 45.3087 59.5535C45.3087 59.6789 45.3087 59.7959 45.2836 59.8796C45.2836 59.8963 45.2418 59.9548 45.2167 60.005C45.1749 60.0802 45.1331 60.1555 45.0997 60.2307L44.9993 60.4565C44.8655 60.7408 44.7318 60.9916 44.6147 61.1839C44.5645 61.2508 44.4726 61.3261 44.3722 61.418C44.3221 61.4599 44.2635 61.51 44.2384 61.5351C44.1799 61.5769 44.1298 61.6271 44.0712 61.6772C44.0294 61.7191 43.9876 61.7609 43.996 61.7609C43.9207 61.7943 43.8371 61.8278 43.7451 61.8612C43.6281 61.903 43.5026 61.9532 43.4274 61.9866C42.4993 62.296 41.5294 62.3294 40.3588 62.3462C40.0661 62.3462 39.7735 62.3462 39.4808 62.3462C39.2133 62.3462 38.9373 62.3462 38.6781 62.3462L38.051 62.3294C37.3069 62.3127 36.4707 62.2876 35.6597 62.3294C34.6062 62.3629 33.5275 62.3294 32.474 62.2793H32.3068C32.0392 62.2793 31.7717 62.2626 31.479 62.2626C30.9857 62.2542 30.484 62.2458 29.9823 62.2626C29.4472 62.2876 28.9037 62.2793 28.3769 62.2793C27.8752 62.2793 27.3568 62.2793 26.8468 62.2876C26.596 62.2876 26.3451 62.3127 26.0943 62.3211C25.81 62.3378 25.5173 62.3545 25.2414 62.3545C24.8902 62.3545 24.5474 62.3545 24.1962 62.3545H24.0625C23.8451 62.3545 23.6277 62.3545 23.4019 62.3545C22.9588 62.3545 22.5072 62.3545 22.0557 62.3545C21.529 62.3545 21.0022 62.3545 20.4922 62.3545C19.8818 62.3378 19.2547 62.2709 18.6443 62.204H18.5356C18.4353 62.1288 18.3182 62.0953 18.2095 62.087L17.9587 62.0619C17.7162 62.0368 17.4821 62.0201 17.3232 61.9448C16.9888 61.786 16.7379 61.4515 16.5623 61.1672C16.4871 61.0585 16.4118 60.9498 16.3282 60.8411L16.2864 60.7909C16.1944 60.6404 16.1275 60.4649 16.0857 60.2725C15.9603 59.6036 15.8934 58.9598 15.8767 58.3578C15.8767 57.5635 15.8767 56.7608 15.8767 55.9664V55.6069C15.8767 54.8878 15.8767 54.1687 15.8767 53.4413C15.8182 50.1887 15.8265 46.8693 15.8349 43.9093C15.8349 42.7053 15.8014 41.4845 15.7596 40.2889L15.7178 36.8691C15.7178 36.4008 15.6928 35.9242 15.676 35.4393C15.6509 34.6617 15.6175 33.859 15.6426 33.0646V32.981C15.6426 32.2202 15.6593 31.4425 15.6927 30.6649C15.7095 29.879 15.7095 29.0596 15.676 28.1565C15.676 27.9475 15.6677 27.7301 15.6509 27.5127C15.6509 27.3706 15.6342 27.2201 15.6342 27.0194C15.6342 26.9525 15.6342 26.8856 15.6175 26.8187C15.6593 26.7267 15.676 26.6348 15.676 26.5595C15.676 26.4006 15.676 26.2334 15.676 26.0745V25.899C15.6677 25.6648 15.676 25.3973 15.7011 25.021C15.7011 24.7367 15.7095 24.4692 15.7513 24.2601C15.8182 24.0093 15.8516 23.7668 15.8767 23.516C15.8934 23.3822 15.9101 23.2484 15.9269 23.1481C15.9854 22.8805 16.0439 22.6213 16.1024 22.337C16.2028 21.8688 16.2948 21.3838 16.4202 20.9825C16.6376 20.4557 16.8801 19.9707 17.1644 19.536C17.2563 19.3854 17.3316 19.2266 17.4152 19.051C17.4821 18.9088 17.549 18.7667 17.6242 18.6497C17.6911 18.5493 17.7747 18.4573 17.8583 18.3654C17.9587 18.2483 18.059 18.1396 18.1426 18.0309L18.2513 17.8804C18.3182 17.7968 18.3767 17.7048 18.4353 17.6379C18.5607 17.5041 18.6861 17.3871 18.8366 17.2617L18.962 17.1446C19.0624 17.061 19.1627 16.969 19.263 16.877C19.4386 16.7182 19.6059 16.5677 19.7982 16.4339C19.9152 16.3503 20.0657 16.2917 20.2246 16.2248L21.0524 15.8486C21.2196 15.7817 21.3868 15.6981 21.5541 15.6061C21.8216 15.4723 22.0474 15.3553 22.3233 15.2967C22.4069 15.2716 22.4822 15.2633 22.5742 15.2466C22.7581 15.2131 22.9588 15.1797 23.1762 15.0793C23.218 15.0626 23.2932 15.0292 23.3016 15.0125C23.4688 14.9874 23.6193 14.9121 23.728 14.8034C23.7782 14.7532 23.8284 14.6947 23.8284 14.6696C23.9538 14.5024 24.0207 14.3017 24.0123 14.1011C24.0123 14.0007 23.9872 13.892 23.9454 13.8001C23.9454 13.8001 23.9454 13.7833 23.9538 13.775C24.0458 13.5576 24.0374 13.3318 23.9454 13.1311C23.9705 13.0977 23.9956 13.0559 24.0207 13.0057C24.1126 12.7967 24.1126 12.5877 24.029 12.387C24.029 12.3703 24.0374 12.3619 24.0457 12.3452C24.1544 12.0191 24.0457 11.6763 23.7531 11.4923C23.5022 11.3335 23.1762 11.3334 22.9671 11.484L22.917 11.4338L22.4738 11.9104L22.4905 11.9271C22.3651 12.1111 22.3149 12.3201 22.3484 12.5291C22.3484 12.5793 22.3651 12.6211 22.3818 12.6713C22.2062 12.9723 22.2397 13.2566 22.3233 13.474C22.3066 13.5158 22.2899 13.5576 22.2815 13.5994C22.2648 13.6663 22.2564 13.7332 22.2564 13.8001C21.9972 13.8502 21.7296 13.9171 21.4621 14.0174C21.2614 14.1094 21.0607 14.2014 20.8266 14.3185C20.6427 14.4104 20.4504 14.5024 20.2162 14.6028C20.0657 14.678 19.9069 14.7449 19.748 14.8118C19.5724 14.887 19.3801 14.9706 19.1711 15.0793C18.7865 15.3051 18.4687 15.5894 18.1342 15.8988C18.0339 15.9907 17.9252 16.0827 17.8082 16.1914L17.7329 16.2583C17.5657 16.4088 17.3734 16.5844 17.1978 16.8185C17.0222 17.061 16.8215 17.3118 16.5623 17.6045C16.3366 17.8637 16.2028 18.1563 16.0857 18.4072C16.0105 18.566 15.9436 18.7165 15.8516 18.8503C15.6677 19.1346 15.5171 19.4272 15.375 19.7115L15.2998 19.8704C15.1994 20.0794 15.0656 20.3554 14.9737 20.6647C14.8482 21.0995 14.7563 21.5343 14.6727 21.9607C14.6392 22.1447 14.5974 22.3203 14.5556 22.4959C14.472 22.8387 14.4302 23.1146 14.4051 23.3822C14.3884 23.5661 14.3549 23.7417 14.2964 24.0009C14.2379 24.3103 14.2295 24.6113 14.2211 24.8789V25.0628C14.1877 25.4056 14.1877 25.7484 14.1961 26.0745L14.2128 26.7769C14.1877 26.9776 14.1877 27.1699 14.1961 27.3706L14.2128 28.2151C14.2212 28.8422 14.2379 29.486 14.2295 30.1215C14.2295 30.5562 14.2128 30.991 14.1877 31.5178C14.1793 32.0613 14.171 32.6048 14.1626 33.1483V33.976C14.1626 34.4526 14.1793 34.9292 14.1961 35.4058C14.2044 35.7403 14.2211 36.0664 14.2295 36.4008C14.2462 37.4209 14.2546 38.441 14.263 39.4695L14.288 40.523C14.3215 41.4595 14.3549 42.4377 14.3549 43.3909V44.6702C14.3549 47.5215 14.3466 50.4814 14.3967 53.4162C14.3967 54.1687 14.3967 54.9213 14.3967 55.6738V57.4297C14.3717 58.7424 14.4636 59.8043 14.681 60.7742C14.7897 61.1588 14.9486 61.4933 15.1576 61.7609C15.2245 61.8528 15.2914 61.9532 15.3666 62.0452C15.5506 62.3127 15.7429 62.5803 16.0021 62.8144C16.6877 63.4582 17.3316 63.5084 17.9587 63.5502C18.4185 63.6756 18.8784 63.7258 19.1711 63.7425C20.049 63.8512 20.8935 63.8428 21.6795 63.8345C22.0557 63.8345 22.4404 63.8345 22.8166 63.8345H23.5524H24.121C24.3969 63.8345 24.6812 63.8345 24.9571 63.8345C25.3752 63.8345 25.8016 63.8178 26.203 63.7927H26.295C26.504 63.776 26.713 63.7676 26.9221 63.7592C27.3652 63.7425 27.8167 63.7509 28.31 63.7509H29.0542C29.4054 63.7509 29.7315 63.7509 30.0743 63.7342H30.4171C31.6211 63.7342 32.8503 63.776 34.0627 63.8178H34.1965C34.7734 63.8345 35.3503 63.8178 35.9105 63.8094H36.061C36.3035 63.801 36.546 63.7927 36.7801 63.7927C37.0895 63.7927 37.3905 63.801 37.6999 63.8094L38.4858 63.8261C38.8203 63.8345 39.1464 63.8261 39.4808 63.8261H40.1079C41.128 63.8261 42.1063 63.8094 43.1264 63.6004L43.3689 63.5418C43.5528 63.5 43.7368 63.4582 43.9876 63.3662C44.0712 63.3244 44.1548 63.291 44.2719 63.2575C44.414 63.2074 44.5562 63.1488 44.7569 63.0485C44.9157 62.9482 45.0495 62.8228 45.1916 62.689C45.2502 62.6388 45.3003 62.5886 45.3756 62.5301C45.6766 62.2876 45.8773 62.0452 46.0111 61.786L46.103 61.6187C46.1866 61.4766 46.2619 61.3261 46.3288 61.1839L46.4124 61C46.4458 60.9247 46.4793 60.8495 46.5044 60.7909C46.6047 60.6321 46.7218 60.4147 46.7719 60.1555C46.8054 59.9966 46.8138 59.8378 46.8138 59.6873C46.8138 59.6204 46.8138 59.5535 46.8138 59.5284C46.889 59.0936 46.9224 58.6922 46.9141 58.3243V58.107C46.9141 57.923 46.9224 57.7307 46.9141 57.5384Z" fill="white"/>
<path d="M20.8769 59.7624H1.04376V64.3277H20.8769V59.7624Z" fill="#2F2E2E"/>
<path d="M21.9387 60.4731C21.922 60.122 21.7631 59.8878 21.6628 59.729C21.6126 59.6036 21.5457 59.4112 21.3618 59.2106C20.9605 58.7925 20.4421 58.8845 20.2497 58.9179H20.1076C19.8818 58.9263 19.6477 58.9346 19.4387 58.9597C19.1126 58.9597 18.7949 58.9681 18.4688 58.9681C18.2263 58.9681 17.9754 58.9681 17.7497 58.9681C17.2731 58.9681 16.8968 58.9848 16.5624 59.0183C16.4202 59.0183 16.2697 59.0183 16.0941 59.0183H15.9353C15.6761 59.0099 15.4169 59.0099 15.1577 59.0183C14.9319 59.0183 14.7061 59.0183 14.4888 59.0183H14.1543C13.87 58.9932 13.5774 58.9848 13.2763 58.9932C13.1008 58.9932 12.9335 58.9932 12.7245 58.9848C12.5322 58.9848 12.3399 58.9848 12.1727 58.9765C11.6543 58.9765 11.1609 59.0099 10.676 59.0517L10.2579 59.0852C9.7813 59.1019 9.28797 59.0935 8.81137 59.0852C8.34314 59.0852 7.85818 59.0768 7.34814 59.0852C6.93007 59.1102 6.52037 59.1102 6.07722 59.1102H5.70094C5.54208 59.1102 5.37486 59.127 5.15746 59.1353C4.82301 59.152 4.51365 59.1688 4.22936 59.1437C3.97016 59.1186 3.71094 59.1186 3.4601 59.1102C3.28451 59.1102 3.10892 59.1102 2.90825 59.0935C2.80791 59.0935 2.71594 59.0768 2.59888 59.0601C2.33968 59.0266 2.00522 58.9765 1.67913 59.0266L1.41993 59.0684C1.24434 59.0684 0.751034 59.0517 0.391495 59.4029C0.24099 59.5534 0.140641 59.7373 0.0904725 59.9631H0.0152232L0.0319368 61.1839C0.0319368 61.3176 0.0319368 61.4431 0.0319368 61.6103V61.7608V61.9447C0.00685266 62.2207 -0.00986906 62.4966 0.00685368 62.7809V63.1237C0.0235764 63.4163 0.0319439 63.709 0.0653894 64.1103C0.0653894 64.3194 0.0653812 64.6789 0.266054 64.9214C0.332945 65.0468 0.433277 65.1639 0.575421 65.2642L0.675779 65.3227C0.934981 65.4481 1.17744 65.4482 1.38647 65.4565H1.49518C1.57879 65.4565 1.67076 65.4649 1.77946 65.4732L2.40656 65.4983C2.46509 65.4983 2.58216 65.4983 2.70759 65.4732C2.96679 65.49 3.20927 65.5067 3.41831 65.4983H3.64405C4.07048 65.4983 4.48019 65.4649 4.89826 65.4314C5.13238 65.4147 5.35813 65.3896 5.60061 65.3729C5.84309 65.3562 6.1023 65.3562 6.3615 65.3478L6.75448 65.3311C6.97188 65.3144 7.18091 65.306 7.3983 65.306C7.69095 65.306 7.96687 65.2976 8.25952 65.2726C8.502 65.2558 8.75285 65.2391 8.99533 65.2391C9.68096 65.2057 10.3917 65.2057 11.1108 65.214C11.4536 65.214 11.7964 65.214 12.1058 65.214C12.5656 65.2224 13.0255 65.214 13.5439 65.2057C13.7613 65.2057 13.9787 65.1973 14.2045 65.189C14.4888 65.189 14.773 65.1639 15.0573 65.1471C15.2664 65.1304 15.467 65.1221 15.6593 65.1137H16.2697C16.8049 65.1053 17.3567 65.097 17.9002 65.0635H18.1928C18.427 65.0468 18.6778 65.0385 18.8952 65.005C19.0206 65.005 19.1544 65.005 19.3216 65.005L19.5975 64.9883C19.7731 65.0134 19.9571 65.0217 20.141 65.0384H20.2999C20.3752 65.0468 20.4504 65.0468 20.5591 65.0384C20.8768 65.005 21.1528 64.8211 21.3033 64.5451C21.7799 64.01 21.83 63.107 21.8384 62.2207V62.112C21.9053 61.9447 21.9304 61.7608 21.922 61.5852C21.922 61.3176 21.9304 61.025 21.922 60.7156C21.9387 60.632 21.9387 60.5484 21.9387 60.4731ZM20.1912 61.6186V62.2123C20.1829 62.9397 20.1243 63.2575 20.0992 63.3745C19.9905 63.3745 19.8818 63.3578 19.7815 63.3411H19.7062L19.2631 63.3494C19.1042 63.3494 18.9621 63.3494 18.8116 63.3494H18.7196C18.544 63.3913 18.3517 63.3913 18.0841 63.3996H17.8333C17.3233 63.4414 16.7965 63.4414 16.2781 63.4498H15.6343C15.4252 63.4665 15.2246 63.4749 15.0239 63.4916H14.9152C14.6727 63.5167 14.4386 63.5334 14.1961 63.5334L13.5188 63.5501C13.0673 63.5585 12.6074 63.5752 12.1392 63.5585C11.8048 63.5585 11.4703 63.5585 11.1358 63.5585C10.4168 63.5585 9.6726 63.5585 8.97024 63.5836C8.70268 63.5836 8.42676 63.6003 8.16756 63.617C7.93344 63.6337 7.70769 63.6421 7.49866 63.6505C7.20601 63.6421 6.93007 63.6588 6.67087 63.6839H6.33642C6.06049 63.7006 5.78456 63.709 5.51699 63.7257C5.26615 63.7424 5.01532 63.7592 4.76447 63.7842C4.32132 63.826 3.90326 63.8595 3.4601 63.8511H3.44339C3.20927 63.8511 2.96678 63.8511 2.69922 63.8177L2.38148 63.7842L2.30623 63.8428L1.77112 63.8177C1.77112 63.8177 1.73766 63.8177 1.72929 63.8177C1.70421 63.5836 1.70423 63.3495 1.69587 63.0986V62.7056C1.67078 62.5133 1.68749 62.3126 1.70421 62.0869L1.72095 61.7859L1.70421 61.418V60.8494C1.71257 60.8076 1.71258 60.7658 1.71258 60.724C1.73766 60.724 1.75438 60.724 1.77946 60.7156L1.92998 60.6905C2.03032 60.6738 2.18919 60.6905 2.37314 60.724C2.532 60.7491 2.69086 60.7658 2.833 60.7741C3.03367 60.7909 3.22599 60.7909 3.4601 60.7909C3.6775 60.7909 3.88654 60.7909 4.09558 60.816C4.49692 60.8494 4.88153 60.8243 5.25779 60.816C5.42502 60.816 5.58389 60.7992 5.7344 60.7992H6.08559C6.5371 60.7992 6.99696 60.7992 7.43175 60.7658C7.88327 60.7491 8.35151 60.7658 8.84483 60.7658C9.32979 60.7658 9.83147 60.7741 10.3582 60.7658L10.8265 60.7323C11.2863 60.6905 11.7211 60.6571 12.1727 60.6655C12.3315 60.6655 12.482 60.6654 12.6743 60.6738C12.8917 60.6738 13.1008 60.6905 13.3182 60.6822C13.569 60.6822 13.8115 60.6822 14.1041 60.6989H14.4637C14.7061 60.7156 14.9486 60.7073 15.2496 60.6989C15.467 60.6989 15.6844 60.6989 15.8935 60.6989H16.0272C16.2279 60.7156 16.437 60.7156 16.7129 60.6989C16.9972 60.6654 17.3149 60.6487 17.7497 60.6571H18.4688C18.8116 60.6487 19.146 60.6487 19.5474 60.632C19.7397 60.6153 19.9404 60.6069 20.1578 60.5986H20.2246L20.2497 60.7073C20.2748 60.9665 20.2665 61.2424 20.2665 61.5434L20.1828 61.6354L20.1912 61.6186Z" fill="white"/>
<path d="M41.9306 54.8042L41.847 54.7373H41.8052C41.2868 54.4697 40.7266 54.3025 40.1914 54.1436C39.6897 53.9931 39.2131 53.851 38.7533 53.6252C38.7533 53.6252 38.7533 53.6252 38.7449 53.6252L38.7867 53.55C38.9289 53.2991 39.1128 53.065 39.3051 52.8225L39.3887 52.7222C39.6061 52.4379 39.7984 52.1369 39.9824 51.8526C40.0744 51.7021 40.1747 51.56 40.2583 51.4262C40.668 50.866 40.9941 50.2807 41.2115 49.7037C41.4373 49.1853 41.663 48.6502 41.3704 48.3325C41.1195 48.0649 40.6597 48.182 40.342 48.299C40.0744 48.391 39.8235 48.5164 39.5894 48.6418C39.4055 48.7338 39.2215 48.8258 39.0292 48.9094C38.3687 49.1937 37.6997 49.4696 37.0308 49.7288C36.872 49.7873 36.7131 49.8375 36.5459 49.8877C36.2783 49.9713 36.0024 50.0549 35.7432 50.172C35.2081 50.3977 34.698 50.6904 34.2047 50.9747L33.9539 51.1168C33.887 51.1001 33.8201 51.0917 33.7615 51.0834C33.7281 51.0834 33.6863 51.075 33.6361 51.0583C33.3017 50.983 32.9756 50.9161 32.616 50.8492L32.4404 50.8325C32.2147 50.8158 31.9889 50.7907 31.7297 50.7405C31.6796 50.7405 31.621 50.7238 31.5458 50.7154C31.1946 50.6653 30.718 50.5817 30.4588 50.8492C30.3752 50.9412 30.2748 51.1001 30.3417 51.4262C30.4839 51.7439 30.7347 51.9613 30.9521 52.162C31.0692 52.2707 31.1862 52.371 31.2782 52.4797C31.529 52.8142 31.8719 52.9981 32.2063 53.1737C32.3485 53.2489 32.4823 53.3158 32.5993 53.3911C32.8334 53.5667 33.0592 53.7339 33.3268 53.8593C33.4522 53.9179 33.5609 53.9931 33.703 54.0935L33.7365 54.2607C33.7615 54.4112 33.795 54.5617 33.8201 54.7289L33.9037 55.1052C34.0207 55.6487 34.1378 56.2089 34.2298 56.7774C34.2799 57.045 34.3552 57.3126 34.4305 57.5801C34.4806 57.7641 34.5308 57.948 34.5726 58.1403C34.4806 58.4497 34.6395 58.6588 34.8402 58.7507C34.907 58.7842 34.9739 58.7925 35.0408 58.7925C35.1746 58.7925 35.3 58.734 35.4004 58.6337C35.5509 58.5835 35.6763 58.4832 35.7766 58.3996L35.8519 58.341C35.994 58.224 36.1278 58.1069 36.2783 58.0316C36.6379 57.8477 37.0141 57.7223 37.4155 57.5801C37.6663 57.4965 37.9172 57.4045 38.168 57.3042C38.3603 57.229 38.5442 57.137 38.7366 57.0534C38.9372 56.9614 39.1379 56.8611 39.3469 56.7858C39.8235 56.6269 40.2918 56.4179 40.7851 56.1503C41.0276 56.0249 41.3202 55.9079 41.6296 55.7908C41.8721 55.7156 42.0644 55.54 42.1062 55.3226C42.148 55.1386 42.0811 54.9547 41.9222 54.8125L41.9306 54.8042ZM34.581 53.3576C34.5475 53.1821 34.5057 52.9981 34.4639 52.8225C34.3887 52.5048 34.3134 52.2038 34.2967 51.8944C34.5559 51.7773 34.8067 51.6519 35.0659 51.5265C35.4756 51.3258 35.9021 51.1168 36.3285 50.9663C36.4957 50.9078 36.6713 50.8576 36.8385 50.8074C37.0977 50.7238 37.3653 50.6486 37.6245 50.5482C37.8503 50.4562 38.076 50.3643 38.3018 50.2723C38.77 50.08 39.2466 49.896 39.6898 49.687C39.8403 49.6201 39.9908 49.5449 40.1413 49.4696C40.1747 49.4529 40.2082 49.4362 40.25 49.4194C40.1413 49.687 40.0075 49.9546 39.8654 50.2138C39.765 50.381 39.6563 50.5399 39.5476 50.6987C39.4473 50.8409 39.3469 50.9914 39.2382 51.1586C38.979 51.5599 38.7115 51.978 38.4021 52.3459C38.0844 52.7305 37.8503 53.157 37.6245 53.575C37.4824 53.8426 37.3318 54.1102 37.1646 54.361C37.0476 54.5366 36.9222 54.7038 36.7884 54.8711C36.6295 55.0717 36.479 55.2808 36.3369 55.4898C36.2114 55.6654 36.0944 55.8577 35.9773 56.05C35.7766 56.3761 35.5592 56.7106 35.3168 57.0032C35.2833 56.8611 35.2415 56.7273 35.2164 56.5851C35.1245 56.0082 34.999 55.448 34.882 54.8711C34.8235 54.6202 34.7733 54.361 34.7231 54.1102L34.581 53.366V53.3576ZM36.7884 56.6353C36.8971 56.4597 37.0058 56.2925 37.1228 56.1169C37.265 55.8995 37.4238 55.6905 37.5827 55.4814C37.7248 55.2891 37.8753 55.1052 38.0091 54.9045C38.1178 54.7456 38.2181 54.5784 38.3101 54.4028C38.4021 54.4613 38.4941 54.5115 38.5944 54.5617C39.0459 54.7958 39.5309 54.9547 40.0075 55.1052C40.1329 55.147 40.2583 55.1888 40.3754 55.2306C40.2583 55.2891 40.1413 55.3476 40.0326 55.4062L39.8904 55.4814C39.648 55.5985 39.3971 55.6988 39.1295 55.7992L38.4439 56.0834C38.0008 56.2841 37.5743 56.4764 37.1228 56.6186C36.9974 56.6604 36.8636 56.7022 36.7298 56.7524C36.7549 56.7189 36.78 56.6771 36.7967 56.6353H36.7884ZM32.223 51.9864C32.1729 51.9446 32.1394 51.8944 32.106 51.861C32.0809 51.8359 32.0558 51.8024 32.0308 51.7773C32.0391 51.7773 32.0475 51.7773 32.0558 51.7773L32.2481 51.7941C32.3735 51.7941 32.4906 51.8108 32.6328 51.8359C32.7498 51.8526 32.8669 51.8777 32.9923 51.9028C33.1261 51.9278 33.2599 51.9613 33.402 51.978C33.402 52.1703 33.4104 52.371 33.4522 52.5884L33.4856 52.764L33.4187 52.7138C33.2599 52.5968 33.0926 52.4713 32.9087 52.371C32.8334 52.3292 32.7498 52.2874 32.6746 52.2456C32.5073 52.162 32.3568 52.0784 32.2398 51.9864H32.223Z" fill="#FF76B4"/>
<path d="M31.0358 40.4895C31.1612 40.8908 31.4288 41.1751 31.688 41.4427C31.7967 41.5597 31.9054 41.6684 31.989 41.7771C32.1395 42.0029 32.3067 42.2454 32.5325 42.4544C32.6328 42.5464 32.7081 42.6551 32.8084 42.7972L32.7833 42.9644C32.7583 43.115 32.7415 43.2738 32.7164 43.4327L32.6663 43.8257C32.5994 44.3692 32.5325 44.9377 32.4322 45.4979C32.3987 45.7739 32.3736 46.0498 32.3569 46.3257C32.3485 46.518 32.3318 46.7103 32.3151 46.9026C32.1312 47.1618 32.2148 47.4127 32.3653 47.5716C32.4572 47.6635 32.5743 47.7053 32.6914 47.7053C32.7666 47.7053 32.8502 47.6886 32.9255 47.6468C33.076 47.6468 33.2348 47.5883 33.3519 47.5465L33.4522 47.513C33.6111 47.4461 33.7867 47.3876 33.9539 47.3625C34.6061 47.2705 35.2834 47.3291 35.969 47.2873C36.1781 47.2789 36.3787 47.2538 36.5878 47.2371C36.8135 47.212 37.0309 47.1869 37.2483 47.1869C37.7416 47.1702 38.26 47.1451 38.8119 47.0532C39.0794 47.0114 39.3888 47.003 39.7233 46.9863C39.9657 46.9946 40.2166 46.8859 40.3253 46.702C40.4256 46.5431 40.4256 46.3424 40.3253 46.1669L40.2835 46.1167C39.8654 45.6652 39.3721 45.314 38.8955 44.9712C38.4691 44.6618 38.0594 44.3775 37.7082 44.018C37.7082 44.018 37.7082 44.018 37.6998 44.0096L37.7583 43.9511C37.9757 43.7588 38.2266 43.5999 38.4858 43.4327L38.5945 43.3658C38.8955 43.1735 39.1714 42.9477 39.4474 42.7303C39.5811 42.6216 39.7233 42.5129 39.8487 42.4126C40.4173 42.0196 40.9106 41.5681 41.3119 41.0915C41.6882 40.6734 42.0812 40.2386 41.9056 39.8456C41.7635 39.5279 41.337 39.4778 41.0109 39.4778C40.6932 39.4778 40.4089 39.5196 40.1163 39.553C39.9156 39.5781 39.7066 39.6115 39.4975 39.6199C38.7784 39.6701 38.051 39.7119 37.3403 39.7537C37.173 39.7537 37.0058 39.7537 36.8386 39.7537C36.5543 39.7537 36.2617 39.737 35.9774 39.7537C35.4005 39.7955 34.8235 39.9042 34.2717 40.0045L33.979 40.0631C33.9205 40.0212 33.8619 39.9962 33.8118 39.9627C33.7783 39.946 33.7449 39.9293 33.7031 39.9042L33.5275 39.7955C33.3017 39.6533 33.0676 39.5196 32.8084 39.3691L32.6412 39.2938C32.4322 39.2018 32.2315 39.1099 32.0057 38.9761C31.9639 38.9593 31.9054 38.9259 31.8385 38.8925C31.5291 38.7252 31.1027 38.4995 30.7682 38.6667C30.6595 38.7252 30.5174 38.8423 30.4672 39.1767C30.5007 39.5196 30.6596 39.8122 30.8017 40.0714C30.877 40.2052 30.9606 40.3473 31.0107 40.4811L31.0358 40.4895ZM32.4991 40.3306C32.6078 40.3891 32.7081 40.4477 32.8084 40.5062C32.9255 40.5731 33.0509 40.6483 33.168 40.7152C33.1011 40.8908 33.0509 41.0915 33.0175 41.3089C33.0175 41.3674 33.0007 41.426 32.9924 41.4845L32.9422 41.4176C32.8251 41.2504 32.7081 41.0831 32.5659 40.9326C32.5074 40.8657 32.4405 40.7989 32.382 40.732C32.2566 40.5982 32.1312 40.4728 32.0559 40.3473C32.0225 40.2888 31.9974 40.2303 31.9807 40.1885C31.9639 40.155 31.9556 40.1132 31.9388 40.0798C31.9472 40.0798 31.9556 40.0798 31.9639 40.0881L32.1479 40.1634C32.2566 40.2136 32.3736 40.2554 32.4907 40.3306H32.4991ZM33.9372 41.6015C33.9623 41.3674 33.9957 41.15 34.0543 40.9243C34.3385 40.8992 34.6145 40.8657 34.8988 40.8239C35.3503 40.7654 35.8185 40.7069 36.2784 40.7069C36.4623 40.7069 36.6463 40.7069 36.8219 40.7236C37.0894 40.732 37.3654 40.7403 37.6413 40.732C37.8838 40.7152 38.1263 40.7069 38.3771 40.6902C38.8871 40.6651 39.3972 40.64 39.8821 40.5898C40.0494 40.5814 40.2166 40.5564 40.3838 40.5313C40.4256 40.5313 40.4591 40.5229 40.5009 40.5146C40.3086 40.7236 40.0995 40.941 39.8821 41.1333C39.7316 41.2587 39.5728 41.3758 39.4139 41.4928C39.2718 41.5932 39.138 41.7019 38.9875 41.8189C38.6112 42.1199 38.2182 42.4293 37.8002 42.6802C37.3737 42.9394 37.0142 43.2654 36.663 43.5832C36.4372 43.7922 36.2115 43.9929 35.9774 44.1768C35.8102 44.3023 35.6346 44.4193 35.459 44.5364C35.2416 44.6785 35.0325 44.8207 34.8319 44.9712C34.6563 45.105 34.4807 45.2471 34.2967 45.3892C34.0041 45.6317 33.6947 45.8742 33.3686 46.0665C33.377 45.9244 33.3937 45.7822 33.4104 45.6401C33.5108 45.0631 33.5777 44.4862 33.6529 43.9093C33.7115 43.4076 33.7783 42.8976 33.8536 42.3959L33.9874 41.543L33.9372 41.5932V41.6015ZM34.8737 46.217C35.0325 46.0916 35.1831 45.9578 35.3503 45.8324C35.5593 45.6735 35.7767 45.523 36.0025 45.3725C36.2031 45.2387 36.3954 45.105 36.5878 44.9628C36.7383 44.8458 36.8888 44.7203 37.0393 44.5865C37.1062 44.6702 37.1814 44.7454 37.2567 44.829C37.6162 45.1969 38.0175 45.5063 38.4105 45.8073C38.5109 45.8826 38.6196 45.9662 38.7199 46.0414C38.6029 46.0581 38.4858 46.0749 38.3604 46.0916L38.1681 46.1167C37.9005 46.1501 37.6329 46.1585 37.357 46.1669L36.5961 46.217C36.1112 46.2588 35.6513 46.3006 35.183 46.2923C35.0994 46.2923 35.0242 46.2923 34.9406 46.2923C34.882 46.2923 34.8235 46.2923 34.765 46.2923C34.7984 46.2672 34.8402 46.2337 34.8737 46.2003V46.217Z" fill="#FF76B4"/>
<path d="M30.8102 47.4796C30.7265 47.2872 30.5426 47.1702 30.3252 47.1869C30.1831 47.12 30.0158 47.1117 29.8904 47.1033H29.7901C29.6061 47.0866 29.4306 47.0782 29.2633 47.028C28.8703 46.9194 28.5108 46.7521 28.1178 46.5849C27.8753 46.4762 27.6329 46.3759 27.382 46.2755C27.1897 46.2003 26.9974 46.1417 26.7967 46.0749C26.5793 46.008 26.3703 45.9411 26.1696 45.8575C25.7097 45.6568 25.2248 45.4895 24.6813 45.3474C24.4221 45.2722 24.1378 45.1635 23.8201 45.038C23.5943 44.9293 23.3267 44.9293 23.1511 45.0548C22.9923 45.1635 22.917 45.3474 22.9421 45.5564L22.9588 45.6233C23.1595 46.2003 23.4689 46.727 23.7615 47.2287C24.0291 47.6802 24.2799 48.115 24.4639 48.5833C24.4639 48.5833 24.4639 48.5833 24.4639 48.5916C24.4388 48.6 24.4137 48.6083 24.3886 48.6167C24.1127 48.7087 23.8201 48.7505 23.5107 48.8007L23.3853 48.8174C23.0341 48.8759 22.6829 48.9679 22.3485 49.0515C22.1812 49.0933 22.014 49.1435 21.8551 49.1769C21.1695 49.3107 20.5424 49.5197 19.9905 49.7957C19.4721 50.0298 18.9454 50.2639 18.9454 50.6987C18.9454 51.0666 19.3635 51.284 19.6728 51.4178C19.932 51.5348 20.1996 51.6101 20.4588 51.677C20.6595 51.7355 20.8518 51.7857 21.0525 51.8609C21.7297 52.1034 22.4153 52.3542 23.0759 52.6134C23.2348 52.6803 23.3853 52.7472 23.5358 52.8225C23.795 52.9479 24.0542 53.065 24.3218 53.1653C24.8652 53.3576 25.4338 53.4914 25.9857 53.6168L26.2783 53.6837C26.3118 53.7422 26.3536 53.7924 26.387 53.8342C26.4121 53.8676 26.4372 53.8927 26.4623 53.9345L26.5542 54.0683C26.7131 54.3024 26.8803 54.5282 27.0643 54.779L27.1981 54.9295C27.3402 55.0884 27.4907 55.2556 27.6412 55.4563C27.6747 55.4897 27.7165 55.5399 27.7583 55.5985C27.9757 55.866 28.2599 56.2339 28.6195 56.2339H28.6446C28.77 56.2339 28.9456 56.1754 29.1212 55.8827C29.2299 55.5566 29.1964 55.2222 29.1713 54.9295C29.1546 54.7707 29.1379 54.6118 29.1463 54.4697C29.1881 54.0516 29.0626 53.6837 28.9289 53.3325C28.8787 53.182 28.8202 53.0399 28.7867 52.9061C28.7366 52.6218 28.678 52.3459 28.5693 52.07C28.5191 51.9445 28.4857 51.8107 28.4523 51.6435L28.5359 51.5097C28.6195 51.376 28.7031 51.2422 28.7951 51.1L28.9874 50.7656C29.2717 50.289 29.5643 49.7957 29.8821 49.3191C30.0242 49.0849 30.158 48.8341 30.2834 48.5916C30.3754 48.4244 30.459 48.2488 30.551 48.0816C30.8269 47.9144 30.852 47.6552 30.7684 47.4461L30.8102 47.4796ZM28.1763 54.386C28.1763 54.386 28.1763 54.4613 28.1763 54.5031C28.1763 54.5031 28.168 54.4864 28.1596 54.4864C28.1178 54.4362 28.0676 54.386 28.0175 54.3359C27.9339 54.2523 27.8503 54.1603 27.775 54.0516C27.6998 53.9596 27.6329 53.8593 27.5576 53.7589C27.474 53.6502 27.3987 53.5332 27.3067 53.4245C27.4405 53.2907 27.566 53.1318 27.683 52.9395C27.7165 52.8894 27.7499 52.8392 27.775 52.789L27.7917 52.8726C27.8252 53.0733 27.867 53.274 27.9422 53.4663C27.9673 53.5499 28.0008 53.6419 28.0342 53.7255C28.1011 53.9011 28.1596 54.06 28.1763 54.2105C28.1763 54.2774 28.1763 54.3359 28.1763 54.386ZM27.29 51.7439C27.2231 51.8526 27.1646 51.9696 27.0977 52.0783C26.9388 52.3626 26.7884 52.6302 26.596 52.8726C26.3285 52.7807 26.0526 52.697 25.785 52.6218C25.3502 52.4964 24.8903 52.3626 24.4723 52.1786C24.305 52.1034 24.1462 52.0281 23.9789 51.9445C23.7365 51.8275 23.494 51.7104 23.2348 51.6017C23.0006 51.5181 22.7582 51.4261 22.524 51.3341C22.0558 51.1586 21.5876 50.9746 21.1277 50.8325C20.9688 50.7739 20.81 50.7321 20.6511 50.682C20.6093 50.6736 20.5759 50.6569 20.5341 50.6485C20.7933 50.5315 21.0692 50.4144 21.3535 50.3308C21.5374 50.2806 21.7297 50.2388 21.922 50.197C22.0976 50.1552 22.2648 50.1218 22.4321 50.0716C22.9003 49.9462 23.3853 49.8207 23.8786 49.7622C24.3719 49.6953 24.8318 49.5365 25.2833 49.3859C25.5676 49.2856 25.8602 49.1936 26.1529 49.1184C26.3619 49.0682 26.5626 49.0348 26.7716 49.0013C27.0225 48.9595 27.2817 48.9094 27.5241 48.8508C27.7415 48.8007 27.9589 48.7421 28.1763 48.6836C28.5442 48.5833 28.9205 48.4829 29.2968 48.4328C29.2299 48.5582 29.163 48.6836 29.0877 48.809C28.77 49.294 28.469 49.7957 28.168 50.2973C27.9088 50.7321 27.6496 51.1753 27.3736 51.6017L27.29 51.7355V51.7439ZM25.693 46.7438L26.4037 47.003C26.8636 47.1535 27.2984 47.304 27.7248 47.5046C27.8502 47.5632 27.9757 47.6133 28.1095 47.6719C28.0676 47.6802 28.0258 47.697 27.984 47.7053C27.7834 47.7638 27.5911 47.814 27.382 47.8642C27.1228 47.9311 26.8636 47.9729 26.6044 48.023C26.3703 48.0648 26.1362 48.1067 25.9104 48.1568C25.7265 48.1986 25.5341 48.2572 25.3502 48.3157C25.3251 48.2321 25.3 48.1568 25.2749 48.0816L25.2499 48.0063C25.0743 47.5297 24.8234 47.0782 24.581 46.6518C24.5141 46.5347 24.4555 46.426 24.3886 46.309C24.5057 46.3424 24.6228 46.3759 24.7398 46.4093L24.9154 46.4595C25.1746 46.5347 25.4254 46.6351 25.693 46.7438Z" fill="#FF76B4"/>
</svg>
