<svg width="23" height="24" viewBox="0 0 23 24" fill="none" xmlns="http://www.w3.org/2000/svg">
<path d="M19.1529 4.06396H4.1229C2.70721 4.06396 1.55957 5.18927 1.55957 6.57743V20.3706C1.55957 21.7587 2.70721 22.884 4.1229 22.884H19.1529C20.5686 22.884 21.7162 21.7587 21.7162 20.3706V6.57743C21.7162 5.18927 20.5686 4.06396 19.1529 4.06396Z" stroke="white" stroke-width="1.33333" stroke-miterlimit="10" stroke-linecap="round"/>
<path d="M13.9662 1.36768H18.2595C18.6962 1.36768 19.0528 1.71741 19.0528 2.14558V4.06419H13.1729V2.14558C13.1729 1.71741 13.5295 1.36768 13.9662 1.36768Z" stroke="white" stroke-width="1.33333" stroke-miterlimit="10" stroke-linecap="round"/>
<path d="M11.6393 17.2201C14.0159 17.2201 15.9426 15.3309 15.9426 13.0004C15.9426 10.67 14.0159 8.78076 11.6393 8.78076C9.26261 8.78076 7.33594 10.67 7.33594 13.0004C7.33594 15.3309 9.26261 17.2201 11.6393 17.2201Z" stroke="white" stroke-width="1.33333" stroke-miterlimit="10" stroke-linecap="round"/>
</svg>
