<svg width="168" height="266" viewBox="0 0 168 266" fill="none" xmlns="http://www.w3.org/2000/svg">
<path d="M41.675 218.928C41.803 218.816 41.979 218.76 42.203 218.76C42.395 218.776 42.555 218.848 42.683 218.976C42.811 219.104 42.899 219.216 42.947 219.312C42.995 219.392 43.035 220.456 43.067 222.504L43.115 225.576L44.411 225.624C45.259 225.656 45.755 225.704 45.899 225.768C46.155 225.912 46.283 226.112 46.283 226.368C46.283 226.816 46.059 227.128 45.611 227.304C45.467 227.368 45.107 227.4 44.531 227.4C44.003 227.4 43.619 227.44 43.379 227.52L43.067 227.64V229.368C43.067 230.28 43.027 231.392 42.947 232.704C42.883 233.68 42.795 234.288 42.683 234.528C42.587 234.704 42.371 234.792 42.035 234.792C41.811 234.792 41.603 234.76 41.411 234.696C41.315 234.632 41.227 234.528 41.147 234.384C41.051 234.224 41.003 233.96 41.003 233.592L41.075 231.504C41.075 231.264 41.091 230.776 41.123 230.04C41.171 228.136 41.195 225.968 41.195 223.536C41.195 221.44 41.219 220.192 41.267 219.792C41.283 219.408 41.419 219.12 41.675 218.928ZM28.403 230.976C28.403 230.704 28.475 230.44 28.619 230.184C28.731 229.944 29.011 229.536 29.459 228.96L30.323 227.76C30.595 227.312 30.923 226.808 31.307 226.248C31.739 225.56 32.011 224.976 32.123 224.496C32.235 224.016 32.315 223.088 32.363 221.712C32.395 220.752 32.443 220.168 32.507 219.96C32.555 219.72 32.699 219.544 32.939 219.432C33.067 219.368 33.203 219.336 33.347 219.336C33.523 219.336 33.683 219.408 33.827 219.552L34.091 219.816V221.136C34.091 222.112 34.059 222.896 33.995 223.488C33.979 224.176 33.979 224.544 33.995 224.592C34.027 224.656 34.347 225.016 34.955 225.672L36.107 226.944C36.491 227.424 37.011 228.016 37.667 228.72C38.067 229.136 38.347 229.536 38.507 229.92C38.619 230.192 38.675 230.392 38.675 230.52C38.675 230.632 38.651 230.728 38.603 230.808C38.539 230.936 38.395 231.064 38.171 231.192C38.027 231.256 37.907 231.288 37.811 231.288C37.763 231.288 37.659 231.248 37.499 231.168C37.291 231.04 36.955 230.704 36.491 230.16L35.219 228.672L33.995 227.328C33.563 226.816 33.307 226.576 33.227 226.608C33.131 226.64 32.883 227.008 32.483 227.712C32.115 228.352 31.795 228.872 31.523 229.272C31.363 229.512 31.123 229.896 30.803 230.424C30.563 230.84 30.307 231.184 30.035 231.456C29.891 231.6 29.771 231.704 29.675 231.768C29.611 231.816 29.483 231.84 29.291 231.84C29.051 231.84 28.843 231.776 28.667 231.648C28.555 231.584 28.483 231.504 28.451 231.408C28.419 231.312 28.403 231.168 28.403 230.976ZM58.7489 218.328C58.8929 218.248 59.0289 218.192 59.1569 218.16C59.2529 218.16 59.3809 218.208 59.5409 218.304C59.7169 218.4 59.8129 218.552 59.8289 218.76C59.8769 219.16 59.9089 219.8 59.9249 220.68C59.9569 221.8 60.0049 222.4 60.0689 222.48C60.1489 222.56 60.5969 222.6 61.4129 222.6C62.2609 222.6 62.7889 222.656 62.9969 222.768C63.2209 222.896 63.3329 223.152 63.3329 223.536C63.3329 223.728 63.2769 223.904 63.1649 224.064L62.9729 224.304L61.6049 224.28H61.2929C60.5889 224.248 60.1809 224.304 60.0689 224.448C59.9409 224.608 59.8769 225.128 59.8769 226.008V226.392C59.8769 227.256 59.8689 227.752 59.8529 227.88C59.8209 228.072 59.7649 228.224 59.6849 228.336C59.5729 228.48 59.3569 228.552 59.0369 228.552C58.7009 228.552 58.4689 228.48 58.3409 228.336C58.1969 228.208 58.1009 227.944 58.0529 227.544C58.0209 227.176 58.0209 226.856 58.0529 226.584C58.1169 226.28 58.1569 224.968 58.1729 222.648C58.2209 220.728 58.2689 219.56 58.3169 219.144C58.3649 218.744 58.5089 218.472 58.7489 218.328ZM46.9889 225.144C46.9889 223.928 47.0209 223.192 47.0849 222.936C47.1649 222.632 47.3329 222.424 47.5889 222.312C47.7809 222.216 48.7329 222.168 50.4449 222.168C52.1249 222.168 53.0289 222.128 53.1569 222.048C53.2689 221.984 53.3489 221.696 53.3969 221.184C53.4129 221.072 53.4209 220.928 53.4209 220.752C53.4209 220.512 53.3889 220.368 53.3249 220.32C53.2609 220.24 52.3009 220.192 50.4449 220.176C49.0209 220.16 48.1249 220.12 47.7569 220.056C47.4529 220.008 47.2529 219.864 47.1569 219.624C47.1249 219.528 47.1089 219.456 47.1089 219.408C47.1089 219.344 47.1249 219.264 47.1569 219.168C47.2369 218.976 47.3409 218.848 47.4689 218.784C47.5809 218.72 48.0129 218.688 48.7649 218.688C49.2129 218.688 49.5409 218.68 49.7489 218.664L52.5569 218.64C53.7889 218.64 54.4689 218.672 54.5969 218.736C54.9329 218.912 55.1489 219.168 55.2449 219.504C55.2929 219.712 55.3169 220.008 55.3169 220.392C55.3169 220.568 55.3009 220.896 55.2689 221.376C55.2209 222.048 55.1409 222.528 55.0289 222.816C54.9169 223.12 54.7489 223.336 54.5249 223.464C54.1729 223.656 53.1009 223.752 51.3089 223.752C50.0929 223.752 49.3969 223.768 49.2209 223.8C48.9969 223.848 48.8609 223.968 48.8129 224.16C48.7969 224.192 48.7889 224.312 48.7889 224.52C48.7889 224.808 48.7969 225.056 48.8129 225.264L48.9089 226.128H51.8849C53.9009 226.128 54.9329 226.136 54.9809 226.152C55.1089 226.168 55.2289 226.264 55.3409 226.44C55.4689 226.616 55.5329 226.784 55.5329 226.944C55.5009 227.296 55.3649 227.536 55.1249 227.664C54.9809 227.744 53.7009 227.792 51.2849 227.808L47.6129 227.88L46.9889 227.208V225.144ZM49.1249 232.488C49.1249 232.056 49.1489 231.792 49.1969 231.696C49.2609 231.616 49.3569 231.416 49.4849 231.096C49.6449 230.776 49.8209 230.52 50.0129 230.328C50.1569 230.184 50.4209 229.984 50.8049 229.728C51.1729 229.504 51.4449 229.368 51.6209 229.32C51.7489 229.304 51.8769 229.256 52.0049 229.176C52.3729 229.032 52.9809 228.912 53.8289 228.816C54.2449 228.784 54.5729 228.768 54.8129 228.768C55.2929 228.768 55.8689 228.808 56.5409 228.888C57.5009 229.032 58.2209 229.232 58.7009 229.488C58.9409 229.616 59.2289 229.84 59.5649 230.16C59.8849 230.496 60.1089 230.784 60.2369 231.024C60.3809 231.28 60.4529 231.656 60.4529 232.152C60.4209 232.696 60.3329 233.12 60.1889 233.424C60.0289 233.744 59.7409 234.064 59.3249 234.384C58.4129 235.072 57.0369 235.416 55.1969 235.416C53.9169 235.416 52.6049 235.216 51.2609 234.816C50.4769 234.56 49.9169 234.264 49.5809 233.928C49.2769 233.624 49.1249 233.144 49.1249 232.488ZM51.1649 233.016C51.4849 233.304 52.3329 233.512 53.7089 233.64C54.2849 233.688 54.7969 233.712 55.2449 233.712C56.1249 233.712 56.8129 233.624 57.3089 233.448C57.6129 233.336 57.8849 233.168 58.1249 232.944C58.3649 232.704 58.4849 232.464 58.4849 232.224C58.4849 231.824 58.3809 231.496 58.1729 231.24C57.9809 231 57.5889 230.792 56.9969 230.616C56.7409 230.52 55.9409 230.472 54.5969 230.472C54.1009 230.472 53.7409 230.488 53.5169 230.52L53.1809 230.592L52.8209 230.64C52.0849 230.784 51.5409 231.128 51.1889 231.672C50.9969 231.96 50.9009 232.208 50.9009 232.416C50.9009 232.64 50.9889 232.84 51.1649 233.016ZM77.8514 218.52C77.9154 218.504 78.0434 218.496 78.2354 218.496C78.6034 218.496 78.8274 218.536 78.9074 218.616C78.9874 218.696 79.0274 221.384 79.0274 226.68V234.648L78.7634 234.864C78.5714 235.024 78.3954 235.104 78.2354 235.104C78.0434 235.104 77.8354 235.008 77.6114 234.816L77.3474 234.576L77.2754 232.944C77.2434 232.208 77.2274 231.128 77.2274 229.704L77.2514 225.504C77.2834 221.456 77.3154 219.352 77.3474 219.192C77.4434 218.792 77.6114 218.568 77.8514 218.52ZM64.0514 231.336C64.0514 230.92 64.2274 230.656 64.5794 230.544C64.7874 230.48 66.4594 230.424 69.5954 230.376C72.7474 230.296 74.3314 230.248 74.3474 230.232C74.3794 230.2 74.4994 230.184 74.7074 230.184C74.9474 230.216 75.1234 230.248 75.2354 230.28C75.6834 230.408 75.9394 230.632 76.0034 230.952V231.072C76.0034 231.216 75.9714 231.352 75.9074 231.48C75.8274 231.672 75.7074 231.808 75.5474 231.888C75.3714 231.952 73.6754 231.992 70.4594 232.008C67.2914 232.024 65.5234 232.056 65.1554 232.104H65.0114C64.7714 232.104 64.5634 232.056 64.3874 231.96C64.1634 231.8 64.0514 231.592 64.0514 231.336ZM65.2274 223.176C65.3394 222.6 65.5554 222.032 65.8754 221.472C66.0194 221.216 66.3154 220.896 66.7634 220.512C67.2274 220.096 67.5154 219.888 67.6274 219.888L67.9874 219.744C68.1634 219.664 68.3874 219.592 68.6594 219.528C68.9314 219.464 69.2434 219.432 69.5954 219.432C69.9634 219.432 70.2994 219.464 70.6034 219.528C71.2434 219.64 71.8034 219.848 72.2834 220.152C72.9554 220.6 73.4594 221.296 73.7954 222.24C73.9874 222.816 74.0834 223.376 74.0834 223.92C74.0834 224.24 74.0434 224.584 73.9634 224.952C73.6274 226.312 72.9954 227.264 72.0674 227.808C71.6514 228.048 71.2834 228.208 70.9634 228.288C70.6114 228.368 70.1634 228.408 69.6194 228.408C68.8354 228.408 68.2034 228.304 67.7234 228.096C67.2274 227.904 66.7234 227.552 66.2114 227.04C65.4754 226.304 65.1074 225.392 65.1074 224.304C65.1074 223.984 65.1474 223.608 65.2274 223.176ZM67.0274 224.184C67.0274 224.808 67.0914 225.264 67.2194 225.552C67.6354 226.304 68.4114 226.712 69.5474 226.776C69.8674 226.792 70.0834 226.792 70.1954 226.776C70.3714 226.744 70.5474 226.688 70.7234 226.608C71.3954 226.304 71.8434 225.728 72.0674 224.88C72.1474 224.56 72.1874 224.272 72.1874 224.016C72.1874 223.76 72.1474 223.456 72.0674 223.104C71.9554 222.64 71.8114 222.272 71.6354 222C71.4274 221.744 71.1314 221.536 70.7474 221.376C70.3474 221.216 69.9474 221.136 69.5474 221.136C69.1954 221.136 68.8834 221.208 68.6114 221.352C67.9714 221.672 67.5234 222.128 67.2674 222.72C67.1714 222.896 67.1074 223.088 67.0754 223.296C67.0434 223.52 67.0274 223.816 67.0274 224.184ZM90.1696 218.016C90.2656 217.968 91.0656 217.944 92.5696 217.944L95.9056 217.968L98.2336 217.992C99.5136 217.992 100.29 218 100.562 218.016C101.218 218.032 101.626 218.08 101.786 218.16C102.122 218.288 102.33 218.472 102.41 218.712C102.426 218.744 102.434 218.8 102.434 218.88C102.434 219.04 102.346 219.232 102.17 219.456L101.882 219.744L99.4576 219.672L97.8496 219.648C97.2896 219.648 96.9776 219.664 96.9136 219.696C96.7216 219.808 96.8816 220.048 97.3936 220.416L97.5616 220.536L98.7136 221.112L99.1696 221.328C99.9856 221.728 100.442 221.928 100.538 221.928L100.826 222.048C101.082 222.176 101.346 222.288 101.618 222.384C102.322 222.624 102.746 222.904 102.89 223.224C102.906 223.256 102.914 223.304 102.914 223.368C102.914 223.448 102.874 223.584 102.794 223.776C102.65 224.08 102.442 224.232 102.17 224.232C102.122 224.232 102.034 224.216 101.906 224.184C101.746 224.152 101.242 223.96 100.394 223.608L98.4496 222.816C97.9856 222.592 97.4576 222.36 96.8656 222.12L95.9776 221.76L95.2816 222.168C95.1376 222.264 94.7936 222.464 94.2496 222.768C94.0576 222.864 93.6736 223.104 93.0976 223.488C91.8656 224.288 91.1296 224.688 90.8896 224.688C90.7296 224.688 90.5616 224.616 90.3856 224.472C90.2256 224.36 90.1296 224.208 90.0976 224.016C90.0176 223.68 90.1296 223.376 90.4336 223.104C90.5776 222.96 90.9376 222.704 91.5136 222.336C92.1216 221.952 92.4576 221.76 92.5216 221.76C92.5696 221.76 92.8416 221.608 93.3376 221.304L94.2496 220.728C94.4256 220.6 94.5936 220.44 94.7536 220.248C94.8976 220.072 94.9696 219.96 94.9696 219.912C94.9696 219.72 94.6576 219.624 94.0336 219.624C93.5696 219.624 92.8816 219.592 91.9696 219.528C90.9136 219.448 90.3136 219.4 90.1696 219.384C90.0256 219.352 89.9136 219.24 89.8336 219.048C89.8016 218.888 89.7856 218.784 89.7856 218.736C89.7856 218.656 89.8016 218.552 89.8336 218.424C89.9616 218.184 90.0736 218.048 90.1696 218.016ZM88.0336 226.8C88.0656 226.416 88.2256 226.184 88.5136 226.104C88.8016 226.024 89.8096 225.976 91.5376 225.96H91.6336C93.6336 225.928 94.6736 225.888 94.7536 225.84C94.8336 225.76 94.8816 225.392 94.8976 224.736C94.8976 224.304 94.9136 224.008 94.9456 223.848C94.9776 223.704 95.0416 223.584 95.1376 223.488C95.2816 223.344 95.4816 223.272 95.7376 223.272C96.0096 223.272 96.2016 223.304 96.3136 223.368C96.6016 223.512 96.7456 223.968 96.7456 224.736C96.7456 225.216 96.7776 225.528 96.8416 225.672L96.9616 225.888L100.13 225.936L101.522 225.96C102.306 225.96 102.77 225.968 102.914 225.984C103.186 226 103.402 226.064 103.562 226.176C103.802 226.336 103.946 226.552 103.994 226.824V226.92C103.994 227.144 103.914 227.344 103.754 227.52L103.562 227.712L96.0496 227.688L92.8096 227.664C90.9536 227.664 89.8656 227.656 89.5456 227.64C88.8256 227.624 88.4016 227.576 88.2736 227.496C88.1616 227.416 88.0896 227.344 88.0576 227.28C88.0416 227.232 88.0336 227.08 88.0336 226.824V226.8ZM90.4336 232.104C90.4336 231.656 90.4976 231.264 90.6256 230.928C90.7216 230.672 90.9696 230.32 91.3696 229.872C91.8016 229.392 92.2176 229.04 92.6176 228.816C93.0976 228.576 93.6496 228.4 94.2736 228.288C94.7856 228.192 95.2736 228.144 95.7376 228.144C96.6336 228.144 97.5376 228.304 98.4496 228.624C99.8096 229.104 100.706 229.8 101.138 230.712C101.314 231.096 101.402 231.52 101.402 231.984C101.402 232.448 101.37 232.776 101.306 232.968C101.226 233.192 101.058 233.472 100.802 233.808C100.21 234.624 99.1216 235.176 97.5376 235.464C97.2016 235.544 96.7616 235.584 96.2176 235.584C95.6896 235.584 95.2016 235.544 94.7536 235.464C93.6496 235.288 92.7776 235.048 92.1376 234.744C91.7376 234.552 91.4336 234.368 91.2256 234.192C91.0336 234.048 90.8576 233.8 90.6976 233.448C90.5216 233.048 90.4336 232.6 90.4336 232.104ZM92.2336 231.72C92.1856 231.88 92.1616 232.032 92.1616 232.176C92.1616 232.656 92.4576 233.016 93.0496 233.256C93.6416 233.496 94.4976 233.648 95.6176 233.712C96.1616 233.744 96.5216 233.76 96.6976 233.76C97.2896 233.76 97.7296 233.712 98.0176 233.616C98.5296 233.44 98.9136 233.144 99.1696 232.728C99.2976 232.52 99.3616 232.28 99.3616 232.008C99.3616 231.784 99.3216 231.592 99.2416 231.432C98.9216 230.712 98.1936 230.224 97.0576 229.968C96.6576 229.888 96.2736 229.848 95.9056 229.848C94.8816 229.848 94.0576 230.008 93.4336 230.328C92.8256 230.664 92.4256 231.128 92.2336 231.72ZM118.678 218.76C118.87 218.68 118.982 218.64 119.014 218.64H119.062C119.126 218.64 119.238 218.68 119.398 218.76C119.574 218.872 119.67 218.968 119.686 219.048C119.734 219.096 119.774 221.704 119.806 226.872L119.83 234.528L119.638 234.72C119.494 234.864 119.262 234.936 118.942 234.936C118.622 234.936 118.398 234.864 118.27 234.72C118.11 234.512 118.03 231.936 118.03 226.992V224.76L118.054 222.48C118.054 221.184 118.062 220.416 118.078 220.176C118.11 219.632 118.158 219.304 118.222 219.192C118.35 219 118.502 218.856 118.678 218.76ZM104.95 226.44C104.95 225.368 105.062 224.632 105.286 224.232C105.366 224.04 105.406 223.92 105.406 223.872C105.406 223.776 105.622 223.312 106.054 222.48C106.294 222.016 106.686 221.584 107.23 221.184C107.758 220.768 108.27 220.528 108.766 220.464C108.83 220.448 108.942 220.44 109.102 220.44C110.254 220.44 111.214 220.656 111.982 221.088C112.606 221.44 113.11 221.984 113.494 222.72C113.83 223.376 114.038 223.88 114.118 224.232C114.198 224.68 114.238 225.312 114.238 226.128C114.238 226.912 114.23 227.376 114.214 227.52C114.198 227.68 114.118 227.976 113.974 228.408C113.638 229.416 113.174 230.216 112.582 230.808C112.246 231.176 111.83 231.448 111.334 231.624C110.902 231.784 110.294 231.864 109.51 231.864C109.174 231.864 108.774 231.8 108.31 231.672C107.942 231.576 107.566 231.424 107.182 231.216C106.126 230.528 105.414 229.304 105.046 227.544C104.982 227.272 104.95 226.904 104.95 226.44ZM106.75 226.584C106.846 227.784 107.174 228.712 107.734 229.368C108.166 229.88 108.822 230.136 109.702 230.136C110.134 230.136 110.558 230.032 110.974 229.824C111.294 229.68 111.582 229.384 111.838 228.936C112.094 228.488 112.27 227.992 112.366 227.448C112.446 227.08 112.486 226.664 112.486 226.2C112.486 225.432 112.342 224.688 112.054 223.968C111.942 223.664 111.71 223.328 111.358 222.96C111.006 222.608 110.686 222.376 110.398 222.264C110.11 222.152 109.846 222.096 109.606 222.096C109.302 222.096 108.942 222.232 108.526 222.504C108.094 222.792 107.758 223.128 107.518 223.512C107.262 223.928 107.054 224.464 106.894 225.12C106.782 225.616 106.734 226.104 106.75 226.584ZM125.238 218.136C125.43 218.104 126.206 218.088 127.566 218.088C129.022 218.088 129.806 218.096 129.918 218.112C130.142 218.16 130.302 218.28 130.398 218.472C130.462 218.584 130.494 218.704 130.494 218.832C130.494 219.072 130.366 219.288 130.11 219.48C130.03 219.56 129.878 219.616 129.654 219.648L129.078 219.672L127.998 219.648C126.798 219.648 126.03 219.624 125.694 219.576C125.358 219.528 125.102 219.408 124.926 219.216C124.75 219.04 124.662 218.896 124.662 218.784C124.662 218.688 124.726 218.552 124.854 218.376C124.966 218.248 125.094 218.168 125.238 218.136ZM122.694 221.16C122.774 220.92 122.918 220.768 123.126 220.704C123.318 220.624 123.686 220.576 124.23 220.56C124.742 220.528 126.206 220.504 128.622 220.488C129.182 220.472 129.846 220.464 130.614 220.464C131.19 220.464 131.534 220.472 131.646 220.488C132.014 220.52 132.286 220.576 132.462 220.656C132.75 220.784 132.934 220.968 133.014 221.208L133.038 221.352C133.038 221.544 132.95 221.728 132.774 221.904L132.51 222.144L130.35 222.168C128.27 222.168 127.486 222.224 127.998 222.336C128.03 222.352 128.078 222.36 128.142 222.36C128.478 222.408 128.846 222.512 129.246 222.672C129.742 222.864 130.07 223.024 130.23 223.152C130.502 223.344 130.718 223.552 130.878 223.776C131.406 224.464 131.67 225.24 131.67 226.104C131.67 226.552 131.598 226.968 131.454 227.352C131.246 227.896 130.902 228.368 130.422 228.768C129.75 229.328 128.998 229.608 128.166 229.608C127.718 229.608 127.182 229.52 126.558 229.344C125.726 229.136 125.078 228.84 124.614 228.456C124.31 228.184 124.07 227.848 123.894 227.448C123.702 227.032 123.606 226.64 123.606 226.272C123.606 225.456 123.982 224.624 124.734 223.776C125.454 222.96 126.27 222.488 127.182 222.36L127.446 222.288C127.446 222.288 127.238 222.272 126.822 222.24H126.798L124.47 222.168C123.83 222.168 123.398 222.152 123.174 222.12C123.014 222.088 122.894 222.04 122.814 221.976C122.686 221.848 122.622 221.696 122.622 221.52C122.622 221.392 122.646 221.272 122.694 221.16ZM125.502 226.512C125.582 227.28 126.326 227.664 127.734 227.664C128.534 227.664 129.126 227.464 129.51 227.064C129.718 226.824 129.822 226.512 129.822 226.128C129.822 225.84 129.766 225.592 129.654 225.384C129.382 224.856 128.958 224.504 128.382 224.328C128.094 224.248 127.846 224.208 127.638 224.208C127.062 224.208 126.558 224.424 126.126 224.856C125.63 225.304 125.422 225.856 125.502 226.512ZM125.67 230.928C125.654 230.896 125.646 230.848 125.646 230.784C125.646 230.688 125.67 230.608 125.718 230.544C125.894 230.32 126.318 230.176 126.99 230.112C127.662 230.032 129.126 229.96 131.382 229.896C133.366 229.832 134.646 229.8 135.222 229.8C135.574 229.832 135.798 229.896 135.894 229.992C136.118 230.152 136.262 230.392 136.326 230.712C136.374 231.016 136.398 231.712 136.398 232.8C136.398 233.776 136.39 234.352 136.374 234.528C136.358 234.752 136.31 234.952 136.23 235.128C136.118 235.32 136.046 235.424 136.014 235.44C135.918 235.472 135.782 235.488 135.606 235.488C135.318 235.488 135.126 235.464 135.03 235.416C134.918 235.368 134.814 235.264 134.718 235.104C134.606 234.88 134.55 234.52 134.55 234.024C134.55 233.688 134.526 233.248 134.478 232.704L134.43 231.552L126.198 231.624L125.91 231.36C125.766 231.216 125.686 231.072 125.67 230.928ZM134.478 227.712C134.478 226.512 134.51 225.04 134.574 223.296C134.622 221.344 134.67 220.16 134.718 219.744C134.734 219.488 134.766 219.24 134.814 219C134.83 218.92 134.91 218.808 135.054 218.664C135.23 218.504 135.438 218.424 135.678 218.424C135.806 218.424 135.918 218.44 136.014 218.472C136.078 218.488 136.15 218.568 136.23 218.712C136.294 218.824 136.342 219 136.374 219.24C136.39 219.4 136.398 219.96 136.398 220.92C136.398 222.184 136.438 222.856 136.518 222.936C136.582 223 136.886 223.032 137.43 223.032C138.262 223.032 138.83 223.104 139.134 223.248C139.438 223.392 139.59 223.648 139.59 224.016C139.59 224.272 139.518 224.488 139.374 224.664C139.262 224.744 139.142 224.8 139.014 224.832L138.63 224.856L137.886 224.832C137.038 224.832 136.558 224.872 136.446 224.952C136.382 225 136.334 225.12 136.302 225.312C136.27 225.536 136.246 226.048 136.23 226.848C136.214 227.648 136.19 228.16 136.158 228.384C136.142 228.56 136.086 228.728 135.99 228.888C135.846 229.112 135.654 229.224 135.414 229.224C135.11 229.224 134.862 229.096 134.67 228.84C134.542 228.664 134.478 228.288 134.478 227.712Z" fill="white"/>
<path d="M67.1222 156.266L69.2973 160.259C69.0508 160.373 68.8687 160.638 68.933 160.941C69.0616 161.402 69.4723 161.716 69.7294 162.109C70.3937 163.031 71.033 163.931 71.7259 164.838C72.3938 165.573 73.0866 166.281 73.6759 167.084C74.4081 167.866 76.0438 170.488 77.0831 168.824C77.5617 167.356 76.9903 165.798 77.0617 164.298C77.2189 162.548 76.2581 160.977 75.826 159.327C75.6581 158.441 75.476 157.563 75.1152 156.734C74.8974 156.248 74.7795 155.748 74.6795 155.209C74.4152 154.53 73.6974 154.602 73.3866 155.023L72.0509 153.823L67.1187 156.266H67.1222Z" fill="#E293B3"/>
<path d="M57.6973 134.594C58.9473 138.09 61.4938 140.954 62.8759 144.39C63.0545 144.804 63.1081 145.276 63.3617 145.654C63.501 145.837 63.7402 145.837 63.9224 145.74L65.0903 149.533L72.0654 149.201L78.2334 146.508L80.7656 142.047C81.1584 142.069 81.512 141.99 81.6442 141.483C81.787 140.426 80.4548 140.536 79.7441 140.472C79.0798 140.454 78.4119 140.419 77.7655 140.247C75.5369 139.64 73.5368 138.59 71.3582 137.801C70.0011 137.29 68.5796 136.979 67.2332 136.44C65.6581 135.761 64.0295 135.244 62.3652 134.84C61.3652 134.583 60.283 134.165 59.2902 133.79C58.558 133.44 57.5937 133.619 57.7008 134.601L57.6973 134.594Z" fill="#E293B3"/>
<path d="M46.4362 153.615C47.9148 154.237 49.5184 154.49 51.0292 155.04C53.3292 155.826 55.6221 156.64 57.9043 157.483C59.2936 158.055 60.6258 158.765 62.0472 159.251C64.283 160.012 66.6116 160.462 68.9116 160.987C68.9759 160.998 69.0438 161.008 69.1116 161.019C69.1259 161.08 69.1474 161.137 69.1902 161.187C69.3545 161.383 69.6295 161.341 69.8045 161.187C70.8081 160.633 71.5474 159.737 72.126 158.762C73.3546 156.701 74.6118 154.655 75.8868 152.622C77.0618 150.597 78.194 148.555 79.4833 146.601C80.3297 145.176 80.9904 143.651 81.8047 142.208C82.2333 142.015 82.5655 141.722 82.3369 141.154C82.1405 140.701 81.5833 140.644 81.1904 140.865C80.8904 140.983 80.4404 141.144 80.044 141.233C78.6261 141.565 77.1118 141.737 75.6725 142.072C74.4153 142.39 73.1831 142.808 71.9188 143.112C70.2974 143.54 68.6045 143.758 66.9723 144.158C65.3544 144.572 63.6723 145.255 62.0651 145.776C60.9329 146.162 59.7472 146.333 58.5686 146.526C56.8471 146.837 55.1792 147.376 53.4864 147.801C51.4185 148.237 49.3434 148.919 47.4469 149.887C45.1469 150.947 42.754 152.126 46.4326 153.615H46.4362Z" fill="#FCB1CE"/>
<path d="M93.5146 155.285C93.5146 155.242 93.5504 155.206 93.5932 155.206C93.6361 155.206 93.6718 155.242 93.6718 155.285C93.6718 155.328 93.6361 155.363 93.5932 155.363C93.5504 155.363 93.5146 155.328 93.5146 155.285Z" fill="white"/>
<path d="M98.489 156.556L94.2032 155.042C94.3104 154.788 94.2675 154.47 94.0175 154.292C93.6139 154.035 93.0961 154.074 92.6461 153.956C91.5353 153.713 90.4567 153.474 89.3353 153.263C88.3495 153.163 87.3602 153.102 86.3852 152.899C85.3173 152.806 82.3494 151.956 82.6887 153.885C83.3137 155.295 84.7816 156.07 85.7316 157.235C86.7852 158.642 88.5531 159.167 89.9746 160.103C90.6889 160.649 91.4139 161.181 92.2353 161.553C92.721 161.767 93.1425 162.06 93.5782 162.395C94.2282 162.724 94.7139 162.192 94.6639 161.67H96.4568L98.489 156.556Z" fill="#EDD48E"/>
<path d="M119.997 166.36C116.729 164.596 112.918 164.171 109.593 162.542C109.182 162.353 108.825 162.039 108.386 161.928C108.161 161.889 107.982 162.046 107.915 162.239L104.511 160.199L99.5465 165.11L96.7607 171.239L97.8643 176.25C97.5572 176.496 97.35 176.792 97.5893 177.257C98.1929 178.139 99.1072 177.167 99.6787 176.735C100.186 176.303 100.704 175.882 101.3 175.582C103.361 174.542 105.55 173.985 107.7 173.114C109.05 172.585 110.315 171.864 111.679 171.367C113.304 170.817 114.861 170.114 116.368 169.299C117.286 168.821 118.368 168.406 119.354 168.024C120.129 167.796 120.729 167.017 119.993 166.36H119.997Z" fill="#EDD48E"/>
<path d="M115.64 144.688C114.122 145.216 112.765 146.098 111.272 146.698C109.036 147.652 106.786 148.581 104.529 149.481C103.115 149.984 101.65 150.345 100.265 150.938C98.0931 151.87 96.0609 153.091 94.0001 154.241C93.9466 154.277 93.8894 154.313 93.8287 154.352C93.7787 154.316 93.7251 154.288 93.6573 154.281C93.4037 154.245 93.2287 154.459 93.2037 154.695C92.8251 155.777 92.8787 156.938 93.1001 158.049C93.5644 160.402 94.0002 162.763 94.4109 165.127C94.893 167.417 95.4145 169.695 95.7645 172.01C96.0895 173.635 96.6181 175.21 96.9752 176.828C96.7859 177.26 96.7323 177.695 97.2823 177.97C97.7324 178.174 98.1824 177.845 98.3288 177.42C98.4717 177.135 98.7002 176.71 98.9324 176.378C99.7645 175.181 100.775 174.042 101.618 172.828C102.34 171.749 102.975 170.613 103.711 169.545C104.629 168.142 105.743 166.845 106.686 165.46C107.611 164.07 108.408 162.438 109.254 160.974C109.836 159.927 110.608 159.009 111.35 158.077C112.422 156.695 113.301 155.177 114.276 153.731C115.522 152.027 116.608 150.127 117.372 148.141C118.372 145.813 119.361 143.338 115.629 144.691L115.64 144.688Z" fill="#FFEBA6"/>
<path d="M93.006 117.557C93.0203 117.518 93.0631 117.497 93.1024 117.511C93.1417 117.525 93.1632 117.568 93.1524 117.607C93.1417 117.647 93.0953 117.668 93.056 117.657C93.0167 117.647 92.9953 117.6 93.0096 117.561L93.006 117.557Z" fill="white"/>
<path d="M97.3166 120.353L93.738 117.549C93.9201 117.345 93.9808 117.031 93.8023 116.778C93.5023 116.406 92.9987 116.278 92.6094 116.02C91.6344 115.435 90.6915 114.863 89.695 114.303C88.7914 113.892 87.8736 113.517 87.0164 113.013C86.0343 112.585 83.4949 110.827 83.1985 112.763C83.3413 114.299 84.4807 115.503 85.0092 116.91C85.5592 118.578 87.0628 119.642 88.1093 120.985C88.6129 121.731 89.1272 122.467 89.7879 123.085C90.1808 123.442 90.4843 123.856 90.7879 124.313C91.2986 124.831 91.9308 124.485 92.0486 123.974L93.7487 124.549L97.313 120.353H97.3166Z" fill="#C6C685"/>
<path d="M114.553 136.524C112.021 133.809 108.549 132.184 105.921 129.577C105.592 129.266 105.356 128.856 104.974 128.609C104.774 128.498 104.553 128.591 104.424 128.752L101.853 125.73L95.5775 128.795L90.9774 133.709L90.4203 138.809C90.0489 138.945 89.756 139.159 89.8381 139.674C90.1274 140.702 91.306 140.074 91.9846 139.849C92.6025 139.602 93.2275 139.37 93.8918 139.274C96.1775 138.949 98.4312 139.12 100.745 138.984C102.196 138.916 103.624 138.638 105.074 138.602C106.788 138.602 108.488 138.434 110.178 138.145C111.199 137.988 112.36 137.941 113.417 137.891C114.228 137.924 115.042 137.377 114.556 136.52L114.553 136.524Z" fill="#C6C685"/>
<path d="M117.364 114.6C115.76 114.614 114.185 115.018 112.582 115.111C110.157 115.3 107.728 115.461 105.303 115.586C103.803 115.611 102.296 115.482 100.799 115.6C98.4422 115.786 96.1279 116.296 93.8065 116.725C93.7457 116.739 93.6779 116.757 93.61 116.775C93.5743 116.725 93.5315 116.682 93.4707 116.65C93.2422 116.532 93.0064 116.682 92.9064 116.896C92.2029 117.803 91.8814 118.918 91.735 120.039C91.4207 122.418 91.0778 124.793 90.71 127.164C90.435 129.486 90.1992 131.811 89.7921 134.118C89.5778 135.761 89.5742 137.422 89.3992 139.072C89.0814 139.418 88.8921 139.818 89.3278 140.25C89.6885 140.586 90.2207 140.422 90.4957 140.061C90.7243 139.836 91.0743 139.507 91.4028 139.268C92.5743 138.4 93.8957 137.643 95.085 136.765C96.1136 135.975 97.0815 135.104 98.1208 134.325C99.4423 133.289 100.91 132.418 102.249 131.407C103.571 130.386 104.85 129.093 106.117 127.979C107.007 127.175 108.028 126.55 109.032 125.904C110.489 124.939 111.807 123.782 113.193 122.721C114.918 121.504 116.557 120.053 117.914 118.418C119.607 116.532 121.339 114.503 117.368 114.593L117.364 114.6Z" fill="#D8D9A7"/>
<path d="M130.379 174.008C130.279 173.083 130.218 172.154 130.186 171.222C130.125 170.558 130.168 169.897 130.197 169.232C130.222 168.472 130.175 167.786 130.247 167.007C130.325 166.282 130.386 165.554 130.311 164.825C130.3 164.486 130.364 164.15 130.336 163.811C130.293 163.475 130.193 163.15 130.057 162.839C130.039 162.797 130.007 162.761 129.975 162.729C129.997 161.972 130.032 161.214 130.057 160.454C130.072 157.889 130.136 155.325 130.118 152.757C130.139 148.757 129.714 144.768 129.786 140.768C129.725 136.993 129.968 133.221 129.925 129.45C129.886 127.242 129.782 125.035 129.811 122.828C129.811 120.092 129.893 117.357 129.857 114.621C129.868 113.01 129.786 111.403 129.747 109.796C129.714 108.203 129.764 106.613 129.772 105.021C129.793 101.921 129.754 98.8205 129.939 95.7275C130.004 92.9418 129.597 90.1703 129.675 87.3809C129.707 85.538 129.757 83.6952 129.861 81.8558C129.872 79.8094 129.918 77.7486 129.711 75.7129C129.582 74.7307 129.554 73.7343 129.404 72.7521C129.314 71.7949 129.261 70.8378 129 69.9092C128.904 69.4163 128.85 68.9127 128.743 68.4199C128.643 67.9592 128.486 67.5127 128.389 67.0484C128.182 66.0377 127.886 64.9841 127.475 64.0269C127.271 63.4948 127.114 62.9412 126.832 62.4269C126.471 61.859 126.214 61.2412 125.943 60.6304C125.471 59.7054 124.807 58.8947 124.293 57.9911C124.025 57.5304 123.689 57.1125 123.296 56.7518C122.804 56.2375 122.329 55.7125 121.825 55.2125C121.382 54.7017 120.921 54.2125 120.382 53.8018C119.761 53.2267 119.218 52.5732 118.539 52.0589C117.871 51.5124 117.153 51.0338 116.411 50.5981C115.868 50.1981 115.339 49.7767 114.746 49.4517C113.539 48.8302 112.246 48.3873 111.021 47.8016C110.332 47.4195 109.535 47.3338 108.828 47.0052C108.45 46.8516 108.057 46.7516 107.668 46.6338C107.175 46.448 106.657 46.3409 106.132 46.348C106.128 46.3195 106.114 46.2909 106.103 46.2623C106.103 46.2587 106.103 46.2552 106.103 46.2516C106.103 46.2516 106.103 46.2516 106.1 46.2516C106.057 46.1623 105.978 46.0837 105.846 46.0409C105.853 45.9409 105.857 45.8373 105.882 45.7266C106.289 45.5087 106.696 45.0801 106.571 44.573L106.535 44.523C106.307 44.3516 106.128 44.1266 106.028 43.8587C106.018 43.8516 106.01 43.8408 106 43.8337L106.014 43.823C106.003 43.7944 105.996 43.7623 105.985 43.7337C105.985 43.7337 105.985 43.7301 105.985 43.7266C105.957 43.6551 105.932 43.5801 105.918 43.5015C105.896 43.5015 105.875 43.5015 105.853 43.5015C105.853 43.498 105.857 43.4944 105.857 43.4908C105.857 43.4873 105.857 43.4837 105.857 43.4801C105.914 43.4801 105.968 43.473 106.021 43.4515C106.057 43.4373 106.075 43.4087 106.103 43.3873C106.614 43.4551 107.125 43.498 107.639 43.5337C107.803 43.5337 107.971 43.5444 108.135 43.5337C108.346 43.5087 108.453 43.3408 108.457 43.1658C109.585 42.4158 109.453 39.105 109.485 38.0586C109.485 37.98 109.485 37.9014 109.485 37.8264C109.532 37.7836 109.578 37.7372 109.603 37.6622C109.675 37.4336 109.693 37.1943 109.685 36.9586C109.7 36.1621 109.71 35.3621 109.643 34.5692C109.685 34.5014 109.714 34.4192 109.703 34.3192C109.689 33.9478 109.453 33.6621 109.264 33.3656C109.125 33.0692 109.064 32.7263 108.839 32.4763C108.518 32.1371 108.032 32.3763 107.628 32.3906C106.96 32.4121 106.289 32.4228 105.625 32.4871C104.185 32.5228 102.746 32.5121 101.307 32.5371C100.371 32.5263 99.4353 32.5478 98.5067 32.6621C97.9281 32.6906 97.3495 32.6549 96.7709 32.6371C95.5673 32.6156 94.3673 32.6692 93.1637 32.6513C92.1923 32.6263 91.2208 32.5692 90.2458 32.5906C89.2994 32.6085 88.3529 32.5263 87.4065 32.5371C85.8529 32.5049 84.3064 32.6906 82.76 32.8013C80.3635 32.8763 77.9599 32.7585 75.5634 32.8228C74.1705 32.9156 72.774 32.8906 71.3776 32.9014C70.0704 32.9299 68.7668 33.0799 67.4597 32.9764C66.4025 32.8764 65.3418 32.9442 64.281 32.8692C63.3667 32.8299 62.4739 32.5406 61.556 32.6942C61.2595 32.7299 60.9703 32.7942 60.6703 32.8156C59.6095 32.7835 59.2702 32.9692 59.2917 34.0835C59.2917 34.4228 59.2917 34.7621 59.2845 35.1014C59.2738 35.1014 59.2595 35.1014 59.2488 35.1014C59.2595 35.7157 59.2488 36.33 59.2631 36.9443C59.2738 37.1336 59.2809 37.33 59.2952 37.5264C59.2417 38.3157 59.1452 39.105 59.2024 39.9015C59.2381 40.8801 59.2309 41.8622 59.3309 42.8373C59.3917 43.1944 59.2702 44.0408 59.5845 44.2409C59.5845 44.2409 59.5917 44.2409 59.5952 44.2409C59.5952 44.3194 59.631 44.398 59.6988 44.448C60.0381 44.6123 60.4524 44.5444 60.8202 44.5873C61.0953 44.5873 61.3703 44.598 61.6453 44.6087C61.4453 44.8444 61.3488 45.1266 61.556 45.4516C61.7453 45.7159 62.0274 45.898 62.2488 46.1337C62.2381 46.148 62.231 46.1587 62.2203 46.173C61.9239 46.248 61.2488 46.3945 60.9845 46.6945C60.8774 46.7266 60.7738 46.7552 60.6845 46.7623C59.8167 46.9088 58.8595 47.0802 58.0238 47.4123C56.8059 47.9409 55.688 48.5695 54.4487 49.0981C53.4737 49.5909 52.438 49.9588 51.4701 50.4553C50.0808 51.2696 48.9736 52.466 47.7557 53.5017C47.22 53.991 46.6628 54.466 46.22 55.0446C45.6128 55.8946 44.9592 56.684 44.2628 57.4661C43.3806 58.4983 43.0485 59.8483 42.2949 60.9626C41.6413 61.9483 41.1592 63.0376 40.6199 64.0912C40.3163 64.6841 40.0806 65.3091 39.902 65.9484C39.427 67.6449 39.1234 69.3877 38.7413 71.1056C38.5627 71.8699 38.4056 72.6449 38.3341 73.4271C38.2841 74.1164 38.1341 74.7914 37.9877 75.4629C37.7948 76.4379 37.8198 77.4308 37.7841 78.4201C37.6555 79.8094 37.7591 81.1987 37.7448 82.588C37.7448 82.7059 37.802 82.8059 37.8877 82.8773C37.8663 82.8987 37.852 82.9273 37.8591 82.9594C37.6663 83.8237 37.7341 84.7309 37.727 85.6166C37.7698 88.1238 37.8413 90.631 37.8091 93.1382C37.7948 94.5168 37.7448 95.8954 37.6877 97.2704C37.6341 99.6597 37.6305 102.049 37.5984 104.442C37.6305 106.817 37.7555 109.192 37.8127 111.567C37.877 114.989 37.902 118.414 37.9341 121.835C38.0413 125.271 38.177 128.71 38.1913 132.15C38.1805 141.982 38.1377 151.814 38.3234 161.643C38.3413 165.593 38.3234 169.543 38.3306 173.493C38.2806 176.625 38.427 179.783 39.1091 182.847C39.3306 183.661 39.6734 184.458 40.1984 185.122C40.9413 186.101 41.552 187.19 42.4771 188.019C44.0485 189.483 45.4414 189.59 47.4343 189.754C48.5343 190.065 49.6629 190.211 50.8022 190.301C53.1844 190.586 55.5844 190.597 57.9774 190.547C59.7952 190.561 61.656 190.547 63.481 190.547C64.9846 190.558 66.4704 190.597 67.9775 190.59C69.7633 190.59 71.5419 190.429 73.3276 190.376C75.4384 190.304 77.5491 190.361 79.6599 190.354C80.9992 190.358 82.335 190.297 83.6743 190.261C87.3815 190.286 91.0887 190.415 94.7959 190.544C97.3209 190.594 99.8424 190.476 102.367 190.447C104.053 190.461 105.735 190.529 107.418 190.561C108.993 190.601 110.55 190.554 112.128 190.561C114.946 190.565 117.786 190.533 120.557 189.972C121.293 189.776 122.054 189.651 122.771 189.39C123.443 189.065 124.179 188.886 124.846 188.547C125.454 188.154 125.932 187.59 126.5 187.144C127.068 186.679 127.589 186.147 127.918 185.486C128.207 184.947 128.547 184.386 128.811 183.808C129.022 183.365 129.186 182.901 129.429 182.472C129.675 182.076 129.893 181.661 129.975 181.197C130.093 180.608 130.05 180.004 130.118 179.411C130.311 178.347 130.418 177.268 130.393 176.183C130.393 175.475 130.436 174.718 130.393 173.993L130.379 174.008ZM60.0238 43.9016C60.0238 43.8766 60.031 43.848 60.031 43.8266C60.1024 43.0766 60.0167 42.323 60.0024 41.5694C60.0024 40.5872 59.9238 39.6051 59.9667 38.6229C59.9917 38.2943 60.031 37.9622 60.056 37.6336C60.0238 37.6336 59.9917 37.6336 59.9595 37.63C60.0452 36.905 60.0274 35.855 60.0095 35.1514C60.0095 35.1514 60.0095 35.1514 60.006 35.1514C60.056 34.5514 60.0167 33.8407 60.0917 33.6121C60.7488 33.6192 61.3881 33.4871 62.0381 33.4264C62.3524 33.3978 62.6667 33.4406 62.9774 33.4978C64.2953 33.7406 65.6239 33.6549 66.9489 33.7157C67.6918 33.78 68.4918 33.8014 69.2454 33.7764C70.9169 33.6478 72.5883 33.6799 74.2634 33.6621C75.1884 33.6049 76.117 33.5799 77.0456 33.5871C78.7635 33.5585 80.4813 33.6192 82.1992 33.6049C83.3707 33.5585 84.5314 33.4228 85.7029 33.3442C86.9172 33.2799 88.1351 33.3192 89.3529 33.3621C91.2173 33.3371 93.0816 33.4656 94.9459 33.4156C96.4674 33.3478 97.9959 33.5478 99.5103 33.3442C101.55 33.2728 103.592 33.3192 105.635 33.2621C106.528 33.1585 107.432 33.2299 108.318 33.0799C108.428 33.3335 108.5 33.6049 108.643 33.8442C108.7 33.9335 108.771 34.0192 108.828 34.1121C108.825 34.1121 108.818 34.1121 108.814 34.1121C108.821 34.1871 108.828 34.2621 108.835 34.3371C108.918 34.9585 108.993 35.5835 108.925 36.2086C108.91 36.3407 108.91 36.4693 108.91 36.605C108.832 36.605 108.753 36.5978 108.671 36.5978C108.671 36.6121 108.675 36.63 108.678 36.6443C108.707 36.7728 108.728 36.9014 108.743 37.03C108.732 37.0264 108.718 37.03 108.707 37.0229C108.696 38.0872 108.714 39.1515 108.664 40.2158C108.571 41.0729 108.51 41.9908 108.043 42.7408L107.953 42.7872C107.4 42.7837 106.846 42.7194 106.296 42.7765C106.25 42.7873 106.182 42.7944 106.107 42.8015C106.089 42.7872 106.078 42.7623 106.057 42.748C105.785 42.6265 105.471 42.7123 105.182 42.6873C104.503 42.673 103.825 42.7051 103.153 42.8051C100.682 42.9087 98.2067 42.9444 95.7316 42.9801C93.7316 43.1408 91.728 43.1658 89.7208 43.2337C86.8815 43.248 84.0421 43.1944 81.2028 43.2265C80.1135 43.2801 79.0206 43.2765 77.9349 43.3373C76.8098 43.4301 75.6848 43.4337 74.5598 43.4587C72.9669 43.5837 71.3597 43.5337 69.7669 43.6944C68.9168 43.7587 68.0704 43.8373 67.224 43.9087C65.8418 43.9587 64.456 43.9087 63.0774 43.848C62.9274 43.8551 62.7739 43.8766 62.6239 43.898C62.0774 43.8694 61.531 43.823 60.9845 43.8515C60.6738 43.8801 60.331 43.8444 60.0202 43.9016H60.0238ZM129.529 178.161C129.461 178.69 129.336 179.215 129.311 179.751C129.3 180.233 129.297 180.722 129.186 181.193C129.061 181.686 128.729 182.083 128.525 182.54C128.425 182.761 128.332 182.986 128.236 183.208C127.843 184.061 127.4 184.897 126.889 185.683C126.496 186.194 125.964 186.572 125.489 187.001C125.146 187.283 124.854 187.626 124.482 187.872C123.868 188.179 123.189 188.344 122.568 188.644C119.464 189.69 116.146 189.765 112.896 189.804C111.239 189.779 109.589 189.829 107.928 189.804C105.003 189.744 102.078 189.611 99.1531 189.747C95.8388 189.861 92.528 189.715 89.2172 189.576C86.96 189.569 84.6993 189.447 82.4421 189.536C79.3706 189.658 76.2848 189.515 73.2098 189.615C71.624 189.669 70.0383 189.79 68.4525 189.826C66.6454 189.84 64.8382 189.786 63.031 189.783C60.1667 189.779 57.3059 189.804 54.4344 189.794C52.263 189.726 50.1093 189.469 47.9522 189.244C47.9022 189.111 47.7843 189.004 47.6022 189.004C46.5271 188.879 45.3843 188.883 44.3878 188.419C43.1021 187.804 42.1842 186.683 41.4163 185.515C41.1556 185.122 40.8663 184.751 40.5842 184.368C40.1663 183.711 39.8949 182.976 39.7413 182.215C39.3806 180.251 39.1449 178.258 39.0913 176.261C39.0734 171.454 39.102 166.643 39.0806 161.836C38.9091 152.471 38.927 143.107 38.9484 133.739C38.9698 129.828 38.8234 125.921 38.6948 122.014C38.6698 119.021 38.627 116.028 38.602 113.035C38.552 109.292 38.2663 105.553 38.3877 101.81C38.4091 99.4419 38.427 97.074 38.5377 94.7061C38.5984 92.2668 38.5734 89.8274 38.4913 87.3917C38.4805 86.3416 38.4056 85.2916 38.377 84.2416C38.3627 83.9202 38.3627 83.5952 38.277 83.2809C38.2413 83.1523 38.1627 82.9737 38.0234 82.9487C38.0555 82.9559 38.0841 82.9666 38.1163 82.9666H38.1234C38.327 82.9666 38.4984 82.7844 38.4984 82.5844C38.5234 81.9737 38.4877 81.3594 38.4734 80.7487C38.4556 79.9094 38.4913 79.0701 38.552 78.2308C38.5663 77.295 38.5734 76.3522 38.7663 75.4307C39.052 74.3736 39.077 73.2807 39.277 72.2092C39.7949 69.9913 40.1306 67.727 40.8199 65.552C41.4592 63.9876 42.2271 62.4626 43.1414 61.0412C43.6699 60.1733 43.9771 59.1911 44.545 58.3447C45.02 57.6697 45.6271 57.1054 46.1164 56.4375C46.4414 56.0125 46.745 55.5696 47.0986 55.1661C47.6271 54.5982 48.2236 54.0946 48.795 53.5732C49.6558 52.8446 50.4486 52.0374 51.3772 51.3981C52.0094 50.9517 52.7451 50.6981 53.4487 50.3874C54.1023 50.0945 54.7451 49.7802 55.3987 49.4874C56.7202 48.9338 57.9309 48.0981 59.3417 47.7873C60.0953 47.5731 60.8988 47.5481 61.6167 47.2266C61.7096 47.1873 61.931 47.0909 62.1096 46.9731C62.2239 46.9481 62.3382 46.923 62.4453 46.8873C62.5453 46.8873 62.6453 46.8516 62.7167 46.7766C62.7524 46.7409 62.7703 46.7016 62.7846 46.6588C62.9274 46.4945 63.0274 46.2909 63.0203 46.0766C62.9989 45.6087 62.506 45.3766 62.2274 45.0623C62.4024 44.9194 62.6132 44.8051 62.7774 44.6444C62.8453 44.6444 62.9131 44.6516 62.9846 44.6551C63.1917 44.6444 63.4346 44.698 63.6096 44.5694C64.3025 44.6373 64.9953 44.673 65.6953 44.6623C67.4454 44.7194 69.1811 44.4516 70.9276 44.3551C71.7705 44.3016 72.6669 44.2944 73.5276 44.273C74.2562 44.2266 74.9741 44.1694 75.7134 44.1837C76.9491 44.1837 78.1813 44.0266 79.4206 44.0301C82.0564 43.9123 84.6957 43.9837 87.3315 43.9694C89.0494 44.0087 90.7673 43.9266 92.4851 43.9051C93.6994 43.8837 94.8995 43.7551 96.1138 43.7087C97.9531 43.6801 99.796 43.7016 101.632 43.5944C102.442 43.5516 103.253 43.5801 104.057 43.448C104.432 43.4301 104.81 43.4301 105.185 43.4301C105.16 43.4944 105.168 43.5516 105.189 43.6016C105.085 43.798 105.068 44.0158 105.26 44.2158C105.453 44.3873 105.675 44.5409 105.8 44.7766C105.66 45.0516 105.268 45.0873 105.171 45.4052C105.057 45.6837 105.085 45.998 105.046 46.2945C105.039 46.448 105.118 46.6088 105.253 46.6802C105.303 46.7159 105.36 46.723 105.418 46.7302C105.485 46.8052 105.578 46.8552 105.682 46.8623C105.703 46.8731 105.721 46.8873 105.743 46.898C106.025 47.0409 106.346 47.0409 106.65 47.1016C107.189 47.2373 107.71 47.4445 108.246 47.5945C108.85 47.8445 109.46 48.0588 110.093 48.2231C111.403 48.8159 112.732 49.3802 114.053 49.9481C114.718 50.2731 115.3 50.7231 115.893 51.1696C116.221 51.3981 116.582 51.5767 116.911 51.8017C117.496 52.1981 118.057 52.6303 118.586 53.0982C119.068 53.5303 119.475 54.0482 119.975 54.4625C120.596 54.9232 121.011 55.4839 121.568 56.0446C122.093 56.5768 122.589 57.1411 123.125 57.6661C123.571 58.1983 123.879 58.8268 124.271 59.3947C124.571 59.884 124.932 60.3376 125.196 60.8519C125.5 61.5448 125.804 62.234 126.2 62.8769C126.536 63.5948 126.761 64.3591 127.064 65.0912C127.364 65.9484 127.543 66.802 127.75 67.6877C127.982 68.4127 128.093 69.1663 128.214 69.9128C128.411 70.7271 128.554 71.5521 128.586 72.3914C128.697 73.3093 128.804 74.2236 128.868 75.145C128.989 76.0843 129.072 77.0236 129.068 77.9701C129.111 79.4665 129.129 80.9665 129.061 82.463C128.979 83.5273 128.975 84.5952 128.947 85.6631C128.8 88.4881 129.018 91.3096 129.172 94.1275C129.222 95.924 129.029 97.7169 129.025 99.5133C129.047 103.488 128.897 107.463 129.025 111.435C129.211 116.374 128.961 121.314 129.068 126.253C129.186 128.964 129.193 131.678 129.086 134.393C129.018 137.025 129 139.661 129.022 142.293C129.022 145.325 129.297 148.354 129.35 151.386C129.357 155.204 129.347 159.022 129.204 162.839C129.204 162.972 129.275 163.082 129.379 163.15C129.439 163.404 129.604 163.69 129.579 163.932C129.5 164.622 129.614 165.311 129.564 165.997C129.45 167.007 129.429 167.997 129.436 169.015C129.422 169.597 129.364 170.175 129.393 170.758C129.443 171.893 129.504 173.025 129.618 174.158C129.632 175.486 129.654 176.822 129.525 178.143L129.529 178.161Z" fill="white"/>
<path d="M108.379 32.2978C108.55 32.2978 108.707 32.3407 108.839 32.4764C109.064 32.7264 109.125 33.0693 109.264 33.3657C109.454 33.6657 109.689 33.9479 109.704 34.3193C109.714 34.4229 109.686 34.5014 109.643 34.5693C109.711 35.3622 109.697 36.1622 109.686 36.9586C109.693 37.1944 109.675 37.4337 109.604 37.6622C109.579 37.7372 109.532 37.7836 109.486 37.8265C109.486 37.9051 109.486 37.9837 109.486 38.0587C109.454 39.1051 109.582 42.4159 108.457 43.1659C108.454 43.3373 108.347 43.5088 108.136 43.5338C108.072 43.5373 108.004 43.5409 107.939 43.5409C107.839 43.5409 107.739 43.5373 107.639 43.5373C107.129 43.5016 106.614 43.4588 106.104 43.3909C106.075 43.4123 106.057 43.4409 106.021 43.4552C105.975 43.4766 105.925 43.4838 105.875 43.4838C105.868 43.4838 105.861 43.4838 105.854 43.4838C105.854 43.4873 105.854 43.4909 105.854 43.4945C105.854 43.498 105.85 43.5016 105.85 43.5052C105.871 43.5052 105.893 43.5052 105.914 43.5052C105.929 43.5838 105.95 43.6588 105.982 43.7302C105.982 43.7302 105.982 43.7338 105.982 43.7374C105.989 43.7695 106 43.7981 106.011 43.8266L105.997 43.8373C105.997 43.8373 106.014 43.8552 106.025 43.8623C106.125 44.1302 106.304 44.3552 106.532 44.5266L106.568 44.5766C106.697 45.0838 106.286 45.5124 105.879 45.7302C105.857 45.8409 105.85 45.9409 105.843 46.0445C105.975 46.0874 106.054 46.1624 106.096 46.2553C106.096 46.2553 106.097 46.2553 106.1 46.2553C106.1 46.2588 106.1 46.2624 106.1 46.266C106.111 46.2945 106.125 46.3195 106.129 46.3517C106.143 46.3517 106.154 46.3517 106.164 46.3517C106.679 46.3517 107.182 46.4588 107.664 46.6374C108.054 46.7517 108.447 46.8553 108.825 47.0088C109.536 47.3374 110.332 47.4231 111.018 47.8053C112.243 48.391 113.536 48.8339 114.743 49.4553C115.336 49.7803 115.865 50.2017 116.407 50.6018C117.15 51.0375 117.872 51.5125 118.536 52.0625C119.215 52.5768 119.757 53.2304 120.379 53.8054C120.918 54.2125 121.383 54.7054 121.822 55.2161C122.325 55.7161 122.804 56.2447 123.293 56.7554C123.686 57.1162 124.022 57.5305 124.29 57.9948C124.804 58.8948 125.468 59.7091 125.94 60.6341C126.211 61.2448 126.465 61.8627 126.829 62.4305C127.111 62.9448 127.265 63.4984 127.472 64.0306C127.883 64.9842 128.179 66.0413 128.386 67.0521C128.483 67.5128 128.64 67.9592 128.74 68.4235C128.847 68.9164 128.9 69.4164 128.997 69.9128C129.258 70.8414 129.311 71.8022 129.401 72.7558C129.551 73.7379 129.579 74.7308 129.708 75.7165C129.918 77.7558 129.872 79.813 129.858 81.8595C129.754 83.6988 129.704 85.5417 129.672 87.3846C129.593 90.1739 130.004 92.9454 129.936 95.7312C129.747 98.8241 129.786 101.924 129.768 105.024C129.761 106.617 129.711 108.206 129.743 109.799C129.783 111.406 129.861 113.017 129.854 114.624C129.89 117.36 129.811 120.096 129.808 122.832C129.779 125.039 129.883 127.246 129.922 129.453C129.965 133.225 129.722 136.996 129.783 140.771C129.711 144.771 130.136 148.761 130.115 152.761C130.136 155.325 130.068 157.889 130.054 160.457C130.026 161.215 129.99 161.972 129.972 162.732C130.008 162.761 130.036 162.8 130.054 162.843C130.19 163.15 130.29 163.479 130.333 163.815C130.358 164.15 130.297 164.49 130.308 164.829C130.386 165.557 130.322 166.286 130.243 167.011C130.172 167.793 130.218 168.479 130.193 169.236C130.165 169.9 130.122 170.561 130.183 171.225C130.215 172.158 130.276 173.083 130.376 174.011C130.422 174.736 130.383 175.493 130.376 176.201C130.404 177.286 130.293 178.361 130.101 179.429C130.036 180.022 130.079 180.626 129.958 181.215C129.876 181.679 129.658 182.094 129.411 182.49C129.168 182.919 129.004 183.383 128.793 183.826C128.533 184.408 128.19 184.965 127.9 185.504C127.572 186.165 127.05 186.697 126.483 187.161C125.915 187.608 125.436 188.172 124.829 188.565C124.165 188.901 123.429 189.079 122.754 189.408C122.036 189.669 121.275 189.794 120.54 189.99C117.882 190.526 115.165 190.579 112.461 190.579C112.343 190.579 112.225 190.579 112.111 190.579C111.979 190.579 111.843 190.579 111.711 190.579C110.743 190.579 109.782 190.597 108.822 190.597C108.35 190.597 107.875 190.594 107.4 190.583C105.718 190.551 104.032 190.483 102.35 190.469C100.257 190.494 98.1678 190.579 96.0749 190.579C95.6427 190.579 95.2106 190.576 94.7784 190.569C91.0712 190.444 87.3676 190.312 83.6568 190.287C82.3639 190.322 81.071 190.379 79.7781 190.379C79.7317 190.379 79.6889 190.379 79.6424 190.379C79.4746 190.379 79.3031 190.379 79.1353 190.379C78.0245 190.379 76.9102 190.365 75.7995 190.365C74.9709 190.365 74.1388 190.372 73.3102 190.401C71.5244 190.454 69.7458 190.615 67.9601 190.615C67.8386 190.615 67.7172 190.615 67.5958 190.615C66.21 190.615 64.8457 190.579 63.46 190.569C62.2921 190.569 61.1064 190.576 59.9278 190.576C59.267 190.576 58.6063 190.576 57.9563 190.569C57.2956 190.583 56.6349 190.59 55.9706 190.59C54.2348 190.59 52.5026 190.529 50.7776 190.319C49.6419 190.229 48.5097 190.083 47.4097 189.772C45.4168 189.608 44.0239 189.501 42.4525 188.036C41.5274 187.208 40.9203 186.119 40.1738 185.14C39.6488 184.476 39.306 183.679 39.0845 182.865C38.4024 179.797 38.2524 176.643 38.3059 173.511C38.3024 169.561 38.3167 165.611 38.2988 161.661C38.1131 151.829 38.1559 142 38.1667 132.168C38.1524 128.728 38.0167 125.289 37.9095 121.853C37.8809 118.432 37.8559 115.007 37.7881 111.585C37.7274 109.21 37.6059 106.835 37.5738 104.46C37.6024 102.071 37.6095 99.6777 37.6631 97.2884C37.7202 95.9098 37.7702 94.5347 37.7845 93.1561C37.8166 90.6489 37.7416 88.1418 37.7024 85.6346C37.7095 84.7488 37.6416 83.8417 37.8345 82.9774C37.8274 82.9452 37.8416 82.9166 37.8631 82.8952C37.7774 82.8238 37.7202 82.7238 37.7202 82.6059C37.7345 81.2166 37.6309 79.8237 37.7595 78.438C37.7988 77.4487 37.7738 76.4558 37.9631 75.4808C38.1059 74.8058 38.2595 74.1343 38.3095 73.445C38.3809 72.6629 38.5381 71.8879 38.7167 71.1236C39.0988 69.4021 39.4024 67.6628 39.8774 65.9663C40.056 65.327 40.2917 64.702 40.5953 64.1092C41.1346 63.0591 41.6131 61.9663 42.2703 60.9805C43.0203 59.8662 43.356 58.5162 44.2382 57.484C44.9311 56.6983 45.5846 55.909 46.1954 55.0625C46.6382 54.484 47.1918 54.0054 47.7311 53.5197C48.9526 52.4839 50.0562 51.2875 51.4455 50.4732C52.4169 49.9767 53.4491 49.6053 54.4241 49.116C55.6634 48.591 56.7813 47.9588 57.9992 47.4303C58.8385 47.1017 59.7956 46.9267 60.6599 46.7803C60.7492 46.7731 60.8528 46.7481 60.9599 46.7124C61.2242 46.4124 61.9028 46.266 62.1957 46.191C62.2064 46.1767 62.2171 46.1659 62.2243 46.1517C62.0028 45.9159 61.7207 45.7338 61.5314 45.4695C61.3242 45.1445 61.4207 44.8624 61.6207 44.6266C61.3671 44.6159 61.1171 44.6016 60.8635 44.6016C60.8421 44.6016 60.8206 44.6016 60.7992 44.6016C60.4313 44.5552 60.0171 44.6266 59.6778 44.4624C59.6099 44.4124 59.5742 44.3338 59.5742 44.2552C59.5742 44.2552 59.5671 44.2552 59.5635 44.2552C59.2492 44.0552 59.3706 43.2088 59.3099 42.8516C59.2099 41.8766 59.2206 40.8944 59.1813 39.9158C59.1242 39.1194 59.2206 38.3301 59.2742 37.5408C59.2599 37.3444 59.2528 37.1479 59.242 36.9586C59.2278 36.3443 59.2385 35.7301 59.2278 35.1158C59.2385 35.1158 59.2528 35.1158 59.2635 35.1158C59.2706 34.7765 59.2742 34.4372 59.2706 34.0979C59.2492 33.0586 59.5421 32.83 60.4456 32.83C60.5099 32.83 60.5778 32.83 60.6492 32.83C60.9457 32.805 61.2385 32.7443 61.5349 32.7086C61.7242 32.6764 61.9135 32.6621 62.1028 32.6621C62.8243 32.6621 63.535 32.8514 64.26 32.8836C65.3172 32.955 66.3815 32.8871 67.4386 32.9907C67.7601 33.0157 68.0851 33.0264 68.4065 33.0264C69.3887 33.0264 70.3708 32.9336 71.3566 32.9157C72.753 32.9086 74.1495 32.93 75.5424 32.8371C76.0924 32.8229 76.6424 32.8157 77.1924 32.8157C78.4174 32.8157 79.646 32.8407 80.871 32.8407C81.4925 32.8407 82.1175 32.8336 82.7389 32.8157C84.1639 32.7121 85.5854 32.5443 87.014 32.5443C87.139 32.5443 87.2604 32.5443 87.3854 32.5478C87.4354 32.5478 87.489 32.5478 87.539 32.5478C88.3354 32.5478 89.1355 32.605 89.9319 32.605C90.0283 32.605 90.1283 32.605 90.2248 32.605C90.3819 32.6014 90.5391 32.6014 90.6926 32.6014C91.5105 32.6014 92.3248 32.6443 93.1427 32.6657C93.3177 32.6657 93.4963 32.6693 93.6713 32.6693C94.4856 32.6693 95.2999 32.6443 96.1142 32.6443C96.3249 32.6443 96.5392 32.6443 96.7499 32.6514C97.1713 32.6657 97.5963 32.6871 98.0178 32.6871C98.1749 32.6871 98.3285 32.6871 98.4856 32.6764C99.2892 32.58 100.093 32.5478 100.9 32.5478C101.029 32.5478 101.157 32.5478 101.286 32.5478C102.725 32.5228 104.164 32.5336 105.604 32.4978C106.271 32.43 106.939 32.4228 107.607 32.4014C107.843 32.3943 108.111 32.3086 108.357 32.3086M97.8535 33.4443C97.1178 33.4443 96.3785 33.405 95.6427 33.405C95.4034 33.405 95.1677 33.4086 94.9284 33.4193C94.6248 33.4264 94.3249 33.43 94.0213 33.43C92.6248 33.43 91.2284 33.3621 89.8283 33.3621C89.6641 33.3621 89.4998 33.3621 89.3355 33.3621C88.5855 33.3371 87.8354 33.3122 87.0819 33.3122C86.6176 33.3122 86.1497 33.3229 85.6854 33.3479C84.5139 33.4264 83.3532 33.5586 82.1818 33.6086C81.9746 33.6086 81.7675 33.6086 81.5603 33.6086C80.3817 33.6086 79.2067 33.58 78.0281 33.58C77.6924 33.58 77.3602 33.58 77.0245 33.5871C76.9245 33.5871 76.8245 33.5871 76.7209 33.5871C75.8924 33.5871 75.0673 33.6122 74.2423 33.6622C72.5673 33.68 70.8958 33.6514 69.2244 33.7764C69.028 33.7836 68.8279 33.7871 68.6244 33.7871C68.0529 33.7871 67.4743 33.7622 66.9243 33.7157C65.8065 33.6657 64.6814 33.7157 63.5671 33.5907C63.1028 33.5371 62.6421 33.4264 62.1743 33.4264C62.0492 33.4264 61.9243 33.4336 61.7992 33.4514C61.2385 33.5336 60.6778 33.6157 60.1135 33.6121H60.0671C59.9885 33.8407 60.0313 34.5515 59.9813 35.1515C59.9813 35.1515 59.9814 35.1515 59.9849 35.1515C60.0028 35.855 60.0206 36.9051 59.9349 37.6301C59.9671 37.6301 59.9992 37.6337 60.0314 37.6337C60.0064 37.9622 59.9671 38.2908 59.9421 38.623C59.8992 39.6051 59.9778 40.5873 59.9778 41.5695C59.9921 42.323 60.0778 43.0766 60.0064 43.8266C60.0064 43.8516 59.9992 43.8766 59.9992 43.9016C60.3099 43.8409 60.6528 43.8802 60.9635 43.8516C61.0921 43.8445 61.2171 43.8409 61.3421 43.8409C61.7635 43.8409 62.1814 43.8731 62.6028 43.8945C62.7528 43.8731 62.9028 43.8516 63.0564 43.8445C64.0421 43.8873 65.0315 43.9266 66.0172 43.9266C66.4136 43.9266 66.8065 43.9195 67.2029 43.9052C68.0493 43.8338 68.8994 43.7552 69.7458 43.6909C71.3387 43.5302 72.9423 43.5802 74.5388 43.4552C75.6674 43.4302 76.7924 43.4266 77.9138 43.3338C79.0031 43.2731 80.0924 43.2766 81.1817 43.2231C81.9032 43.2159 82.6246 43.2123 83.3425 43.2123C85.1425 43.2123 86.9426 43.2302 88.7426 43.2302C89.0605 43.2302 89.3819 43.2302 89.6998 43.2302C91.7034 43.1623 93.7105 43.1373 95.7106 42.9766C98.1856 42.9409 100.657 42.9052 103.132 42.8016C103.704 42.7195 104.275 42.6802 104.854 42.6802C104.957 42.6802 105.061 42.6802 105.164 42.6838C105.204 42.6838 105.246 42.6873 105.286 42.6873C105.411 42.6873 105.536 42.6766 105.661 42.6766C105.786 42.6766 105.918 42.6909 106.039 42.7445C106.061 42.7588 106.071 42.7802 106.089 42.798C106.164 42.7909 106.232 42.7838 106.279 42.773C106.447 42.7552 106.618 42.7516 106.786 42.7516C107.168 42.7516 107.554 42.7802 107.936 42.7837L108.025 42.7373C108.493 41.9873 108.554 41.0694 108.647 40.2123C108.697 39.148 108.682 38.0837 108.689 37.0194C108.7 37.0229 108.714 37.0194 108.725 37.0265C108.711 36.8979 108.689 36.7658 108.661 36.6408C108.661 36.6265 108.661 36.6086 108.654 36.5944C108.732 36.5944 108.811 36.6015 108.893 36.6015C108.893 36.4693 108.893 36.3372 108.907 36.2051C108.972 35.58 108.897 34.955 108.818 34.3336C108.807 34.2586 108.8 34.1836 108.797 34.1086C108.8 34.1086 108.807 34.1086 108.811 34.1086C108.754 34.0157 108.682 33.93 108.625 33.8407C108.482 33.6014 108.407 33.33 108.3 33.0764C107.414 33.2264 106.511 33.155 105.618 33.2586C103.579 33.3157 101.536 33.2693 99.4928 33.3407C98.9464 33.4157 98.3999 33.4336 97.8535 33.4336M88.2819 43.9981C87.9604 43.9981 87.6355 43.9981 87.314 43.9873C87.0212 43.9873 86.7247 43.9873 86.4318 43.9873C85.3354 43.9873 84.2425 43.9766 83.1461 43.9766C81.896 43.9766 80.6496 43.9909 79.4031 44.0445H79.3567C78.1424 44.0445 76.9317 44.1981 75.7174 44.1981H75.6995C75.6281 44.1981 75.5531 44.1981 75.4816 44.1981C74.8174 44.1981 74.1745 44.2481 73.5138 44.2909C72.653 44.3124 71.7566 44.3195 70.9137 44.3731C69.3315 44.4624 67.7565 44.6874 66.1743 44.6874C66.01 44.6874 65.8458 44.6874 65.6815 44.6802C65.5957 44.6802 65.51 44.6802 65.4243 44.6802C64.8136 44.6802 64.2064 44.6445 63.5957 44.5873C63.4957 44.6623 63.3707 44.6766 63.2457 44.6766C63.1778 44.6766 63.1064 44.6731 63.0385 44.6731C63.0171 44.6731 62.9957 44.6731 62.9743 44.6731C62.9064 44.6731 62.8385 44.6659 62.7671 44.6624C62.6064 44.8231 62.3921 44.9338 62.2171 45.0802C62.4957 45.3981 62.9885 45.6267 63.01 46.0945C63.0171 46.3088 62.9171 46.516 62.7743 46.6767C62.7564 46.7195 62.7385 46.7588 62.7064 46.7945C62.635 46.8696 62.535 46.9053 62.435 46.9053C62.3242 46.941 62.21 46.966 62.0992 46.991C61.9207 47.1088 61.7028 47.2053 61.6064 47.2445C60.8849 47.566 60.0813 47.5874 59.3313 47.8053C57.917 48.1124 56.7063 48.9482 55.3884 49.5053C54.7348 49.7982 54.0919 50.1125 53.4384 50.4053C52.7348 50.7125 51.9991 50.9696 51.3669 51.4161C50.4347 52.0554 49.6419 52.8661 48.7847 53.5911C48.2097 54.1125 47.6168 54.6161 47.0882 55.184C46.7347 55.5876 46.4347 56.0304 46.1061 56.4554C45.6168 57.1197 45.0096 57.6876 44.5346 58.3626C43.9668 59.2055 43.656 60.1912 43.131 61.0591C42.2167 62.4806 41.4489 64.0056 40.8096 65.5699C40.1203 67.7449 39.7845 70.0093 39.2667 72.2272C39.0667 73.2986 39.0417 74.3951 38.756 75.4487C38.5667 76.3701 38.5559 77.313 38.5417 78.2487C38.4809 79.088 38.4488 79.9273 38.4631 80.7666C38.4774 81.3773 38.5131 81.9916 38.4881 82.6023C38.4881 82.8024 38.3167 82.9845 38.1131 82.9845H38.1059C38.0845 82.9845 38.0631 82.9809 38.0452 82.9738C38.0345 82.9702 38.0238 82.9666 38.0131 82.9666C38.0238 82.9666 38.0345 82.9738 38.0452 82.9738C38.1666 83.0202 38.2345 83.1809 38.2702 83.2988C38.3559 83.6095 38.3559 83.9381 38.3702 84.2595C38.3988 85.3095 38.4738 86.3596 38.4845 87.4096C38.5667 89.8489 38.5917 92.2847 38.5309 94.724C38.4238 97.0919 38.4024 99.4598 38.3809 101.828C38.2631 105.571 38.5452 109.31 38.5952 113.053C38.6202 116.046 38.6631 119.039 38.6881 122.032C38.8167 125.939 38.9631 129.846 38.9417 133.757C38.9202 143.125 38.9024 152.489 39.0738 161.854C39.0952 166.661 39.0667 171.472 39.0845 176.279C39.1381 178.276 39.3738 180.268 39.7345 182.233C39.8845 182.994 40.1596 183.733 40.5774 184.386C40.8596 184.765 41.1489 185.14 41.4096 185.533C42.1739 186.701 43.0953 187.822 44.3811 188.436C45.3811 188.901 46.5204 188.894 47.5954 189.022C47.7776 189.022 47.8954 189.129 47.9454 189.262C50.1026 189.487 52.2598 189.744 54.4277 189.812C54.9027 189.812 55.3777 189.812 55.8563 189.812C57.9992 189.812 60.1421 189.797 62.2814 189.797C62.5278 189.797 62.7743 189.797 63.0243 189.797C64.6386 189.801 66.2493 189.844 67.8601 189.844C68.0565 189.844 68.2494 189.844 68.4458 189.844C70.0315 189.808 71.6173 189.683 73.203 189.633C74.1245 189.604 75.0459 189.594 75.9709 189.594C77.0745 189.594 78.1817 189.604 79.2853 189.604C80.3889 189.604 81.3853 189.594 82.4353 189.551C83.0282 189.529 83.6211 189.519 84.2139 189.519C85.8783 189.519 87.5462 189.587 89.2105 189.59C91.6891 189.694 94.1677 189.801 96.6463 189.801C97.4785 189.801 98.3106 189.79 99.1464 189.758C100.082 189.715 101.018 189.697 101.95 189.697C103.939 189.697 105.929 189.772 107.918 189.815C108.239 189.819 108.561 189.822 108.882 189.822C109.857 189.822 110.832 189.808 111.807 189.808C112.164 189.808 112.525 189.808 112.882 189.815C116.132 189.776 119.45 189.697 122.554 188.654C123.175 188.354 123.85 188.19 124.468 187.883C124.84 187.636 125.133 187.294 125.475 187.011C125.95 186.583 126.483 186.204 126.875 185.694C127.386 184.908 127.829 184.072 128.222 183.219C128.318 182.997 128.411 182.772 128.511 182.551C128.715 182.094 129.047 181.697 129.172 181.204C129.283 180.733 129.286 180.243 129.297 179.761C129.318 179.226 129.447 178.701 129.515 178.172C129.643 176.851 129.622 175.515 129.608 174.186C129.493 173.054 129.433 171.922 129.383 170.786C129.354 170.204 129.411 169.625 129.426 169.043C129.418 168.025 129.44 167.036 129.554 166.025C129.604 165.336 129.486 164.65 129.568 163.961C129.593 163.718 129.429 163.432 129.368 163.179C129.265 163.111 129.19 162.997 129.193 162.868C129.333 159.054 129.347 155.232 129.34 151.414C129.286 148.382 129.011 145.357 129.011 142.321C128.993 139.686 129.011 137.053 129.076 134.421C129.183 131.71 129.175 128.993 129.058 126.282C128.95 121.342 129.201 116.399 129.015 111.464C128.89 107.492 129.036 103.517 129.015 99.5419C129.022 97.7455 129.215 95.9526 129.161 94.1562C129.004 91.3382 128.79 88.5168 128.936 85.6917C128.965 84.6238 128.968 83.5559 129.051 82.4916C129.118 80.9952 129.1 79.4952 129.058 77.9987C129.061 77.0523 128.979 76.1129 128.858 75.1736C128.793 74.2522 128.686 73.3343 128.575 72.42C128.543 71.5807 128.4 70.7593 128.204 69.9414C128.083 69.1914 127.972 68.4414 127.74 67.7164C127.533 66.8306 127.354 65.9771 127.054 65.1199C126.75 64.3877 126.522 63.6234 126.19 62.9056C125.793 62.2591 125.49 61.5734 125.186 60.8805C124.922 60.3662 124.561 59.9126 124.261 59.4234C123.868 58.8555 123.561 58.2233 123.115 57.6947C122.579 57.1697 122.086 56.609 121.557 56.0733C121 55.5126 120.586 54.9518 119.965 54.4911C119.461 54.0768 119.057 53.5625 118.575 53.1268C118.047 52.6589 117.482 52.2304 116.9 51.8304C116.572 51.6053 116.211 51.4268 115.882 51.1982C115.29 50.7518 114.707 50.3053 114.043 49.9767C112.722 49.4053 111.393 48.841 110.082 48.2517C109.45 48.0874 108.839 47.8731 108.236 47.6231C107.7 47.4731 107.179 47.266 106.639 47.1303C106.336 47.0696 106.014 47.0731 105.732 46.9267C105.711 46.9196 105.693 46.9053 105.671 46.891C105.568 46.8838 105.471 46.8338 105.407 46.7588C105.35 46.7517 105.293 46.7445 105.243 46.7088C105.107 46.6374 105.029 46.4767 105.036 46.3231C105.075 46.0302 105.046 45.7124 105.161 45.4338C105.261 45.1195 105.654 45.0838 105.789 44.8052C105.664 44.5695 105.446 44.4159 105.25 44.2445C105.057 44.0445 105.075 43.8302 105.179 43.6302C105.154 43.5802 105.15 43.5195 105.175 43.4588C105.107 43.4588 105.036 43.4588 104.968 43.4588C104.661 43.4588 104.354 43.4588 104.046 43.4766C103.243 43.6088 102.432 43.5802 101.621 43.6231C99.7857 43.7266 97.9428 43.7088 96.1035 43.7374C94.8856 43.7838 93.6891 43.9088 92.4748 43.9338C91.0784 43.9516 89.6855 44.0088 88.289 44.0088M108.364 31.5371C108.168 31.5371 107.986 31.5692 107.829 31.5978C107.747 31.6121 107.668 31.63 107.589 31.6335L107.25 31.6442C106.7 31.6585 106.132 31.6764 105.564 31.7335C104.746 31.755 103.929 31.7585 103.111 31.7657C102.5 31.7693 101.893 31.7728 101.282 31.7835C101.171 31.7835 101.039 31.7835 100.907 31.7835C99.9571 31.7835 99.1678 31.8228 98.4249 31.9121H98.4214C97.9928 31.93 97.5642 31.9121 97.1356 31.8978L96.7856 31.8836C96.557 31.88 96.3392 31.8764 96.1249 31.8764C95.7142 31.8764 95.3034 31.8835 94.8927 31.8871C94.4891 31.8943 94.0856 31.8978 93.682 31.8978C93.5105 31.8978 93.3391 31.8978 93.1641 31.8943C92.8927 31.8871 92.6105 31.8764 92.332 31.8693C91.7998 31.8514 91.2498 31.83 90.7034 31.83C90.5426 31.83 90.3783 31.83 90.2176 31.8371C90.1283 31.8371 90.0355 31.8371 89.9426 31.8371C89.5533 31.8371 89.164 31.8228 88.7747 31.8085C88.3676 31.7943 87.9604 31.78 87.5497 31.78H87.389C87.2819 31.78 87.1533 31.78 87.0247 31.78C85.9461 31.78 84.8675 31.8728 83.8282 31.9585C83.4497 31.9907 83.0711 32.0228 82.6925 32.0514C82.1746 32.0657 81.571 32.0764 80.8817 32.0764C80.271 32.0764 79.6603 32.0693 79.0496 32.0621C78.4353 32.055 77.8174 32.0478 77.2031 32.0478C76.6459 32.0478 76.0888 32.0514 75.5316 32.0693C74.428 32.1407 73.3245 32.1407 72.2566 32.1443C71.9601 32.1443 71.6601 32.1443 71.3637 32.1443C70.9137 32.155 70.478 32.1764 70.0387 32.1978C69.4779 32.2264 68.9529 32.255 68.4172 32.255C68.0886 32.255 67.7922 32.2443 67.5101 32.2228C66.9136 32.1657 66.31 32.1621 65.7243 32.155C65.2386 32.1514 64.7814 32.1478 64.3243 32.1157C64.0136 32.1014 63.7136 32.0586 63.3957 32.0121C62.985 31.955 62.56 31.8943 62.1135 31.8943C61.8671 31.8943 61.6421 31.9121 61.4171 31.9514C61.3242 31.9621 61.1992 31.9835 61.0742 32.0014C60.9278 32.0228 60.7849 32.0478 60.6349 32.0621C60.5742 32.0621 60.5135 32.0621 60.4528 32.0621C59.9492 32.0621 59.3813 32.1193 58.967 32.5407C58.542 32.9764 58.4956 33.5836 58.5063 34.1229C58.5063 34.1872 58.5063 34.2514 58.5063 34.3193H58.4849L58.4635 35.1408C58.4706 35.4336 58.4706 35.7265 58.4706 36.0193C58.4706 36.3408 58.4706 36.6622 58.4777 36.9836L58.4885 37.2301C58.492 37.3301 58.4992 37.4336 58.5063 37.5372C58.4956 37.6979 58.4813 37.8587 58.4706 38.0194C58.4206 38.6515 58.367 39.3051 58.417 39.9837C58.4277 40.2444 58.4349 40.5337 58.442 40.823C58.4599 41.5123 58.4742 42.2266 58.5492 42.9445V42.9695L58.5563 42.9945C58.5635 43.0445 58.567 43.1945 58.567 43.2945C58.5742 43.7302 58.5813 44.2981 58.8956 44.6909C58.9671 44.8552 59.0849 45.0016 59.2349 45.1088L59.2885 45.1481L59.3456 45.1767C59.7242 45.3588 60.1064 45.3659 60.4135 45.3731C60.5028 45.3731 60.5885 45.3731 60.6742 45.3838C60.7064 45.5445 60.7671 45.7017 60.8564 45.8552C60.7599 45.9052 60.6707 45.9624 60.5885 46.0267H60.5671L60.5349 46.0338C59.6028 46.191 58.617 46.3731 57.717 46.7267C57.092 46.9981 56.5134 47.2838 55.9527 47.5588C55.3598 47.8517 54.7491 48.1517 54.1241 48.4196L54.0991 48.4303L54.0777 48.441C53.6241 48.6696 53.1598 48.8696 52.6669 49.0803C52.1491 49.3017 51.6133 49.5339 51.0919 49.8017L51.074 49.8124L51.0562 49.8232C50.0062 50.441 49.1204 51.2446 48.2633 52.0268C47.9204 52.3375 47.5811 52.6482 47.2311 52.9482L47.0168 53.1447C46.524 53.5875 46.0168 54.0482 45.5847 54.6125C45.0382 55.3733 44.4311 56.1233 43.6632 56.9912C43.0846 57.6698 42.7346 58.4162 42.3917 59.1412C42.1524 59.6519 41.9239 60.1341 41.6346 60.5662C41.1131 61.352 40.7024 62.1841 40.306 62.9877L40.0703 63.4627C39.7845 64.0306 39.4238 64.7877 39.1845 65.6163C38.8274 66.8592 38.5631 68.1307 38.3095 69.3628C38.1988 69.8986 38.0881 70.4378 37.9702 70.9736C37.8202 71.6164 37.6345 72.4807 37.5488 73.3915C37.5059 73.9915 37.3809 74.5701 37.2488 75.1808L37.2166 75.3379C37.0524 76.1701 37.0309 76.9844 37.0131 77.7737C37.0095 77.9844 37.0024 78.1951 36.9952 78.4058C36.9095 79.3666 36.9238 80.3237 36.9416 81.2488C36.9488 81.7059 36.9595 82.1595 36.9523 82.6166C36.9523 82.7702 36.9809 82.9202 37.0381 83.0595C36.9166 83.7345 36.9238 84.4024 36.9309 85.0524C36.9309 85.2524 36.9345 85.4488 36.9309 85.6453C36.9416 86.256 36.9523 86.8453 36.9631 87.4382C36.9988 89.3168 37.0381 91.2597 37.0131 93.1633C36.9988 94.4597 36.9559 95.7455 36.8952 97.2741C36.8595 98.8848 36.8452 100.506 36.8309 102.071C36.8238 102.867 36.8166 103.667 36.8059 104.463C36.8273 105.881 36.8773 107.299 36.9273 108.671C36.9631 109.653 36.9988 110.635 37.0238 111.621C37.0809 114.607 37.1059 117.646 37.1309 120.585L37.1416 121.875L37.2023 123.703C37.2952 126.485 37.3881 129.36 37.4024 132.185V135.95C37.3845 144.386 37.3702 153.107 37.5345 161.69C37.5452 164.093 37.5416 166.507 37.5416 168.918C37.5416 170.454 37.5416 171.99 37.5416 173.525C37.4809 177.293 37.7345 180.326 38.3381 183.047C38.6202 184.09 39.0345 184.947 39.5738 185.633C39.781 185.908 39.9881 186.201 40.1917 186.497C40.7024 187.229 41.2274 187.986 41.9417 188.626C43.6775 190.244 45.2668 190.387 47.2775 190.551C48.2597 190.822 49.3276 190.994 50.7205 191.101C52.2491 191.287 53.9277 191.372 55.9741 191.372C56.642 191.372 57.3063 191.362 57.9742 191.351C58.6063 191.358 59.267 191.358 59.9313 191.358C60.5564 191.358 61.1814 191.358 61.8064 191.358H63.4636C64.0136 191.358 64.5707 191.369 65.1243 191.376C65.9493 191.387 66.7708 191.401 67.5994 191.401H67.9672C69.0565 191.401 70.1565 191.34 71.2208 191.283C71.928 191.244 72.6316 191.208 73.3388 191.187C74.0602 191.162 74.8423 191.151 75.8066 191.151C76.3602 191.151 76.9138 191.151 77.4674 191.158C78.0246 191.162 78.5817 191.165 79.1389 191.165H79.6496H79.7817C80.7246 191.165 81.6782 191.133 82.5996 191.104C82.9604 191.094 83.3211 191.079 83.6818 191.072C87.239 191.097 90.8819 191.222 94.407 191.34L94.7534 191.351C95.2034 191.362 95.6392 191.365 96.0749 191.365C97.307 191.365 98.5499 191.337 99.7571 191.308C100.625 191.287 101.493 191.265 102.361 191.254C103.35 191.262 104.371 191.29 105.361 191.319C106.036 191.337 106.711 191.354 107.386 191.369C107.864 191.379 108.343 191.383 108.822 191.383C109.3 191.383 109.786 191.379 110.268 191.376C110.747 191.372 111.229 191.369 111.711 191.369H112.107H112.461C115.111 191.369 117.929 191.322 120.69 190.765H120.715L120.736 190.754C120.982 190.687 121.233 190.629 121.483 190.572C121.983 190.458 122.5 190.337 123.015 190.151L123.054 190.137L123.09 190.119C123.379 189.979 123.686 189.865 124.015 189.747C124.393 189.608 124.786 189.465 125.175 189.269L125.211 189.251L125.243 189.229C125.661 188.961 126.004 188.64 126.336 188.329C126.547 188.133 126.747 187.947 126.954 187.783C127.736 187.14 128.25 186.533 128.586 185.861C128.665 185.719 128.758 185.554 128.851 185.386C129.072 184.994 129.297 184.586 129.493 184.154C129.568 183.997 129.643 183.822 129.718 183.651C129.836 183.376 129.947 183.119 130.079 182.883C130.326 182.486 130.608 181.976 130.715 181.361C130.797 180.965 130.811 180.568 130.826 180.183C130.833 179.972 130.84 179.761 130.861 179.551C131.076 178.34 131.168 177.243 131.143 176.193C131.143 176.011 131.147 175.801 131.154 175.586C131.165 175.061 131.176 174.515 131.14 173.976C131.043 173.086 130.983 172.193 130.951 171.215V171.193V171.172C130.901 170.625 130.929 170.072 130.954 169.486L130.965 169.286C130.976 168.979 130.976 168.693 130.972 168.408C130.972 167.968 130.997 167.25 131.04 166.815C131.104 166.175 131.147 165.493 131.076 164.797C131.076 164.679 131.083 164.557 131.09 164.44C131.104 164.24 131.118 164.015 131.101 163.772V163.754L131.097 163.736C131.047 163.347 130.933 162.947 130.758 162.55C130.758 162.543 130.751 162.536 130.747 162.529C130.758 162.118 130.776 161.704 130.793 161.293L130.826 160.507C130.833 159.518 130.843 158.55 130.858 157.586C130.879 156.011 130.901 154.382 130.886 152.779C130.897 150.875 130.804 148.939 130.715 147.071C130.618 145.018 130.515 142.893 130.554 140.811C130.522 138.857 130.572 136.893 130.622 134.989C130.668 133.182 130.715 131.314 130.693 129.468C130.679 128.732 130.661 128.003 130.64 127.271C130.601 125.825 130.558 124.328 130.576 122.864C130.576 121.767 130.59 120.678 130.604 119.585C130.622 117.964 130.643 116.289 130.622 114.635C130.629 113.542 130.593 112.428 130.558 111.346C130.54 110.831 130.526 110.314 130.511 109.799C130.49 108.774 130.504 107.724 130.518 106.706C130.526 106.153 130.533 105.599 130.536 105.046C130.54 104.399 130.543 103.749 130.543 103.099C130.551 100.699 130.554 98.2205 130.704 95.7955C130.74 94.3597 130.654 92.949 130.568 91.5811C130.486 90.2132 130.401 88.7989 130.436 87.4203C130.476 85.2024 130.533 83.5059 130.622 81.9166V81.8988V81.8809V81.1273C130.64 79.3344 130.654 77.4844 130.465 75.6522C130.408 75.2094 130.372 74.7879 130.333 74.3415C130.286 73.7986 130.24 73.2415 130.154 72.6807L130.118 72.27C130.047 71.4486 129.972 70.6021 129.736 69.7557C129.697 69.5557 129.665 69.3521 129.636 69.1485C129.593 68.8664 129.547 68.5771 129.483 68.2807C129.429 68.0414 129.365 67.8056 129.297 67.5664C129.236 67.3485 129.175 67.1342 129.129 66.9128C128.89 65.7413 128.565 64.6734 128.168 63.7484C128.122 63.627 128.072 63.4806 128.018 63.3306C127.875 62.9234 127.725 62.502 127.493 62.0805L127.483 62.0591L127.468 62.0377C127.183 61.5877 126.965 61.0912 126.733 60.5662L126.636 60.3448L126.629 60.3269L126.618 60.3091C126.333 59.7448 125.986 59.2341 125.654 58.7376C125.4 58.3626 125.161 58.009 124.95 57.6376C124.65 57.1162 124.272 56.6447 123.825 56.2304C123.661 56.0554 123.497 55.884 123.333 55.709C123.018 55.3733 122.704 55.0411 122.379 54.7161C121.968 54.2447 121.472 53.7054 120.868 53.2411C120.661 53.0482 120.465 52.8482 120.268 52.6447C119.879 52.2482 119.472 51.8339 118.997 51.4732C118.386 50.9696 117.668 50.4768 116.829 49.9839L116.557 49.7839C116.104 49.4482 115.64 49.0981 115.111 48.8089C114.393 48.4374 113.668 48.1374 112.968 47.8446C112.436 47.6231 111.886 47.3946 111.368 47.1481C110.922 46.9053 110.472 46.7731 110.032 46.6445C109.714 46.5517 109.414 46.4624 109.147 46.3374C108.782 46.1874 108.45 46.091 108.132 46.0017L107.907 45.9374C107.629 45.8338 107.354 45.7552 107.075 45.7017C107.282 45.3838 107.382 45.0267 107.35 44.6659V44.6123L107.332 44.5624C107.314 44.4766 107.286 44.3945 107.257 44.3124C107.368 44.3195 107.472 44.3302 107.575 44.3374H107.597H107.618H107.729C107.797 44.3374 107.861 44.3409 107.929 44.3409C108.014 44.3409 108.097 44.3409 108.182 44.3338C108.632 44.2838 108.979 44.0088 109.136 43.6302C110.122 42.6766 110.225 40.5408 110.243 38.5837C110.243 38.3979 110.243 38.2408 110.25 38.1158C110.279 38.0622 110.307 37.998 110.332 37.9265C110.425 37.6408 110.464 37.3265 110.454 36.9622C110.464 36.2943 110.479 35.5122 110.425 34.7229C110.468 34.58 110.486 34.43 110.472 34.2764C110.454 33.7871 110.193 33.3943 110 33.1086L109.939 33.0157C109.911 32.9514 109.889 32.8871 109.864 32.8229C109.772 32.5729 109.657 32.2621 109.411 31.9835C109.214 31.7764 108.889 31.5478 108.375 31.5478L108.364 31.5371ZM99.5642 34.1193C100.621 34.0836 101.704 34.0765 102.746 34.0729C103.696 34.0693 104.675 34.0657 105.643 34.0372H105.675L105.707 34.0336C106.064 33.9907 106.432 33.98 106.818 33.9693C107.139 33.9586 107.468 33.9514 107.8 33.9229C107.847 34.03 107.9 34.1372 107.964 34.2479C107.993 34.2943 108.018 34.33 108.043 34.3693C108.043 34.3907 108.047 34.4086 108.05 34.43C108.129 34.8908 108.132 35.3479 108.129 35.8229H107.775L107.893 36.7015V36.7479L107.911 36.8193C107.914 36.8372 107.918 36.8551 107.922 36.8729V37.0194C107.918 37.3194 107.918 37.6229 107.914 37.9229C107.914 38.6587 107.914 39.4194 107.875 40.1587L107.854 40.3587C107.789 40.9587 107.732 41.5266 107.536 42.0052H107.429C107.214 41.9909 107 41.9837 106.786 41.9837C106.589 41.9837 106.414 41.9909 106.25 42.0052C106.021 41.923 105.807 41.9123 105.661 41.9123C105.586 41.9123 105.511 41.9123 105.436 41.9194C105.386 41.9194 105.336 41.923 105.286 41.923C105.268 41.923 105.25 41.923 105.229 41.923H105.204H105.179C105.068 41.923 104.961 41.9194 104.85 41.9194C104.236 41.9194 103.636 41.9623 103.057 42.0409C100.607 42.1409 98.1106 42.1802 95.6963 42.2123H95.6713H95.6463C94.1248 42.3337 92.5641 42.3802 91.0534 42.423C90.5926 42.4373 90.1319 42.448 89.6712 42.4659C89.3748 42.4659 89.0569 42.4659 88.739 42.4659C87.839 42.4659 86.9426 42.4623 86.0425 42.4552C85.1425 42.4516 84.239 42.4444 83.3389 42.4444C82.6139 42.4444 81.8925 42.4445 81.1675 42.4552C80.6353 42.4802 80.1282 42.4945 79.6246 42.5052C79.0496 42.5195 78.4567 42.5337 77.8674 42.5659C76.9638 42.6409 76.0531 42.6587 75.1709 42.673L74.5173 42.6873H74.4959H74.4745C73.7709 42.7445 73.0423 42.7623 72.3352 42.7837C71.4637 42.8087 70.5601 42.8338 69.6637 42.9266C69.0922 42.9695 68.5029 43.0195 67.9136 43.073L67.1315 43.1409C66.7815 43.1516 66.3958 43.1587 66.01 43.1587C65.01 43.1587 64.0171 43.1195 63.0814 43.0802H63.0421H63.0028C62.8564 43.0873 62.71 43.1052 62.5671 43.1266L62.3957 43.1159C62.0528 43.0945 61.6992 43.073 61.3385 43.073C61.1992 43.073 61.0599 43.073 60.9171 43.0838C60.8778 43.0873 60.8385 43.0909 60.8028 43.0909C60.8028 42.8016 60.7849 42.5159 60.7707 42.2373C60.7599 42.0087 60.7492 41.7837 60.7421 41.5552C60.7421 41.173 60.7314 40.773 60.7171 40.3766C60.6992 39.7837 60.6814 39.223 60.7064 38.6587C60.7171 38.5158 60.7349 38.348 60.7492 38.1801C60.7635 38.0194 60.7814 37.8587 60.7921 37.6979L60.8599 36.8658H60.7528C60.7706 36.3086 60.7635 35.6979 60.7492 35.1336V35.1229C60.7671 34.8729 60.7706 34.6193 60.7742 34.3907C60.7742 34.3764 60.7742 34.3657 60.7742 34.3514C61.0064 34.33 61.2314 34.3015 61.4528 34.2693C61.6278 34.2479 61.8028 34.2229 61.9778 34.205C62.0385 34.1979 62.1028 34.1943 62.1671 34.1943C62.4135 34.1943 62.6778 34.2372 62.96 34.28C63.1314 34.3086 63.3029 34.3336 63.4743 34.3514C64.2279 34.4372 64.9779 34.4479 65.7065 34.455C66.0993 34.4586 66.4922 34.4622 66.8851 34.48C67.4244 34.5264 68.0208 34.5515 68.6172 34.5515C68.8279 34.5515 69.0351 34.5515 69.2387 34.5407C70.5173 34.4443 71.7959 34.4372 73.0352 34.4336C73.4387 34.4336 73.8423 34.43 74.2423 34.4265C75.0923 34.3765 75.9102 34.3514 76.7138 34.3514H77.0102C77.3602 34.3479 77.6888 34.3443 78.0174 34.3443C78.6031 34.3443 79.1888 34.3515 79.7746 34.3586C80.3674 34.3657 80.9567 34.3729 81.5496 34.3729C81.7603 34.3729 81.9675 34.3729 82.1782 34.3729C82.9318 34.3407 83.6604 34.28 84.364 34.2193C84.8175 34.18 85.2711 34.1407 85.7247 34.1122C86.1354 34.0907 86.5783 34.08 87.0676 34.08C87.8283 34.08 88.6069 34.105 89.2926 34.13C89.489 34.13 89.6533 34.13 89.8141 34.13C90.5034 34.13 91.2105 34.1479 91.8927 34.1657C92.5855 34.1836 93.2998 34.2015 94.007 34.2015C94.3141 34.2015 94.6249 34.2014 94.9356 34.1907C95.1749 34.18 95.4034 34.1765 95.6284 34.1765C95.9892 34.1765 96.3535 34.1872 96.7142 34.1943C97.0892 34.205 97.4642 34.2122 97.8392 34.2122C98.4964 34.2122 99.0392 34.18 99.5428 34.1157L99.5642 34.1193ZM104.129 44.2481C104.211 44.2445 104.293 44.2409 104.375 44.2373C104.429 44.4266 104.529 44.6016 104.675 44.7588C104.579 44.8659 104.493 44.9981 104.436 45.1695C104.321 45.4659 104.304 45.7517 104.289 45.9838C104.286 46.0624 104.282 46.141 104.271 46.2195V46.2517L104.264 46.2838C104.243 46.7302 104.468 47.1517 104.846 47.3696C104.918 47.4124 104.989 47.4446 105.054 47.466C105.161 47.5374 105.282 47.591 105.407 47.6231C105.714 47.7731 106.014 47.8124 106.261 47.8446C106.332 47.8553 106.4 47.8624 106.472 47.8767C106.739 47.9446 107.007 48.0339 107.289 48.1267C107.518 48.2017 107.75 48.2803 107.982 48.3481C108.632 48.616 109.236 48.8196 109.822 48.9767C110.857 49.4446 111.918 49.8982 112.943 50.341L113.736 50.6839C114.261 50.941 114.768 51.3232 115.307 51.7303L115.418 51.8125C115.632 51.9661 115.829 52.0804 116.018 52.1911C116.168 52.2804 116.318 52.3661 116.461 52.4661C117.061 52.8732 117.582 53.2768 118.061 53.7018C118.25 53.8732 118.436 54.0661 118.629 54.2697C118.89 54.5411 119.157 54.8233 119.472 55.084L119.486 55.0983L119.504 55.109C119.861 55.3733 120.147 55.684 120.472 56.0447C120.643 56.234 120.818 56.4233 121.007 56.6162C121.232 56.8447 121.454 57.0804 121.675 57.3162C121.954 57.6126 122.243 57.9198 122.543 58.2162C122.772 58.4948 122.968 58.8162 123.175 59.1555C123.318 59.3876 123.458 59.6198 123.611 59.8448C123.729 60.0341 123.854 60.2234 123.983 60.4091C124.168 60.6841 124.347 60.9448 124.486 61.2163C124.765 61.8591 125.083 62.5805 125.504 63.2734C125.675 63.6484 125.818 64.0413 125.968 64.4556C126.083 64.7734 126.2 65.0913 126.329 65.402C126.565 66.077 126.718 66.7556 126.886 67.4771L126.983 67.8985L126.99 67.9271L127 67.9557C127.193 68.5557 127.297 69.1843 127.404 69.8486L127.44 70.07V70.0986L127.45 70.1271C127.658 70.9878 127.772 71.7486 127.8 72.4522V72.4843L127.804 72.5164C127.904 73.3558 128.018 74.3058 128.083 75.2308V75.2558L128.086 75.2772C128.222 76.3237 128.283 77.1915 128.279 77.9987C128.315 79.338 128.343 80.8952 128.272 82.4595C128.208 83.2809 128.19 84.1274 128.175 84.9488L128.158 85.6774C128.033 88.1203 128.175 90.6025 128.315 92.999L128.383 94.2026C128.411 95.1705 128.361 96.1919 128.311 97.1776C128.275 97.9491 128.236 98.7491 128.233 99.5455C128.24 101.063 128.226 102.606 128.208 104.096C128.183 106.517 128.154 109.024 128.233 111.496C128.336 114.196 128.304 116.949 128.275 119.61C128.25 121.803 128.225 124.071 128.275 126.307C128.393 129.014 128.4 131.728 128.293 134.4C128.229 136.932 128.208 139.521 128.225 142.336C128.225 144.032 128.311 145.754 128.397 147.414C128.465 148.732 128.533 150.096 128.554 151.436C128.565 155.664 128.543 159.229 128.408 162.847C128.401 163.129 128.497 163.393 128.676 163.604C128.69 163.643 128.704 163.682 128.718 163.722C128.74 163.782 128.776 163.875 128.786 163.918C128.743 164.329 128.758 164.729 128.772 165.115C128.783 165.418 128.793 165.704 128.772 165.975C128.672 166.854 128.633 167.811 128.64 169.054C128.636 169.211 128.625 169.397 128.618 169.579C128.597 169.983 128.579 170.397 128.597 170.825C128.64 171.833 128.704 173.025 128.822 174.233V174.333C128.836 175.576 128.851 176.865 128.733 178.101C128.711 178.261 128.679 178.447 128.651 178.629C128.59 178.979 128.529 179.343 128.515 179.733V179.822C128.504 180.254 128.493 180.661 128.408 181.033C128.361 181.219 128.243 181.426 128.104 181.661C127.997 181.844 127.89 182.029 127.793 182.244C127.729 182.383 127.668 182.529 127.608 182.676L127.504 182.919C127.104 183.79 126.686 184.558 126.236 185.254C126.004 185.547 125.7 185.804 125.379 186.079C125.236 186.201 125.09 186.322 124.95 186.451C124.829 186.551 124.693 186.679 124.558 186.808C124.39 186.965 124.233 187.115 124.072 187.229C123.808 187.358 123.522 187.458 123.222 187.569C122.908 187.683 122.583 187.801 122.258 187.954C119.165 188.987 115.675 189.026 112.868 189.061C112.529 189.054 112.164 189.054 111.8 189.054C111.311 189.054 110.822 189.058 110.332 189.061C109.847 189.065 109.361 189.069 108.875 189.069C108.557 189.069 108.239 189.069 107.922 189.061C107.314 189.047 106.7 189.033 106.086 189.015C104.729 188.979 103.325 188.944 101.943 188.944C100.907 188.944 99.9785 188.965 99.1 189.004C98.3214 189.033 97.5106 189.044 96.6392 189.044C94.3213 189.044 91.9605 188.947 89.6748 188.851L89.2319 188.833C88.4069 188.833 87.6104 188.815 86.8104 188.797C85.9568 188.779 85.0747 188.762 84.2032 188.762C83.5425 188.762 82.9532 188.772 82.3961 188.794C81.496 188.829 80.5317 188.844 79.2782 188.844C78.7281 188.844 78.1746 188.844 77.6245 188.836C77.071 188.836 76.5174 188.829 75.9638 188.829C74.8673 188.829 73.9816 188.84 73.1709 188.869C72.4459 188.894 71.7244 188.929 71.003 188.969C70.1565 189.015 69.278 189.062 68.4208 189.079C68.2422 189.079 68.0458 189.079 67.8529 189.079C67.01 189.079 66.1672 189.069 65.3243 189.054C64.5564 189.044 63.7886 189.033 63.0171 189.033H62.2742C61.2028 189.033 60.1313 189.033 59.0599 189.04C57.9884 189.044 56.9206 189.047 55.8491 189.047C55.3741 189.047 54.8991 189.047 54.4241 189.047C52.6026 188.99 50.724 188.79 48.9097 188.597L48.3418 188.536C48.1526 188.372 47.9097 188.272 47.6454 188.258C47.4097 188.233 47.174 188.212 46.9347 188.19C46.1204 188.119 45.3525 188.051 44.6989 187.744C43.5025 187.172 42.6525 186.04 42.0489 185.115C41.831 184.79 41.606 184.486 41.3881 184.194L41.2096 183.954C40.8703 183.411 40.6274 182.786 40.4881 182.086C40.1167 180.076 39.9024 178.115 39.8524 176.265C39.8453 173.951 39.8453 171.615 39.8488 169.283C39.8488 166.808 39.8524 164.332 39.8417 161.857C39.6667 152.214 39.6881 142.411 39.7095 133.768C39.7274 130.21 39.6095 126.603 39.4917 123.114L39.456 122.014C39.4452 120.567 39.4274 119.099 39.4095 117.632C39.3917 116.107 39.3738 114.582 39.3631 113.053C39.3452 111.664 39.2952 110.26 39.2452 108.903C39.1595 106.592 39.0738 104.199 39.1488 101.86V101.613C39.1702 99.367 39.1917 97.0455 39.2952 94.7704C39.3524 92.4597 39.3381 90.0489 39.2488 87.3953C39.2417 86.7917 39.2131 86.1703 39.1845 85.5667C39.1631 85.1274 39.1452 84.6881 39.131 84.2488L39.1238 84.0988C39.1131 83.8452 39.1024 83.5667 39.0417 83.2738C39.1774 83.0809 39.2524 82.8488 39.2488 82.6131C39.2667 82.1809 39.2524 81.7202 39.2381 81.2773C39.231 81.1059 39.2274 80.9345 39.2238 80.763C39.2095 80.0273 39.2345 79.2487 39.2988 78.3166V78.2951V78.2737V78.1773C39.3131 77.2915 39.3274 76.4522 39.4917 75.6415C39.6738 74.9629 39.7524 74.2843 39.831 73.6308C39.8845 73.1986 39.931 72.7879 40.006 72.3843C40.1774 71.6521 40.3381 70.87 40.4917 70.1128C40.781 68.695 41.081 67.2306 41.5167 65.8485C42.1632 64.2663 42.9203 62.7984 43.7596 61.4948C44.0346 61.0448 44.2418 60.5984 44.4418 60.1662C44.6668 59.6805 44.8811 59.2233 45.1561 58.8162C45.3739 58.509 45.6382 58.209 45.9168 57.8912C46.1811 57.5912 46.4561 57.2804 46.7097 56.9376C46.8061 56.8126 46.9097 56.6733 47.0097 56.534C47.224 56.2447 47.4275 55.9697 47.6454 55.7197C48.0097 55.3304 48.424 54.959 48.8597 54.5661C48.999 54.4411 49.1419 54.3161 49.2812 54.1875C49.5454 53.9625 49.824 53.7125 50.1026 53.4625C50.6633 52.9554 51.1955 52.4804 51.7812 52.0768C52.2133 51.7732 52.7134 51.5625 53.2419 51.3411C53.4027 51.2732 53.5634 51.2053 53.7241 51.1375C54.0598 50.9875 54.3884 50.8339 54.717 50.6803C55.0384 50.5303 55.3598 50.3803 55.6848 50.2339C56.1527 50.0375 56.617 49.8017 57.067 49.5732C57.8813 49.1589 58.6528 48.766 59.4778 48.5874H59.5028L59.5278 48.5767C59.7849 48.5017 60.0635 48.4517 60.3564 48.3981C60.8599 48.3053 61.385 48.2124 61.9064 47.9803C61.9921 47.941 62.185 47.8588 62.3814 47.7446C62.4421 47.7303 62.5028 47.716 62.56 47.6981C62.8207 47.666 63.0671 47.5481 63.2493 47.3624C63.3314 47.2838 63.3886 47.191 63.4243 47.1195C63.6636 46.8088 63.785 46.4481 63.7707 46.0945C63.76 45.8374 63.685 45.6267 63.585 45.4445C63.6314 45.4338 63.6778 45.4231 63.7243 45.4052C64.3171 45.4588 64.8707 45.4838 65.4136 45.4838C65.5029 45.4838 65.5922 45.4838 65.685 45.4838C65.8207 45.4874 65.9922 45.4909 66.1636 45.4909C67.1815 45.4909 68.1958 45.4017 69.1744 45.3124C69.7565 45.2588 70.3601 45.2052 70.9494 45.1731C71.5744 45.1338 72.2423 45.1195 72.8852 45.1052L73.5245 45.0909L73.828 45.0731C74.3923 45.0374 74.9281 45.0017 75.4745 45.0017H75.6781C76.3388 45.0017 76.9674 44.9624 77.5745 44.9231C78.1853 44.8838 78.7638 44.8481 79.346 44.8481H79.3924C80.7782 44.7874 82.1211 44.7802 83.1389 44.7802C83.6854 44.7802 84.2318 44.7802 84.7782 44.7838C85.3283 44.7838 85.8747 44.7874 86.4247 44.7874C86.7211 44.7874 87.0176 44.7874 87.3104 44.7874C87.6176 44.7945 87.9462 44.7981 88.2747 44.7981C89.1247 44.7981 89.9819 44.7767 90.8105 44.7588C91.3641 44.7445 91.9177 44.7338 92.4712 44.7231C93.1712 44.7088 93.8641 44.6624 94.532 44.6195C95.0606 44.5838 95.5856 44.5481 96.1177 44.5302C96.6106 44.5231 97.1249 44.5195 97.6356 44.5159C98.9499 44.5052 100.307 44.4945 101.654 44.4195C101.886 44.4088 102.125 44.4016 102.361 44.3945C102.929 44.3802 103.518 44.3659 104.118 44.2695L104.129 44.2481Z" fill="white"/>
</svg>
