<svg width="14" height="14" viewBox="0 0 14 14" fill="none" xmlns="http://www.w3.org/2000/svg">
<path fill-rule="evenodd" clip-rule="evenodd" d="M7 14C10.866 14 14 10.866 14 7C14 3.13401 10.866 0 7 0C3.13401 0 0 3.13401 0 7C0 10.866 3.13401 14 7 14ZM6.93549 3.38574C6.86585 3.38574 6.78074 3.4283 6.68015 3.51341C6.59504 3.59853 6.54087 3.69138 6.51766 3.79197C6.50992 3.84613 6.50605 4.27943 6.50605 5.09188V6.25252C6.52153 7.7923 6.54474 8.60475 6.57569 8.68986C6.60664 8.73629 6.66854 8.79432 6.76139 8.86396C6.83877 8.91812 6.91228 8.9452 6.98192 8.9452C7.05155 8.9452 7.12506 8.91812 7.20244 8.86396C7.27981 8.80979 7.33011 8.75563 7.35332 8.70147C7.36879 8.65504 7.37653 8.04377 7.37653 6.86766C7.36106 5.58322 7.34558 4.73982 7.33011 4.33747C7.32237 3.98927 7.31076 3.78036 7.29529 3.71072C7.28755 3.64882 7.24886 3.58305 7.17922 3.51341C7.10959 3.4283 7.02834 3.38574 6.93549 3.38574ZM6.73818 9.6648C6.55248 9.71896 6.41707 9.84276 6.33196 10.0362C6.29327 10.1291 6.27393 10.2142 6.27393 10.2915C6.27393 10.3767 6.30101 10.4734 6.35517 10.5817C6.38612 10.6513 6.42868 10.7132 6.48284 10.7674C6.56022 10.8293 6.64146 10.8796 6.72657 10.9183C6.8349 10.9725 6.93162 10.9995 7.01673 10.9995C7.12506 10.9995 7.23726 10.9647 7.35332 10.8951C7.4926 10.8177 7.58545 10.7365 7.63187 10.6513C7.6783 10.5662 7.70151 10.4347 7.70151 10.2567C7.70151 10.1097 7.69764 10.0207 7.68991 9.98978C7.68217 9.95109 7.63961 9.89692 7.56223 9.82729C7.46165 9.7267 7.34558 9.66093 7.21404 9.62998C7.11345 9.59903 7.03995 9.58355 6.99352 9.58355L6.73818 9.6648Z" fill="#FFD60A"/>
</svg>
