<svg width="23" height="22" viewBox="0 0 23 22" fill="none" xmlns="http://www.w3.org/2000/svg">
<path d="M19.0797 1.11621H4.04966C2.63397 1.11621 1.48633 2.24156 1.48633 3.62971V18.3674C1.48633 19.7556 2.63397 20.8809 4.04966 20.8809H19.0797C20.4953 20.8809 21.643 19.7556 21.643 18.3674V3.62971C21.643 2.24156 20.4953 1.11621 19.0797 1.11621Z" stroke="white" stroke-width="1.33333" stroke-miterlimit="10" stroke-linecap="round"/>
<path d="M1.48633 13.7716L11.563 10.0913V13.1735L21.643 8.57471" stroke="white" stroke-width="1.33333" stroke-linecap="round" stroke-linejoin="round"/>
<path d="M5.09268 6.38181C5.88061 6.38181 6.51935 5.75548 6.51935 4.98288C6.51935 4.21027 5.88061 3.58398 5.09268 3.58398C4.30476 3.58398 3.66602 4.21027 3.66602 4.98288C3.66602 5.75548 4.30476 6.38181 5.09268 6.38181Z" fill="white"/>
</svg>
