<svg width="162" height="162" viewBox="0 0 162 162" fill="none" xmlns="http://www.w3.org/2000/svg">
<path d="M33.3239 114.227C33.3239 105.074 31.5411 98.4208 31.5411 89.2677C31.5411 86.3612 31.3453 78.0928 31.2979 68.9165L52.6811 53.6109L65.1607 37.5656C74.0942 37.5656 106.418 34.0008 111.766 34.0004C117.115 34.0001 125.682 33.9226 128.934 36.0904C131.434 37.7572 130.256 44.2464 130.256 46.9571C130.256 68.9812 128.935 90.5011 128.935 112.449C128.935 119.739 130.109 127.28 121.74 127.28C112.913 127.28 104.355 126.509 95.5282 126.032C82.1275 125.307 68.849 124.637 55.587 124.637C51.4072 124.637 39.9781 126.788 36.7178 124.343C35.7677 123.63 33.3239 115.352 33.3239 114.227Z" fill="#FF76B4"/>
<path d="M53.8792 53.2095C48.6592 56.0095 47.1348 57.8405 42.722 61.5599C41.6246 62.4849 33.9856 69.6478 33.1529 68.9526C30.9547 67.1172 31.0001 60.9715 31.0001 59.7143C31.0001 55.7804 31.1457 51.8387 31.396 47.9118L31.4026 47.808C31.5799 45.0226 31.7904 41.7174 33.2505 39.1606C34.0157 37.8205 36.3824 38.5101 37.9805 38.272C41.3771 37.7659 45.1826 38.1211 48.6283 38.1211C55.9009 38.1211 63.1227 38.4229 70.3822 38.4229C71.4843 38.4229 73.0708 38.1618 73.9453 38.7247C74.8468 39.3049 64.3155 46.7565 63.4226 47.3418C61.8722 48.3582 60.4824 49.1691 58.7968 50.041C57.0549 50.9419 55.6415 52.2643 53.8792 53.2095Z" fill="#FF76B4"/>
<path d="M76.8095 72.4814C79.8787 75.2777 78 73.0438 81 76.0438C82.5 77.0438 82.7851 79.1181 83 78.0438C83.5479 75.3044 86.6452 71.893 87.5102 69.25C88.5189 66.1676 92.9064 60.4446 96.5 61.0436C105.188 62.492 103 74.587 103 76.0438C103 80.6897 99.0198 83.6085 97.5 88.0438C96.0232 92.3537 91.4162 95.018 89.6821 99.18C88.5295 101.946 88.4 101.712 85.6561 100.902C79.0328 98.9447 73.2878 96.1659 68.3338 91.2869C62.073 85.121 57.9797 78.0472 59.2223 69.0381C59.7374 65.3039 64.2539 62.6043 67.5656 64.7472C71.0091 66.9754 73.7847 69.7254 76.8095 72.4814Z" stroke="#FFD3E7" stroke-width="4.5508" stroke-linecap="round"/>
</svg>
