<svg width="242" height="410" viewBox="0 0 242 410" fill="none" xmlns="http://www.w3.org/2000/svg">
<path d="M241.931 366.958C241.669 364.557 241.517 362.155 241.427 359.753C241.276 358.032 241.376 356.321 241.457 354.599C241.517 352.628 241.397 350.857 241.588 348.835C241.79 346.954 241.951 345.072 241.749 343.191C241.719 342.31 241.89 341.44 241.82 340.569C241.709 339.708 241.447 338.858 241.094 338.057C241.044 337.947 240.963 337.847 240.873 337.767C240.923 335.806 241.024 333.844 241.094 331.883C241.135 325.238 241.296 318.603 241.245 311.958C241.296 301.601 240.187 291.273 240.379 280.915C240.218 271.138 240.852 261.381 240.742 251.604C240.641 245.89 240.369 240.175 240.439 234.461C240.439 227.376 240.651 220.291 240.56 213.206C240.59 209.043 240.379 204.88 240.278 200.707C240.197 196.583 240.328 192.46 240.339 188.337C240.389 180.312 240.288 172.286 240.782 164.28C240.953 157.065 239.885 149.889 240.087 142.664C240.167 137.89 240.298 133.127 240.57 128.353C240.601 123.05 240.721 117.726 240.177 112.442C239.845 109.89 239.764 107.318 239.371 104.776C239.139 102.304 238.998 99.8225 238.313 97.4108C238.061 96.1298 237.92 94.8289 237.648 93.5579C237.386 92.3671 236.973 91.2062 236.721 90.0053C236.187 87.3934 235.401 84.6614 234.333 82.1896C233.799 80.8186 233.396 79.3775 232.66 78.0466C231.723 76.5755 231.048 74.9743 230.343 73.3931C229.114 71.0014 227.38 68.8998 226.04 66.5581C225.345 65.3672 224.468 64.2865 223.441 63.3558C222.161 62.0248 220.912 60.6638 219.602 59.3628C218.453 58.0419 217.244 56.7709 215.833 55.7102C214.211 54.2191 212.8 52.5279 211.027 51.1969C209.294 49.7758 207.409 48.5449 205.475 47.4141C204.064 46.3833 202.684 45.2925 201.142 44.4419C197.998 42.8307 194.623 41.6799 191.428 40.1688C189.635 39.178 187.559 38.9579 185.705 38.1073C184.718 37.707 183.7 37.4468 182.682 37.1466C181.393 36.6662 180.052 36.396 178.672 36.406C178.662 36.336 178.622 36.2659 178.591 36.1859C178.591 36.1759 178.591 36.1659 178.591 36.1558C178.591 36.1558 178.591 36.1558 178.581 36.1558C178.47 35.9257 178.269 35.7155 177.926 35.6154C177.946 35.3552 177.957 35.0951 178.017 34.8048C178.984 34.2845 179.972 33.3037 179.861 32.1329C179.831 31.9828 179.78 31.8327 179.72 31.6826C179.125 31.2322 178.662 30.6518 178.4 29.9613C178.38 29.9413 178.35 29.9213 178.329 29.8912C178.339 29.8912 178.36 29.8712 178.37 29.8712C178.339 29.7912 178.319 29.7211 178.299 29.6411C178.299 29.6411 178.299 29.6311 178.299 29.6211C178.219 29.4409 178.168 29.2408 178.128 29.0406C178.077 29.0406 178.027 29.0406 177.967 29.0406C177.967 29.0306 177.967 29.0206 177.967 29.0106C177.967 29.0006 177.967 28.9906 177.967 28.9806C178.108 28.9806 178.259 28.9605 178.4 28.9105C178.491 28.8805 178.571 28.8305 178.642 28.7704C179.962 28.9405 181.292 29.0206 182.612 29.1207C183.045 29.1207 183.478 29.1507 183.902 29.1207C184.456 29.0606 184.728 28.6203 184.748 28.17C187.69 26.2286 187.348 17.6523 187.428 14.9403C187.428 14.7501 187.428 14.56 187.428 14.3698C187.559 14.2498 187.66 14.1097 187.73 13.8995C187.922 13.3091 187.962 12.6886 187.952 12.0782C187.982 10.0166 188.013 7.94513 187.841 5.89363C187.952 5.7235 188.023 5.51335 188.003 5.24316C187.962 4.28245 187.348 3.54191 186.854 2.77134C186.491 2.01078 186.33 1.12013 185.745 0.469651C184.909 -0.410995 183.64 0.209459 182.592 0.249488C180.848 0.309532 179.105 0.329547 177.362 0.499672C173.614 0.589738 169.855 0.569728 166.107 0.629772C163.668 0.59975 161.23 0.659801 158.802 0.950014C157.29 1.03007 155.789 0.929992 154.277 0.879955C151.144 0.819911 148.01 0.960023 144.876 0.919993C142.337 0.859949 139.808 0.70983 137.269 0.769874C134.8 0.819911 132.331 0.609757 129.863 0.629772C125.812 0.539706 121.781 1.02006 117.741 1.32028C111.494 1.52043 105.226 1.2102 98.9789 1.37032C95.3414 1.6105 91.7039 1.55045 88.0664 1.57046C84.6606 1.64052 81.2649 2.0308 77.849 1.77061C75.0982 1.51042 72.3273 1.68054 69.5664 1.50041C67.1884 1.40033 64.8507 0.649785 62.4626 1.05008C61.6867 1.15015 60.931 1.31028 60.1552 1.37032C57.3842 1.29026 56.5076 1.77061 56.568 4.65273C56.568 5.53337 56.568 6.41402 56.5479 7.28466C56.5176 7.28466 56.4874 7.28466 56.4471 7.28466C56.4773 8.87583 56.4471 10.467 56.4874 12.0582C56.5176 12.5485 56.5378 13.0589 56.568 13.5693C56.427 15.6108 56.175 17.6623 56.3262 19.7238C56.427 22.2556 56.3967 24.7975 56.6587 27.3294C56.8199 28.25 56.5076 30.4517 57.3237 30.962H57.3439C57.3439 31.1622 57.4346 31.3623 57.6159 31.4924C58.5027 31.9127 59.5808 31.7426 60.5381 31.8527C61.2535 31.8527 61.9689 31.8827 62.6843 31.9127C62.1603 32.5232 61.9185 33.2537 62.4526 34.0943C62.9463 34.7748 63.6818 35.2552 64.2562 35.8556C64.236 35.8856 64.2058 35.9257 64.1756 35.9557C63.3997 36.1458 61.6061 36.5261 60.921 37.3167C60.6489 37.3967 60.3869 37.4668 60.1652 37.4768C57.9082 37.8471 55.4093 38.2974 53.2227 39.158C50.0487 40.5291 47.1367 42.1602 43.9022 43.5212C41.363 44.7922 38.6625 45.7529 36.1334 47.0438C32.516 49.1554 29.6242 52.2476 26.4501 54.9296C25.0495 56.1905 23.5986 57.4314 22.4499 58.9225C20.8679 61.1242 19.165 63.1656 17.3513 65.1971C15.0539 67.8691 14.1873 71.3616 12.2225 74.2538C10.6808 76.5555 9.51197 79.0673 8.27259 81.5391C7.41611 83.2303 6.63016 84.9516 6.09612 86.773C4.78621 91.2963 3.98011 95.9397 2.96241 100.523C2.48883 102.504 2.08578 104.506 1.90441 106.537C1.77342 108.329 1.38044 110.07 0.997546 111.811C0.493734 114.333 0.564269 116.905 0.463506 119.467C0.13099 123.06 0.392966 126.662 0.362738 130.265C0.362738 130.565 0.513884 130.835 0.735561 131.015C0.675104 131.075 0.644876 131.145 0.665028 131.236C0.161216 133.477 0.342592 135.829 0.322439 138.111C0.433278 144.605 0.62472 151.09 0.54411 157.585C0.503805 161.158 0.372817 164.72 0.231749 168.293C0.0906819 174.477 0.0806099 180.672 0 186.856C0.0906862 193.011 0.403047 199.155 0.564267 205.31C0.735563 214.176 0.796018 223.033 0.876628 231.899C1.15876 240.796 1.51143 249.702 1.55173 258.609C1.52151 284.068 1.41067 309.526 1.89433 334.985C1.93464 345.213 1.89433 355.44 1.91448 365.668C1.78349 373.783 2.16639 381.949 3.94989 389.895C4.52423 391.997 5.42102 394.068 6.79139 395.78C8.7361 398.311 10.3181 401.134 12.7263 403.275C16.8273 407.078 20.4447 407.348 25.6541 407.768C28.5158 408.569 31.4681 408.949 34.4305 409.179C40.6375 409.92 46.8948 409.95 53.1421 409.82C57.8779 409.86 62.7347 409.82 67.4907 409.82C71.4103 409.85 75.2796 409.95 79.2194 409.94C83.8746 409.94 88.5097 409.52 93.1649 409.38C98.6666 409.199 104.168 409.35 109.68 409.32C113.166 409.33 116.663 409.169 120.149 409.079C129.822 409.139 139.475 409.48 149.138 409.81C155.728 409.94 162.298 409.63 168.878 409.56C173.271 409.59 177.654 409.77 182.047 409.85C186.159 409.95 190.219 409.83 194.33 409.85C201.676 409.85 209.082 409.77 216.307 408.329C218.231 407.818 220.206 407.498 222.08 406.818C223.834 405.977 225.758 405.507 227.491 404.636C229.073 403.625 230.313 402.154 231.804 401.003C233.275 399.803 234.635 398.422 235.502 396.71C236.258 395.309 237.144 393.868 237.83 392.357C238.374 391.206 238.807 390.005 239.442 388.895C240.077 387.874 240.651 386.793 240.873 385.592C241.185 384.071 241.074 382.51 241.235 380.969C241.739 378.207 242.021 375.425 241.951 372.613C241.951 370.781 242.062 368.82 241.951 366.948L241.931 366.958ZM61.0117 29.9213C60.1955 29.9913 59.3088 29.9012 58.4926 30.0514C58.4926 29.9813 58.5127 29.9112 58.5127 29.8512C58.7042 27.8998 58.4724 25.9584 58.4422 24.0069C58.4422 21.4651 58.2407 18.9132 58.3515 16.3713C58.4221 15.5207 58.5127 14.6601 58.5833 13.8094C58.5027 13.8094 58.412 13.8094 58.3314 13.7994C58.553 11.918 58.5027 9.19606 58.4624 7.37472C58.4624 7.37472 58.4624 7.37472 58.4523 7.37472C58.5833 5.82359 58.4724 3.98222 58.674 3.39179C60.2862 3.41181 61.8681 3.10158 63.4702 2.94146C64.9313 2.79135 66.3621 3.17163 67.803 3.33175C70.7151 3.66199 73.6372 3.5319 76.5593 3.66199C78.4939 3.82211 80.5797 3.88216 82.5546 3.82212C86.9076 3.49187 91.2706 3.57193 95.6336 3.52189C98.0519 3.37178 100.47 3.31174 102.889 3.33175C107.372 3.25169 111.846 3.42183 116.32 3.37179C119.373 3.2517 122.396 2.90145 125.459 2.7013C128.633 2.53117 131.807 2.63124 134.971 2.74132C139.838 2.68128 144.695 3.01152 149.552 2.88142C153.522 2.7113 157.502 3.23169 161.452 2.7013C166.772 2.51116 172.102 2.64125 177.422 2.49114C179.75 2.22094 182.108 2.41108 184.415 2.02079C184.698 2.68128 184.889 3.38179 185.262 3.99224C185.413 4.22241 185.594 4.45258 185.745 4.68275C185.735 4.68275 185.725 4.68275 185.715 4.68275C185.725 4.87289 185.745 5.05302 185.766 5.24316C186.058 6.9344 185.977 8.65565 185.987 10.3669C185.967 10.6171 185.967 10.8773 185.977 11.1375C185.776 11.1375 185.564 11.1175 185.363 11.1175C185.363 11.1575 185.373 11.1975 185.373 11.2375C185.453 11.5678 185.504 11.908 185.544 12.2483C185.514 12.2383 185.483 12.2383 185.453 12.2183C185.433 14.9703 185.473 17.7323 185.342 20.4843C185.111 22.5759 184.96 24.8075 183.922 26.6789C183.801 26.859 183.65 27.0091 183.488 27.1392C182.047 27.1292 180.607 26.9691 179.166 27.1092C179.055 27.1392 178.884 27.1592 178.712 27.1692C178.662 27.1192 178.601 27.0692 178.541 27.0391C177.836 26.7289 177.019 26.9491 176.264 26.889C174.49 26.849 172.727 26.9391 170.974 27.1892C164.525 27.4594 158.076 27.5495 151.627 27.6396C146.408 28.0599 141.188 28.1199 135.959 28.2901C128.553 28.3201 121.147 28.19 113.751 28.28C110.909 28.4201 108.068 28.4101 105.226 28.5703C102.294 28.8104 99.3618 28.8205 96.4196 28.8905C92.2682 29.2107 88.0764 29.0906 83.925 29.5009C81.7083 29.6611 79.5015 29.8712 77.2949 30.0613C73.6876 30.1914 70.0803 30.0614 66.483 29.9013C66.0901 29.9213 65.6971 29.9813 65.3041 30.0313C63.8733 29.9513 62.4526 29.8412 61.0217 29.9112L61.0117 29.9213ZM239.714 377.716C239.543 379.087 239.21 380.448 239.15 381.829C239.119 383.08 239.109 384.341 238.817 385.562C238.495 386.843 237.628 387.864 237.094 389.055C236.832 389.625 236.59 390.205 236.338 390.786C235.31 392.998 234.162 395.159 232.832 397.201C231.804 398.522 230.424 399.502 229.184 400.613C228.297 401.344 227.532 402.234 226.564 402.875C224.962 403.665 223.189 404.096 221.577 404.876C213.485 407.578 204.84 407.788 196.356 407.888C192.043 407.818 187.73 407.949 183.408 407.888C175.78 407.728 168.152 407.388 160.535 407.748C151.899 408.049 143.264 407.658 134.629 407.308C128.744 407.288 122.85 406.978 116.965 407.208C108.954 407.518 100.914 407.148 92.8929 407.408C88.7516 407.538 84.6203 407.858 80.489 407.959C75.7733 407.989 71.0677 407.858 66.3521 407.838C58.8856 407.828 51.4191 407.898 43.9425 407.868C38.2796 407.688 32.6672 407.028 27.0346 406.447C26.9036 406.107 26.6013 405.827 26.1176 405.827C23.3164 405.497 20.3439 405.517 17.7342 404.316C14.3788 402.725 11.9806 399.823 9.98555 396.8C9.30037 395.78 8.54465 394.819 7.81916 393.838C6.73092 392.137 6.02559 390.226 5.62254 388.264C4.67537 383.18 4.0708 378.017 3.92973 372.853C3.88942 360.404 3.95996 347.944 3.8995 335.495C3.45615 311.248 3.49646 286.99 3.55691 262.742C3.60729 252.615 3.23447 242.497 2.89188 232.38C2.82134 224.634 2.71051 216.878 2.65005 209.133C2.51906 199.446 1.77342 189.758 2.08578 180.071C2.14624 173.937 2.18654 167.802 2.46868 161.678C2.6299 155.363 2.55936 149.049 2.34776 142.734C2.31753 140.012 2.12609 137.29 2.04548 134.568C2.00517 133.737 2.00517 132.887 1.78349 132.086C1.69281 131.756 1.49128 131.296 1.11846 131.226C1.19907 131.246 1.27968 131.276 1.36029 131.276H1.38044C1.91448 131.276 2.35784 130.805 2.35784 130.285C2.41829 128.704 2.32761 127.113 2.29738 125.531C2.25708 123.36 2.34776 121.178 2.4989 119.007C2.53921 116.585 2.55936 114.143 3.0531 111.761C3.79874 109.029 3.8592 106.187 4.38316 103.415C5.73338 97.681 6.61001 91.8066 8.40358 86.1725C10.0662 82.1195 12.0713 78.1767 14.4493 74.494C15.8298 72.2523 16.6258 69.7004 18.1171 67.5188C19.3565 65.7676 20.9384 64.3065 22.2181 62.5852C23.0645 61.4844 23.8505 60.3336 24.7775 59.2928C26.1579 57.8217 27.7097 56.5208 29.2009 55.1698C31.4379 53.2884 33.5035 51.1869 35.9319 49.5357C37.5844 48.3848 39.4989 47.7243 41.3327 46.9237C43.0356 46.1632 44.7184 45.3526 46.4213 44.592C49.8572 43.151 53.0212 40.9894 56.7091 40.1988C58.674 39.6384 60.7597 39.5784 62.644 38.7477C62.8858 38.6477 63.4602 38.3975 63.9237 38.0873C64.2159 38.0172 64.5182 37.9572 64.8003 37.8671C65.0623 37.8671 65.3243 37.767 65.5057 37.5769C65.5963 37.4868 65.6467 37.3767 65.687 37.2767C66.0599 36.8564 66.3218 36.326 66.3017 35.7655C66.2412 34.5547 64.9615 33.9542 64.2361 33.1336C64.6895 32.7633 65.2437 32.4631 65.6669 32.0528C65.8482 32.0528 66.0296 32.0728 66.2009 32.0828C66.735 32.0528 67.3698 32.1929 67.8232 31.8627C69.6268 32.0328 71.4406 32.1329 73.2543 32.1029C77.8188 32.253 82.3431 31.5525 86.8975 31.3023C89.0941 31.1622 91.4318 31.1421 93.6788 31.0921C95.5832 30.972 97.4473 30.8319 99.3719 30.862C102.596 30.862 105.811 30.4517 109.035 30.4617C115.907 30.1514 122.789 30.3416 129.661 30.3015C134.145 30.4016 138.619 30.1915 143.103 30.1314C146.277 30.0714 149.39 29.7411 152.564 29.6211C157.361 29.551 162.157 29.601 166.953 29.3308C169.069 29.2207 171.185 29.2908 173.281 28.9505C174.259 28.9005 175.236 28.9005 176.223 28.9005C176.163 29.0706 176.173 29.2207 176.233 29.3508C175.961 29.8612 175.921 30.4216 176.415 30.932C176.919 31.3823 177.493 31.7726 177.815 32.3831C177.453 33.0936 176.435 33.1936 176.173 34.0042C175.881 34.7248 175.951 35.5454 175.851 36.3059C175.83 36.6962 176.032 37.1165 176.395 37.3067C176.526 37.3967 176.677 37.4168 176.828 37.4368C176.999 37.6369 177.251 37.757 177.513 37.777C177.564 37.8071 177.614 37.8471 177.674 37.8671C178.41 38.2374 179.246 38.2374 180.042 38.3875C181.453 38.7377 182.803 39.2781 184.204 39.6684C185.776 40.3089 187.368 40.8693 189.01 41.2996C192.426 42.8307 195.892 44.2918 199.338 45.7729C201.071 46.6135 202.583 47.7744 204.135 48.9352C204.991 49.5356 205.928 49.986 206.785 50.5764C208.306 51.6072 209.777 52.718 211.158 53.9289C212.417 55.0497 213.475 56.3907 214.785 57.4614C216.407 58.6523 217.486 60.1034 218.937 61.5544C220.307 62.9355 221.597 64.3965 222.997 65.7475C224.156 67.1185 224.962 68.7497 225.99 70.2308C226.776 71.5018 227.713 72.6726 228.398 74.0036C229.184 75.7949 229.98 77.5762 231.018 79.2474C231.885 81.1088 232.479 83.0902 233.275 84.9816C234.051 87.2033 234.514 89.4049 235.059 91.7066C235.663 93.5879 235.955 95.5294 236.278 97.4708C236.792 99.5824 237.165 101.714 237.245 103.886C237.527 106.257 237.809 108.629 237.981 111.021C238.293 113.453 238.515 115.884 238.505 118.336C238.615 122.209 238.666 126.092 238.485 129.965C238.273 132.727 238.263 135.489 238.192 138.251C237.819 145.566 238.374 152.871 238.787 160.167C238.918 164.82 238.414 169.464 238.404 174.117C238.454 184.405 238.071 194.702 238.404 204.99C238.888 217.779 238.243 230.568 238.515 243.358C238.827 250.383 238.847 257.408 238.565 264.433C238.394 271.248 238.343 278.073 238.394 284.888C238.394 292.744 239.109 300.58 239.25 308.426C239.27 318.313 239.24 328.2 238.867 338.077C238.867 338.418 239.049 338.708 239.321 338.888C239.482 339.538 239.905 340.279 239.845 340.909C239.643 342.701 239.936 344.472 239.815 346.263C239.522 348.875 239.462 351.437 239.482 354.079C239.442 355.58 239.301 357.091 239.371 358.592C239.502 361.534 239.663 364.467 239.966 367.399C240.006 370.841 240.056 374.294 239.724 377.726L239.714 377.716Z" fill="#DA6A98"/>
</svg>
