<svg width="112" height="24" viewBox="0 0 112 24" fill="none" xmlns="http://www.w3.org/2000/svg">
<path fill-rule="evenodd" clip-rule="evenodd" d="M42.5474 3C41.9974 3 41.5474 3.45 41.5474 4V20C41.5474 20.55 41.9974 21 42.5474 21H110.547C111.097 21 111.547 20.55 111.547 20V4C111.547 3.45 111.097 3 110.547 3H42.5474ZM45.0474 14C45.8774 14 46.5474 13.33 46.5474 12.5C46.5474 11.67 45.8774 11 45.0474 11C44.2174 11 43.5474 11.67 43.5474 12.5C43.5474 13.33 44.2174 14 45.0474 14Z" fill="#464141"/>
<path d="M58.5073 9.08996C58.554 9.08996 58.584 9.09329 58.5973 9.09996L58.7173 9.10996C58.7573 9.10996 58.7973 9.14663 58.8373 9.21996C58.8707 9.27329 58.8907 9.35663 58.8973 9.46996V10.3C58.8907 11.0133 58.8873 11.88 58.8873 12.9V14.53L59.8273 14.56C61.2807 14.6 62.0507 14.65 62.1373 14.71C62.224 14.77 62.2673 14.8733 62.2673 15.02C62.2607 15.1733 62.2107 15.2733 62.1173 15.32C62.0907 15.34 61.8173 15.35 61.2973 15.35C60.8773 15.35 60.524 15.3466 60.2373 15.34L59.4673 15.33C59.034 15.33 58.7773 15.3266 58.6973 15.32C58.5173 15.3133 58.3907 15.29 58.3173 15.25C58.244 15.2033 58.1907 15.1533 58.1573 15.1C58.1307 15.0466 58.1173 14.6 58.1173 13.76V13.15C58.124 11.9033 58.134 11.27 58.1473 11.25C58.1607 11.2233 58.1773 10.8866 58.1973 10.24C58.2107 9.78663 58.2207 9.50663 58.2273 9.39996C58.2407 9.28663 58.2607 9.21663 58.2873 9.18996C58.3473 9.12996 58.404 9.09663 58.4573 9.08996H58.5073ZM65.1308 9.11996C65.2642 9.08663 65.4408 9.06996 65.6608 9.06996C66.1142 9.06996 66.4408 9.09996 66.6408 9.15996C66.8208 9.22663 67.0308 9.35329 67.2708 9.53996C67.5308 9.73329 67.7775 9.99996 68.0108 10.34C68.2242 10.66 68.3775 10.99 68.4708 11.33C68.5042 11.4833 68.5208 11.68 68.5208 11.92C68.5208 12.4466 68.4675 12.91 68.3608 13.31C68.2542 13.6566 68.0975 13.9666 67.8908 14.24C67.4842 14.78 66.9975 15.13 66.4308 15.29C66.3108 15.33 66.1642 15.35 65.9908 15.35C65.7108 15.35 65.4708 15.3233 65.2708 15.27C64.9508 15.15 64.6975 15.0333 64.5108 14.92C64.2842 14.7733 64.0642 14.5933 63.8508 14.38C63.6775 14.2066 63.5708 14.09 63.5308 14.03C63.4508 13.95 63.3908 13.8533 63.3508 13.74C63.1708 13.36 63.0808 12.9633 63.0808 12.55C63.0808 11.6233 63.3108 10.83 63.7708 10.17C63.8908 9.99663 63.9875 9.87329 64.0608 9.79996C64.0942 9.76663 64.2042 9.66996 64.3908 9.50996C64.5442 9.38329 64.6575 9.30329 64.7308 9.26996C64.8242 9.21663 64.9575 9.16663 65.1308 9.11996ZM63.8508 12.43C63.8508 12.69 63.8642 12.9066 63.8908 13.08C63.9242 13.2133 63.9975 13.3766 64.1108 13.57C64.2242 13.7366 64.3842 13.9 64.5908 14.06C64.8108 14.2266 65.0375 14.36 65.2708 14.46C65.3975 14.52 65.4975 14.5566 65.5708 14.57C65.6642 14.5833 65.7742 14.59 65.9008 14.59C66.0675 14.59 66.1842 14.5833 66.2508 14.57C66.3042 14.5633 66.4008 14.5233 66.5408 14.45C66.7275 14.3566 66.8642 14.2666 66.9508 14.18C67.0375 14.1133 67.1442 13.9866 67.2708 13.8C67.3842 13.64 67.4642 13.5166 67.5108 13.43C67.5442 13.3233 67.5742 13.25 67.6008 13.21C67.7075 13.0033 67.7608 12.61 67.7608 12.03C67.7608 11.7633 67.7475 11.5433 67.7209 11.37C67.6942 11.29 67.5908 11.1033 67.4108 10.81C67.1242 10.3366 66.7375 10.0033 66.2508 9.80996C66.0442 9.73663 65.8775 9.69996 65.7508 9.69996C65.5908 9.71329 65.4108 9.75663 65.2108 9.82996C64.9908 9.92329 64.7808 10.0766 64.5808 10.29C64.3675 10.5433 64.2008 10.8233 64.0808 11.13C63.9808 11.3566 63.9175 11.5533 63.8908 11.72C63.8642 11.9466 63.8508 12.1833 63.8508 12.43ZM69.5083 9.12996C69.5816 9.11663 69.6649 9.11663 69.7583 9.12996C69.8449 9.14996 69.9049 9.17663 69.9383 9.20996C69.9783 9.27663 70.0649 9.52996 70.1983 9.96996C70.2383 10.1166 70.2683 10.2033 70.2883 10.23C70.3016 10.2633 70.3383 10.3766 70.3983 10.57C70.4183 10.6366 70.4449 10.7166 70.4783 10.81C70.5116 10.8966 70.5383 10.9633 70.5583 11.01L70.8383 11.78L71.0583 12.28C71.1116 12.3866 71.1916 12.5866 71.2983 12.88L71.4683 13.33C71.4683 13.3633 71.5316 13.5033 71.6583 13.75L71.8683 14.14C71.8749 14.1466 71.8983 14.12 71.9383 14.06C71.9849 14 72.0349 13.92 72.0883 13.82L72.4783 13.1C72.5983 12.8466 72.6583 12.7033 72.6583 12.67L72.8583 12.22L73.0583 11.77C73.0583 11.7633 73.0616 11.75 73.0683 11.73C73.0816 11.71 73.0949 11.68 73.1083 11.64L73.2883 11.12C73.3549 10.92 73.4083 10.7866 73.4483 10.72L73.6983 10.1L73.8783 9.59996C73.8783 9.56663 73.9183 9.50996 73.9983 9.42996C74.0716 9.35663 74.1349 9.30996 74.1883 9.28996C74.2083 9.28329 74.2416 9.27996 74.2883 9.27996C74.3683 9.27996 74.4416 9.30329 74.5083 9.34996C74.6083 9.41663 74.6583 9.51329 74.6583 9.63996C74.6583 9.77329 74.6083 9.94663 74.5083 10.16C74.4949 10.18 74.4249 10.3533 74.2983 10.68C74.2049 10.92 74.1316 11.1033 74.0783 11.23C74.0583 11.2766 74.0316 11.3533 73.9983 11.46C73.9716 11.56 73.9349 11.68 73.8883 11.82L73.6983 12.25L73.5783 12.52L73.3783 12.96C73.2183 13.3333 73.0949 13.6 73.0083 13.76C72.6949 14.3533 72.5383 14.6733 72.5383 14.72C72.5383 14.7533 72.4983 14.8466 72.4183 15C72.3316 15.1533 72.2716 15.2466 72.2383 15.28C72.1916 15.3266 72.0916 15.35 71.9383 15.35C71.8383 15.35 71.7683 15.3433 71.7283 15.33C71.7016 15.3233 71.6483 15.28 71.5683 15.2C71.4883 15.12 71.3649 14.9133 71.1983 14.58C71.0383 14.26 70.7949 13.6833 70.4683 12.85C70.3816 12.6033 70.3149 12.43 70.2683 12.33C70.1883 12.15 70.0983 11.9233 69.9983 11.65C69.9049 11.3766 69.8449 11.2 69.8183 11.12C69.7916 11.0266 69.7449 10.8866 69.6783 10.7C69.4783 10.12 69.3616 9.72329 69.3283 9.50996V9.45996C69.3283 9.40663 69.3449 9.33996 69.3783 9.25996C69.4116 9.18663 69.4549 9.14329 69.5083 9.12996ZM77.0537 9.10996C77.2937 9.10996 77.4637 9.10663 77.5637 9.09996C77.7703 9.09996 77.9703 9.09996 78.1637 9.09996C78.3637 9.09329 78.5337 9.09329 78.6737 9.09996C78.867 9.10663 78.9937 9.14329 79.0537 9.20996C79.1203 9.26996 79.1537 9.34329 79.1537 9.42996C79.1537 9.48329 79.147 9.52329 79.1337 9.54996C79.087 9.68996 78.9937 9.77329 78.8537 9.79996C78.7403 9.81329 78.2503 9.82996 77.3837 9.84996L76.0337 9.86996L76.0537 10.67C76.067 11.21 76.077 11.4833 76.0837 11.49C76.097 11.51 76.5737 11.52 77.5137 11.52C78.467 11.52 78.9737 11.5333 79.0337 11.56C79.1337 11.6133 79.1937 11.69 79.2137 11.79V11.83C79.2137 11.9366 79.1803 12.0266 79.1137 12.1L79.0237 12.2L76.0737 12.24L76.0837 12.37L76.1337 13.54L76.1837 14.57L76.7937 14.59C77.1603 14.5966 77.657 14.58 78.2837 14.54L79.0337 14.49C79.1537 14.49 79.237 14.5033 79.2837 14.53C79.377 14.57 79.437 14.6333 79.4637 14.72C79.477 14.76 79.4837 14.8133 79.4837 14.88C79.4837 14.9933 79.447 15.0833 79.3737 15.15C79.307 15.2033 79.1403 15.24 78.8737 15.26C78.5803 15.2933 78.4337 15.31 78.4337 15.31C78.4137 15.3233 77.9503 15.3333 77.0437 15.34L75.6837 15.35L75.5637 15.23C75.5103 15.17 75.477 15.1166 75.4637 15.07C75.4437 14.9766 75.427 14.86 75.4137 14.72C75.387 14.4266 75.3703 13.4933 75.3637 11.92L75.3537 10.57L75.3637 9.85996C75.3637 9.59329 75.377 9.42996 75.4037 9.36996L75.4137 9.35996C75.467 9.24663 75.5537 9.17996 75.6737 9.15996C75.827 9.13329 76.247 9.11663 76.9337 9.10996H77.0537ZM84.8276 8.99996C84.8876 8.95996 84.9743 8.93996 85.0876 8.93996C85.2143 8.93996 85.301 8.97329 85.3476 9.03996C85.3943 9.10663 85.4176 9.17663 85.4176 9.24996C85.4176 9.34329 85.3776 9.44663 85.2976 9.55996C85.231 9.64663 85.121 9.84329 84.9676 10.15C84.781 10.5233 84.641 10.79 84.5476 10.95C84.501 11.0233 84.4443 11.1266 84.3776 11.26C84.311 11.3933 84.2576 11.5 84.2176 11.58L84.0776 11.87L83.6176 12.81C83.511 13.0233 83.4576 13.14 83.4576 13.16C83.4576 13.1733 83.7676 13.18 84.3876 13.18C85.001 13.18 85.3176 13.1633 85.3376 13.13C85.3643 13.1033 85.3843 12.83 85.3976 12.31C85.4043 11.8033 85.4276 11.5033 85.4676 11.41C85.5076 11.3366 85.5676 11.2866 85.6476 11.26C85.701 11.24 85.751 11.23 85.7976 11.23C85.8176 11.23 85.8476 11.2366 85.8876 11.25C85.9743 11.2766 86.0343 11.3433 86.0676 11.45C86.0943 11.5966 86.111 11.8733 86.1176 12.28C86.1376 12.82 86.1576 13.1033 86.1776 13.13C86.2243 13.1633 86.4076 13.18 86.7276 13.18C86.9676 13.18 87.111 13.1833 87.1576 13.19C87.231 13.1966 87.2876 13.2166 87.3276 13.25C87.3943 13.31 87.4276 13.4066 87.4276 13.54C87.4276 13.6733 87.3943 13.7733 87.3276 13.84C87.2943 13.8733 87.241 13.8966 87.1676 13.91C87.1076 13.9233 86.9543 13.9333 86.7076 13.94C86.361 13.9533 86.1743 13.9733 86.1476 14C86.121 14.04 86.1076 14.2233 86.1076 14.55V15.03C86.1076 15.1033 86.1076 15.1766 86.1076 15.25C86.1143 15.3233 86.1143 15.3866 86.1076 15.44C86.0943 15.5533 86.0776 15.6233 86.0576 15.65C85.9976 15.7366 85.901 15.78 85.7676 15.78C85.6276 15.78 85.5243 15.7366 85.4576 15.65C85.431 15.61 85.411 15.5433 85.3976 15.45C85.391 15.3966 85.3876 15.1866 85.3876 14.82C85.3876 14.3466 85.381 14.0766 85.3676 14.01C85.361 13.99 85.321 13.9733 85.2476 13.96C85.1943 13.9533 85.0276 13.95 84.7476 13.95C84.3476 13.95 83.941 13.97 83.5276 14.01C83.1143 14.05 82.8676 14.0633 82.7876 14.05C82.7143 14.0433 82.6343 13.9966 82.5476 13.91C82.4743 13.8233 82.4376 13.72 82.4376 13.6C82.4376 13.4866 82.4576 13.3866 82.4976 13.3C82.5176 13.2266 82.5943 13.08 82.7276 12.86C82.8743 12.5933 83.0443 12.2566 83.2376 11.85C83.4776 11.35 83.751 10.8233 84.0576 10.27L84.3676 9.70996C84.5543 9.32329 84.7076 9.08663 84.8276 8.99996ZM89.5032 9.06996C89.7165 9.04329 89.8765 9.02996 89.9832 9.02996C90.2432 9.02996 90.4832 9.06663 90.7032 9.13996C90.9365 9.23996 91.1599 9.38329 91.3732 9.56996C91.5999 9.75663 91.7532 9.92663 91.8332 10.08C91.8999 10.2066 91.9332 10.38 91.9332 10.6C91.9332 11.1 91.7965 11.5133 91.5232 11.84C91.4232 11.96 91.3732 12.0333 91.3732 12.06C91.3732 12.0933 91.4199 12.14 91.5132 12.2C91.6065 12.26 91.7032 12.3433 91.8032 12.45C91.9165 12.5766 92.0032 12.6833 92.0632 12.77C92.1432 12.8966 92.1999 13.0266 92.2332 13.16C92.2599 13.26 92.2732 13.4233 92.2732 13.65C92.2732 13.87 92.2565 14.0366 92.2232 14.15C92.1965 14.2433 92.1232 14.3766 92.0032 14.55C91.9299 14.67 91.7765 14.8333 91.5432 15.04C91.3365 15.24 91.1765 15.36 91.0632 15.4L90.8132 15.51C90.7132 15.5433 90.4665 15.56 90.0732 15.56C89.8599 15.56 89.7132 15.5566 89.6332 15.55C89.3265 15.5233 89.0799 15.47 88.8932 15.39C88.7199 15.3233 88.5299 15.1966 88.3232 15.01C88.1232 14.83 87.9932 14.6766 87.9332 14.55C87.8599 14.43 87.8232 14.2166 87.8232 13.91C87.8232 13.5433 87.8965 13.2133 88.0432 12.92C88.0899 12.8333 88.1699 12.71 88.2832 12.55C88.4099 12.39 88.4932 12.2933 88.5332 12.26C88.5865 12.2266 88.6065 12.1866 88.5932 12.14C88.5599 12.0866 88.5065 12.0366 88.4332 11.99C88.1332 11.73 87.9832 11.39 87.9832 10.97C87.9832 10.85 87.9999 10.7 88.0332 10.52C88.0799 10.28 88.1599 10.0733 88.2732 9.89996C88.3865 9.72663 88.5765 9.54663 88.8432 9.35996C89.0832 9.19996 89.3032 9.10329 89.5032 9.06996ZM88.5732 14.06C88.5799 14.1533 88.5999 14.22 88.6332 14.26C88.6665 14.3133 88.7332 14.3866 88.8332 14.48C88.9665 14.6066 89.0732 14.6833 89.1532 14.71C89.2199 14.75 89.3665 14.79 89.5932 14.83C89.7932 14.87 89.9532 14.89 90.0732 14.89C90.1932 14.89 90.3265 14.87 90.4732 14.83C90.6199 14.7966 90.7099 14.7666 90.7432 14.74C90.8032 14.7066 90.9032 14.6233 91.0432 14.49C91.2499 14.29 91.3765 14.1466 91.4232 14.06C91.4765 13.94 91.5032 13.7966 91.5032 13.63C91.5032 13.33 91.3999 13.08 91.1932 12.88C91.0799 12.7866 90.9499 12.7133 90.8032 12.66C90.6832 12.62 90.4865 12.5933 90.2132 12.58C89.8799 12.5666 89.6932 12.5566 89.6532 12.55C89.4799 12.5433 89.3099 12.59 89.1432 12.69C88.9899 12.7966 88.8599 12.95 88.7532 13.15C88.6265 13.3966 88.5632 13.64 88.5632 13.88C88.5632 13.96 88.5665 14.02 88.5732 14.06ZM88.7432 10.91C88.7432 11.0833 88.7699 11.2133 88.8232 11.3C88.8699 11.3933 88.9799 11.4966 89.1532 11.61C89.3599 11.7433 89.6499 11.8166 90.0232 11.83C90.2099 11.83 90.3532 11.8066 90.4532 11.76C90.5532 11.7266 90.6699 11.6466 90.8032 11.52C90.9232 11.4066 91.0099 11.2866 91.0632 11.16C91.0899 11.0866 91.1099 10.93 91.1232 10.69L91.1332 10.35L90.8332 10.07C90.6399 9.88329 90.5032 9.77329 90.4232 9.73996C90.3632 9.71329 90.2632 9.69996 90.1232 9.69996C89.8232 9.69996 89.6232 9.72329 89.5232 9.76996C89.0032 9.98996 88.7432 10.37 88.7432 10.91ZM94.942 9.14996C95.082 9.10329 95.2387 9.07996 95.412 9.07996C95.5587 9.07996 95.712 9.09996 95.872 9.13996C96.0454 9.17996 96.1754 9.21663 96.262 9.24996C96.322 9.27663 96.392 9.32663 96.472 9.39996C96.5654 9.50663 96.612 9.59996 96.612 9.67996C96.612 9.75329 96.5787 9.82329 96.512 9.88996C96.4454 9.94329 96.3754 9.96996 96.302 9.96996C96.222 9.96996 96.122 9.93996 96.002 9.87996C95.9154 9.83329 95.8454 9.80663 95.792 9.79996C95.712 9.78663 95.6054 9.77996 95.472 9.77996C95.252 9.77996 95.092 9.80329 94.992 9.84996C94.8587 9.90996 94.7254 10.0033 94.592 10.13C94.252 10.4433 94.0154 10.8666 93.882 11.4C93.8154 11.7266 93.7987 11.89 93.832 11.89C93.8587 11.89 93.8887 11.87 93.922 11.83C93.9554 11.7966 94.052 11.74 94.212 11.66C94.3454 11.6066 94.4787 11.56 94.612 11.52C94.7454 11.4933 94.9187 11.48 95.132 11.48C95.2654 11.48 95.3687 11.4833 95.442 11.49C95.7487 11.51 95.9887 11.56 96.162 11.64C96.2287 11.6733 96.2754 11.69 96.302 11.69C96.3487 11.69 96.4587 11.7766 96.632 11.95C96.812 12.1433 96.9154 12.27 96.942 12.33C97.0287 12.5166 97.0887 12.6866 97.122 12.84C97.1487 12.9533 97.162 13.1333 97.162 13.38C97.162 13.6266 97.1454 13.8166 97.112 13.95C97.0854 14.0766 97.0154 14.2366 96.902 14.43C96.7687 14.6366 96.6054 14.82 96.412 14.98C96.192 15.1866 95.992 15.3233 95.812 15.39C95.532 15.4966 95.262 15.55 95.002 15.55C94.842 15.55 94.692 15.53 94.552 15.49C94.3787 15.45 94.212 15.3866 94.052 15.3C93.9787 15.2666 93.8954 15.21 93.802 15.13C93.7087 15.05 93.6454 14.9966 93.612 14.97C93.4187 14.7766 93.2754 14.5766 93.182 14.37C93.0754 14.17 92.9987 13.8933 92.952 13.54C92.9254 13.3533 92.912 13.19 92.912 13.05C92.912 12.97 92.9187 12.8366 92.932 12.65C92.9654 12.2366 92.992 11.9966 93.012 11.93L93.052 11.76C93.0587 11.68 93.0687 11.6233 93.082 11.59C93.102 11.4766 93.1754 11.2066 93.302 10.78C93.3087 10.7466 93.3754 10.6033 93.502 10.35C93.6287 10.1233 93.7887 9.91996 93.982 9.73996C94.282 9.43996 94.602 9.24329 94.942 9.14996ZM93.712 13.46C93.712 13.5 93.7287 13.5866 93.762 13.72C93.8287 14.0266 93.962 14.2733 94.162 14.46C94.4087 14.6933 94.6887 14.81 95.002 14.81C95.3954 14.81 95.7387 14.6533 96.032 14.34C96.2054 14.1666 96.3287 13.9433 96.402 13.67C96.4354 13.5233 96.452 13.4233 96.452 13.37C96.452 13.3233 96.4354 13.2333 96.402 13.1C96.3287 12.8266 96.2654 12.6466 96.212 12.56C96.1254 12.46 96.0154 12.3833 95.882 12.33C95.7287 12.2633 95.472 12.23 95.112 12.23C94.9587 12.23 94.8554 12.2333 94.802 12.24C94.6887 12.26 94.582 12.3033 94.482 12.37C94.3954 12.4033 94.2754 12.5166 94.122 12.71C93.9687 12.8833 93.8587 13.05 93.792 13.21C93.7387 13.3166 93.712 13.39 93.712 13.43V13.46Z" fill="#867171"/>
<path d="M17.5574 12.6998C19.2874 14.2398 22.0474 15.4998 24.4874 16.1598C26.5474 16.4998 29.2774 15.9898 30.9974 15.2898C35.5574 13.4298 39.3874 11.5898 44.4074 12.1698" stroke="#7D6F6F" stroke-linecap="round"/>
<path d="M9.68744 10.7499L6.95745 10.5699C6.97745 10.4099 6.89744 10.2299 6.72744 10.1599C6.44744 10.0799 6.15745 10.1799 5.87745 10.1899C5.19745 10.2299 4.52745 10.2699 3.84745 10.3299C3.25745 10.4299 2.67744 10.5599 2.07744 10.5999C1.43744 10.7199 -0.422561 10.7099 0.0874388 11.7699C0.677439 12.4899 1.65745 12.6999 2.39745 13.2199C3.23745 13.8599 4.34744 13.8799 5.32744 14.1999C5.82744 14.3999 6.33745 14.5899 6.87745 14.6699C7.19745 14.7199 7.48745 14.8199 7.79745 14.9399C8.22745 15.0199 8.42744 14.6399 8.30744 14.3399L9.34745 14.0499L9.69744 10.7499H9.68744Z" fill="#FC5EB5"/>
<path d="M23.7574 12.9399C21.5774 12.4499 19.2974 12.8199 17.0974 12.4099C16.8274 12.3699 16.5674 12.2399 16.2974 12.2499C16.1574 12.2599 16.0774 12.3799 16.0774 12.5099L13.7674 11.8799L11.6874 15.5399L11.0674 19.5499L12.5174 22.2799C12.3774 22.4699 12.3074 22.6799 12.5174 22.9099C13.0074 23.3199 13.3874 22.6099 13.6474 22.2699C13.8674 21.9399 14.1074 21.6099 14.3974 21.3399C15.4274 20.3999 16.6074 19.7199 17.7074 18.8699C18.4074 18.3399 19.0174 17.7199 19.7274 17.2099C20.5774 16.6299 21.3674 15.9699 22.1074 15.2499C22.5574 14.8199 23.1274 14.4099 23.6374 14.0199C24.0474 13.7599 24.2674 13.2099 23.7374 12.9499L23.7574 12.9399Z" fill="#FC5EB5"/>
<path d="M17.7074 1.07996C16.9174 1.62996 16.2674 2.36997 15.4974 2.95997C14.3574 3.87997 13.1974 4.77996 12.0374 5.66996C11.2974 6.18996 10.5074 6.63997 9.79744 7.20997C8.68744 8.09997 7.70743 9.13996 6.69743 10.14C6.66743 10.17 6.64744 10.2 6.61744 10.23C6.58744 10.22 6.54744 10.21 6.50744 10.22C6.35744 10.24 6.28743 10.39 6.30743 10.53C6.26743 11.22 6.48744 11.88 6.79744 12.49C7.44744 13.78 8.08744 15.08 8.70744 16.39C9.35744 17.64 10.0274 18.88 10.6074 20.16C11.0574 21.05 11.6174 21.88 12.0974 22.76C12.0574 23.04 12.0974 23.3 12.4574 23.37C12.7474 23.42 12.9574 23.15 12.9774 22.88C13.0174 22.69 13.0774 22.41 13.1574 22.18C13.4474 21.35 13.8474 20.52 14.1374 19.68C14.3774 18.94 14.5674 18.18 14.8174 17.44C15.1174 16.48 15.5574 15.54 15.8774 14.58C16.1874 13.62 16.3874 12.55 16.6374 11.56C16.8074 10.86 17.1074 10.2 17.3874 9.53995C17.7874 8.55995 18.0474 7.53995 18.3774 6.53995C18.8274 5.34995 19.1474 4.06995 19.2674 2.78995C19.4674 1.27995 19.6374 -0.320033 17.6974 1.06997L17.7074 1.07996Z" fill="#FF76B4"/>
</svg>
