<svg width="12" height="14" viewBox="0 0 12 14" fill="none" xmlns="http://www.w3.org/2000/svg">
<path d="M11.0073 0.540003C10.8873 0.460003 10.7473 0.420003 10.5873 0.420003C10.4407 0.433337 10.3207 0.493337 10.2273 0.600003C9.96068 0.840003 9.60068 1.38667 9.14734 2.24C8.93401 2.64 8.63401 3.12667 8.24734 3.7C7.78068 4.39334 7.47401 4.83334 7.32734 5.02C7.12734 5.24667 6.90068 5.56 6.64734 5.96C6.42068 6.37333 6.30734 6.64667 6.30734 6.78C6.30734 6.94 6.39401 7.16 6.56734 7.44C6.70068 7.66667 6.88734 8.00667 7.12734 8.46C7.34068 8.87333 7.50068 9.15333 7.60734 9.3C7.70068 9.42 8.02734 10.0333 8.58734 11.14C9.26734 12.4733 9.73401 13.24 9.98734 13.44C10.0807 13.5067 10.254 13.54 10.5073 13.54C10.654 13.54 10.7673 13.5267 10.8473 13.5C10.9007 13.4867 10.9607 13.42 11.0273 13.3C11.1207 13.1667 11.1673 13.02 11.1673 12.86C11.1673 12.6733 11.1073 12.4933 10.9873 12.32C10.8407 12.0933 10.5073 11.4733 9.98734 10.46C9.42734 9.35333 9.10734 8.74667 9.02734 8.64C8.84068 8.4 8.62068 8.02 8.36734 7.5C8.14068 7.02 8.02734 6.74 8.02734 6.66C8.02734 6.59333 8.22734 6.3 8.62734 5.78C9.02734 5.22 9.30068 4.82 9.44734 4.58C9.67401 4.20667 9.82068 3.97334 9.88734 3.88C10.0073 3.69334 10.1873 3.37334 10.4273 2.92C10.6673 2.46667 10.8473 2.16 10.9673 2C11.1273 1.78667 11.214 1.51334 11.2273 1.18V1.08C11.2273 0.800003 11.154 0.620003 11.0073 0.540003ZM5.48 0.540003C5.36 0.460003 5.22 0.420003 5.06 0.420003C4.91333 0.433337 4.79333 0.493337 4.7 0.600003C4.43333 0.840003 4.07333 1.38667 3.62 2.24C3.40667 2.64 3.10667 3.12667 2.72 3.7C2.25333 4.39334 1.94667 4.83334 1.8 5.02C1.6 5.24667 1.37333 5.56 1.12 5.96C0.893335 6.37333 0.780001 6.64667 0.780001 6.78C0.780001 6.94 0.866668 7.16 1.04 7.44C1.17333 7.66667 1.36 8.00667 1.6 8.46C1.81333 8.87333 1.97333 9.15333 2.08 9.3C2.17333 9.42 2.5 10.0333 3.06 11.14C3.74 12.4733 4.20667 13.24 4.46 13.44C4.55333 13.5067 4.72667 13.54 4.98 13.54C5.12667 13.54 5.24 13.5267 5.32 13.5C5.37333 13.4867 5.43333 13.42 5.5 13.3C5.59333 13.1667 5.64 13.02 5.64 12.86C5.64 12.6733 5.58 12.4933 5.46 12.32C5.31333 12.0933 4.98 11.4733 4.46 10.46C3.9 9.35333 3.58 8.74667 3.5 8.64C3.31333 8.4 3.09333 8.02 2.84 7.5C2.61333 7.02 2.5 6.74 2.5 6.66C2.5 6.59333 2.7 6.3 3.1 5.78C3.5 5.22 3.77333 4.82 3.92 4.58C4.14667 4.20667 4.29333 3.97334 4.36 3.88C4.48 3.69334 4.66 3.37334 4.9 2.92C5.14 2.46667 5.32 2.16 5.44 2C5.6 1.78667 5.68667 1.51334 5.7 1.18V1.08C5.7 0.800003 5.62667 0.620003 5.48 0.540003Z" fill="#C9C9C9" fill-opacity="0.6"/>
</svg>
