<svg width="124" height="122" viewBox="0 0 124 122" fill="none" xmlns="http://www.w3.org/2000/svg">
<path d="M75.3125 93.5337C76.0925 92.7137 76.7525 91.7938 77.4725 90.9138C78.3825 89.8938 79.2025 88.7337 79.8225 87.5037C80.6125 86.0637 81.4025 84.5337 78.9125 85.1737C77.9025 85.4137 76.9725 85.9038 75.9725 86.1938C74.4725 86.6638 72.9625 87.1237 71.4525 87.5637C70.5125 87.8037 69.5425 87.9437 68.6125 88.2337C67.1525 88.6937 65.7725 89.3537 64.3725 89.9637C64.3725 89.9637 64.3525 89.9637 64.3425 89.9737C64.1025 89.8037 63.7825 89.7937 63.5125 89.6937C62.8125 89.4637 62.1325 89.2437 61.4225 89.0437C60.7925 88.9137 60.1625 88.8137 59.5425 88.6237C58.8625 88.4937 57.0025 87.7637 57.1025 89.0237C57.4225 89.9737 58.3125 90.5637 58.8525 91.3737C59.4425 92.3437 60.5525 92.7937 61.4025 93.4837C61.8325 93.8837 62.2625 94.2637 62.7725 94.5637C63.0725 94.7337 63.3225 94.9438 63.5825 95.1938C63.6625 95.2438 63.7325 95.2637 63.8025 95.2737C63.8525 95.8537 63.9125 96.4237 63.9525 97.0037C64.1225 98.5037 64.3125 100.014 64.3925 101.524C64.5025 102.594 64.7425 103.644 64.8725 104.704C64.7225 104.974 64.6625 105.254 65.0025 105.464C65.2325 105.594 65.4825 105.484 65.6325 105.284C65.9625 105.284 66.3425 104.984 66.6225 104.814C66.9725 104.564 67.3325 104.334 67.7425 104.174C69.1325 103.634 70.5825 103.414 72.0225 102.984C72.9225 102.724 73.7825 102.344 74.6925 102.104C75.7725 101.854 76.8225 101.494 77.8425 101.064C78.4625 100.814 79.1925 100.614 79.8425 100.434C80.3525 100.334 80.7925 99.8737 80.3625 99.4037C78.3725 98.0637 75.9425 97.5537 73.9025 96.2937C73.7125 96.1837 73.5325 96.0237 73.3425 95.9037C73.4925 95.6837 73.6425 95.4637 73.7925 95.2537C74.2325 94.6137 74.7825 94.0737 75.3225 93.5137L75.3125 93.5337ZM62.6825 93.3537C62.2925 93.0037 61.9125 92.6337 61.4725 92.3537C60.9725 92.0037 60.4325 91.7137 59.9925 91.2937C59.8925 91.1737 59.7925 91.0537 59.7025 90.9237C59.3525 90.3937 58.7925 89.8537 58.3725 89.3337C59.0025 89.4437 59.6125 89.6537 60.2325 89.7937C60.6525 89.8737 61.0925 89.9137 61.5025 90.0537C62.2225 90.2437 62.9425 90.5137 63.6825 90.6437C63.5225 91.2037 63.5025 91.7937 63.5625 92.3737C63.6125 92.9337 63.6525 93.4837 63.7025 94.0437C63.3825 93.8137 63.0125 93.6337 62.6825 93.3637V93.3537ZM73.9825 97.2637C75.5425 98.2537 77.3425 98.8137 78.9725 99.7037C78.1125 99.9337 77.2925 100.274 76.4725 100.594C75.7125 100.884 74.9225 101.064 74.1425 101.284C72.8225 101.714 71.5325 102.204 70.1725 102.494C69.1925 102.724 68.1825 102.964 67.2625 103.364C67.5525 103.054 67.8525 102.744 68.1225 102.424C68.6525 101.774 69.1325 101.084 69.6825 100.444C70.3625 99.5938 71.1625 98.8337 71.8525 97.9937C72.2425 97.5137 72.6125 96.9738 72.9825 96.4438C73.2525 96.7738 73.6425 97.0237 73.9925 97.2637H73.9825ZM71.0925 97.4237C70.4425 98.2037 69.7025 98.9038 69.0725 99.6938C68.2225 100.694 67.4325 101.894 66.4725 102.824C66.2125 103.104 65.9425 103.374 65.6925 103.664C65.5725 102.934 65.4325 102.214 65.3425 101.484C65.1925 99.1237 64.8225 96.7837 64.6425 94.4037C64.5325 93.2237 64.2525 92.0637 64.3325 90.8737C64.3325 90.8137 64.3325 90.7537 64.3325 90.6837C66.0225 90.1637 67.6425 89.3837 69.3725 88.9637C70.3225 88.7437 71.2825 88.5937 72.2225 88.3437C73.7725 87.8637 75.3525 87.4538 76.8825 86.9138C77.7625 86.6538 78.5725 86.1837 79.4925 86.0637C78.9925 87.0837 78.4625 88.1037 77.8025 89.0337C77.3125 89.6737 76.7725 90.2737 76.2725 90.9037C75.5925 91.7637 74.9225 92.6337 74.1325 93.3937C72.9225 94.5937 72.1525 96.1238 71.0825 97.4438L71.0925 97.4237Z" fill="#FF76B4"/>
<path d="M81.8721 66.3135C80.8421 66.2135 79.8021 66.3734 78.7621 66.3234C77.1921 66.2834 75.6121 66.2234 74.0421 66.1434C73.0721 66.0634 72.1121 65.8734 71.1421 65.8534C69.6121 65.8134 68.0921 65.9934 66.5621 66.1134C66.5621 66.1134 66.5421 66.1134 66.5321 66.1134C66.3621 65.8734 66.0621 65.7634 65.8421 65.5734C65.2521 65.1334 64.6821 64.7035 64.0821 64.2735C63.5321 63.9535 62.9621 63.6434 62.4421 63.2634C61.8421 62.9234 60.3221 61.6234 60.0021 62.8534C59.9921 63.8534 60.6421 64.7034 60.8921 65.6434C61.1321 66.7534 62.0321 67.5435 62.6221 68.4735C62.8921 68.9835 63.1821 69.4935 63.5621 69.9335C63.7921 70.1935 63.9621 70.4734 64.1221 70.7934C64.1821 70.8634 64.2421 70.9135 64.3021 70.9435C64.1621 71.5035 64.0321 72.0635 63.8821 72.6235C63.5521 74.1035 63.2421 75.5834 62.8321 77.0434C62.5821 78.0834 62.4721 79.1534 62.2521 80.2034C62.0221 80.4034 61.8721 80.6535 62.1221 80.9635C62.3021 81.1635 62.5721 81.1435 62.7721 81.0035C63.0721 81.1135 63.5421 80.9535 63.8521 80.8835C64.2621 80.7635 64.6821 80.6534 65.1221 80.6434C66.6121 80.5834 68.0521 80.8435 69.5521 80.9135C70.4921 80.9635 71.4321 80.8834 72.3621 80.9534C73.4621 81.0634 74.5721 81.0735 75.6821 80.9935C76.3521 80.9635 77.1021 81.0034 77.7821 81.0434C78.3021 81.1134 78.8621 80.8234 78.6121 80.2334C77.1621 78.3134 75.0321 77.0435 73.5121 75.1835C73.3621 75.0135 73.2521 74.8035 73.1121 74.6335C73.3221 74.4735 73.5321 74.3135 73.7521 74.1635C74.3721 73.7035 75.0721 73.3735 75.7621 73.0235C76.7621 72.5035 77.6921 71.8435 78.6521 71.2535C79.8421 70.5835 80.9921 69.7634 81.9821 68.7934C83.1921 67.6934 84.4421 66.5034 81.8821 66.2934L81.8721 66.3135ZM63.8621 68.7634C63.6021 68.3034 63.3721 67.8334 63.0421 67.4234C62.6821 66.9334 62.2621 66.4835 61.9921 65.9435C61.9321 65.7935 61.8821 65.6435 61.8321 65.4935C61.6721 64.8735 61.3221 64.1835 61.0921 63.5635C61.6521 63.8735 62.1621 64.2634 62.7021 64.6034C63.0721 64.8234 63.4721 64.9934 63.8221 65.2634C64.4421 65.6734 65.0321 66.1735 65.6921 66.5335C65.3521 67.0035 65.1421 67.5635 65.0121 68.1235C64.8821 68.6635 64.7421 69.2035 64.6021 69.7535C64.3721 69.4335 64.0921 69.1435 63.8621 68.7735V68.7634ZM73.2721 76.1335C74.4221 77.5735 75.9421 78.6935 77.1921 80.0635C76.3121 80.0035 75.4221 80.0635 74.5321 80.0935C73.7221 80.1235 72.9121 80.0334 72.1021 79.9834C70.7121 79.9634 69.3321 80.0034 67.9521 79.8334C66.9521 79.7334 65.9221 79.6235 64.9221 79.7135C65.3021 79.5135 65.6821 79.3234 66.0421 79.1034C66.7621 78.6634 67.4321 78.1634 68.1621 77.7334C69.0821 77.1534 70.0821 76.6935 71.0121 76.1235C71.5421 75.7935 72.0621 75.4135 72.5821 75.0235C72.7321 75.4235 73.0121 75.7835 73.2621 76.1235L73.2721 76.1335ZM79.5721 69.5734C78.9021 70.0234 78.1921 70.4135 77.5221 70.8435C76.6021 71.4435 75.6821 72.0335 74.6921 72.5035C73.1621 73.2435 71.9321 74.4434 70.4921 75.3334C69.6221 75.8534 68.7021 76.2735 67.8421 76.8135C66.7121 77.4835 65.5721 78.3534 64.3721 78.9234C64.0321 79.1034 63.6921 79.2735 63.3621 79.4635C63.4821 78.7335 63.5821 78.0035 63.7421 77.2835C64.3621 75.0035 64.7721 72.6634 65.3821 70.3634C65.6621 69.2134 65.7821 68.0234 66.2421 66.9234C66.2621 66.8634 66.2821 66.8035 66.3021 66.7435C68.0721 66.8035 69.8521 66.5935 71.6321 66.7535C72.6021 66.8535 73.5621 67.0235 74.5321 67.0935C76.1621 67.1535 77.7821 67.2734 79.4121 67.2634C80.3321 67.3034 81.2521 67.1234 82.1621 67.3034C81.3621 68.1034 80.5221 68.8935 79.5921 69.5635L79.5721 69.5734Z" fill="#FF76B4"/>
<path d="M57.7525 81.0238C57.6725 80.7638 57.4125 80.6838 57.1725 80.7238C56.9425 80.4938 56.4425 80.4638 56.1325 80.3938C55.7025 80.3338 55.2825 80.2638 54.8725 80.1038C53.4825 79.5538 52.2725 78.7338 50.9225 78.0738C50.0825 77.6438 49.1925 77.3438 48.3625 76.9038C47.4025 76.3538 46.3825 75.9038 45.3425 75.5238C44.7125 75.2838 44.0525 74.9438 43.4425 74.6338C42.9925 74.3538 42.3625 74.4038 42.3625 75.0438C42.9225 77.3838 44.3525 79.4038 45.0025 81.7138C45.0725 81.9338 45.0825 82.1638 45.1525 82.3738C44.8925 82.4338 44.6325 82.4938 44.3825 82.5438C43.6225 82.7138 42.8525 82.7338 42.0825 82.7738C40.9525 82.8538 39.8425 83.0838 38.7225 83.2338C37.3625 83.3638 35.9725 83.6638 34.6925 84.1438C33.1325 84.6638 31.5125 85.2538 33.7725 86.4738C34.6825 86.9838 35.6925 87.2538 36.6225 87.7138C38.0425 88.3838 39.4625 89.0738 40.8725 89.7738C41.7225 90.2438 42.5325 90.7938 43.4125 91.2038C44.8025 91.8538 46.2625 92.3038 47.7025 92.8038C47.7025 92.8038 47.7225 92.8038 47.7325 92.8038C47.7925 93.0938 48.0225 93.3138 48.1525 93.5738C48.5125 94.2138 48.8625 94.8438 49.2425 95.4738C49.6225 95.9938 50.0125 96.5038 50.3325 97.0538C50.7525 97.6138 51.6125 99.4138 52.4025 98.4138C52.8125 97.5038 52.5625 96.4638 52.7125 95.5038C52.9425 94.3938 52.4325 93.3038 52.2725 92.2138C52.2325 91.6338 52.1725 91.0538 52.0025 90.4938C51.8925 90.1638 51.8525 89.8338 51.8325 89.4838C51.8125 89.3938 51.7725 89.3238 51.7325 89.2738C52.0925 88.8138 52.4325 88.3538 52.7925 87.9038C53.6925 86.6838 54.5625 85.4538 55.5325 84.2838C56.1825 83.4238 56.7125 82.4938 57.3425 81.6238C57.6325 81.5338 57.8625 81.3638 57.7625 80.9838L57.7525 81.0238ZM43.5825 75.7838C44.3725 76.1938 45.2025 76.5038 46.0225 76.8238C46.7725 77.1238 47.4825 77.5238 48.2025 77.8938C49.4625 78.4738 50.7525 78.9938 51.9425 79.7038C52.8225 80.2038 53.7125 80.7138 54.6725 81.0338C54.2425 81.0638 53.8225 81.0838 53.4025 81.1338C52.5725 81.2538 51.7525 81.4338 50.9125 81.5338C49.8425 81.6938 48.7325 81.7138 47.6525 81.8538C47.0325 81.9438 46.4025 82.0838 45.7725 82.2338C45.8025 81.8038 45.6825 81.3638 45.5925 80.9538C45.1225 79.1738 44.1825 77.5338 43.5825 75.7838ZM51.8225 94.8438C51.8225 95.0038 51.8025 95.1538 51.7825 95.3138C51.6825 95.9438 51.7225 96.7138 51.6825 97.3838C51.2925 96.8738 50.9825 96.3138 50.6225 95.7838C50.3625 95.4338 50.0725 95.1138 49.8625 94.7338C49.4625 94.1038 49.1225 93.4138 48.6625 92.8138C49.1625 92.5138 49.5725 92.0938 49.9225 91.6338C50.2625 91.1838 50.6125 90.7538 50.9525 90.3038C51.0325 90.6938 51.1725 91.0738 51.2325 91.4938C51.2825 92.0138 51.3125 92.5438 51.4425 93.0538C51.5725 93.6438 51.7725 94.2238 51.8125 94.8338L51.8225 94.8438ZM54.7925 83.7438C53.3025 85.5838 51.9825 87.5538 50.5125 89.4238C49.7925 90.3638 49.2025 91.4038 48.3425 92.2238C48.3025 92.2638 48.2625 92.3138 48.2125 92.3638C46.6125 91.5938 44.9025 91.0738 43.3425 90.2038C42.4925 89.7238 41.6825 89.1738 40.8225 88.7238C39.3525 88.0138 37.9225 87.2538 36.4225 86.6138C35.6025 86.2138 34.6825 86.0038 33.9225 85.4738C34.9825 85.0638 36.0625 84.6738 37.1825 84.4438C37.9725 84.3038 38.7825 84.2338 39.5725 84.1038C40.6525 83.9238 41.7325 83.7538 42.8325 83.7238C44.5325 83.6638 46.1425 83.0638 47.8225 82.8238C48.8225 82.6938 49.8425 82.6838 50.8425 82.5338C52.1425 82.3738 53.5325 82.0338 54.8725 82.0038C55.2525 81.9738 55.6325 81.9538 56.0125 81.9238C55.6125 82.5438 55.2225 83.1638 54.7825 83.7638L54.7925 83.7438Z" fill="#FF76B4"/>
<path d="M23.1025 20.8037C20.5925 20.6437 23.0825 15.3537 23.5925 14.0737C24.2725 12.1737 25.2325 10.3437 26.7525 8.98369C27.5025 8.31369 28.2225 7.58371 29.1325 7.13371C29.6425 6.86371 30.2625 7.01369 30.5925 7.48369C31.1025 8.07369 30.4525 9.0237 29.7325 8.7437C28.5925 9.7237 27.5925 10.7037 26.7525 11.9337C25.7425 13.7337 25.0925 15.7337 24.3825 17.6737C24.2425 18.2137 24.1325 18.7637 24.1125 19.3237C24.2125 20.0137 23.8825 20.7937 23.1025 20.8037Z" fill="white"/>
<path d="M28.1727 19.3936C26.8127 19.1336 27.6527 17.4836 27.7827 16.5936C28.1027 15.3636 29.8227 11.7036 31.4227 12.3536C31.6827 12.4036 31.9727 12.4136 31.9927 12.7636C31.9927 12.9736 31.8327 13.1536 31.6227 13.1636C30.6127 13.3836 29.6327 15.9436 29.4027 16.9136C29.1127 17.7536 29.4727 19.4436 28.1827 19.4036L28.1727 19.3936Z" fill="white"/>
<path d="M101.063 101.124C102.903 100.954 101.703 105.074 101.483 106.064C101.213 107.524 100.723 108.954 99.7732 110.124C99.3132 110.694 98.8732 111.314 98.2632 111.734C97.9232 111.984 97.4632 111.954 97.1632 111.644C96.7232 111.274 97.0832 110.514 97.6432 110.634C98.3632 109.794 98.9732 108.974 99.4432 107.984C99.9732 106.564 100.213 105.034 100.503 103.554C100.543 103.144 100.563 102.734 100.503 102.324C100.353 101.834 100.503 101.234 101.063 101.134V101.124Z" fill="white"/>
<path d="M97.5528 102.724C98.5728 102.754 98.1528 104.054 98.1628 104.714C98.0728 105.644 97.2428 108.494 96.0128 108.204C95.8128 108.204 95.6028 108.224 95.5528 107.974C95.5228 107.824 95.6328 107.674 95.7828 107.644C96.4928 107.364 96.9128 105.394 96.9628 104.674C97.0728 104.034 96.6228 102.844 97.5628 102.724H97.5528Z" fill="white"/>
<path d="M92.4831 41.4834C92.4831 41.1334 92.4831 40.7734 92.4731 40.4134V40.1534C92.4731 39.6234 92.4831 39.0834 92.3931 38.5334C92.3831 38.4034 92.3731 38.2734 92.3631 38.1434C92.3531 37.9634 92.3431 37.7734 92.3231 37.5834C92.3031 37.4234 92.2731 37.2734 92.2531 37.1234C92.2231 36.9834 92.2031 36.8434 92.1831 36.7034C92.1031 35.9434 91.9631 35.2434 91.7731 34.6334C91.7531 34.5534 91.7231 34.4534 91.7031 34.3634C91.6331 34.0934 91.5631 33.8134 91.4431 33.5334V33.5034C91.2931 33.2034 91.1831 32.8734 91.0631 32.5234L91.0131 32.3734V32.3533C90.8631 31.9733 90.6831 31.6334 90.4931 31.2934C90.3531 31.0434 90.2231 30.8034 90.1131 30.5534C89.9531 30.2034 89.7431 29.8834 89.4831 29.5934C89.3931 29.4734 89.2931 29.3534 89.2031 29.2334C89.0231 29.0034 88.8431 28.7734 88.6531 28.5434C88.4231 28.2134 88.1431 27.8434 87.7831 27.5134C87.6631 27.3734 87.5531 27.2334 87.4331 27.0934C87.2131 26.8134 86.9731 26.5334 86.6931 26.2734C86.3331 25.9134 85.9131 25.5534 85.4031 25.1934L85.2431 25.0534C84.9731 24.8134 84.7031 24.5634 84.3831 24.3434C83.9531 24.0634 83.5031 23.8234 83.0831 23.5934C82.7631 23.4234 82.4231 23.2434 82.1131 23.0534C81.8431 22.8734 81.5631 22.7634 81.2931 22.6534C81.0931 22.5734 80.9131 22.5034 80.7531 22.4034C80.5331 22.2834 80.3231 22.2034 80.1331 22.1234L79.9931 22.0634C79.8231 21.9834 79.6531 21.9134 79.4831 21.8634C79.6331 21.6734 79.7231 21.4534 79.7231 21.2234V21.1934V21.1634C79.7231 21.1034 79.7031 21.0534 79.6931 21.0034C79.7631 21.0134 79.8331 21.0234 79.8931 21.0334H79.9031H79.9131H79.9831C79.9831 21.0334 80.0631 21.0534 80.1131 21.0534C80.1631 21.0534 80.2231 21.0534 80.2731 21.0634C80.5631 21.0634 80.8031 20.9034 80.9231 20.6734C81.6031 20.1234 81.8031 18.7734 81.9431 17.5334C81.9531 17.4134 81.9631 17.3134 81.9731 17.2334C81.9931 17.2034 82.0131 17.1634 82.0331 17.1234C82.1131 16.9434 82.1531 16.7534 82.1731 16.5234C82.2231 16.1034 82.2831 15.6034 82.2931 15.0934C82.3331 15.0034 82.3531 14.9134 82.3531 14.8134C82.3731 14.5034 82.2331 14.2334 82.1231 14.0434L82.0931 13.9834C82.0931 13.9834 82.0731 13.9033 82.0631 13.8533C82.0231 13.6933 81.9631 13.4834 81.8231 13.2934C81.7131 13.1534 81.5231 12.9834 81.1931 12.9534C81.0631 12.9434 80.9531 12.9534 80.8531 12.9534C80.8031 12.9534 80.7531 12.9634 80.7031 12.9534H80.4831C80.1331 12.9134 79.7731 12.8934 79.4031 12.8934C78.8831 12.8534 78.3631 12.8034 77.8431 12.7634C77.4531 12.7234 77.0631 12.6934 76.6831 12.6634C76.6131 12.6634 76.5331 12.6434 76.4431 12.6434C75.8431 12.5834 75.3331 12.5633 74.8631 12.5733C74.5931 12.5633 74.3131 12.5234 74.0431 12.4834L73.8231 12.4534C73.6731 12.4334 73.5431 12.4234 73.4031 12.4134C73.1431 12.3834 72.8831 12.3634 72.6231 12.3434C72.3631 12.3234 72.1131 12.3034 71.8531 12.2734C71.7431 12.2634 71.6331 12.2534 71.5231 12.2434C71.3531 12.2234 71.1731 12.2034 70.9931 12.1734C70.6531 12.1334 70.3131 12.0834 69.9631 12.0534C69.8631 12.0434 69.7531 12.0334 69.6531 12.0234C69.5931 12.0234 69.5331 12.0234 69.4731 12.0034C69.2231 11.9834 68.9831 11.9434 68.7331 11.9134C68.4731 11.8834 68.2131 11.8433 67.9531 11.8233H67.8531C67.7831 11.8033 67.7031 11.7934 67.6231 11.7934C66.9331 11.7234 66.2431 11.7134 65.5831 11.7134C65.3431 11.7134 65.1031 11.7134 64.8531 11.7034C64.5231 11.6834 64.1431 11.6533 63.7031 11.6033C63.3131 11.5633 62.9231 11.5234 62.5431 11.4834C62.1531 11.4434 61.7631 11.4034 61.3731 11.3634C61.0231 11.3334 60.6631 11.2934 60.3131 11.2734C59.6031 11.2534 58.9031 11.1834 58.2231 11.1134C58.0331 11.0934 57.8431 11.0734 57.6531 11.0634C57.3631 11.0434 57.0831 11.0334 56.8131 11.0134C56.4531 10.9934 56.1231 10.9834 55.7831 10.9534C55.5731 10.9334 55.3831 10.9034 55.2131 10.8734C54.8331 10.8034 54.4531 10.7634 54.0831 10.7234C53.7731 10.6934 53.4831 10.6634 53.1931 10.6134C52.9931 10.5834 52.8031 10.5434 52.6131 10.4934C52.3531 10.4334 52.0931 10.3634 51.8031 10.3334C51.6431 10.3134 51.5031 10.3134 51.3531 10.3334C51.2931 10.3334 51.2131 10.3334 51.1331 10.3434C51.0431 10.3434 50.9431 10.3533 50.8531 10.3533C50.8131 10.3533 50.7731 10.3534 50.7431 10.3434C50.4231 10.3134 50.0531 10.3134 49.7731 10.5534C49.4731 10.8034 49.4031 11.1834 49.3831 11.5334C49.3831 11.5734 49.3831 11.6134 49.3731 11.6534H49.3631L49.3031 12.1734C49.2931 12.3634 49.2731 12.5434 49.2531 12.7334C49.2331 12.9334 49.2131 13.1434 49.2031 13.3434V13.5034C49.1931 13.5634 49.1931 13.6334 49.1831 13.7034C49.1631 13.8034 49.1531 13.9034 49.1331 14.0034C49.0631 14.4034 48.9831 14.8134 48.9731 15.2434C48.9631 15.4134 48.9531 15.5934 48.9331 15.7734C48.9031 16.2134 48.8631 16.6734 48.8731 17.1234V17.1534C48.8731 17.1534 48.8731 17.2834 48.8631 17.3434C48.8431 17.6234 48.8131 17.9834 48.9831 18.2534C49.0231 18.3634 49.0831 18.4634 49.1731 18.5434L49.2031 18.5733L49.2431 18.5934C49.4731 18.7334 49.7131 18.7634 49.9131 18.7834C49.9731 18.7834 50.0231 18.7934 50.0831 18.8034C50.0831 18.9034 50.1231 19.0134 50.1731 19.1134C50.1131 19.1434 50.0531 19.1734 49.9931 19.2034H49.9831H49.9631C49.3631 19.2434 48.7231 19.3034 48.1331 19.4634C47.7231 19.5934 47.3331 19.7434 46.9631 19.8834C46.5731 20.0334 46.1631 20.1834 45.7431 20.3134H45.7231L45.7031 20.3233C45.4031 20.4433 45.0931 20.5434 44.7631 20.6434C44.4231 20.7534 44.0631 20.8634 43.7131 21.0034H43.7031L43.6931 21.0134C42.9831 21.3434 42.3731 21.7934 41.7831 22.2434C41.5431 22.4234 41.3131 22.5934 41.0731 22.7634L40.9231 22.8734C40.5831 23.1234 40.2331 23.3834 39.9231 23.7234C39.5231 24.1734 39.0931 24.6134 38.5531 25.1134C38.1431 25.5034 37.8731 25.9634 37.6131 26.4034C37.4331 26.7134 37.2531 27.0034 37.0431 27.2634C36.6631 27.7334 36.3531 28.2334 36.0531 28.7234L35.8731 29.0134C35.6531 29.3534 35.3831 29.8133 35.1731 30.3233C34.8731 31.0933 34.6231 31.8834 34.3831 32.6534C34.2831 32.9834 34.1731 33.3234 34.0631 33.6534C33.9231 34.0534 33.7531 34.5934 33.6431 35.1634C33.5831 35.5434 33.4631 35.9034 33.3431 36.2834L33.3131 36.3834C33.1531 36.9034 33.0931 37.4234 33.0331 37.9234C33.0131 38.0534 33.0031 38.1933 32.9831 38.3233C32.8631 38.9333 32.8231 39.5434 32.7731 40.1334C32.7531 40.4234 32.7231 40.7134 32.6931 41.0034C32.6831 41.1034 32.6931 41.1934 32.7231 41.2934C32.6031 41.7134 32.5631 42.1434 32.5331 42.5534C32.5231 42.6834 32.5131 42.8034 32.4931 42.9334C32.4631 43.3234 32.4331 43.7033 32.4031 44.0733C32.3131 45.2733 32.2131 46.5034 32.0831 47.7134C31.9931 48.5334 31.8831 49.3533 31.7531 50.3233C31.6331 51.3433 31.5231 52.3734 31.4131 53.3734C31.3631 53.8834 31.3031 54.3834 31.2531 54.8934C31.1731 55.7934 31.1231 56.7033 31.0731 57.5733C31.0331 58.2033 30.9931 58.8234 30.9531 59.4534C30.8031 61.3534 30.6331 63.2934 30.4631 65.1634L30.3931 65.9834L30.3131 67.1534C30.2031 68.9234 30.0831 70.7634 29.9131 72.5534L29.6731 74.9434C29.1431 80.3034 28.5931 85.8534 28.1631 91.3134C28.0231 92.8434 27.8731 94.3734 27.7231 95.9134C27.6231 96.8934 27.5331 97.8634 27.4331 98.8434C27.1631 101.233 27.1331 103.173 27.3531 104.943C27.4631 105.623 27.6731 106.193 27.9831 106.663C28.1031 106.853 28.2131 107.053 28.3231 107.253C28.6031 107.753 28.8931 108.263 29.3031 108.713C30.3031 109.853 31.3131 110.033 32.5731 110.263C33.1831 110.493 33.8531 110.673 34.7231 110.823C35.6831 111.033 36.7431 111.193 38.0431 111.323C38.4631 111.363 38.8931 111.403 39.3131 111.433C39.7131 111.473 40.1331 111.513 40.5531 111.563C40.9531 111.603 41.3431 111.643 41.7431 111.673L42.7931 111.773C43.1431 111.813 43.4931 111.853 43.8431 111.893C44.3631 111.953 44.8831 112.013 45.4131 112.063L45.6431 112.083C46.3331 112.153 47.0431 112.183 47.7131 112.213C48.1631 112.233 48.6131 112.253 49.0631 112.283C49.5231 112.313 50.0231 112.353 50.6331 112.413C50.9831 112.443 51.3331 112.483 51.6931 112.523C52.0431 112.563 52.4031 112.593 52.7531 112.633L53.0731 112.663H53.1531C53.7531 112.733 54.3631 112.773 54.9431 112.803C55.1731 112.813 55.4031 112.833 55.6331 112.853C57.8931 113.093 60.2031 113.393 62.4331 113.693L62.6531 113.723C62.9331 113.753 63.2131 113.783 63.4931 113.813C64.2731 113.893 65.0731 113.943 65.8331 114.003C66.3831 114.043 66.9431 114.083 67.4931 114.133C68.1231 114.203 68.7731 114.283 69.3931 114.363C69.8231 114.413 70.2531 114.473 70.6731 114.523C70.9731 114.563 71.2831 114.593 71.5831 114.623C71.8931 114.653 72.1931 114.683 72.5031 114.703C72.8131 114.733 73.1131 114.753 73.4231 114.783L73.6731 114.813L73.9031 114.833C75.5831 114.993 77.3831 115.143 79.1731 114.963H79.1931H79.2031C79.3631 114.933 79.5231 114.913 79.6931 114.893C80.0231 114.853 80.3531 114.803 80.6931 114.723H80.7131L80.7331 114.703C80.9231 114.633 81.1331 114.583 81.3431 114.523C81.5931 114.463 81.8531 114.393 82.1131 114.293H82.1331L82.1531 114.273C82.4331 114.133 82.6731 113.943 82.9031 113.773C83.0531 113.663 83.1931 113.553 83.3331 113.463C83.8731 113.103 84.2331 112.753 84.4931 112.343C84.5531 112.253 84.6231 112.153 84.6931 112.053C84.8531 111.813 85.0231 111.573 85.1731 111.313C85.2331 111.213 85.2931 111.113 85.3431 111.003C85.4331 110.833 85.5231 110.683 85.6231 110.533C85.8031 110.293 86.0131 109.993 86.1231 109.603C86.2031 109.353 86.2331 109.103 86.2631 108.863C86.2831 108.733 86.3031 108.593 86.3231 108.463C86.5331 107.703 86.6631 107.013 86.7131 106.343C86.7231 106.223 86.7431 106.093 86.7531 105.963C86.7931 105.633 86.8331 105.283 86.8431 104.933C86.8431 104.363 86.8531 103.793 86.8931 103.163V103.133C86.8931 102.783 86.9431 102.433 87.0031 102.063L87.0231 101.933C87.0531 101.733 87.0631 101.553 87.0831 101.373C87.1131 101.093 87.1731 100.643 87.2231 100.363C87.3031 99.9634 87.3731 99.5334 87.3731 99.0834C87.3731 99.0034 87.3931 98.9333 87.4031 98.8533C87.4231 98.7233 87.4431 98.5834 87.4531 98.4334V98.4034C87.4531 98.1534 87.3931 97.8934 87.3131 97.6334C87.3131 97.6334 87.3131 97.6334 87.3131 97.6234C87.3431 97.3634 87.3831 97.1034 87.4231 96.8434L87.4931 96.3434C87.5531 95.7134 87.6231 95.1034 87.6931 94.4834C87.8031 93.4834 87.9131 92.4534 88.0131 91.4334C88.1331 90.2234 88.2031 88.9834 88.2531 87.7934C88.3231 86.4834 88.3831 85.1234 88.5331 83.8034C88.6331 82.5634 88.7831 81.3133 88.9331 80.1033C89.0731 78.9533 89.2231 77.7733 89.3231 76.6033C89.3631 76.1333 89.3931 75.6734 89.4231 75.2034C89.4831 74.2834 89.5531 73.3234 89.6531 72.3934C89.7231 71.6934 89.7931 71.0034 89.8731 70.3134C89.9831 69.2834 90.1031 68.2234 90.1931 67.1634C90.2631 66.4734 90.3131 65.7533 90.3531 65.0733C90.3731 64.7433 90.3931 64.4134 90.4231 64.0834C90.4731 63.4334 90.5431 62.7634 90.6231 62.1134C90.6631 61.7634 90.7031 61.4134 90.7331 61.0534C90.7731 60.6434 90.8131 60.2334 90.8631 59.8134C91.0131 58.2934 91.1731 56.7134 91.4131 55.1834C91.5231 54.2734 91.5531 53.3734 91.5931 52.4934C91.6231 51.6234 91.6631 50.7134 91.7631 49.8434C91.9231 48.4334 92.0631 47.3633 92.2231 46.3533V46.3334L92.2731 45.8533C92.3931 44.7133 92.5131 43.5434 92.5131 42.3634C92.5131 42.0734 92.5131 41.8034 92.5131 41.5234L92.4831 41.4834ZM50.2631 16.7734C50.2631 16.6334 50.2731 16.4834 50.2931 16.3434C50.3131 16.1034 50.3331 15.8434 50.3531 15.5934C50.3731 15.2134 50.4031 14.8534 50.4531 14.5034C50.4731 14.4134 50.4931 14.3034 50.5131 14.2034C50.5331 14.1034 50.5531 14.0034 50.5731 13.9034L50.6631 13.3734H50.5931C50.6431 13.0134 50.6731 12.6234 50.6931 12.2634C50.7231 12.1034 50.7431 11.9334 50.7531 11.7934C50.7531 11.7934 50.7531 11.7734 50.7531 11.7634C50.9031 11.7634 51.0431 11.7634 51.1931 11.7634C51.3031 11.7634 51.4231 11.7634 51.5331 11.7634C51.5731 11.7634 51.6131 11.7634 51.6531 11.7634C51.8131 11.7834 51.9731 11.8234 52.1531 11.8634C52.2631 11.8934 52.3631 11.9234 52.4731 11.9434C52.9431 12.0434 53.4231 12.0934 53.8831 12.1434C54.1331 12.1734 54.3831 12.1934 54.6331 12.2334C54.9731 12.2934 55.3531 12.3534 55.7331 12.3834C55.8631 12.3934 56.0031 12.4034 56.1331 12.4134C56.9531 12.4334 57.7631 12.5034 58.5531 12.5834C58.8131 12.6034 59.0631 12.6334 59.3231 12.6534C59.8631 12.6734 60.3931 12.7134 60.9031 12.7634L61.0931 12.7834C61.3131 12.8034 61.5231 12.8234 61.7331 12.8434C62.1031 12.8834 62.4731 12.9234 62.8531 12.9634C63.2331 13.0034 63.6031 13.0434 63.9831 13.0834C64.1131 13.0934 64.2531 13.1134 64.3831 13.1234C64.8631 13.1534 65.3331 13.1534 65.7831 13.1634C66.0731 13.1634 66.3631 13.1634 66.6531 13.1834C66.9131 13.1934 67.1931 13.2134 67.5131 13.2434C67.9931 13.2934 68.4931 13.3534 68.9231 13.4134C69.0531 13.4234 69.1531 13.4334 69.2531 13.4434C69.6931 13.4834 70.1431 13.5434 70.5731 13.5934C71.0131 13.6434 71.4631 13.7034 71.9131 13.7434C72.1131 13.7634 72.3031 13.7834 72.5031 13.7934C72.6531 13.7934 72.8031 13.8133 72.9431 13.8233C73.1731 13.8433 73.4031 13.8734 73.6331 13.9034C73.8731 13.9334 74.1131 13.9634 74.3431 13.9834C74.7631 14.0234 75.1131 14.0334 75.4331 14.0234C76.1031 14.0634 76.7931 14.1334 77.4631 14.1934C78.0631 14.2534 78.6931 14.3033 79.3031 14.3533H79.3231H79.3431C79.5731 14.3533 79.8031 14.3634 80.0531 14.3834C80.2631 14.3934 80.4631 14.4134 80.6831 14.4134C80.7031 14.4834 80.7331 14.5534 80.7731 14.6334C80.7931 14.6634 80.8031 14.6934 80.8131 14.7134C80.8131 14.7234 80.8131 14.7434 80.8131 14.7534C80.8331 15.0534 80.8131 15.3434 80.7731 15.6434L80.5531 15.6234L80.5731 16.1934V16.2734C80.5731 16.2734 80.5731 16.2934 80.5731 16.3134V16.4034C80.5431 16.5934 80.5231 16.7834 80.5031 16.9734C80.4531 17.4434 80.4131 17.9234 80.3431 18.3934L80.3131 18.5234C80.2331 18.9034 80.1631 19.2534 80.0131 19.5534C79.9931 19.5534 79.9631 19.5534 79.9431 19.5534C79.8031 19.5334 79.6731 19.5134 79.5331 19.5034C79.4131 19.4934 79.2931 19.4834 79.1931 19.4834C79.0531 19.4134 78.9131 19.3934 78.8231 19.3834C78.7731 19.3834 78.7231 19.3834 78.6831 19.3834C78.6531 19.3834 78.6231 19.3834 78.5831 19.3834C78.5731 19.3834 78.5631 19.3834 78.5431 19.3834H78.5231H78.5031C78.4331 19.3834 78.3631 19.3634 78.2931 19.3634C77.9031 19.3234 77.5231 19.3134 77.1431 19.3334C75.5831 19.2434 73.9931 19.1134 72.4531 18.9834H72.4331H72.4131C71.4331 18.9634 70.4431 18.8934 69.4831 18.8334C69.1931 18.8134 68.8931 18.7934 68.6031 18.7734C68.4131 18.7534 68.2131 18.7334 68.0131 18.7134C67.4431 18.6534 66.8731 18.6034 66.3031 18.5434C65.7331 18.4834 65.1531 18.4234 64.5831 18.3734C64.1231 18.3334 63.6631 18.2834 63.2031 18.2434C62.8631 18.2234 62.5431 18.2034 62.2131 18.1834C61.8431 18.1534 61.4731 18.1334 61.0931 18.1134C60.5131 18.1134 59.9331 18.0634 59.3731 18.0134L58.9531 17.9834H58.9431H58.9331C58.4831 17.9834 58.0131 17.9434 57.5631 17.9134C57.0031 17.8734 56.4331 17.8334 55.8531 17.8334C55.4831 17.8334 55.1131 17.8234 54.7331 17.8134H54.2331C54.0131 17.7934 53.7631 17.7734 53.5231 17.7534C52.8931 17.6934 52.2531 17.6034 51.6631 17.5234H51.6431H51.6131C51.5231 17.5234 51.4231 17.5234 51.3331 17.5234L51.2231 17.5034C51.0031 17.4734 50.7831 17.4334 50.5531 17.4134C50.4631 17.4134 50.3731 17.3934 50.2831 17.3934C50.2531 17.3934 50.2331 17.3934 50.2131 17.3934C50.2331 17.2134 50.2331 17.0233 50.2431 16.8533L50.2631 16.7734ZM91.0031 41.9334C91.0231 42.6034 91.0031 43.1634 90.9531 43.6734C90.8931 44.5234 90.8131 45.5134 90.6731 46.5034C90.5831 47.0234 90.5231 47.5634 90.4531 48.0834L90.3931 48.5434C90.1631 50.0934 90.1031 51.6734 90.0431 53.2034L90.0131 53.9734C89.9731 54.5934 89.8731 55.2334 89.7831 55.8634C89.7131 56.3534 89.6331 56.8534 89.5831 57.3634C89.4931 58.3334 89.3831 59.3034 89.2831 60.2534C89.1131 61.7934 88.9431 63.3834 88.8431 64.9634C88.7431 66.6834 88.5531 68.4334 88.3731 70.1234C88.2231 71.5134 88.0631 72.9534 87.9631 74.3834C87.8731 76.1134 87.7031 77.8334 87.4731 79.5334C87.2731 81.1334 87.1031 82.7833 86.9431 84.5733C86.8431 85.6533 86.7831 86.7534 86.7331 87.8134C86.6931 88.6534 86.6531 89.5234 86.5831 90.3834C86.3231 93.0734 86.0931 95.3334 85.7831 97.6234C85.7631 97.8034 85.8031 97.9734 85.9031 98.1234C85.9031 98.1534 85.9131 98.1734 85.9231 98.2034C85.9331 98.2434 85.9531 98.3034 85.9531 98.3334C85.9031 98.5934 85.8831 98.8434 85.8731 99.0934C85.8631 99.2834 85.8531 99.4734 85.8231 99.6434C85.7031 100.193 85.6231 100.803 85.5531 101.593C85.5431 101.693 85.5231 101.813 85.5031 101.923C85.4631 102.173 85.4231 102.443 85.4131 102.713C85.3831 103.353 85.3431 104.123 85.3431 104.893V104.953C85.2731 105.743 85.2031 106.563 85.0431 107.343C85.0231 107.443 84.9931 107.563 84.9531 107.673C84.8931 107.893 84.8331 108.123 84.7931 108.363V108.423C84.7531 108.693 84.7231 108.953 84.6431 109.183C84.6031 109.303 84.5131 109.423 84.4131 109.563C84.3331 109.673 84.2531 109.783 84.1831 109.913C84.1331 109.993 84.0831 110.083 84.0331 110.173L83.9531 110.323C83.6431 110.853 83.3331 111.313 83.0031 111.733C82.8431 111.903 82.6331 112.053 82.4031 112.203C82.3031 112.273 82.2031 112.343 82.1031 112.413C82.0231 112.473 81.9231 112.543 81.8331 112.613C81.7131 112.703 81.6031 112.793 81.5031 112.853C81.3331 112.913 81.1431 112.963 80.9431 113.013C80.7331 113.063 80.5231 113.123 80.3031 113.193C78.2731 113.653 76.0531 113.463 74.2631 113.313C74.0431 113.293 73.8131 113.263 73.5831 113.243C73.2731 113.213 72.9631 113.183 72.6531 113.153C72.3431 113.123 72.0331 113.093 71.7231 113.063C71.5231 113.043 71.3231 113.023 71.1131 113.003C70.7231 112.953 70.3331 112.913 69.9531 112.863C69.0931 112.753 68.2031 112.643 67.3231 112.563C66.6631 112.503 66.0731 112.453 65.5131 112.423C65.0131 112.393 64.5031 112.353 63.9431 112.293C62.4731 112.153 60.9731 111.943 59.5331 111.743L59.2531 111.703C58.7331 111.653 58.2231 111.593 57.7131 111.533C57.1731 111.473 56.6131 111.403 56.0531 111.353C55.6331 111.313 55.2531 111.283 54.9031 111.263C54.3331 111.233 53.7131 111.183 52.9131 111.103C52.5631 111.073 52.2131 111.033 51.8631 110.993C51.5131 110.953 51.1631 110.923 50.8031 110.883C50.1031 110.813 49.5431 110.773 49.0231 110.733C48.5631 110.703 48.1031 110.683 47.6331 110.663C47.0931 110.643 46.5331 110.613 45.9831 110.573C45.8731 110.563 45.7431 110.553 45.6231 110.543C45.0831 110.493 44.5531 110.433 44.0131 110.373C43.5231 110.323 43.0331 110.263 42.5531 110.213L42.0831 110.163C41.4031 110.093 40.7231 110.033 40.0431 109.973C39.3631 109.913 38.6831 109.843 38.0031 109.783C37.7031 109.753 37.4031 109.723 37.0931 109.693C35.9431 109.543 34.7531 109.303 33.6131 109.063L33.2531 108.993C33.1431 108.873 32.9931 108.793 32.8231 108.773C32.6731 108.743 32.5231 108.713 32.3731 108.683C31.8631 108.583 31.3731 108.493 30.9831 108.263C30.2531 107.823 29.7931 107.053 29.4631 106.433C29.3431 106.213 29.2231 106.003 29.1031 105.803L29.0031 105.643C28.8231 105.283 28.7031 104.863 28.6631 104.413C28.5531 103.113 28.5331 101.853 28.6231 100.673C28.7631 99.2034 28.9031 97.7134 29.0531 96.2334C29.2031 94.6634 29.3631 93.0834 29.5131 91.5134C29.9931 85.3734 30.6231 79.1434 31.1731 73.6434C31.4031 71.3834 31.5531 69.0833 31.6931 66.8533L31.7331 66.1534C31.8131 65.2334 31.8931 64.3034 31.9731 63.3634C32.0531 62.3934 32.1431 61.4234 32.2231 60.4534C32.2931 59.5734 32.3531 58.6734 32.4031 57.8034C32.4931 56.3234 32.5831 54.8033 32.7731 53.3233L32.7931 53.1634C32.9431 51.7334 33.1031 50.2633 33.3131 48.8233C33.4931 47.3533 33.6331 45.8234 33.7431 44.1334C33.7731 43.7534 33.7931 43.3534 33.8131 42.9634C33.8231 42.6834 33.8431 42.4034 33.8631 42.1234V42.0234C33.8731 41.8634 33.8931 41.6834 33.8631 41.4934C33.9631 41.3834 34.0231 41.2334 34.0331 41.0834C34.0731 40.8134 34.0931 40.5134 34.1131 40.2334C34.1131 40.1234 34.1231 40.0134 34.1331 39.9034C34.1731 39.4334 34.2331 38.9433 34.3331 38.3533V38.3233V38.2634C34.4031 37.7034 34.4631 37.1634 34.6231 36.6634C34.7831 36.2434 34.8731 35.8134 34.9631 35.4034C35.0231 35.1334 35.0831 34.8734 35.1531 34.6234C35.3131 34.1634 35.4531 33.6834 35.6031 33.2134C35.8731 32.3334 36.1531 31.4134 36.5231 30.5634C37.0331 29.5934 37.6031 28.7134 38.2231 27.9334C38.4231 27.6634 38.5831 27.3934 38.7431 27.1334C38.9131 26.8434 39.0831 26.5633 39.2831 26.3233C39.4431 26.1433 39.6231 25.9634 39.8231 25.7834C40.0131 25.6134 40.2031 25.4334 40.3831 25.2234C40.4531 25.1534 40.5231 25.0634 40.6031 24.9834C40.7531 24.8134 40.9031 24.6534 41.0631 24.5034C41.3231 24.2734 41.6031 24.0634 41.9031 23.8434C42.0031 23.7734 42.0931 23.7034 42.1931 23.6334C42.3731 23.5034 42.5631 23.3634 42.7631 23.2234C43.1531 22.9334 43.5231 22.6634 43.9131 22.4434C44.2031 22.2734 44.5331 22.1734 44.8831 22.0634C44.9931 22.0334 45.0931 21.9934 45.2031 21.9634C45.4231 21.8834 45.6431 21.8134 45.8631 21.7334C46.0731 21.6534 46.2931 21.5834 46.5031 21.5134C46.8131 21.4134 47.1231 21.2934 47.4231 21.1734C47.9631 20.9634 48.4831 20.7634 49.0131 20.6934H49.0331H49.0531C49.2231 20.6634 49.4031 20.6434 49.5931 20.6334C49.9231 20.6034 50.2531 20.5734 50.6031 20.4634C50.6631 20.4434 50.7931 20.4034 50.9231 20.3434C50.9631 20.3434 51.0031 20.3333 51.0431 20.3233C51.2131 20.3233 51.3731 20.2634 51.5031 20.1534C51.5631 20.1034 51.6031 20.0534 51.6331 20.0134C51.8031 19.8334 51.9031 19.6134 51.9131 19.3834C51.9131 19.2234 51.8831 19.0834 51.8331 18.9634C51.8631 18.9634 51.8931 18.9634 51.9231 18.9434C52.2931 19.0134 52.6431 19.0634 52.9931 19.0934C53.0531 19.0934 53.1031 19.1034 53.1631 19.1134C53.2531 19.1234 53.3531 19.1334 53.4631 19.1434C54.1131 19.2034 54.7631 19.2134 55.3831 19.2134C55.7531 19.2134 56.1431 19.2134 56.5231 19.2334C56.9231 19.2434 57.3431 19.2834 57.7631 19.3134L58.1731 19.3434H58.3631C58.7231 19.3634 59.0631 19.3734 59.4131 19.4034H59.5431V19.4134C59.9631 19.4534 60.3631 19.4634 60.7531 19.4834C61.1431 19.4934 61.5131 19.5134 61.8831 19.5434H61.9131C62.8031 19.5934 63.6531 19.6734 64.3031 19.7334C64.6531 19.7634 64.9931 19.8034 65.3431 19.8334C65.6931 19.8734 66.0431 19.9034 66.3931 19.9434C66.5831 19.9634 66.7731 19.9834 66.9531 19.9934C67.1431 20.0134 67.3531 20.0434 67.5631 20.0634C68.1031 20.1134 68.6531 20.1534 69.1731 20.1934C69.5231 20.2234 69.8831 20.2434 70.2331 20.2734C70.6831 20.3034 71.1231 20.3234 71.5531 20.3334C71.8931 20.3334 72.2231 20.3534 72.5631 20.3734C72.8731 20.4034 73.2031 20.4234 73.5331 20.4534C74.3731 20.5234 75.2331 20.6034 76.0931 20.6434C76.2431 20.6434 76.3931 20.6634 76.5431 20.6734C76.9031 20.7034 77.2831 20.7234 77.6631 20.7034C77.7131 20.7034 77.7731 20.7034 77.8231 20.7034C77.8431 20.8234 77.8931 20.9434 77.9831 21.0534C77.9131 21.1134 77.8531 21.1934 77.8031 21.3034C77.7131 21.4834 77.6831 21.6634 77.6631 21.8134C77.6631 21.8634 77.6431 21.9134 77.6331 21.9634V21.9834V22.0034C77.5931 22.2834 77.7131 22.5734 77.9331 22.7334C77.9731 22.7634 78.0231 22.7934 78.0631 22.8134C78.1231 22.8634 78.2031 22.9034 78.2831 22.9334C78.4731 23.0434 78.6531 23.0934 78.8131 23.1234C78.8531 23.1334 78.9031 23.1434 78.9431 23.1534C79.1131 23.2134 79.2731 23.2834 79.4431 23.3634C79.5831 23.4234 79.7231 23.4934 79.8731 23.5434C80.2731 23.7534 80.6431 23.9234 81.0031 24.0534C81.6331 24.4134 82.2831 24.7734 82.9031 25.1134L83.3831 25.3834C83.7031 25.5834 84.0031 25.8534 84.3131 26.1434L84.3731 26.2034C84.5031 26.3134 84.6131 26.4034 84.7331 26.4834C84.8231 26.5534 84.9131 26.6134 85.0031 26.6834C85.3631 26.9834 85.6631 27.2733 85.9431 27.5733C86.0531 27.6933 86.1631 27.8234 86.2731 27.9734C86.4231 28.1634 86.5731 28.3634 86.7631 28.5434V28.5634C86.9731 28.7534 87.1331 28.9734 87.3231 29.2134C87.4231 29.3434 87.5231 29.4734 87.6331 29.6134C87.7631 29.7734 87.8931 29.9333 88.0131 30.1033C88.1731 30.3133 88.3331 30.5234 88.5131 30.7334C88.6431 30.9234 88.7431 31.1434 88.8531 31.3734C88.9331 31.5334 89.0031 31.6834 89.0931 31.8334C89.1531 31.9634 89.2231 32.0834 89.2931 32.2134C89.3931 32.4034 89.4931 32.5734 89.5631 32.7534C89.7031 33.1834 89.8531 33.6534 90.0831 34.1234C90.1731 34.3734 90.2331 34.6334 90.3031 34.9034C90.3531 35.1134 90.4131 35.3234 90.4731 35.5234C90.5831 35.9634 90.6331 36.4134 90.7031 36.8734L90.7431 37.1434V37.1634V37.1834C90.8331 37.5734 90.8531 37.9834 90.8831 38.4134V38.5534L90.8931 38.5733V38.5934C90.9731 39.1534 91.0031 39.6434 90.9731 40.0934V40.1134V40.1334C90.9831 40.6734 91.0031 41.2834 90.9731 41.8734V41.9034L91.0031 41.9334Z" fill="white"/>
</svg>
