<svg width="184" height="48" viewBox="0 0 184 48" fill="none" xmlns="http://www.w3.org/2000/svg">
<path fill-rule="evenodd" clip-rule="evenodd" d="M82 14C81.4477 14 81 14.4477 81 15V31C81 31.5523 81.4477 32 82 32H150C150.552 32 151 31.5523 151 31V15C151 14.4477 150.552 14 150 14H82ZM84.5 25C85.3284 25 86 24.3284 86 23.5C86 22.6716 85.3284 22 84.5 22C83.6716 22 83 22.6716 83 23.5C83 24.3284 83.6716 25 84.5 25Z" fill="#464141"/>
<path d="M97.8646 19.72C97.9179 19.6733 97.9912 19.65 98.0846 19.65C98.1646 19.6567 98.2312 19.6867 98.2846 19.74C98.3379 19.7933 98.3746 19.84 98.3946 19.88C98.4146 19.9133 98.4312 20.3567 98.4446 21.21L98.4646 22.49L99.0046 22.51C99.3579 22.5233 99.5646 22.5433 99.6246 22.57C99.7312 22.63 99.7846 22.7133 99.7846 22.82C99.7846 23.0067 99.6912 23.1367 99.5046 23.21C99.4446 23.2367 99.2946 23.25 99.0546 23.25C98.8346 23.25 98.6746 23.2667 98.5746 23.3L98.4446 23.35V24.07C98.4446 24.45 98.4279 24.9133 98.3946 25.46C98.3679 25.8667 98.3312 26.12 98.2846 26.22C98.2446 26.2933 98.1546 26.33 98.0146 26.33C97.9212 26.33 97.8346 26.3167 97.7546 26.29C97.7146 26.2633 97.6779 26.22 97.6446 26.16C97.6046 26.0933 97.5846 25.9833 97.5846 25.83L97.6146 24.96C97.6146 24.86 97.6212 24.6567 97.6346 24.35C97.6546 23.5567 97.6646 22.6533 97.6646 21.64C97.6646 20.7667 97.6746 20.2467 97.6946 20.08C97.7012 19.92 97.7579 19.8 97.8646 19.72ZM92.3346 24.74C92.3346 24.6267 92.3646 24.5167 92.4246 24.41C92.4712 24.31 92.5879 24.14 92.7746 23.9L93.1346 23.4C93.2479 23.2133 93.3846 23.0033 93.5446 22.77C93.7246 22.4833 93.8379 22.24 93.8846 22.04C93.9312 21.84 93.9646 21.4533 93.9846 20.88C93.9979 20.48 94.0179 20.2367 94.0446 20.15C94.0646 20.05 94.1246 19.9767 94.2246 19.93C94.2779 19.9033 94.3346 19.89 94.3946 19.89C94.4679 19.89 94.5346 19.92 94.5946 19.98L94.7046 20.09V20.64C94.7046 21.0467 94.6912 21.3733 94.6646 21.62C94.6579 21.9067 94.6579 22.06 94.6646 22.08C94.6779 22.1067 94.8112 22.2567 95.0646 22.53L95.5446 23.06C95.7046 23.26 95.9212 23.5067 96.1946 23.8C96.3612 23.9733 96.4779 24.14 96.5446 24.3C96.5912 24.4133 96.6146 24.4967 96.6146 24.55C96.6146 24.5967 96.6046 24.6367 96.5846 24.67C96.5579 24.7233 96.4979 24.7767 96.4046 24.83C96.3446 24.8567 96.2946 24.87 96.2546 24.87C96.2346 24.87 96.1912 24.8533 96.1246 24.82C96.0379 24.7667 95.8979 24.6267 95.7046 24.4L95.1746 23.78L94.6646 23.22C94.4846 23.0067 94.3779 22.9067 94.3446 22.92C94.3046 22.9333 94.2012 23.0867 94.0346 23.38C93.8812 23.6467 93.7479 23.8633 93.6346 24.03C93.5679 24.13 93.4679 24.29 93.3346 24.51C93.2346 24.6833 93.1279 24.8267 93.0146 24.94C92.9546 25 92.9046 25.0433 92.8646 25.07C92.8379 25.09 92.7846 25.1 92.7046 25.1C92.6046 25.1 92.5179 25.0733 92.4446 25.02C92.3979 24.9933 92.3679 24.96 92.3546 24.92C92.3412 24.88 92.3346 24.82 92.3346 24.74ZM104.979 19.47C105.039 19.4367 105.095 19.4133 105.149 19.4C105.189 19.4 105.242 19.42 105.309 19.46C105.382 19.5 105.422 19.5633 105.429 19.65C105.449 19.8167 105.462 20.0833 105.469 20.45C105.482 20.9167 105.502 21.1667 105.529 21.2C105.562 21.2333 105.749 21.25 106.089 21.25C106.442 21.25 106.662 21.2733 106.749 21.32C106.842 21.3733 106.889 21.48 106.889 21.64C106.889 21.72 106.865 21.7933 106.819 21.86L106.739 21.96L106.169 21.95H106.039C105.745 21.9367 105.575 21.96 105.529 22.02C105.475 22.0867 105.449 22.3033 105.449 22.67V22.83C105.449 23.19 105.445 23.3967 105.439 23.45C105.425 23.53 105.402 23.5933 105.369 23.64C105.322 23.7 105.232 23.73 105.099 23.73C104.959 23.73 104.862 23.7 104.809 23.64C104.749 23.5867 104.709 23.4767 104.689 23.31C104.675 23.1567 104.675 23.0233 104.689 22.91C104.715 22.7833 104.732 22.2367 104.739 21.27C104.759 20.47 104.779 19.9833 104.799 19.81C104.819 19.6433 104.879 19.53 104.979 19.47ZM100.079 22.31C100.079 21.8033 100.092 21.4967 100.119 21.39C100.152 21.2633 100.222 21.1767 100.329 21.13C100.409 21.09 100.805 21.07 101.519 21.07C102.219 21.07 102.595 21.0533 102.649 21.02C102.695 20.9933 102.729 20.8733 102.749 20.66C102.755 20.6133 102.759 20.5533 102.759 20.48C102.759 20.38 102.745 20.32 102.719 20.3C102.692 20.2667 102.292 20.2467 101.519 20.24C100.925 20.2333 100.552 20.2167 100.399 20.19C100.272 20.17 100.189 20.11 100.149 20.01C100.135 19.97 100.129 19.94 100.129 19.92C100.129 19.8933 100.135 19.86 100.149 19.82C100.182 19.74 100.225 19.6867 100.279 19.66C100.325 19.6333 100.505 19.62 100.819 19.62C101.005 19.62 101.142 19.6167 101.229 19.61L102.399 19.6C102.912 19.6 103.195 19.6133 103.249 19.64C103.389 19.7133 103.479 19.82 103.519 19.96C103.539 20.0467 103.549 20.17 103.549 20.33C103.549 20.4033 103.542 20.54 103.529 20.74C103.509 21.02 103.475 21.22 103.429 21.34C103.382 21.4667 103.312 21.5567 103.219 21.61C103.072 21.69 102.625 21.73 101.879 21.73C101.372 21.73 101.082 21.7367 101.009 21.75C100.915 21.77 100.859 21.82 100.839 21.9C100.832 21.9133 100.829 21.9633 100.829 22.05C100.829 22.17 100.832 22.2733 100.839 22.36L100.879 22.72H102.119C102.959 22.72 103.389 22.7233 103.409 22.73C103.462 22.7367 103.512 22.7767 103.559 22.85C103.612 22.9233 103.639 22.9933 103.639 23.06C103.625 23.2067 103.569 23.3067 103.469 23.36C103.409 23.3933 102.875 23.4133 101.869 23.42L100.339 23.45L100.079 23.17V22.31ZM100.969 25.37C100.969 25.19 100.979 25.08 100.999 25.04C101.025 25.0067 101.065 24.9233 101.119 24.79C101.185 24.6567 101.259 24.55 101.339 24.47C101.399 24.41 101.509 24.3267 101.669 24.22C101.822 24.1267 101.935 24.07 102.009 24.05C102.062 24.0433 102.115 24.0233 102.169 23.99C102.322 23.93 102.575 23.88 102.929 23.84C103.102 23.8267 103.239 23.82 103.339 23.82C103.539 23.82 103.779 23.8367 104.059 23.87C104.459 23.93 104.759 24.0133 104.959 24.12C105.059 24.1733 105.179 24.2667 105.319 24.4C105.452 24.54 105.545 24.66 105.599 24.76C105.659 24.8667 105.689 25.0233 105.689 25.23C105.675 25.4567 105.639 25.6333 105.579 25.76C105.512 25.8933 105.392 26.0267 105.219 26.16C104.839 26.4467 104.265 26.59 103.499 26.59C102.965 26.59 102.419 26.5067 101.859 26.34C101.532 26.2333 101.299 26.11 101.159 25.97C101.032 25.8433 100.969 25.6433 100.969 25.37ZM101.819 25.59C101.952 25.71 102.305 25.7967 102.879 25.85C103.119 25.87 103.332 25.88 103.519 25.88C103.885 25.88 104.172 25.8433 104.379 25.77C104.505 25.7233 104.619 25.6533 104.719 25.56C104.819 25.46 104.869 25.36 104.869 25.26C104.869 25.0933 104.825 24.9567 104.739 24.85C104.659 24.75 104.495 24.6633 104.249 24.59C104.142 24.55 103.809 24.53 103.249 24.53C103.042 24.53 102.892 24.5367 102.799 24.55L102.659 24.58L102.509 24.6C102.202 24.66 101.975 24.8033 101.829 25.03C101.749 25.15 101.709 25.2533 101.709 25.34C101.709 25.4333 101.745 25.5167 101.819 25.59ZM112.938 19.55C112.965 19.5433 113.018 19.54 113.098 19.54C113.251 19.54 113.345 19.5567 113.378 19.59C113.411 19.6233 113.428 20.7433 113.428 22.95V26.27L113.318 26.36C113.238 26.4267 113.165 26.46 113.098 26.46C113.018 26.46 112.931 26.42 112.838 26.34L112.728 26.24L112.698 25.56C112.685 25.2533 112.678 24.8033 112.678 24.21L112.688 22.46C112.701 20.7733 112.715 19.8967 112.728 19.83C112.768 19.6633 112.838 19.57 112.938 19.55ZM107.188 24.89C107.188 24.7167 107.261 24.6067 107.408 24.56C107.495 24.5333 108.191 24.51 109.498 24.49C110.811 24.4567 111.471 24.4367 111.478 24.43C111.491 24.4167 111.541 24.41 111.628 24.41C111.728 24.4233 111.801 24.4367 111.848 24.45C112.035 24.5033 112.141 24.5967 112.168 24.73V24.78C112.168 24.84 112.155 24.8967 112.128 24.95C112.095 25.03 112.045 25.0867 111.978 25.12C111.905 25.1467 111.198 25.1633 109.858 25.17C108.538 25.1767 107.801 25.19 107.648 25.21H107.588C107.488 25.21 107.401 25.19 107.328 25.15C107.235 25.0833 107.188 24.9967 107.188 24.89ZM107.678 21.49C107.725 21.25 107.815 21.0133 107.948 20.78C108.008 20.6733 108.131 20.54 108.318 20.38C108.511 20.2067 108.631 20.12 108.678 20.12L108.828 20.06C108.901 20.0267 108.995 19.9967 109.108 19.97C109.221 19.9433 109.351 19.93 109.498 19.93C109.651 19.93 109.791 19.9433 109.918 19.97C110.185 20.0167 110.418 20.1033 110.618 20.23C110.898 20.4167 111.108 20.7067 111.248 21.1C111.328 21.34 111.368 21.5733 111.368 21.8C111.368 21.9333 111.351 22.0767 111.318 22.23C111.178 22.7967 110.915 23.1933 110.528 23.42C110.355 23.52 110.201 23.5867 110.068 23.62C109.921 23.6533 109.735 23.67 109.508 23.67C109.181 23.67 108.918 23.6267 108.718 23.54C108.511 23.46 108.301 23.3133 108.088 23.1C107.781 22.7933 107.628 22.4133 107.628 21.96C107.628 21.8267 107.645 21.67 107.678 21.49ZM108.428 21.91C108.428 22.17 108.455 22.36 108.508 22.48C108.681 22.7933 109.005 22.9633 109.478 22.99C109.611 22.9967 109.701 22.9967 109.748 22.99C109.821 22.9767 109.895 22.9533 109.968 22.92C110.248 22.7933 110.435 22.5533 110.528 22.2C110.561 22.0667 110.578 21.9467 110.578 21.84C110.578 21.7333 110.561 21.6067 110.528 21.46C110.481 21.2667 110.421 21.1133 110.348 21C110.261 20.8933 110.138 20.8067 109.978 20.74C109.811 20.6733 109.645 20.64 109.478 20.64C109.331 20.64 109.201 20.67 109.088 20.73C108.821 20.8633 108.635 21.0533 108.528 21.3C108.488 21.3733 108.461 21.4533 108.448 21.54C108.435 21.6333 108.428 21.7567 108.428 21.91ZM118.071 19.34C118.111 19.32 118.444 19.31 119.071 19.31L120.461 19.32L121.431 19.33C121.964 19.33 122.287 19.3333 122.401 19.34C122.674 19.3467 122.844 19.3667 122.911 19.4C123.051 19.4533 123.137 19.53 123.171 19.63C123.177 19.6433 123.181 19.6667 123.181 19.7C123.181 19.7667 123.144 19.8467 123.071 19.94L122.951 20.06L121.941 20.03L121.271 20.02C121.037 20.02 120.907 20.0267 120.881 20.04C120.801 20.0867 120.867 20.1867 121.081 20.34L121.151 20.39L121.631 20.63L121.821 20.72C122.161 20.8867 122.351 20.97 122.391 20.97L122.511 21.02C122.617 21.0733 122.727 21.12 122.841 21.16C123.134 21.26 123.311 21.3767 123.371 21.51C123.377 21.5233 123.381 21.5433 123.381 21.57C123.381 21.6033 123.364 21.66 123.331 21.74C123.271 21.8667 123.184 21.93 123.071 21.93C123.051 21.93 123.014 21.9233 122.961 21.91C122.894 21.8967 122.684 21.8167 122.331 21.67L121.521 21.34C121.327 21.2467 121.107 21.15 120.861 21.05L120.491 20.9L120.201 21.07C120.141 21.11 119.997 21.1933 119.771 21.32C119.691 21.36 119.531 21.46 119.291 21.62C118.777 21.9533 118.471 22.12 118.371 22.12C118.304 22.12 118.234 22.09 118.161 22.03C118.094 21.9833 118.054 21.92 118.041 21.84C118.007 21.7 118.054 21.5733 118.181 21.46C118.241 21.4 118.391 21.2933 118.631 21.14C118.884 20.98 119.024 20.9 119.051 20.9C119.071 20.9 119.184 20.8367 119.391 20.71L119.771 20.47C119.844 20.4167 119.914 20.35 119.981 20.27C120.041 20.1967 120.071 20.15 120.071 20.13C120.071 20.05 119.941 20.01 119.681 20.01C119.487 20.01 119.201 19.9967 118.821 19.97C118.381 19.9367 118.131 19.9167 118.071 19.91C118.011 19.8967 117.964 19.85 117.931 19.77C117.917 19.7033 117.911 19.66 117.911 19.64C117.911 19.6067 117.917 19.5633 117.931 19.51C117.984 19.41 118.031 19.3533 118.071 19.34ZM117.181 23C117.194 22.84 117.261 22.7433 117.381 22.71C117.501 22.6767 117.921 22.6567 118.641 22.65H118.681C119.514 22.6367 119.947 22.62 119.981 22.6C120.014 22.5667 120.034 22.4133 120.041 22.14C120.041 21.96 120.047 21.8367 120.061 21.77C120.074 21.71 120.101 21.66 120.141 21.62C120.201 21.56 120.284 21.53 120.391 21.53C120.504 21.53 120.584 21.5433 120.631 21.57C120.751 21.63 120.811 21.82 120.811 22.14C120.811 22.34 120.824 22.47 120.851 22.53L120.901 22.62L122.221 22.64L122.801 22.65C123.127 22.65 123.321 22.6533 123.381 22.66C123.494 22.6667 123.584 22.6933 123.651 22.74C123.751 22.8067 123.811 22.8967 123.831 23.01V23.05C123.831 23.1433 123.797 23.2267 123.731 23.3L123.651 23.38L120.521 23.37L119.171 23.36C118.397 23.36 117.944 23.3567 117.811 23.35C117.511 23.3433 117.334 23.3233 117.281 23.29C117.234 23.2567 117.204 23.2267 117.191 23.2C117.184 23.18 117.181 23.1167 117.181 23.01V23ZM118.181 25.21C118.181 25.0233 118.207 24.86 118.261 24.72C118.301 24.6133 118.404 24.4667 118.571 24.28C118.751 24.08 118.924 23.9333 119.091 23.84C119.291 23.74 119.521 23.6667 119.781 23.62C119.994 23.58 120.197 23.56 120.391 23.56C120.764 23.56 121.141 23.6267 121.521 23.76C122.087 23.96 122.461 24.25 122.641 24.63C122.714 24.79 122.751 24.9667 122.751 25.16C122.751 25.3533 122.737 25.49 122.711 25.57C122.677 25.6633 122.607 25.78 122.501 25.92C122.254 26.26 121.801 26.49 121.141 26.61C121.001 26.6433 120.817 26.66 120.591 26.66C120.371 26.66 120.167 26.6433 119.981 26.61C119.521 26.5367 119.157 26.4367 118.891 26.31C118.724 26.23 118.597 26.1533 118.511 26.08C118.431 26.02 118.357 25.9167 118.291 25.77C118.217 25.6033 118.181 25.4167 118.181 25.21ZM118.931 25.05C118.911 25.1167 118.901 25.18 118.901 25.24C118.901 25.44 119.024 25.59 119.271 25.69C119.517 25.79 119.874 25.8533 120.341 25.88C120.567 25.8933 120.717 25.9 120.791 25.9C121.037 25.9 121.221 25.88 121.341 25.84C121.554 25.7667 121.714 25.6433 121.821 25.47C121.874 25.3833 121.901 25.2833 121.901 25.17C121.901 25.0767 121.884 24.9967 121.851 24.93C121.717 24.63 121.414 24.4267 120.941 24.32C120.774 24.2867 120.614 24.27 120.461 24.27C120.034 24.27 119.691 24.3367 119.431 24.47C119.177 24.61 119.011 24.8033 118.931 25.05ZM129.949 19.65C130.029 19.6167 130.076 19.6 130.089 19.6H130.109C130.136 19.6 130.182 19.6167 130.249 19.65C130.322 19.6967 130.362 19.7367 130.369 19.77C130.389 19.79 130.406 20.8767 130.419 23.03L130.429 26.22L130.349 26.3C130.289 26.36 130.192 26.39 130.059 26.39C129.926 26.39 129.832 26.36 129.779 26.3C129.712 26.2133 129.679 25.14 129.679 23.08V22.15L129.689 21.2C129.689 20.66 129.692 20.34 129.699 20.24C129.712 20.0133 129.732 19.8767 129.759 19.83C129.812 19.75 129.876 19.69 129.949 19.65ZM124.229 22.85C124.229 22.4033 124.276 22.0967 124.369 21.93C124.402 21.85 124.419 21.8 124.419 21.78C124.419 21.74 124.509 21.5467 124.689 21.2C124.789 21.0067 124.952 20.8267 125.179 20.66C125.399 20.4867 125.612 20.3867 125.819 20.36C125.846 20.3533 125.892 20.35 125.959 20.35C126.439 20.35 126.839 20.44 127.159 20.62C127.419 20.7667 127.629 20.9933 127.789 21.3C127.929 21.5733 128.016 21.7833 128.049 21.93C128.082 22.1167 128.099 22.38 128.099 22.72C128.099 23.0467 128.096 23.24 128.089 23.3C128.082 23.3667 128.049 23.49 127.989 23.67C127.849 24.09 127.656 24.4233 127.409 24.67C127.269 24.8233 127.096 24.9367 126.889 25.01C126.709 25.0767 126.456 25.11 126.129 25.11C125.989 25.11 125.822 25.0833 125.629 25.03C125.476 24.99 125.319 24.9267 125.159 24.84C124.719 24.5533 124.422 24.0433 124.269 23.31C124.242 23.1967 124.229 23.0433 124.229 22.85ZM124.979 22.91C125.019 23.41 125.156 23.7967 125.389 24.07C125.569 24.2833 125.842 24.39 126.209 24.39C126.389 24.39 126.566 24.3467 126.739 24.26C126.872 24.2 126.992 24.0767 127.099 23.89C127.206 23.7033 127.279 23.4967 127.319 23.27C127.352 23.1167 127.369 22.9433 127.369 22.75C127.369 22.43 127.309 22.12 127.189 21.82C127.142 21.6933 127.046 21.5533 126.899 21.4C126.752 21.2533 126.619 21.1567 126.499 21.11C126.379 21.0633 126.269 21.04 126.169 21.04C126.042 21.04 125.892 21.0967 125.719 21.21C125.539 21.33 125.399 21.47 125.299 21.63C125.192 21.8033 125.106 22.0267 125.039 22.3C124.992 22.5067 124.972 22.71 124.979 22.91ZM132.683 19.39C132.763 19.3767 133.086 19.37 133.653 19.37C134.259 19.37 134.586 19.3733 134.633 19.38C134.726 19.4 134.793 19.45 134.833 19.53C134.859 19.5767 134.873 19.6267 134.873 19.68C134.873 19.78 134.819 19.87 134.713 19.95C134.679 19.9833 134.616 20.0067 134.523 20.02L134.283 20.03L133.833 20.02C133.333 20.02 133.013 20.01 132.873 19.99C132.733 19.97 132.626 19.92 132.553 19.84C132.479 19.7667 132.443 19.7067 132.443 19.66C132.443 19.62 132.469 19.5633 132.523 19.49C132.569 19.4367 132.623 19.4033 132.683 19.39ZM131.623 20.65C131.656 20.55 131.716 20.4867 131.803 20.46C131.883 20.4267 132.036 20.4067 132.263 20.4C132.476 20.3867 133.086 20.3767 134.093 20.37C134.326 20.3633 134.603 20.36 134.923 20.36C135.163 20.36 135.306 20.3633 135.353 20.37C135.506 20.3833 135.619 20.4067 135.693 20.44C135.813 20.4933 135.889 20.57 135.923 20.67L135.933 20.73C135.933 20.81 135.896 20.8867 135.823 20.96L135.713 21.06L134.813 21.07C133.946 21.07 133.619 21.0933 133.833 21.14C133.846 21.1467 133.866 21.15 133.893 21.15C134.033 21.17 134.186 21.2133 134.353 21.28C134.559 21.36 134.696 21.4267 134.763 21.48C134.876 21.56 134.966 21.6467 135.033 21.74C135.253 22.0267 135.363 22.35 135.363 22.71C135.363 22.8967 135.333 23.07 135.273 23.23C135.186 23.4567 135.043 23.6533 134.843 23.82C134.563 24.0533 134.249 24.17 133.903 24.17C133.716 24.17 133.493 24.1333 133.233 24.06C132.886 23.9733 132.616 23.85 132.423 23.69C132.296 23.5767 132.196 23.4367 132.123 23.27C132.043 23.0967 132.003 22.9333 132.003 22.78C132.003 22.44 132.159 22.0933 132.473 21.74C132.773 21.4 133.113 21.2033 133.493 21.15L133.603 21.12C133.603 21.12 133.516 21.1133 133.343 21.1H133.333L132.363 21.07C132.096 21.07 131.916 21.0633 131.823 21.05C131.756 21.0367 131.706 21.0167 131.673 20.99C131.619 20.9367 131.593 20.8733 131.593 20.8C131.593 20.7467 131.603 20.6967 131.623 20.65ZM132.793 22.88C132.826 23.2 133.136 23.36 133.723 23.36C134.056 23.36 134.303 23.2767 134.463 23.11C134.549 23.01 134.593 22.88 134.593 22.72C134.593 22.6 134.569 22.4967 134.523 22.41C134.409 22.19 134.233 22.0433 133.993 21.97C133.873 21.9367 133.769 21.92 133.683 21.92C133.443 21.92 133.233 22.01 133.053 22.19C132.846 22.3767 132.759 22.6067 132.793 22.88ZM132.863 24.72C132.856 24.7067 132.853 24.6867 132.853 24.66C132.853 24.62 132.863 24.5867 132.883 24.56C132.956 24.4667 133.133 24.4067 133.413 24.38C133.693 24.3467 134.303 24.3167 135.243 24.29C136.069 24.2633 136.603 24.25 136.843 24.25C136.989 24.2633 137.083 24.29 137.123 24.33C137.216 24.3967 137.276 24.4967 137.303 24.63C137.323 24.7567 137.333 25.0467 137.333 25.5C137.333 25.9067 137.329 26.1467 137.323 26.22C137.316 26.3133 137.296 26.3967 137.263 26.47C137.216 26.55 137.186 26.5933 137.173 26.6C137.133 26.6133 137.076 26.62 137.003 26.62C136.883 26.62 136.803 26.61 136.763 26.59C136.716 26.57 136.673 26.5267 136.633 26.46C136.586 26.3667 136.563 26.2167 136.563 26.01C136.563 25.87 136.553 25.6867 136.533 25.46L136.513 24.98L133.083 25.01L132.963 24.9C132.903 24.84 132.869 24.78 132.863 24.72ZM136.533 23.38C136.533 22.88 136.546 22.2667 136.573 21.54C136.593 20.7267 136.613 20.2333 136.633 20.06C136.639 19.9533 136.653 19.85 136.673 19.75C136.679 19.7167 136.713 19.67 136.773 19.61C136.846 19.5433 136.933 19.51 137.033 19.51C137.086 19.51 137.133 19.5167 137.173 19.53C137.199 19.5367 137.229 19.57 137.263 19.63C137.289 19.6767 137.309 19.75 137.323 19.85C137.329 19.9167 137.333 20.15 137.333 20.55C137.333 21.0767 137.349 21.3567 137.383 21.39C137.409 21.4167 137.536 21.43 137.763 21.43C138.109 21.43 138.346 21.46 138.473 21.52C138.599 21.58 138.663 21.6867 138.663 21.84C138.663 21.9467 138.633 22.0367 138.573 22.11C138.526 22.1433 138.476 22.1667 138.423 22.18L138.263 22.19L137.953 22.18C137.599 22.18 137.399 22.1967 137.353 22.23C137.326 22.25 137.306 22.3 137.293 22.38C137.279 22.4733 137.269 22.6867 137.263 23.02C137.256 23.3533 137.246 23.5667 137.233 23.66C137.226 23.7333 137.203 23.8033 137.163 23.87C137.103 23.9633 137.023 24.01 136.923 24.01C136.796 24.01 136.693 23.9567 136.613 23.85C136.559 23.7767 136.533 23.62 136.533 23.38Z" fill="#867171"/>
<path d="M57.0068 23.7001C58.7378 25.2387 61.5 26.4996 63.9397 27.1581C66 27.4996 68.7278 26.988 70.4528 26.2852C75.0086 24.4291 78.8429 22.5806 83.8653 23.1629" stroke="#7D6F6F" stroke-linecap="round" stroke-dasharray="3 4"/>
<path d="M66.5904 20.1455C66.737 20.0036 66.7809 19.7859 66.7005 19.5982C66.6201 19.4106 66.4323 19.2921 66.2283 19.3004L52.7533 19.8469L48.0179 36.8404C47.9583 37.0543 48.0494 37.2817 48.2403 37.3953C48.4311 37.5088 48.6744 37.4805 48.834 37.3261L66.5904 20.1455Z" fill="#FF76B4"/>
<path d="M66.5904 20.1455C66.737 20.0036 66.7809 19.7859 66.7005 19.5982C66.6201 19.4106 66.4323 19.2921 66.2283 19.3004L52.7533 19.8469L48.0179 36.8404C47.9583 37.0543 48.0494 37.2817 48.2403 37.3953C48.4311 37.5088 48.6744 37.4805 48.834 37.3261L66.5904 20.1455Z" fill="url(#paint0_radial_974_38556)" fill-opacity="0.5"/>
<path d="M43.4232 18.0374L38.3164 19.3714C37.5373 19.5748 37.3944 20.6186 38.0921 21.0262L45.2855 25.2371C45.8369 25.5633 46.5405 25.2245 46.6398 24.5899L47.388 19.5118C47.4604 19.0204 47.1283 18.5672 46.6381 18.4883L43.8034 18.0215C43.6798 17.9982 43.5501 18.0074 43.4297 18.0386L43.4232 18.0374Z" fill="#FF76B4"/>
<path d="M43.4232 18.0374L38.3164 19.3714C37.5373 19.5748 37.3944 20.6186 38.0921 21.0262L45.2855 25.2371C45.8369 25.5633 46.5405 25.2245 46.6398 24.5899L47.388 19.5118C47.4604 19.0204 47.1283 18.5672 46.6381 18.4883L43.8034 18.0215C43.6798 17.9982 43.5501 18.0074 43.4297 18.0386L43.4232 18.0374Z" fill="url(#paint1_radial_974_38556)" fill-opacity="0.3"/>
<g filter="url(#filter0_d_974_38556)">
<path fill-rule="evenodd" clip-rule="evenodd" d="M59.247 10.5397C59.3956 10.6782 59.4439 10.8937 59.3685 11.0824L48.9482 37.155C48.8685 37.3543 48.6689 37.479 48.4549 37.4631C48.2409 37.4472 48.0618 37.2944 48.0125 37.0855L43.5568 18.2225C43.5038 17.9982 43.6136 17.7672 43.821 17.6667L58.6971 10.457C58.8799 10.3684 59.0984 10.4013 59.247 10.5397Z" fill="#FF76B4"/>
</g>
<defs>
<filter id="filter0_d_974_38556" x="42.5595" y="8.44025" width="19.7963" height="30.9926" filterUnits="userSpaceOnUse" color-interpolation-filters="sRGB">
<feFlood flood-opacity="0" result="BackgroundImageFix"/>
<feColorMatrix in="SourceAlpha" type="matrix" values="0 0 0 0 0 0 0 0 0 0 0 0 0 0 0 0 0 0 127 0" result="hardAlpha"/>
<feOffset dx="0.983979"/>
<feGaussianBlur stdDeviation="0.983979"/>
<feComposite in2="hardAlpha" operator="out"/>
<feColorMatrix type="matrix" values="0 0 0 0 0.357859 0 0 0 0 0.216944 0 0 0 0 0.366667 0 0 0 0.15 0"/>
<feBlend mode="normal" in2="BackgroundImageFix" result="effect1_dropShadow_974_38556"/>
<feBlend mode="normal" in="SourceGraphic" in2="effect1_dropShadow_974_38556" result="shape"/>
</filter>
<radialGradient id="paint0_radial_974_38556" cx="0" cy="0" r="1" gradientUnits="userSpaceOnUse" gradientTransform="translate(52.4022 24.1918) rotate(22.648) scale(16.5969 27.855)">
<stop stop-color="#6C2747"/>
<stop offset="0.0001" stop-color="#853745"/>
<stop offset="0.642253" stop-color="#FF76B4"/>
</radialGradient>
<radialGradient id="paint1_radial_974_38556" cx="0" cy="0" r="1" gradientUnits="userSpaceOnUse" gradientTransform="translate(44.4982 20.8944) rotate(173.318) scale(11.1835 19.1524)">
<stop stop-color="#802F53"/>
<stop offset="0.642253" stop-color="#FF76B4"/>
</radialGradient>
</defs>
</svg>
